<svg width="16" height="16" viewBox="0 0 16 16" fill="none" xmlns="http://www.w3.org/2000/svg" preserveAspectRatio="none">
<mask id="mask0_12073_7551" style="mask-type:luminance" maskUnits="userSpaceOnUse" x="0" y="0" width="16" height="16">
<path d="M0 0H16V16H0V0Z" fill="white"/>
</mask>
<g mask="url(#mask0_12073_7551)">
<path d="M14.8 8.25C15.57 7.48 16 6.45 16 5.35C16.0008 4.81136 15.8953 4.27786 15.6895 3.78007C15.4837 3.28228 15.1818 2.82998 14.8009 2.4491C14.42 2.06823 13.9677 1.76625 13.4699 1.56049C12.9721 1.35472 12.4386 1.24921 11.9 1.25C10.8 1.25 9.77998 1.68 8.99998 2.45L7.98998 3.46L6.97998 2.45C6.20998 1.68 5.17998 1.25 4.07998 1.25C3.54134 1.24921 3.00784 1.35472 2.51005 1.56049C2.01226 1.76625 1.55996 2.06823 1.17908 2.4491C0.798207 2.82998 0.496235 3.28228 0.29047 3.78007C0.0847058 4.27786 -0.0208051 4.81136 -0.0200151 5.35C-0.0200151 6.45 0.409985 7.47 1.17999 8.25L7.97998 15.05L14.78 8.25H14.8ZM1.49998 5.35C1.49998 4.65 1.76998 4 2.25998 3.52C2.74998 3.03 3.39999 2.76 4.09999 2.76C4.79998 2.76 5.43998 3.03 5.93998 3.52L8.00998 5.59L10.08 3.52C11.06 2.54 12.77 2.54 13.75 3.52C13.991 3.76097 14.1821 4.04705 14.3126 4.3619C14.443 4.67675 14.5101 5.01421 14.5101 5.355C14.5101 5.6958 14.443 6.03326 14.3126 6.34811C14.1821 6.66296 13.991 6.94903 13.75 7.19L8.00998 12.93L2.25998 7.19C1.76998 6.7 1.49998 6.05 1.49998 5.35Z" fill="white"/>
</g>
</svg>
