<svg width="320" height="671" viewBox="0 0 320 671" fill="none" xmlns="http://www.w3.org/2000/svg" preserveAspectRatio="none">
<path d="M187.776 543.582V487.039C187.776 446.212 193.517 414.538 205.001 392.04C216.484 369.541 232.216 358.259 252.19 358.259C274.43 358.259 291.26 372.943 302.775 402.224C314.258 431.506 320 473.957 320 529.468V670.804H237.5C220.915 670.804 208.484 660.026 200.207 638.537C191.93 617.136 187.776 585.396 187.776 543.538V543.582Z" fill="#F7A810"/>
<rect y="594.804" width="31" height="76" fill="#20C376"/>
<path d="M289.444 0.803718L320 0.803711L320 353.804L273.132 353.804L257 224.604L289.444 0.803718Z" fill="#F06C13"/>
<path d="M234.175 308.223H143.661V0.803711H281.022L234.175 308.223Z" fill="#23A5E9"/>
<path d="M0 362.825L191 595.763V670.804L37.9317 670.804V578.316L0 578.316V362.804V362.825Z" fill="#EA3E00"/>
<path d="M92.6828 325.454H0.000244141V0.803711H92.6828C110.059 0.803711 122.897 12.0867 131.205 34.6303C139.504 57.1739 143.662 92.0099 143.662 139.094V188.69C143.662 234.786 139.409 269.106 130.92 291.65C122.422 314.194 109.679 325.477 92.6915 325.477L92.6828 325.454Z" fill="#FFFF42"/>
</svg>
