<svg width="24" height="24" xmlns="http://www.w3.org/2000/svg"><path d="M23 12.278c0 4.982-3.148 9.208-7.516 10.701-.558.111-.756-.24-.756-.541 0-.372.013-1.586.013-3.096 0-1.051-.352-1.738-.747-2.087 2.45-.28 5.024-1.233 5.024-5.565 0-1.232-.427-2.238-1.133-3.027.114-.285.492-1.433-.108-2.986 0 0-.922-.302-3.022 1.156-.878-.25-1.82-.375-2.755-.38-.935.005-1.876.13-2.753.38C7.145 5.375 6.22 5.677 6.22 5.677c-.598 1.553-.22 2.7-.107 2.986-.703.79-1.133 1.795-1.133 3.027 0 4.32 2.568 5.289 5.011 5.573-.314.282-.599.78-.698 1.509-.627.288-2.22.786-3.201-.938 0 0-.582-1.083-1.686-1.162 0 0-1.073-.015-.075.685 0 0 .72.346 1.22 1.65 0 0 .647 2.013 3.707 1.33.005.944.015 1.832.015 2.1 0 .299-.202.648-.751.543C4.152 21.49 1 17.261 1 12.278 1 6.05 5.926 1 12 1c6.075 0 11 5.049 11 11.278z" fill="#FFF" fill-rule="evenodd"/></svg>