<svg width="24" height="24" xmlns="http://www.w3.org/2000/svg"><path d="M.887.849A8.09 8.09 0 0 0 .85.887V.85h.038zm22.217 0h.047v.047a8.088 8.088 0 0 0-.047-.047zm.047 22.264v.038h-.038a8.08 8.08 0 0 0 .038-.038zM.88 23.15H.85v-.03a8.119 8.119 0 0 0 .03.03zM11.996 1.037c3.572 0 3.995.014 5.405.078 1.305.06 2.013.278 2.484.46.625.244 1.07.533 1.538 1.002.469.468.758.913 1.001 1.538.183.471.401 1.18.46 2.484.065 1.41.079 1.833.079 5.405s-.014 3.995-.078 5.406c-.06 1.304-.278 2.012-.46 2.484a4.144 4.144 0 0 1-1.002 1.538 4.144 4.144 0 0 1-1.538 1c-.471.184-1.18.402-2.484.461-1.41.064-1.833.078-5.405.078S8 22.957 6.59 22.893c-1.304-.06-2.012-.277-2.484-.46a4.144 4.144 0 0 1-1.538-1.001 4.145 4.145 0 0 1-1-1.538c-.184-.472-.402-1.18-.461-2.484-.064-1.41-.078-1.834-.078-5.406 0-3.572.014-3.995.078-5.405.06-1.305.277-2.013.46-2.484a4.144 4.144 0 0 1 1.001-1.538 4.144 4.144 0 0 1 1.538-1.001c.472-.183 1.18-.401 2.484-.46 1.41-.065 1.834-.079 5.406-.079zm8.746 3.826a1.605 1.605 0 1 0-3.21 0 1.605 1.605 0 0 0 3.21 0zm-8.746 11.6a4.46 4.46 0 1 1 0-8.918 4.46 4.46 0 0 1 0 8.918zm0-11.328a6.87 6.87 0 1 0 0 13.739 6.87 6.87 0 0 0 0-13.74z" fill="#B7B9FA" fill-rule="evenodd"/></svg>