<svg width="96" height="31" xmlns="http://www.w3.org/2000/svg"><g fill="#FFF" fill-rule="evenodd"><path d="M83.482 19.223c0 .807.393 1.446 1.492 1.446 1.293 0 2.671-.918 2.754-3.003a13.55 13.55 0 0 0-1.824-.164c-1.298-.001-2.422.36-2.422 1.72z"/><path d="M0 0v30.43h95.925V0H0zm27.155 22.949H21.85v-7.062c0-2.168-.732-3.003-2.164-3.003-1.743 0-2.446 1.224-2.446 2.975v4.37h1.678v2.723h-5.306v-7.065c0-2.168-.73-3.003-2.163-3.003-1.743 0-2.446 1.224-2.446 2.975v4.37h2.41v2.723H3.685v-2.724H5.37v-7.093H3.547v-2.724h5.45v1.89c.759-1.334 2.08-2.141 3.85-2.141 1.823 0 3.513.863 4.131 2.698.703-1.668 2.136-2.698 4.132-2.698 2.277 0 4.357 1.363 4.357 4.338v5.73h1.687l.001 2.721zm8.067.277c-3.907 0-6.606-2.363-6.606-6.366 0-3.67 2.248-6.702 6.798-6.702s6.775 3.031 6.775 6.534c.003 4.005-2.92 6.536-6.967 6.536v-.002zm20.181-.277H44.327l-.364-1.89 6.963-7.926h-3.962l-.562 1.947-2.615-.277.45-4.394h11.141l.28 1.891-7.03 7.928h4.097l.59-1.947 2.867.278-.779 4.39zm6.858 0h-3.796v-4.504h3.796v4.504zm0-8.036h-3.796V10.41h3.796v4.502zm1.99 8.036l5.486-19.121h3.57l-5.482 19.121H64.25zm7.364 0l5.483-19.121h3.57L75.19 22.949h-3.575zm18.889.277c-1.687 0-2.613-.974-2.783-2.503-.73 1.28-2.024 2.503-4.075 2.503-1.824 0-3.906-.974-3.906-3.587 0-3.086 3.007-3.808 5.902-3.808.696-.006 1.39.032 2.081.112v-.417c0-1.279-.028-2.808-2.08-2.808-.76 0-1.35.056-1.94.361l-.47 1.78-2.895-.307.562-3.252c2.22-.89 3.345-1.148 5.425-1.148 2.728 0 5.033 1.39 5.033 4.254v5.45c0 .723.28.974.872.974.18-.003.36-.03.534-.084l.028 1.891a4.945 4.945 0 0 1-2.283.59h-.005z"/><path d="M35.36 12.912c-1.855 0-3.007 1.361-3.007 3.726 0 2.168 1.012 3.836 2.985 3.836 1.883 0 3.12-1.5 3.12-3.892-.005-2.53-1.381-3.67-3.097-3.67z"/></g></svg>