<svg data-name="logo" width="229" height="48" viewBox="0 0 229 48" fill="none" xmlns="http://www.w3.org/2000/svg">
  <g clip-path="url(#clip0_1731_10833)">
    <g clip-path="url(#clip1_1731_10833)">
      <path d="M74.3168 0.226807L77.0955 14.035H78.0946L80.873 0.226807H88.9901V21.9254H84.6074V3.95283H83.3605L79.5332 21.9254H75.3974L71.5701 3.95283H70.5825V21.9254H66.1997V0.226807H74.3168ZM100.045 4.78724C105.23 4.78724 108.234 7.8862 108.234 13.5465C108.234 19.2067 105.23 22.3057 100.045 22.3057C94.8602 22.3057 91.8567 19.2067 91.8567 13.5465C91.8567 7.8862 94.8602 4.78724 100.045 4.78724ZM100.057 18.7513C102.363 18.7513 103.453 17.5046 103.453 14.7618V12.3307C103.453 9.5879 102.363 8.34122 100.057 8.34122C97.7506 8.34122 96.66 9.5879 96.66 12.3307V14.7618C96.66 17.5046 97.7506 18.7513 100.057 18.7513ZM110.027 18.6781L118.588 8.33661H110.247V5.04894H123.833V8.36051L115.411 18.638H124.052V21.9257H110.027V18.6781ZM126.463 5.04872H132.818V21.9254H128.435V8.3364H126.463V5.04872ZM128.435 0.226807H132.818V3.51448H128.435V0.226807ZM135.886 0.226807H142.022V22.1446H137.639V3.51448H135.886V0.226807ZM145.09 0.226807H151.226V22.1446H146.843V3.51448H145.09V0.226807ZM160.944 4.73749C163.439 4.73749 165.081 5.96927 165.555 8.11744H166.565V5.04894H171.825V8.33661H170.072V18.638H171.825V21.9257H169.348C167.811 21.9257 166.565 20.6798 166.565 19.143V18.8572H165.555C165.081 21.0051 163.439 22.2371 160.944 22.2371C156.996 22.2371 154.217 18.8887 154.217 13.4873C154.217 8.08587 156.996 4.73749 160.944 4.73749ZM162.402 18.7754C164.655 18.7754 165.689 17.523 165.689 14.7675V12.3252C165.689 9.56993 164.656 8.31733 162.402 8.31733C160.148 8.31733 159.115 9.56971 159.115 12.3252V14.7675C159.115 17.5228 160.148 18.7754 162.402 18.7754Z" fill="#141414"/>
      <path d="M17.9709 0.226807L24.1158 30.4734H26.3252L32.47 0.226807H50.4214V47.7884H40.5602V8.55557H38.6311L30.0198 47.7884H20.7141L12.1031 8.55557H9.88078V47.7884H0.0195312V0.226807H17.9709Z" fill="#141414"/>
      <path d="M9.88086 8.5556H12.0869L20.6351 47.7885H9.88086V8.5556Z" fill="#7DEDF6"/>
      <path d="M17.9429 0.226807L24.0877 30.4734H26.2973L32.442 0.226807H17.9429Z" fill="#F06C13"/>
      <path d="M38.3545 8.5556H40.5606V47.7885H29.8062L38.3545 8.5556Z" fill="#F7EC36"/>
      <path d="M65.9805 25.8707H81.7585V29.3775H70.5824V34.857H79.1288V38.3638H70.5824V47.7885H65.9805V25.8707Z" fill="#141414"/>
      <path d="M83.478 45.7718C82.0023 44.2435 81.2651 42.0879 81.2651 39.3052C81.2651 36.5225 82.0025 34.3674 83.478 32.8388C84.9532 31.3105 87.0191 30.5462 89.6748 30.5462C92.3305 30.5462 94.3904 31.3105 95.8556 32.8388C97.3203 34.3676 98.0529 36.5225 98.0529 39.3052C98.0529 42.0879 97.3203 44.2435 95.8556 45.7718C94.3902 47.3006 92.3303 48.0644 89.6748 48.0644C87.0193 48.0644 84.9532 47.3006 83.478 45.7718ZM92.4688 43.5612C93.0712 42.8441 93.3728 41.7271 93.3728 40.2095V38.4011C93.3728 36.884 93.0712 35.7664 92.4688 35.0492C91.8657 34.3321 90.9305 33.9735 89.663 33.9735C88.3955 33.9735 87.4545 34.3321 86.8418 35.0492C86.2284 35.7664 85.922 36.884 85.922 38.4011V40.2095C85.922 41.7271 86.2284 42.8443 86.8418 43.5612C87.4545 44.2784 88.395 44.6369 89.663 44.6369C90.9309 44.6369 91.8657 44.2784 92.4688 43.5612Z" fill="#141414"/>
      <path d="M101.735 46.4499C100.835 45.4016 100.385 43.8709 100.385 41.8577V30.9117H104.549V41.0939C104.549 42.3588 104.795 43.2865 105.288 43.8766C105.78 44.467 106.551 44.762 107.601 44.762C108.672 44.762 109.453 44.467 109.946 43.8766C110.439 43.2865 110.685 42.3588 110.685 41.0939V30.9117H115.068V47.7885H111.123V44.72H110.527C109.71 46.9216 108.098 48.0225 105.691 48.0225C103.954 48.0225 102.635 47.4987 101.735 46.4499Z" fill="#141414"/>
      <path d="M118.135 30.9118H122.08V33.9803H122.676C123.074 32.8903 123.676 32.0671 124.482 31.511C125.287 30.9556 126.297 30.6775 127.511 30.6775C129.249 30.6775 130.567 31.2018 131.467 32.2501C132.367 33.2989 132.818 34.8292 132.818 36.8423V47.7883H128.435V37.6061C128.435 36.3413 128.19 35.4139 127.7 34.8235C127.209 34.2334 126.432 33.938 125.367 33.938C124.323 33.938 123.55 34.2334 123.05 34.8235C122.549 35.4139 122.299 36.3413 122.299 37.6061V47.7883H118.135V30.9116V30.9118Z" fill="#141414"/>
      <path d="M138.427 47.0282C137.443 46.327 136.679 45.3223 136.135 44.0136C135.591 42.7055 135.319 41.1617 135.319 39.3819C135.319 37.6022 135.586 36.059 136.12 34.7503C136.653 33.4422 137.412 32.4375 138.396 31.7359C139.379 31.0348 140.541 30.6841 141.881 30.6841C143.074 30.6841 144.073 30.951 144.879 31.4847C145.684 32.0186 146.265 32.7777 146.621 33.7613H147.189C147.104 32.3003 147.062 31.0828 147.062 30.1083V24.9942H151.445V47.7887H147.5V44.7202H146.904C146.485 45.7878 145.846 46.6152 144.989 47.2009C144.13 47.7868 143.094 48.08 141.881 48.08C140.562 48.08 139.411 47.7298 138.427 47.0282ZM146.182 43.5978C146.768 42.8745 147.062 41.7583 147.062 40.2488V38.3619C147.062 36.8524 146.768 35.7361 146.182 35.0126C145.594 34.2893 144.683 33.9277 143.446 33.9277C142.209 33.9277 141.297 34.2893 140.711 35.0126C140.123 35.7359 139.83 36.8522 139.83 38.3619V40.2488C139.83 41.7583 140.123 42.8745 140.711 43.5978C141.297 44.3211 142.209 44.6827 143.446 44.6827C144.683 44.6827 145.594 44.3211 146.182 43.5978Z" fill="#141414"/>
      <path d="M156.879 46.9179C155.97 46.2356 155.262 45.2484 154.755 43.9559C154.249 42.6639 153.996 41.1288 153.996 39.3501C153.996 37.5715 154.249 36.0368 154.755 34.7443C155.262 33.4523 155.97 32.4647 156.879 31.7824C157.789 31.1 158.853 30.7588 160.074 30.7588C161.231 30.7588 162.187 31.0742 162.942 31.7048C163.696 32.3358 164.208 33.2401 164.477 34.4186H165.469V30.9118H171.167V34.1994H169.414V44.5008H171.167V47.7885H168.287C167.358 47.7885 166.656 47.5491 166.181 47.0702C165.707 46.5916 165.469 45.8843 165.469 44.9475V44.2814H164.477C164.208 45.4599 163.696 46.3647 162.942 46.9953C162.187 47.6263 161.231 47.9413 160.073 47.9413C158.853 47.9413 157.789 47.6 156.879 46.9177L156.879 46.9179ZM164.049 43.5958C164.558 42.9394 164.812 41.9327 164.812 40.5764V38.034C164.812 36.6783 164.558 35.6717 164.049 35.0148C163.541 34.3584 162.736 34.0296 161.635 34.0296C160.533 34.0296 159.728 34.3584 159.22 35.0148C158.711 35.6719 158.457 36.6783 158.457 38.034V40.5764C158.457 41.9327 158.711 42.9394 159.22 43.5958C159.728 44.2529 160.533 44.581 161.635 44.581C162.736 44.581 163.541 44.2529 164.049 43.5958Z" fill="#141414"/>
      <path d="M172.701 30.9118H184.754V33.9803H172.701V30.9118ZM176.47 47.1066C176.003 46.6525 175.769 45.9908 175.769 45.1231V26.0901H180.152V44.7202H184.754V47.7887H178.509C177.617 47.7887 176.937 47.5614 176.47 47.1066Z" fill="#141414"/>
      <path d="M188.26 33.9803H186.068V30.9118H192.423V47.7885H188.26V33.9803ZM187.821 24.994H192.643V28.5008H187.821V24.994Z" fill="#141414"/>
      <path d="M197.355 45.7718C195.879 44.2435 195.142 42.0879 195.142 39.3052C195.142 36.5225 195.88 34.3674 197.355 32.8388C198.83 31.3105 200.896 30.5462 203.552 30.5462C206.208 30.5462 208.268 31.3105 209.733 32.8388C211.198 34.3676 211.93 36.5225 211.93 39.3052C211.93 42.0879 211.198 44.2435 209.733 45.7718C208.267 47.3006 206.208 48.0644 203.552 48.0644C200.896 48.0644 198.83 47.3006 197.355 45.7718ZM206.421 43.5612C207.023 42.8441 207.325 41.7271 207.325 40.2095V38.4011C207.325 36.884 207.023 35.7664 206.421 35.0492C205.818 34.3321 204.883 33.9735 203.615 33.9735C202.348 33.9735 201.406 34.3321 200.794 35.0492C200.181 35.7664 199.874 36.884 199.874 38.4011V40.2095C199.874 41.7271 200.181 42.8443 200.794 43.5612C201.406 44.2784 202.347 44.6369 203.615 44.6369C204.883 44.6369 205.818 44.2784 206.421 43.5612Z" fill="#141414"/>
      <path d="M214.337 30.9118H218.282V33.9803H218.879C219.276 32.8903 219.878 32.0671 220.684 31.511C221.489 30.9556 222.499 30.6775 223.713 30.6775C225.451 30.6775 226.769 31.2018 227.669 32.2501C228.569 33.2989 229.02 34.8292 229.02 36.8423V47.7883H224.856V37.6061C224.856 36.3413 224.611 35.4139 224.121 34.8235C223.63 34.2334 222.853 33.938 221.788 33.938C220.744 33.938 219.971 34.2334 219.471 34.8235C218.97 35.4139 218.72 36.3413 218.72 37.6061V47.7883H214.337V30.9116V30.9118Z" fill="#141414"/>
    </g>
  </g>
  <defs>
    <clipPath id="clip0_1731_10833">
      <rect width="229" height="48" fill="white"/>
    </clipPath>
    <clipPath id="clip1_1731_10833">
      <rect width="229" height="48" fill="white"/>
    </clipPath>
  </defs>
</svg>