<svg width="24" height="25" viewBox="0 0 24 25" fill="none" xmlns="http://www.w3.org/2000/svg">
  <g clip-path="url(#clip0_677_6986)">
    <path d="M12.5251 0.493389C13.8351 0.473389 15.1351 0.483389 16.4351 0.473389C16.5151 2.00339 17.0651 3.56339 18.1851 4.64339C19.3051 5.75339 20.8851 6.26339 22.4251 6.43339V10.4634C20.9851 10.4134 19.5351 10.1134 18.2251 9.49339C17.6551 9.23339 17.1251 8.90339 16.6051 8.56339C16.5951 11.4834 16.6151 14.4034 16.5851 17.3134C16.5051 18.7134 16.0451 20.1034 15.2351 21.2534C13.9251 23.1734 11.6551 24.4234 9.32512 24.4634C7.89512 24.5434 6.46512 24.1534 5.24512 23.4334C3.22512 22.2434 1.80512 20.0634 1.59512 17.7234C1.57512 17.2234 1.56512 16.7234 1.58512 16.2334C1.76512 14.3334 2.70512 12.5134 4.16512 11.2734C5.82512 9.83339 8.14512 9.14339 10.3151 9.55339C10.3351 11.0334 10.2751 12.5134 10.2751 13.9934C9.28512 13.6734 8.12512 13.7634 7.25512 14.3634C6.62512 14.7734 6.14512 15.4034 5.89512 16.1134C5.68512 16.6234 5.74512 17.1834 5.75512 17.7234C5.99512 19.3634 7.57512 20.7434 9.25512 20.5934C10.3751 20.5834 11.4451 19.9334 12.0251 18.9834C12.2151 18.6534 12.4251 18.3134 12.4351 17.9234C12.5351 16.1334 12.4951 14.3534 12.5051 12.5634C12.5151 8.53339 12.4951 4.51339 12.5251 0.493389Z" fill="#FF9E5F"/>
  </g>
  <defs>
    <clipPath id="clip0_677_6986">
      <rect width="24" height="24" fill="white" transform="translate(0 0.473389)"/>
    </clipPath>
  </defs>
</svg>