<svg width="24" height="24" viewBox="0 0 24 24" fill="none" xmlns="http://www.w3.org/2000/svg">
<path d="M12 10.8002C10.913 8.68618 7.954 4.74718 5.202 2.80518C2.566 0.944181 1.561 1.26618 0.902 1.56518C0.139 1.90818 0 3.08018 0 3.76818C0 4.45818 0.378 9.41818 0.624 10.2472C1.439 12.9832 4.337 13.9072 7.007 13.6112C7.143 13.5912 7.282 13.5722 7.422 13.5552C7.284 13.5772 7.146 13.5952 7.007 13.6112C3.095 14.1912 -0.38 15.6162 4.177 20.6892C9.19 25.8792 11.047 19.5762 12 16.3812C12.953 19.5762 14.05 25.6522 19.733 20.6892C24 16.3812 20.905 14.1912 16.993 13.6112C16.8542 13.5958 16.7159 13.5772 16.578 13.5552C16.718 13.5722 16.857 13.5912 16.993 13.6112C19.663 13.9082 22.561 12.9832 23.376 10.2472C23.622 9.41918 24 4.45718 24 3.76918C24 3.07918 23.861 1.90818 23.098 1.56318C22.439 1.26518 21.434 0.943181 18.798 2.80318C16.046 4.74818 13.087 8.68718 12 10.8002Z" fill="#FF9E5F"/>
</svg>
