<svg width="25" height="25" viewBox="0 0 25 25" fill="none" xmlns="http://www.w3.org/2000/svg">
  <g clip-path="url(#clip0_677_6985)">
    <path d="M12.25 0.473389C5.65 0.473389 0.25 5.87339 0.25 12.4734C0.25 19.0734 5.65 24.4734 12.25 24.4734C18.85 24.4734 24.25 19.0734 24.25 12.4734C24.25 5.87339 18.91 0.473389 12.25 0.473389ZM17.771 17.8134C17.531 18.1724 17.111 18.2934 16.75 18.0534C13.93 16.3134 10.39 15.9524 6.189 16.9124C5.771 17.0344 5.41 16.7334 5.29 16.3734C5.17 15.9524 5.47 15.5934 5.83 15.4734C10.39 14.4524 14.35 14.8734 17.47 16.7934C17.89 16.9734 17.949 17.4524 17.771 17.8134ZM19.211 14.5134C18.91 14.9334 18.37 15.1134 17.949 14.8134C14.71 12.8334 9.79 12.2334 6.01 13.4334C5.531 13.5534 4.99 13.3134 4.87 12.8334C4.75 12.3534 4.99 11.8124 5.47 11.6924C9.85 10.3734 15.25 11.0344 18.97 13.3134C19.331 13.4944 19.51 14.0934 19.211 14.5134ZM19.331 11.1534C15.49 8.87339 9.07 8.63339 5.41 9.77439C4.81 9.95339 4.21 9.59339 4.03 9.05339C3.85 8.45239 4.21 7.85339 4.75 7.67239C9.01 6.41239 16.03 6.65239 20.471 9.29339C21.01 9.59339 21.19 10.3134 20.89 10.8534C20.591 11.2744 19.87 11.4524 19.331 11.1534Z" fill="#FF9E5F"/>
  </g>
  <defs>
    <clipPath id="clip0_677_6985">
      <rect width="24" height="24" fill="#FF9E5F" transform="translate(0.25 0.473389)"/>
    </clipPath>
  </defs>
</svg>