<svg width="15" height="15" viewBox="0 0 15 15" fill="none" xmlns="http://www.w3.org/2000/svg">
<path fill-rule="evenodd" clip-rule="evenodd" d="M8.73985 -0.000234334C9.51918 -0.000234368 10.1464 0.629766 10.1464 1.41258L10.1464 5.29195C10.1464 5.59852 10.4171 5.81883 10.7223 5.76727C10.7223 5.76727 13.6184 4.59352 13.9908 4.59352C14.3641 4.59352 14.618 4.73039 14.6861 5.03602C14.7533 5.34258 14.8887 5.97164 14.8887 5.97164C14.94 6.24445 14.8887 6.44883 14.7533 6.58383L10.4339 10.8888C10.18 11.1448 9.82438 11.3145 9.43425 11.3145L1.54105 11.3145C1.23585 11.3145 0.998784 11.0595 0.998784 10.7698L0.998784 3.53883C0.998784 2.96039 1.40572 2.55258 1.86305 2.24602L4.43718 0.289454C4.59025 0.170392 4.92905 0.0175786 5.23332 0.0175785L8.67265 0.0175784L8.73985 -0.000234334Z" fill="#999999"/>
<path fill-rule="evenodd" clip-rule="evenodd" d="M0.997996 14.3709L0.997996 13.005C0.997996 12.6656 1.2864 12.3759 1.62426 12.3759L9.1628 12.3759C9.5016 12.3759 9.78906 12.6656 9.78906 13.005L9.78906 14.3709C9.78906 14.7103 9.5016 15 9.1628 15L1.62426 15C1.2864 15 0.997996 14.7281 0.997996 14.3709Z" fill="#999999"/>
</svg>
