<svg width="15" height="14" viewBox="0 0 15 14" fill="none" xmlns="http://www.w3.org/2000/svg">
<path fill-rule="evenodd" clip-rule="evenodd" d="M-0.000234604 7.83165C-0.000234604 8.61098 0.629766 9.23818 1.41258 9.23818H5.29195C5.59852 9.23818 5.81883 9.50885 5.76727 9.81405C5.76727 9.81405 4.59352 12.7102 4.59352 13.0826C4.59352 13.4559 4.73039 13.7098 5.03602 13.7779C5.34258 13.8451 5.97164 13.9804 5.97164 13.9804C6.24445 14.0318 6.44883 13.9804 6.58383 13.8451L10.8888 9.52565C11.1448 9.27178 11.3145 8.91618 11.3145 8.52605V0.632849C11.3145 0.327648 11.0595 0.0905809 10.7698 0.0905809H3.53883C2.96039 0.0905809 2.55258 0.497515 2.24602 0.954848L0.289454 3.52898C0.170391 3.68205 0.0175781 4.02085 0.0175781 4.32512V7.76445L-0.000234604 7.83165Z" fill="#FF4F5E"/>
<path fill-rule="evenodd" clip-rule="evenodd" d="M14.3709 0.0907698H13.005C12.6656 0.0907698 12.3759 0.37917 12.3759 0.717037V8.25557C12.3759 8.59437 12.6656 8.88184 13.005 8.88184H14.3709C14.7103 8.88184 15 8.59437 15 8.25557V0.717037C15 0.37917 14.7281 0.0907698 14.3709 0.0907698Z" fill="#FF4F5E"/>
</svg>
