<svg width="50" height="50" xmlns="http://www.w3.org/2000/svg"><g fill="none" fill-rule="evenodd"><path d="M25 0c13.807 0 25 11.193 25 25a25 25 0 0 1-25 25C11.193 50 0 38.807 0 25S11.193 0 25 0zm-5.851 12.766c-1.175 0-2.128.913-2.128 2.039v20.39c0 1.126.953 2.039 2.128 2.039 1.175 0 2.128-.913 2.128-2.039v-20.39c0-1.126-.953-2.039-2.128-2.039zm11.702 0c-1.175 0-2.128.913-2.128 2.039v20.39c0 1.126.953 2.039 2.128 2.039 1.175 0 2.128-.913 2.128-2.039v-20.39c0-1.126-.953-2.039-2.128-2.039z" fill="#FFF" fill-rule="nonzero"/></g></svg>