<svg width="50" height="50" xmlns="http://www.w3.org/2000/svg"><g fill="none" fill-rule="evenodd"><path d="M25 50C11.193 50 0 38.807 0 25S11.193 0 25 0s25 11.193 25 25a25 25 0 0 1-25 25zm0-45.745C13.543 4.255 4.255 13.543 4.255 25S13.543 45.745 25 45.745 45.745 36.457 45.745 25A20.745 20.745 0 0 0 25 4.255z" fill="#FFF" fill-rule="nonzero"/><path d="M19.149 37.234c-1.175 0-2.128-.913-2.128-2.039v-20.39c0-1.126.953-2.039 2.128-2.039 1.175 0 2.128.913 2.128 2.039v20.39c0 1.126-.953 2.039-2.128 2.039zM30.851 37.234c-1.175 0-2.128-.913-2.128-2.039v-20.39c0-1.126.953-2.039 2.128-2.039 1.175 0 2.128.913 2.128 2.039v20.39c0 1.126-.953 2.039-2.128 2.039z" fill="#FFF" fill-rule="nonzero"/></g></svg>