<svg width="50" height="50" xmlns="http://www.w3.org/2000/svg"><g fill="none" fill-rule="evenodd"><path d="M25 50C11.193 50 0 38.807 0 25S11.193 0 25 0s25 11.193 25 25a25 25 0 0 1-25 25zm0-45.745C13.543 4.255 4.255 13.543 4.255 25S13.543 45.745 25 45.745 45.745 36.457 45.745 25A20.745 20.745 0 0 0 25 4.255z" fill="#FFF" fill-rule="nonzero"/><path d="M34.863 23.78a1.875 1.875 0 0 1 0 3.19l-17 8.5c-1.249.772-2.86-.127-2.86-1.595v-17c0-1.468 1.611-2.367 2.86-1.595l17 8.5zm-16.11-3.543v10.276l11.557-5.138-11.557-5.138z" fill="#FFF" fill-rule="nonzero"/></g></svg>