<svg viewBox="0 0 108 108" fill="none" xmlns="http://www.w3.org/2000/svg">
  <g clip-path="url(#a)">
    <path
      d="M73.286 51.7056 38.4153 34.2877c-.4705-.2177-.9879-.3144-1.5053-.2814-.5174.0331-1.0183.1949-1.4572.4708-.4388.2758-.8016.6569-1.0553 1.1086-.2537.4517-.3903.9596-.3974 1.4775V71.884c-.0044.5316.1286 1.0554.386 1.5206.2575.4653.6307.8564 1.0837 1.1354.453.2791.9703.4367 1.5021.4576.5318.0209 1.0599-.0956 1.5335-.3382L73.286 57.2415c.5152-.2583.9483-.6547 1.251-1.1448.3027-.4902.463-1.0547.463-1.6306 0-.5759-.1603-1.1405-.463-1.6306s-.7358-.8865-1.251-1.1449v.015Z"
      fill="#CBCBCB"/>
  </g>
  <circle cx="54" cy="54" r="51.5" stroke="#CBCBCB" stroke-width="5"/>
  <defs>
    <clipPath id="a">
      <path fill="#fff" transform="translate(34 34)" d="M0 0h41v41H0z"/>
    </clipPath>
  </defs>
</svg>
