<svg width="12" height="40" viewBox="0 0 12 40" fill="none" xmlns="http://www.w3.org/2000/svg">
<path d="M6.5 0.944336L5.5 0.944336L5.5 4.37114e-08L6.5 0L6.5 0.944336ZM6.5 4.72266L5.5 4.72266L5.5 2.83301L6.5 2.83301L6.5 4.72266ZM6.5 8.5L5.5 8.5L5.5 6.61133L6.5 6.61133L6.5 8.5ZM6.5 12.2773L5.5 12.2773L5.5 10.3887L6.5 10.3887L6.5 12.2773ZM6.5 16.0557L5.5 16.0557L5.5 14.167L6.5 14.167L6.5 16.0557ZM6.5 19.833L5.5 19.833L5.5 17.9443L6.5 17.9443L6.5 19.833ZM6.5 23.6113L5.5 23.6113L5.5 21.7227L6.5 21.7227L6.5 23.6113ZM6.5 27.3887L5.5 27.3887L5.5 25.5L6.5 25.5L6.5 27.3887ZM6.5 31.167L5.5 31.167L5.5 29.2773L6.5 29.2773L6.5 31.167ZM6.49997 34.9306L5.49997 34.9306L5.5 33.0557L6.5 33.0557L6.49997 34.9306Z" fill="#767676"/>
<g clip-path="url(#clip0_3553_6758)">
<path d="M10.9801 32.9058L6.0001 37.8858L1.0201 32.9058L0.225098 33.7008L6.0001 39.4758L11.7751 33.7008L10.9801 32.9058Z" fill="#767676"/>
</g>
<defs>
<clipPath id="clip0_3553_6758">
<rect width="12" height="8" fill="white" transform="translate(0 31.9307)"/>
</clipPath>
</defs>
</svg>
