<svg width="15" height="65" viewBox="0 0 15 65" fill="none" xmlns="http://www.w3.org/2000/svg">
  <path d="M6.65666 0.292892C7.04718 -0.0976333 7.68035 -0.0976334 8.07087 0.292892L14.4348 6.65685C14.8254 7.04738 14.8254 7.68054 14.4348 8.07107C14.0443 8.46159 13.4111 8.46159 13.0206 8.07107L7.36377 2.41422L1.70691 8.07107C1.31639 8.46159 0.683224 8.46159 0.292699 8.07107C-0.0978252 7.68054 -0.0978252 7.04738 0.292699 6.65685L6.65666 0.292892ZM7.36377 65L6.36377 65L6.36377 63L7.36377 63L8.36377 63L8.36377 65L7.36377 65ZM7.36377 59L6.36377 59L6.36377 55L7.36377 55L8.36377 55L8.36377 59L7.36377 59ZM7.36377 51L6.36377 51L6.36377 47L7.36377 47L8.36377 47L8.36377 51L7.36377 51ZM7.36377 43L6.36377 43L6.36377 39L7.36377 39L8.36377 39L8.36377 43L7.36377 43ZM7.36377 35L6.36377 35L6.36377 31L7.36377 31L8.36377 31L8.36377 35L7.36377 35ZM7.36377 27L6.36377 27L6.36377 23L7.36377 23L8.36377 23L8.36377 27L7.36377 27ZM7.36377 19L6.36377 19L6.36377 15L7.36377 15L8.36377 15L8.36377 19L7.36377 19ZM7.36377 11L6.36377 11L6.36377 7L7.36377 7L8.36377 7L8.36377 11L7.36377 11ZM7.36377 3L6.36377 3L6.36377 1L7.36377 1L8.36377 1L8.36377 3L7.36377 3ZM6.65666 0.292892C7.04718 -0.0976333 7.68035 -0.0976334 8.07087 0.292892L14.4348 6.65685C14.8254 7.04738 14.8254 7.68054 14.4348 8.07107C14.0443 8.46159 13.4111 8.46159 13.0206 8.07107L7.36377 2.41422L1.70691 8.07107C1.31639 8.46159 0.683224 8.46159 0.292699 8.07107C-0.0978252 7.68054 -0.0978252 7.04738 0.292699 6.65685L6.65666 0.292892ZM7.36377 65L6.36377 65L6.36377 63L7.36377 63L8.36377 63L8.36377 65L7.36377 65ZM7.36377 59L6.36377 59L6.36377 55L7.36377 55L8.36377 55L8.36377 59L7.36377 59ZM7.36377 51L6.36377 51L6.36377 47L7.36377 47L8.36377 47L8.36377 51L7.36377 51ZM7.36377 43L6.36377 43L6.36377 39L7.36377 39L8.36377 39L8.36377 43L7.36377 43ZM7.36377 35L6.36377 35L6.36377 31L7.36377 31L8.36377 31L8.36377 35L7.36377 35ZM7.36377 27L6.36377 27L6.36377 23L7.36377 23L8.36377 23L8.36377 27L7.36377 27ZM7.36377 19L6.36377 19L6.36377 15L7.36377 15L8.36377 15L8.36377 19L7.36377 19ZM7.36377 11L6.36377 11L6.36377 7L7.36377 7L8.36377 7L8.36377 11L7.36377 11ZM7.36377 3L6.36377 3L6.36377 1L7.36377 1L8.36377 1L8.36377 3L7.36377 3Z" fill="#B8B8B8"/>
</svg>