<?xml version="1.0" encoding="UTF-8"?><svg id="Layer_1" xmlns="http://www.w3.org/2000/svg" viewBox="0 0 150 196.45"><defs><style>.cls-1{fill:#161616;}</style></defs><path class="cls-1" d="M63.59,149.48c.25,3.05-.23,3.88-1.01,4.24-.34.16-.63.87-.97,1.15-.22.18-.47.04-.83-.56.38-.9.81-1.68,1.14-2.72.32-1.05.52-2.36.9-4.11.11,0,.45-.07.78,0,.47.13.94.49,1.42.56.52.09.78.94.67,2.09-.05.49-.58.94-.87.88-.32-.07-.63-.76-1.23-1.53Z"/><path class="cls-1" d="M66.65,151.75c.58.99.94,1.62,1.39,2.42-1.23,2.24-2.78,1.57-3.7,4.76-.32-.2-.7-.43-1.14-.69.04-.38,0-.79.07-.97.27-.74.63-1.3.85-2.15.16-.67.16-1.66.25-2.58.54.94,1.03,1.82,1.53,2.72.47-.52.94-.99.72-3.52h.02Z"/><path class="cls-1" d="M56.75,83.87c.58,1.82,1.2,2.79,1.88,2.94,0,.58.04,1.17,0,1.75-.07,1.21-.16,2.76-.74,2.49-.49-.23-1.06-.83-1.14-2.61-.04-1.3,0-2.61,0-4.56Z"/><path class="cls-1" d="M72.46,54.88c.32,2.76.81,5.45.94,8.28.11,2.25-.23,4.67-.41,7.72-.29-5.79-.54-10.85-.79-15.9.09-.04.18-.05.29-.09h-.02Z"/><path class="cls-1" d="M59.42,136.45c-1.12,3.05-1.24,3.07-2.76.58.32-.4.59-.65.83-1.03.25-.41.49-.94.78-1.46.31.49.72,1.21,1.15,1.91Z"/><path class="cls-1" d="M61.86,126.19c.27.78.58,1.44.72,2.31.04.25-.32,1.24-.56,1.6-.31.45-.67.85-1.01.78-.22-.05-.45-.9-.59-1.51-.04-.11.25-.9.41-1.26.29-.61.59-1.12,1.01-1.91h.02Z"/><path class="cls-1" d="M68.73,57.37c.32,2.04.76,3.84.36,6.44-.23,1.53-.04,3.53-.04,5.37,0,0-.04.05-.07.05s-.11-.07-.11-.13c-.18-3.88-.34-7.75-.5-11.61.13-.04.25-.07.36-.11v-.02Z"/><path class="cls-1" d="M57.69,159.13c.59-1.06,1.05-1.91,1.55-2.81.22.41.5.7.63,1.24.13.5.2,1.5.09,1.89-.14.58-.5,1.23-.72,1.14-.49-.2-.94-.87-1.55-1.46Z"/><path class="cls-1" d="M75.99,83c-.32-3.64.04-5.81.97-7.88.25,3.23,0,5.48-.97,7.88Z"/><path class="cls-1" d="M62.56,105.78c1.23,2.85,1.33,3.5,1.01,5.3-.09.45-.31.99-.47,1.01-.14,0-.41-.59-.43-1.01-.07-1.48-.07-2.99-.11-5.3Z"/><path class="cls-1" d="M62.09,65.66c-.18,2.02-.38,4.06-.61,6.69-.16-4.06-.18-7.48.41-11.54.07,2.18.13,3.57.18,4.98l.04-.13h-.02Z"/><path class="cls-1" d="M58.05,102.4c.32,2.87.78.41,1.17.18.41,1.82-.16,2.24-.56,2.97-.38-.61-.74-1.21-1.23-1.97.23-.43.43-.78.61-1.12v-.07Z"/><path class="cls-1" d="M57.62,175.82c1.24-2.06,1.41-1.84,1.73,1.51-.52-.45-1.03-.9-1.73-1.51Z"/><path class="cls-1" d="M78.97,75.63c-.11-1.51-.2-3.03-.32-4.8.99,1.19.99,1.24.32,4.8Z"/><path class="cls-1" d="M75.23,65.7c.11-1.73-.22-3.62.29-5.41.29,2.63.27,3.26-.29,5.41Z"/><path class="cls-1" d="M78.48,79.4c.11,2,.22,4.02.32,6.02-.11.04-.22.09-.32.13-.11-2.02-.2-4.02-.31-6.04l.31-.13v.02Z"/><path class="cls-1" d="M58.61,120.38c-.54-.31-.92-.52-1.44-.83.43-.78.76-1.33,1.19-2.11.09,1.06.14,1.82.25,2.94h0Z"/><path class="cls-1" d="M74.82,68.33v4.71s-.11.02-.16.04v-4.6s.11-.09.16-.14Z"/><path class="cls-1" d="M77.11,72.76v-3.93c.58,1.71.41,2.81,0,3.93Z"/><path class="cls-1" d="M62.34,113.55c-.38.16-.65.29-1.14.49.18-.87.22-1.32.32-1.59.45-1.17.54.04.81,1.08v.02Z"/><path class="cls-1" d="M57.64,69.45v4.26c-.67-1.39-.31-2.43,0-4.26Z"/><path class="cls-1" d="M58.09,102.48c0-1.19,0-2.4.02-3.59.74,1.53.05,2.36-.04,3.5l.02.09h0Z"/><path class="cls-1" d="M61.26,171.48c-.25-.34-.52-.7-.78-1.05.04-.23.09-.49.13-.72.25.36.52.74.78,1.1-.04.23-.09.45-.13.69v-.02Z"/><path class="cls-1" d="M83.13,48.93s.04.13.07.2c.31.5.16,1.02-.45,1.55-.2-.7-.18-1.5-.76-2.02-.11-.09.13-.49.18-.74-.87.23-1.23.88-1.68,1.6,1.03.54-.02,1.55-.04,2.43.65-.34,1.21-.65,1.84-.99.36.2.72.41,1.14.65-.38.67.11,1.42-.85,1.8.07.45.13.81.16,1.17.04.34.02.7.04,1.06,1.78-.74,1.78-.54,1.86-2.25.31-.13.61-.32.81.05.32.61.83,1.14.22,2.02-.13.18-.02.45-.07.67-.11.41-.27.83-.47,1.41.04.04.2.23.34.41l-.61-.04v1.75c.23,0,.5.02.76.04.2-.22.36-.45.58-.65,1.12-.99,1.24-1.86.4-2.67-.18-.16-.38-.36-.65-.6.5-.23.85-.41,1.21-.58,1.03,1.32.76,2.99.72,4.62-.25.27-.52.56-.7.76.2.36.45.63.49.96.04.36-.13.78-.2,1.19,2.02-.83,2,.38,2.07,1.53.31-.25.47-.4.67-.58.11.18.2.31.23.36-.32.49-.61.88-.92,1.33.99-.06,1.48.32,1.5,1.14,0,.14,0,.32.09.41.4.38.2.88.07,1.39-.02.09.02.18.07.41.16-.25.22-.4.32-.52.13-.14.27-.29.4-.41,1.23.58,1.24.56,1.33,1.73.05.61,0,1.24.02,1.86,0,.04.11.07.14.09.22-.25.41-.5.67-.79.13.27.18.61.29.59,1.19-.05,1.26,1.03,2.11,1.39-.36.31-.59.49-.83.69-.4.36-.43,1.03-.05.99.11-.27.23-.54.36-.87.78.04.81.56.85,1.01.04.65.31,1.06,1.23,1.03-.54.49-.96.87-.63,1.32.56-.09,1.14-.18,1.77-.29.13.25.16.72.4.76.9.16.81.9.97,1.51.09.34.27.67.25,1.03,0,.36.83.22.4.81-.04.05.54.36.81.58.09.05.13.16.16.25-.67.87-.88,1.51-.54,1.66.23-.14.47-.31.7-.47.11.11.18.18.23.27.47.81.41,2.06,1.91,2.02.05,0,.13.07.16.14.16.31.61.4.4.99-.13.32.41.74.65,1.08-.4.45-1.01.74-.67,1.24.27-.16.52-.32.97-.59.23,1.05.43,2,.67,2.99.18-.2.36-.38.58-.59.61.67,1.3,1.23,1.75,1.97.43.72,1.26,1.35.76,2.51-.05.13.14.29.23.45.2-.23.32-.38.4-.49.7.52,1.41,1.03,2.09,1.57.18.14.45.41.38.58-.22.58.16.81.36,1.17.4.74.41.99.18,2.16-.05.29-.07.59-.13,1.06.36-.31.56-.49.76-.67.81.67,0,2.11,1.21,2.63-.04-.45-.07-.78-.09-1.1l.16-.05c.4.5.81,1.03,1.19,1.51-.94.74-.16,1.14-.18,1.68.61-.23,1.1.06,1.46.87-.14.07-.29.16-.4.22.59,1.41,1.78,2.38,2.27,3.84.29.88,1.01,1.59,1.55,2.34.94,1.32,1.97,2.6,2.85,3.97.47.74.72,1.64,1.06,2.47.47-.97,1.41.04,1.69-.88.81,1.01,1.57,1.93,2.31,2.85-.41.37-.31.94.31,1.69.18-.05.47-.05.59-.18.74-.76,1.97-.85,2.54-1.84.07-.13.4-.23.58-.23,1.32,0,2-1.12,2.97-1.71.09-.74.88-1.06,1.37-1.21.9-.27,1.69-.76,2.49-1.17.87-.47,1.78-.65,2.65-1.19.76-.49,1.19-1.35,2.13-1.55.05,0,.14-.13.16-.2.16-.43.52-.61.92-.85.29-.16.54-.56.61-.87.41-1.53-.32-2.7-1.88-3.07-.85-.2-.97-.49-.81-1.33.09-.49.18-1.03,0-1.42-.56-1.33-1.23-2.63-1.89-3.93-.14-.27-.36-.56-.65-.69-1.01-.43-1.03-1.59-1.8-2.18-.09-.07-.09-.27-.09-.41.05-.81-.41-1.28-1.08-1.6-.45-.23-.69-.5-.69-1.1,0-.4-.43-.78-.76-1.06-.29-.25-.7-.4-.67-.88.05-.78-.43-1.17-1.01-1.53-.27-.16-.59-.36-.67-.63-.14-.59-.5-.96-.9-1.39-.34-.36-.23-1.08-.32-1.64,0-.04-.04-.07-.05-.09-.63-.65-1.41-1.19-1.42-2.25,0-.2-.34-.32-.58-.45-.25-.14-.52-.29-.81-.38-.49-.16-.7-.45-.61-.99.11-.7-.34-1.12-.72-1.59-.72-.88-1.32-1.88-1.95-2.83-.05-.07-.02-.22-.02-.32,0-.59-.36-.97-.72-1.39-.29-.32-.56-.74-.61-1.17-.11-.87-.5-1.5-1.28-1.86-.47-.23-.69-.56-.79-1.06-.23-1.08-1.17-1.8-1.23-2.99,0-.22-.29-.4-.47-.56-.56-.47-.92-1.05-1.15-1.75-.2-.58-.7-1.03-1.1-1.51-.29-.36-.85-.61-.88-1.01-.11-.97-.78-1.48-1.44-2.02-.23-.2-.47-.43-.59-.7-.36-.78-.76-1.51-1.57-1.97-.2-.11-.38-.36-.4-.58-.04-1.01-.59-1.64-1.41-2.15-.27-.16-.52-.41-.59-.7-.22-.87-.69-1.55-1.39-2.09-.22-.16-.36-.43-.49-.69-.4-.74-.67-1.57-1.5-2-.11-.05-.22-.22-.22-.34.02-1.3-.78-2.04-1.84-2.58-.41-.22-.54-.52-.41-1.01.16-.67-.05-1.15-.58-1.51-.69-.47-1.3-1.03-2.02-1.6.54-1.03.07-1.73-.72-2.31-.38-.27-.79-.54-1.1-.87-.18-.18-.36-.52-.27-.74.56-1.23.04-1.95-.7-2.65-.38-.36-.79-.81-.85-1.32-.11-.96-.72-1.5-1.33-2.09-.2-.2-.43-.41-.47-.67-.07-.97-.69-1.51-1.46-2-.27-.16-.5-.5-.52-.83-.09-.85-.4-1.5-1.12-1.97-.38-.25-.83-.61-.87-1.03-.14-1.35-.96-2.18-2.04-2.87-.2-.13-.45-.34-.43-.54.14-1.26-.76-1.86-1.53-2.54-.47-.41-.92-.96-1.03-1.55-.14-.85-.56-1.44-1.23-1.91-.58-.41-.92-.96-1.21-1.59-.32-.74-.85-1.39-1.41-1.97-.34-.34-.52-.63-.54-1.17-.04-.99-.27-1.89-1.23-2.47-.36-.22-.7-.49-1.01-.81l-3.61-3.75c-4.71-4.89-12.48-5.03-17.36-.34-1.23,1.19-2.18,2.61-2.81,4.09-.16.4-.38.76-.65,1.08-.5.6-.79,1.23-.88,2-.04.32-.14.65-.32.88-.56.7-.85,1.51-1.06,2.38-.09.36-.41.67-.74.87-.72.45-.97,1.17-1.23,1.93-.2.6-.43,1.21-.81,1.69-.49.63-.9,1.24-.85,2.13.04.56-.18.97-.76,1.17-.99.36-1.39,1.17-1.71,2.07-.16.45-.41.92-.83,1.19-.97.61-1.32,1.57-1.55,2.61-.14.67-.2,1.48-1.01,1.66-1.15.27-1.42,1.15-1.46,2.04s-.47,1.23-1.21,1.51c-.4.16-.78.45-.96.81-.27.6-.32,1.3-.56,1.91-.18.45-.52.81-.79,1.23-.23.34-.58.65-.69,1.05-.27.92-.43,1.89-.65,2.87-.29.09-.76.11-.94.32-.5.69-.9,1.42-.78,2.42.07.6,0,1.17-.04,1.78-.38,0-.69,0-.94.05-.25.05-.59.11-.67.29-.4.97-.97,1.93-1.01,2.99-.04.83-.38,1.23-.92,1.6-.16.11-.36.23-.54.36.22.41.43.81.67,1.24-.29.18-.58.29-.78.49-.47.47-1.44.5-1.44,1.39s-.61,1.28-1.5,1.41c-.2.02-.38.09-.49.11-.22.76-.32,1.48-.63,2.09-.23.45-.65.87-1.12,1.08-.41.2-.59.45-.74.83-.29.81-.43,1.69-1.23,2.2-1.12.7-1.69,1.77-2.07,2.99-.18.59-.41,1.28-.92,1.59-.45.29-.43.63-.54,1.03-.29.99-.45,2.13-1.12,2.85-.78.85-1.28,1.73-1.53,2.85-.13.58-.29,1.23-1.01,1.42-.85.22-1.23.83-1.28,1.57-.09,1.21-.83,1.88-1.78,2.45,0,1.05-.2,1.98-1.03,2.69-.38.32-.52.9-.59,1.42-.09.72-.32,1.24-1.21,1.26-.2,0-.36.11-.59.18.31,1.32-.34,2.25-1.01,3.08-.87,1.06-1.32,2.34-1.89,3.55-.22.47-.4.88-.96,1.06-.23.07-.47.43-.4.65.22.74-.14,1.19-.4,1.73-.7,1.5-1.78,2.7-2.85,3.95-.52.61-.83,1.39-1.26,2.06-.47.7-.94,1.41-1.46,2.06-.29.36-.7.61-.45,1.35,1.05-.5,1.97-1.06,2.74-1.82.4-.38.9-.92,1.44-.88.63.04.79-.25,1.14-.47l1.01-1.37.22.16-1.24,1.21c.7.47.78.99.43,1.51-.18.31-.41.58-.59.87-.34.58-.63,1.15-.05,1.93,1.14-.18,2.4-.05,3.16-1.05.2.78-.2,1.08-.52,1.39-.5.45-.05,1.06-.05,1.6,0,.61.65.59.79.74.09.61-.04,1.23.22,1.44.81.65.4,1.14.47,1.73.11.96-.25,1.62-.69,2.29-.07.13-.04.32-.04.5l.16.09c.23-.27.47-.54.69-.81,1.37.4,1.53.63.78,1.35-.63.59-1.15,1.19-1.17,2.15,0,.23-.25.41-.36.65-.13.27-.25.56-.41.96,1.06.05,1.98.09,3.08.13.04-.04.14-.22.32-.32.67-.43.94-1.3,1.91-1.42h-.04c.07-.18.11-.41.25-.58.52-.61,1.01-1.3,1.68-1.77.4-.29,1.24.04,1.51-.54.54.31.72.63.52,1.03-.16.27-.32.54-.52.79-.43.49-.94,1.03-1.37,1.53,1.03,1.35.07,2.02-.2,2.94,1.17-1.37,2.34-2.74,3.59-4.2.18.34.29.52.38.72h.22c-.05-.5-.13-1.01-.2-1.59h-1.01c.13-.61.23-1.15.38-1.8-.83-.18-1.51-.31-2.22-.45.29-.69.58-1.39.9-2.13,1.3.05,1.39-.02,1.53-1.59-.4-.11-.81-.2-1.26-.31-.25-.97.38-1.8-.2-2.79-.07-.11.14-.31.23-.45.09-.14.31-.29.29-.43-.18-.87.49-.7,1.03-.69.04-.34.05-.69.07-.94.52.14.9.25,1.28.36.16-1.06-1.08-1.1-1.32-1.73-.47-.04-.87-.05-1.3-.07,0-.61.4-.49.78-.41.43.07.88.25,1.24-.07.56-.52,1.21-.97,1.84-1.48.38.49.72.94,1.33.67.02-.38-1.1-.52-.45-.97.23.07.45.16.81.29-.2-.38-.31-.59-.43-.81-.14-.22-.31-.41-.49-.61-.47-.47-1.97-.96-2.09-.65-.4.94-1.01.16-1.55.05.02-.45.11-.81.04-1.19-.07-.43-.34-.81-.9-.92-.4-.09-.79-.02-.69.34.27.76-.38,1.14-.4,1.75,0,.11-.23.16-.36.23-.02-.41.14-.69.22-.97.07-.31.11-.65-.32-.96-.79-.58-.7-1.15-.34-1.71.16-.25.36-.49.58-.79-.85-.81-2.02-1.39-2.33-2.52-.04-.13-.32-.23-.5-.34.63-.61.87-.58,1.48.13.13.14.43.34.59.31.63-.09.74.31.76.69.02.31-.09.59-.16,1.01,1.08-.02,1.77.54,2.4,1.33.2-.45.36-.81.5-1.17.87.38.59.88.61,1.28.04.61-.07,1.21-.11,1.75.49.32.85.56,1.39.9.63-.63,1.89-.69,2.15-1.8-.7-.5-1.32-.96-1.98-1.44-.32-.09-.49.69-1.17-.07.7-.34,1.39-.67,2.31-1.12-.99-.18-1.73-.31-2.61-.45-.05-.29-.27-.69-.16-.9.27-.54.02-.9-.54-1.26-.18.05-.38.13-.76.25-.05-.65-.13-1.14-.09-1.59,0-.18.23-.41.41-.41,1.06,0,1.26-.78,1.68-1.44.4,1.08.76,2.09,1.17,3.21.41-.23.72-.4,1.14-.63-.18.52-.31.92-.45,1.35,1.06.76,2.2.76,3.3.7,0-.2,0-.38.02-.74.47.43.78.7,1.05.96.58.07,1.19-.02,1.62.23.87.49,1.46.18,2.42.18-.67-.45-1.1-.72-1.53-1.01-.59.16-1.17.2-1.78.13-.34-.05-.5-.76-.34-.7.67.23.78-.59,1.44-.29.18.09.45-.05.88-.11-.81-.65-.11-.85.09-1.35-.54-.05-.94-.07-1.53-.13.25-.31.41-.5.59-.74-.34-.18-.56-.29-.79-.41l.04-.14c.65.05,1.3.11,1.93.16-.49-.76-.45-.87.31-.88.36,0,.74.05,1.12.11.05,0,.11.11.16.16-.13.23-.23.47-.36.7,1.3.49,1.39.49,2.06-.13-.65-.43-1.3-.85-1.97-1.3,0-.7,1.26-.31,1.15-1.23-.63-.05-1.21-.27-1.33-1.19.65.2,1.19.36,1.86.56-.25-.38-.4-.61-.45-.69.4-.61.74-1.12,1.15-1.75l1.3,1.3c.29-.27.99-.18,1.15-.7-.67-.13-1.26-.22-1.97-.34.13-.34.27-.54.25-.74-.05-.47.92-.63.16-1.3.31-.14.5-.36.49-.7.2.11.49.18.58.32.2.31.27.65.49,1.17.45-.88.97-1.41,2.09-1.28-.92-.87-1.86-.41-2.88-.87.54-.43.97-.79,1.48-1.21-.02-.05-.11-.22-.16-.38.22-.18.41-.36.63-.54.16-.14.32-.41.52-.41.34.04.61.29.67.65.02.13.14.27.25.47.25-.25.43-.45.61-.63,1.26.7,1.68-.29,2.78-.41-.94-.5-1.64-.9-2.33-1.28-.27-.04-.54.34-.94-.36.41.18.69.29.96.41.02-.4.11-.79.05-1.21-.05-.61.32-.74.88-.69.22.02.45.13.63.2.34-.45.13-1.15.83-1.46.27.43.52.83.78,1.28.22-.09.41-.13.54-.22.14-.09.22-.25.34-.38v.04c-.97-.69-1.62-1.57-2.07-2.63.27-.07.54-.14.74-.22-.69-.96-1.48-.92-2.25-.56-.43-.38-.78-.69-1.26-1.1-.13.41-.22.72-.32,1.03-.49-.22-.9-.49-.92-.99-.04-.88-.81-1.26-1.51-1.68-.83-.5-1.42-.18-2.06.2-.14-.29-.23-.5-.36-.74.32-.2.61-.38.96-.59-.76-.59-1.48-1.17-2.16-1.71.41-.88.81-1.71,1.19-2.54.56.45,1.03.85,1.59,1.3.14-.05.4-.13.65-.2l.23.25c-.14.43-.27.88-.4,1.26-.47-.11-.76-.16-1.06-.23-.07.4-.13.74-.22,1.19.31.13.72.41.88.34.7-.31,1.93.13,2.15-.97.07,1.06,1.06.72,1.53,1.1,0,.58-.04,1.14-.04,1.62.79.25,1.42.43,2.11.65.29-.36,1.06-.72,1.51-.38.63.47.9.14,1.32.16.65.02,1.3.02,1.97.09.43.04.87.14.96-.45-.67-.36-1.35-.74-2.02-1.1.09-.34.16-.65.25-1.03-.45-.41-.88-.83-1.24-1.17v-1.75c.81.41,1.59.69,2.18.13.2.23.43.59.54.59.79-.09,1.82.38,2.36-.45-.5-.14-1.03-.18-1.41-.43-.58-.4-.69-.92-.29-1.33-.58-1.12-1.62-1.21-2.6-1.33-.14-.78.18-1.14.76-.83.85.45,1.91.72,2.18,1.97.2-.5.32-.83.45-1.17-.31-.31-.58-.59-.88-.9.23-.18.47-.36.67-.5-.09-.45-1.12-.72-.52-1.26.32.32.61.63,1.03,1.05.25-.52.47-.96.65-1.33.49-.05.97-.09,1.66-.16-.56-.45-.92-.72-1.46-1.15.7-.13,1.21-.23,1.8-.34-.36-.36-.67-.67-.96-.97-.41-.92.79-.94.7-1.71.54.2.96.36,1.48.54-.32-.7-.52-1.28-.85-1.84s-.56-1.06-.52-1.66c.04-.88.13-.94,1.08-.34.09.05.16.13.29.22-.02-.31-.04-.56-.07-.96.4.4.65.65.92.92.11-.22.2-.4.31-.65.49.4.83,1.05,1.55.78-.67-.72-.23-1.35-.32-2.04-.13-.87,1.01-1.01.7-1.93.49,0,1.03-.16,1.23,0,.34.31.45.81.67,1.24,1.15.22,1.24.18,2.31-.85-.96-.16-1.95-.11-2.7-1.06.34-.16.65-.31,1.08-.5-.61-.16-1.01-.27-1.5-.4-.18-.7-.36-1.37-.54-2.11.52.31,1.01.6,1.48.88-.32-.52-.9-.9-1.03-1.32-.14-.45.14-.94.23-1.37-.31-.27-.83.14-.92-.49.79-.07,1.48-.25,1.68-1.06l.34,1.42c.74-.04.36.87,1.1.87-.29.45-.5.78-.74,1.12.23.18.5.4.85.65.16-.41.31-.72.4-.99.43-.2.97.56,1.32,0-.36-.61-1.53-.97-1.06-2,.14.05.41.14.74.27-.63-.83-1.05-1.39-1.46-1.95-.13.16-.23.32-.38.52-.05-.31.08-.47.4-.49.43-.05.88-.11,1.51-.18-.52-.34-.87-.54-1.17-.78-.31-.23-.56-.52-.83-.76.67-1.12,2.13-.7,2.97-1.06.72.87,1.15,1.69,2.2,2.29-.36-.93-.48-1.58-.36-1.97.14.14.31.29.58.56,0-.58.72-.76.32-1.42,0,0,.45-.22.5-.18.47.47.88.97,1.23,1.37,1.62.32,2.74-.23,3.79-.88-.38-.45-.76-.88-1.12-1.33h.05c-1.35-.02-1.51,1.19-2.34,1.84-.47-.45-.9-.88-1.32-1.3.13-.25.27-.41.31-.63.2-1.26.67-2.38,1.55-3.26.11-.11.22-.36.14-.47-.47-.67.05-.97.25-1.41-.13-.14-.27-.29-.32-.38.36-.38.72-.74,1.05-1.08-.25-.29-.41-.47-.58-.65.47-.23.9-.45,1.32-.67l-.14-.27c-.63-.02-1.26-.04-2.02-.07-.16-.31-.32-.63-.56-1.06.56,0,.92.04,1.41.05-.18-.47-.34-.88-.54-1.37.18-.13.38-.27.41-.29,1.08.38,1.98.69,3.1,1.08-.32-.56-.56-.96-.81-1.37.36.16.5.07.63-.2.02-.05.47.13.76.2-.14-.5-.29-.88-.34-1.26-.02-.16.13-.45.22-.43.76.14.65-.85,1.42-.7.02,0,.05-.07.09-.16h-7.48c.13.11.31.23.41.22.59-.11.58.18.54.56-.02.22,0,.45,0,.61,1.57.18,1.06,1.42,1.03,2.43.5-.16.9-.29,1.17-.36.9.85,1.75,1.62,2.61,2.45-.22.2-.5.43-.65.56.32.61.63,1.14.92,1.69.13,0,.32-.05.5-.07-.25.65.7.69.61,1.26-1.02.63-1.53,1.02-1.51,1.17.41-.16.83-.4,1.26-.47.49-.11.81.25.59.67-.49.96-.27,1.66.38,2.25-1.05.49-.99,1.1-.61,1.86-1.24-.4-2.27-.74-3.3-1.06l-.11.14c.29.38.58.76.83,1.1-.16.54-.32,1.05-.47,1.57.54-.07,1.01-.13,1.46-.18,0-.14.02-.36.05-.85.36.54.58.87.87,1.32.9-.83,1.75-1.6,2.54-2.33.31.18.59.32.85.49.34.22.4,1.6,0,1.75-1.03.41-.41.67-.2.99h-.05c.38-.22.76-.45,1.1-.65.5.5.97.97,1.48,1.48-.25.31-.49.54-.65.81-.09.14-.11.47-.04.5.16.05.5.04.61-.07.63-.65.5.02.67.31-.52.09-1.05.16-1.57.25-.81,1.37-.92,2.6-.04,3.46-.22.52-.38.9-.56,1.33.72-.25,1.44-.74,1.89-.63.63.14,1.23.22,2.07-.05-.22.29-.32.41-.41.54.59.11,1.41.05.99,1.01l.05-.09ZM43.93,62.18c-.65,0-.79-.25-.69-1.03.45.16.85.83,1.37.47l.32.47c.34.58.72.72,1.1.18.4.81-.14.9-.69,1.01.22.45.4.85.61,1.3-1.03-.09-1.08-1.39-2.07-1.37-.14-.63.16-.88.7-.74.61.18.16-.36.38-.4-.34.04-.7.11-1.05.11ZM44.33,64.9c.23.09.47.16.87.29-.23.43-.49.78-.63,1.15-.14.4-.2.85-.25,1.14-.72.04-1.21.05-1.84.09,0-.13-.14-.45-.04-.52.56-.34.81-.76.36-1.48,0,0,.22-.09.32-.13-.11-.11-.29-.27-.49-.47.23-.23.43-.45.65-.67.38.2.74.4,1.12.59h-.07ZM86.09,50.98c.22.56.41,1.05.65,1.6-.74.36-1.39.45-1.91.13-.36-.22-.81-.45-.36-1.1.54-.22,1.1-.43,1.64-.63h-.02ZM21.11,108.12c-.27.36-.58.76-1.03,1.35-.11-.7.04-1.1-.49-1.55-.52-.45-.18-.99.09-1.73.56.76.96,1.32,1.42,1.95v-.02ZM22.48,96.64c-.7.04-1.39.05-2.04.07-.32-.58.14-.52.32-.7s.13-.52.22-.97c.54.31,1.03.58,1.53.85,0,.31-.02.52-.04.74v.02ZM41.81,64.6c-.88.65-1.01.61-2.45-.74.31.07.49.11.65.16.16.04.31.07.54.14,0-.29-.02-.52-.04-1.03.56.65.94,1.06,1.3,1.48v-.02ZM39.88,56.57c.34.16.69.34,1.19.58-.7.34-1.3.65-1.97.97-.45-1.14.65-.99.79-1.55h-.02ZM39.26,76.48c-.7.09-1.3.18-1.89.25l-.13-.18c.36-.41.74-.81,1.21-1.35.25.4.49.78.81,1.28h0ZM38.04,73.75c-.05-.83-.02-1.48,1.01-1.44.18.52-.7,1.03.36,1.57l-.14.18c-.41-.11-.83-.22-1.23-.31h0ZM19.47,88.59c.2,0,.56.05.56.07.07.4.16.81.13,1.19,0,.13-.32.25-.52.23-.11,0-.34-.32-.38-.49-.05-.31,0-.59,0-.83.09-.09.13-.18.18-.18h.04ZM40.65,61.62c.36.67,1.12.99,1.21,1.8-.58-.31-1.15-.59-1.77-.92.22-.32.36-.54.58-.87l-.02-.02ZM19.83,121.46c.05-.94.78-1.41,1.42-1.93.07,1.05-.81,1.39-1.42,1.93ZM28.57,91.39c.44.49.49.91.13,1.24-.04-.38-.07-.78-.13-1.24ZM118.9,106.95c.25.47.43.79.61,1.12l-.29.18c-.56-.14-.81-.43-.32-1.28v-.02ZM81.08,44.69c-.34.34-.58.6-1.06,1.08-.04-.54-.05-.83-.09-1.21.43.05.7.09,1.15.14v-.02ZM28.84,93.73c.07.11.16.18.14.22-.16.43-.36.78-1.14.09.45-.14.72-.22.99-.31h0ZM44.93,75.5c-.38.07-.69.18-1.06-.23.36-.25.67-.4,1.06.23ZM39.68,62.34s-.27-.02-.32-.09c-.32-.34-.2-.58.41-.63-.02.23-.05.49-.09.72h0ZM12.45,110.82l.31.13-.27.92-.32-.13.29-.92h0ZM80.91,43.12c.25.05.41.05.5.13.13.11.18.25.36.52-.83.14-.92-.11-.87-.65ZM44.37,60.3s-.05.27-.07.27c-.22-.07-.43-.14-.63-.23l.05-.34c.22.09.43.18.65.31h0ZM36.49,69.99c-.35.06-.62-.13-.81-.58.32.23.54.38.81.58ZM46.8,69.21s.16-.05.2-.02c.09.09.14.2.22.29-.07,0-.14.02-.23.04l-.18-.31h0ZM42.89,74.76l.13-.04.27.43-.14.05-.25-.45ZM48.14,65.23s.13-.04.18-.07l.31.52-.2.05c-.11-.18-.2-.34-.31-.5h.02ZM30.59,91.8s.09.29.07.29c-.14.04-.29.04-.45,0-.04,0-.05-.18-.11-.36.2.02.36,0,.49.05v.02ZM16.98,107.02l.14.09-.43.65-.14-.11.43-.65v.02Z"/><path class="cls-1" d="M71.59,36.72c-.18-.13-.47-.38-.54-.34-.97.45-1.48-.43-2.27-1.01,1.46-.79,3.12-1.05,4.62-1.59.25.49.49.81.14,1.19-.23.25-.2.74-.32,1.21-.94-.43-1.41-.09-1.68.56h.05v-.02Z"/><path class="cls-1" d="M28.93,99.65c.27-.87.81-.81,1.51-.47.31.14.67.14.99.25.22.07.4.25.61.59-.47,0-.96-.04-1.39.04-.43.07-.81.29-1.41.5-.09-.05-.38-.23-.65-.43-.38-.29-.72-.63-1.1-.92-.41-.31-.5-.65-.23-.87.13-.09.63.09.87.27.25.2.41.52.79,1.05v-.02Z"/><path class="cls-1" d="M26.73,97.41c-.32-.56-.52-.9-.78-1.35,1.37.13,2.58,1.15,3.86.88.25.23.52.49.85.79-.09.07-.14.18-.22.2-.34.04-.74-.04-1.05.05-.25.07-.4.31-.61.49-.29-.52-.58-1.01-.85-1.5-.47-.13-.94-.27-1.17.45l-.04-.02Z"/><path class="cls-1" d="M73.86,31.26c.49-.27.97-.54,1.41-.79.22.07.31.07.38.13,1.12.96,1.1,1.19-.2,1.46-.99.22-.99.2-1.59-.79Z"/><path class="cls-1" d="M24.21,119.26c-.19-.76-.56-1.34-1.1-1.75.09-.14.16-.31.29-.41.25-.25.58-.58,1.01-.2.36.32.76.79.54,1.26-.16.34-.41.63-.72,1.12l-.02-.02Z"/><path class="cls-1" d="M48.3,80.53c-.87.2-1.71.11-2.51-.59-.16-.14-.31-.45-.25-.61.04-.16.31-.31.5-.29.27,0,.65.13.83.31.41.47,1.35.38,1.44,1.19h-.02Z"/><path class="cls-1" d="M73.31,31.73c-.34.54-.67,1.01-1.01,1.55-.56-.87-1.12-.16-1.62-.5.43-1.15,1.01-1.41,2.63-1.05h0Z"/><path class="cls-1" d="M53.42,70.18c.11.27.2.5.31.81-.59-.07-1.12-.13-1.73-.2.16.23.29.41.41.59l-.07.13c-.31-.18-.65-.34-.88-.58-.16-.18-.31-.56-.22-.7.11-.22.43-.4.69-.4.45.02.92.2,1.48.34h.02Z"/><path class="cls-1" d="M6.5,117.66c.16-.85.18-1.77.52-2.51.27-.59.94-.99,1.57-1.64-.69,1.57-1.26,2.92-1.86,4.29l-.25-.14h.02Z"/><path class="cls-1" d="M50.24,76.04c.05.13.18.38.29.65-.52.18-.99.34-1.48.5-.44-.79-.65-1.42-.61-1.89.54.22,1.1.45,1.78.72l.02.02Z"/><path class="cls-1" d="M68.76,27.42c-.31.27-.72.61-1.14.97-.81-.87-.78-1.01.16-1.5-.11-.07-.23-.16-.4-.27.25-.13.47-.22.67-.32l.09-.63.22-.05c.13.54.25,1.1.4,1.78v.02Z"/><path class="cls-1" d="M68.42,29.91c-.36,1.24-.54,1.44-2.16,2.13.23-.38.32-.78.59-.97.72-.54.58-.9.14-1.28-.11-.11-.13-.29-.18-.45l.22-.16c.2.18.36.41.59.56.2.11.47.13.78.2l.02-.02Z"/><path class="cls-1" d="M64.27,28.21c.16-.87.31-1.57.43-2.27.58-.25,1.01-.23,1.15.31.18.6-.31,1.23-1.59,1.97Z"/><path class="cls-1" d="M76.01,27.89c-.31.78-.99.78-1.64.92v-.74c-.32.07-.58.13-.87.2-.04-.94,0-.99.79-.85.52.09,1.05.29,1.69.47h.02Z"/><path class="cls-1" d="M64.16,54.01c-.69.11-1.35.2-2.02.31-.18-1.17-.14-1.28.47-1.28.88,0,1.26.27,1.55.97h0Z"/><path class="cls-1" d="M58.99,57.96c-.74-.05-1.3.76-2.34-.05-.56-.43-.2-.78-.83-1.23,1.26.52,2.22.9,3.16,1.3l.02-.02Z"/><path class="cls-1" d="M76.86,28.28c.13-.6.25-1.17.4-1.88.78.61,1.71.56,2.36,1.32-1.3-.16-2-.23-2.76.56Z"/><path class="cls-1" d="M55.17,66.67c-.31-.5-.59-.97-.97-1.59.58.07,1.12.04,1.57.23.32.14.54.61.87.99-.54.13-.99.23-1.46.34v.02Z"/><path class="cls-1" d="M43.2,87.06c-.59.23-1.08.43-1.6.63-.36.14-.4.13-.85-.52.7-.05,1.21-.31.9-1.1.88-.04,1.01.69,1.53.99h.02Z"/><path class="cls-1" d="M30.36,105.09c1.42-.13,1.51-.07,2.4,1.37-.32-.09-.59-.16-.87-.22-.29-.04-.56-.05-.87-.07-.18-.29-.41-.69-.67-1.1v.02Z"/><path class="cls-1" d="M26.7,106.23c-.09-.32-.25-.67-.23-.96,0-.09.47-.13.72-.09.32.05.7.16.96.36.18.13.23.47.27.7,0,.04-.34.07-.54.07-.32,0-.67-.05-1.15-.09h-.02Z"/><path class="cls-1" d="M10,119.1c.05-.67-.04-1.35.72-1.75.43-.23.59-.83.88-1.28,0,0,.04,0,.07.04.04.02.09.07.07.09-.49,1.03-.96,2.06-1.42,3.08l-.32-.18h0Z"/><path class="cls-1" d="M35.41,100.55c-.67-.07-1.17-.11-1.73-.16-.11-.22-.31-.43-.32-.65-.02-.18.07-.47.22-.5.22-.05.61-.02.79.13.38.31.65.72,1.06,1.21l-.02-.02Z"/><path class="cls-1" d="M64.4,41.03c-.36-.65-.7-1.26-1.05-1.89.9-.2.69.67,1.15.85.4.16.78.41,1.35.72-.69.16-1.1.25-1.46.32h0Z"/><path class="cls-1" d="M8.02,108.91c-.31,1.06-.94,1.39-2.07,1.37.31-.92.88-1.32,2.07-1.37Z"/><path class="cls-1" d="M45.52,84.07c-.58.11-1.05.2-1.57.29-.02-1.06.2-1.37,1.01-1.46.16.32.31.67.54,1.17h.02Z"/><path class="cls-1" d="M62.13,57.74c-.72-.16-1.28-.27-1.91-.4,0,.2-.04.38-.05.6-.09-.11-.25-.23-.23-.29.16-.43.34-.83.54-1.3.78.22,1.14.74,1.64,1.39h.02Z"/><path class="cls-1" d="M67.55,45.99c-.14-.56-.22-.92.34-.99.67-.09,1.01.31,1.39.76-.38.67-1.15,0-1.75.23h.02Z"/><path class="cls-1" d="M22.86,110.79c-.56-1.35-.56-1.59,0-1.84.14-.07.41-.07.54,0,.13.09.25.38.2.49-.16.4-.41.76-.76,1.33l.02.02Z"/><path class="cls-1" d="M69.86,40.96c.38.34.78.69,1.12.99-.31.38-.59.72-.92,1.14-.56-.7-.23-1.39-.47-2.07l.27-.05h0Z"/><path class="cls-1" d="M65.08,25.06l.09-.45h12.69l-1.69.36c-.07-.29-.13-.5-.2-.79.32-.04.63-.18.96-.2h-10.84c-.11.25-.31.49-.74.65-.05,0-.04.27-.07.41h-.22l.02.02Z"/><path class="cls-1" d="M77.81,44.1c-.36.47-.65.88-1.01,1.35-.58-.45.45-1.23-.14-1.57.85-.6.87.05,1.15.22h0Z"/><path class="cls-1" d="M16.87,120.72c.49-.38.96-.78,1.59-1.28-.52,1.06-1.05,1.89-2.18,2.56.29-.56.47-.92.65-1.3h-.04l-.02.02Z"/><path class="cls-1" d="M66.24,46.37c-.56.18-1.06.36-1.78.6.09-.56-.13-1.01.34-1.08.43-.05.94-.07,1.42.49h.02Z"/><path class="cls-1" d="M74.66,41.05c.27.22.47.38.79.65-.47.36-.87.67-1.28.99l-.13-.13c.2-.47.38-.94.63-1.51h-.02Z"/><path class="cls-1" d="M26.08,114.07c.18-.87-.58-.52-.96-.69-.05-.67.49-.45.94-.41.22.36.43.7.7,1.15-.27-.02-.47-.05-.69-.07v.04-.02Z"/><path class="cls-1" d="M38.11,96.56c-1.35-.18-1.46-.32-1.21-1.32.36.4.7.78,1.21,1.32Z"/><path class="cls-1" d="M70.4,34.11c.09,1.12-.69,1.53-1.57,1.97.38-.6,1.06-1.05,1.03-1.73,0-.04.29-.13.54-.23Z"/><path class="cls-1" d="M59.12,53.74c.83.22,1.14.47,1.01.85-.05.16-.45.18-.79.29-.09-.5-.14-.81-.22-1.14h0Z"/><path class="cls-1" d="M4.34,109.06c-.16.41-.31.85-.5,1.33-.63-.83-.63-.85.5-1.33Z"/><path class="cls-1" d="M57.84,61.4c.31-.72.36-.72,1.51-.05-.47.29-1.01-.04-1.51.05Z"/><path class="cls-1" d="M5.89,113.51c-.36.36-.4.99-1.1,1.15.18-.79.29-.94,1.1-1.15Z"/><path class="cls-1" d="M69.56,31.6c.47-.14.83-.23,1.19-.34.34.49-.11.72-.63.99-.16-.2-.32-.4-.54-.65h-.02Z"/><polygon class="cls-1" points="5.35 108.41 6.03 106.77 6.34 106.91 5.64 108.55 5.35 108.41"/><path class="cls-1" d="M53.36,61.39c.63-.27,1.08-.49,1.84.11-.65,0-1.03.36-1.84-.11Z"/><path class="cls-1" d="M28.46,109.42c.41.38.69.63,1.08.99-.49-.05-.85-.09-1.33-.14.09-.31.16-.52.25-.85h0Z"/><path class="cls-1" d="M54.82,56.45c.5.37.55.81.14,1.32-.05-.43-.09-.79-.14-1.32Z"/><path class="cls-1" d="M73.18,35.37c-.22-.18-.43-.36-.7-.56.54-.02.94-.04,1.6-.05-.43.29-.69.45-.94.61h.04Z"/><polygon class="cls-1" points="6.67 113.1 7.41 111.96 7.55 112.03 6.81 113.15 6.67 113.1"/><path class="cls-1" d="M66.13,49.36l-.54-1.1c.27.36,1.03.56.54,1.1Z"/><path class="cls-1" d="M100.04,79.13c.47.27.41.56-.02,1.01-.31-.31-.38-.56.02-1.01Z"/><path class="cls-1" d="M67.32,41.84c-.2.31-.34.5-.49.76-.14-.16-.29-.25-.31-.34-.11-.41.14-.5.81-.41h-.02Z"/><path class="cls-1" d="M77.56,40.62c.13.18.25.38.52.79-.58-.05-.87-.09-1.46-.14.52-.34.76-.5.99-.65h-.05Z"/><path class="cls-1" d="M5.44,110.77c-.18.27-.34.52-.63.96-.22-.74.09-.92.63-.96Z"/><path class="cls-1" d="M24.28,109.02c.34.18.59.29,1.03.5-.29.11-.4.2-.52.2-.58.04-.45-.31-.5-.7h0Z"/><path class="cls-1" d="M39.86,91.42c.4.2.63.31.88.43-.07.13-.09.22-.13.22-.34.04-.63,0-.76-.65h0Z"/><path class="cls-1" d="M21.2,122.26c.29-.43.45-.69.69-1.03.34.7-.13.76-.69,1.03Z"/><path class="cls-1" d="M55.51,54.71c.13-.13.23-.27.38-.38.02,0,.2.11.29.18l-.4.43-.27-.23h0Z"/><polygon class="cls-1" points="63.1 50.23 62.25 50.41 62.14 50.21 62.94 49.9 63.1 50.23"/><path class="cls-1" d="M46.87,76.71c.38-.25.78-.14,1.17.32-.52-.16-.85-.25-1.19-.36v.04h.02Z"/><path class="cls-1" d="M26.07,114.03l-.58.87c-.38-.78.32-.59.59-.83v-.04h-.02Z"/><polygon class="cls-1" points="55.44 62.31 54.57 62.49 54.5 62.34 55.29 62.05 55.44 62.31"/><path class="cls-1" d="M73.14,35.35c.05.22.11.43.18.78-.65-.23-.23-.54-.14-.78h-.04Z"/><polygon class="cls-1" points="74.98 40.58 74.3 40.49 74.39 40.27 75.04 40.42 74.98 40.58"/><polygon class="cls-1" points="112.45 97.5 112.43 98.15 112.27 98.19 112.18 97.54 112.45 97.5"/><polygon class="cls-1" points="34.38 95.61 34.87 96.29 34.63 96.4 34.16 95.7 34.38 95.61"/><path class="cls-1" d="M52.39,62.38c-.02-.11-.07-.22-.04-.29,0-.04.16-.02.25-.04,0,.11.04.22.04.31,0,.02-.13,0-.25,0v.02Z"/><path class="cls-1" d="M44.33,64.9c.36.36.18.49-.27.5l.34-.5h-.07Z"/><path class="cls-1" d="M79.99,192.93c2.01-1.15,2.37-4.46,2.01-6.72-.58-3.64-.32-7.01.14-10.48-.58-3.05-.92-6.13-.61-9.72.14-1.62-.05-3.61-.29-5.23-.32-2.27-.41-4.2.32-5.97.16-.38.25-.99.4-1.64-.97-3.21-.96-7.12-.85-10.8.13-4.72-.18-9.25-.36-13.85-.07-1.77-.14-3.28.22-4.9.14-.65.14-2.15-.02-2.63-.59-1.71-.52-3.73-.61-5.77-.23-5.64,0-11.21.22-16.8.11-2.74-.07-5.55-.07-8.35s0-5.82.09-8.73c.04-1.57.25-3.12-.36-4.78-.59,3.48-1.05,6.82-1.28,10.44-.13,1.88-.25,4.36-.72,5.26-.54,1.06-.52,2.27-.69,3.53-.85-.04-1.19-1.39-1.19-3.52,0-1.21.04-2.43,0-3.64-.04-2.29-.11-4.54-1.01-5.7-.85,2.67-1.97,4.72-2.06,9.03-.59-1.89-.43-3.52-.32-5.01.16-2.25-.54-3.17-.85-4.72-.34-1.75-.88-.5-1.06-.63-.41-1.62-.65-3.62-.97-3.71-1.05-.31-.96-2.56-1.33-4.15-.61-2.54-.67-5.16-.69-7.93,0-.5-.16-1.01-.23-1.51-.05.02-.13.05-.18.07-.04,1.24-.09,2.47-.13,3.64-1.35,1.46-1.62,1.1-1.39-2.42.2-2.94.31-5.64-.22-8.42-.13-.69-.04-1.68-.05-2.52-.04-1.05-.11-2.07-.18-3.53-.92,1.89-1.71,3.53-2.65,5.46,0,.14,0,.9-.09,1.57-.32,2.53-.08,5.51-.82,7.71.07.7.15,1.41.14,2.1-.11,2.78-.13,5.66-.43,8.29-.18,1.57-1.05,2.27-.97,4.44-.63.13-.96-.47-.99-1.98-.02-1.1-.04-2.2,0-3.28.09-2.4.22-4.78.31-7.05-1.6-1.97-1.15-5.7-1.44-8.85-.22,6.17-.45,12.35-.69,18.95-.34-.65-.52-1.01-.7-1.35-.05.11-.13.23-.18.34.32,1.37.67,2.74,1.05,4.27.32-.78.56-1.3.85-1.97.23,2,.43,3.79.69,5.9.79-1.08,1.44-1.98,2.11-2.89.14,2.56.27,5.12.41,7.84-1.12,2.31-1.15,2.72-.41,7.5.4-.47.79-.96,1.23-1.48.74,2.34.69,5.93,1.71,7.7.11.2.05,1.15.05,1.75s-.11,1.42,0,1.78c.63,2.16-.02,2.96-.49,3.89.16,1.05.32,2.07.45,2.87-.5.56-.88.97-1.26,1.39.45,3.35,1.51,1.1,2.06,2.49.41-.81.76-1.48,1.14-2.24.32,1.77-.05,2.15-.41,2.69-.41.6-.88.94-1.01,2.58-.18,2.58-.47,5.08-.72,7.74-.58-.69-1.12-1.3-1.48.59.2,1.15,1.19-.58.9,1.97-.23.2-.45.4-.85.72.38.7.58,1.15.81,1.48.23.34.49.61.74.81.63.45,2.18-.96,2.11-2.11-.18-3.44.76-2.42,1.26-3.14.23,1.35.36,2.56.61,3.52.31,1.12.74,1.66,1.26.96.38-.5.69-1.46.38-2.27-.63-1.69-.31-3.97-.63-5.81-.05-.31.11-.88.18-1.33.25,1.15.25,2.24.36,3.25.11,1.03.27,2.07.79,2.15.99.14,1.23,2.02,1.23,4.27,0,1.06-.04,2.11-.05,3.39,1.17.74,2.45.18,3.34,2.88.09.27.4.04.61.04-.2,2.99-.4,3.3-1.32,2.43-.2-.18-.54-.14-.67.22-.47,1.44-.78.52-1.01-.52-.18-.85-.25-1.88-.41-3.21-.9,2.11-1.78,1.77-2.74.74.09,1.66.14,3.01.22,4.35-.94.58-.97-1.44-1.23-2.52-.36-1.69-.61-3.59-.88-5.26h-1.66c-.18,3.01-1.21,5.61-.79,9.29.87.14,1.62.27,2.45.4.31-.34.02-2.9,1.01-2.04-.4,2.31-.79,4.54-1.32,7.61.92-1.37,1.6-2.4,2.43-3.64.2.7.61,1.46.63,2.31.07,2.09.49,2.67,1.15,2.65.13-.52.23-1.06.49-2.16.4,1.79.72,3.03.96,4.4.09.52.02,1.64-.13,1.97-.9,1.97-.63,4.62-.61,7.34-.92-2.36-1.78-4.62-2.74-7.05-.22,1.48-.38,2.54-.59,3.98-.14-1.82-.25-3.28-.36-4.76-1.3-.18-2.25,1.97-3.14,4.22.11.58.2,1.14.38,2.2-.63-.34-1.05-.58-1.41-.78-.52.88-.97,2.31-1.48,2.42-.99.22-1.32,2.24-2.11,4.07h1.84c.4-1.6.88-2.81,1.42-3.73.31-.52.85,1.24.67,1.37-.69.56-.32,3.16-1.05,3.55-.2.11-.34.99-.69,2.02,1.03.32.56,2.27.67,4.07.47-.9.83-1.57,1.35-2.56-.04,1.39-.07,2.24-.09,3.25.38-.14.63-.23.88-.32,0,.16.04.32.05.49-.58,1.08-1.15,2.16-1.69,3.21.83,1.28.87,1.62.22,3.14-.31.7-.65,1.24-.99,1.8-.05.07-.14-.11-.23-.16-.02-.9-.05-1.8-.09-2.76-1.35,1.01-1.44,1.24-1.66,4.27h2.36c.38,2.07-.88,3.3-.29,5.7.86,1.28,3.33.93,6.91,1.07M71.05,148.07c-.16-.88-.27-1.53-.38-2.16h-.02c.58-1.41,1.12-2.78,1.66-4.11.59,1.08.16,1.8.13,2.63-.05.83.18,1.78.36,3.19-.61.16-1.17.31-1.75.45ZM66.51,175.34v-.02s-.23-.65-.22-.7c.11-.34.23-.65.38-.85.02-.04.14.4.29.81-.18.34-.31.67-.45.76ZM66.92,166.38v.02c-.13-.18-.23-.25-.23-.38-.11-1.53-.13-2.92.9-2.4-.29,1.24-.49,2-.67,2.76ZM67.66,169.28c.25,1.05.49,2.09.78,3.34-.64-.56-.9-1.68-.78-3.34ZM77.52,95.81c-.04,1.96-.07,3.93-.09,5.89-.09,0-.18-.02-.27-.04.13-1.95.25-3.91.36-5.86ZM76.62,159.36c.09-.18.45.29.58.72.22.76.32,1.71.45,2.43-.02.43,0,.78-.05.88h-.02c-.16.34-.5.9-.5.85-.29-1.01-.58-2.06-.76-3.21-.07-.4.13-1.35.31-1.68ZM70.96,82.66c.09,1.06.18,2.13.27,3.19v.02c-.11.07-.22.14-.32.22-.09-1.06-.2-2.13-.29-3.19.11-.07.23-.14.34-.23ZM69.36,102.78s.13,0,.18.02v2.69h-.18v-2.7ZM65.48,110.14c.04-1.55.05-3.25.11-5.84.47,1.8.58,3.26,1.26,3.57.69.31.7,2.49.88,5.17-.88-1.14-1.53-1.98-2.25-2.9h0ZM59.21,69.16c.47,2.79.13,5.54-.13,8.28-.65-2.87-.07-5.54.13-8.28Z"/><path class="cls-1" d="M62.09,65.89s0-.02,0-.03c0-.03,0-.05,0-.08v.11Z"/></svg>