<svg width="8" height="4" viewBox="0 0 8 4" fill="none" xmlns="http://www.w3.org/2000/svg">
<path d="M7.33569 2.6231C7.35377 2.71623 7.29343 2.66366 7.3335 2.80043C7.32514 2.81173 7.31674 2.8234 7.30838 2.83479C7.30626 2.7817 7.30409 2.72869 7.30197 2.67547C7.31319 2.65783 7.32442 2.64029 7.33569 2.62284C7.33569 2.62293 7.33569 2.62302 7.33569 2.6231ZM7.35101 1.95582C7.34073 2.10736 7.30806 2.15116 7.34335 2.28808C7.34616 2.23577 7.34903 2.18355 7.35184 2.1314C7.36409 2.17087 7.37642 2.21005 7.38867 2.24875C7.39308 2.22868 7.39748 2.20864 7.40189 2.18888C7.4075 2.2779 7.41306 2.36688 7.41867 2.45556C7.41369 2.44315 7.40864 2.43048 7.40366 2.418C7.38396 2.49306 7.36643 2.51562 7.33969 2.53304C7.34204 2.55412 7.34439 2.57498 7.34674 2.59601C7.33317 2.56171 7.31961 2.52705 7.30609 2.4922C7.31783 2.45466 7.33095 2.4132 7.34183 2.37867C7.32442 2.23865 7.29372 2.32034 7.27774 2.3522C7.25598 2.39548 7.2609 2.32653 7.24475 2.35692C7.24218 2.36168 7.24188 2.41554 7.23679 2.41706C7.21107 2.42454 7.16113 2.40116 7.19034 2.27127C7.23266 2.28342 7.26875 2.17981 7.31027 2.21314C7.29929 2.07043 7.32116 2.01996 7.35101 1.95582ZM6.57355 2.50151C6.58637 2.42098 6.61249 2.45027 6.63019 2.50244C6.63021 2.50243 6.63023 2.50243 6.63025 2.50243C6.63415 2.51398 6.64296 2.61669 6.63025 2.61422C6.60952 2.60999 6.5995 2.44648 6.58863 2.5597C6.58376 2.53948 6.57865 2.52155 6.57355 2.50151ZM6.52851 2.51673C6.51579 2.47741 6.52156 2.35106 6.53748 2.38352C6.53748 2.38342 6.53748 2.38332 6.53748 2.38322C6.54412 2.39675 6.53108 2.49697 6.5549 2.39415C6.55977 2.47163 6.56456 2.54191 6.56937 2.61654C6.56353 2.61859 6.55822 2.62137 6.5521 2.62322C6.55621 2.49447 6.54122 2.55564 6.52851 2.51673ZM7.16886 2.33685C7.16686 2.44104 7.17523 2.43954 7.18949 2.50957C7.17603 2.50796 7.16257 2.5061 7.14917 2.50443C7.15575 2.44831 7.16227 2.39259 7.16886 2.33685ZM7.48499 2.3198C7.48501 2.3198 7.48503 2.31979 7.48505 2.31979C7.48946 2.30386 7.49388 2.28791 7.49823 2.27227C7.50087 2.30696 7.50347 2.34144 7.5061 2.37602C7.52168 2.34147 7.53734 2.3072 7.55292 2.27302C7.55103 2.3788 7.52306 2.3647 7.50766 2.44107C7.48476 2.41194 7.47372 2.35094 7.47223 2.26017C7.47647 2.28001 7.48069 2.30006 7.48499 2.3198ZM3.73884 1.98566C3.73363 2.03633 3.72848 2.08712 3.72327 2.13796C3.7302 2.16077 3.73707 2.17808 3.74406 2.20446C3.76232 1.98415 3.76404 2.17832 3.78797 2.16364C3.86133 2.11818 3.84187 1.78459 3.90812 2.27297C3.85493 2.25264 3.87537 2.48245 3.8433 2.66426C3.83666 2.52842 3.86843 2.21969 3.8469 2.15717C3.8098 2.30283 3.77412 2.44038 3.73295 2.53811C3.73415 2.56183 3.73535 2.58562 3.73655 2.60932C3.74308 2.59369 3.74955 2.578 3.75608 2.56244C3.74904 2.62668 3.74215 2.6905 3.73499 2.75578C3.74404 2.61012 3.72098 2.69335 3.72407 2.52654C3.72544 2.45228 3.73563 2.34877 3.74165 2.27778C3.72613 2.24022 3.71021 2.20572 3.69453 2.16889C3.70265 2.10928 3.71078 2.04977 3.71885 1.99049C3.72549 1.98849 3.73208 1.98701 3.73872 1.98502C3.73876 1.98523 3.7388 1.98545 3.73884 1.98566ZM0.399121 3.12082C0.418822 2.88294 0.454621 2.84178 0.473462 3.10033C0.448665 3.10701 0.423918 3.11409 0.399121 3.12082ZM7.47073 2.18535C7.47297 2.20238 7.47513 2.21922 7.47736 2.23621C7.46751 2.26893 7.4576 2.30161 7.44775 2.33468C7.44587 2.28492 7.44393 2.2351 7.44199 2.18546C7.45155 2.18535 7.46117 2.18546 7.47073 2.18535ZM6.84067 2.29732C6.84787 2.2933 6.84851 2.29508 6.85748 2.30218C6.85747 2.30214 6.85746 2.30209 6.85745 2.30204C6.86101 2.30472 6.89077 2.33423 6.88745 2.37699C6.87268 2.37924 6.85692 2.38016 6.8418 2.38173C6.84134 2.35361 6.84124 2.32568 6.84067 2.29732ZM7.01459 2.30598C7.01461 2.30607 7.01463 2.30616 7.01465 2.30625C7.02003 2.31206 7.02512 2.3244 7.03067 2.3262C7.01069 2.39357 7.00753 2.27646 6.98938 2.31139C6.97123 2.34659 6.96001 2.41361 6.94461 2.25225C6.95034 2.22738 6.95651 2.19208 6.9624 2.16336C6.98817 2.22637 6.99511 2.16466 7.01578 2.10012C7.01538 2.16888 7.01499 2.23719 7.01459 2.30598ZM4.06544 2.46884C4.07036 2.34844 4.07585 2.46578 4.07642 2.46712C4.07641 2.46726 4.0764 2.4674 4.07639 2.46754C4.12001 2.35316 4.07071 2.53441 4.11188 2.54939C4.10576 2.57979 4.09973 2.61191 4.09367 2.64278C4.08428 2.58603 4.0746 2.52141 4.06544 2.46884ZM5.48276 2.3636C5.48316 2.39285 5.48364 2.42216 5.48404 2.4514C5.4593 2.44679 5.453 2.56339 5.43244 2.45978C5.44921 2.42722 5.46599 2.39509 5.48276 2.36325C5.48276 2.36337 5.48276 2.36348 5.48276 2.3636ZM6.71597 2.13141C6.74341 2.08322 6.7637 2.06233 6.79004 2.13365C6.79006 2.13375 6.79008 2.13384 6.7901 2.13393C6.79162 2.13831 6.78427 2.18914 6.78626 2.2017C6.79169 2.19377 6.79731 2.18181 6.8028 2.17247C6.80354 2.21263 6.80425 2.25277 6.80499 2.29266C6.78953 2.28264 6.77407 2.27254 6.75855 2.26235C6.76084 2.28585 6.76318 2.30911 6.76547 2.33255C6.75231 2.346 6.73918 2.35947 6.72602 2.37307C6.7306 2.30584 6.73516 2.23875 6.73969 2.17158C6.73179 2.15816 6.72388 2.14519 6.71597 2.13141ZM5.0709 2.05895C5.07525 2.09251 5.06719 2.14949 5.07395 2.17819C5.08071 2.20648 5.09317 2.14295 5.09025 2.23815C5.08115 2.25149 5.07159 2.26677 5.06232 2.28083C5.09216 2.45045 5.12192 2.29296 5.12238 2.50378C5.09375 2.45188 5.0702 2.47913 5.04249 2.5409C5.04363 2.37149 5.07135 2.2241 5.0539 2.06662C5.05951 2.06421 5.0654 2.06078 5.07084 2.05932C5.07086 2.0592 5.07088 2.05908 5.0709 2.05895ZM7.87149 0.806988C7.88844 0.818285 7.92728 0.782691 7.9487 0.848438C7.95397 0.86481 7.97152 1.06368 7.97144 1.08928C7.97092 1.17597 7.94948 1.1855 7.97244 1.24468C7.96472 1.24444 7.95722 1.24691 7.94955 1.24767C7.95093 1.30644 7.9523 1.36501 7.95361 1.42349C7.96295 1.41532 7.97229 1.40717 7.98163 1.39891C7.98209 1.41823 7.98254 1.43758 7.983 1.45689C7.94944 1.45518 7.96925 1.53096 7.95184 1.59998C7.96788 1.63578 7.98403 1.67107 8 1.70618C7.99078 1.7018 7.9799 1.69849 7.97177 1.6933C7.97068 1.79229 7.99008 1.76863 7.99341 1.78689C8.01213 1.88981 7.9168 1.83883 7.909 1.9852C7.92423 2.00072 7.94021 2.01566 7.95578 2.03065C7.95131 2.04872 7.94679 2.06685 7.94232 2.08502C7.90699 1.98732 7.86737 1.95298 7.8262 1.89044C7.82248 1.89475 7.81876 1.89919 7.81509 1.90332C7.81618 1.94942 7.81721 1.99532 7.8183 2.04136C7.81269 2.04711 7.807 2.05284 7.80139 2.05863C7.81794 1.9055 7.79502 1.90902 7.76736 1.81577C7.78208 1.76178 7.80023 1.79434 7.79898 1.69453C7.74848 1.77138 7.68933 1.6605 7.6402 1.74909C7.628 1.77114 7.62804 1.90431 7.59937 1.89282C7.60034 1.87807 7.60051 1.85151 7.60114 1.83216C7.55154 1.89687 7.52145 1.93771 7.46991 1.87192C7.47289 1.92118 7.47581 1.97057 7.47879 2.01966C7.48973 1.99461 7.50069 1.96932 7.51157 1.94457C7.51901 2.02504 7.50801 2.06124 7.54065 2.05855C7.56739 2.0564 7.55147 2.0219 7.55875 1.9978C7.5686 1.96502 7.57724 2.02819 7.58783 1.99164C7.59602 1.96371 7.58716 1.89838 7.60852 1.91437C7.59993 1.99941 7.59117 2.08765 7.58252 2.1746C7.57731 2.15582 7.57214 2.13668 7.56693 2.11757C7.57219 2.09437 7.57737 2.07154 7.58264 2.04847C7.56409 2.09041 7.54656 2.13036 7.52738 2.17469C7.53362 2.04983 7.51379 2.09767 7.50302 2.1132C7.48625 2.13744 7.50062 2.05033 7.48962 2.06535C7.47863 2.08049 7.46677 2.17809 7.4469 2.15891C7.45755 2.10194 7.44306 2.05246 7.44586 2.00032C7.44867 1.94819 7.46969 1.93621 7.44949 1.88012C7.41067 1.92436 7.4528 2.12083 7.42658 2.15452C7.39508 2.19601 7.38759 1.87034 7.39697 1.80026C7.40436 1.74518 7.42978 1.75626 7.43723 1.70191C7.3917 1.60264 7.3913 1.79769 7.38352 1.83625C7.35523 1.97653 7.37423 1.60286 7.34073 1.73792C7.34136 1.66776 7.34187 1.60468 7.3425 1.53743C7.33672 1.54999 7.33288 1.56687 7.3259 1.57681C7.34649 1.71433 7.32964 1.70798 7.32098 1.70818C7.30735 1.70853 7.32841 1.77559 7.3248 1.7928C7.31506 1.83907 7.29967 1.81835 7.30911 1.87877C7.30488 1.85067 7.30028 1.82242 7.29593 1.79441C7.28001 1.82912 7.24258 2.1281 7.2782 2.06623C7.27488 2.17647 7.26336 2.12443 7.25437 2.10813C7.24538 2.09186 7.24554 2.16235 7.23764 2.14988C7.20621 2.0998 7.22677 1.97707 7.23175 1.8824C7.19023 1.94892 7.23088 1.99072 7.17105 2.0375C7.16527 2.11604 7.19291 2.19711 7.16989 2.244C7.16565 2.10879 7.1487 2.01221 7.11566 1.96784C7.11246 1.99944 7.10926 2.03137 7.10605 2.06308C7.08801 1.93741 7.09723 1.80435 7.06384 1.96329C7.08177 1.672 7.06944 1.85868 7.03955 1.73988C7.03348 1.71582 7.04751 1.6554 7.03903 1.62451C7.03519 1.61052 7.02586 1.65619 7.01648 1.62052C7.0119 1.60301 6.99048 1.48864 6.97565 1.54204C6.98653 1.68522 6.95835 1.80725 6.98252 1.92523C6.93785 1.89736 6.90658 1.96646 6.95664 1.76979C6.9453 1.72634 6.93395 1.68282 6.92261 1.6391C6.91471 1.67338 6.90674 1.70754 6.89878 1.74186C6.89757 1.62266 6.89878 1.58917 6.86765 1.60938C6.88116 1.58144 6.89461 1.55323 6.90817 1.52544C6.90863 1.50142 6.91052 1.47654 6.91007 1.4532C6.89345 1.49798 6.84667 1.51585 6.83533 1.54754C6.82399 1.57925 6.84589 1.58872 6.84262 1.61967C6.81543 1.87577 6.81758 1.68676 6.79807 1.73064C6.78661 1.75685 6.81396 1.78527 6.80783 1.79641C6.78511 1.83755 6.77457 1.70011 6.75443 1.69798C6.76158 1.77649 6.76868 1.85593 6.77567 1.93461C6.75454 1.93109 6.73098 1.93095 6.71134 1.95692C6.70363 1.96707 6.70945 2.02566 6.70819 2.02964C6.70195 2.05007 6.67652 2.08346 6.67383 2.08387C6.65357 2.08545 6.65299 2.00334 6.6333 1.99955C6.64103 1.99228 6.6483 1.98574 6.65586 1.97876C6.65929 1.84552 6.6628 1.71251 6.66623 1.57947C6.64694 1.56923 6.62763 1.5591 6.60828 1.54867C6.62242 1.59395 6.63662 1.63872 6.65076 1.68339C6.62865 1.79075 6.60655 1.89951 6.58444 2.00944C6.57293 1.94306 6.56147 1.87632 6.54996 1.8092C6.5187 1.82698 6.525 2.10143 6.51016 1.86139C6.50095 1.88187 6.49173 1.90242 6.48252 1.92282C6.48383 1.88832 6.48514 1.85377 6.48645 1.81931C6.47534 1.8406 6.46424 1.86186 6.45313 1.88362C6.46481 2.00604 6.47626 2.13416 6.48783 2.25165C6.46596 2.27994 6.46554 2.17617 6.46228 2.15043C6.45364 2.0822 6.43647 2.17605 6.4296 2.11264C6.42728 2.09077 6.4487 2.02117 6.44132 1.94236C6.43988 1.92742 6.41119 1.6358 6.39289 1.70285C6.39323 1.75595 6.39464 1.82105 6.39539 1.87877C6.37077 1.91181 6.35822 1.63331 6.36148 1.5552C6.34837 1.60945 6.3292 1.61364 6.32651 1.69946C6.31981 1.70149 6.31316 1.70341 6.30646 1.70545C6.31344 1.49604 6.2855 1.53318 6.28366 1.71427C6.29517 1.71883 6.3067 1.7236 6.31821 1.72812C6.3095 1.94878 6.34448 2.08183 6.2717 1.87838C6.25778 1.76296 6.29644 1.89377 6.2851 1.80747C6.2654 1.75721 6.24691 1.79959 6.22818 1.71856C6.20488 1.6171 6.23355 1.51958 6.17926 1.64799C6.29901 1.97238 6.16284 1.86686 6.1066 1.97084C6.09114 1.64712 6.04364 1.54068 5.97824 1.63753C5.98506 1.72972 6.00563 1.68249 6.01749 1.71279C6.02934 1.74298 6.01652 1.79732 6.03128 1.83989C6.04605 1.88245 6.07743 1.93957 6.09238 2.00294C6.07972 2.05442 6.0172 2.17956 6.05854 2.03116C6.02768 1.94218 6.01319 1.84899 5.97495 1.83224C5.96349 1.97618 5.96434 2.06591 5.92707 2.0718C5.94911 1.87023 5.90675 1.73104 5.91608 1.52266C5.94252 1.57196 5.92774 1.77345 5.94303 1.86984C5.94459 1.87942 5.96922 1.82866 5.97495 1.83224C5.95009 1.65227 5.9415 1.58375 5.95679 1.36958C5.93921 1.38742 5.92827 1.35971 5.92667 1.46273C5.92301 1.41785 5.91932 1.37285 5.91571 1.32783C5.90999 1.32859 5.90484 1.33242 5.89878 1.33121C5.90713 1.48779 5.89094 1.39076 5.87943 1.46117C5.86792 1.53184 5.88336 1.65587 5.85175 1.65709C5.86229 1.69404 5.87192 1.72561 5.88211 1.76029C5.86173 1.80056 5.84128 1.84143 5.8209 1.88241C5.83521 1.97882 5.86624 2.12003 5.86539 2.24602C5.856 2.19896 5.82384 2.28509 5.82032 2.28893C5.80669 2.30296 5.81411 2.22224 5.81308 2.22035C5.79167 2.18272 5.77403 2.21129 5.7659 2.08945C5.74981 2.14541 5.73768 2.11461 5.72062 2.11856C5.71122 2.12074 5.71305 2.21114 5.70755 2.1943C5.67102 2.08184 5.70583 1.96139 5.63535 2.18964C5.64388 2.25285 5.6523 2.3173 5.66083 2.38062C5.65287 2.40527 5.64496 2.43012 5.637 2.45492C5.63167 2.44385 5.62639 2.43267 5.62107 2.42155C5.62118 2.28312 5.62132 2.1444 5.62143 2.00598C5.61559 1.99864 5.60973 1.99149 5.60389 1.9841C5.61391 1.97012 5.62395 1.95621 5.63398 1.94234C5.63489 1.91801 5.63575 1.89367 5.63666 1.86935C5.62177 1.83193 5.60694 1.79393 5.59204 1.75575C5.59176 1.80409 5.59148 1.85278 5.59119 1.90114C5.55763 1.83449 5.55683 1.79263 5.52494 1.92757C5.50037 1.92645 5.48036 2.13205 5.46616 2.21967C5.46106 2.19242 5.45596 2.16476 5.45081 2.1374C5.44755 2.17857 5.44425 2.21961 5.44098 2.26089C5.43451 2.20421 5.42795 2.14738 5.42148 2.0907C5.41788 2.22083 5.41601 2.26177 5.44126 2.30543C5.43261 2.46729 5.38816 2.40043 5.37006 2.347C5.35633 2.30653 5.37156 2.16957 5.36985 2.15323C5.36411 2.09738 5.34149 2.14695 5.33674 2.13789C5.31664 2.09994 5.30255 2.10739 5.2844 2.07781C5.28086 2.07191 5.27098 1.98511 5.27015 1.98237C5.26362 1.96767 5.2475 1.92557 5.24567 1.92437C5.15114 1.86111 5.25215 2.23893 5.16425 2.20337C5.16688 2.25381 5.1693 2.30388 5.17188 2.35423C5.16524 2.35783 5.15853 2.36129 5.15189 2.3649C5.14347 2.32319 5.15366 2.24532 5.13694 2.30871C5.13803 2.24606 5.13912 2.18341 5.14026 2.12112C5.13299 2.15521 5.12598 2.18911 5.11854 2.22341C5.10685 2.00657 5.0642 1.95781 5.06723 1.70034C5.06827 1.61265 5.0985 1.52398 5.08252 1.43018C5.06954 1.41124 5.07833 1.51603 5.07303 1.52133C5.03478 1.55843 5.037 1.41139 5.02137 1.44999C5.01891 1.51306 5.01632 1.57743 5.0138 1.64125C5.0079 1.6226 5.00199 1.6039 4.99604 1.58516C4.99466 1.62772 4.99323 1.67035 4.99186 1.71295C4.99741 1.71583 5.00367 1.71874 5.00876 1.7216C5.00166 1.88598 4.93639 1.96198 4.96128 1.82022C4.97141 1.76277 4.98998 1.78727 4.97825 1.59184C4.96078 1.6196 4.94096 1.64813 4.92258 1.67627C4.92201 1.63391 4.92148 1.59146 4.9209 1.54908C4.89613 1.5759 4.91866 1.74606 4.91861 1.83669C4.91295 1.83929 4.90722 1.84158 4.90156 1.8442C4.89915 1.80307 4.89687 1.75999 4.89435 1.72007C4.89412 1.78557 4.89095 1.93804 4.87406 1.88171C4.8632 1.84489 4.8803 1.67903 4.85959 1.7019C4.86114 1.80467 4.86862 1.92939 4.84556 1.96311C4.84327 1.8558 4.8401 1.75739 4.83832 1.64441C4.80964 1.74757 4.79658 1.58061 4.76291 1.70116C4.74155 1.77722 4.71229 2.05233 4.69849 1.62959C4.68287 1.61819 4.68783 1.72369 4.6832 1.74739C4.66138 1.85982 4.64515 1.65845 4.64109 1.64636C4.61516 1.5697 4.60353 1.63965 4.5824 1.54326C4.58355 1.62268 4.58417 1.69783 4.58509 1.77521C4.60445 1.65635 4.61425 1.66237 4.64139 1.68798C4.63229 1.70373 4.62318 1.71989 4.61408 1.73574C4.61557 1.79993 4.61704 1.8641 4.61847 1.92789C4.70243 1.67523 4.68285 2.07106 4.61246 2.16205C4.60639 2.04354 4.6001 1.92509 4.59409 1.80572C4.55343 1.98679 4.5343 1.83053 4.48832 1.79241C4.48285 1.78804 4.46294 1.85778 4.45438 1.86137C4.45452 1.86184 4.45467 1.8623 4.45481 1.86276C4.44949 1.97722 4.4567 2.02972 4.45756 2.13182C4.45292 2.14484 4.44828 2.15783 4.44364 2.17089C4.43328 2.09335 4.43692 2.02899 4.41654 2.0483C4.41929 2.12615 4.422 2.20394 4.42475 2.28163C4.40241 2.28581 4.3878 2.20167 4.36701 2.23958C4.3705 2.20972 4.37395 2.17982 4.37745 2.15003C4.3322 2.07635 4.36821 1.61318 4.33402 1.84363C4.33185 1.80328 4.32973 1.7625 4.32755 1.72209C4.34164 1.71223 4.35573 1.70272 4.36976 1.69295C4.37004 1.63606 4.37035 1.57942 4.37058 1.52254C4.35552 1.53915 4.34038 1.55638 4.32532 1.57318C4.33632 1.53505 4.34738 1.49703 4.35837 1.4592C4.34091 1.43128 4.32344 1.40316 4.30598 1.3749C4.32452 1.58626 4.30048 1.61127 4.305 1.82021C4.27407 1.64692 4.24978 1.41476 4.20185 1.56161C4.19235 1.59088 4.19751 1.73912 4.17054 1.55841C4.17707 1.79406 4.14328 1.90513 4.14762 2.13009C4.15701 2.11885 4.16675 2.11164 4.17585 2.09804C4.16548 2.02075 4.16377 1.80635 4.17951 1.74297C4.19961 1.66237 4.22893 1.81004 4.22773 1.57407C4.23574 1.58533 4.2432 1.59201 4.25098 1.60148C4.24778 1.65979 4.24464 1.71854 4.24149 1.77698C4.26365 1.68538 4.27756 1.71558 4.28821 1.86193C4.26182 1.89595 4.23548 1.92993 4.20908 1.96424C4.21297 1.9742 4.21691 1.98423 4.2208 1.99382C4.20081 2.14547 4.22143 2.28751 4.18415 2.32223C4.18438 2.25292 4.18456 2.18357 4.18479 2.11392C4.17122 2.29971 4.13406 2.30147 4.14591 2.51474C4.13469 2.44994 4.1324 2.40831 4.12604 2.52453C4.09644 2.36421 4.07742 2.15733 4.08796 1.90976C4.07697 1.94974 4.06597 1.98992 4.05503 2.0302C4.06138 2.09786 4.06775 2.16507 4.0741 2.23244C4.05498 2.22924 4.03571 2.22609 4.01664 2.22318C4.01481 2.02159 4.05345 2.16048 4.0423 1.9811C4.04007 1.94506 4.02978 2.02266 4.02708 2.0024C3.99856 1.78262 4.04333 1.941 4.03492 1.77253C3.99243 1.72054 4.02643 1.43675 3.9679 1.6747C3.96636 1.61614 3.96469 1.55637 3.96326 1.49811C3.94295 1.49395 3.94459 1.62655 3.92713 1.65145C3.91619 1.6671 3.90247 1.43283 3.89039 1.59194C3.88823 1.62148 3.90855 1.90732 3.86585 1.89542C3.83271 1.88612 3.8465 1.68261 3.82859 1.61022C3.81066 1.53726 3.76966 1.82106 3.75758 1.49821C3.76696 1.54124 3.77892 1.56453 3.78934 1.59968C3.79358 1.53711 3.79771 1.4753 3.80189 1.41327C3.77806 1.49328 3.75344 1.39677 3.7374 1.54645C3.70562 1.31548 3.67007 1.52788 3.67969 1.78947C3.69016 1.75183 3.67878 1.63807 3.69331 1.71062C3.69479 1.77138 3.69636 1.8318 3.69785 1.8925C3.67311 1.88552 3.65593 1.88733 3.66721 1.70155C3.66338 1.69709 3.65958 1.69264 3.65574 1.68817C3.65505 1.82273 3.65444 1.95781 3.65375 2.09243C3.64917 2.10775 3.64457 2.12298 3.63999 2.13835C3.6349 2.10895 3.62979 2.07916 3.62464 2.04929C3.63157 1.83535 3.64337 1.82879 3.60432 1.70902C3.6042 1.783 3.60403 1.85669 3.60392 1.93067C3.57122 1.8372 3.57036 1.65707 3.5293 1.66328C3.5608 1.40537 3.57803 1.86297 3.57792 1.3461C3.58582 1.38038 3.59379 1.41504 3.60169 1.44914C3.60289 1.37444 3.60409 1.29966 3.60523 1.22501C3.5628 1.26052 3.49231 1.75573 3.46391 1.42487C3.46047 1.46512 3.45702 1.50012 3.45353 1.54348C3.4257 1.34232 3.41368 1.79261 3.38544 1.53224C3.38253 1.50477 3.38863 1.08064 3.35188 1.09308C3.35279 1.14854 3.35327 1.24178 3.35401 1.31168C3.34605 1.27732 3.33814 1.2413 3.33024 1.20601C3.32881 1.25721 3.32731 1.3084 3.32587 1.36003C3.33945 1.38052 3.35298 1.40125 3.36655 1.42158C3.35528 1.4387 3.34393 1.45591 3.33265 1.47317C3.34736 1.55739 3.354 1.55822 3.34513 1.6922C3.33236 1.70013 3.31957 1.70858 3.3068 1.71658C3.30549 1.75107 3.30418 1.78597 3.30286 1.82049C3.30905 1.92334 3.3153 2.02372 3.32148 2.1277C3.28821 2.04491 3.25928 2.04145 3.23374 1.83802C3.22939 1.80363 3.24478 1.6685 3.21513 1.79041C3.21467 1.71876 3.21387 1.66057 3.21336 1.59431C3.17705 1.79461 3.16512 1.73559 3.12727 1.58866C3.15178 1.72541 3.12991 1.63635 3.12367 1.70947C3.11939 1.75987 3.13608 1.75244 3.13419 1.80516C3.1323 1.85738 3.11061 2.06967 3.12916 2.09454C3.17463 1.66072 3.18702 2.17694 3.24543 1.96845C3.23644 2.02388 3.22738 2.07959 3.21839 2.13533C3.22263 2.17271 3.22642 2.20658 3.231 2.24617C3.19842 2.16376 3.21426 2.21748 3.20087 2.28453C3.18747 2.35159 3.16312 2.40975 3.1468 2.42924C3.14166 2.43535 3.14708 2.33793 3.13548 2.32957C3.12757 2.32367 3.10598 2.46957 3.10099 2.29945C3.09773 2.18833 3.13242 1.88257 3.08445 1.8839C3.07542 1.77499 3.09842 1.80872 3.09892 1.79561C3.1031 1.66635 3.0736 1.56833 3.05998 1.66733C3.05887 1.67591 3.06963 1.77711 3.05793 1.81688C3.03016 1.91207 3.01411 1.79615 2.99613 1.63772C2.99419 1.82296 2.97081 2.0454 2.94172 1.97735C2.94023 2.03076 2.93881 2.08466 2.93733 2.13851C2.94184 2.11008 2.94636 2.08206 2.95087 2.0537C2.9558 2.087 2.96102 2.11115 2.96583 2.15032C2.93657 2.19716 2.93243 2.4547 2.9184 2.5501C2.87039 2.8768 2.89949 2.19124 2.90815 2.07383C2.91439 2.12122 2.92043 2.17406 2.92661 2.22366C2.92593 2.15863 2.92523 2.0931 2.9246 2.02764C2.85273 2.03137 2.91365 1.60479 2.87718 1.48292C2.86778 1.80415 2.84099 1.83646 2.80686 1.63056C2.80308 1.63212 2.79929 1.63249 2.79551 1.63446C2.79488 1.68175 2.79489 1.75404 2.79386 1.78521C2.75274 1.84081 2.74542 1.33873 2.74152 1.29086C2.72423 1.07878 2.71076 1.37044 2.70567 1.37292C2.68419 1.38238 2.67795 1.25161 2.65751 1.30675C2.63552 1.3665 2.65056 1.46755 2.64387 1.55722C2.6385 1.62851 2.62116 1.64101 2.61399 1.71519C2.61684 1.6545 2.62 1.59505 2.62284 1.53423C2.60005 1.45105 2.58143 1.36944 2.55555 1.34808C2.52635 1.79461 2.5015 1.03808 2.51157 1.65193C2.53609 1.69419 2.54979 1.76405 2.56291 1.91948C2.54682 1.93959 2.53072 1.95927 2.51463 1.97956C2.50993 1.91232 2.5066 1.84669 2.50105 1.77802C2.48902 1.92129 2.46115 1.86018 2.4502 1.90246C2.39895 2.10108 2.41481 2.34901 2.36802 1.93466C2.40174 1.89353 2.40169 1.69241 2.43513 1.7203C2.42791 1.57698 2.41092 1.60623 2.42191 1.43448C2.38956 1.47586 2.40002 1.63009 2.38743 1.76678C2.37657 1.88471 2.3547 1.89169 2.35594 2.04541C2.3537 1.96096 2.35197 1.87914 2.34974 1.7947C2.32878 1.79561 2.30783 1.79573 2.28687 1.79665C2.29581 1.7078 2.30474 1.61902 2.31367 1.53106C2.30692 1.49745 2.30016 1.4639 2.29341 1.43017C2.24187 1.70609 2.15299 1.19348 2.16718 1.89539C2.14233 1.91808 2.13922 1.83004 2.12571 1.69665C2.12422 1.75014 2.12278 1.79464 2.12129 1.85422C2.10526 1.7982 2.09295 1.99969 2.07881 1.94762C2.06466 1.89587 2.06115 1.7049 2.05909 2.02581C2.04993 1.93399 2.04082 1.85755 2.03172 1.77181C2.02622 1.84489 2.02074 1.91725 2.0153 1.99011C2.00671 1.95193 1.9981 1.91382 1.98951 1.87545C1.98492 2.02968 1.95115 1.96381 1.93626 2.06819C1.92213 1.90164 1.92251 1.37496 1.88926 1.46838C1.89012 1.59937 1.89097 1.72995 1.89183 1.86087C1.88421 1.83361 1.87658 1.80637 1.86891 1.77899C1.86845 1.73617 1.86805 1.69334 1.86759 1.6505C1.87149 1.6638 1.87533 1.67701 1.87922 1.69071C1.87584 1.61829 1.87253 1.54613 1.86921 1.47357C1.85759 1.58063 1.84595 1.68803 1.83427 1.79578C1.85001 1.87728 1.86577 1.95848 1.88151 2.03928C1.86175 2.13613 1.848 2.04032 1.83082 2.14857C1.81588 1.96724 1.82139 1.86197 1.82746 1.66474C1.82191 1.68154 1.81629 1.69778 1.81074 1.71463C1.8144 1.51705 1.80501 1.399 1.83747 1.41602C1.83524 1.35971 1.83296 1.30598 1.83079 1.24739C1.82547 1.25602 1.82201 1.20825 1.81617 1.22969C1.80025 1.28826 1.78805 1.6358 1.78913 1.75785C1.78972 1.82171 1.80542 1.69963 1.80479 1.78984C1.80324 2.00961 1.76723 1.91212 1.81916 2.13144C1.80193 2.27194 1.79808 2.16671 1.77906 2.12674C1.78055 2.20016 1.782 2.27307 1.78343 2.34643C1.77461 2.31306 1.76578 2.27974 1.75697 2.24621C1.76922 1.8685 1.70422 1.72518 1.76274 1.3955C1.74544 1.37798 1.72821 1.36028 1.71098 1.3417C1.71453 1.30284 1.71808 1.26441 1.72163 1.22563C1.72942 1.24661 1.73716 1.2672 1.74494 1.28764C1.73578 1.21621 1.72661 1.14502 1.71745 1.07324C1.6958 1.16017 1.68732 1.29586 1.67741 1.46373C1.7026 1.587 1.69437 1.41926 1.714 1.38675C1.71331 1.49288 1.71422 1.59053 1.7125 1.70205C1.70236 1.482 1.66927 1.64147 1.6616 1.65238C1.63825 1.68498 1.65656 1.46797 1.64094 1.46302C1.62531 1.45796 1.60687 1.58755 1.5941 1.37066C1.59432 1.49204 1.59535 1.61764 1.59626 1.72813C1.57192 1.76798 1.57678 1.62439 1.57426 1.60575C1.53406 1.29882 1.51224 1.55643 1.46626 1.58777C1.4721 1.62588 1.478 1.66024 1.4839 1.69595C1.4492 1.95632 1.47258 1.87684 1.5027 1.96216C1.47446 1.93648 1.45829 2.15871 1.43837 2.22577C1.41844 2.29271 1.38427 2.17973 1.37178 2.09036C1.40035 1.94556 1.43117 2.03989 1.4629 1.99963C1.45929 1.87461 1.45579 1.76872 1.45207 1.6311C1.43277 1.89387 1.42159 1.71822 1.41523 1.68306C1.39657 1.5802 1.39715 1.80694 1.38588 1.56285C1.38633 1.64681 1.38667 1.71739 1.38713 1.79578C1.34859 1.76115 1.30702 1.61079 1.28193 1.92378C1.27964 1.72035 1.27791 1.52426 1.27528 1.31639C1.25896 1.46913 1.24499 1.3116 1.23124 1.34695C1.21756 1.3825 1.22277 1.5479 1.20668 1.61141C1.2037 1.62311 1.1975 1.51933 1.19017 1.59569C1.18276 1.67206 1.15547 2.24585 1.1522 1.74483C1.1384 1.74245 1.12534 1.72407 1.11183 1.71551C1.125 1.68721 1.13817 1.6599 1.15129 1.63179C1.14006 1.51019 1.12891 1.38859 1.11769 1.26629C1.11626 1.37485 1.11482 1.48542 1.11345 1.59264C1.08321 1.72473 1.06127 1.54643 1.03074 1.58808C1.02565 1.59517 1.03767 1.81159 1.01506 1.75642C0.992437 1.70145 0.975651 1.29519 0.937115 1.45094C0.935168 1.45892 0.923756 1.7709 0.909954 1.55454C0.906814 1.50543 0.920032 1.43326 0.912823 1.36868C0.905607 1.30409 0.873412 1.24976 0.870892 1.09569C0.871235 1.15019 0.873244 1.20674 0.874218 1.26221C0.868722 1.288 0.86317 1.31385 0.857617 1.33924C0.857101 1.24316 0.856545 1.14692 0.85603 1.0513C0.824419 1.2728 0.808083 1.63913 0.761242 1.51693C0.774413 1.65784 0.787588 1.79884 0.800701 1.93883C0.804309 1.8403 0.807923 1.7412 0.811474 1.64285C0.833061 1.68232 0.854707 1.72129 0.876293 1.76033C0.879844 1.64898 0.883332 1.53805 0.886883 1.4269C0.892608 1.4415 0.898278 1.45564 0.904003 1.47021C0.902572 1.55048 0.901128 1.63036 0.899639 1.71069C0.910976 1.69102 0.922326 1.67098 0.933605 1.65142C0.910642 2.12472 0.869479 1.61079 0.872448 2.00801C0.867354 1.94643 0.862253 1.88434 0.857159 1.82211C0.854925 2.01514 0.844566 1.95986 0.826306 1.9296C0.830486 2.02491 0.835103 2.11879 0.83894 2.21487C0.821187 2.08109 0.789696 2.0949 0.771313 2.04336C0.76324 2.02068 0.771304 1.87953 0.768902 1.863C0.756589 1.77637 0.733056 2.02307 0.728131 2.00379C0.698696 1.88862 0.679569 1.41796 0.647442 1.72785C0.680601 1.80447 0.662562 1.77215 0.674359 1.94416C0.678052 1.99815 0.720889 2.10942 0.667248 2.06083C0.66096 2.05547 0.56363 1.72971 0.595624 1.47893C0.579875 1.5585 0.567544 1.65092 0.553113 1.73605C0.517835 1.07249 0.530044 1.69597 0.540295 2.03882C0.534511 2.04044 0.529009 2.04405 0.523053 2.04419C0.535709 1.68363 0.47123 1.66023 0.449353 1.84359C0.442024 1.90463 0.462519 2.02041 0.445569 2.07572C0.437498 2.05046 0.428341 2.01766 0.419812 1.9893C0.432181 2.21911 0.407906 2.30861 0.408246 2.54314C0.392728 2.3354 0.380858 1.89172 0.389386 1.65137C0.376561 1.74857 0.363668 1.84596 0.350843 1.94426C0.356798 2.00004 0.362831 2.05524 0.368787 2.11086C0.326867 1.96359 0.272965 2.30359 0.264203 1.80566C0.258649 1.80923 0.253035 1.81232 0.24748 1.8159C0.245762 1.90014 0.244101 1.98458 0.242383 2.0689C0.217248 1.99642 0.19217 1.92302 0.167036 1.84967C0.189416 1.79686 0.194743 1.67668 0.218213 1.77433C0.209169 1.67723 0.199956 1.57938 0.191083 1.48186C0.15575 1.74318 0.150929 1.91676 0.0977302 1.83864C0.095325 1.83523 0.0551289 1.61339 0.0537545 1.59155C0.0474576 1.49249 0.0570161 1.34898 0.0542123 1.29893C0.0464238 1.15889 -0.000903164 0.803034 1.31286e-05 0.749504C0.0115815 0.0952053 0.170814 0.109218 0.21388 0.0816841C0.660568 -0.192729 1.09742 0.31343 1.5413 0.292476C1.54586 0.291985 1.54387 0.20682 1.54582 0.203451C1.5579 0.183861 1.56976 0.317563 1.57423 0.323537C1.58377 0.335975 1.57852 0.213419 1.58549 0.214293C1.65753 0.225787 1.72552 0.305755 1.79762 0.294722C1.80231 0.294011 1.79752 0.388985 1.80577 0.373131C1.81002 0.364372 1.82335 0.219707 1.83296 0.218905C1.86651 0.216148 1.8947 0.266765 1.93009 0.269373C1.94945 0.270731 1.97849 0.286986 2.00013 0.287746C2.00969 0.288101 2.01965 0.223705 2.02909 0.222881C2.04249 0.221768 2.03976 0.354404 2.04182 0.362944C2.05087 0.400178 2.05212 0.254451 2.06071 0.259148C2.07669 0.268351 2.07755 0.365614 2.09782 0.360022C2.11231 0.355801 2.14547 0.283901 2.16374 0.264185C2.20646 0.381872 2.26029 0.344296 2.30015 0.313436C2.32374 0.295122 2.32593 0.428315 2.33555 0.42909C2.36945 0.430666 2.39517 0.265355 2.42701 0.264664C2.46926 0.263821 2.50671 0.379593 2.54765 0.392804C2.55429 0.394927 2.55276 0.275607 2.55927 0.273505C2.58338 0.265806 2.61421 0.24884 2.63569 0.268863C2.65962 0.290987 2.66845 0.463101 2.69187 0.431347C2.69874 0.421925 2.70075 0.272758 2.71226 0.255341C2.73064 0.228059 2.75079 0.362292 2.76362 0.378582C2.7812 0.400476 2.76591 0.247162 2.78962 0.270954C2.7906 0.271982 2.79414 0.380316 2.79923 0.375862C2.81407 0.363355 2.81259 0.278435 2.8343 0.289726C2.83638 0.291219 2.86516 0.397456 2.86802 0.398184C2.88486 0.402145 2.91875 0.442269 2.92872 0.422053C2.96434 0.350276 2.9363 0.187298 2.96659 0.537379C2.97993 0.454389 2.99316 0.370577 3.0073 0.290775C2.99786 0.365922 3.03617 0.48133 3.03886 0.474472C3.06112 0.420227 3.04786 0.285066 3.07609 0.311311C3.03881 0.613681 3.11251 0.355786 3.12894 0.350785C3.20809 0.324709 3.28002 0.410884 3.35957 0.420003C3.38619 0.422926 3.42188 0.365336 3.45005 0.371122C3.45662 0.372187 3.45166 0.441389 3.45744 0.443718C3.4632 0.445572 3.4568 0.366199 3.46339 0.371325C3.50433 0.404932 3.53641 0.555575 3.57392 0.378114C3.57575 0.404808 3.57569 0.425678 3.57871 0.455117C3.60941 0.296274 3.66852 0.524316 3.69074 0.556563C3.72549 0.607384 3.73437 0.499695 3.75962 0.52516C3.79301 0.559246 3.84313 0.77581 3.82075 0.425632C3.84365 0.418143 3.8657 0.41857 3.88883 0.454037C3.89141 0.458048 3.88963 0.545395 3.89066 0.547339C3.89719 0.56079 3.89931 0.482715 3.90372 0.479765C3.91568 0.471799 3.89617 0.562804 3.91321 0.538973C3.92221 0.526188 3.92731 0.45876 3.95228 0.46103C4.10278 0.4758 4.26617 0.523768 4.42045 0.556651C4.43104 0.558853 4.42407 0.47821 4.43735 0.485316C4.48351 0.510388 4.56613 0.654351 4.60593 0.641551C4.64573 0.62911 4.63675 0.514354 4.66166 0.470865C4.66647 0.462417 4.66252 0.526275 4.66688 0.527924C4.69614 0.53843 4.73103 0.643446 4.75474 0.661519C4.77041 0.673657 4.76916 0.573358 4.78003 0.56785C4.79624 0.559972 4.81292 0.663083 4.82157 0.667429C4.86222 0.686998 4.89017 0.610666 4.92814 0.656904C4.92665 0.635098 4.92567 0.614957 4.92441 0.593482C4.96936 0.603654 5.01426 0.613767 5.05921 0.62382C5.05709 0.604106 5.05504 0.584221 5.05292 0.564162C5.10566 0.583056 5.09964 0.791249 5.09501 0.348586C5.09884 0.333718 5.10291 0.316443 5.10657 0.302836C5.10508 0.530156 5.13699 0.7013 5.17759 0.76371C5.18056 0.768264 5.20054 0.552006 5.19837 0.810471C5.20358 0.747828 5.20669 0.704664 5.21109 0.649775C5.21968 0.729242 5.22838 0.807535 5.23697 0.886165C5.24161 0.875087 5.24631 0.864444 5.25095 0.853409C5.25164 0.803141 5.25111 0.750786 5.2526 0.701562C5.27413 0.697076 5.31829 0.765023 5.3353 0.760879C5.37756 0.750156 5.42059 0.623736 5.45346 0.771651C5.46948 0.759246 5.45358 0.660918 5.47739 0.67659C5.48008 0.725525 5.48261 0.772372 5.48542 0.822694C5.50488 0.608784 5.50895 0.741436 5.53562 0.789828C5.55366 0.82272 5.56547 0.77184 5.58265 0.784422C5.587 0.787642 5.58638 0.850259 5.58936 0.848594C5.59933 0.843296 5.62779 0.761132 5.63483 0.75989C5.69862 0.746261 5.75343 0.763942 5.81418 0.794639C5.82071 0.79781 5.81225 0.736696 5.819 0.740218C5.82988 0.745795 5.82348 0.836813 5.82978 0.842165C5.84734 0.8565 5.84748 0.75982 5.87198 0.758379C5.95267 0.753918 6.04544 0.838395 6.12973 0.855678C6.13237 0.856033 6.13221 0.801708 6.13507 0.801584C6.15374 0.8017 6.17263 0.877393 6.18958 0.878783C6.2177 0.881371 6.23883 0.809135 6.2666 0.813533C6.32089 0.821787 6.3694 0.866519 6.42523 0.876233C6.47093 0.884368 6.51062 0.883029 6.56073 0.890305C6.77961 0.919177 7.00296 0.803488 7.22333 0.91629C7.22894 0.91917 7.22665 0.958921 7.22836 0.957435C7.24463 0.942413 7.24608 0.888867 7.25186 1.00249C7.27258 0.983054 7.27912 0.899729 7.30414 0.90968C7.31747 0.914917 7.30752 1.04325 7.33008 0.97956C7.35045 0.922138 7.32797 0.848311 7.38855 0.929741C7.39015 0.931996 7.39805 1.01115 7.41065 0.992629C7.4233 0.974453 7.40865 0.916522 7.43912 0.904674C7.51064 0.877631 7.60118 0.95787 7.68433 0.950849C7.68954 0.950348 7.73973 0.919215 7.74963 0.903052C7.76881 0.871446 7.7648 0.816781 7.7897 0.808337C7.80895 0.801968 7.82482 0.865452 7.84744 0.857467C7.85008 0.85647 7.85449 0.795474 7.87149 0.806988ZM3.6558 2.2092C3.6511 2.32137 3.64263 2.73532 3.61423 2.61222C3.61154 2.60046 3.62607 2.31458 3.61039 2.27014C3.62574 2.23921 3.64068 2.22874 3.6558 2.20877C3.6558 2.20891 3.6558 2.20906 3.6558 2.2092ZM7.99457 2.21352C7.97332 2.20464 7.952 2.19572 7.93076 2.18655C7.94542 2.1587 7.9601 2.13113 7.9747 2.10357C7.98134 2.14035 7.98793 2.17705 7.99457 2.21352ZM5.34974 2.30224C5.34976 2.30224 5.34978 2.30224 5.3498 2.30224C5.32746 2.34723 5.30511 2.39269 5.28278 2.43846C5.28513 2.40604 5.28748 2.3735 5.28983 2.34114C5.30747 2.28909 5.32511 2.23746 5.34269 2.18612C5.34503 2.22487 5.34739 2.26357 5.34974 2.30224ZM5.52619 1.95945C5.54045 1.99609 5.53696 2.05857 5.5448 2.11894C5.5448 2.11882 5.5448 2.11871 5.5448 2.11859C5.54688 2.1343 5.55652 2.14761 5.56025 2.14977C5.55887 2.11091 5.5571 2.07256 5.55561 2.03395C5.58888 1.93974 5.65395 2.26715 5.56971 2.40851C5.57097 2.3593 5.57217 2.31038 5.57343 2.26122C5.53157 2.27832 5.4849 2.17302 5.52619 1.95945ZM3.31919 2.411C3.28346 2.62434 3.272 2.6713 3.22865 2.52901C3.23477 2.4682 3.24089 2.40751 3.24702 2.34693C3.25418 2.4079 3.26128 2.46831 3.26844 2.529C3.26846 2.529 3.26848 2.529 3.2685 2.529C3.26993 2.46454 3.27137 2.39999 3.27274 2.33559C3.2882 2.36085 3.30373 2.386 3.31919 2.411ZM6.89411 2.01725C6.90407 2.2789 6.90119 2.12651 6.87274 2.18775C6.86289 2.20909 6.87249 2.25444 6.86637 2.26262C6.83328 2.30763 6.83063 2.13015 6.83801 2.03744C6.85674 2.03031 6.87566 2.02378 6.89404 2.01726C6.89407 2.01726 6.89409 2.01725 6.89411 2.01725ZM7.75266 1.93361C7.75268 1.93361 7.7527 1.93361 7.75272 1.93361C7.75358 1.98819 7.74024 2.00366 7.75528 2.05463C7.74383 2.05509 7.73239 2.05532 7.72089 2.05578C7.72426 2.05046 7.72771 2.04538 7.73108 2.04008C7.7281 2.02139 7.72512 2.00243 7.72214 1.98367C7.71807 2.04708 7.71429 2.01059 7.70227 1.98989C7.70559 2.05754 7.7089 2.12511 7.71222 2.19249C7.69825 2.17352 7.68423 2.15432 7.67026 2.13502C7.67009 2.11784 7.66991 2.10062 7.66974 2.08344C7.66447 2.10575 7.65926 2.12836 7.65399 2.1508C7.65256 2.13031 7.65118 2.11 7.64975 2.08948C7.6434 2.10549 7.63703 2.12155 7.63068 2.13789C7.62874 2.0879 7.64275 2.06539 7.61792 2.07964C7.62554 2.02765 7.63314 1.97603 7.64081 1.92449C7.67809 1.92749 7.71537 1.93059 7.75266 1.93361ZM6.63529 2.11265C6.67635 2.09896 6.66478 2.14247 6.65528 2.27837C6.64863 2.2233 6.64193 2.16808 6.63529 2.11265ZM4.51987 2.07083C4.50796 2.19546 4.496 2.31939 4.4838 2.44075C4.45952 2.51267 4.43523 2.28606 4.4535 2.19548C4.47549 2.08729 4.49845 2.20575 4.51987 2.07083ZM3.96683 2.15041C3.99654 2.21042 3.96859 2.36887 3.96189 2.46142C3.95367 2.31448 3.94221 2.32812 3.9238 2.31207C3.94109 2.30125 3.96192 2.1401 3.96683 2.14999C3.96683 2.15013 3.96683 2.15027 3.96683 2.15041ZM4.99796 2.18452C5.00986 2.18034 5.02171 2.14719 5.03235 2.18617C5.02914 2.29775 5.00785 2.19777 5.02308 2.36207C5.01546 2.36549 5.00784 2.36883 5.00028 2.37257C5.00508 2.30352 4.99862 2.25266 4.99799 2.18489C4.99798 2.18476 4.99797 2.18464 4.99796 2.18452ZM6.23746 2.24619C6.21409 2.13637 6.20967 2.18393 6.18613 2.26353C6.18281 2.17216 6.21088 2.01768 6.22846 1.9838C6.23144 2.07136 6.23443 2.15887 6.23746 2.24619ZM0.710827 2.56817C0.716438 2.35464 0.757828 2.32527 0.778393 2.38683C0.775944 2.41838 0.773487 2.45036 0.771038 2.48242C0.750995 2.51086 0.730871 2.53947 0.710827 2.56817ZM3.91505 2.30202C3.91813 2.30642 3.92105 2.30966 3.9238 2.31207C3.92074 2.31396 3.91778 2.31148 3.91505 2.30202ZM2.67103 1.60293C2.68082 1.43493 2.65172 1.37752 2.68705 1.44454C2.68705 1.44438 2.68705 1.44421 2.68705 1.44405C2.71042 1.48809 2.71557 1.49971 2.73722 1.51328C2.72943 1.72763 2.68551 1.80523 2.74604 1.84907C2.74684 1.84927 2.74525 1.72158 2.75492 1.73907C2.75791 1.74452 2.76746 1.84916 2.78199 1.87933C2.78669 1.88904 2.82198 1.92061 2.77387 1.92341C2.7753 2.07253 2.77272 2.22358 2.77284 2.36831C2.75406 2.41169 2.73963 2.11962 2.71977 2.12735C2.69027 2.13956 2.67526 2.43882 2.66959 2.04754C2.69439 1.95062 2.73698 1.94809 2.74253 2.18143C2.76652 2.18313 2.77341 1.9922 2.75407 1.89786C2.6712 2.01973 2.73132 1.61299 2.65876 1.76666C2.6579 1.82116 2.65492 1.87987 2.65537 1.93112C2.63323 1.73932 2.66754 1.66291 2.67103 1.60293ZM2.84431 2.01484C2.82999 2.1283 2.81572 2.24316 2.80146 2.358C2.80146 2.17287 2.80932 2.0063 2.83189 1.90204C2.83601 1.93983 2.84019 1.97755 2.84431 2.01484ZM1.63996 2.09968C1.6379 2.21207 1.63241 2.31529 1.6284 2.42257C1.62405 2.32838 1.52096 2.24127 1.57341 2.14559C1.58102 2.13198 1.62748 2.32897 1.63996 2.09968ZM6.39969 2.13718C6.38755 2.09468 6.37546 2.05186 6.36338 2.00887C6.38198 1.98059 6.40059 1.95183 6.41919 1.92352C6.41267 1.99451 6.40621 2.06576 6.39969 2.13718ZM4.32224 1.92843C4.32737 1.93149 4.31034 2.04936 4.33054 2.03023C4.31548 2.1057 4.30138 2.16997 4.28666 2.24169C4.28225 2.18618 4.27779 2.13082 4.27338 2.07514C4.26995 2.11111 4.26644 2.14692 4.26301 2.18298C4.26507 2.10143 4.2669 2.02185 4.26908 1.93903C4.29388 2.11274 4.29956 1.91496 4.32224 1.92843ZM5.05958 1.62517C5.06403 1.78548 5.02813 1.88163 5.06345 1.9067C5.05675 2.01221 5.04598 2.06802 5.0253 2.07831C5.02199 2.03794 5.01867 1.99781 5.01536 1.95734C5.0149 2.06588 5.00958 2.10636 4.99796 2.18452C4.99795 2.18439 4.99794 2.18427 4.99793 2.18415C4.9665 2.19373 4.96838 2.15736 4.96082 1.97796C4.99409 2.07824 4.99509 1.91422 5.01777 1.8172C5.03334 1.75053 5.05368 1.78056 5.05958 1.62517ZM1.7498 2.09373C1.72627 2.28796 1.74738 2.46817 1.70564 2.26407C1.70833 2.21461 1.71103 2.1656 1.71372 2.11622C1.72575 2.10822 1.73777 2.10079 1.7498 2.09373ZM5.17569 2.16908C5.173 1.92479 5.15085 1.73358 5.14707 2.13339C5.16866 2.21353 5.15811 1.98826 5.17569 2.16908ZM3.97697 1.70655C4.01848 1.72026 4.01063 2.03791 3.99357 2.19836C3.99093 2.14046 3.9883 2.0824 3.98572 2.02476C3.97845 2.05134 3.97118 2.07804 3.9639 2.1044C3.96826 1.97171 3.97261 1.83885 3.97697 1.70655ZM5.9076 1.88699C5.87587 2.04598 5.94184 1.97371 5.91968 2.07295C5.90199 2.1527 5.87867 1.99422 5.88749 1.89378C5.89361 1.89087 5.90043 1.88879 5.90754 1.88699C5.90756 1.88699 5.90758 1.88699 5.9076 1.88699ZM5.724 1.93671C5.72921 2.10984 5.7217 2.0595 5.74677 2.02745C5.75393 2.01842 5.81081 2.08078 5.78693 1.93934C5.7666 1.93985 5.74513 1.93791 5.724 1.93671ZM3.49708 2.03687C3.4967 1.93734 3.5405 1.7198 3.54612 1.77421C3.54612 1.77406 3.54612 1.77392 3.54612 1.77377C3.5613 1.92124 3.51509 1.94322 3.53513 2.14575C3.49075 1.96824 3.47748 2.40297 3.48057 1.83028C3.50671 1.80502 3.49433 1.92294 3.49708 2.03687ZM0.167371 1.97014C0.167351 1.97014 0.167331 1.97014 0.16731 1.97014C0.170252 1.97652 0.194488 2.17341 0.191541 2.24178C0.162395 2.18433 0.167589 2.05353 0.140455 2.26877C0.138967 2.1998 0.137693 2.13287 0.136091 2.06334C0.146857 2.02211 0.152825 1.9392 0.167371 1.97014ZM1.52851 1.86067C1.53922 1.82921 1.55877 1.95905 1.57096 1.95105C1.53214 2.45128 1.48574 1.98666 1.52851 1.86067ZM7.35111 1.95556C7.35108 1.95565 7.35104 1.95573 7.35101 1.95582C7.35102 1.95569 7.35104 1.95556 7.35104 1.95543C7.35107 1.95547 7.35109 1.95552 7.35111 1.95556ZM2.35838 2.13148C2.357 2.10144 2.35622 2.07532 2.35594 2.05239C2.35594 2.05023 2.35594 2.04807 2.35594 2.04591C2.35668 2.07407 2.35748 2.10254 2.35838 2.13148ZM3.40604 2.06979C3.3878 1.93013 3.44858 1.70785 3.46824 1.76096C3.46686 1.82432 3.46665 1.88175 3.46345 1.95461C3.44758 1.79044 3.40908 2.09289 3.40604 2.06979ZM4.79184 1.9807C4.7438 1.97825 4.80633 1.50719 4.8089 1.88212C4.80881 1.88933 4.79309 1.97998 4.79184 1.9807ZM3.78495 2.00194C3.79719 1.84146 3.77259 1.79921 3.81193 1.82658C3.81422 1.86796 3.8165 1.9094 3.81879 1.95072C3.80752 1.96765 3.79623 1.98488 3.78495 2.00194ZM4.47709 1.34758C4.41662 1.42639 4.35878 1.57353 4.39817 1.98563C4.40275 1.97227 4.40739 1.95938 4.41196 1.94607C4.41265 1.74537 4.42954 1.85487 4.45426 1.86098C4.45778 1.78166 4.47149 1.76336 4.47407 1.69619C4.47904 1.56647 4.46329 1.47453 4.47709 1.34758ZM7.03015 1.6994C7.02918 1.72295 7.02823 1.74663 7.02725 1.76997C7.01769 1.79659 7.0081 1.82321 6.99854 1.85009C7.00008 1.80461 7.00163 1.75916 7.00318 1.71375C7.01216 1.70891 7.02111 1.70406 7.03009 1.69926C7.03011 1.69931 7.03013 1.69935 7.03015 1.6994ZM2.90324 1.51385C2.89774 1.95889 2.91694 1.87588 2.95588 1.65247C2.93836 1.60651 2.92076 1.5603 2.90324 1.51385ZM5.44883 1.52989C5.45009 1.62379 5.45132 1.71735 5.45264 1.81115C5.47331 1.71332 5.46948 1.60656 5.45957 1.4821C5.45596 1.49797 5.45243 1.51397 5.44883 1.52989ZM5.74662 1.50096C5.73804 1.48184 5.74242 1.55477 5.74152 1.55327C5.71982 1.51441 5.71676 1.48054 5.69013 1.5348C5.68686 1.55395 5.68366 1.57412 5.68039 1.5939C5.6927 1.78447 5.70164 1.68095 5.7277 1.79229C5.723 1.72741 5.71832 1.66231 5.71363 1.59688C5.72811 1.61097 5.74254 1.62478 5.75702 1.63869C5.75874 1.61879 5.76046 1.59909 5.76218 1.57922C5.75703 1.55349 5.75171 1.52452 5.74662 1.50096ZM7.14075 1.76631C7.15484 1.77225 7.16899 1.77837 7.18308 1.78422C7.18359 1.74721 7.18409 1.70996 7.1846 1.67297C7.17 1.70383 7.15535 1.73496 7.14075 1.76631ZM2.61399 1.71519C2.61288 1.739 2.61179 1.76295 2.61082 1.78733C2.61091 1.75763 2.61213 1.73444 2.61399 1.71519ZM0.130201 1.51283C0.114226 1.4541 0.0912054 1.49193 0.0736824 1.47925C0.07506 1.68968 0.119597 1.63204 0.135236 1.75901C0.137749 1.72144 0.136954 1.53755 0.130201 1.51283ZM4.0344 1.71966C4.03841 1.6474 4.04241 1.57558 4.04636 1.50351C4.05604 1.51158 4.06574 1.52006 4.07548 1.52809C4.07576 1.46919 4.07604 1.40979 4.07633 1.35091C4.03344 1.42558 4.04333 1.25599 4.0221 1.08593C4.02622 1.29735 4.03028 1.50848 4.0344 1.71966ZM7.58899 1.54286C7.55801 1.56527 7.54702 1.61013 7.56448 1.71645C7.57542 1.69221 7.58642 1.66811 7.59735 1.64418C7.59455 1.61047 7.59174 1.57667 7.58899 1.54286ZM2.04975 1.54856C2.02383 1.62964 2.0234 1.33656 1.99806 1.49964C2.01163 1.5541 2.02519 1.60897 2.03871 1.66302C2.04236 1.62492 2.0461 1.58659 2.04975 1.54856ZM3.3213 0.866293C3.31036 0.775176 3.28991 1.20117 3.25916 0.882484C3.25184 0.976296 3.24724 1.06629 3.24094 1.15861C3.23728 1.05752 3.23312 0.954975 3.22962 0.854434C3.2296 0.854432 3.22958 0.85443 3.22956 0.854428C3.20167 0.885865 3.21975 1.01446 3.21912 1.1216C3.21883 1.16607 3.19813 1.0903 3.2046 1.18765C3.21576 1.35465 3.25749 1.26115 3.25761 1.46291C3.24295 1.39644 3.21432 1.45062 3.22279 1.58603C3.23206 1.73426 3.25904 1.4868 3.27622 1.60972C3.2516 1.28692 3.30245 1.38867 3.30824 1.6349C3.33807 1.44645 3.31065 1.36883 3.28007 1.37624C3.29874 1.18781 3.27126 1.28884 3.26673 1.13092C3.28598 1.03707 3.35205 1.12124 3.3213 0.866293ZM4.72895 1.29509C4.70833 1.30442 4.67611 1.20996 4.66199 1.34573C4.65377 1.42507 4.68606 1.48766 4.66379 1.61196C4.68389 1.60012 4.68847 1.55163 4.68503 1.44229C4.68961 1.42936 4.69425 1.41677 4.69883 1.40421C4.70095 1.42558 4.70312 1.44665 4.70524 1.46798C4.70764 1.42324 4.71006 1.3789 4.71241 1.33424C4.71727 1.34332 4.72219 1.35239 4.72706 1.36177C4.72763 1.33932 4.7286 1.31981 4.72895 1.29509ZM1.30534 1.54336C1.31106 1.54161 1.31673 1.53987 1.32246 1.53767C1.32183 1.50003 1.32108 1.46083 1.32035 1.42213C1.31984 1.39155 1.31932 1.36097 1.3188 1.33039C1.32212 1.43988 1.34939 1.62147 1.36088 1.50542C1.36666 1.44734 1.35351 1.2398 1.378 1.2049C1.36025 1.21466 1.34381 1.24214 1.32658 1.25902C1.32813 1.19739 1.32961 1.13513 1.33116 1.07356C1.33115 1.07347 1.33114 1.07338 1.33113 1.07329C1.3254 1.05904 1.31961 1.0441 1.31388 1.02981C1.31102 1.20097 1.3082 1.37194 1.30534 1.54336ZM5.43204 1.34334C5.41251 1.41998 5.40598 1.46051 5.4152 1.58675C5.41522 1.58681 5.41524 1.58687 5.41526 1.58693C5.42253 1.53128 5.42981 1.47582 5.43708 1.42051C5.43542 1.39483 5.43376 1.36905 5.43204 1.34334ZM2.44578 1.13135C2.40426 1.80113 2.49776 1.39232 2.47996 1.16444C2.47916 1.15392 2.44967 1.20567 2.44578 1.13135ZM3.96934 1.5305C3.98073 1.52616 3.99215 1.52228 4.00361 1.51798C4.00097 1.44785 3.99828 1.3779 3.99564 1.30765C3.98688 1.38158 3.9781 1.45612 3.96934 1.5305ZM7.4541 1.37991C7.44211 1.28409 7.41132 1.246 7.39627 1.34936C7.40418 1.3622 7.41208 1.375 7.41998 1.38773C7.40504 1.39865 7.39027 1.41089 7.37521 1.42134C7.37441 1.55573 7.39176 1.47867 7.41788 1.5168C7.42192 1.52316 7.44777 1.68869 7.4567 1.56493C7.45849 1.53962 7.43099 1.52091 7.4501 1.44773C7.44175 1.4414 7.43454 1.44227 7.42664 1.43854C7.42606 1.40679 7.4255 1.37499 7.42487 1.34322C7.43463 1.35547 7.44433 1.36779 7.4541 1.37991ZM4.60889 1.30396C4.58057 1.29112 4.57707 1.37226 4.57117 1.51608C4.58434 1.50017 4.59752 1.48459 4.61069 1.46884C4.61006 1.41401 4.60952 1.35915 4.60889 1.30396ZM7.20093 1.33003C7.18542 1.31278 7.19206 1.39318 7.18582 1.40797C7.16223 1.46382 7.14614 1.4055 7.12283 1.44027C7.12438 1.42475 7.1258 1.41026 7.12729 1.39522C7.12727 1.39522 7.12725 1.39521 7.12723 1.39521C7.01688 1.31924 7.07484 1.50842 7.14087 1.48123C7.14242 1.51128 7.1439 1.54133 7.14545 1.5711C7.175 1.51972 7.20225 1.47125 7.20093 1.33003ZM2.81464 1.13169C2.81338 1.09848 2.82409 0.88897 2.80399 0.985885C2.78808 1.29234 2.81418 1.14142 2.82072 1.25983C2.81528 1.28901 2.80971 1.31743 2.80433 1.3467C2.83686 1.43474 2.84161 1.36208 2.82975 1.1374C2.8289 1.12227 2.81591 1.16476 2.81464 1.13169ZM2.60087 0.963545C2.5964 1.42561 2.63745 1.21958 2.63596 1.07679C2.6303 1.07069 2.62589 1.14847 2.61988 1.11357C2.61381 1.07862 2.61226 0.970671 2.60087 0.963545ZM3.77698 1.15567C3.77578 1.15383 3.7637 0.980871 3.7649 1.11566C3.77985 1.43535 3.80996 1.23166 3.80469 1.12108C3.79473 1.12582 3.78809 1.1731 3.77698 1.15524C3.77698 1.15538 3.77698 1.15553 3.77698 1.15567ZM7.64093 1.33817C7.64036 1.33167 7.61022 1.28935 7.60632 1.32591C7.60312 1.36721 7.60153 1.41168 7.59912 1.45463C7.61573 1.41571 7.64935 1.44824 7.64087 1.33816C7.64089 1.33816 7.64091 1.33817 7.64093 1.33817Z" fill="#0057D4"/>
</svg>
