<svg width="48" height="50" viewBox="0 0 48 50" fill="none" xmlns="http://www.w3.org/2000/svg">
  <path d="M41.777 5.52795C45.8178 9.05186 47.8391 14.3956 47.8391 21.5615V28.3683C47.8391 35.4165 45.8178 40.7599 41.777 44.4019C37.7331 48.0456 31.7325 49.8652 23.7701 49.8652C16.1695 49.8652 10.347 48.0149 6.30626 44.3124C2.26328 40.6115 0.244141 35.2969 0.244141 28.3683V21.5615C0.244141 14.636 2.26328 9.35124 6.30626 5.70714C10.347 2.06552 16.1692 0.243164 23.7701 0.243164C31.7325 0.243164 37.7334 2.00652 41.777 5.52795Z" fill="#FF9E5F"/>
  <g transform="translate(11 8.2857) scale(0.2857)">
    <rect x="15" y="13" width="61" height="91" rx="26" stroke="#161616" stroke-width="5"/>
    <path d="M45.5 73V37" stroke="#161616" stroke-width="5" stroke-linecap="round"/>
    <path d="M33 49.5L45.5 37L58 49.5" stroke="#161616" stroke-width="5" stroke-linecap="round" stroke-linejoin="round"/>
  </g>
</svg>
