<svg width="54" height="56" viewBox="0 0 54 56" fill="none" xmlns="http://www.w3.org/2000/svg">
<g clip-path="url(#clip0_276_12503)">
<path d="M46.9989 6.19142C51.5448 10.1382 53.8188 16.1232 53.8188 24.149V31.7726C53.8188 39.6665 51.5448 45.6512 46.9989 49.7302C42.4495 53.8112 35.6988 55.8492 26.7411 55.8492C18.1904 55.8492 11.6402 53.7768 7.0943 49.63C2.54594 45.485 0.274414 39.5326 0.274414 31.7726V24.149C0.274414 16.3925 2.54594 10.4735 7.0943 6.39211C11.6402 2.3135 18.1901 0.272461 26.7411 0.272461C35.6988 0.272461 42.4498 2.24742 46.9989 6.19142Z" fill="#FF9E5F"/>
</g>
<g clip-path="url(#clip1_276_12503)">
<path d="M27.2563 12.1704C31.2827 12.1704 34.1326 13.3164 35.9985 15.4468C37.8871 17.6068 38.9165 20.9122 38.9165 25.5327V31.5444C38.9165 36.1663 37.8869 39.4708 35.9985 41.6294C34.1329 43.7613 31.2835 44.9058 27.2563 44.9058C22.9909 44.9057 20.0185 43.7514 18.1265 41.6235V41.6226C16.2047 39.4643 15.1597 36.163 15.1597 31.5444V25.5327C15.1597 21.0599 16.1401 17.8212 17.9487 15.6597L18.1265 15.4536C20.0188 13.3269 22.9915 12.1704 27.2563 12.1704Z" stroke="#161616" stroke-width="2"/>
</g>
<mask id="mask0_276_12503" style="mask-type:luminance" maskUnits="userSpaceOnUse" x="20" y="16" width="13" height="13">
<path d="M20.75 16.75H32.25V28.25H20.75V16.75Z" fill="white"/>
</mask>
<g mask="url(#mask0_276_12503)">
<path d="M25.9611 16.75V26.1872L21.7277 21.9537L20.9658 22.7156L26.5002 28.25L32.0346 22.7156L31.2727 21.9537L27.0393 26.1872V16.75H25.9611Z" fill="#161616"/>
</g>
<defs>
<clipPath id="clip0_276_12503">
<rect width="54" height="56" fill="white"/>
</clipPath>
<clipPath id="clip1_276_12503">
<rect width="26" height="35" fill="white" transform="translate(14 11)"/>
</clipPath>
</defs>
</svg>
