<svg xmlns="http://www.w3.org/2000/svg" width="93" height="89.4">
    <path d="M92.9 29.4v-1c0-9.1-4.1-17.2-10.6-22.4L87.4.9l-.7-.7-5.2 5.2C77.1 2 71.7 0 65.8 0c-7.2 0-14.2 3-19.2 8.3C41.4 3 34.4 0 27.3 0 21.5 0 16 1.9 11.4 5.4L6.2.2l-.7.7 5 5.1c-.9.7-1.7 1.5-2.5 2.3-5.1 5.4-8 12.5-7.9 20v1H0v1.2c0 .8.7 16.2 19.8 36.6l-.7.7.7.7.7-.7C26.8 74.5 35 81.6 45.8 89l.5.4.2-.1.2.1.6-.4C58 81.7 66.2 74.6 72.5 68l.6.6.7-.7-.6-.6C92.3 46.8 92.9 31.5 93 30.6l-.1-1.2zm-2 1.1l-.1 1.3h.1c-.6 4-3.6 17.3-19.2 34l-3.9-3.9-.7.7 3.9 3.9c-6.1 6.4-14 13.3-24.3 20.4l-.2-.1-.2.1c-10.4-7.1-18.3-14-24.4-20.5l3.9-3.9-.7-.7-3.9 3.9C5.7 49 2.7 35.7 2.2 31.8h.1l-.1-1.3c-.1-.7-.2-1.4-.2-2.1 0-7.1 2.6-13.7 7.4-18.7C14.2 4.7 20.5 2 27.2 2c7 0 13.7 3.1 18.5 8.5l.7.8.7-.8C52 5.1 58.8 2 65.7 2 79.7 2 91 13.8 91 28.4c0 .7-.1 1.4-.1 2.1zM46.5 16.3c-13.7 0-24.8 11.1-24.8 24.8S32.8 66 46.5 66s24.8-11.1 24.8-24.8-11.1-24.9-24.8-24.9zm22.8 24.3h-10c-.1-4.8-1-8.8-2.4-11.9H60v-1h-3.5c-1.1-2.3-2.3-4.1-3.5-5.4-1.5-1.8-3-3-4.2-3.9 11.4 1.2 20.3 10.7 20.5 22.2zm-45.6 0c.1-4.4 1.4-8.4 3.7-11.9H36c-1.3 3.2-2.2 7.1-2.2 11.9H23.7zM37 28.7h9v11.9H34.7c0-4.9 1-8.8 2.3-11.9zm10-1v-9.4c1.6 1 5.6 3.8 8.4 9.4H47zm8.9 1c1.4 3.1 2.4 7.1 2.5 11.9H47V28.7h8.9zm-9.9-1h-8.6c1-2.1 2.2-3.7 3.2-5 2.1-2.5 4.3-3.8 5.3-4.4v9.4zm0 13.9v11.8h-8.9c-1.3-3-2.4-6.9-2.5-11.8H46zm0 12.9v9.3c-1-.6-3.2-2-5.4-4.6-1-1.2-2.1-2.8-3-4.7H46zm1 0h8.5c-1 2-2.1 3.6-3.2 4.8-2.1 2.4-4.2 3.8-5.3 4.4v-9.2zm0-1V41.6h11.3c-.1 4.9-1.1 8.8-2.4 11.8H47zm12.4-11.9h10C69.3 46 68 50 65.8 53.4H57c1.4-3.1 2.3-7 2.4-11.8zM44 18.5c-2.2 1.5-5.4 4.4-7.6 9.3h-8.3c3.6-5.1 9.4-8.6 15.9-9.3zM23.7 41.6h10c.1 4.8 1.1 8.7 2.4 11.8H33v1h3.5c1.1 2.2 2.3 4 3.4 5.4 1.6 1.9 3.2 3.2 4.3 4C32.9 62.7 24 53.2 23.7 41.6zm25 22.3c2.1-1.4 5.5-4.4 7.9-9.4H65c-3.7 5.2-9.6 8.7-16.3 9.4zM25 20.5l-6-6 .7-.7 6 6-.7.7zM12.9 7l6 6-.7.7-6-6 .7-.7zm13.8 15.2l-1-1 .7-.7 1 1-.7.7zm39.5-.1l-.7-.7 1-1 .7.7-1 1zM80 6.9l.7.7-6 6-.7-.6 6-6.1zm-6.8 6.8l.7.7-6 6-.7-.7 6-6zM26.8 60.1l.7.7-1 1-.7-.7 1-1zm-8.5 8.5l.7.7-6 6-.7-.7 6-6zm-6.7 6.8l.7.7-6 6-.7-.7 6-6zm62.9-6.8l6 6-.7.7-6-6 .7-.7zm6.8 6.8l6 6-.7.7-6-6 .7-.7zM66.1 60.1l1 1-.7.7-1-1 .7-.7z" fill="#b5d334"/>
</svg>
