<svg xmlns="http://www.w3.org/2000/svg" width="41" height="62">
    <linearGradient id="a" gradientUnits="userSpaceOnUse" x1="50%" y1="-27.814%" x2="50%" y2="163.25%">
        <stop offset="0" stop-color="#3dfefd"/>
        <stop offset=".99" stop-color="#b7d43f"/>
    </linearGradient>
    <path fill="url(#a)" d="M21.184 40.847h1.107v4.29h-1.107v-4.29zM41 50.008V62H6.335V50.008h5.051v-5.974H9.729c-4.918 0-6.533-6.905-7.602-11.475-.514-2.195-.808-3.765-1.121-5.426a194.276 194.276 0 0 0-.727-3.72c-.86-4.147.269-6.961 3.357-8.365a317.567 317.567 0 0 0 3.842-1.787l-.281-.003s.052-5.659.052-7.329c0-.967.431-1.795 1.246-2.395 1.64-1.207 4.69-1.335 6.996-.791.118-.865.658-1.6 1.601-2.079C17.935.236 19.09 0 20.34 0c2.614 0 5.261.991 5.261 2.885v.111c.142-.088.278-.179.446-.252 2.251-.98 7.198-.593 7.93 1.596.56-.333 1.323-.526 2.249-.526 2.151 0 4.376 1.019 4.376 2.724v14.718c.086 1.491.077 4.775.057 12.115l-.008 3.26c0 3.52-2.045 6.469-4.771 7.201v6.176H41zM34.077 5.984v16.302c.079.281 1.553.778 3.297.532.498-.068 2.121-.37 2.121-1.363V6.537c0-.953-1.723-1.617-3.269-1.617-.798.001-2.149.224-2.149 1.064zm-8.464-1.273c0 1.922.007 6.995.014 11.506.005 3.608.01 6.856.01 7.84 0 .23.327.483.876.677.665.234 1.585.363 2.594.363 2.212 0 3.865-.622 3.865-1.178V4.905c0-.852-1.825-1.573-3.987-1.573-.978 0-1.865.151-2.494.427-.584.253-.878.574-.878.952zm-9.065-1.633v3.954l.02 1.93c1.185-.549 2.157-.985 2.738-1.214l.208-.081.206.085c.984.405 1.677 1.386 1.953 2.764.39 1.947-.114 4.967-2.142 6.994-.783.783-1.868 1.622-2.983 2.378v4.027c1.159.889 2.139 1.827 2.939 2.818 1.737.121 3.595-.347 4.496-1.158.347-.312.522-.651.522-1.006l-.011-21.684c0-.963-1.902-1.778-4.154-1.778-1.08 0-2.056.193-2.748.545-.693.352-1.044.831-1.044 1.426zm-1.107 20.035v-2.508c-.77.478-1.513.898-2.131 1.202.76.423 1.47.858 2.131 1.306zM8.308 12.868c.963-.456 1.939-.919 2.91-1.381 1.494-.711 2.94-1.399 4.223-2v-2.46a607.44 607.44 0 0 1-.021-3.171c-2.026-.523-4.868-.463-6.27.57-.534.394-.794.885-.794 1.503 0 1.408-.037 5.633-.048 6.939zm4.185 37.14h22.28v-6.01c-.071.003-.14.013-.212.013-1.429 0-5.505.019-5.505.019l-.006-1.107s4.08-.019 5.511-.019c2.747 0 4.982-2.814 4.982-6.274l.007-3.263c.009-2.85.021-7.334.007-10.163-.805.527-1.966.785-3.134.785-.849 0-1.7-.13-2.346-.402v.331c0 1.578-2.497 2.285-4.972 2.285-1.129 0-2.182-.151-2.961-.426a3.698 3.698 0 0 1-.722-.34 2.749 2.749 0 0 1-.699.961c-.959.864-2.671 1.405-4.426 1.457 1.275 1.963 1.913 4.117 1.913 6.488h-1.107c0-4.999-2.965-8.844-9.33-12.1l-1.227-.628 1.32-.395c1.284-.385 5.093-2.703 6.882-4.492 1.74-1.74 2.173-4.326 1.839-5.995-.181-.9-.567-1.552-1.1-1.865-1.417.585-4.52 2.061-7.794 3.619-2.662 1.266-5.414 2.575-7.599 3.568-1.653.751-3.733 2.308-2.732 7.133.304 1.459.523 2.632.731 3.741.31 1.649.602 3.207 1.111 5.379 1.257 5.374 2.797 10.62 6.525 10.62h5.593v1.107h-2.829v5.973zm27.4 1.107H7.442v9.778h32.451v-9.778zM8.536 56.004a3.048 3.048 0 0 1 3.045-3.045 3.048 3.048 0 0 1 3.044 3.045 3.048 3.048 0 0 1-3.044 3.044 3.048 3.048 0 0 1-3.045-3.044zm1.106 0a1.94 1.94 0 0 0 1.938 1.937 1.94 1.94 0 0 0 1.937-1.937 1.94 1.94 0 0 0-1.937-1.938 1.94 1.94 0 0 0-1.938 1.938z"/>
</svg>
