<svg xmlns="http://www.w3.org/2000/svg" width="210" height="208">
    <path fill="#B6D806" d="M36.5 120c1.1 4.5 2.6 8.9 4.5 13l-1.6.7c-2-4.3-3.5-8.8-4.6-13.4l1.7-.3zm12.6 26.3c-2.8-3.6-5.3-7.6-7.3-11.7l-1.6.8c2.1 4.2 4.6 8.3 7.5 12l1.4-1.1zm6.6 7.4l3.1-3.1-1.2-1.2-3.1 3.1c-1.5-1.5-2.9-3.1-4.3-4.8l-1.4 1.1c1.4 1.7 2.9 3.3 4.4 4.9l-5.6 5.6 1.2 1.2 5.6-5.6c1.4 1.4 2.8 2.7 4.3 3.9l1.1-1.3c-1.4-1.2-2.8-2.5-4.1-3.8zm77.3 13.2l.7 1.6c-4.3 2-8.8 3.5-13.4 4.6l-.2-.9c-4.6 3.6-9.6 7.2-14.9 10.8l-1 .7-.3-.2-.3.2-1-.7c-5.5-3.8-10.6-7.5-15.4-11.2L87 173c-4.6-1.1-9.1-2.7-13.3-4.7l.7-1.6c3.8 1.8 7.7 3.2 11.7 4.3-10-7.8-18.3-15.4-25.1-22.7l-1 1-1.2-1.2 1.1-1.1c-12.2-13.1-19.9-24.9-24.6-34.6.2 2 .5 3.9 1 5.9l-1.7.4c-.8-3.6-1.2-7.2-1.4-10.9-5.4-12.4-5.7-20.2-5.7-21l-.1-2.1h.1v-1.6c0-12.5 4.7-24.2 13.1-33.1 1.3-1.4 2.7-2.6 4.1-3.8L36.3 38l1.2-1.2 8.4 8.4c7.6-5.7 16.7-8.8 26.3-8.9 2.7 0 5.4.3 8.1.8 2.4-.9 4.8-1.6 7.3-2.2l.4 1.7c-1.5.4-3 .8-4.4 1.2 7.6 2.1 14.7 6.3 20.4 12.2 5.7-5.9 12.7-10.1 20.4-12.2-1.2-.4-2.5-.8-3.8-1.1l.4-1.7c2.2.6 4.4 1.2 6.6 2 2.6-.5 5.3-.8 8.1-.8 9.5 0 18.6 3.1 26.2 8.8l8.4-8.4 1.2 1.2-8.2 8.2c1.5 1.2 2.9 2.5 4.3 3.9 8.5 8.8 13.1 20.6 13.1 33.1v1.6h.1l-.1 2.1c0 .8-.4 8.6-5.8 21.1-.2 3.8-.7 7.6-1.5 11.3l-1.7-.4c.4-2.1.8-4.2 1-6.3-4.8 9.7-12.4 21.5-24.7 34.6l1 1-1.2 1.2-.9-.9c-6.9 7.2-15.1 14.8-25 22.5 3.7-.9 7.5-2.2 11.1-3.9zm11.2-21.1l-6.4-6.4 1.2-1.2 6.4 6.4c25.4-27.4 30.5-49.1 31.5-55.8h-.1l.2-2.2c.1-1.1.2-2.3.2-3.5 0-11.6-4.3-22.5-12.1-30.7s-18.2-12.7-29.3-12.7c-11.5 0-22.5 5.1-30.4 13.9l-1.3 1.5-1.3-1.5C95 44.7 83.9 39.7 72.4 39.7c-11.1 0-21.5 4.5-29.3 12.7-7.8 8.2-12.2 19.1-12.1 30.7 0 1.2.1 2.4.2 3.5l.2 2.2h-.1c1 6.7 6 28.3 31.4 55.7l6.3-6.3 1.2 1.2-6.3 6.3c10 10.6 23 22 40.1 33.7l.3-.2.3.2c16.6-11.6 29.6-23 39.6-33.6zm23.3-10l-1.6-.8c-2.1 4.1-4.5 8-7.4 11.7l1.4 1.1c2.9-3.8 5.5-7.8 7.6-12zm-21.2 23c-3.6 2.8-7.6 5.3-11.7 7.3l.8 1.6c4.2-2.1 8.3-4.6 12-7.5l-1.1-1.4zm20.4-25.3l1.6.7c2-4.3 3.6-8.8 4.7-13.3l-1.7-.4c-1.1 4.4-2.7 8.8-4.6 13zm-93.8 32.4c-4.1-2.1-8-4.6-11.7-7.4l-1.1 1.4c3.7 2.9 7.7 5.5 12 7.6l.8-1.6zm30.5-131.2v-1.8c-4.7 0-9.5.5-14.1 1.5l.4 1.7c4.5-.8 9.1-1.3 13.7-1.4zm1.8 0c4.6.1 9.2.6 13.7 1.6l.4-1.7c-4.6-1-9.3-1.6-14.1-1.6v1.7zM3.6 123.6l-1.7.3c.2 1.2.5 2.3.7 3.5l1.7-.4c-.2-1.1-.5-2.3-.7-3.4zm3.1 17.3c.4 1.1.9 2.2 1.3 3.3l1.6-.7c-.4-1.1-.9-2.1-1.3-3.2l-1.6.6zM4 132.5c.3 1.1.7 2.3 1 3.4l1.7-.5c-.4-1.1-.7-2.2-1-3.3l-1.7.4zM1.9 97.7l-1.7-.1c-.1 1.1-.2 2.3-.2 3.5h1.8c0-1.1 0-2.3.1-3.4zm-.1 8.6H0c0 1.2.1 2.3.1 3.5l1.7-.1v-3.4zm1-17.3l-1.7-.3C.9 89.9.8 91 .6 92.2l1.7.2c.2-1.1.3-2.2.5-3.4zm4.1-22.4l1.6.6c.5-1 .9-2.1 1.4-3.2l-1.6-.7c-.5 1.1-1 2.2-1.4 3.3zm-4.2 51.7c-.2-1.1-.3-2.2-.4-3.3l-1.7.2c.1 1.1.3 2.2.4 3.3v.2l1.7-.2v-.2zm16.8-74.9l1.4 1c.7-.9 1.4-1.9 2.1-2.8l-1.4-1.1c-.7 1-1.4 1.9-2.1 2.9zM88.6 2.9l-.3-1.7c-1.2.2-2.3.4-3.5.6l.3 1.7c1.2-.2 2.3-.4 3.5-.6zM30.5 177.6c.8.8 1.7 1.6 2.5 2.4l1.2-1.3c-.8-.8-1.7-1.6-2.5-2.4l-1.2 1.3zm-6-6.5c.8.9 1.5 1.8 2.3 2.7l1.3-1.2c-.8-.9-1.5-1.7-2.3-2.6l-1.3 1.1zM14.6 50.8l1.5.9 1.8-3-1.5-.9c-.5.9-1.1 1.9-1.8 3zm-4.2 7.7l1.6.8c.5-1 1-2.1 1.6-3.1l-1.6-.8c-.5 1-1 2.1-1.6 3.1zm3.9 98.3l1.8 3 1.5-.9-1.8-3-1.5.9zm189.6-81.5c-.3-1.1-.7-2.3-1-3.4l-1.7.5c.4 1.1.7 2.2 1 3.3l1.7-.4zM19.1 164.2c.7 1 1.4 1.9 2.1 2.8l1.4-1.1c-.7-.9-1.4-1.8-2.1-2.8l-1.4 1.1zM28.6 35l-1.3-1.2c-.8.9-1.6 1.7-2.3 2.6l1.3 1.1c.7-.8 1.5-1.7 2.3-2.5zM97.2 2L97.1.3c-1.2.1-2.3.2-3.5.3l.2 1.7c1.1-.1 2.2-.2 3.4-.3zm8.7-.2V0h-3.5v1.8c1.2-.1 2.3-.1 3.5 0zM6.8 72.2l-1.7-.5c-.4 1.1-.7 2.2-1 3.4l1.7.5c.3-1.2.6-2.4 1-3.4zm27.9-43.4l-1.2-1.3c-.9.8-1.7 1.6-2.6 2.4l1.2 1.2c.9-.7 1.7-1.5 2.6-2.3zM4.4 80.5l-1.7-.4c-.3 1.1-.5 2.3-.8 3.5l1.7.3c.3-1.1.6-2.3.8-3.4zM71.7 7l-.6-1.7-3.3 1.2.6 1.6c1.1-.4 2.2-.8 3.3-1.1zM41.3 23.2l-1.1-1.4c-.9.7-1.8 1.5-2.7 2.2l1.1 1.3c.9-.6 1.8-1.4 2.7-2.1zM80.1 4.6l-.4-1.7c-1.1.3-2.3.6-3.4.9l.5 1.7c1-.3 2.1-.6 3.3-.9zm-24.3 9.2l-.8-1.5c-1 .6-2.1 1.1-3.1 1.7l.9 1.5c1-.6 2-1.2 3-1.7zm7.8-3.8l-.7-1.6c-1.1.5-2.2.9-3.2 1.4l.7 1.6c1.1-.4 2.1-.9 3.2-1.4zM114.7.5c-1.2-.1-2.3-.2-3.5-.3l-.1 1.8c1.2.1 2.3.2 3.5.3l.1-1.8zM201.2 67c-.4-1.1-.9-2.2-1.3-3.3l-1.6.7c.4 1.1.9 2.1 1.3 3.2l1.6-.6zM37 183.6c.9.8 1.8 1.5 2.7 2.2l1.1-1.4c-.9-.7-1.8-1.4-2.7-2.2l-1.1 1.4zM177.3 30.3c-.8-.8-1.7-1.6-2.5-2.4l-1.2 1.3c.8.8 1.7 1.6 2.5 2.4l1.2-1.3zm-20.9-16.1c-1-.6-2-1.2-3.1-1.7l-.8 1.5c1 .6 2 1.1 3 1.7l.9-1.5zm14.4 10.1c-.9-.8-1.8-1.5-2.7-2.2l-1.1 1.4c.9.7 1.8 1.4 2.7 2.2l1.1-1.4zm-7-5.4c-1-.7-1.9-1.3-2.9-2l-1 1.5c1 .6 1.9 1.3 2.9 1.9l1-1.4zm-15.2-8.8c-1.1-.5-2.1-1-3.2-1.5l-.7 1.6c1.1.5 2.1.9 3.2 1.4l.7-1.5zm-16.5-6.3c-1.1-.3-2.3-.6-3.4-.9l-.4 1.7c1.1.3 2.2.6 3.4.9l.4-1.7zm-8.7-2c-1.2-.2-2.3-.4-3.5-.6l-.2 1.8c1.1.2 2.3.4 3.4.6l.3-1.8zm17 4.8l-3.3-1.2-.6 1.7 3.3 1.2.6-1.7zM10.2 149c.5 1.1 1 2.1 1.6 3.2l1.6-.8c-.5-1-1.1-2.1-1.6-3.1l-1.6.7zm195.9-50.6c.1 1.2.1 2.3.1 3.5h1.8c0-1.2-.1-2.3-.1-3.5h-1.8zm-33 80.9l1.2 1.3c.9-.8 1.7-1.6 2.6-2.4l-1.2-1.2c-.9.7-1.7 1.5-2.6 2.3zm6.2-6.1l1.3 1.2c.8-.9 1.6-1.7 2.3-2.6l-1.3-1.1c-.8.7-1.6 1.6-2.3 2.5zm5.5-6.7l1.4 1.1c.7-.9 1.4-1.9 2.1-2.8l-1.4-1c-.7.9-1.3 1.8-2.1 2.7zm-5.1-131.2c.8.9 1.5 1.7 2.3 2.6l1.3-1.1c-.8-.9-1.5-1.8-2.3-2.6l-1.3 1.1zm-20.2 154.6l1 1.5c1-.6 2-1.3 2.9-2l-1-1.4c-1 .6-2 1.3-2.9 1.9zm-23.4 11.2l.5 1.7 3.3-1.2-.6-1.6c-1.1.3-2.1.7-3.2 1.1zm15.9-6.8l.8 1.5c1-.6 2.1-1.1 3.1-1.7l-.9-1.5c-1 .6-2 1.1-3 1.7zm14.5-9.4l1.1 1.4c.9-.7 1.8-1.5 2.7-2.2l-1.1-1.3-2.7 2.1zm18.7-143c.7.9 1.4 1.8 2.1 2.8l1.4-1c-.7-1-1.4-1.9-2.1-2.8l-1.4 1zm-41 156.1l.7 1.6c1.1-.5 2.2-.9 3.2-1.4l-.7-1.6c-1.1.5-2.2 1-3.2 1.4zm60.9-78.9l1.7.3c.2-1.2.3-2.3.5-3.5l-1.7-.2c-.2 1.1-.3 2.3-.5 3.4zm-1.6 8.6l1.7.4c.3-1.1.5-2.3.8-3.5l-1.7-.3c-.3 1.1-.6 2.2-.8 3.4zm-2.4 8.3l1.7.5c.4-1.1.7-2.2 1.1-3.4l-1.7-.5c-.4 1.2-.8 2.3-1.1 3.4zm6.3-43c-.1-1.2-.3-2.3-.4-3.5l-.1-.3-1.7.2.1.4c.2 1.2.3 2.3.4 3.4l1.7-.2zm-17.2-44c.6 1 1.2 2 1.8 2.9l1.5-.9-1.8-3-1.5 1zm15.8 61.5l1.7.1c.1-1.2.1-2.3.2-3.5l-1.8-.1c0 1.2 0 2.4-.1 3.5zM194.3 152l1.5.8c.6-1 1.1-2.1 1.6-3.1l-1.6-.8c-.5 1-1 2-1.5 3.1zm.2-95.5c.5 1 1.1 2.1 1.6 3.1l1.6-.8c-.5-1.1-1-2.1-1.6-3.2l-1.6.9zm3.5 87.6l1.6.7c.5-1.1.9-2.2 1.3-3.3l-1.6-.6c-.4 1.1-.8 2.2-1.3 3.2zm-8.1 15.4l1.5.9c.6-1 1.3-2 1.9-3l-1.5-.9c-.7 1-1.3 2-1.9 3zm-96.8 47.9c1.2.1 2.3.2 3.5.3l.1-1.7c-1.2-.1-2.3-.2-3.5-.3l-.1 1.7zm8.8-1.2v1.8h3.5v-1.8c-1.2.1-2.4.1-3.5 0zm8.7-.2l.1 1.7c1.2-.1 2.3-.2 3.5-.3l-.2-1.7c-1.1.2-2.3.3-3.4.3zm8.6-.9l.3 1.7c1.2-.2 2.3-.4 3.5-.6l-.3-1.7c-1.2.2-2.4.4-3.5.6zm8.5-1.6l.4 1.7c1.2-.3 2.3-.6 3.4-.9l-.5-1.7c-1 .3-2.2.6-3.3.9zm-76.3-9.8c1 .6 2 1.2 3.1 1.7l.8-1.5c-1-.6-2-1.1-3-1.7l-.9 1.5zm-7.4-4.8c1 .7 1.9 1.3 2.9 2l1-1.5c-1-.6-1.9-1.3-2.9-2l-1 1.5zm15.2 9c1.1.5 2.1 1 3.2 1.5l.7-1.6c-1.1-.5-2.1-.9-3.2-1.4l-.7 1.5zm25.1 8.2c1.2.2 2.3.4 3.5.6l.3-1.7c-1.1-.2-2.3-.4-3.4-.6l-.4 1.7zm-8.6-2c1.1.3 2.3.6 3.4.9l.4-1.7c-1.1-.3-2.2-.6-3.4-.9l-.4 1.7zM40.5 18.5c0-1.5.6-3 1.7-4.1 1.1-1.1 2.5-1.7 4.1-1.7 1.5 0 3 .6 4.1 1.7 1.1 1.1 1.7 2.5 1.7 4.1 0 3.2-2.6 5.8-5.7 5.8-3.3-.1-5.9-2.6-5.9-5.8zm1.7 0c0 1.1.4 2.1 1.2 2.8.8.8 1.8 1.2 2.8 1.2 1.1 0 2.1-.4 2.8-1.2s1.2-1.8 1.2-2.8c0-1.1-.4-2.1-1.2-2.8-.8-.8-1.8-1.2-2.8-1.2-1.1 0-2.1.4-2.8 1.2-.7.7-1.2 1.7-1.2 2.8zm167.8 64c0 3.2-2.6 5.8-5.7 5.8-3.2 0-5.7-2.6-5.8-5.7 0-1.5.6-3 1.7-4.1 1.1-1.1 2.5-1.7 4.1-1.7 1.5 0 3 .6 4.1 1.7 1 1 1.6 2.4 1.6 4zm-1.8 0c0-1.1-.4-2.1-1.2-2.8-.8-.8-1.8-1.2-2.8-1.2-1.1 0-2.1.4-2.8 1.2-.8.8-1.2 1.8-1.2 2.8 0 1.1.4 2.1 1.2 2.8.8.8 1.8 1.2 2.8 1.2 2.3 0 4.1-1.8 4-4zM74.8 201c0 3.2-2.6 5.8-5.7 5.8-3.2 0-5.7-2.6-5.8-5.7 0-3.2 2.6-5.8 5.7-5.8 3.2-.1 5.8 2.5 5.8 5.7zm-1.7 0c0-2.2-1.8-4-4-4s-4 1.8-4 4 1.8 4 4 4c1.1 0 2.1-.4 2.8-1.2.8-.8 1.2-1.8 1.2-2.8zm71.9-96.9c0 22.6-18.4 41-41 41s-41-18.4-41-41 18.4-41 41-41 41 18.4 41 41zm-62.2-.9c.1-8 1.6-14.4 3.7-19.5H72.6c-3.7 5.6-5.8 12.3-6 19.5h16.2zm1.8 0h18.6V83.8H88.4c-2.2 5.1-3.8 11.5-3.8 19.4zm34-21.2c-1.6-3.2-3.4-5.7-5-7.7-3.4-4.1-6.9-6.5-8.7-7.6V82h13.7zm-13.7 1.8v19.5h18.6c-.1-8-1.8-14.4-4-19.5h-14.6zm-1.8-17.1c-2.7 1.5-9.4 6-13.9 15.3h14l-.1-15.3zM84.6 105c.2 7.9 1.8 14.3 4 19.4h14.5V105H84.6zm4.9 21.1c4.6 9.1 11.1 13.7 13.7 15.2v-15.2H89.5zm15.4 15.1c2.8-1.6 9.2-6.1 13.8-15.1h-13.8v15.1zm14.6-16.8c2.3-5.1 3.8-11.5 4-19.4h-18.6v19.4h14.6zm1.9 0h14.1c3.6-5.6 5.8-12.3 6-19.4h-16.3c-.1 7.9-1.7 14.3-3.8 19.4zm-13.2-57.5c3.5 2.6 8.6 7.4 12.3 15.1h5.8v1.8h-5c2.2 5.2 3.8 11.6 3.9 19.5h16.3c-.5-18.9-14.9-34.4-33.3-36.4zM73.8 82h13.4c1.8-4 4-7 6-9.3 2.2-2.6 4.4-4.4 6.3-5.7-10.6 1.2-19.7 6.9-25.7 15zm26.3 59.4c-3.4-2.5-8.8-7.2-12.6-15.3h-5.8v-1.8h5c-2.2-5.2-3.7-11.6-3.9-19.4H66.6c.4 19 15 34.6 33.5 36.5zm34.2-15.3h-13.7c-1.8 3.8-3.9 6.8-5.8 9.1-2.5 2.9-5 4.9-6.9 6.2 10.8-1.1 20.3-6.9 26.4-15.3zM69.8 68.9L59.9 59l-1.2 1.2 9.9 9.9 1.2-1.2zm-21.1-21l-1.2 1.2 9.9 9.9 1.2-1.2-9.9-9.9zM71.3 73l1.2-1.2-1.5-1.7-1.2 1.2 1.5 1.7zm77.9-12.9l-1.2-1.2-9.9 9.9 1.2 1.2 9.9-9.9zm-11.1 11.2l-1.2-1.2-1.6 1.6 1.2 1.2 1.6-1.6zM160.3 49l-1.2-1.2-9.9 9.9 1.2 1.2 9.9-9.9zM47.6 161.7l-1.2-1.2-9.9 9.9 1.2 1.2 9.9-9.9zM69.9 137l1.2 1.2 1.6-1.6-1.2-1.2-1.6 1.6zm84.7 16.8c1.5-1.5 2.9-3 4.2-4.6l-1.4-1.1c-1.3 1.6-2.7 3.1-4.1 4.5l-3.2-3.2-1.2 1.2 3.2 3.2c-1.4 1.4-2.9 2.7-4.5 4l1.1 1.4c1.6-1.3 3.1-2.7 4.6-4.1l5.5 5.5 1.2-1.2-5.4-5.6zm5.5 7.9l9.9 9.9 1.2-1.2-9.9-9.9-1.2 1.2zM135 136.6l1.6 1.6 1.2-1.2-1.6-1.6-1.2 1.2z"/>
</svg>
