<svg width="31" height="39" viewBox="0 4 31 39" xmlns="http://www.w3.org/2000/svg">
    <path d="M6.38 34.95h1.01V42H6.25v-4.66l-1.86 3.52h-.86l-1.87-3.47.01 4.61H.53v-7.05h1.02l2.42 4.61 2.41-4.61zM9.72 42v-7.05h4.72v1.02h-3.46v1.94h3.26v1.01h-3.26v2.06h3.46V42H9.72zm11.43-7.05h1.21V42h-.97l-3.78-4.92V42h-1.2v-7.05h.96l3.78 4.91v-4.91zm4.24 6.39c-.5-.5-.75-1.23-.75-2.19v-4.2h1.26v4.27c0 .607.143 1.065.43 1.375.287.31.707.465 1.26.465.547 0 .963-.157 1.25-.47.287-.313.43-.77.43-1.37v-4.27h1.26v4.2c0 .953-.25 1.682-.75 2.185-.5.503-1.23.755-2.19.755-.967 0-1.7-.25-2.2-.75zM0 4l18.302.002L17.477 7H0m0 15l24.302.002L23.477 25H0m0-12l29.302.002L28.477 16H0" fill-rule="evenodd"/>
</svg>
