<svg id="Layer_1" data-name="Layer 1" xmlns="http://www.w3.org/2000/svg" viewBox="0 0 101.5 68.15"><defs><style>.cls-5{fill:none;stroke:#7f8bfc;stroke-linecap:round;stroke-linejoin:round;stroke-width:1.5px}</style></defs><path fill="#ffe6e8" d="M100.75.75V67.4H1.04V.9l99.57-.15h.14z"/><path transform="rotate(-45 50.751 41.938)" fill="#ff4f5e" d="M45.08 36.26h11.34V47.6H45.08z"/><path fill="#bf3b47" d="M66.79 33.91l-8.02 8.02-8.02-8.02L58.66 26l.11-.11 8.02 8.02z"/><path fill="#ff727e" d="M50.75 33.91l-8.02 8.02-7.96-7.96-.06-.06 8.02-8.02.11.12 7.91 7.9z"/><path class="cls-5" d="M100.61.75l.14 66.65H.75V.9l33.91 33.18.11-.11-.06-.06 8.02-8.02.11.12 7.91 7.9L58.66 26l.11-.11 8.02 8.02-.06.06.11.11L100.61.75z"/><path class="cls-5" d="M100.61 67.4H.9l.14-.14 33.62-33.18.11-.11 8.07-7.96 7.91 7.9L58.66 26l8.07 7.97.11.11 33.77 33.32z"/><path class="cls-5" d="M100.61.75L66.84 34.08l-.11-.11.06-.06-8.02-8.02-.11.11-7.91 7.91-7.91-7.9-.11-.12-8.02 8.02.06.06-.11.11L1.04.9.9.75h99.71z"/><path class="cls-5" d="M66.84 34.08L50.75 49.95 34.66 34.08l.11-.11-.06-.06 8.02-8.02.11.12 7.91 7.9L58.66 26l.11-.11 8.02 8.02-.06.06.11.11z"/></svg>