<svg width="16" height="16" xmlns="http://www.w3.org/2000/svg"><path d="M13.353 5.896c0-.12 0-.24-.008-.359a5.683 5.683 0 001.408-1.438 5.689 5.689 0 01-1.62.437A2.799 2.799 0 0014.372 3a5.71 5.71 0 01-1.792.674 2.856 2.856 0 00-3.992-.12 2.754 2.754 0 00-.817 2.654 8.057 8.057 0 01-5.815-2.902 2.754 2.754 0 00.874 3.708 2.834 2.834 0 01-1.28-.348v.035c0 1.323.947 2.461 2.263 2.723a2.85 2.85 0 01-1.274.048 2.82 2.82 0 002.636 1.93A5.718 5.718 0 011 12.551a8.082 8.082 0 004.325 1.246c5.19.002 8.028-4.23 8.028-7.902z" fill="#0d10bf" fill-rule="evenodd"/></svg>