<svg width="16" height="16" viewBox="0 0 16 16" fill="none" xmlns="http://www.w3.org/2000/svg">
<path d="M8.01168 1.25485e-05C12.42 0.00645118 15.9796 3.58665 15.9683 8.00613C15.9587 12.4166 12.3898 15.9772 7.98662 15.971C3.57826 15.963 0.0200316 12.3828 0.0312766 7.96331C0.03963 3.55349 3.60847 -0.00771381 8.01168 1.25485e-05Z" fill="#F1B846"/>
<path fill-rule="evenodd" clip-rule="evenodd" d="M9.46473 9.73145C9.76574 10.2275 9.93089 10.7731 10.0304 11.3379C10.1334 11.9252 10.1682 12.516 10.049 13.1072C9.99048 13.432 9.80241 13.7193 9.52783 13.9033C8.64638 14.5109 7.74079 14.6002 6.78015 14.0813C6.25637 13.7986 5.97113 13.3832 5.93154 12.7962C5.86168 11.7681 6.02393 10.7837 6.49363 9.85835C6.5152 9.81562 6.54288 9.7761 6.56767 9.7353C6.615 9.7443 6.662 9.75747 6.70965 9.76261C7.62779 9.86221 8.54659 9.86606 9.46473 9.73145Z" fill="#010100"/>
<path fill-rule="evenodd" clip-rule="evenodd" d="M4.7672 7.71427C4.24963 7.71533 3.82919 7.29747 3.82813 6.78094C3.82706 6.26441 4.24577 5.84482 4.76334 5.84375C5.2809 5.84269 5.70134 6.26055 5.70241 6.77708C5.70518 7.02581 5.60766 7.26521 5.43179 7.44146C5.25591 7.6177 5.01643 7.71601 4.7672 7.71427Z" fill="#020100"/>
<path fill-rule="evenodd" clip-rule="evenodd" d="M11.2109 5.8439C11.7284 5.84836 12.1443 6.27067 12.1399 6.78717C12.1354 7.30367 11.7123 7.71878 11.1947 7.71435C10.6772 7.70992 10.2612 7.28763 10.2657 6.77113C10.2654 6.52235 10.3655 6.28393 10.5433 6.10954C10.721 5.93514 10.9616 5.83942 11.2109 5.8439Z" fill="#020100"/>
<path fill-rule="evenodd" clip-rule="evenodd" d="M9.46347 9.73067C8.54661 9.86529 7.62846 9.86143 6.70838 9.7628C6.66073 9.75766 6.61373 9.74449 6.56641 9.73549C6.79852 9.32264 7.0918 8.97051 7.52834 8.7575C7.85284 8.59943 8.17478 8.59686 8.4996 8.75525C8.9355 8.96666 9.22942 9.31718 9.46347 9.73067Z" fill="#FEFEFD"/>
<path fill-rule="evenodd" clip-rule="evenodd" d="M2.69835 8.9992C2.35389 9.00691 2.0825 8.91855 1.91316 8.63775C1.78053 8.41831 1.81369 8.21012 1.98946 8.02249C2.29401 7.69703 2.95525 7.67422 3.27944 7.97847C3.58141 8.26185 3.53312 8.66442 3.17224 8.87422C3.01578 8.96385 2.85063 9.01879 2.69835 8.9992Z" fill="#E49C9B"/>
<path fill-rule="evenodd" clip-rule="evenodd" d="M13.312 7.77466C13.5198 7.75801 13.7263 7.81904 13.8915 7.9459C14.1874 8.16405 14.2089 8.54349 13.9388 8.78734C13.5912 9.10124 12.9611 9.08036 12.6373 8.74429C12.4354 8.53481 12.4361 8.23634 12.6389 8.02654C12.8116 7.84231 13.0606 7.74914 13.312 7.77466Z" fill="#E49C9B"/>
<path fill-rule="evenodd" clip-rule="evenodd" d="M2.49169 4.08518C2.3494 4.08294 2.26634 4.02735 2.21773 3.91844C2.16912 3.80952 2.19584 3.70864 2.27471 3.62286C2.3054 3.59313 2.33968 3.56734 2.37676 3.54607C3.02385 3.13654 3.67018 2.72722 4.31576 2.31812C4.32928 2.30944 4.34248 2.30045 4.35664 2.29241C4.50795 2.20695 4.67181 2.23715 4.75391 2.36567C4.8389 2.49932 4.80316 2.65707 4.65507 2.75442C4.44517 2.8929 4.23045 3.02398 4.01797 3.1586L2.68936 4.00036C2.62175 4.0431 2.55672 4.09354 2.49169 4.08518Z" fill="#040301"/>
<path fill-rule="evenodd" clip-rule="evenodd" d="M13.3079 4.08661C13.2648 4.09079 13.2049 4.05705 13.145 4.01914C12.49 3.60383 11.8348 3.18862 11.1793 2.77352C11.0071 2.66396 10.961 2.51103 11.0505 2.36806C11.14 2.22508 11.3042 2.20356 11.4735 2.31022C12.1341 2.72682 12.7942 3.14449 13.4537 3.56324C13.5738 3.63938 13.6401 3.74123 13.5986 3.88645C13.5619 4.01368 13.4727 4.08083 13.3079 4.08661Z" fill="#040301"/>
</svg>
