<svg width="15" height="14" viewBox="0 0 15 14" fill="none" xmlns="http://www.w3.org/2000/svg">
<path fill-rule="evenodd" clip-rule="evenodd" d="M-0.000234604 6.25917C-0.000234604 5.47984 0.629766 4.85264 1.41258 4.85264H5.29195C5.59852 4.85264 5.81883 4.58197 5.76727 4.27677C5.76727 4.27677 4.59352 1.38064 4.59352 1.00824C4.59352 0.634906 4.73039 0.381039 5.03602 0.312906C5.34258 0.245706 5.97164 0.110372 5.97164 0.110372C6.24445 0.0590391 6.44883 0.110372 6.58383 0.245706L10.8888 4.56517C11.1448 4.81904 11.3145 5.17464 11.3145 5.56477V13.458C11.3145 13.7632 11.0595 14.0002 10.7698 14.0002H3.53883C2.96039 14.0002 2.55258 13.5933 2.24602 13.136L0.289454 10.5618C0.170391 10.4088 0.0175781 10.07 0.0175781 9.76571V6.32637L-0.000234604 6.25917Z" fill="#00C2C2"/>
<path fill-rule="evenodd" clip-rule="evenodd" d="M14.3709 14.0001H13.005C12.6656 14.0001 12.3759 13.7116 12.3759 13.3738V5.83525C12.3759 5.49645 12.6656 5.20898 13.005 5.20898H14.3709C14.7103 5.20898 15 5.49645 15 5.83525V13.3738C15 13.7116 14.7281 14.0001 14.3709 14.0001Z" fill="#00C2C2"/>
</svg>
