<svg width="44" height="34" fill="none" xmlns="http://www.w3.org/2000/svg" aria-hidden="true">
  <path d="m17.5 3.1-2.9 11.6c2 .4 3.4 1.267 4.2 2.6.867 1.333 1.3 3.433 1.3 6.3 0 3.733-.733 6.3-2.2 7.7-1.4 1.4-3.967 2.1-7.7 2.1s-6.3-.7-7.7-2.1c-1.333-1.4-2-3.967-2-7.7.067-2.333.267-4.033.6-5.1.333-1.133 1.167-3.033 2.5-5.7L9.7.5l7.8 2.6Zm23.1 0-2.9 11.6c2 .4 3.4 1.267 4.2 2.6.867 1.333 1.3 3.433 1.3 6.3 0 3.733-.733 6.3-2.2 7.7-1.4 1.4-3.967 2.1-7.7 2.1s-6.3-.7-7.7-2.1c-1.333-1.4-2-3.967-2-7.7.067-2.333.267-4.033.6-5.1.333-1.133 1.167-3.033 2.5-5.7L32.8.5l7.8 2.6Z" fill="#000"/>
</svg>
