<svg fill="none" height="114" viewBox="0 0 279 114" width="279" xmlns="http://www.w3.org/2000/svg"><path d="m206.921 40.355c9.088 28.7149-10.09 64.51-39.603 71.877-1.043.308-2.049.555-3.021.743-3.823.64-3.792.21-4.844.229-3.196-.163-5.356-.599-7.525-2.012-5.569-3.919-5.905-10.555-5.388-15.3804.595-5.052 2.23-9.6525 4.369-14.1278 4.748-8.9666 3.12-4.3147 5.043-7.2795 3.99-5.3829.104-1.1224 1.473-3.4187 4.587-6.3365 10.135-11.9828 16.24-16.7962-1.431 1.2535-2.795 2.5243-4.181 3.8916 2.545-2.3242 6.305-5.1877 2.158-1.4466.967-.7595 1.9-1.4463 2.939-2.2014.075-.5017 4.836-4.0493 5.231-4.47.345-.4613-2.396 1.4993-2.375 1.4829-.104-.5037 11.908-7.532 12.884-7.6907 2.396-1.0992.473.2375 2.492-.7443 3.496-1.6026.82-1.3186 6.025-2.3167 1.841-1.0329 2.053-.9406 4.525-1.7279.327-.1018.016-.1994.159-.25 3.751-1.2983.933-.0724.96-.0612.426.1798 4.496-1.1072 5.345-1.2541 10.955-2.1458 19.212-2.5306 30.87-1.7058 2.427.1218 10.211 1.012 12.518 1.5652 2.36.5028 1.044.4878 2.265.845 2.141-.1169 4.008.1926 8.282 1.7269 1.743.0676 1.458.3032 4.623 1.1874 2.508.6938 7.117 1.7805 9.829 3.2988-3.244-1.2793-2.984-.9803-6.625-2.109-1.058-.4934-14.015-4.0264-13.081-3.2441.429.3013 4.675 1.1726 4.839 1.2758.891.4864-1.55.1008-3.583-.4899.525.0788 1.157.1875 1.726.2852-4.608-1.4332-1.546.4431-5.017-1.3354-.43-.2136-.228-.2996-.952-.579-.164.0197.725.3364-.068.1965-.809-.1447-2.278-.6746-2.54-.5086-.395.2268 2.931.7489 3.185.8328.003-.0012.006-.0024.009-.0037 2.183.6259-2.446-.3293-2.659-.3189-1.444-.0731-.516.2345-2.639.0304-1.167-.1156-4.319-.6153-5.471-.7092-1.145-.1026.615.2453-.157.1867-.771-.0587-1.711-.2674-2.605-.3133-.382-.019-.376.1425-.561.1319-1.975-.0992-.637-.3312-2.451-.436-1.217-.0823-5.185.1005-2.458.2884-1.316-.021-2.586-.0247-3.866-.0034.807.0498 1.646.0948 2.443.1723-2.448-.1345-3.471.157-5.034.2073-1.548.0571-2.941-.2101-4.596.0649-3.541.5756 5.31-.153 6.41.0063.416.0206-1.177.2898-1.455.3062-1.144.0529-2.489-.0774-3.354-.0214-3.082.2082-4.934.6319-7.867 1.0744-9.936 1.4147-21.765 5.4903-29.969 10.1479-3.12 1.727-4.988 2.6201-6.326 3.499-3.105 2.104-3.252 2.524-5.833 4.5293-3.749 2.9029-8.819 7.5179-11.412 10.5005-1.882 2.1012-3.179 4.202-3.603 4.7804-5.996 7.9328-11.23 19.4763-10.638 26.9749.236 3.3863.929 4.6473 1.227 5.1703.729 1.041 1.176 1.233 1.505 1.436.364.187.591.343 1.542.752 1.077.403 1.241.581 1.405.636 1.488.301 1.776-.013 2.975-.067 1.792-.14 3.15-.429 5.007-.962 5.747-1.688 11.165-4.163 16.035-7.6635.458-.3307.489-.2032.779-.4271 1.225-.9766.533-.6747 1.799-1.7249 2.587-2.1884 5.093-4.6816 7.356-7.4957.224-.2806.451-.3086.948-.9648.493-.6601.74-1.2454 1.473-2.3128 1.894-2.7768 3.672-5.6427 5.098-8.9428.235-.5482.34-1.3004.658-2.126 1.033-2.6009 2.316-6.5349 2.771-8.9049 1.56-7.7616 1.405-15.2381-.443-22.3079-.443-1.6701-.781-3.1276-1.11-3.9711-.758-1.8496-.299-.3935-1.151-2.227-2.366-4.8969-6.163-9.0408-11.032-10.9479-10.667-4.3265-22.311-5.8994-33.698-3.8793-6.722 1.0827-14.628 3.962-20.757 6.619-2.56 1.103-3.108 1.1162-4.896 1.9595-3.186 1.5375-3.614 2.0864-6.909 3.844-2.195 1.1801-4.728 2.3384-7.092 3.6076-.453.2428-.895.4933-1.32.7514-2.558 1.5859-3.56 2.5952-6.252 4.7291-2.214 1.7617-5.222 4.3596-7.269 6.674-5.195 5.8187-9.3768 12.6727-11.2245 19.9387-1.9647 7.1919-.3716 15.0719 6.3259 16.4783 10.0646.9611 22.1256-8.8359 30.7406-17.6287 7.003-7.343 13.518-16.9448 16.256-26.8126.233-.9266.239.5642.765-2.4477.228-1.6454.389-3.9519.079-7.6248-.758-11.3588-10.697-19.9629-22.057-24.47081-10.986-4.63622-23.4744-5.21664-34.9953-2.71106-35.4869 8.41137-63.1771 36.93127-85.03676 59.26637-1.041877 1.1079-1.092793.0421-.677009-.8073.637879-.5842 1.292609-1.1364 1.983309-1.7353.03489-1.401.08987-1.1696 2.88483-4.3259 1.76404-1.9628.10311-.6141.95243-1.7468 1.02229-1.4471 6.5787-8.0038 5.8634-6.3893.2882-.4462.5554-.8618.8435-1.2996 4.2271-4.4932 8.474-8.7322 12.9105-12.8387.7679-.709.6911-.8807 1.4904-1.6059 2.1415-1.9362 4.0008-3.3193 6.3302-5.1878 1.2769-1.0166 1.3151-1.3146 3.0189-2.5948 1.7128-1.2704 1.8314-1.0202 4.0067-2.9648-1.7565.7999 5.2924-3.8683 7.8535-5.4395.3603-.2408 3.2417-2.3979 4.9168-3.3123 1.6735-.9309 4.3003-2.1654 6.8934-3.6027 1.2163-.6732 1.8597-1.263 3.2162-1.91711.9552-.45888 2.201-.78466 3.4271-1.30326 1.2237-.53017 3.8512-1.76968 4.3468-1.95172 1.7883-.68403-.1397.20094 1.0942-.24954 5.9366-2.17766 13.1159-3.9569 19.335-4.776621.7653-.103347-.3174-.157683-.2167-.175045 5.2011-.7742078 2.4358-.229282 3.8594-.193489 1.3766-.144817 11.3972.094315 11.5082-.025579.265.416004 2.524.411374 3.099.505534 2.242.34443 1.746.59596 3.907.96841.789.14608-.68-.43525.159-.23224 2.076.5141 3.856 1.39099 6.496 2.38138.632.24274.902.16591 2.008.60941.015.0064.031.0129.047.01951 1.26.45897 5.686 2.81034 3.75 1.49574 2.53 1.55895 3.384 1.80741 6.331 3.70335.798.53467 1.66 1.43397 3.193 2.56137.506.3782.685.1839 1.462.8609 1.738 1.5476 3.101 3.3184 4.775 5.6706 3.219 4.4548 5.298 10.3428 5.191 16.0999-.041 1.5545-.256 1.1852-.45 3.3986-.012.3187-.155 3.0535-.544 4.5432-.153.9421-1.725 5.4765-2.142 6.3426-.596 1.4642-.493 1.8231-.891 2.6083-1.191 2.2344-.628.2401-1.54 3.1743-.706.7686-1.537 2.3024-2.122 2.6136-.195 1.0723-1.189 2.0272-2.178 3.7347-.995 1.7143-1.385 3.4543-2.301 3.3716-.455.8119-2.804 3.9899-3.244 4.4887-1.256 1.5047-.732.5737-1.694 1.6973-.172.1945.128.1006-1.019 1.3142-.687.8612-6.527 6.407-6.953 6.6306-4.348 3.3667 2.188-2.0147 2.88-3.0197.182-.115.358-.2251.547-.3484 1.77-1.6296.556-.9046-.277-.2093-.836.7044-2.249 2.1972-2.997 2.6994-.373.2504-.425-.2245.614-1.0911-1.16.8731.224-.5417-.28-.2463-.496.3634-5.557 4.4559-5.498 4.6117.989-.7334 2.159-1.6738 3.108-2.4559 1.49-.768-1.412 3.5216-5.538 5.6435-2.989 1.4552 1.544-1.6045-5.011 2.6411 1.047-.5564 1.925-1.0332 2.881-1.6098.252.1868-1.447.8598-2.177 1.3675-.357.2592 2.072-.9032.085.3158-1.993.6186-3.166 1.7723-6.372 2.9866.861-.3906 1.7-.8139 2.564-1.2861-5.441 2.0079 6.815-3.3162-3.544.797 1.324-.4608 2.458-.9239 3.721-1.5331-.652.1356.099-.7019-.462-.5451-1.497.4286-3.495 1.3736-5.215 1.7876-.785.1877-.329-.051-.394-.0348-1.081.2327-.81.3544-1.725.5145-.9589.2039-3.454.1251-4.4871-.2688-.2701-.08-.4671-.1439-.5684-.1715-1.0507-.3111-.049.268.4769.513.1419.0719.2374.1171.205.1158-.0722-.0036-.1493-.0113-.2299-.0229-1.0304-.1292-2.4619-.8784-2.465-.6701.6565.2859 1.4522.5817 2.4212.8334 2.7545.7492 6.1793-.0528 7.5733-.3826 1.347-.4553 1.118.3214-4.1807 1.1268 1.8037.0421 2.3627.0681 1.9797.3292-.3844.2011-1.8929.7802-4.6472.4393-.4272-.0633-.7788-.1422-1.0711-.2213-2.7051-.868-.6244-.3288-2.4458-1.2941-.1207-.0698-1.4878-.7457-2.649-1.7325-1.1807-.9581-2.0922-2.2039-2.234-2.2792.3901-.0246-.3175-1.6919.6306-.8887.0981.1466 1.494 1.814 1.217 1.0452-.157-.3724-.5096-1.3917-.2542-1.3636-.3422-.2599-.7022-.5636-1.0258-.878-1.3957-2.8001-1.152-3.4263-1.1894-5.0985-.0859.0796-.3283 1.745-.466-.7073.0048-.1268.118-.231.1777-1.4792.202-2.4805.3705-2.9595.6682-1.0596.2043-5.0534 1.0823-6.0875 2.8468-10.9914-.8801.7272-1.717 2.5199-2.6122 7.253-.1737.1806-.3245.2531-.498.4433 1.7504-6.2626.9959-3.1254 1.9168-6.704.1965-.8893 2.3868-5.2211 1.3321-3.9362-.2765.2909-1.5043 3.0678-1.484 2.6971-.0328-.0833 1.4743-3.4693 1.6945-3.7303 2.4579-3.2864-1.2361 2.9316 4.7562-6.4632.1775-.2504.1051-.4369.4515-.9349.6609-.9367.8136-.8146 1.4159-1.6318.6092-.8194 1.3165-2.053 2.5382-3.0141 2.2072-1.7166-2.09 3.1799-3.9195 5.432-.1104.6463 2.8273-3.2535 6.5867-6.8003 3.696-3.6058 8.206-6.7309 8.724-7.0897 4.54-3.2445-3.141 1.9661-3.528 2.2558-.191.0734-.672-.6762-2.14 1.2653-.429.5674 1.945-1.1192.669.0522-1.271 1.1892-.905.5592-1.014.6261-.374.2338-1.678 1.5391-1.876 1.6856-3.0146 2.1987-3.4059 1.3169 1.037-1.152 1.419-1.6315-2.539 1.3405-.678-.5895 2.302-2.3616 4.488-3.4549 4.819-3.6826 4.152-2.6546-.89.0444 4.266-3.0862 2.863-1.6127-3.852 2.7447 2.129-.8571.104-.0589.211-.1198.321-.1829 5.587-3.1469 2.473-1.6322 2.66-2.254.047-.1452 3.076-1.9521-1.112.3989-.061.1673-.208.4251-.42.6668-.494.2296-1.19.4507-1.853.6545-.768.2359-1.481.4596-1.776.625-2.678 1.5407-2.357 1.7385-4.061 2.484 1.292-.4324-.584.5947-1.159 1.1408-2.123 2.0636.888-.3538-4.376 3.6282.759-.4352 1.468-.8089 2.22-1.1969-.6.5067-1.195 1.0286-1.772 1.5543-1.158.4598-4.1259 3.4485-1.673.5063-3.4058 3.0922-4.4835 4.6537-4.8974 5.601-.0774.1857-.5028.7315-.9968 1.3648.1637-.0644.498-.0452.4454.0742-.4681 1.0459-1.9197 2.1691-1.7197 1.5698-.3425.4486-.6074.8038-.7016.9286-.603.8021.3871-.9005-.1307-.2753-.1892.2014-1.7238 2.5693-1.8039 2.5934-.4972.0832 1.9943-3.8851-2.8469 4.2141.2414.3567 2.274-3.4849 2.1149-2.2857-.2046 1.2643-1.8741 3.1226-1.5657 3.8619-.1703.1347-.2792.1786-.449.2848-1.3005 3.5298-1.6628 3.4471-2.1608 4.5027-1.215 2.0218-2.5828 12.3916-.6697 3.2483-.2675 1.3242-.4828 2.6988-.569 4.043-.4461.1157-.5702-.0363-.6564.6267-.0392.6714-.2674 2.1095.2649 5.4742.2896 1.4578.085 2.0998 1.0951 3.2921-.2425-.0027.1428 1.0184.8184 2.0016.6537.987 1.5998 1.8503 1.7369 2.0094.9496 1.0313-.7918.0915-2.2115-1.9604-1.4676-2.0314-2.0459-4.9637-1.7443-5.6544-.5594-1.6075-.1628-1.6573-.2607-3.5079-.0142-2.6422-.0613-3.0667.8368-6.0527.1472-1.5215-.6525 1.3479-.902 3.6262-.2021 2.265-.4308 3.8125-.3285-.8986-.8613-6.3798 10.6104-29.935 28.8462-39.2898 9.038-5.2511 17.35-9.2155 21.334-10.8559 20.353-8.2594 33.934-9.5089 53.126-3.3091.5.1735 1.796.6228 3.418 1.2711 5.378 1.764 10.754 8.3575 8.791 6.6922-.285-.4316-5.549-4.7527-1.458-.5976-.675-1.0057 1.837 1.3423 1.996 1.5832 4.173 5.0149 2.934 1.5938 6.703 11.139zm-3.78 28.4449c2.434-11.891.434-3.1925.158-5.7686-.219 1.5154-.499 3.0135-.842 4.5077.135-.383.264-.7619.39-1.1468.001-.0017.001-.0034.001-.0051.116.7919.213 1.6028.293 2.4128zm36.072-30.7243c-.491.0673-.973.1384-1.497.2088-1.623-.1059-3.22-.1721-4.804-.2017.189-.0659.372-.132.562-.1968 1.883.0128 3.79.0781 5.739.1897zm-144.648 17.7604c-1.5046 1.7476-1.0179 1.8203-2.7245 4.3213.4928-.1521.9989-.334 1.4943-.4801 1.1287-1.9605 1.2998-2.4741 2.8086-4.4265-.2615.164-.526.3349-.7815.4968-.2184.3501-.4498.7333-.6551 1.0759-.6401.3441 1.6223-2.9517-.1378-.9944-.0014.0023-.0027.0047-.004.007zm-7.6866 21.4635c-.2131 1.1969.667 5.8165 1.2605 6.229.6842.8195-.5049-1.5437-.7145-3.309-.1414-.8539-.1718-1.5257-.1185-1.3663.0838.1457.1128 1.1774.9354 3.2944.0521-.0622.1305-.0462.1957-.0695-.5182-1.5308-.7396-3.212-.7353-4.929-.2748.0969-.5478.0366-.8233.1504zm107.3916-48.7639c-.702-.6352-3.092-2.1778-5.05-2.7869-1.85-.6302-3.067-.9062-1.838-.3044.269.1339.921.3396 1.722.5957 1.384.4107 3.134 1.2056 3.892 1.7628.747.5547-.219.1146 1.269 1.1683.007-.1356.045-.2612.001-.4381.001.0008.003.0017.004.0026zm3.523 1.342c-1.37-1.4395-2.945-2.7129-4.651-3.7331 1.102.9618 3.341 2.701 3.158 3.1203-.399-.3444-.814-.6778-1.239-.9938-.255-.3265-.516-.6429-.787-.9526-1.505-.768-.656-.2273-3.339-1.7344 1.336 1.4741 1.61 1.4756 5.765 4.659-.934-.4474-.962.8138 1.33 2.5553.444.3364-.857-1.4822-.873-1.4978-.014-.4473.929.3942.892-.0578-.005-.2096-.948-1.2706-.984-1.5301-.008-.1357 1.088.7204.728.165zm1.255 3.9039c-.464-.3865.331 1.4662 1.162 2.9409 1.303 2.3616-.189-1.6551-1.162-2.9409zm40.176 4.2944c-.004-.0001-.007-.0002-.011-.0003.002-.0002.004-.0005.006-.0007.001.0003.003.0007.005.001zm-151.4528 33.1552c-.2014 1.4103-.4666 3.4514-.2145 3.3244-.1161.651-.207 1.3392-.2647 1.9987.0686-.0049.1376-.0159.2055-.0206.0861-1.9909.4513-3.9912.9973-5.9456-.2413.2032-.477.3903-.7236.6431zm7.3489 17.8392c.0616.0179.1209.0346.1778.05 1.9937.4051.2538-.2294.7609-.2832.4941-.002 2.559.0695 2.3155-.1573-1.0053.0698-2.0497.0023-2.8955-.2347-.3846-.1053-.7505-.2235-1.0968-.3527.2615.3438.4442.6528.743.9793-.0016-.0005-.0033-.001-.0049-.0014zm77.5709 16.3017c1.623-.678 1.135-.112 4.11-2-.002.002-.004.003-.007.004-3.038 1.465-7.021 2.973-10.529 4.217 2.268-.443 3.802-1.192 6.426-2.221zm-73.7182-54.0592c.348-.7071-2.0609 1.8932-2.3679 2.6289-.5429 1.1614 1.8081-1.6 2.3679-2.6289zm69.1382 10.8913c1.606-2.3573-2.801.8275-6.154 5.3822-.307.3882 2.21-2.2917 1.59-1.3888-.07.0894-1.375 1.6152-1.614 2.0478-.244.4314.221.1493-.215.8209-.755 1.1395-2.868 3.5944-3.288 4.56-.063.1257 1.265-1.3392 1.352-1.4329 1.335-1.5964 2.235-3.229 2.444-3.4915 1.005-1.2531 1.058-.8991 1.364-1.1739.59-.528 1.376-1.591 1.446-1.6542 1.766-1.6483-1.941 2.4305-2.311 3.1106-1.045 1.7427.249.3295-2.491 4.3129-.263.3828-3.325 4.8061.795-.618-6.996 11.3218 3.955-5.3667 5.795-6.7445.634-.7794-.574.174-.244-.3487.745-1.1984 2.436-2.967 2.028-3.0537-.864-.2033-2.764 2.4498-4.242 3.9823.026-.276-.036-.4448.125-.8651-.305.6157 3.459-3.2843 3.621-3.4444-.001-.0004-.001-.0007-.001-.001zm-17.133 29.2735c-.917 2.8862-.414 2.7233-.972 5.4202.248 2.4202.574-2.2885.788-2.7833.621-2.5176 1.026-2.2144 1.657-4.7483-.536.7725-1.002 1.3873-1.473 2.1114zm12.627-22.7628c-1.102 1.7183 1.198-1.0875 1.35-1.1668 1.314-.9274-5.468 7.3919-1.35 1.1668zm20.685-45.8654c-.986-.321-.425.0876-1.312-.1062-.878-.2087-3.845-1.1514-3.809-.9827.071.1356 5.429 1.8967-.076.5884.169.1212.092.1645.166.2558 1.505.356 3.017.7732 4.499 1.2342-.753-.4733-1.511-.9441-2.262-1.3764.907.056 1.308.4212 1.354.4337 0-.0002 0-.0004 0-.0007 1.576.4388 3.634.7015 1.44-.0461zm8.323 67.8091c.26.5993 1.258-1.6941 1.749-2.5318.518-.838 1.436-1.8509.951-1.5634-.996 1.2476-2.707 4.0302-2.699 4.0956 0-.0001-.001-.0003-.001-.0004zm-40.258 16.0285c.817.832 1.27 1.033 1.736 1.319.464.248.925.602 2.299 1.112-.059-.161-.123-.328-.186-.491-1.056-.364-1.49-.537-1.982-.75-.49-.243-1.054-.534-1.788-1.561-.208-.355.488.217-.556-1.281.112.558.261 1.117.477 1.652zm10.832 2.139c-1.198.249-2.638.625-2.837.842-.298.203.62.458 3.085-.244.741-.223 1.77-1.034-.248-.598zm40.024-68.7968c-1.814-4.6207.19.6694.314 1.948-4.203-10.5853.745 1.126.13 2.4701.491 1.3035 1.32 3.8225.862.9399-.222-1.205-.295-.7272-.309-.8001-.499-2.1549-.142-2.0151-.997-4.5579zm-50.635 46.4928c-.059.1753.223-.0226.049.536-.176.5562-.729 1.736-.663 1.9259.072.1143 1.02-2.2793 1.281-3.0884.243-.8016-.108-.9701-.667.6265zm-1.984 18.261c.603 1.087.605.615.462-.13-.121-.706-.251-1.769-.308-2.023-.469-2.152-.48-1.612-.486-.553.018 1.163.448 2.727.332 2.706zm56.187-53.6223c-1.068-6.0393-1.001-1.4917-1.23 2.2415.095.4893.184.9963.264 1.4882-.558-2.2519-.972-6.1117-.554 2.561.191-4.7494.264-.7734.283-.7376.94.563.303-6.6039 1.238-5.5476 0-.0018 0-.0036-.001-.0055zm-50.553 28.2053c1.178-2.2835 4.946-7.9134 2.841-5.5308-1.003 1.7638-2.006 3.6914-2.841 5.5308zm-30.03-49.8366c-2.019.7606-3.804 1.6772-6.134 2.9335 2.252-.8439.884-.0811.209.364-1.023.6735 1.577-.7199 1.598-.7028.085.2915-1.561 1.1846 2.242-.7855-.888.5676-1.784 1.149-2.665 1.7293 2.899-1.5072 3.682-1.6771 5.626-2.3789-2.044.3769.474-.4912 2.522-1.7634 1.026-.6406-2.36.202-3.405.6074.002-.0012.005-.0024.007-.0036zm79.773 15.3361c-.236-.6012-.507-1.1302-.773-1.6838-.176-.6256-.375-1.2839-.584-1.9092.062-.1055.132-.1998.185-.3182-.248-.8416-.263-.4751-.357-.7169.001-.0002.001-.0003.001-.0005-1.439-3.4768-2.117-4.794-3.461-7.4663-.233.1527-.467.3053-.7.4579.375.5235.739 1.0735 1.082 1.631.298.223.594.456.888.696.275.707.534 1.4433.754 2.1545.29.5269.614 1.1821.849 1.6605.338 3.0833-1.628-3.4649-2.088-3.3211-.056.0129 2.444 6.2751 2.681 7.2602.051.1355.258-1.4479.57 1.0525.03.4013-1.103.7823.339 3.2197.198.3551.785-1.0814.614-2.7163zm-13.763-20.8726c1.36 1.15-.159.2416-2.077-.5369-2.457-.9991-5.4-2.0898-2.19-.572-1.789-.2462-1.457-.1408.078.7651.134.0787-1.033-.2368-.945-.1899.895.4324 1.927.8348 2.593 1.166.429.2138.684.4001.636.5206.404.1598.778.3225 1.17.5066-1.489-1.0851 1.211-.0177 2.305.461.506.194-.489-.5062-.06-.3487.171.0454 1.51 1.1036 1.622 1.0739.261-.0917-.348-1.0723-1.878-2.2085 0-.0002 0-.0004 0-.0006-.415-.2297-.827-.4362-1.254-.6366zm-3.804 73.7841c-.797.1048-2.78 1.8053.749-1.7949-.239.1119-.483.2274-.724.3355-.611.5924-1.205 1.1425-1.848 1.7082-1.104 2.7532-5.916 4.2842-2.883 3.2662.332-.111 1.878-1.4299.445-.002.002-.002.004-.003.007-.005 2.172-1.7573 2.352-2.1352 4.254-3.508zm11.179-14.9833c1.052-3.0897-.03-1.1183-1.333 1.212-1.303 2.3557-3.017 5.0288-2.184 4.055.234-.1325 3.422-5.8837 3.517-5.267zm-41.099 28.7733c2.998.149 3.197-.585 2.863-.691-.346-.125-2.291.09-2.548.015-.455-.079-.195-.099.029-.128.208-.033.403-.068-.172-.168-.198-.032-1.604-.201-2.781-.641-1.327-.457-2.319-1.197-2.429-1.262-1.118-.665.188.794-.134.613-1.197-.547-2.168-2.03-2.526-2.192-.417-.189-.088.321.492.87.573.558 1.401 1.052 1.63 1.203 1.369.872 1.129.997 2.305 1.529 1.196.465 1.927.501 3.06.641.376.039.047.195.211.211zm9.478-2.583c-2.764 1.318 4.366-.624 5.127-1.177 2.256-1.248-3.804.655-5.127 1.177zm31.039-77.7554c1.94 2.0268-1.885-3.2756-3.614-4.2036.276.2454 3.049 3.471 3.614 4.2036zm7.888 21.6302c-.243-2.5347-.608.8587-.64 2.9699.389 1.2335.345.0908.339-1.3155-.018-1.3908.445.3362.301-1.6544zm-55.094 31.7344c-.404.4752-2.735 9.0533-1.08 4.2059.045-.4166 2.329-6.1647 2.538-6.5452.288-.8802-.868.9705-1.458 2.3393zm54.913-19.3954c-.115-1.4151.055-2.7218-.527-1.5527-.001.0018-.001.0036-.001.0054.334-3.3884 1.117-3.4895 1.171-4.2291.093-2.6083-.65-.1781-.769-1.8103-.028 3.7612-.372 2.6605-.736 5.4711-.075.6243-.273 3.1948-.211 3.5855.076.3956.78-.7912 1.073-1.4699zm-48.947 8.3802c-1.759 2.3753-2.715 5.1165-.413 1.5847 1.105-1.6202 1.516-3.0373.413-1.5847zm-72.321 8.197c.0255-.4951.0663-1.0176.1313-1.5269.2243 1.1052.5579 2.186 1.0171 3.2028-.3788-.7938-.6833-1.6405-.9157-2.508.4331 2.0479.5842 3.1087-.2312.8376-.0005-.0019-.001-.0037-.0015-.0055zm56.067-26.1486c.58-.7633.981-2.6117.844-2.4159-.979 1.4513-1.643 3.4653-.844 2.4159zm55.642-28.3819c-2.766-2.3733-1.196-.2689.285 1.2568-.858-1.0207 1.179.171-.285-1.2568zm-71.578 48.8339c-.271.1698-.543.3394-.841.5302.862-.6833 1.039-.7792.841-.5302zm25.083 9.6001c-.277.4341-1.607 4.228-1.633 4.764-.154 1.1138 1.042-1.7947 1.567-3.4896.046-.1829.31-1.7454.063-1.2667.001-.0026.002-.0052.003-.0077zm-63.3964.7234c.0019-.0094.0093-.0104.0213-.0042-.0078.0003-.0126.0052-.0213.0042zm20.0664-85.901846c.021.013616.031.026049.027.036482-.007-.011436-.022-.024351-.027-.036482zm48.141 111.330946c1.154 1.177 4.923 1.027 2.123.435-.163-.015-1.808-.307-2.123-.435z" fill="#000"/></svg>