<svg fill="none" height="124" viewBox="0 0 162 124" width="162" xmlns="http://www.w3.org/2000/svg"><path d="m148.014 99.4341c.541.5305.186-1.2415.994-.0643.055-.2449.111-.4925.166-.7398-.299-.0627-.598-.127-.897-.1899-.088.3329-.177.6638-.265.994zm-3.749.4472c.854-.2983 1.082-1.2571 1.869-.2232-.293.0818-.585.1656-.878.2471.227.3648.454.7318.68 1.0918-.112.129-.224.258-.334.387.509.165 1.02.324 1.53.491-.075-.149-.15-.293-.225-.439.414-.573.527-1.104.604-1.8849.12.0686.239.1373.36.2058-.205-.3956-.41-.7943-.615-1.1947-.201.3478-.425.7337-.613 1.0513-.798-.5046-.354-1.424-.187-1.8886.227-.637-.152-.4931.007-.9695.024-.0762.322-.0848.327-.2358.024-.7644-.134-2.2251-.828-1.3672.089 1.2356-.468 2.3066-.265 3.5336-.803-.3261-1.076.3266-1.432 1.1953zm2.556-22.9043c-.389.3791-.232 1.1492.039 1.6689v.0018c.059.1145.577.3735.556 0-.036-.6091-.852-.9047-.298-1.2256-.103-.1436-.195-.2945-.297-.4451zm.049-1.3261c-.2-.3747-.815-.2045-.648.2642-.001 0-.001 0-.002 0 .07.1954.555-.1881.062.5126.384.1432.733.2832 1.104.4258.006-.1731.016-.3282.021-.5084-.63.1211-.339-.3198-.537-.6942zm-.561 18.8671c.567-.0594.563.1895.957.6093-.019-.3955-.039-.7971-.057-1.1921-.301.1919-.6.3885-.9.5828zm.088 9.313v.001c-.09.132-.18.263-.268.392.203.078.404.155.607.233-.19.461-.38.908-.572 1.378.619-.06.518-.88.95-1.332-.186-.676-.545-1.01-1.069-1.049.117.122.235.248.352.377zm-36.339-97.76248c-.078-.21806-.157-.43534-.239-.65305.223.00558.439.0296.671.02839.22.90267.527.31546 1.175.65817 1.961 1.082.871 1.83565 3.445 1.29422-1.469-.70603-.532-1.10331-1.157-2.11278-.391.32564.008 1.70802-.681 1.60388-.788-.94932-1.593-1.83054-2.667-2.61737.065-.06043.131-.12106.197-.18122.17.12541.338.25162.506.37935-.118-.2859-.236-.56774-.363-.85647.078.56206-.492.03245-.612.59267-.054.24871.107.68973.184.98205-.49-.0635-.978-.12915-1.476-.18214.162.27509.32.55116.469.82558.182.0791.363.15742.544.23935.001-.00021.003-.00042.004-.00063zm-98.3132-5.434114c.5726.583694 1.6489.680274 2.1999.030762-.7287-.009941-1.4763-.020829-2.1999-.030762zm133.8682 102.775594c.099.065.197.128.297.193.183-.286.366-.575.55-.865-.287-.056-.574-.113-.859-.17.003.282.008.564.012.842zm.319-18.5613c-.017.2118-.008.2306.033.4938 0-.0003 0-.0006 0-.0009.015.1014.182.9842.403.8854.004-.4379 0-.9012 0-1.3451-.145-.0135-.289-.0164-.436-.0332zm.129 5.1214c.001.0006.001.0012.002.0018.033.1597.101.3107.114.4748.347-.5928-.276-.6834-.1-1.2163.178-.5334.522-.8649-.332-1.3215-.128.1699-.311.3524-.46.5267.341.7612.02.9616-.316 1.5698.365-.0119.727-.0234 1.092-.0353zm-26.461-80.64548c-.113.43407.261.18915.279.19544 0-.00058 0-.00116 0-.00174.88 1.09658-.004-.29509 1.069.39045-.091-.19649-.178-.39567-.27-.59156-.358-.0042-.738.01264-1.078.00741zm24.333 35.03548c.122-.0182.245-.0341.367-.0522-.216-.7328.198-1.0538-.398-1.5502.016.5349.027 1.0716.029 1.6028.001-.0002.001-.0003.002-.0004zm1.105 36.8122c-.235.8114-.338 1.4099.034 2.1822.001.0006.001.0012.002.0018.023.0445.28-.1709.345-.1128-.039.1587-.098.3256-.144.488.206.0221.412.043.617.065-.058-.46-.117-.9093-.175-1.3673.12.0674.24.1365.36.2039.062-.3874.124-.7745.186-1.164-.337.1355-.675.2705-1.014.404-.071-.2331-.139-.4676-.211-.7008zm-6.696-48.0774c.178.0583.273-.2595.467-.1272.193.1337.132.5833.434.339-.074-.2717-.15-.5588-.228-.8353 1.02.5129.848 1.6153 1.618 1.2711-.571-.712-.797-1.4068-.979-2.2768-.576.3393-.717 1.349-1.515 1.1599.068.1542.136.3183.204.467-.001.0008-.001.0015-.001.0023zm-1.122 82.1291c.051.487-.222 1.624.168 2.276.096.157 1.341.657 1.505.664.552-.022.627-.649.988.031.003-.245.024-.441.034-.67.371.04.742.08 1.112.119-.056.265-.112.548-.169.826.123.014.246.027.369.041.002-1.016.477-.407.919-.919.223.448.446.967.669 1.408-.027-.258-.047-.578-.08-.825.63-.03.48.547.597.638.659.566.326-2.279 1.242-2.483.102.439.202.924.302 1.376.113-.129.226-.262.339-.395-.632-1.039-.856-2.216-1.249-3.421.026-.11.053-.22.078-.329.284.032.567.063.851.095.034-.166.067-.338.101-.507-.937.493-.924-.178-1.495-.995-.329.44-.13.962-.743.926.472-1.487-.195-3.218.338-4.675.131-.357.922-.35.849-1.205-.087.029-.244.034-.358.053.379-1.453.605-2.341.219-3.867.284.087.57.171.854.26-.141.327-.285.652-.427.972.47.218.677-.104.672.851-.004.798-.211.323-.35.539-.19.291.183.545-.029.853-.163.239-.55-.027-.452.612.502-.257 1.02-.517 1.528-.767-.113-.152-.228-.303-.342-.457-.134.155-.267.307-.401.461.241-.538.469-1.073.718-1.63-.725.182-.453-.395-.368-.714.134-.496-.365-.071-.282-.397.085-.333.643-.671.523-1.256-.322.313-.612-.113-.91-.031-.298.083-.364.7-.689.107.247-1.148 1.382.099 1.566-.678.221-.932-1.629-1.144-2.027-.871-.313.214-.25.965-.562 1.187-.562-1.353.548-1.349.766-1.582.791-.834-1.32-.282-.557-1.2636-.395.0184-.75.0333-1.128.0517.072-.1688.167-.2811.224-.4864.77.6041.737.1104.738-.1445.002-.4018.378.2187.475.1122.259-.2859.141-.7425.48-.4627-.158-.1254-.316-.2617-.472-.3911.196-.4735 1.844-1.5641 1.511-.5223.612-.0969.318-.4341.225-.6992-.093-.265.297-.2601.225-.4941-.288-.934-.955-.3228-1.478-.1747.36-1.2267.598-.0222.839-1.7872.426-.171.881.6464 1.127-.0343-.74-.1268-1.272-.6262-1.518-1.5968.17-.0945.342-.1889.512-.2837-.683-.5314-1.393-.2689-.546-1.2442-1.559.5247-.562.1666-1.196-.7149-.128-.1792-.452.2348-.615-.0154-.074-.1134.17-.389-.019-.6675-.093-.1383-.694-.7618-.408-1.1999.755.3205 1.397-.5097 2.022.2021-.154-1.3181.208-2.2418-.821-.7634-.229-.3363-.456-.6707-.684-1.0028.18-.2319.359-.4664.538-.7012-.621-.0358-.795.0018-.686-.9204-.146.4006-.295.7981-.443 1.1974-.125.0134-.255.069-.377.0556.239-.4889.341-1.8705.506-2.2021.165-.3338.211.3107.371.2145 1.321-.8003.347-.7374.573-1.3146.134-.339.28.4704.337.289.21-.675-.493-.9778-.501-1.5727.398.2109.803.4197 1.205.6249-.021-.6201-.025-1.3179.103-1.8965.05-.2264.347-.0553.366-.0923.102-.1831.264-.9313.265-1.011.002-.597-.408-.6169-.431-1.1955-.035.2263-.066.442-.099.6651-.666.1015-1.332.205-1.998.3063-.049-.5706-.096-1.1377-.145-1.7074.223.4172.444.8311.666 1.2505.538-.6528 1.077-1.3 1.616-1.9532-.331-.3398-.661-.6785-.991-1.0164.087-.9198 1.428-.7349.253-1.1721.1-.2716.199-.5449.297-.8155-.168.0387-.336.077-.503.1157.103-.3266.205-.6534.31-.9806.593.344 1.218.681 1.794 1.021.129-.6428-.375-.6555-.5-.7514-.333-.2545.116-.7604-.192-.9632-.106-.0684-.437.5632-.82.3456-.074-.0421-1.479-.8897-1.155-1.4274.255.0101.567.0518.844.0737.155-.7247-1.174-1.0949-1.547-.9987.261-.3864.283-.952.69-1.0309.01-.1973.019-.3931.029-.5904-.992.2056-.81-.6176.043-.6717.021.3392.043.6787.064 1.0177 1.046-.2565 1.677.7743.709-1.3702-.544-.4101.074.7289-.334.3948-.237-.5805-.038-1.1255-.417-1.6771-.473-.6865-.928.158-.326-1.4412 1.509 3.528 1.019-.4845 1.487-2.1408-1.49-.4566-1.962-1.853-1.519-3.7825.415.2006.201.8071.338 1.1571.137.3498.383-.0282.576.4063.194.4345.457 1.3589.75 1.8.235-.374.79-2.2149.123-.9976-.411-.9082-.833-1.3363-.91-2.4629.516-.2686.876-.3076 1.011-.8663.034-.1473.053-.3297.055-.5596-.893.6679-1.531-.5884-2.457-.2937.226.764 1.124.3263 1.558.7793.007.0078.007.0343.002.074-.027.1972-.182.7255-.169.8663-.811-.7317-1.113-.9839-2.078-.5344.02-.1219.029-.2329.036-.3319.024-.3138.034-.5047.386-.5438-.201-.1037-.403-.2066-.604-.3061.002-.1629.017-.3099.009-.4822.701.2211.263-.2302.566-.57.301-.3425.871.0828.836-.8358.178.2976.329.573.493.8672.158-.6043.308-1.2169.445-1.8366.455.3949 1.13 1.3005 1.686 1.2525-.221-.2726.092-1.2806.098-1.3909.028-.4224-.308-.169-.319-.2002-.217-.6396-.148-1.1848-.703-1.3773.192-.5043.015-.8632-.034-1.3768-.027-.2833.369-.2777.274-.4345-.646-1.0389-.978.0991-.362-2.1682.312.2112.63.4222.942.6416.065-.2598.128-.519.188-.7803-.076-.1552-.153-.3082-.231-.462-.582.1064-1.166.2136-1.749.3198-.062-.1672-.124-.3346-.188-.5007-.003.3057-.007.6119-.015.9174-.098.0444-.197.0869-.295.1311-.233-.4104-.471-.8134-.713-1.2124.201-.0471.403-.0946.603-.142-.474-.9216-.649-.9024-.304-1.9544-.169-.7106.521-1.4939.76-2.0099-.151-.1213-.304-.2412-.456-.3619.139-.1404.277-.2823.416-.4242-.283-.1271-.566-.2541-.848-.3761.489-.2534.638-.36 1.029.3347.582-.4373-.088-1.675-.476-2.1359-.291-.3499-.684.2659-.766.2356-.272-.096-.294-.8081-.378-.9324-.346-.5252-.459-.9313-.764-1.4049-.06-.0923-.497-.247-.516-.2662-.125-.1626-.459-.5497-.484-.5983-1.299-2.5128 1.285-.2959.098-2.689.218-.0082.433-.021.651-.0292-.069-.192-.141-.3853-.212-.5764-.261-.1663-.415.2443-.397-.3232-.215.1338-.43.2674-.643.4015.033-.2555.067-.504.094-.7656-.936.0406-1.671-1.0169-2.547-.4781-.296.183-.234 1.1276-.77.8734-.23-.3041.254-.2592.206-.4065-.359-1.0622-.852-.7334-.922-1.2053.188-.179.378-.3643.566-.5475-.145-.1183-.291-.2361-.438-.3539.128-.115.256-.2318.384-.3474.087.1381.185.2948.265.422.483-.4914-.213-2.3314-.333-1.4141-.049.3709.297.8019-.541.8713-.149-.4995-.335-1.0541-.515-1.5771-.151.0693-.301.1399-.452.2095-.277-.6751.626-.4494.931-.6283-.077-.1497-.156-.3-.235-.4489-.174.0217-.352.0508-.523.0681.214-.1374.672-.5275.221-.8386-.292-.1964-.57.5697-.817.0087.359-.1745.891-.2428.629-.8918-.386.166-.756.2928-1.151.4857-.126-.9252-.869-.886-1.049-1.9553-.115-.6789.203-2.0077-1.325-1.3715-.307-.3386.098-.4637.087-.6261-.052-.7708-.952-.681-1.059-.7442-.696-.4139-.706-.8393-1.377-1.0814.248-.1656.475-.3323.714-.4976.025.7233.22.9245.792 1.4886-.12-.2463-.24-.4929-.363-.7377.215-.1183.429-.2365.642-.3545.8 2.5384 1.644 1.1735.567-.694-.461.1402-.923.2785-1.38.4283-.259-1.3604-1.08-1.4128-2.099-2.3149-.121-.1081-.337-.7138-.504-.9055.004.0019.008.0038.012.0056.195-.4054.483-.3847.773-.6253-.062-.1337-.125-.2671-.189-.4004-.423-.0242-.512.2192-.894-.263.261-.1426.522-.2854.784-.4268-.473-.492-1.008-.5825-1.369-1.1142.001.1512.002.3017.002.4527-1.176-.7413-1.541 1.2254-1.71-.0763-.147.0637-.293.13-.44.1946.284.309.557.6133.83.9244-.137.1555-.274.3107-.413.4649-.272-.3477-.545-.6908-.83-1.0356.145.3205.282.6392.417.9582-.432-.2727-.872-.5431-1.313-.8046.909-.2074.453-.7434 1.054-1.2183-1.106-.1426-2.158.0347-2.906-1.2498-.149-.2532.295-.5791-.718-.5547.669-.5452.111-1.4687.692-2.0282.203.2015.423.401.611.6068-.419.0261-.918.6022-.693 1.0638.284.5853 1.284.7237.719 1.3543.206.1181.388.2399.584.3617.063-.2208.129-.4418.192-.6625.293.6746.659.8538 1.247.6663-.504-.606-1.029-1.2064-1.566-1.7952.113.045.227.0912.339.1381-.125-.7968.685-.8068-.132-1.6026-.147.1985-.295.3963-.444.5957.094-.7715-.827-1.4616-.078-1.8483-.418-.0223-.561.0565-.476-.3901-1.081-.0769-1.969.2015-2.209 1.0957-.189-.3041-.381-.6069-.574-.9068.291-.0908.584-.1781.879-.2639-.488-.31974-.983-.63227-1.475-.93247-.427.56073.811.78707.183 1.12857-.125.0685-.233-.3267-.339-.311-1.129.187.286.4419-.247.8005-1.148-.5234-.83.8417-1.848-.7627-.144.1511-.293.3043-.432.4567-.51-.2892-.232-.65876-.635-.99033-.256-.20787-.993.30627-1.038-.34262-.01-.11866.994-.70753-.147-1.26011-.894-.42044-.844.38952-1.422.37862-.568-.00777-1.262-1.38634-2.027-.51734.306-.02662.66.04467.982.06087.023.24514.042.48661.06.7295-.497-.53745-1.287-.52494-1.515-1.16962-1.129.37185-1.832-.64677-1.273-1.37943.247.22605-.202.46823.284.38918.114-.17625.23-.35039.344-.52599-.702-.24057-1.179-.4077-1.074.2906-.111-.02356-.22-.04626-.331-.06872.129-.43382.259-.86868.387-1.30291-.115-.09311-.23-.18544-.345-.27739-.176.04608-.357.09278-.537.14107-.015.74854.3.8654-.917.90769.068-.23758.134-.47471.202-.71234-1.029.02632-1.198.59439-2.36.28779.683 1.04405 1.553-.28307 1.091 1.37334.245-.04902.495-.09618.744-.13951-.038.24902-.078.49815-.12.7464-1.058-.47538-2.697-2.5343-3.719-1.59503-.074-.14783-.152-.27833-.227-.43569-.879.52302-1.033-.98656-1.9456-.22947-.0896.0835-.0691 1.46497-1.0548 1.34046.0373-.17796.0717-.47943.1083-.7046-.2311.09446-.459.19698-.6826.2997-.0319-.168-.0665-.33597-.0997-.5051.3839-.04857.775-.08975 1.16-.12258-.3112-.08315-.6323-.16178-.9514-.23452.434-.25027.6327-.23737.4004-.68936-.3729-.0491-.7462-.09252-1.119-.1269-.036-.11245-.0721-.22612-.109-.33843.1889-.32944.3861-.64959.5884-.98003-.3895.08834-.7546.14824-1.0994.22599-.5168.12792-1.0254.2875-1.5168.69447-.1229.11052.3024.54411-.5418.15307-.0131.22963-.0358.4161-.0505.62838-1.0458-.6433-1.4461-.45129-2.5303.01318.717-.43342.0795-.15152-.1064-.38376-.126-.16001.3659-.13636.3097-.30394-.0537-.16641-.6959-.83833-.1476-.91915 1.295 1.37728 1.7142-.26938 3.4243.39256-.2691-.17759-.5641-.35559-.8063-.53317.1234-.12037.2149-.22958.3637-.35741-.9377.26944-.4791.0944-.868-.11791-.3801-.21237-1.1587-.39279-1.6008-.45115-.1484-.01834.0094.29056-.3279.31932-.228.01987-.8742-.43807-1.0282.1018-.0946.35143.9403 1.31914-.4898 1.31683-.2586.34453.3996.23753.4266.27904.1128.40983-.7352.71796-1.1339.40501-.0323-.027.2824-.34636-.0599-.47166-.8127-.2993-1.326.06695-1.8283.56247-.0567-.58121-.7291-1.27535-1.6081-1.0605-.0449-.16632-.0878-.33411-.1329-.50167.1369.08803.273.17488.4084.26292.1477-.10432.3032-.18026.4457-.30321-.8681-.14293-1.012-.94394-1.4078-1.237-1.3958-1.001126-.5492 1.1166-.2968 1.48162.1813-.14778.3555-.31276.5328-.468-.0197.20243-.0397.40641-.0578.61008-2.0886-.00619-.3121 1.31405-1.384 1.69034-.2754-.99594-1.0902-1.09193-2.0731-.45993-.1107-.00497-.2221-.00624-.3334-.01245-.0186-.14521-.0183-.36718-.0486-.46287-1.2168-.1689-1.4494 1.36487-1.5553 1.51018-.4996.64444-.895-.24723-1.0447-.25487-.6321-.03105-.8178.36488-1.4301.19482-.6539-.18377-.2067-.48756-.4031-.75949-.1549-.21595-.6597-.25441-.8701-.47825.0834.18308.176.36261.2588.54636-.6658.24958-1.2155.49284-1.9896.55369-.8614-1.33954-1.5813.92009-1.2881-.91255.7182-.12544 1.1106-.33428 1.5079-.80124-.4882-.0596-.9453-.11763-1.4185-.17723-.1374.20113-.2352.39716-.3984.60202-.3526-.42714-1.179-.24384-1.5067-.36912-1.5075-.58742-1.0324-1.31598-2.415-.09155.996.1193.9945.71399 1.9693.63205-.2096.42472-.7061.33672-.385.8459-.9461-.12541-.6412-.58001-1.0112-.98359-.3193-.34793-.9678-.3674-.9314-.81954-.0664.24858-.1178.48925-.1841.73751-.6315-.00248-1.23-.00264-1.8488-.00512.2626.25951.5242.51951.7852.77779-.1972.09802-.3952.19566-.5934.29369-1.5208-.80723-4.1374.67221-3.7191-1.35565-.7321-.06457-.825.18976-1.2251.57346-.0441-.15395-.087-.28201-.1312-.45335-.4781.16116-.8361-.41683-1.251-.26659-.4148.14909-.5184.69504-.579-.22264-.2694.26324-.5378.4819-.8065.72652-.1622-.20848-.3244-.41456-.4852-.62179-.2541.10927-.5092.2181-.7641.32737-.1363-.43805-1.125-.24923-1.5642-.54342-.4164.4722-.4039 1.95896-1.3867 1.69254.0254-.36875.0504-.73643.0758-1.10517-.2252.07698-.4511.15372-.6784.2307-.0135.12035-.0254.24071-.0387.36107.115-.03725.229-.07431.3442-.11279-.1.20368-.198.4064-.2964.61008-.3416-.30174-.6829-.6035-1.0265-.90523.4639-.22845.9221-.45706 1.3906-.68552-.5875-.27073-.9854-.00068-1.492-.30247-.4397.50909-.2774.80244-.0988 1.35491-.1634-.04717-.3288-.09271-.4923-.13988.1077.55255-.1682.88178.7867.83712-.0656.15759-.1326.30785-.1965.47165-.1567-.02483-.2583.10838-.4302.0476-.4689-.16641-.8292-1.13693-.797-1.47722.0174-.17824.4802.16264.4616-.08934-.0458-.6145-1.107-.3386.4234-.95577-.5076-.3912-.6211-.09617-1.1822.01685.0439-.20478.0866-.40824.1288-.61301-.2602.09435-.521.18836-.7816.2827.3609 1.05184-1.5551 1.44692.1705 2.36707-.5128.04718-1.0164.09462-1.5244.14428.1045.10802.209.21495.3135.32298.229-.05712.4566-.11331.6854-.16918-.2691.1974-.5389.39364-.8085.59104-.637-.24466-.8872-.62094-1.1792-1.0854.7424-.33894.4999.12404 1.0778.21605-.0202-.29414.0065-.5647-.044-.87373-.2984.60927-1.2734.16602-1.4999.13622-.6889-.0905-.1486.50814-.6096.52073-.4623.01241-1.0037-.34389-1.3802.24974.0068-.33272.0368-.67698.0638-.97993-.7168-.10929-.5739.28378-.6481.3347-1.1845.83702-1.8277.13037-3.1831.04468.1721-.10306.346-.1961.5199-.29296-1.0226-.70644-.3338-.49013.5541-.72359-.8323.07078-1.3088-.53086-1.896-.70969-.5876-.17853-1.5916.13047-1.9617.37132.8434.38748 1.7492.13195 2.6847.23876-.1063.33895-.2096.62581-.3192.99824-.5687-.7114-.8979-.23573-1.0851-.14135-.5496.27681-.5323-.33378-.8643.32298.0135-.22593.0234-.41589.0369-.62692-1.1378.09438-2.363.49381-3.1003-.34056-.0673.54266-.1182 1.06548-.1956 1.6193-.4781-.40848-.8945.00982-1.2994-.08568-.404-.09563-.2503-.53418-.7247-.7031-.0877-.03104-.2705.24345-.4862.04102-.2181-.2035-1.0202-1.7166-1.1157-.39475-.4039.00621-.7942.05454-1.1927.07689.3884.07451.7817.14668 1.1658.22119-.328.32036-.6616.63978-.9926.96015-.0423-.28564-.0847-.57644-.1254-.85835-.8932-.34773-1.5391.11928-2.4333.00879-.1506-.01863.2073-.58337-.4633-.43943-.6702.14405-1.1679 1.1981-2.2993.79097-.0571-.02111-.392-.82837-.7953-.26952-.0918.12666.2946.31409.0838.48045-.2104.16642-1.1685.30326-1.2416.69943.0101-.1403.0696-.28567.0984-.42845-.1626-.06704-.3266-.13414-.4905-.19994-.0152.24711-.0316.49458-.0468.74044-.9365-.57497-1.3928-1.51292-2.7922-1.20257.3885-.35888.7871-.7192 1.1686-1.07808.1053.25211.211.50592.3148.75802.6315-.10058 1.2687-.20043 1.9075-.30101.105.28688.2084.57294.3136.85982.1697-.03725.3381-.07334.5083-.11059-.0426-.20738-.0855-.41368-.1297-.62106.3402.0509.6659.1029.9981.1538-.6663-1.22415-1.8943.10413-1.8041-.91988-.1506.15889-.3013.31887-.4516.47898-.0658-.49652-.3718-.35362-.9076-.27537.1227-.24466.2583-.48598.3711-.73312-.5237.34521-1.438.31169-1.9904.44456-.2395.05836-.0003.41835-.0715.46067-.3657.22106-1.0598-.40708-1.2042-.35741-.8654.29563-1.4183 1.48649-2.3771.70163.9843-.19374.449-.11191.8001-.54782.1145-.13668 1.3694-.42178-.2119-.29516-.1963.01585-3.0511.83865-2.113 1.46917-.4592-.20119-.8189-.43382-1.2519-.64743-1.0479 1.66168-.6843.10065-.3809-.75875-.1716-.00373-.3344-.01245-.5102-.01245.3655.90286-1.5058.95893-2.1659.50315-.2188-.15152.393-.44051-.1129-.57712-.2406.06331-.5124.1453-.7641.21605.3652-.57123-.3515-.79137-.3408-1.37249-.4562.51783-.8008 1.61543-.5524 2.21034-.3763-.24088-.7399-.48147-1.1313-.72359.1772-.13785.3638-.2745.5326-.41234-1.25633.36512-2.82903-.46571-3.07865.75509-.16772-.00869-.3365-.01621-.50276-.0249-.05143-.20616-.10105-.41271-.15234-.61886-.75275.17879-1.47573.35878-2.21054.53756.65788.12794.80165.42138 1.49371.1831-.2665.2371-.53588.47551-.79334.71262-1.00816-.63834-1.21245-1.05786-2.74916-.86789-.05516.0087-1.26503.54401-1.30373.59617-.18724.23842.09703.5848.01363.70529-.23945.3378-1.6100027 1.18598-1.57795637 1.31389.28749837 1.56977 5.05295637 1.59059 6.28302637 1.67131 13.17581.837 26.03851-.2828 39.12441-.09155.1345.00296.0758.23469.1331.24461.3561.05821.7056-.30295.8372-.31785.2812-.03071.1263.30297.3317.3032 2.1238-.00372 4.1209-.19993 6.2523-.14281.1385.00373-.0029-.26325.2402-.21605.1255.02584.518.43542.8005.44163.9831.0211 1.8218-.11021 2.8638-.104.5723.0037 1.4168-.03111 2.0607-.0249.2833.00264.5779.19001.8568.19627.3955.0087.3146-.37115.3755-.39475.2666-.10306.3035.31386.5561.30394.4694-.01987.495-.29823 1.0882-.27465.4252.01739 1.4127.23716 1.949.30175 1.2487-.32287 2.8514-.19469 4.0184-.08789.6918.06331.7497-.32642 1.0365-.32518 1.0109.00755 1.7695.50531 2.6981.52146 1.2426.02103 2.3665-.30811 3.5489-.33178.1991-.00372.1534.35338.3482.36254.7216.03353 1.6295.09852 2.2524.04761.6865-.05597.976-.57428 1.6638-.46873.2028.03134.2626.48581.5999.54416.5404.09176 1.113-.30901 1.5077-.35375.5251-.05961.0707.40339.7738.3413.0288-.00268.1337-.33365.2834-.31786.4348.04471.3935.30534 1.0209.2805.0476-.00342.9217-.31878 1.0037-.32004.5053-.00498 1.4918-.11538 1.7745-.04834 1.0692.23845.2315.73623 1.134-.34423.3949.26446.7807.53251 1.1856.78952-.2828-.23969.8599-.58556.9423-.56321.6603.18012.2733.60052 1.0923.53098-1.0835-.97118 1.0641-.12518 1.5663-.10033 1.5406.08215 3.1221-.00453 4.59-.06595.5956-.02862 1.2123-.02893 1.8462.02127.6633.05062 1.5432.36216 2.2382.47318.164.02675.077-.22064.224-.20104.145.02158-.059.24806.108.26326 1.038.09366 1.966-.19008 2.747.65357.068-.07239.085-.13987.186-.212.61.72633 2.282.51444 2.88.63953.925.1841.995.6159 1.641.8107.857.2554 2.374.2008 1.318 1.0085.53.2971 1.046.5721 1.637.7644.067.0214.168-.2668.195-.2592.175.0451.096.31.193.3774.264.1841-.038-.3529.319-.0515.186.1605.197.4333.764.7717 3.451 2.0565 6.995 4.7481 9.979 7.715.204.2027-.137.2728.127.5162.922.8365 2.79 2.199 3.426 3.0953.635.8863.145.9639.422 1.6053.052.1245.179-.1094.255-.0179.503.613 1.37 1.1526 1.793 1.655.28.331-.056.5202.09.7789.216.384.789.5476.931.7399.66.9082.791 1.7139 1.455 2.5296-.093.0074-.174.0238-.263.0363.63 1.0456 1.229 2.1186 1.787 3.2016-.095-.017-.189-.0317-.285-.0476.674 1.258 1.346.7605-.295 1.4056-.012.1191-.03.2479-.04.3604.802-.4247 1.777.0693 2.43 1.0066.049.0701-.556.9146.386.4577-.181.2312-.312.3764-.474.5722.381.0956.76.2002 1.14.3055.003.1365.008.274.01.4103-.185.0913-.388.1543-.562.2644.185.5571.829 1.6063.95 2.0574.31 1.1241.105 2.3881.915 3.0956.053.4386-.445.1225-.233.7354.215.0198.421.0384.643.0615-.755.7345-.192.7014.155 1.3724.234.4533.083.8193.216 1.2661.034.1139.293.0463.3.1278.026.2739-.198 1.1029-.177 1.2926.19 1.7249.404 3.1936.621 4.83.023.1764-.256-.0344-.233.1475.038.2927.43.0932.461.2636.082.4773-.343.5055-.337 1.1649.004.638.031 1.3051.06 1.9914.069 1.7884.236 3.672.256 5.4271 0 .0776-.25.073-.253.1573-.012.5498.326 1.1071.322 1.6062-.005.8284-.356 1.4508-.355 2.2694.001 1.5996.181 3.0291.191 4.6738.009 1.3466-.024 2.5181-.023 3.9915.005 6.4471-.789 13.0372-.367 19.5208.011.1669.232.0989.223.1498-.096.483-.394.5249.23.6957-.123.6134-.592.7901-.558 1.5391.017.3944.744.1016.369.7651-.339.6-.737-.0727-.33 1.7235.011.047.455.28.339.647-.114.367-.432-.06-.527.843-.224 2.105.16 4.777.042 7.225-.008.142-.245 1.642-.354 1.919-.212.565-.542.458-.623 1.185-.062.548.311 1.052.237 1.694-.009.079-.393.218-.342.718zm-29.248-110.74432c-.011-.40059.189-1.80588-.812-1.67728-.091.01342.057 1.05729-.452 1.05834.424.23537.851.40931 1.264.62032 0-.00046 0-.00092 0-.00138zm38.087 114.36632c-.07-.62-.138-1.239-.208-1.885-.168.456-.335.853-.504 1.302.237.201.475.394.712.583zm-3.551-78.3256v.0018c-.043-.7067-.098-1.4102-.168-2.1213-.099.1136-.198.2271-.297.3399-.011.5792-.031 1.1537-.059 1.726.175.0172.349.0352.524.0536zm.088 5.515c.247.3817.481.2225.783.3993 0 .0001 0 .0002-.001.0003.079.0469.198.3212.231.4303-.17-.007-.341-.026-.511-.0358-.185 1.0412 1.576 2.7482 1.648.0966-.196.0799-.392.1574-.589.2364-.198-1.2782-.977-2.5388-1.561-1.1271zm-44.741-44.11895c-.4252-.27737-.7488-.46393-1.0614-.56326-.4339-.15873-.8448-.10252-1.6753.1857.1915.19361.3794.38718.5637.58078.2154-.19746.4244-.39357.63-.59103h.0017c.0411.20739.0821.41514.1212.62253.1212-.0233.2408-.0466.3587-.06991.351-.06117.7054-.11611 1.0614-.16481zm46.646 84.50695c1.364.2934.571.2104.878-.6316.107-.292.346-.0074.386-.1891.217-.9698-.697-1.0499-1.173-.8321-.032.5498-.062 1.1073-.091 1.651zm-.284 25.2906v.002c.333.025.422-.363.738.076-.002-.334-.004-.664-.006-1.006-.031.1-.06.201-.091.301-.114-.088-.23-.176-.344-.264.382-.121.16-.233.032-.594.408.098.817.199 1.226.298-.122-.425-.244-.815-.366-1.233-.103-.005-.206-.01-.309-.016.132-.156.265-.311.397-.469-.123-.043-.245-.085-.368-.127.093-.184.186-.369.28-.555-.297-.057-.426.356-.35-.375-.306.225-.61.448-.916.671.025 1.102.051 2.209.077 3.291zm.703-32.9184c-.057 1.2114.159.8707.834.5898-.278-.196-.556-.3955-.834-.5898zm-15.851-59.3479c.106-.5724.196-1.1497.266-1.7276-.324-.7272-1.446-.6739-1.298-.0467.172.7494.973.9644 1.032 1.7743zm-12.62-10.79898c.881.28526.444-.62307.427-1.00402-.483.30967-.752.09639-1.278-.13366.453.29364.705 1.09156.85 1.13893.001-.00041.001-.00083.001-.00125zm21.313 22.26968c.159.3242.214.7029.5.9156.348-.288-.311-.6798.484-.5703-.099-.2126-.199-.4245-.298-.6347-.169.2578-.441.1792-.684.2895-.001-.0001-.002-.0001-.002-.0001zm7.677 36.1565c-.521-.6884-.298-.8189.063-1.5122-.424-.0977-1.136.729-1.292 1.247.41.0877.82.1758 1.229.2652zm-124.5057-65.12294c.1632.54132 1.3811.61192 1.9939.45188-.0728-.08028-.1458-.16164-.2184-.24314-.5948-.06955-1.1883-.13919-1.7755-.20874zm94.4117 5.45874c.091.03241.175.06623.253.10034-.079-.05168-.163-.08836-.253-.10034zm-36.6448-2.92761c.2915.51036-.5742.68183.4764.48191v.00146c.6906-.13164.8413-.16679 1.4695-.20653-.2255-.65564-1.5025-.88998.2548-1.02534.0244-.0006-.0281.38952.2646.33616.0898-.01659.3778-.33676.8091-.42991.1394-.0298 1.1834-.12855-.2414-.13476.0427-.45702-.0343-.91961-.0309-1.36297-.5652-.12885-.9868.76606-1.5637.74411-.8617-.03478-1.3126-.93972-1.4812.24755.7439.29169 1.9842.2987 2.1422-.41527.7078-.00869.9233.57627.3402.86568-2.423-.3676-.6495.8683-2.8065.40135-.0258-.16512-.1154-.34282-.1017-.49803-.6599.58108.364.81205.4686.99459zm5.0959-1.26264c-.4177-.34897-.8268-.70075-1.2467-1.05097-.0007.56878.2337 1.07919.886 1.39959.1201-.11665.2353-.23322.3607-.34862zm-35.4814-.1494c-.0608-.30923-.2231-.5926-.3414-.88692-.1276.26079-3.1646.51099-1.6195.76681.225.03725 1.5912-.50954 1.9609.12011zm96.6593 68.78365c-.208-.3573-.416-.7134-.623-1.0695-.131.5484-.266 1.0953-.401 1.644.341-.1925.683-.3827 1.024-.5745zm-20.448-56.2229c.121.0953.03-.5645.433-.1045-.15-.5073-.313-.9636-.479-1.4504-.233.0629-.466.1255-.698.1911.007-.1651.011-.331.016-.4965-.143.263-.288.5159-.434.7838.97.0096.629.6603 1.162 1.0765zm12.124 17.9302c.63-.1656.488-1.2884 1.051-.3974.285-.3646.337-.7542.083-1.3215-.188-.0147-.375-.0289-.563-.0419.372-.2123.439-.4279.541-.8828-.001-.0001-.001-.0001-.002-.0002-.428-.8518-.53-.7309-1.253-.5832.832.6745.282 1.0167.259 1.7878-.017.5299.359 1.0081-.116 1.4392zm-85.1002-30.48363c-.6922-.53769-.0704-1.03923-1.299-.46799.0793.13661.1589.27206.2381.40867.354.02111.707.0407 1.0609.05932zm88.5342 32.69473c-.939.3098-1.901.0253-.484-.7332.563.4653-.398.5362.484.7332zm-24.177-25.6477c1.059.6006 1.471-.447 1.324-1.19865-.176.12922-.35.2595-.522.38994-.138-.19312-.277-.38561-.418-.57602-.125.46257-.253.92492-.384 1.38473zm27.811 47.2161c.685-.9667.41 1.0219.838.3487.345-.5454-.389-1.2278-.825-.9479-.006.1825-.01.3857-.013.5974zm-.182-5.4717c.764.0659.524-.1319.472.6349-.008.2192.422 1.8929-.261 1.2329-.052-.6031-.128-1.24-.211-1.8678zm-40.372-48.10413c-.07.31473 1.032 1.30003 1.232 1.17141v.00142c.562-.36695-.772-.76431-.027-1.27662-1.438.26874-1.561-1.19031-1.825.67633.748.23195.463-.2197.62-.57254zm-98.23664-.2713c-.00062 0-.00123 0-.00185 0 .09748-.0154.78771-.49625.70536-.6628-.8361.14279-.70577.45931-1.51052-.0608-.04422.16752-.08205.33-.12953.49876.31958.09935.49724.3006.93654.22484zm40.10354.23729c.3157.0857.8916-.26939 1.251-.24828-1.144-1.36359-2.5119-.09203-1.251.24828zm99.2331 96.15224c0-.0009.001-.0017.001-.0026 0 .0002-.001.0006-.002.0009 0 .0006.001.0011.001.0017zm-74.7769-96.97032c-.041.08852-.0642.16541-.0725.23291v.01903c.0222-.08288.0457-.1667.0725-.25194zm30.9669.30624c-.59.385 1.102 1.33088 1.688 1.27614-.003-.21245.025-.39972-.028-.65234-.553.44473-1.545-.69166-1.66-.6238zm33.387 22.82908c-.817-1.1678-1.261 1.3701-.03.6319.023-.0176.049-.5997.03-.6319zm-22.486-19.48226c.103.64913-.616.47259.474.87841.122-.09875.245-.19739.368-.29526-.279-.19749-.56-.39244-.842-.58315zm14.892 13.76066c-.953-1.4681-1.823-3.0287.069-3.2928.063.1307.129.2618.192.3929-.505.5355.132.6012.656 1.1141-.138.277.091.6168-.038.8417-.251.4331-.808.3319-.879.9441zm16.592 70.1041c.126-.0288.252-.057.376-.0858.142-.2836.283-.5673.424-.8466-.241.0453-.481.0907-.722.1359-.026.2612-.052.5294-.078.7947zm-57.292-85.66049c-.1477-1.38062.3601-1.12634 1.5515-.42844-.5301.14281-1.045.28563-1.5515.42844zm54.747 39.49479c.388-.0677.775-.1349 1.164-.1995-.237.6978-.703.6953-1.278.5522.038-.1179.077-.2342.114-.3527zm1.434 8.4803c-.108-.2379.22-.1467.211-.1719-.237-.6085-.39-.6744-.257-1.4686.07-.1048.143-.2089.215-.3148.863.2397.458.5583 1.029 1.2624-.296-.1049-.593-.207-.891-.3072.112.4105.218.8233.32 1.2386-.081.0584-.162.1167-.243.1747-.126-.1368-.267-.2773-.384-.4132zm1.468 40.9429c.032.4079.066.8357.098 1.2495-.202.0152-.406.0298-.608.045.17-.4285.34-.872.51-1.2945zm-66.1735-89.54711c-.0327-.0718-.0647-.14404-.093-.21752.0027.08955.0385.15945.093.21752zm-73.2059.46288c-.47829.14155-1.12084.0486-1.65416.07837.0648-.50781 1.33029-.36744 1.80306-.67527.07455.09112.05061.53733-.1489.5969zm113.5394 6.38663c-.041.2761-.083.5506-.129.8247.248.1326.496.267.745.4059-.111.1752-.224.3518-.335.5269-.865-.9187-.969-.2605-1.788-.0929.498-.5575.999-1.1127 1.507-1.6646zm24.525 95.9027c.14-.901.402-1.235 1.024-.717-.142.324-.285.641-.428.962-.199-.085-.398-.164-.596-.245zm-81.4877-102.28348c-.7641-.23247-.7769.60251-1.5275.13622.4023-.15396.8035-.30963 1.202-.4636.1077.10887.218.21851.3255.32738zm37.342 2.31072c-.2021.19029-.4988-.39488-.9417-.46323-.214-.03206-.4623.04827-.7508.37457-.2152-.30421-.3531-.59478-.5448-.89278-.1117.32414-.2401.65242-.3492.97407-.0006 0-.0013 0-.0019 0-.796-.10929-.2796-.51581-.2983-.85982-.0059-.14261-.6033.09578-.4166-.21459.3024-.53278 1.5691-.22642 1.5651-.87593-.434.21227-1.3004.03489-1.0451-.39842.2603-.47561 1.1091.32146 1.5814-.07324-.4021.59472-.0927.7435.2602.61218.2669-.09829.5751-.34569.6557-.68421.7915.60257.1275.82393-.6557.82777-.0499.00032-.1008-.00039-.1523-.00211.0773.09058.1257.16049.1523.2155.0377.07765.0317.12563 0 .16025-.096.10633-.4457.0867-.5308.41303.1269.07007.3219.11078.5308.14165.6912.10094 1.6031.14337.9417.74531zm32.9077 19.12546c-.315-.5051-1.142-1.0189-.986-1.6562.091-.3738.85.2275.826-.5748.325.4949.253.71-.135.8812.04.135.081.2706.121.405.101.0004.203.003.304.004-.095.1572-.189.3135-.286.4686.109.0923.22.1864.33.279-.059.0636-.103.1299-.174.1932zm-92.1894-21.46181c.1685.00497.3355.0099.5042.01611-.0186.1007-.0407.20557-.0621.30907-.0152.08179-.0305.16357-.0458.24534.0976-.29219.9016-.77783 1.2408-.46579.1705.15654-.2176.71228.5053.80929-.524-.02858-1.009-.10443-1.5168-.15161.0455.16518.0893.33212.1349.49729-.0003.00025-.0006.00049-.0009.00074-.1687.03724-.3394.07627-.508.11351-.0843-.45826-.1673-.91568-.2516-1.37395zm100.9634 39.42221c.161-.6244.266-.856.844-.7461.001.0004.001.0009.001.0014-.163.2677-.329.5335-.497.7971-.115-.0173-.231-.0341-.348-.0524zm-67.3613-38.13541c-1.2285-1.99071 1.5454-.77038 1.0168-.09229-.0228.03106-.8993-.12753-1.0168.09229zm43.3433 4.66161c.274.1844.549.3712.822.5631-.196.1658-.392.3307-.585.498-.075-.3531-.154-.7078-.237-1.0611zm25.578 92.3907c-.546-.349-.744-1.271-.15-1.704.069.232.139.458.209.694.068-.44.143-.868.208-1.314.761-.024.319.49.529 1.251.034.122.979.889.267 1.149-.147.054-.246-.756-.672-.193-.033-.246-.026-.46-.045-.695-.181-.017-.362-.033-.544-.052.066.291.132.578.198.864zm-12.383-79.6317c-.545-.5953-.383-.8678-.083-1.3467.202.3316.4.6627.594.9951-.171.1162-.34.2344-.511.3516zm12.209 72.1712c-.088-.4553.349-.2604.433-.4441.312-.6969 0-1.1733.196-1.8562-.085.0455-.164.0873-.246.131 0-.0006 0-.0012 0-.0018-.368-3.2567.624-1.5436.463.4001.162.0453.325.0887.487.1339-.285.8732-.558 1.6771-1.333 1.6371zm-57.8678-89.5237c-.0371.10183.2764.74899-.3115.44602-.4674-.94487.2997-.4759.4882-.83931-.158-.09066-.3205-.17886-.4783-.26952.9508-.26701 1.0805-.04234.7401.64816-.0242.04641-.4014-.08686-.4385.01465zm-6.2981.46579c-.1296-1.39218 1.0717-.76615 1.0263-.33396-.1646.01723-.2929-.21849-.4686-.11425-.1775.1043-.2226.42949-.5577.44821zm33.3239 2.69408c-.035-.0091-.58.3904-.365-.01549.827-.8246 1.316.17339 1.017.45098-.244-.13489-.342-.35879-.653-.43416 0-.00044 0-.00089.001-.00133zm30.688 99.32633c-.039-.014-.274-.9-.056-1.018.246-.096.51-.144.764-.216-.236.502-.056 1.48-.708 1.233zm9.839-12.0348c-.406-.3798-.309.1627-.869-.4838-.077.0233-.155.046-.231.0693.251.1624.502.3248.754.4872.116-.0238.231-.0477.347-.0719 0-.0003-.001-.0005-.001-.0008zm3.3 1.7808c-.775-.3645-1.087-.2805-1.646-.8878.264.1294.528.2584.791.3879-.154-.1878-.308-.3759-.461-.563.113.0291.225.0584.336.0869-.422-.2884-.844-.5772-1.267-.8663.047.0674.096.1359.143.2033-.427-.0874-.586-.0379-.746.0855-.097-.0744-.192-.1483-.288-.2228.13.1846.261.3694.391.5536.215.0294.455.0618.655.0897.631.5043.139.4681-.061.4816-.273.0181.073.1781-.121.1964-.031.0031-.29-.1438-.312-.1155-.11.1439-.148.525.556.6952.07-.3009.679-.2407.647-.5938.657.4677.97.4718 1.383.4691zm-4.929 3.428c.382.117.337-.119.164-.362h.001c-.038-.053-.456-.366-.483-.278-.041.143.631.612.113.401.073.081.134.157.205.239zm-.2.249c.129.176.682.449.593.269 0 .001.001.001.001.001-.037-.075-.503-.239.007-.137-.315-.221-.601-.424-.905-.639-.026.032-.053.06-.079.094.561.29.256.236.383.412zm2.723-3.5958c-.498-.2714-.466-.3203-.757-.6033-.031.0908-.061.1822-.092.2726.284.1103.566.2204.849.3307zm1.028-1.9573c0-.0002 0-.0003 0-.0004.093.018.186.0361.278.0538-.167-.1171-.332-.2336-.498-.3507.219.0006.438.0008.658.0021-.542-.2976-.553-.0781-.981-.2008.082.2317.354.4779.803.7489-.087-.084-.174-.1686-.26-.2529zm-9.637 20.7451c.13-.118.261-.234.391-.352.092.003.168.015.271.012-.582.483-.005.164.039.332.133.514-.937.975.763.529-.256-.282.505-.556.924-1.057-.427.193-1.228.912-1.493.891.299-.472.573-.918.705-1.326.074-.033.149-.067.223-.1-.022.065-.043.13-.065.195.163-.151.324-.299.489-.452-.393.3-.237.023-.714.324-.212.134-.478.369-.665.525-.167-.028-.326-.065-.49-.097-.145.149-.29.299-.435.447.018.044.037.086.055.129zm-9.406-21.518c-.437.411-.395.676.233.4654-.078-.1551-.155-.3103-.233-.4654zm19.672 1.2508c-.078-.0631-.156-.1252-.234-.1883-.194-.0323-.386-.0635-.58-.0958.242.1548.484.3098.724.4643.03-.0597.06-.1205.09-.1802zm-2.477 3.6542c.04-.035.034-.044.03-.118-.001-.029-.042-.293-.244-.3832-.055.0872-.107.1852-.16.2762.124.075.249.148.374.225zm.495-1.1173c0-.0004 0-.0008-.001-.0011-.01-.0494-.051-.1143-.043-.1541-.37-.0528.159.2779-.058.2997-.217.0211-.554-.083.132.4371.131.0293.311.0834.461.1227-.206-.3271.096-.2085.46-.1654-.318-.18-.633-.3589-.951-.5389zm-9.952 18.0513c.383.181.043-.059.041-.065-.001 0-.001-.001-.001-.001.491-.068-.223-.082-.136-.364-.113-.016-.23-.035-.344-.052.144.159.31.333.44.482zm4.916-8.599c-.105-.063-.21-.128-.315-.192-.062.164-.503-.04-.193.305.17-.037.34-.074.509-.112 0 0 0 0-.001-.001zm4.88-7.134c.299-.048.459-.119.228-.465 0 0 0-.001-.001-.001-.014-.021-.263-.105-.312-.149.053-.014.123-.018.182-.029-.176-.107-.351-.214-.526-.321-.004.123-.007.245-.011.368-.096-.074-.191-.148-.288-.222-.099.049-.199.098-.299.146.309.141.617.282.927.424.033.084.065.166.1.249zm-5.153 10.3c-.101-.094-.324-.157-.401-.256-.075-.098.186-.048-.153-.22-.075.03-.159.059-.238.088-.487-.522.152-.393-.577-.817.09.282-.081.374-.38.425.584.328 1.182.449 1.665.869.028-.03.059-.059.082-.09.001.001.001.001.002.001zm15.96-13.3858c.015-.1281.387-.2266.125-.5512-.065-.0799-1.082-.8084-1.225-.8898-.48-.2731-.62-.181-.852-.4999-.03.0448-.074.0798-.11.1213-.316-.1939-.632-.3873-.948-.5802.081-.0286.162-.0571.244-.0851-.105-.0642-.21-.1285-.315-.1928-.119.2019-.461-.1552-.905-.2708-.137-.2087-.274-.4176-.411-.626-.009.0694-.029.1454-.03.2107-.549-.308-.351-.3504-.441-.4289-.505-.4429-.55.3005-1.371-.1103-.035-.143-.065-.2894-.098-.4339-.113-.0295-.227-.0586-.341-.0881.424.5297.48.8814.677 1.3273-.036.0095-.072.0187-.106.0285-.242-.1487-.484-.2965-.727-.4451-.048.0172-.097.0349-.146.0521.869.3679.778.5002 1.176.9531.337.0754.227-.1342.754.1798-.585.07-.214.7611-.847.7923-.157.0081-.842-.3875-.879-.1774.079.0375.216.1149.317.1682-.501.1109-.803.1798-.648.6848-.236-.16-.473-.3204-.709-.4805.161.0045.324.0101.485.015-.381-.2797-.599-.3166-.481-.5117.097-.16.221.0399.367.0654.199.0353-.095-.2037.126-.1617.17.0317.474.2789.464.1006-.465-.1988-.944-.4047-1.414-.6062.079.088.161.1767.242.2653.134.0352.267.07.401.1051-.273-.0081-.531-.0155-.814-.0242.65.3247.345.3088.233.3312-.175.0345.308.197.198.222-.112.0243-.636-.1826-.603-.0028.317.0969.517.3293.785.4613s.399.0377.61.3225c-.35.1115-1.186-.7107-1.436-.6439-.302.0801 1.274 1.0501 1.651 1.192.297.1117.332-.0736.628.0372.328.5567-.636.004-.851-.0575-.784-.2241 1.111.7161.333.5372.344.1935.653.3679.983.5534-.082-.001-.178-.0257-.252-.0119-.595-.5092-.625-.3907-.656-.3389-.05.0812-.301-.2337-.398-.2603-.259-.0706-.21.0814-.471-.1452.122.1045.243.2114.363.3159-.226-.0018-1.784-.599-1.371-.6482-.542-.2859-.327-.0691-.278.0319.049.1009-.288-.095-.253-.0112.14.3343.789.5432 1.259.7744-.457.0712-.521-.2939-.939-.0521-.389-.1779-.686-.5725-.979-.556.626.3955 1.027.7638 1.125 1.0867-.159-.0657-.319-.1321-.477-.1977.528.4506 1.176.7501.326.5285 1.412.6706.505.2466.951.7446.089.101.418.178.531.311.05.06-.194-.005-.063.145.064.075.51.505.211.452-.616-.443-1.271-.594-1.727-1.052-.023.347-.446.355.62.567.159.182.316.365.473.547-.183-.042-.366-.083-.549-.124.534.317.689.397.485.531.175-.009.35-.016.526-.024.11.06.229.113.333.177-.264-.019-.517.213-.699.199-.183-.014-.146-.169-.296-.229-1.239-.496-.388-.022-.652-.017-.156.002-.187-.236-.258-.227-.26.032.311.447.248.574-.32-.243-.646-.488-.97-.732-.055.139-.134.283-.314.338-.07.022-.306-.161-.328-.164-.11-.013-.339.06-.349.076-.073.122.281.33.231.461.058-.03.11-.058.165-.087.589.312 1.178.623 1.767.936-.025.141-.052.281-.077.423-.143-.197-.285-.394-.429-.59-.542-.135-1.086-.271-1.63-.406.245.234.491.469.737.704-.184.145-1.324-.563-.358.114-.118.006-.236.012-.354.019l.45.228c-.128.015-.256.031-.385.046-.473-.367-.974-.748-1.433-1.106-.188.067.247.322.344.404.258.219-.19.098.052.294.084.067.446.103.751.339.059.045 1.176.921.831.87-.219-.129-.484-.294-.722-.437-.22.072.888.812 1.222.978-.272-.051-.358.055-.72-.133-.032.036-.064.071-.096.107.884.454.629.532-.116.117.022-.08.043-.161.065-.242-.936-.469-1.361-.997-.776-.072.423.356.022-.187.335.085.137.238-.099.251.163.554.329.377.823.431.112.459-.889-1.479-.941-.41-1.542-.304 1.236.838 1.479 1.362.867 1.536-.336-.249-.079-.266-.156-.406-.076-.14-.334-.186-.451-.372-.116-.186-.234-.508-.436-.744-.247-.041-.946.06-.225.143.249.392.564.691.497.961-.6-.254-.946-.461-1.093-.244.856.315 1.249.884 2.086 1.292-.095-.268-.928-.63-1.249-.938-.032-.032.25-.067.256-.11.616.556.847.758 1.736 1.148-.134.064-.068.191-.472-.029.16.122.32.244.481.366-.024.032-.058.054-.076.092-.573-.398-.259-.086-.572-.174-.314-.088-.735-.455-.852-.268-.104-.145-.191-.273-.289-.412-.226.034-.453.068-.679.102-.318-.299-.756-.802-1.243-1.076.15.163-.283.172-.309.186-.097.054.234.185.238.195.074.215-.092.262.342.578-.265-.023-.188.119-.26.216-.039.053-.372-.154-.327-.084.303.47.863.512-.218.457-.207-.188-.42-.379-.629-.568-.117-.004-.234-.008-.351-.011.024.057.049.114.073.171.514.295 1.028.591 1.542.887.007.051.014.102.022.154.085-.032.171-.063.256-.095.094.047.187.094.281.14.087.171.177.342.266.514-.18-.102-.361-.204-.54-.305.131.347.279.439-.324.348-.08.152-.896-.158-1.26-.253.082.089.166.178.248.267-.16-.066-.319-.131-.479-.197.184.158.368.317.55.475-.481-.249-.634-.322-.71-.57-.613-.284-.511.134-.379.356.101.169.64.357.693.402.181.15-.071.187-.054.235.068.202-.005.273.039.445.009.034.283.272.289.282.03.07.124.254.122.268-.1.705-1.085-.678-1.251-.065-.167-.118-.334-.233-.501-.351-.034.034-.067.069-.101.103.118.136.421.229.147.206.221.118.442.237.662.355-.143-.024-.283-.048-.427-.071.713.506.736.863 1.632 1.355.304.168.719.163.985.445.018.116-.311-.145-.349-.124-.264.156.247.433.058.45-.224-.109-.454-.221-.681-.332.043.073.086.145.129.218-.15-.076-.301-.151-.451-.226.01-.04.022-.083.03-.12-.587-.281-1.068-.032-.501.094.23.051.212-.109.835.345-.156.051-.323.114-.483.17.141.086.282.172.423.258-.179.097-.672-.37-.979-.546-.028.029-.056.059-.084.089.13.094.267.192.393.285-.222-.126-.746-.403-.614-.191.086.137.702.355.553.436-.339-.208-.732-.495-.924-.42.352.221.67.431 1.041.659-.445-.025.064.374-.455.346-.329-.017-1.332-.36.008.525-.018.115-.346-.114-.44-.131-.444-.08.158.398.182.445.158.3-.111.239.126.546-.253-.155-.494-.299-.741-.45.452.105.468.036.48-.176-.083.025-.168.05-.251.075-.204-.13-.407-.259-.61-.387 1.115-.034-.251-.665-.781-.403.365.26.728.52 1.094.78-.727-.092-.286.317-.325.666-.005.041-.297.033-.338.078-.001-.001-.002-.003-.003-.005-.383-.178-.526-.318-.849-.512-.057.005-.114.009-.171.014.213.206.429.302.299.391-.238-.16-.476-.319-.714-.478-.086.13.132.374-.057.432.106.033.211.067.317.099.081.412 1.661 1.033.818.823.119.086.24.173.359.259.08-.067.16-.135.24-.202.181.102.361.203.541.306-.106.06-.215.119-.321.179l.477.009c.025.155.05.311.075.466-.596-.493-.76-.394-1.398-.799.436.501 1.069 1.062.442 1.087-.125.005-.564-.29-.102.194-.704-.459-1.163-.451-1.84-.876.066-.038.121-.085.194-.116.204.201.858.592 1.108.61.32.022-.035-.419.693.011-.006-.069 0-.126-.002-.189-.193-.086-.387-.172-.579-.258.362.03.318-.108-.103-.436-.198.099-.394.198-.59.297-.018-.041-.036-.083-.052-.124-.538-.149-.909-.53-1.139-.362.215.122.429.245.645.368-.619-.248-.746-.022-1.363-.473.163.184.283.272-.094.106.397.468.963.948 1.755 1.32-.16-.004-.32-.008-.48-.012-.184-.157-.368-.314-.552-.472-.054.123-.108.247-.163.369.604.364.314-.115.821.267.102.077-.169.004-.117.056.568.558.242.008.725.355.007.244.491.46.457.545-.357.416-.914.517-1.096 0-.024-.03.019-.129.172-.358-.181.092-.367.186-.547.279-.082-.117.322-.337.336-.486.009-.094-.738.227-.304-.121.08-.064 1.006-.434.819-.671-.145-.184-.701.249-.977.264-.277.015.418-.717-.574-.242.158-.016.268.017.407.021-.17.132-.338.263-.508.394.156-.282-.212-.268.173-.62-.785.197-.283-.379.512-.761-.073.127-.445.25-.183.216.183-.094.365-.186.548-.28-.108-.137-.163-.244-.665.137-.026-.016-.052-.032-.079-.047.389-.23.78-.461 1.169-.691.028-.053.056-.106.084-.16-.104.019-.208.039-.313.058-.596.399-.575.482-1.058.446.214-.124.426-.248.64-.373-.386-.04-.908.254-1.032-.006-.633.619.745-.037-.747.823.126-.009.253-.018.378-.026-.212.132-.424.264-.636.396-.034-.323 1.141-1.57.099-1.198.103-.087.191-.166.303-.258-.667.16.569-.65-.265-.397-.088.027-1.267.757-1.352.51.159-.085.423-.234.623-.343-.124.007-.252.017-.377.026.139-.092.278-.184.418-.276.103.049.208.099.311.148.01-.096.02-.194.03-.29.287-.047.312-.009.659-.28-.022-.09-.043-.182-.065-.272.092-.064.185-.128.277-.192.31-.129.614-.254.928-.385-.352-.065-.465-.233-1.121-.061-.111.029-.433.339-.198-.036-.201.112-.365.201-.55.304.43-.542.222-.518-.313-.515.461-.068.141-.06.32-.213.124-.106.162.007.3-.089.138-.094.644-.561.779-.49-1.034.964.435.216.066.9.122-.143.245-.287.367-.43.119-.034.227-.066.354-.102-.347-.063-.14-.054-.003-.241.137-.188.208-.425.202-.553-.002-.04-.251.147-.316.091-.045-.038.276-.398-.209-.158-.316.156-1.033.85-1.198.558-.33.118-.157.203-.192.227-.34.23-.71.206-.486-.033.019-.02.333-.115.401-.248.162-.318-.211-.232-.703-.093.497-.302 1.016-.791.728-.859.139-.093.28-.185.42-.278-.061.072-.12.142-.181.214.108-.023.192-.029.315-.061.022-.249.701-.674.906-.906.699-.791-1.033.444-1.319.679.15-.036.314-.082.47-.122-.178.097-.357.194-.536.292-.246-.438-1.176.591-1.63.558.83-.555.82-.765.153-.655-.009-.026-.021-.049-.029-.075.124-.077.316-.188.396-.242.002-.333-1.352.389-1.491.438-.619.218.106-.309.095-.344-.048-.145-.413.015-.337-.194.083-.225.398-.286.61-.462.169-.141.141-.265.31-.42-.148.109-.293.217-.442.327-.296-.014-.572-.005-.715-.131 1.059-.846-.985.133.637-.722.194.085.423.064.873-.09-.004-.127-.01-.254-.015-.381-.19.072-.372.15-.569.219.328-.286.072-.364.143-.492.329-.604 1.016-.872-.208-.544.014.264-.501.561-.313.722-.393.169-.376.022-.779.343-.004-.258.426-.422.731-.7.264-.24.204-.382.6-.6-.223.11-.437.22-.66.331-.071-.128-.144-.255-.215-.383-.194.184-.388.368-.58.551-.109.008-.217.016-.326.024.52-.716-1.072-.514.734-1.442-.031-.182-.262-.074-.642.036.128-.086.234-.159.377-.253-.195-.017.263-.38.083-.391-.179-.011-.664.241.124-.23-.26.076-.481.13-.725.197.161-.137.321-.274.481-.41-.124.002-.249.005-.373.007.363-.246.082-.356.284-.594-.458.151-1.744.896-1.63.562.323-.179.644-.358.966-.537-.093-.008-.186-.015-.279-.023-.106.057-.212.115-.318.172.046.005.092.01.139.014-.189.082-.376.163-.564.245.221-.222.442-.443.662-.664l.759-.057c.165-.255-.116-.203.085-.458-.493.164-.728.344-1.185.657.021-.057.041-.114.062-.171-.465.298-.783.406-.631.58-.145.065-.283.126-.432.195.003-.044-.125.001-.092-.065.088-.179.886-.738 1.185-.901.156-.086-.084.179.132.05.526-.317.162-.397.878-.391.278-.3.009-.176-.155-.234.183-.094.364-.187.546-.28-.112-.007-.225-.013-.337-.019-.868.6-1.438.404-2.03 1.218-.101-.081-.203-.162-.306-.241-.081.075-.161.15-.242.226.076.018.152.037.228.056-.203.043-.405.086-.608.129.136-.253.432-.493.8-.785.381-.017-.048.165-.059.33.252-.151.489-.281.751-.446-.563.243-.295-.179-.296-.24-.003-.187-.457.223-.523.135-.065-.088.179-.378-.38-.159.289-.164.591-.33.857-.476.009-.202-.314.024-.367.034-.866.175-.33-.31-.416-.631.11-.017.211-.027.315-.04.491-.563.385-.314.693-.248-.16-.136.304-.534.39-.744.085-.21-.302-.262-.555-.218-.235.367.094.426.112.671-.306.148-.567.27-.903.434.549-.473.098-.303-.006-.294-.305.025.226-.276-.382-.016.197-.11.363-.203.547-.306-.216-.186-.707-.238-.072-.807-.478.258-.937.508-1.426.769.297-.303-.114-.178-.08-.309.035-.131.434-.318.524-.5.016-.034-.243.066-.094-.08.151-.146 1.366-1.068.21-.427-.054-.08-.141-.135-.208-.206-.018.117-.035.233-.054.35-.316.092-.632.184-.949.276.243-.151.49-.305.729-.454.196-.357-.286-.257-.296-.497-.002-.04.529-.249.325-.314-.203-.065-1.175.36-.957-.077.012-.022.671-.495.139-.299-.121.045-.237.218-.406.258-.17.039-.401-.087-.753.096.123-.069.256-.129.383-.194.039-.067.078-.134.115-.201-.216.121-.432.241-.647.361.388-.479 1.143-1.0468.711-1.1752.357-.0996.715-.2 1.071-.3-.205.1479-.413.2966-.619.4441.163.0804.325.1611.488.2421-.236.165-.472.329-.708.494.052.016.103.032.155.048.175-.112.349-.224.523-.337-.004.094-.01.189-.014.283.98-.7513-.315-.337.583-.8303-.156.0485-.312.0976-.469.1468.423-.2617.263-.253.131-.3244.227-.0969.452-.1896.679-.2899-.361.0651-.442-.1423-.621-.1871-.079-.0197-.362.209-.407.2156-.235.036.227-.4204.167-.4254-.359-.0304-1.457.449-.89-.1377.284.1039.15.0356.569-.1109.131-.0459.528.0708.231-.1905-.036-.0302-1.089-.208-1.523.3007.119-.1958.278-.3867.412-.5809-1.562.6171-.168-.0893.613-.4568-.017-.0368-.029-.0745-.05-.1105-.738.5278-1.011.1656-.693-.1946.106-.1201.427-.1405.487-.3114-.083-.0172-.186-.0317-.278-.0479.538-.2107.644-.4676 1.149-.756-.503.1649-1.495.6416-1.98.9906.163-.198.327-.3963.492-.595.14-.0328.279-.0646.419-.0974-.462-.0713.069-.8128-1.019-.2556-.012-.038-.025-.0757-.037-.1137.173-.1134.346-.2267.519-.3402-.243-.0627-.487-.1246-.729-.1873-.033.1994-.268.3783.02.4012-.237.0638-.476.1272-.712.192.429-.5329.776-.7718.426-.9988-.016-.0102-.62.014-.67.0318-.229.0811-.496.312-.61.3553-.319.1217-1.219.2592-1.327.3286-1.319.8546-.781 1.8288-.701 2.1298.836 3.1219 3.331 5.2069 4.716 7.9889.013.029-.194.133-.196.149-.008.103.346-.006.375.013.059.043-.248.178-.224.22.255.434.662.748.865 1.213.013.03.227-.132.215-.059-.007.039-.315.324-.287.385.099.214.311.319.429.536.065.119.196.278.266.412.032.059-.096.213-.068.273.039.086.358-.121.386-.12.121.003-.236.219-.197.266.073.087.317-.047.367.087.036.097-.039.407-.031.55.429.097.506.487.553.782.027.174.372-.007.405.052.112.209-.23.613-.132.814.129.266.545.328.708.564.027.039-.288.208-.273.252.055.163.107.382.226.486.132.117.612-.089.602.106-.003.057-.39.297-.4.395-.015.157.402.079.486.134.113.077-.342.216-.205.328.006.005.305-.139.309-.1.013.112-.218.233-.121.352.01.011.384.028.395.044.063.1.277.25.254.343-.082.335-.611.414.43.058-.182.213-.368.427-.541.641.174-.177.608-.118.598-.091-.078.225-.489.355-.33.491.711-.711.236.158.272.27.172.539.633.853.905 1.338.091.162.038.481.141.649.023.039.204-.106.229-.073.023.033-.223.123-.188.156.221.204.754.154.358.686.083-.033.143-.068.237-.098-.365.458.477.449.641.533.257.133-.031.37.122.486.202.152 1.001.096-.107.555.048.157.116.295.293.38.02.009.275-.152.284-.149.06.018-.166.166-.162.199.013.089.225-.191.207-.043-.011.079-.198.228-.115.381.053.097.107.194.163.291 1.301 3.696 5.285 2.976 7.834 0 .482-.826.928-1.742 1.38-2.596.034-.065.263.123.293.033.106-.311-.032-1.057.165-1.265.197-.207.536.061.778 0 .047-.012-.178-.11-.166-.138.083-.189-.124-.589-.091-.762.022-.114.349.085.411.033.091-.078-.186-.372-.166-.431.094-.273.462-.287.457-.596.068.051.132.096.199.145.146-.278.29-.557.436-.836.059.051.119.103.179.154.148-.34-.596-.721.914.188.067.008.144.019.206.026-.791-.445-1.255-.97-1.313-1.331-.005-.027.831.295-.082-.215.24.096.403.166.613.251-.244-.21-.484-.419-.727-.628.057-.005.112-.011.169-.015.18.098.363.208.542.299.102-.115.037-.508.119-.598.205-.223.835-.207.431-.705.109-.066.402.231.441.061-.167-.118-.327-.231-.499-.353.856.337.391.036.319-.22-.049-.174.185-.134.208-.26.005-.032-.228-.162-.21-.175.058-.047.476-.036.509-.073.307-.338.463-.69.59-1.107.014-.044.213.139.227.092.022-.075-.351-.238-.346-.286.015-.133.386.079.491-.058.345-.451.391-1.173.661-1.698.009-.016.225.11.237.094.076-.107-.151-.39-.088-.491.102-.167.48-.12.576-.288.189-.33.202-.713.389-1.056.152-.281.319-.505.493-.809.76-1.327 2.228-2.282 2.632-3.827.01-.039-.189-.136-.175-.141.14-.051.403.089-.118-.258.179-.064.609.131.667-.037.031-.089-.633-.393-.23-.342.365.046.632.382.491-.189-.005-.015-.361-.284-.217-.303.143-.019.367.228.556.091.444-.321.428-1.0603.82-1.5047.025-.0278.406-.2131.535-.2184.251-.0099.522.1789.679.0686.121-.0854-.147-.3681-.003-.4677.017-.0115.365.1537.38.0254zm-18.58 17.6228c.309-.217 1.48-.961 1.016-.922-.044.004-.819.568-1.005.549-.034.143-.01.25-.013.374.001 0 .001-.001.002-.001zm11.354-22.7857c-.014.1634-.029.3268-.043.4902.197-.0049.393-.0102.59-.0141-.182-.1588-.365-.3174-.547-.4761zm-8.667 16.3377c0-.001 0-.001 0-.001-.233.046-.466.092-.699.138.122.051.245.103.367.155.241-.004.482-.007.723-.01-.13-.094-.261-.188-.391-.282zm1.823-.372c-.086-.164-.326-.275-.522-.451.001 0 .001 0 .002.001-.051-.046-.068-.134-.064-.162.139.091.274.184.41.275.463-.002-.541-1.106-1.331-.882.185.096.369.193.554.289-.196.225.032.733.951.93zm-5.166 4.483c.467-.558.552-.699-.005-.728-.147.134-.293.268-.439.402.196-.056.39-.111.586-.166h.001c-.175.113-.35.225-.525.337.127.051.255.103.382.155zm9.516-13.009c-1.146-.742-.47-.328-.835-.31-.127.006-.301-.171-.356-.154-.304.092.478.565.916.758.094-.098.185-.197.275-.294zm3.245-5.0549c0-.0001 0-.0002 0-.0003-.285-.1715-.41-.1355-.63-.3842-.039.0699-.077.1405-.116.2108.039-.005.077-.011.115-.016.089.0752.178.1511.267.2262-.345-.1666-.166-.0326-.097.1041-.343-.2243-.685-.4486-1.027-.673.056.1454.113.2913.17.4367.088.0525.177.1051.265.1576-.132-.0339-.265-.0688-.398-.1027.102.0701.202.1393.304.2094-.103-.0081-.206-.016-.31-.0247.251.1605.412.14.26.2525.291.1066.581.2128.872.319.109-.238.217-.4767.325-.7154zm-4.512 6.4119c.193-.22-.035-.258-.653-.538.218.179.435.359.653.538zm-6.868 13.104c-.441-.158-.877-.314-1.305-.462-.308.018.335.585.684.639.419.064.116-.296.621-.177zm.23 2.843c.288.073.665-.369.918-.569-.473.206-.474.114-.59.033.032.121-.377.525-.33.537.001 0 .001 0 .002-.001zm.991-5.995c.054-.066.207-.073.109-.216-.393-.2-.12.129-.633-.29-.036.041-.072.082-.109.121.251.106.403.246.632.384.001 0 .001 0 .001.001zm3.808-7.804c.37.402.161.317-.234.279.356.233 1.07.418 1.267.39-.344-.223-.689-.446-1.033-.669zm-15.567-6.2568c-.45.3045-.366.5903-.156.6348.061-.0549.123-.1105.185-.166-.01-.1561-.019-.3127-.029-.4688zm11.034 19.4848c.024.011.045.022.062.035-.005-.022-.024-.035-.062-.035zm-6.38-6.355c-.408.314-.658.224-.362.338 0 0 0 0-.001 0 .196.076.244.09.354.201.541-.375.591-.758.919-.459.004.004-.34.189-.26.221.025.01.336-.092.467-.051.042.014.251.178.088-.116.401-.22.793-.467 1.177-.688.046-.178-.779.182-.83.051-.073-.196.659-.739-.389-.18-.166.296-.024.557.614.234.091.141-.391.475-.709.502.029-.685-.832.297-.681-.376.14-.087.284-.194.42-.269-.581.156-.661.479-.807.592zm1.699.417c.252-.261.507-.523.76-.784-.492.284-.907.587-1.106.883.116-.033.231-.066.346-.099zm-4.077-7.364c.26-.167.487-.342.727-.513-.241.104-.817-.395-.856.05-.005.065.63.073.129.463zm14.261-.675c.137.177.275.354.412.531.179-.047.361-.092.542-.138-.318-.131-.636-.262-.954-.393zm-6.219 13.173c.008-.037-.42-.147-.291-.236-.289-.044-.537-.074-.81-.113.159.127.317.255.475.382-.123-.044-.247-.087-.371-.131.261.134.516.266.781.402-.457-.464.18-.142.216-.304zm3.568-3.89c-.536-.346-.99-.318-.955-.582-.385-.169-.613-.214-.718-.107.127.1.253.199.38.3-.372-.212-.529-.259-.834-.341.001 0 .001 0 .002.001-.137.174-.007.234.577.632-.228-.4.332-.085.743-.031.282.038.25-.145.805.128zm-11.233-7.939c.384-.411.892-.534.251-.501-.109.084-.217.168-.326.253.024.083.049.166.075.248zm9.748 6.145c.844.509 1.432 1.026.029.247-.208-.293.543.225-.029-.247zm-2.935 7.892c.048.06.146.063.273.029h-.05c-.217-.216-.686-.463-1.069-.618h2.189c.074-.058.142-.115.2-.167-.184.085-.369.17-.552.255.054-.09.108-.18.161-.269-.383.257-.768.514-1.152.77zm6.429-11.781c-.721-.16-.22-.403-.678-.489-.366-.068.167.428.583.596.032-.03.064-.067.095-.107zm-.816 1.011c-.633-.408-.469-.253-.265-.337.059-.024.013-.51.469-.053-.071.123-.136.258-.204.39zm-6.336 7.316c-.285.161-.755.786-.58.73 0 0-.001 0-.001.001.478-.154.377-.468 1.03-.683-.668.027.526-.769-1.098.193.02.2.314-.07.649-.241zm-11.977-19.9532c0-.0001 0-.0003-.001-.0004.024.0101.525-.0835.659-.1846-.225-.105-.481.0846-.126-.3396-.15.0747-.295.1482-.447.2229-.048.1148-.202.2515-.085.3017zm4.548 8.3572c-.037.108.339.048.364.133 1.045-.917-.218-.562-.364-.133zm19.16-5.7349s-.001-.0001-.001-.0001c.001.0003.001.0006.002.0009 0-.0003 0-.0005-.001-.0008zm-15.553 10.3489c-.081.036-.151.069-.21.101-.005.004-.011.007-.016.01.074-.037.149-.074.226-.111zm3.59 6.381c-.46.118-.877.849-.658.881.176-.112.339-.208.535-.347-.523.174.2-.554.123-.534zm3.243-1.114c-.157.297 1.624.821.386.086-.024-.014-.38-.092-.386-.086zm-2.083 3.502c-.431.347-.642.271-.423.462.13-.057.261-.114.392-.171.01-.097.02-.194.031-.291zm3.035-.413c-.475.214-1.142.296-2.309-.695.058-.004.115-.009.173-.012.639.363.35.06.416-.101.265.124.371.075.595.183.432.21.669.474 1.125.625zm7.881-16.05c-.112-.057-.224-.114-.335-.171-.156-.012-.312-.025-.468-.038.214.111.428.222.642.333.054-.041.108-.082.162-.124zm-15.371 11.92c1.176-.723 1.023-.48.555.104-.185-.034-.37-.069-.555-.104zm10.399-2.031c-.335-.204-.669-.407-1.004-.611.426.079.801.327 1.216.647-.07-.012-.141-.024-.212-.036zm1.185-1.719c.041.093-.218-.092-.216-.083.069.214.184.305-.116.347-.083-.021-.17-.046-.256-.069-.669-.485-.249-.315-.577-.714.228.169.456.338.685.508-.001-.117-.001-.234-.002-.351.081.033.161.065.243.098.078.087.169.182.239.264zm3.865-9.0179c.021-.1014.041-.2039.062-.3053.178.0981.356.1969.533.295-.198.0033-.397.0069-.595.0103zm-15.915 10.7029c.059-.043.117-.085.178-.128-.078.045-.134.088-.178.128zm-9.076-14.8023c-.178-.0259-.178-.2117-.265-.3029.445-.2454.478.0943.8.0351-.07.0607-.46.2789-.535.2678zm14.289 22.9863c.234.103.466.204.699.307.01-.072.019-.145.03-.218.18.102.363.205.543.307-.383.125.17.364.606.787-.625-.394-1.251-.788-1.878-1.183zm13.406-20.9425c-.229.1173-.495.0528-.973-.3638.162.0052.324.01.486.0152.163.1163.325.2326.487.3486zm-20.995 9.5775c.11-.273-.614.142-.299-.245.181.005.363.01.544.015-.082.076-.164.153-.245.23zm2.455 8.842c-.29.079.834-.735-.156-.411.238-.197.474-.37.71-.557-.294.14-.593.279-.883.419-.001-.001-.001-.001-.001-.001-.002-.223.413-.317.709-.493.122-.073-.157-.079.135-.195.5-.199.381.207.944-.117-.236.017-.182-.244.223-.41.444-.181-.152.38.25.287-.985.37-.53.517.181.154-.426.487-.738.445-.82.246-.464.418-.274.087-.73.314-.198.269.254.541-.562.764zm8.971-.866c-.106.105.084.474-.412.302-.289-.1-.378-.412-.864-.513.11-.099.286-.034.632.193.059-.003.117-.007.175-.01-.063-.053-.124-.106-.187-.159.156.07.311.14.466.211-.012-.047-.024-.093-.037-.14.076.039.144.071.227.116zm-14.004-12.494c.015.037.031.073.046.111-.09.047-.183.095-.275.142-.073.038-.146.075-.218.113.264-.126.78-.203.55.022-.115.113-.643.311-.641.508-.037-.122-.029-.259-.048-.387-.138.092-.277.184-.415.276 0 0-.001.001-.001.001-.052-.016-.106-.032-.158-.048.386-.246.773-.492 1.16-.738zm16.432 8.222c-.348-.044-.517-.088-.939-.406 0 0 0 0 0-.001.226.072.453.144.679.216.087.064.174.127.26.191zm-13.564-.677c1.58-1.246.849-.07.2.161-.03.011.004-.247-.2-.161zm6.245 8.689c.023.069.047.138.071.207.244.693.991.558 1.468 0 .006-.007.012-.013.017-.02.092.063.184.126.276.188-.668.78-1.713.969-2.053 0-.121.058-.242.116-.363.174.194-.182.39-.366.584-.549zm14.772-20.0254c.432.3457.495.631-.072.4251-.032-.0826-.065-.1653-.098-.2479-.111.0563-.228.1082-.336.167-.663-.3756-.219-.2599-.31-.5229-.015-.0413-.743-.6701-.095-.3681.133.0622.123.2784.558.3755 0 .0673-.031.1073-.043.1644.155.0941.31.1882.465.2827-.022-.0919-.046-.1839-.069-.2758zm-10.352 16.9824c-.062.192-.338.061-.824-.172.099-.049.197-.099.295-.148.176.106.352.212.529.32zm9.619-15.363c.022.138-.334-.121-.428-.125-.353-.013-.139.24-.39.283.079.033.152.064.228.096-.066.853-.723.006-.353-.313-.135-.091-.271-.181-.405-.271.349-.037.681-.065 1.348.33zm-19.054 11.984c-.093.043-.616.432-.424.158.763-.568.448-.176.786-.318.059-.078.116-.156.176-.234.345.064.167.205-.473.478-.043.018.027-.127-.065-.084zm-1.15-1.061c1.19-.723.791-.162.412.045-.035-.025.154-.17.042-.154-.111.015-.398.168-.454.109zm4.403 6.948c-.01-.004-.559.215-.158-.006.991-.452.492.079.146.236-.018-.069.1-.191.01-.229.001 0 .001 0 .002-.001zm17.471-20.4572c.031.0229.13.3229-.073.2373-.224-.1035-.458-.2256-.687-.3382.263.0174.225-.2759.76.1013 0-.0002 0-.0003 0-.0004z" fill="#000"/></svg>