<svg fill="none" height="217" viewBox="0 0 140 217" width="140" xmlns="http://www.w3.org/2000/svg"><path d="m117.499 17.7577c.094-.4157.459-.9288.62-1.4033.673-1.9875 1.036-2.6883 1.679-4.4758.955-2.65018 3.222-10.69394 4.512-10.28774v.00003c.012.004.025.00876.037.0144.237.10537.292.86746.538 1.05561.246.18798 2.063.67815 1.861 1.67238-.307 1.43733-1.822 4.63987-2.037 5.39054-.146.51328-.18 1.19108-.356 1.85078-.568 2.1272-1.034 3.1873-1.187 5.217-.471.6824-.943 1.3648-1.415 2.0472-.203 1.0204-.982 2.4184-1.154 3.023-.141.496-.047.8423-.2 1.3573-.17.5781-.648 1.3978-.947 2.4526-.492 1.7289-.107 2.1857-.37 3.2332-.273 1.0862-1.057 2.6618-1.317 4.0758 0 .1873-.001.3747-.002.562.158-.0845.317-.169.475-.2535-.16.7029-.499.9202-.702 1.5484-.239.7392-.125 1.1906-.283 1.6888-.13.408-.491.9029-.646 1.4362-.228.7771.095.6932.014 1.1245-.032.172-.85 3.2834-.902 3.457-.404 1.3183-.809 1.3165-1.172 2.3548-1.004 2.8804-1.647 5.9596-2.383 8.6851-.328 1.217-.744 2.4635-1.181 3.6426-.349-2.184-2.4 1.7592-.431.6635-.63 1.2663-.529 2.3369-.995 3.5789-.301.8032-.684 1.3041-1.047 2.4725-.641 2.0735-.773 4.5214-2.013 4.7851-.581 2.4886-1.626 4.473-.973 5.6417-.141.6446-1.2 2.0761-1.497 2.7552-.28.6424-2.138 5.6637-2.415 6.4937s-.753 2.2857-.893 3.0141c-.177.9146.592 1.8353-1.03 3.0519-.4849 1.8562-.7224 2.4972-1.3891 4.1556-.1207.3003-.2989.2824-.3557.4621-.1167.3703-.1918 1.0393-.3851 1.7051-.318 1.0949-.8654 1.6044-.2898 1.6526-.1358.7451-.2716 1.4902-.4074 2.2353-.183.2191-.366.4371-.549.6561-.0077.419-.0155.838-.0232 1.256-.6359-.695-1.0271 2.147-.3048 1.412-.5989 1.338-1.1977 2.677-1.7966 4.016-.8228-.473-1.0636 3.018-.4969 2.896-.0508.159-.1016.318-.1524.476-.6737 1.318-.8844 2.657-1.5769 4.303-.6924 1.647-.7283 1.461-1.2975 1.848-.1025.407-.205.813-.3076 1.22.4543 2.446-1.3588 1.467-1.6344 5.323-1.0618.925-1.5843 3.866-1.9623 5.806-.044.226.0908.272.0412.576-.1229.741-.8685 2.497-.4104 2.573-.3245.587-.649 1.174-.9735 1.761-.0817.537-.1635 1.075-.2453 1.612.1378.041.2755.081.4132.122-.7918.884-1.1235 2.562-1.4872 3.327-.0728.152-.2725.126-.4799.605-.2434.559-.5272 1.654-.8034 2.324.1248.334.2496.668.3744 1.001-.2749 1.268-.9636 1.527-1.2346 2.237-.0485.128-.758 2.517-.7866 2.649-.1786.812.0978.928-.2075 2.22-.5654 1.713-2.3903 2.033-3.4324.56-.2803-.331-.6247-.787-1.0642-1.436-.3176-.469-.4489-.939-.7443-1.357-.5217-.738-2.4369-2.713-2.8521-2.676-.2829-1.149-2.1563-3.414-2.56-4.188-.1212-.235.0748-.45-.3476-1.134-.3422-.554-1.5112-1.773-1.9651-2.462-.4809-.732-.471-1.125-.6878-1.452-.2051-.309-.5623-.471-.8582-.88-.9212-1.278-1.5086-2.614-2.2363-3.624-1.0519-1.461-2.4505-2.411-3.5423-3.479-.1899-.325-.3067-.694-.5364-1.012-2.8383-3.932-5.9711-8.418-8.7333-12.423-1.2828-1.859-3.9576-6.857-4.1246-4.882-.6452-.501-3.579-5.423-4.211-6.305s-1.326-1.441-1.8305-2.128c-1.5222-2.0754-2.4528-3.6395-4.4594-6.0536-.5188-.6232-1.2515-1.1622-1.5308-1.5515-.1603-.224-.2782-.4911-.404-.776l4.3533-.8034c-.1567.3031-.324.627-.4345 1.0021-.5018 1.7105-1.2836 4.9397-1.7741 6.5783-.0901.299-.3445.3438-.5316.7561-.7293 1.604-1.2138 3.492-.4028 3.353-.9907 2.041-1.155 4.132-1.6709 6.132-1.0924 4.229-3.3356 11.862-4.025 15.617-.4345 2.367-.0952 2.395-1.2954 5.729-.2664.74-.5535 1.471-.8753 2.369-.7551 2.104-1.8859 3.917-1.6091 5.751-.8324 2.34-1.2143 4.279-2.309 5.885l.2736.747c-.0755.294-.1511.588-.2266.882-.1655.053-.331.106-.4965.16-.605 2.088-.7457 4.908-1.23 6.683-.8113 2.977-3.1092 10.588-4.0624 13.361-.5061 1.472-.2263 1.634-1.0782 2.325-.0475.347-.095.694-.1425 1.041.0791.247.1581.494.2371.74-.5143 1.925-1.3418 4.15-1.8348 5.984-.898 3.34-1.8794 8.456-3.031 11.743-.2891.824-.853 1.8-1.0724 2.624-.3195 1.2.0664 1.617-.3358 3.14-.6942 2.625-2.55292 7.361-3.1811 9.849-.18687.739-.10678 1.129-.22561 1.643-.49643 2.152-.98316 3.897-1.26806 6.012-1.03794 2.073-1.5614 1.729-2.32496 2.252-.57686.397-2.01797 1.703-2.46187 1.823-.31185.085-.49934-.597-.855401-.456.473431-2.692 1.032371-3.726 2.025991-5.747 1.0483-3.946 2.09659-7.892 3.14488-11.837.25869-.315.51738-.63.77606-.945.00035 0 .00071 0 .00106.001.59569-1.464.35233-2.218.47831-3.059 1.2059-8.06 6.0707-23.249 8.4973-31.824.5226-1.848 1.9341-7.938 2.5406-9.139.1574-.311.4317-.335.5372-.682.6975-3.171 1.395-6.341 2.0925-9.512 2.127-6.332 3.6051-13.074 5.298-19.577 2.8441-10.924 5.6564-21.785 8.5109-32.5776.4815-1.8759 2.4656-2.2206 3.6247-.669 4.0383 5.4892 8.0472 10.9746 12.0153 16.4696 2.0229 2.802 4.7593 6.234 6.6486 9.043.7887 1.172.7992 1.892 2.1405 3.21-.079.082-.1579.163-.2369.245 1.0614 1.229 1.8757 1.916 2.9642 3.369.9163 1.223 3.3083 4.483 4.0682 5.6.3948.579.0723.491.4573 1.018.6605.902 2.2993 2.664 3.2069 3.912.8221 1.13 2.0135 3.177 2.6738 4.025 2.3764 3.056 5.1444 6.255 7.4929 9.646.3245.469.6477 1.04.9167 1.529l-3.7513.612c.2329-.505.4322-.919.4821-1.09.1945-.67.0059-.947.1144-1.403.5517-2.319 1.9642-5.76 2.6767-7.979 2.3218-7.23 4.6309-14.937 6.9503-22.134 1.4652-4.547 3.8077-12.132 5.3225-16.278.3267-.8946.5255-.5661.7656-1.3278.2661-.8445.2245-1.3604.3339-1.7597.756-2.7649 2.4693-8.8545 3.4722-11.3737.1913-.4798.5191-.7682.611-1.0626.0469-.1489.006-.5316.1382-1.0036 1.1679-4.1687 2.2019-7.1505 3.5269-11.1782 2.537-7.7143 5.092-16.7738 7.805-24.8627.591-1.7623 1.4-2.8436 1.475-3.0942.163-.5497-.013-.9902.266-2.1203.928-3.7567 2.798-8.6208 3.758-12.1695.475-1.7531.861-4.2462 1.318-5.9749.364-1.3807 1.52-4.5485 1.55-5.2018.019-.3973-.237-.6648-.138-1.1163zm-9.622 47.3512c-.419-.3986-.81 2.2782-.243 1.4066.128-.1963.352-1.3034.243-1.4066zm-50.8269 56.0811c-.1057.107-.2113.214-.317.321.2562.247.5124.494.7686.742-.0438-.212-.0875-.424-.1313-.636-.1068-.142-.2136-.285-.3203-.427zm44.7849-103.7649c-.015.0481-.148-.1028-.19-.0931-.176.0389-.294-.0521-.47-.0489-.26.0047-.764.5472-1.3756-.6581 0 0 0 0 0-.0001-.006-.0118-.012-.0238-.0181-.0359-.1143-.2307-.1889-.5082-.3128-.7718-.1241-.2638-.9812-1.9379-.9542-2.0702.0455-.1793.5241.1186.5723.0701.033-.0332.0043-.2104.0412-.2632.1188-.17.2608-.1019.1976-.5906.1696.1884.3391.3768.5087.5652.0254-.1401.2879.0887.3259.0492.032-.0325-.033-.2164.003-.2447.039-.0326.202.1188.27.0495.11-.1128-.095-.5751-.044-.6728.053-.1013.306.078.332-.1342-.012-.0562-.024-.1125-.036-.1688-.066-.1072-.133-.2143-.199-.3215.027-.0792.166.1387.217.118.06-.0242-.021-.2568.019-.2755.032-.0151.164.1376.199.1057.053-.0455-.088-.2908-.08-.3543.004-.0249.171-.2849.184-.2937.097-.0619.281.2785.378.2672.268-.0325.358-.429.514-.6405.07-.0946.177-.124.299-.1161.301.9571.974 1.4792.152.1597.203.1439.087-.2663.218-.2531.084.0089.225.1781.313.127.156-.0919.056-.7256.602.2348.101-.2694.446.0044.073-.8987.022-.0778.409.3761.5.4187.085.0399.6.0722.672.0523.071-.0199.192-.0634.208-.1673.021-.1292-.389-1.05428.268-.0631.099-.1574.165-.153.359-.0977.036.01.118.1649.132.158.028-.0146.019-.1551.063-.1952.073-.066.288.2385.024-.2592.013-.11259.026-.22514.039-.33768.068.08706.137.17412.206.26118-.024-.12082-.048-.24164-.072-.36246.335.74496.326.20936.047-.17332.184.09559.368.19118.553.28676.404.83412.286-.02504.036-.46362.013-.00562.026-.01125.038-.01687.22.16472.228-.06539.435.01508.207.08048.235.16724.468.52701.02-.03752.04-.07505.06-.11258-.366-1.12483.521.6941.394-.24689.422.60979.467.15419.512-.11835.005-.03167-.059-.15895-.056-.20961.007-.12229.231-.03034.018-.43798.109.09391.218.18781.327.28172.002-.09479.004-.18958.006-.28437-.065-.12791-.131-.25582-.196-.38373.302.39556.343.16389.458.23664.023.01486.115.19009.178.21873.074.03435.132-.06044.213-.03247-.078-.20618-.157-.41236-.235-.61854.042-.15473.338.34448.414.35603.014.00183.18-.12907.184-.14515.037-.12876-.209-.55689.075-.58236.05-.00427.162.1307.203.11755.072-.023.099-.47072-.047-.79775.284.35794.419.08433.541.16715.038.02565.171.27771.258.30166.071.01967.092-.24694.17-.24389.084.00417.215.20602.252.20637.035.0001-.028-.18519.01-.20319.12-.05329.367.17056.462.1288.137-.05977-.004-.63019-.007-.91359.045.01902.127.11477.157.10102.368-.16653.821-.27843 1.238-.35223.193-.0348.961.44679.263-.65309-.045-.23205.615.01933.699-.01451.084-.0339.043-.27362.105-.30879.186-.10592.396-.02475.537-.32324.036-.07766-.024-.35594.013-.37112.044-.01772.211.19647.274.18341.15-.033.356-.23619.504-.25946.027-.00373.141.20074.208.24913.258.18928.391.09381.028-.5592.357.29419.335-.12832.477-.2272.302-.20754.971-.35158 1.111-.77465.089-.26685-.067-.56324.325-.43846.087.02765.184.07537.29.10777.246.07657.678.55141.467-.1775.271.07926.355-.11727.78.38226-.053-.14455-.106-.28909-.16-.43364.021-.0148.042-.0296.063-.0444.073.12652.146.25303.219.37955.179-.04683.112-.68532.251-.75071.232-.11015.927-.20164 1.233-.13627.162.03474.027-.24701.384.29219.005-.05292.011-.10584.016-.15876-.047-.13358-.095-.26717-.142-.40075.145-.08004.419.02575.559-.04772.255-.13426.465-.67496.838-.57908.093.02437.305.24198.367.20694.09-.05075-.105-.491253.007-.558591.195-.115267.823.192891.994.05815.051-.03974-.003-.212808.027-.249676.127-.156315.268-.211533.299-.537956.378.325689.632.863894.957 1.372993.244.38417.841 1.2594 1.038 1.60471.138.2426.256.58551.412.8507-.091.32116-.298.12351-.658-.17842-.295.16905-.59.33811-.885.50716-.103-.13547-.207-.27094-.31-.40641 0-.00033-.001-.00065-.001-.00098-.204-.11345-.057.29646-.076.41566-.176 1.1413-1.69 1.08643-2.399 1.32766-.152.05225-.514.48883-.735.29571-.057-.05037-.181-.27725-.213-.27361-.171.25913-.342.51826-.513.7774-.676-.10702-1.038.44825-1.508.75639-1.273.83388-2.515 1.69313-3.87 2.31118-.262.11908-.5.45685-.807.47288-.128.007-.36-.34093-.357.00473-.052-.09898-.104-.19795-.156-.29693-.059.18132-.021.44718-.144.53858-.104.0766-.396.2436-.515.2563-.062.0073-.137-.1888-.185-.1633-.082.0451-.128.3926-.243.4507-.103.0527-.387-.0733-.451-.0017-.231.256-.382.7328-.731.8028-.097.0188-.328-.1676-.351-.1474-.045.0402.059.2827.039.3305-.099.242-.515.1026-.694.1793-.581.2498-1.126.6551-1.709.8967-.368.1528-.936.4929-1.352.4825-.09-.0023-.202-.269-.261-.2389-.066.0334-.013.2251-.037.2547-.163.2062-.542.6198-.833.5441-.056-.0147-.186-.2021-.208-.1898-.012.0059.032.1567.003.1892-.258.2873-.533.3259-.871.4383-.648.2165-1.216.8265-1.919 1.0092-.153.0399-.45-.3105-.467-.2967-.039.0297.07.3115.017.4214-.176.363-.707.2728-.911.5455-.101.1345-.113.5686-.208.7111-.075.1139-.392.1073-.363.2805.017.1047.151.4012.135.4548zm1.275-6.3209c.216.473.219-.0127.018-.2237-.045-.0475-.075.1009-.018.2237zm9.684-3.90355c-.069-.13145-.138-.26289-.207-.39434.002.06828.004.13656.006.20484.055.07215.11.14431.165.21646.012-.00899.024-.01798.036-.02696zm26.464 12.43135c.045.006-.104.1372-.097.1706.03.141-.062.2524-.066.3978-.006.2158.488.5596-.683 1.236-.011.0067-.023.0133-.035.02-.224.1272-.49.2278-.746.3675-.255.1399-1.881 1.0854-2.006 1.0813-.168-.0129.135-.4524.091-.4858-.03-.0227-.2.0257-.248.0024-.157-.0753-.086-.2028-.553-.0823.186-.1673.372-.3345.558-.5017-.132-.0017.097-.2517.061-.2783-.03-.0218-.207.058-.233.0322-.029-.0285.122-.1853.059-.2314-.103-.0762-.55.1584-.641.1296-.094-.0299.087-.2654-.114-.2571-.053.0177-.107.0354-.161.0531-.105.0701-.209.1402-.314.2102-.074-.0113.139-.1575.121-.1971-.02-.0467-.245.053-.261.0229-.013-.0247.138-.1554.109-.1807-.041-.0372-.28.1141-.34.116-.023.0005-.263-.103-.271-.1121-.055-.0723.276-.2726.27-.3516-.02-.2184-.393-.2388-.587-.3389-.087-.0447-.11-.1302-.098-.2321.922-.3835 1.446-1.0162.158-.1487.146-.1892-.249-.0359-.231-.1461.012-.0715.179-.2124.134-.2787-.081-.1169-.687.0545.248-.5329-.251-.0466.023-.3715-.85.0641-.073-.0074.374-.3928.418-.4738.042-.0765.094-.5096.078-.5663-.016-.0568-.052-.1512-.15-.1501-.122.0007-1.017.4696-.049-.2145-.145-.0603-.138-.1158-.077-.2851.011-.0307.161-.1205.155-.1312-.012-.0219-.146.0056-.182-.0256-.06-.0514.238-.2728-.246.0164-.106.0048-.212.0096-.319.0145.086-.0693.172-.1386.257-.2079-.116.0366-.231.0732-.347.1098.721-.3814.212-.3003-.163-.0143.099-.1667.197-.3334.296-.5.809-.4523-.012-.2342-.439.0341-.005-.0097-.01-.0195-.014-.0293.165-.2057-.053-.1805.032-.3637s.169-.2189.52-.4628c-.034-.0114-.069-.0228-.104-.0343-1.084.4608.681-.5298-.218-.2935.597-.4354.166-.4096-.091-.4091-.03 0-.153.0711-.201.076-.116.0108-.019-.1881-.415.0457.093-.1037.187-.2074.281-.3111-.09.0115-.18.023-.27.0345-.124.072-.248.144-.373.216.389-.3059.17-.3079.244-.4137.015-.0213.186-.1225.216-.1788.035-.0663-.052-.1008-.022-.1725-.199.0939-.399.1878-.598.2817-.145-.0134.342-.3288.356-.3941.002-.0117-.115-.1316-.13-.133-.121-.013-.538.2514-.55.019-.002-.0415.131-.1528.12-.1851-.019-.0572-.443-.0174-.759.1495.351-.2859.097-.36.181-.4735.026-.0346.271-.1806.297-.2563.022-.0614-.23-.0417-.224-.1073.007-.0702.204-.2078.206-.2384.002-.0288-.177.0487-.192.0197-.046-.0924.177-.3287.141-.4018-.05-.1062-.598.0905-.867.1326.02-.0397.114-.1219.102-.1446-.143-.2829-.23-.6447-.282-.9807-.025-.1557.464-.8617-.61-.1282-.222.0693.045-.5145.016-.5797s-.258.0026-.289-.0439c-.093-.1403-.007-.3265-.284-.4021-.072-.0192-.339.0697-.352.0411-.015-.0349.195-.2033.186-.254-.025-.1198-.21-.2635-.226-.3831-.002-.0221.197-.14539.246-.20718.19-.24115.105-.33882-.53.05438.294-.33803-.108-.26092-.196-.3657-.184-.22242-.293-.75888-.689-.81669-.25-.0364-.538.13468-.403-.20941.03-.07635.08-.16369.115-.25566.083-.21592.552-.64104-.149-.36385.087-.23657-.096-.27927.396-.7021-.14.06431-.279.12861-.419.19292-.013-.01524-.026-.03049-.039-.04574.123-.07833.246-.15667.369-.23501-.037-.14244-.646.0018-.702-.10432-.095-.17762-.153-.74299-.078-1.00672.04-.14002-.233.01159.294-.35999-.05.00274-.1.00547-.15.00821-.129.05809-.258.11617-.387.17426-.07-.10973.042-.35251-.022-.45861-.116-.19311-.621-.29281-.514-.6162.027-.08127.242-.28787.212-.3344-.045-.06786-.471.15591-.53.07144-.102-.14603.217-.71135.096-.8349-.035-.03685-.202.03267-.236.01251-.143-.08355-.189-.19318-.498-.17424.325-.35909.847-.64587 1.344-.9862.375-.25698 1.231-.87511 1.568-1.0869.236-.1488.566-.29394.825-.4605.301.031053.105.23072-.197.5717.148.22194.296.44389.444.66583-.133.10484-.266.20968-.399.31453 0 .00018 0 .00036-.001.00055-.116.18532.279.00687.392.0056 1.076-.01226.961 1.25492 1.16 1.8111.043.11971.443.35949.25.57011-.05.05474-.271.18942-.269.21554.239.10623.478.21246.717.31869-.13.57752.382.8009.655 1.1494.738.94278 1.502 1.85723 2.032 2.89802.102.20135.413.35213.415.60563.001.1057-.339.3466-.01.2965-.096.0571-.193.1142-.289.1712.17.0239.424-.045.506.0445.068.0756.214.2957.221.3933.005.0503-.185.1401-.162.1764.039.0615.367.0519.417.139.046.0789-.086.3324-.02.3756.233.1567.68.2162.731.4969.014.0779-.173.2962-.154.3125.036.0315.271-.0885.315-.079.226.0488.076.4146.141.5524.213.4491.575.846.78 1.2972.13.2849.429.7101.401 1.0582-.005.0751-.263.2051-.237.2502.029.0499.213-.0204.24-.0049.189.1066.566.3651.482.6175-.017.0482-.2.1823-.189.1993.005.0088.15-.0484.18-.0286.262.1746.287.3977.379.6636.179.5087.734.8965.878 1.4559.032.1219-.314.4175-.301.43.026.0278.298-.1018.401-.0734.337.0961.229.5503.479.6823.124.0654.536.0153.667.0739.105.0468.085.3119.251.2638.1-.0289.387-.1815.438-.1758zm-5.949-.1821c.458-.2457-.003-.1804-.212.0158-.047.0441.093.048.212-.0158zm-3.301-7.5138c-.127.0756-.255.1513-.383.2269.065-.0111.13-.0222.195-.0333.071-.0558.142-.1115.212-.1673-.008-.0088-.016-.0176-.024-.0263z" fill="#141414"/></svg>