<svg fill="none" height="129" viewBox="0 0 222 129" width="222" xmlns="http://www.w3.org/2000/svg"><path d="m216.58 91.0871c-.271 1.0179-.093-2.3803-.497-.1238-.028-.4705-.056-.944-.083-1.4145.15-.1193.299-.2416.449-.3609.044.6319.088 1.2641.132 1.8992zm1.874.8628c-.427-.5791-.54-2.4191-.934-.4314.146.1579.293.3198.439.4778-.113.69-.227 1.3844-.34 2.0744.056.2482.112.4961.167.7443-.255.316-.51.6292-.765.9452.037-.2806.075-.565.112-.8456-.206-1.1093-.263-2.0963-.301-3.6024-.061.1323-.12.2648-.181.397.103-.7643.206-1.5282.308-2.2893.101.661.212 1.4.306 2.0126.399-.9803.177-2.7093.094-3.6093-.114-1.2255.076-.9485-.003-1.8579-.013-.1451-.162-.1616-.164-.4486-.012-1.4481.067-4.2608.414-2.6159-.045 2.3835.234 4.4162.132 6.7546.402-.6186.538.6133.716 2.2945zm-1.278-43.786c.195.7223.116 2.1934-.019 3.19v.0034c-.03.2193-.289.716-.278 0 .018-1.1672.426-1.7316.149-2.3443.051-.2742.097-.562.148-.8491zm-.024-2.5368c.1-.716.407-.3912.324.5053h.001c-.035.3742-.278-.3603-.031.9814-.192.274-.367.5439-.552.8147-.003-.3286-.008-.6282-.011-.9728.316.2319.17-.6128.269-1.3286zm.281 36.0638c-.284-.1127-.282.3589-.479 1.1618.009-.7578.019-1.5158.028-2.2704.151.3708.3.7378.451 1.1086zm-.044 17.8041v.0034c.044.2484.089.4974.133.7426-.101.148-.202.295-.303.443.095.878.19 1.76.286 2.637-.309-.107-.259-1.681-.475-2.549.093-1.2899.272-1.9116.534-1.9954-.058.2386-.117.4766-.175.7184zm-104.655-82.5058c.086.2934.172.5831.258.8765.039-.3901.068-.7771.114-1.1704-.373-1.0288-.043-1.1254-.066-2.4732-.053-3.1028-.393-3.2571-.2-4.72211.067-.44345.229-1.02969.691-1.71087-.336.95379-.245 1.44298-.169 1.71087.135.50311.355.51181.541 1.60601-.234.3742-.76-1.41549-.87-.2028.247 2.0897.477 4.0991.637 6.4177.04-.0677.081-.1351.121-.2028-.025-.3677-.051-.7323-.076-1.1.108.3967.215.7845.324 1.1876-.245-.5095-.108.7891-.39.6153-.125-.0774-.299-.6513-.419-.9899-.065.8738-.125 1.7701-.188 2.6537-.1-.4579-.2-.9153-.3-1.3699-.003-.3739-.006-.7449-.009-1.1188.001-.0023.001-.0046.001-.0069zm-108.0512 89.0328c-.29184-1.11-.34014-3.126-.01538-4.187.00497 1.397.01042 2.79.01538 4.187zm213.0972-7.3296c-.049.1256-.098.2473-.148.3729-.092-.5546-.183-1.1125-.275-1.6671.143-.1064.287-.2152.43-.3249-.002.5385-.005 1.0806-.007 1.6191zm-.159-35.4846c.008.4058.004.4417-.017.947 0-.0005.001-.0011.001-.0017-.008.2003-.092 1.8763-.202 1.6895-.002-.8321 0-1.7197 0-2.5712.072-.0258.145-.0314.218-.0636zm-.065 9.795v.0034c-.017.3029-.051.5898-.058.9023-.173-1.1252.138-1.3031.05-2.3254-.089-1.0222-.261-1.6539.167-2.5213.063.3225.155.6698.229 1.002-.17 1.4512-.01 1.842.159 3.006-.183-.0226-.364-.0444-.547-.067zm-97.721-68.26016c.277-.2111.587-.00396.619-.00146-.001.00024-.001.00048-.002.00073 2.457-.19551-.32.11685 1.999.14977-.345.05276-.684.10848-1.026.16186-.529-.10181-1.074-.21717-1.59-.3109zm79.822.01978c.023.06147.05.12308.072.18456-1.393-.01429-1.748.22772-2.906.00732.945-.06457 1.889-.12867 2.834-.19262zm18.411 51.42278c.117 1.5449.169 2.6877-.017 4.1713-.001.0011-.001.0023-.001.0034-.012.0856-.14-.3282-.173-.2165.02.3061.049.6222.072.9315-.103.0419-.206.0819-.308.1238.029-.8708.058-1.742.087-2.6159-.06.129-.12.2611-.18.3901-.031-.7417-.062-1.4806-.093-2.2223.169.258.338.5153.507.77.036-.4449.07-.8905.106-1.3354zm-41.607-52.09548c.246.06706-.208.17954.172.23729.381.05702 1.083-.06813.918.12121-.512.02544-1.05.05462-1.573.0813 1.681.34142 3.357.03247 3.383.45408-1.613-.10929-2.939-.05852-4.5.05822.065-.33466 1.626-.62402.643-.93819.316-.00434.648-.01069.954-.01318.001-.00024.002-.00049.003-.00073zm45.516 117.17328c-.025.954.111 3.142-.084 4.348-.048.297-.67 1.285-.752 1.28-.277-.029-.314-1.236-.494.057-.002-.435-.013-.857-.018-1.289-.185.077-.37.154-.555.229.027.525.056 1.052.084 1.577-.061.026-.123.052-.184.078-.002-1.89-.239-.775-.46-1.755-.112.903-.223 1.812-.335 2.712.014-.519.024-1.132.04-1.59-.315-.061-.24 1.032-.298 1.219-.33 1.054-.163-4.315-.621-4.754-.051.858-.101 1.758-.151 2.635-.057-.252-.113-.507-.17-.758.316-1.99.428-4.221.625-6.54-.013-.21-.026-.419-.039-.626-.142.062-.284.12-.426.181-.016-.316-.033-.636-.05-.952.468.932.462-.359.748-1.917.164.829.064 1.851.371 1.781-.236-2.845.097-6.176-.169-8.943-.066-.687-.461-.684-.425-2.299.044.055.122.064.179.099-.189-2.793-.302-4.487-.109-7.39-.142.1676-.285.3325-.427.5001.071.616.143 1.2329.213 1.8459-.234.419-.338-.2-.335 1.638.001 1.506.105.61.175 1.019.095.555-.092 1.042.014 1.638.081.461.275-.038.226 1.165-.251-.483-.51-.977-.764-1.464.056-.293.114-.585.171-.878.067.296.133.588.2.885-.12-1.045-.234-2.032-.359-3.113.363.352.227-.765.184-1.371-.067-.9448.183-.136.141-.7548-.042-.6192-.321-1.287-.261-2.4061.161.5998.306-.2162.455-.0585.149.158.182 1.3418.344.2045-.123-2.1867-.691.1862-.782-1.2907-.111-1.7738.814-2.1959 1.013-1.6672.156.4161.125 1.8477.281 2.267.281-2.564-.274-2.5863-.383-3.0249-.395-1.5932.66-.523.278-2.4097.198.0356.375.0643.565.0997-.036-.3255-.084-.5416-.113-.9349-.384 1.1598-.368.2105-.369-.2768-.001-.7676-.188.4181-.237.2149-.129-.5483-.071-1.4154-.24-.8834.079-.2387.158-.4974.236-.7425-.098-.8968-.922-3.0045-.756-.9986-.306-.1871-.159-.8359-.112-1.3423.046-.5063-.149-.4968-.113-.9419.145-1.7704.478-.6122.739-.3317-.18-2.3381-.299-.049-.419-3.4185-.213-.3257-.44 1.2312-.563-.0653.37-.2388.635-1.1934.758-3.0541-.085-.1807-.171-.3608-.256-.5414.342-1.016.697-.4967.274-2.377.779 1.0095.28.3154.598-1.3681.063-.3419.225.4481.307-.0292.037-.2164-.085-.7417.009-1.2702.047-.258.347-1.4643.205-2.2996-.378.6128-.699-.9743-1.011.3867.077-2.5157-.105-4.2764.41-1.4575.114-.6386.228-1.2777.342-1.9163-.09-.4451-.18-.894-.269-1.3423.31-.0677.397.0003.343-1.7531.073.7608.147 1.5184.221 2.2824.063.0258.128.1321.189.1066-.119-.9358-.171-3.5706-.253-4.2091-.083-.6386-.105.5946-.185.4107-.661-1.5316-.174-1.4102-.287-2.5093-.067-.645-.14.8951-.169.55-.104-1.2796.247-1.8731.251-3.0078-.199.4031-.401.8029-.603 1.1963.011-1.1902.013-2.5168-.051-3.6231-.025-.4342-.173-.1061-.183-.177-.051-.3519-.132-1.7837-.133-1.9353-.001-1.1411.205-1.1736.216-2.2824.017.4352.033.8445.05 1.2701.332.1935.665.3909.999.5844.024-1.0867.048-2.1739.072-3.2639-.111.7965-.222 1.596-.333 2.3925-.269-1.2449-.538-2.4899-.808-3.7348.165-.6482.33-1.2939.495-1.9421-.043-1.7605-.714-1.406-.126-2.2412-.05-.519-.099-1.0382-.149-1.5572.084.0742.168.1476.252.2217-.051-.6257-.103-1.2511-.155-1.8768-.297.6579-.609 1.3028-.897 1.9542-.065-1.2313.187-1.255.25-1.4386.167-.487-.058-1.4537.096-1.8407.053-.1308.219 1.0758.41.66.037-.0813.74-1.6968.577-2.7276-.127.0193-.283.099-.422.1409-.077-1.3863.588-2.0933.774-1.9095-.131-.7386-.141-1.818-.345-1.9696-.005-.3774-.01-.7519-.015-1.1292.496.3931.406-1.1807-.021-1.2839-.011.6483-.022 1.2973-.032 1.9456-.523-.4903-.839 1.4797-.354-2.6193.272-.7838-.037 1.3931.166.7545.119-1.1094.02-2.1509.209-3.2054.237-1.3123.464.3023.163-2.7551-.754 6.7439-.51-.925-.744-4.0923.745-.8708.981-3.5456.76-7.2289-.208.3838-.101 1.5426-.169 2.2103-.068.6675-.191-.0547-.288.7768-.097.8319-.229 2.5988-.375 3.4409-.118-.7132-.395-4.2338-.062-1.9061.206-1.7377.417-2.5538.455-4.7075-.323-.645-.525-.5973-.534-2.6967.45 1.2417.762-1.1439 1.226-.6187-.108 1.4888-.559.6567-.775 1.5176-.022.0883.091 1.4754.083 1.7978.406-1.3998.557-1.8838 1.039-1.0226-.042-.9902.019-1.6061-.212-1.6964.1-.2064.2-.4139.3-.617-.002-.3223-.012-.6123-.01-.9539-.274.3716-.198-.1193-.232-.6615-.009-.16252-.032-.32565-.076-.47524-.107-.35123-.214-.2759-.312-.35671-.111-.07674-.159-.31637-.444-1.19515.122.60996.152 1.17183.103 1.74989-.139-1.14528-.618-2.2201-1.332-3.05885.354.74836.485 2.34522.162 2.34047.075-.48217-.767-1.75805-.905-1.84091-.4-.47215-.062-.3167-.085-.35695-.588-.84171-1.371-1.19846-1.616-1.60371-.771-.21274-1.33-.41617-2.176-.42946-.016-.00001-.031.00029-.046.00087-.469.01598-.384.19745-.683.16152-2.057-.24836-.097-.50175-4.066-.01941.48.1366.954.27633 1.435.41417-.448.05154-.894.10336-1.342.1549-.3-.02484-.598-.04987-.898-.07471.007-.29616.015-.59295.021-.88911-.329-.01615-.659-.03183-.988-.04797.564-.02919 1.13-.05834 1.694-.08752.052-.05212.1-.10425.152-.15637-.839-.08072-1.675-.16217-2.513-.24352-.016.10303-.032.20678-.048.3098-1.89-.14343-1.935-.23065-3.732.0531-1.383-.0031-2.51.42766-3.31.60898-.287-.05774-.574-.11621-.864-.17394-.184.08569-.37.17101-.554.2567-.364-.11921-.734-.23845-1.098-.35704-.203.27059-.308.35507 1.114.45005-.487.33655-2.991.18808-4.01.07507-.773-.08576.085-.36647-.012-.40061-.323-.11601-1.597-.01591-1.865-.03516-1.132-.08009-1.925-.06607-2.947-.12817-.199-.01242-.756-.19033-.803-.19591-.368-.03043-1.275-.11689-1.379-.11938-5.323-.1328.365.63904-4.585.55771.148.10179.285.20289.43.30468-.374.0062-.752.0121-1.126.01831-.474-.08507.099-.23978-.842-.11499.061-.12542.123-.25091.187-.37571-.41.06768-.804.13482-1.224.2025-.658-.43527-3.06-.53412-2.889-1.04511.058-.17387 1.761-.35227.861-.53794-.731-.03655-.236.1711-.534.182-2.155.07576-2.03-.21531-2.91-.13769-.139.12474-.284.25193-.426.37791-.332-.03662-.665-.07324-1.001-.10986-.077.08383-.158.16775-.235.25158.313.00559.665.01125.952.01684-.4.32469-4.076.47053-2.674.19372.571-.11238 1.616-.06463.955-.44822-.983.05526-2.099.11172-3.135.16698-.032-.08258-.062-.16532-.094-.24791-1.395.05346-.126.38366-.129.56064-.319.00497-.642.00932-.961.01428-.135-.08002-.264-.16378-.405-.24132-.013.12735-.192.42335-1.143.31346-.612-.07152.351-.3928-.815-.34825.087.19867.508.44064-.791.50462-.129-.20735-.307-.3973-.407-.61521-1.615.1992-2.351-.121-4.247.11059-1.203.14656-2.851.66677-3.628-.13476-.88-.02109-.601.17851-.861.22338-1.229.21237-2.143-.1677-2.372-.19005-1.46-.1433-2.115-.01174-3.305-.19115.064.1484.1.28888.151.43357 1.09-.2223 1.642-.21187 3.171-.16406-.512.0298-1.025.06029-1.538.09009.084.12043.167.24089.247.3607 4.729-.47441 3.626.27513-.338.43906-.342-.22288-.696-.44517-1.035-.66867-2.29.33779-3.367.04455-5.957-.02563-.308-.00803-1.429.12036-1.911.1267.008.00086.016.00171.024.00257-.3.21047.106.30733.155.49545-.261.0236-.523.04709-.784.07068-.583-.1434-.378-.26118-1.526-.22704.155.1428.307.28564.462.42845-1.258.00496-2.081-.15019-3.252-.08313.197-.05402.391-.1082.588-.16222-2.548-.13786-.52-.97745-2.446-.55955-.122-.07324-.241-.1472-.364-.22044.793-.01801 1.587-.03546 2.377-.05347.016-.10366.033-.20687.046-.31053-.848.03105-1.7.06306-2.548.09411.619-.06954 1.242-.13918 1.861-.20873-.984-.04967-1.968-.09937-2.951-.14904 1.044.38118-.31.42779-.055.80526-1.742-.3142-3.11-.72838-5.809-.46323-.536.05282-.245.3166-1.764-.0044.368.41971-1.535.61666-1.291 1.01582.529-.01924 1.078-.03135 1.59-.05493-.583-.13846-.68-.51937.207-.63241 1.132-.14406 2.783.11993 2.715-.30284.451.01986.871.03158 1.31.04833-.181.10488-.357.21042-.535.31529 1.248-.16442 2.032-.11095 2.632.15344-1.487.06084-2.97.12104-4.457.18126.219.01799.441.03611.66.05347-1.126.27011.035.52596-2.064.58371.013-.12354.023-.24716.036-.37132-.765.33035-2.857.32856-2.19.70858-.632-.11672-.761-.19055-1.119.01429-1.667-.28875-2.738-.65388-2.145-1.08979-.619.07015-1.238.1404-1.854.21056.358.11919.716.23784 1.074.35703-.654-.00452-1.311-.009-1.967-.01335-.368-.00287-.735.0328-1.092.10645-.11-.21451.663-.3383 1.092-.36033.264-.02215.403-.06288.176-.17659-.033-.01659-.097-.01951-.176-.01544-.213.00912-.527.10016-.633.08751-.771-.08207-.579-.13001-.222-.20808.352-.07305.853-.08392.616-.22513-1.191.0393-1.341.02412-1.599-.00587-.226.02042-.722-.01847-1.978 1.15659-.133-.02453-.275-.04169-.407-.0614-.899.84459-.648.9432-1.154 1.81505-.288.53957-.971 1.20479-.822 1.98111.012.06249.177-.14772.296-.1189.131.02843.138.27126.131 1.21063.002.10344.002.2152.001.33591-.017 1.8665-.366 1.0896-.49 2.0986-.123 1.0095.361 3.3189-.188 3.9994.073-.5288.112-1.2023.172-1.7892-.107-.2386-.213-.471-.319-.7064.138 1.3417-.025 2.7286.23 3.6317-.389 1.79-.028 3.7919.412 3.25-.064-.5891-.256.0518-.133-.7665.102-.0838.204-.1722.307-.2561-.013 1.3933-.01 2.361-.322 1.7256-.008.2161-.015.4302-.023.6462.226.0387.453.0731.679.1118.026.258.051.5171.076.7751-.049.2869-.099.5744-.15.8645-.357-.3902-.369-1.055-.569 1.1447.123.0064.246.0159.37.0223-.157 1.8415-.456 1.8901-.445 4.2023-.429-1.7739.331-2.7444-.529-2.7379.056-.4451.113-.8938.17-1.3389-.125-.0678-.25-.1349-.375-.1994.066 2.3897.887 6.3594.343 7.9594.066.1934.124.3876.195.5843-.328 1.5675.409 2.2444-.016 3.8345-.044.164-.737-.1793-.712 1.8906.09-.0516.241-.0784.355-.1204-.007.0562-.014.1124-.021.1685-.049.3436-.132.6749-.244.9895.068.0829.134.173.198.2622.118-.4045.188-.8249.208-1.2517.012-.2914.025-.583.037-.8748.013.291.026.5829.039.8748.016.3166.004.635-.034.9501.253-.7346.216-1.1215.427-.6246-.025.7055-.178 1.4097-.453 2.0648.022.0895.042.18.059.2721.305-.2454.592-.5352.859-.8575-.69 1.9436-2.106 3.2813-3.569 3.6541-.124.0315-.014-.1003-.051-.1225-.043-.0307-.194.0961-.963.4486-.058-.1023-.126-.1793-.182-.2738-.591.2767-1.108.3847-1.577.4115-.973.0521-1.746-.0425-3.177-.1984 1.381.2168.149.0758-.203.1919-.24.08.7.0682.593.152-.106.0832-1.328.4192-.283.4596 1.313-.3531 2.136-.3087 3.07-.2263.906.0645 2.105.051 3.469-1.004-.398.3674-.856.6924-1.356.9547.268-.0275.51-.0651.8-.1321-.972.3654-1.246.3555-1.347.4121-.107.0415-.054.0895-.468.2156-.289.0847-.674.1605-1.098.1913-.687.0583-1.478.1032-2.077.1222-.289.0092.016-.1453-.637-.1596-.445-.01-1.662.219-1.943-.0509-.183-.1758 1.771-.6596-.931-.6585-.509-.1722.787-.1187.815-.1395.235-.2049-1.426-.359-2.1935-.2025-.0622.0135.544.1732-.1151.2358-1.5643.1497-2.4677-.0334-3.4804-.2812-.1097.2906-1.4261.6377-3.0645.5303-.0838.0831-.1637.167-.2475.2508.2544-.044.5087-.0874.7631-.1315.2774.0522.5713.0902.8422.1516-1.6477.0715-1.8808.472-2.6709.6185-2.7039.5006-1.0652-.5583-.5775-.7408.3516.0739.6915.1564 1.0398.234-.0387-.1012-.0779-.2032-.1134-.305-4.0476.0031-.6164-.657-2.6709-.8452-.5289.498-2.0378.546-3.9599.23-.2129.0025-.4265.0031-.6394.0062-.0354.0726-.0349.1836-.0928.2314-2.3157.0845-2.7282-.6824-2.9476-.755-.9739-.3223-1.7323.1236-2.0195.1274-1.2094.0155-1.5608-.1824-2.7121-.0974-1.2382.0919-.3915.2438-.7682.3797-.3022.108-1.2791.1272-1.6827.2392.1604-.0916.3386-.1813.4985-.2732-1.2834-.1248-2.3322-.2464-3.7898-.2769-1.6447.6698-3.0441-.46-2.4767.4563 1.3805.0627 2.1523.1671 2.8909.4006-.9061.0298-1.8129.0588-2.719.0886-.2644-.1005-.4521-.1985-.7648-.301-.6772.2136-2.2471.122-2.8634.1846-2.4387.2481-2.1797.5466-3.6295.2641-.2466-.0513-.5511-.1098-.953-.1397.3839-.0764.6905-.1147.953-.1444.9861-.1061 1.3021-.2824 2.7805-.2503-.4064-.2123-1.3635-.1683-.7442-.4229-1.8221.0627-1.2331.29-1.9422.4918-.0299.0085-.0614.0166-.0941.0244-.6379.1215-1.6709.4014-1.5435.6013-.1467-.087-.273-.1732-.4313-.2493-1.1051.3881-2.0881 1.1126-2.7883 2.0509.1954-.477.4606-.9426.7938-1.3762-.3437.2135-.671.463-.9744.7443-.7498 1.1012-1.4322 2.7114-1.4241 4.1978-.026 1.8801-.0238 3.3453.5602 2.8847.0323 1.3997-.0949 1.5748-.2867 2.3358.077.0838.141.1653.2267.2492-.0806.9028.2084 1.5959.1332 2.3924-.0745.7965-.3475.9942.1114 1.1103-.1316.516-.241 1.029-.3633 1.5417.1042.3094.2073.6185.3109.9247-.0546.4837-.109.9685-.1637 1.4523.219.2585.1246 2.1606.2717 2.9991-.2361.796-.9795.7742-.8462 2.6468.1843-.0483.3682-.096.5525-.1443-.0384.4288-.0768.8586-.1153 1.2907-.0602.0258-.1204.0482-.1805.0739.0186-.2192.0371-.4355.0564-.6548-.1019.1903-.2032.3767-.3051.5637.1509.6547.3018 1.3101.4526 1.968.1143-.8868.2286-1.7739.3428-2.6606.1354 1.1127.0003 1.8872.1512 2.8548-.2545.8416-.4012.5308-.6774.189.0236.3128.0463.6292.0699.9419-.2763-.2063-.4409.3227-.4185-1.5056-.0788.1257-.154.2539-.2359.3764.0124.2999-.0542.4944-.0238.8233.0832.8966.5685 1.584.7386 1.5227.0892-.033-.0813-.9171.0447-.8817.3073.0875.1693 2.1155.4779-.8095.1956.9708.0481 1.1877-.0084 2.2584.1024-.0838.2041-.1652.3065-.2458-.0472.4965-.0942.9937-.1414 1.4902-.5259-.6902-.7234 2.9705-1.1835-.3249-.0215.8885-.0432 1.7743-.0657 2.6598-.0021.0775-.0059.1545-.0113.231-.0197-.0775-.041-.1545-.0639-.231-.0308-.1149-.0617-.2298-.0927-.3447.0285-.4385.0566-.8745.0845-1.3131-.0987.5159-.1968 1.0327-.2955 1.5486.0038.0371.0075.0735.0114.1092.1026.966.1295 1.4068.1794 1.9565.549-1.2189.2126-.8791.2434-1.8784.1464.0385.2828-.0092.435.0892-.2421.5548-.5309 2.2965-.7975 2.6677-.6454 1.1073-.3397.1118-.8421.7645-.5111.6232-1.2538 1.3662-1.9909 1.3652.0801.1463.2019.2795.3145.3932-1.2358.5876-1.0635.2237-1.1941.2565-.5267.0281-.9801.0156-1.4042-.0105-1.4543-.0861-2.6376.127-4.6123.1597.3289.0515.6612.0981.9934.1465-1.9539.3532-.6377.2451 1.0587.3618-1.5901-.0354-2.5006.2654-3.623.3548-1.1223.0893-3.0469-.0652-3.7503-.1856 1.6094-.1938 3.3453-.066 5.1321-.1194-.2031-.1695-.4006-.3129-.6101-.4991-1.0868.3557-1.7165.1178-2.0745.0706-1.0512-.1384-1.0182.1669-1.6534-.1614.0258.1129.0447.2079.0704.3134-2.1704-.0472-4.5117-.2469-5.9244.1703-.129-.2713-.2263-.5327-.3746-.8097-.9191.2043-1.7062-.0049-2.4801.0429-.7709.0478-.4774.2671-1.3836.3515-.1677.0156-.517-.1217-.9298-.0205-.4169.1018-1.9543.8583-2.1381.1974-.7772-.0031-1.5128-.0273-2.2739-.0384.7418-.0373 1.4838-.0734 2.2223-.1106-.632-.1602-1.2602-.3199-1.8923-.4801-.0806.1428-.1615.2882-.2389.4292-1.7029.1738-2.9387-.0597-4.6577-.0044-.287.0093.3902.2917-.8834.2197-1.2739-.072-2.2193-.5991-4.3896-.3955-.1096.0105-.7523.4142-1.5296.1348-.1769-.0634.5675-.1571.1615-.2403-.4064-.0832-2.2196-.1516-2.3615-.3497.0194.0702.1325.1429.1873.2142-.3095.0336-.6222.0671-.9349.1-.0291-.1235-.0604-.2473-.0894-.3702-.53373.0862-.99014.1887-1.4387.2858-1.14666.2654-2.18524.5599-3.82039 1.6023.72966-.3304 1.49426-.5024 2.2265-.525.15344-.1752.32231-.3449.50145-.5051.36263-.05.72868-.0672 1.09244-.0525.86007.0354 1.7208.0708 2.5799.1063.2-.1434.3964-.2865.5964-.4299.3225.0186.6418.0367.9642.0553-.0806.1037-.1619.2068-.2458.3105.6385-.0254 1.2777-.0514 1.913-.0769-1.2933.6121-3.6116-.052-3.4443.46-.2869-.0795-.5742-.1595-.8611-.2395-.1159.2286-.61994.1861-1.5023.1474-.07332-.0034-.14913-.0053-.22732-.0054.07519.037.15174.0751.22732.1147.16471.0821.33045.1642.47622.2475-.14417-.0249-.30442-.0458-.47622-.0636-.9445-.1381-2.25489.2698-2.97442.6883-.37637.2083-.11419-.1766-.23368-.1242-.67452.2628-1.32473 1.4526-1.45814 1.6566-.81491.9803-1.55102 1.8828-1.4998 3.2616.01608.277.05444.5693.12261.8836.02216-.4272.03711-.7035.0496-.8836.05842-.6021.05007-.1263.25589-.6074.03663-.0989.19224-.7059.30058-.9202.1329-.2096-.03596-.0985-.18044 1.3098-.00191.0317-.00931.1071-.01708.2178-.07289 1.1053-.43657 5.4313-.72164 3.8019.10059.887.21691 1.5814.32371 2.3942-.83084 1.9868-.05032 1.2992.37938.7219.00186.3257.00622.6356.00622.971-.45143-.7127-.47946 2.9188-.25157 4.1508.07575.413.22025-.742.28856.213-.03166.455-.07265.97-.10803 1.451.28562-.697.39569.67.68625.651-.25892.874-.80772 1.543-1.10517 1.062.12044.723.24073 1.449.36179 2.171.06893-.335.13725-.675.20617-1.011-.18256 2.361.23286 5.397-.37754 5.89.00434.313.0081.629.01245.942.10308.097.20635.19.30943.287-.0894 1.416-.17939 2.828-.26879 4.244-.06396-1.261-.21068-1.561-.09154-2.883-.11855.51-.23776 1.029-.35631 1.528.31917 1.99.52893 2.262.43394 5.258-.00435.135-.272 2.399-.29808 2.477-.11921.354-.2924-.184-.35265-.026-.16889.438-.59299 3.104-.65694 3.052-.784891-.651-.795295-9.619-.835657-12.044-.141147-8.485-.171001-16.9067-.152246-25.3018-.09558-4.3786 3.856633-8.2876 8.203143-8.1649 13.3279.0738 26.6232.2111 40.0324.1598.257-.0015.1448-.1173.2544-.1223.0439-.0019.0878-.0029.1316-.0031.4086-.0001.8202.0766.9788.0429.3514-.0806.1141-.1855.3536-.2667 1.5195-.5425 2.6036-2.04 2.6082-3.6457.0139-1.5245.0217-3.0571.0107-4.6243-.0019-.2644.1316.0056.108-.4589-.0129-.2397-.2177-.9902-.2208-1.5313-.0105-1.89.0551-3.4775.052-5.4707-.0018-1.0901.0156-2.7256.0125-3.9444-.0013-.5384-.095-1.0992-.0982-1.6311-.0043-.7547.1856-.6006.1974-.7167.0515-.5096-.1569-.5801-.152-1.0639.01-.8998.1492-.9483.1374-2.0899-.0087-.816-.1186-2.6836-.1509-3.7125.0642-.9569.0927-2.0128.1004-3.0789-.0158-2.1751.9566-4.3213 2.2186-5.6363 1.281-1.2718 1.6191-1.0943 2.2298-1.4535 1.2238-.6224 2.4147-.9393 3.6145-1.0118.7537-.058 1.5024-.1122 2.3233-.1159 2.3796-.0105 4.4886.1541 6.7941.1659.3738.0019.288-.1767.6548-.1812 1.3578-.0168 3.0942-.0493 4.3036-.0239 1.348.028 1.8452.2872 3.1642.2344.3867-.0157.5-.2429 1.1481-.2721 1.0352-.0458 2.1702.1545 2.8926.1769.9901.0298.1291-.2017 1.4643-.1706.0549.0013.2547.1668.5414.1589.8354-.0224.7524-.1527 1.9748-.1403.1173.0017 1.7381.1594 1.8992.1601.9482.0024 2.8572.0576 3.4185.0241 2.0061-.1192.4268-.3681 2.1329.1721.7513-.1322 1.4964-.2662 2.2928-.3947-.5315.1198 1.6256.2928 1.7772.2816 1.2538-.0901.5069-.3003 2.0968-.2655-2.0997.4856 2.051.0626 2.977.0502 1.046-.0142 2.07-.0183 3.082-.0164 1.968.0495 3.836-1.6348 3.816-3.742 0-.1599 0-.3203 0-.4813-.001-1.4996-.104-3.5093-.102-5.0959.001-.3699.115-.0904.118-.416.002-.3247-.127.0356-.121-.3351.045-2.306.289-4.1127-.016-6.2252.044-.1028.079-.0995.127-.2698-.272-1.7288.094-5.058.145-6.3094.078-1.9573-.106-2.4572-.069-3.8792.05-1.8802.409-4.7033-.185-3.4425-.014-.9705-.02-1.9137.001-2.87621.007-.4357.051-.87433.135-1.31048.038-.1963.165-.03495.181-.1122.112-.48166.028-.67141.119-1.00064.28-.87757-.065.58478.34-.65231.272-.61689.22-1.12489 1.497-2.5857 1.502-1.6172 3.741-2.6146 6.014-2.59954 7.055.00417 14.432.03495 21.473.05106.596.00124.204-.14481.952-.1355 2.599.03232 7.253.27811 9.494.24462 2.242-.03353 1.736-.2471 3.138-.33653.271-.01739.049.10433.294.1062 1.648.01118 3.613.20104 4.949.2296.883.01914.812-.17235 1.424-.18603.913-.01987 1.853.17359 2.34.1798 2.289.02728 3.863-.12854 6.001-.04907-.083-.04214-.139-.08115-.209-.12267 2.531.00683 5.06.01368 7.591.02051-.119-.0385-.235-.07733-.354-.11645 2.97.02112 2.631.43839 2.37-.442731.216-.031041.445-.067021.652-.095576-.084.453887 1.713.786047 3.999.901567.168.00869 1.293-.43386 1.17.08898.294-.12791.469-.21608.717-.32847.484.15829.974.31472 1.458.47239.261-.02359.526-.04636.787-.06994.039-.10246.009-.20884.093-.30944 1.212-.01552 3.699.11114 4.657.09814 2.381-.03291 4.804-.30992 6.655-.01062.902-.03051.006-.23161 1.348-.20616.151.10181.294.19939.452.3043 1.096-.45489 1.325-.17817 2.827-.08312 1.016.06457 1.681-.04661 2.649-.0249.245.00558.21.1391.378.13475.561-.01376 2.164-.19753 2.56-.2025 1.675-.02257 3.239-.03014 4.779-.02683 2.399-.0059 4.762 1.10484 6.3 3.04021.305.39414.01-.19959.323.21755.477.69262.027.39887.273.80642.585 1.17373.879 1.09291 1.249 2.95553.056.38071.084.76586.085 1.15579.013 4.3388-.129 9.2139-.142 13.6687 0 .1484.125.1395.126.3008.006 1.0511-.163 2.1152-.161 3.0696.002 1.5836.178 2.7738.177 4.338 0 3.0575-.09 5.7893-.095 8.9339-.005 2.5737.012 4.809.011 7.6311-.002 12.327.395 24.9058.184 37.3167-.006.3158-.116.1872-.111.2836.047.9159.197.9976-.116 1.3234.062 1.1668.296 1.535.28 2.9441-.009.751-.373.1904-.185 1.4609.169 1.1473.369-.1187.165 3.2931-.006.0903-.227.5349-.17 1.2443.057.7128.216-.1123.264 1.6036.112 4.0282-.08 9.1272-.021 13.8102.004.293.122 3.12.177 3.678.106 1.079.271.854.311 2.256.031 1.084-.155 1.978-.118 3.252.005.149.196.397.171 1.355zm-108.871-99.5972c.189.2645.882.7418.671 2.3409-.02.1516-.497-.6667-.572.2165-.051-.8643-.067-1.706-.099-2.5574zm104.451 106.5282c.035-1.196.07-2.397.104-3.594.084.826.168 1.653.252 2.475-.118.374-.237.745-.356 1.119zm-25.392-123.58063h.004c-1.258.08942-2.517.17901-3.775.26842.133-.06582.265-.13192.397-.19774.994-.10368 1.987-.20722 2.977-.3109.132.08009.265.16014.397.24022zm9.938-.69686c.803.07824.606.21019 1.048.33873 0-.00025 0-.00049 0-.00073.117.03346.66.06274.87.06774-.077-.08259-.177-.16411-.261-.24608 1.874-.19995 5.538.51058.794.79684.071-.1043.138-.20807.209-.31237-2.357.02918-4.986-.19705-2.66-.64413zm-89.007 36.98969c-.514 2.2839-1.081 3.3485-3.776 4.5212.339-.259.649-.5439.924-.8477.442-.1799.87-.4078 1.28-.6856.001-.001.002-.0019.003-.0029-.006-.142-.016-.2827-.033-.4184.705-.7158 1.261-1.5989 1.602-2.5666zm105.241 25.3111c-.682.5609-.286.3991-.44-1.2031-.053-.5547-.172-.0141-.192-.3592-.109-1.8636.348-2.0127.586-1.5967.016 1.0547.031 2.1203.046 3.1556zm.141 48.3527v.003c-.166.049-.211-.703-.368.145 0-.645.002-1.29.002-1.937.016.19.03.384.046.574.057-.168.115-.336.172-.504-.191-.229-.08-.442-.016-1.119-.204.187-.409.373-.613.561.061-.787.122-1.577.183-2.364.051-.009.103-.019.154-.029-.066-.297-.132-.59-.198-.887.062-.08.122-.158.184-.239-.047-.358-.093-.716-.14-1.074.149-.109.213.68.175-.718.153.429.305.857.458 1.289-.013 2.099-.026 4.199-.039 6.299zm-.351-62.9291c.028 2.3124-.079 1.6611-.417 1.1258.139-.3741.278-.7518.417-1.1258zm-72.699-47.56839c-.671.23037-1.344.45845-2.031.68075-1.368.12854-2.736-.29136-1.707-.45591 1.239-.19744 2.532.02353 3.738-.22484zm-30.416 1.28297c1.269-.76112.252.24182.17.56383-.444.05819-.847.46438-1.287 1.21399.341-.73291.897-1.64231 1.116-1.77839.001.00019.001.00038.001.00057zm57.342-1.02407c.67-.00689 1.337-.07123 1.937.00695-.181.22029-1.381.01988-.523.34642-.429.00559-.858.01101-1.284.01721.271-.13529-.093-.23641-.129-.36985 0-.00025-.001-.00049-.001-.00073zm45.513 24.90439c.261-1.316.149-1.5653-.031-2.8909.212-.1868.568 1.3937.646 2.3838-.205.1677-.41.3361-.615.5071zm-213.3542 59.7635c-.2183-.3745 1.03254-2.1247 2.04403-2.4399-.08662.0917-.16885.1863-.24631.2828-.79317.5355-1.42487 1.2984-1.79772 2.1571zm109.1862-81.49945c.065-.13145.131-.25339.196-.36655-.066.12954-.13.25367-.196.36655zm-36.2145 37.08925c.5513-.2552-1.0874-.3409.9023-.2409 0-.0003 0-.0005 0-.0008 1.316.0658 1.6064.0834 2.8256.1033-.4389.3278-2.9122.445.4967.5127.0449.0003-.0445-.1948.5002-.1681.1681.0083.7061.1684 1.5244.2149.2645.0149 2.2519.0643-.4571.0674.0806.2285-.0649.4598-.0585.6815-1.0574.0644-1.8701-.383-2.9888-.3721-1.661.0174-2.5063.4699-2.8256-.1237 1.3967-.1459 3.795-.1494 4.1078.2076 1.3511.0043 1.7392-.2881.6496-.4328-4.6669.1838-1.2811-.4342-5.3675-.2007-.0484.0825-.2164.1714-.1908.249-1.2473-.2905.685-.406.8817-.4973zm9.7589.6313c-.8064.1745-1.61.3504-2.4131.5255 0-.2844.4428-.5396 1.7135-.6998.2321.0583.4675.1166.6996.1743zm-32.9187 38.1422c.0378.1957-.0903.5457-.1815.8301-.1246.0694-1.5258 1.1366-2.7709 1.387-1.2269.2614-1.9955.2381-.4218-.083.2223-.0594 1.0515-.2189 1.8209-.651.7764-.4141 1.434-1.0906 1.5533-1.4831zm163.7753-44.9902c.104-.6837.208-1.3647.311-2.0452.066 1.0475.134 2.0959.201 3.1435-.171-.3671-.341-.7312-.512-1.0983zm-83.802-34.57124c.289.0058-.67.21844.467.18493-.848.13599-1.642.25109-2.471.37901-.248-.1006-.499-.20079-.748-.30138-.193.06458-.391.12877-.584.19335.116-.14655.219-.28967.342-.4387 1.396.3142 1.717-.04205 2.994-.01721zm41.526-.57309c.251.31849-1.771.50788.218.55881-.377.20924-.984.319-2.148.33763-.187-.08003-.374-.15947-.561-.23949-.025.21414-.325.29373-.979.44639-.001-.00025-.001-.00049-.002-.00074-1.77.01551-1.664-.05589-2.09-.40793 1.874.1987 1.93-.12294 3.207-.3142.877-.13151 2.023-.07195 2.355-.38047zm-119.9448 73.99413c.2445 1.2051.4741.3306.2988 1.931-.0175.18-.0457.3849-.0931.619-.0525-.1743-.1113-.3453-.1769-.51.0001-.0363-.0002-.0726-.0007-.109-.0099-.6437-.0192-1.2874-.0281-1.931zm126.4838-72.90251c-.151-.49301-1.399-.87677-1.612-.07471 1.216.16331.622-.29101 1.612.07471zm-67.369.09284c1.019-.63181 1.563-.5582 1.659-.4208.107.15381-.152.43985-.472.74014-.16-.03838-.325-.06905-.491-.0927-.309.2225-.592.47468-.843.74897.019-.31867.067-.64599.147-.97561zm103.728 6.24567c-.352-1.78682-.196 1.9288-.416.6806-.124-.706.018-1.57103.19-1.8388.066-.09511.137-.11231.199 0 .004.00792.009.01644.013.02556.006.34512.01.72924.014 1.12924zm-5.493-6.77485c.25.41228-.127.17899 1.136.36735.181.02684.951.31126 1.471.64389.52.32165.87.58663.476.07425-.861-.6368-1.967-1.04227-3.083-1.08549zm-100.42 26.72145c-.164.0215-.523-2.4453-.433-2.7619-.001 0-.001 0-.001 0 .245-.8547.28 1.7474.617.6187-.297 2.4994.42 3.2472-.524 3.073-.042-1.4723.153-.7752.341-.9298zm-109.55618 88.4692v.003c.00771-.165.24813-1.53.33141-1.364-.07141 1.641-.22966 1.349.03039 2.877-.08376.084-.165.155-.24938.246-.04967-.607-.1503-.943-.11242-1.762zm45.05938-33.7866c.2883-.0205.6902.0094 1.1062.045.4675.0409.9652.0239 1.3299-.0625-.4057.2244-.8769.3579-1.3299.4031-1.7288.1906-3.0465-.2485-1.1062-.3856zm170.1428 6.6676c0-.0017-.001-.0034-.001-.0051.001.0005.001.0012.001.0017zm-158.4245-46.4032c-.0798-.0248-.1294-.0504-.1527-.0788-.0009-.0031-.0018-.0061-.0027-.0092.049.0291.0999.0585.1554.088zm52.8285-9.8201c-.229 1.0275-.592-2.3957-.505-3.5027.104.0774.198.0894.318.2698-.27.8935.225 3.062.187 3.2329zm47.886-31.81263c-2.706-.00621.816-.90827.961-.18859-.005.01395-.891.18737-.961.18859zm-47.981 10.47313c-.273-.6894-.346.6961-.298-1.5193.07-.129.141-.2578.212-.3867.029.6352.058 1.2708.086 1.906zm30.255-11.65739c-3.406.15212-6.663.4205-4.445 1.17364.258-.02419.519-.04758.777-.07177.039-.36744.99-.16687 2.382-.1549.199-.14588.971-.17961 1.116-.30357.28-.23963-.607-.4081.17-.6434zm76.148 71.14449c-.063-.0548-.126-.1084-.188-.1633-.07-.5386-.141-1.0786-.212-1.6173.121.087.241.1743.361.2613.013.5061.027 1.0098.04 1.5159-.001.0011-.001.0023-.001.0034zm-128.6048-29.4341c-.3094.6903.7718.5632 2.9648.2142-.9869-.0714-1.9779-.1428-2.9648-.2142zm107.1838-41.43062c.071.19611.141.39162.215.58774 1.164-.2043.948-.42889.39-.68845-.203.0335-.402.06721-.605.10071zm16.897.12388c-.506-.16228-.276.05741-.329.0408-.574-.153-.942-.20369-1.314-.22337-.417-.02027-.84-.01268-1.664.05283-.184.04159-.365.08533-.548.12817.616.36565 1.083.22862 2.212.36409.141.01681.288.04247.447.08091-.144-.09122-.291-.17727-.447-.2578-.114-.06075-.227-.12156-.341-.18244.114.00415.227.00829.341.01243.742.02523 1.473.17981 2.153.45624.111-.00601.222-.00858.333-.00857-.263-.17194-.55-.33564-.843-.46329zm4.346 76.96944c-.016.7934-.033 1.5905-.049 2.3839.101.029.203.0569.304.0859-.085-.8222-.17-1.6475-.255-2.4698zm-144.7168-35.3481c-.0629.0359-.1242.072-.1787.1087.0053-.0448.074-.0797.1787-.1087zm-71.57453 76.4072c-.07077.9-.0243 2.196-.03918 3.183.2539-.077.18372-2.586.33763-3.466-.04556-.142-.26866-.097-.29845.283zm115.38633-117.73557c.088-.05422.178-.10647.272-.15664.135-.0762.271-.15235.405-.22872.545.01366 1.091.02808 1.639.04175.017-.1037.032-.2083.049-.312-1.355.07558-1.775.01465-2.093-.10548-.285-.08899-.503-.22732-1.145-.26282.333.32083.621.66468.873 1.02391zm101.563 101.92057c-.071-1.744-.202-2.363-.513-1.38.072.616.143 1.236.214 1.851.1-.158.199-.316.299-.471zm-164.5338-45.0231c.1162 1.4601-.3013 1.4844-.0682 2.9115.077-.7642.1549-1.5283.2318-2.2893-.0544-.2056-.1092-.4165-.1636-.6222zm55.6158-20.2445c-.242.3345.018 1.6579-1.391 2.227-.143.3202-.23.5596-.407.8411-.232-.05-.474-.1089-.676-.1932-.001.0003-.002.0007-.002.0011-1.089.4789-.319.3973-.272.5718.014.0943-.959.1976-.632.2819.286.0847.93-.0616 1.463-.3112.538-.2391.965-.5525 1.073-.4301-.616.4525-1.957 1.0552-1.476 1.0957.592.0655 1.649-1.0281 2.34-1.622-.637.3139-.443-.001-.099-.3919.352-.392.8-.983 1.04-1.0588.191-1.6309-.168-.1587-1.106 1.0568.306-.9293-.367.2799-.725.2217.28-.3572.863-1.1644 1.05-1.8349.194-.6681.167-1.0494-.18-.455zm46.474-37.47337c-1.161.0197-2.976-.15492-3.771.1029-.463.15021 1.356.26653.102.50242 1.131-.023 1.389-.11514 1.196-.32188.258-.02483.519-.04904.777-.07324.119.04034.242.08014.361.12047.135-.08506.271-.16944.404-.2545.274.01675.551.03353.825.0509.032-.04277.087-.07999.106-.12707zm-121.4597 82.24977c.3224-.0025.6418-.005.9642-.0081-.0355-.0503-.0778-.1028-.1186-.1545-.0292-.0409-.0584-.0818-.0876-.1227.1868.1461 1.723.3889 2.3701.2329.3253-.0783-.415-.3561.9642-.4046-.9996.0143-1.9255.0522-2.8961.0758.0871-.0826.1707-.1661.2578-.2487-.0005-.0001-.0011-.0002-.0017-.0003-.3224-.0187-.6486-.0382-.9711-.0568-.1612.2291-.3199.4579-.4812.687zm161.0577-82.23402c-1.1.16207-1.468.24623-.949.50827.001.00013.002.00025.003.00037.41-.1161.82-.23215 1.229-.34825-.093-.0534-.187-.10699-.283-.16039zm-132.0023 41.26802c-2.3383.9954 2.9276.3852 1.925.0461-.0452-.0155-1.7057.0638-1.925-.0461zm49.6533-39.47102c.538-.42429 1.147-.76314 1.798-.99706-.19-.06367-.391-.11652-.594-.16191-.462.3415-.865.73481-1.204 1.15897zm105.646 93.33192c.274-.6755.373-2.4096.075-3.257-.034.4451-.069.8904-.104 1.3355-.034-.8415-.072-1.6735-.104-2.5214-.381-.0451-.16.932-.265 2.4028-.017.2277-.489 1.6835-.133 2.1862.073.1011.123-1.4476.336-.3713.017-.4706.013-.8768.022-1.3217.091-.0322.182-.0642.272-.0997-.033.5501-.066 1.0965-.099 1.6466zm-69.656-95.11501c-1.595-.021-1.792.13109-2.125.39989.742-.03043 1.484-.06039 2.226-.09082-.035-.10281-.066-.20564-.101-.30907zm69.744 80.85651c.044-.8733-.175-.4993-.217-.8507-.156-1.3287 0-2.235-.098-3.5475.042.0871.082.1671.123.251 0-.0012 0-.0023 0-.0035.184-6.2147-.312-2.9504-.231.7683-.082.0871-.163.1707-.244.2578.142 1.6642.279 3.1988.667 3.1246zm-134.6132-39.6365c-.071-.0509.5321-.3744-.5999-.223-.8964.4725.5738.238.9419.4197-.3064.0453-.6198.0894-.923.1348 1.832.1335 2.0994.0211 1.4317-.3241-.0476-.0232-.7796.0434-.8507-.0074zm-12.0396-.2329c-.2516.6961 2.0604.3831 1.9765.167-.3191-.0086-.5672.1093-.9057.0572-.3419-.0522-.4293-.2148-1.0708-.2242zm37.7898-28.787c-.003.0677-.296.7482-.067.6806.543-.8418.194-2.5379.005-2.2412.009.561.091.9351.061 1.5606zm108.939 93.4372c.02-.033.137-1.73.028-1.949-.123-.181-.254-.271-.382-.406.118.935.028 2.829.354 2.351z" fill="#141414"/></svg>