<svg width="584" height="4" viewBox="0 0 584 4" fill="none" xmlns="http://www.w3.org/2000/svg">
<path d="M48.4943 0.386994C47.1748 0.206611 51.5796 0.324855 48.6547 0.0554671C49.2646 0.037266 49.8783 0.0184944 50.4881 0.000293635C50.6429 0.10006 50.8013 0.199584 50.956 0.299351C50.137 0.32873 49.3176 0.358103 48.4943 0.387482C48.4943 0.387319 48.4943 0.387156 48.4943 0.386994ZM47.376 1.63644C48.1264 1.35189 50.5116 1.27602 47.9351 1.01343C47.7304 1.11109 47.5206 1.20872 47.3158 1.30638C46.4214 1.23064 45.5213 1.15492 44.6269 1.07959C44.3052 1.11682 43.9839 1.15409 43.6622 1.19091C43.2526 1.02121 42.8466 0.851044 42.4369 0.680926C42.8006 0.705764 43.1693 0.731035 43.533 0.755873C44.9709 0.618063 46.2503 0.580373 48.2024 0.55471C48.0311 0.514555 47.8592 0.474754 47.6878 0.434599C48.6785 0.502897 49.6687 0.571368 50.6552 0.639666C49.7985 0.706711 48.8406 0.781271 48.0465 0.843758C49.3172 1.10984 51.5583 0.961753 52.7248 0.906254C54.3134 0.830501 53.9544 0.957023 55.133 0.904056C55.3212 0.895778 55.3426 0.796606 55.7145 0.794931C57.5917 0.787065 61.2373 0.83963 59.1052 1.07104C56.0158 1.04123 53.3809 1.22706 50.35 1.15917C51.1518 1.42675 49.5551 1.5178 47.376 1.63644ZM104.131 0.784423C103.195 0.914379 101.288 0.861934 99.9961 0.771729C99.9946 0.771729 99.9931 0.771729 99.9917 0.771729C99.7073 0.751859 99.0636 0.579154 99.9917 0.586192C101.505 0.598252 102.236 0.870111 103.03 0.685552C103.386 0.719909 103.759 0.75048 104.131 0.784423ZM107.419 0.76831C108.347 0.834956 107.926 1.0398 106.764 0.984364C106.764 0.984527 106.764 0.98469 106.764 0.984852C106.279 0.96167 107.231 0.799755 105.492 0.964102C105.137 0.836243 104.787 0.71992 104.436 0.5962C104.862 0.594131 105.25 0.590776 105.697 0.58912C105.396 0.799282 106.491 0.702186 107.419 0.76831ZM60.6736 0.955322C60.8197 0.766254 60.2083 0.767448 59.1676 0.636247C60.1499 0.642455 61.1324 0.649079 62.1104 0.655288C61.6299 0.755426 61.1541 0.855185 60.6736 0.955322ZM37.596 0.926032C37.5946 0.926032 37.593 0.926032 37.5915 0.926032C37.2696 0.955836 36.9468 0.985749 36.6291 1.01514C36.4368 0.947662 36.2468 0.880478 36.0544 0.813C34.9173 0.876338 33.774 0.93967 32.6369 1.00342C32.7751 0.797302 34.8163 0.83084 35.9408 0.686786C37.6129 0.748884 38.4185 0.868528 38.5272 1.04321C38.218 1.00432 37.9095 0.964928 37.596 0.926032ZM311.065 1.74771C311.445 1.6906 311.821 1.63344 312.201 1.57633C311.695 1.55027 311.194 1.53037 310.684 1.50017C309.35 1.74852 309.225 1.52883 307.478 1.54411C302.123 1.5913 303.544 1.97703 298.707 1.41204C302.59 1.43891 301.098 1.17343 303.439 0.968943C303.924 1.1246 301.604 1.47565 303.176 1.5485C305.885 1.38377 308.489 1.23034 311.495 1.12396C311.407 1.09706 311.32 1.07006 311.232 1.04316C310.755 1.06013 310.283 1.07721 309.806 1.09418C310.32 1.02215 310.823 0.95074 311.346 0.877882C310.685 1.04138 312.368 0.950024 312.143 1.13788C312.043 1.2215 311.299 1.33751 310.86 1.41741C311.993 1.46086 313.154 1.50067 314.3 1.54289C313.706 1.60951 313.113 1.67621 312.524 1.74283C312.039 1.7449 311.558 1.74638 311.074 1.74844C311.071 1.7482 311.068 1.74796 311.065 1.74771ZM554.864 0.878319C553.426 1.07289 550.813 1.10508 549.437 0.888574C551.247 0.885262 553.054 0.881632 554.864 0.878319ZM38.6363 1.18725C38.4736 1.15417 38.3158 1.12145 38.1529 1.08838C38.8719 1.02712 39.5949 0.96629 40.3139 0.905036C40.4518 1.00062 40.5929 1.09623 40.7349 1.1914C40.037 1.19016 39.3344 1.18849 38.6363 1.18725ZM84.6311 1.0808C84.1052 1.08658 84.0586 1.08345 83.4036 1.06981C83.4043 1.0699 83.4051 1.06998 83.4058 1.07006C83.1462 1.06497 80.9737 1.00914 81.2159 0.935544C82.2946 0.934302 83.445 0.935543 84.5487 0.935543C84.5821 0.983951 84.5894 1.03198 84.6311 1.0808ZM71.935 1.03784C71.9336 1.03767 71.932 1.03751 71.9305 1.03735C71.5381 1.02617 71.166 1.00341 70.761 0.999263C72.2194 0.883438 72.4501 1.09124 73.7751 1.03246C75.1001 0.973269 75.919 0.858615 77.0433 1.1433C76.6252 1.18594 76.1751 1.24694 75.7445 1.29661C73.8635 1.18278 73.3568 1.2899 71.8481 1.40208C71.8773 1.28039 71.9058 1.15952 71.935 1.03784ZM287.223 1.17182C286.864 1.31255 286.463 1.17446 286.421 1.17279C286.422 1.17263 286.423 1.17247 286.423 1.17231C283.239 1.30264 286.838 1.0944 283.832 1.07246C284.28 1.03728 284.719 1.00014 285.162 0.964553C285.848 1.03242 286.554 1.10933 287.223 1.17182ZM183.758 1.15866C183.729 1.11767 183.694 1.0766 183.665 1.03562C185.471 1.04514 185.931 0.8838 187.432 1.03073C186.207 1.07378 184.983 1.11651 183.758 1.15914C183.758 1.15898 183.758 1.15882 183.758 1.15866ZM93.7338 1.37888C91.7313 1.45712 90.2501 1.49159 88.327 1.36741C88.3255 1.36724 88.324 1.36708 88.3225 1.36692C88.2117 1.35927 88.7479 1.27353 88.6032 1.25193C88.2064 1.26476 87.7967 1.28447 87.3958 1.29978C87.3414 1.23112 87.2897 1.16247 87.2354 1.09423C88.364 1.11368 89.4932 1.13312 90.6261 1.15257C90.4589 1.11242 90.2875 1.07261 90.1204 1.03246C91.0817 1.01177 92.0395 0.991146 93.0009 0.970452C92.6665 1.08301 92.333 1.1956 92.0028 1.30857C92.5795 1.33216 93.1571 1.35488 93.7338 1.37888ZM213.824 1.60711C213.507 1.5624 214.095 1.48742 213.602 1.44892C213.108 1.41091 212.199 1.49434 212.412 1.36811C213.076 1.35115 213.774 1.3317 214.45 1.31392C212.273 1.0863 210.1 1.29227 210.066 1.0112C212.156 1.08405 213.875 1.05021 215.899 0.972379C215.815 1.19549 213.791 1.38839 215.065 1.59784C214.656 1.60073 214.226 1.60497 213.829 1.60663C213.827 1.60679 213.826 1.60695 213.824 1.60711ZM9.38114 3.98497C8.14367 3.968 5.30845 4.05905 3.74485 3.92906C3.36032 3.89703 2.07855 3.48208 2.08519 3.42738C2.12286 3.24317 3.68781 3.21809 2.01164 3.09805C2.57564 3.0968 3.12268 3.08989 3.68247 3.08658C3.58217 2.9628 3.48237 2.83935 3.38621 2.71599C2.7047 2.73462 2.0225 2.75334 1.34111 2.77238C1.30759 2.7314 1.27434 2.69033 1.24082 2.64934C3.69065 2.64851 2.24452 2.49033 3.51542 2.34296C2.34513 2.26846 1.16601 2.19433 -1.7877e-05 2.11983C0.672916 2.12893 1.46717 2.13568 2.06065 2.14644C2.14015 1.93657 0.723845 1.98661 0.481183 1.94772C-0.885778 1.72792 6.07369 1.83885 6.64323 1.53343C5.53149 1.49949 4.36493 1.46637 3.22801 1.43285C3.55411 1.39518 3.88439 1.35749 4.21049 1.31982C6.78964 1.53047 9.68184 1.6051 12.6872 1.7363C12.9587 1.72761 13.2308 1.71869 13.4981 1.71042C13.4187 1.61566 13.3435 1.52126 13.2642 1.4265C13.6739 1.41532 14.0886 1.40423 14.4984 1.39305C13.2903 1.70516 14.9633 1.7009 16.9823 1.89132C15.9081 2.001 14.583 1.93451 14.6744 2.13887C18.3613 1.98163 22.6789 2.20384 26.2655 2.02632C27.1558 1.98245 27.1531 1.71882 29.2463 1.74313C29.1752 1.77211 29.1631 1.82443 29.117 1.86251C32.7375 1.73625 34.9339 1.66077 38.6965 1.78951C38.4792 1.69476 38.2655 1.59961 38.0482 1.50486C37.2497 1.55205 36.4499 1.59999 35.6556 1.64719C35.1123 1.49072 35.9153 1.42167 33.5325 1.42332C31.5802 1.42456 32.7423 1.49365 32.2115 1.54002C31.4925 1.60331 30.8617 1.47879 30.0884 1.54954C29.4906 1.60377 30.1374 1.73287 28.5779 1.70017C29.205 1.53292 29.8448 1.36023 30.476 1.19091C30.8564 1.22858 31.2339 1.26684 31.6144 1.30492C31.2297 1.34963 30.8518 1.39375 30.4671 1.43846C31.8216 1.35815 33.1011 1.28241 34.5016 1.19921C34.0459 1.44097 35.4934 1.35033 36.2794 1.32176C37.5035 1.2771 36.4549 1.44349 37.2574 1.41575C38.0601 1.38759 38.9256 1.20171 40.3763 1.24145C39.5988 1.34906 40.6565 1.44556 40.452 1.5449C40.2471 1.64423 38.7129 1.66622 40.1869 1.77462C43.0213 1.69224 39.9456 1.31396 41.86 1.25267C44.1591 1.17899 44.7062 1.79562 44.0209 1.92818C43.4817 2.0325 41.626 2.01152 41.0824 2.11542C44.406 2.30294 44.4347 1.93275 45.0033 1.86031C47.0685 1.59663 45.6812 2.3004 48.1267 2.04585C48.0808 2.17745 48.0434 2.29582 47.9975 2.42205C48.4195 2.39804 48.6996 2.36614 49.2094 2.3471C47.706 2.09067 48.9366 2.10166 49.5681 2.10126C50.563 2.10044 49.0263 1.97536 49.2896 1.94307C50.0003 1.85666 51.1243 1.8959 50.4347 1.78292C50.744 1.83549 51.0794 1.88822 51.3971 1.94038C52.5595 1.87487 55.2915 1.32557 52.6914 1.4365C52.9338 1.23241 53.775 1.33051 54.4313 1.36155C55.0876 1.39257 55.0752 1.2626 55.6521 1.28661C57.9469 1.38265 56.4459 1.60498 56.0821 1.77926C59.1129 1.65921 56.1456 1.57979 60.5132 1.49948C60.9353 1.3575 58.9174 1.20598 60.5978 1.12402C60.9074 1.37069 62.1447 1.54789 64.5565 1.62985C64.7908 1.57313 65.0242 1.51592 65.2583 1.4592C66.5753 1.68689 65.902 1.92365 68.3393 1.64132C67.0309 2.16084 67.9306 1.82848 70.1126 2.03998C70.5559 2.08262 69.5317 2.19041 70.1505 2.24505C70.431 2.26969 71.1119 2.18833 71.7968 2.25115C72.1313 2.2822 73.6948 2.48252 74.7776 2.38738C73.9833 2.13568 76.0406 1.92157 74.2764 1.71334C77.5373 1.76467 79.8194 1.64382 76.1655 1.98701C76.9933 2.06318 77.8218 2.13902 78.6495 2.21478C79.2265 2.15475 79.8083 2.0952 80.3894 2.03559C80.4771 2.24245 80.3891 2.30048 82.6617 2.26409C81.6756 2.31292 80.6935 2.36255 79.7032 2.41179C79.6698 2.45356 79.532 2.49698 79.5651 2.53752C80.7781 2.45806 84.1933 2.42387 85.021 2.36882C85.8487 2.31376 84.2502 2.29869 84.4885 2.24529C86.4738 1.80493 86.3164 2.12971 87.7411 2.05414C88.5772 2.00943 86.5808 1.96088 87.0282 1.94184C88.6867 1.87205 89.4561 2.10608 90.9268 2.10907C90.4044 1.97622 89.8862 1.84132 89.3763 1.70723C90.9189 1.71427 92.6385 1.71545 94.0724 1.67281C94.6354 1.65616 94.2099 1.55736 94.3019 1.55074C94.7579 1.5168 96.6139 1.46303 96.8104 1.46261C98.2894 1.46183 98.3316 1.59867 99.7689 1.60616C99.2046 1.61775 98.6742 1.62819 98.1226 1.63936C97.8717 1.86122 97.6159 2.08307 97.3651 2.30535C98.7736 2.32149 100.183 2.3373 101.596 2.35344C100.563 2.27935 99.527 2.20561 98.4946 2.13153C100.108 1.95228 101.722 1.77263 103.336 1.59298C104.176 1.70309 105.013 1.81317 105.853 1.92328C108.135 1.89424 107.675 1.44726 108.758 1.83881C109.431 1.80571 110.104 1.77263 110.776 1.73994C110.68 1.79581 110.585 1.85179 110.489 1.90766C111.3 1.8733 112.111 1.83916 112.922 1.80439C112.069 1.60654 111.233 1.39833 110.389 1.20628C111.985 1.16328 112.015 1.33113 112.253 1.37302C112.885 1.48396 114.138 1.33431 114.639 1.43698C114.809 1.47222 113.245 1.58272 113.784 1.71016C113.889 1.73486 115.983 2.20331 117.319 2.09515C117.294 2.01028 117.191 1.90623 117.137 1.81391C118.934 1.76237 119.85 2.20534 119.612 2.32951C120.569 2.24258 121.968 2.23532 122.165 2.09954C122.654 2.09623 123.139 2.09309 123.628 2.08977C123.119 2.42046 125.159 2.35999 125.293 2.07561C124.452 2.06858 123.611 2.06117 122.771 2.05413C123.406 1.70557 120.853 1.49519 126.166 1.81806C127.182 1.99938 124.36 1.79336 125.188 1.92914C126.626 2.00817 127.976 1.94204 129.343 2.06829C131.043 2.226 128.951 2.37769 132.914 2.17693C124.172 1.67397 134.113 1.83715 138.218 1.6811C139.347 2.17786 142.814 2.33521 147.588 2.18742C147.091 2.04916 145.589 2.1204 144.723 2.07488C143.858 2.02935 144.794 1.94732 143.716 1.88275C142.638 1.81819 140.348 1.73042 139.256 1.63276C140.181 1.55451 144.744 1.36952 141.727 1.59175C143.979 1.72874 145.037 1.86952 147.829 1.8952C148.665 1.67953 148.603 1.54524 151.324 1.53901C149.715 1.83871 152.807 2.04699 152.126 2.3566C150.196 2.28449 151.275 1.98357 150.159 1.83954C150.045 1.82514 148.247 1.90058 147.829 1.8952C149.643 2.16552 150.27 2.26614 149.154 2.58779C150.438 2.55964 151.236 2.60002 151.353 2.44644C151.621 2.51307 151.89 2.57975 152.153 2.64638C152.571 2.64472 152.947 2.63855 153.389 2.63979C152.78 2.40812 153.961 2.55074 154.802 2.44571C155.642 2.34056 154.515 2.15768 156.822 2.15519C156.053 2.10096 155.35 2.05443 154.606 2.0031C156.094 1.9435 157.587 1.88352 159.075 1.82391C158.029 1.68236 155.765 1.4721 155.826 1.28585C156.512 1.35617 158.86 1.23259 159.117 1.22751C160.112 1.20846 159.57 1.32592 159.645 1.32882C161.208 1.3859 162.496 1.3459 163.089 1.52388C164.264 1.44358 165.15 1.48936 166.395 1.48482C167.081 1.48233 166.947 1.35161 167.349 1.37642C170.016 1.542 167.475 1.71092 172.619 1.38936C171.997 1.2983 171.382 1.20514 170.759 1.11325C171.34 1.07889 171.918 1.04434 172.499 1.00998C172.888 1.02654 173.273 1.04323 173.662 1.05979C173.654 1.25723 173.644 1.45509 173.635 1.65253C174.062 1.66329 174.49 1.67375 174.916 1.68451C174.185 1.70397 173.451 1.7234 172.72 1.74286C172.653 1.7776 172.591 1.81236 172.524 1.8471C173.611 1.90092 174.694 1.95522 175.781 2.00945C175.802 1.94076 175.822 1.8716 175.843 1.80291C178.293 1.89854 178.351 1.95668 180.68 1.76751C182.473 1.76958 183.934 1.48241 184.97 1.36153C185.342 1.40002 185.715 1.439 186.091 1.47749C186.329 1.42036 186.57 1.36348 186.808 1.30635C187.281 1.38583 187.759 1.46532 188.232 1.54438C188.495 1.36399 188.631 1.30767 186.788 1.24434C187.42 1.01998 190.665 1.11896 191.986 1.1943C192.988 1.25147 191.876 1.43861 192.001 1.46137C192.42 1.53871 194.071 1.47198 194.418 1.48481C195.886 1.53821 196.914 1.52886 198.239 1.57025C198.497 1.57854 199.218 1.69714 199.279 1.70086C199.756 1.72115 200.932 1.77879 201.066 1.78045C207.967 1.86898 200.593 1.35442 207.01 1.40864C206.817 1.34078 206.641 1.27338 206.453 1.20552C206.938 1.20139 207.427 1.19745 207.912 1.19332C208.526 1.25003 207.783 1.35317 209.004 1.26997C208.924 1.35359 208.844 1.43725 208.761 1.52045C209.292 1.47533 209.803 1.43057 210.347 1.38545C211.2 1.67563 214.313 1.74153 214.092 2.08219C214.017 2.1981 211.809 2.31704 212.976 2.44081C213.923 2.46518 213.282 2.32674 213.669 2.31948C216.461 2.26898 216.299 2.46302 217.44 2.41127C217.62 2.32811 217.809 2.24332 217.993 2.15933C218.423 2.18374 218.855 2.20816 219.289 2.23257C219.39 2.17668 219.494 2.12074 219.594 2.06485C219.189 2.06113 218.732 2.05735 218.36 2.05362C218.879 1.83717 223.644 1.73994 221.827 1.92448C221.087 1.9994 219.732 1.96757 220.588 2.22329C221.863 2.18645 223.31 2.14881 224.651 2.11197C224.693 2.16703 224.732 2.22219 224.774 2.27724C226.583 2.2416 224.938 2.02147 224.941 1.90348C225.355 1.90017 225.773 1.89727 226.186 1.89396C226.362 1.94731 226.528 2.00315 226.712 2.05484C226.729 1.96995 226.961 1.77261 228.194 1.84587C228.987 1.89355 227.738 2.10774 229.25 2.07803C229.137 1.94559 228.591 1.78428 230.274 1.74163C230.442 1.87986 230.673 2.00649 230.802 2.15176C232.896 2.01896 233.849 2.23243 236.307 2.07803C237.867 1.98033 240.003 1.63352 241.01 2.16787C242.151 2.18194 241.789 2.04887 242.126 2.01895C243.719 1.87737 244.904 2.13075 245.201 2.14565C247.093 2.24119 247.942 2.15348 249.485 2.27309C249.401 2.17415 249.355 2.0805 249.289 1.98404C247.875 2.13224 247.16 2.12529 245.178 2.09341C245.843 2.07355 246.508 2.05322 247.172 2.03336C247.063 1.95307 246.956 1.87276 246.851 1.79289C240.723 2.10916 242.152 1.60947 247.29 1.50018C247.733 1.64876 248.192 1.79696 248.631 1.94596C251.599 1.72077 252.996 1.91626 256.353 1.96304C256.752 1.9684 258.205 1.8828 258.83 1.87858C258.82 1.87801 258.809 1.87744 258.799 1.87687C259.188 1.73655 258.661 1.67198 258.598 1.54656C258.937 1.53083 259.276 1.51517 259.614 1.49944C260.37 1.59504 260.105 1.67357 261.593 1.6508C261.392 1.5556 261.194 1.46037 260.993 1.36517C262.624 1.36186 263.691 1.4653 265.208 1.42059C264.953 1.4566 264.701 1.49272 264.446 1.52874C267.749 1.62064 265.121 2.18037 267.616 1.90177C267.775 1.9506 267.93 1.9999 268.089 2.04873C267.06 2.06073 266.032 2.07237 265.008 2.08437C264.987 2.15348 264.964 2.22229 264.948 2.2914C266.047 2.2707 267.152 2.24935 268.251 2.22865C267.449 2.27502 266.641 2.32144 265.839 2.36781C267.114 2.40092 268.389 2.43405 269.664 2.46717C268.31 2.21305 270.065 2.18197 269.735 1.93033C271.993 2.1398 273.766 2.41591 277.265 2.23915C277.959 2.20394 277.582 2.02808 279.551 2.24208C279.074 1.96227 281.541 1.83097 281.224 1.56487C280.538 1.57769 279.828 1.58576 279.163 1.60149C279.92 1.69379 280.045 1.94773 278.896 2.0231C277.428 2.11913 275.288 1.94314 275.376 2.22499C274.791 2.21175 274.247 2.20394 273.678 2.19277C273.912 2.12285 274.141 2.05249 274.371 1.98257C272.754 2.09219 271.738 2.05654 270.96 1.88028C272.887 1.83972 274.81 1.79959 276.737 1.75944C276.453 1.74745 276.165 1.73537 275.882 1.72379C277.34 1.54372 275.835 1.37315 278.557 1.33465C278.54 1.41701 278.527 1.49943 278.51 1.5822C279.501 1.36197 282.214 1.36316 281.349 1.10981C282.168 1.18763 282.335 1.23685 282.799 1.10029C284.96 1.29278 286.348 1.53621 285.579 1.82681C286.382 1.78005 287.185 1.73321 287.983 1.68644C287.519 1.60697 287.054 1.52788 286.59 1.44842C287.987 1.45338 289.393 1.45826 290.785 1.46282C290.919 1.69792 288.098 1.53414 288.912 1.7443C289.075 1.78648 289.826 1.69612 290.023 1.71989C292.105 1.97694 288.837 1.79122 289.451 1.98818C292.553 2.04904 290.071 2.37906 294.343 2.1017C294.456 2.16958 294.577 2.23882 294.682 2.30628C296.165 2.31036 296.045 2.15704 297.319 2.12807C298.118 2.11004 299.12 2.37926 300.002 2.19593C300.159 2.16213 298.676 1.83308 301.793 1.84756C304.212 1.85879 303.205 2.09132 304.513 2.17372C305.822 2.2561 308.815 1.93366 309.697 2.2992C309.012 2.25078 308.139 2.22466 307.378 2.18495C307.069 2.25614 306.767 2.32656 306.462 2.39734C308.201 2.30544 309.999 2.41375 311.17 2.24402C313.49 2.50358 316.085 2.26271 315.382 1.96962C314.619 2.01188 315.449 2.13968 314.389 2.05824C314.28 1.98994 314.166 1.92197 314.057 1.85366C315.863 1.86194 317.117 1.86002 316.293 2.06825C316.574 2.07322 316.851 2.07818 317.131 2.08314C317.181 1.93246 317.226 1.78121 317.276 1.63053C317.61 1.61356 317.946 1.59672 318.281 1.57975C318.652 1.61285 319.025 1.64633 319.401 1.67984C318.895 1.91829 318.034 1.92616 320.885 2.05946C320.893 1.97708 320.906 1.89503 320.914 1.81265C323.301 1.91738 323.364 2.11693 326.361 2.10951C324.061 2.39552 322.804 1.88852 322.812 2.46227C322.235 2.4246 321.653 2.38642 321.076 2.34875C320.989 2.43196 320.902 2.51529 320.818 2.5985C323.916 2.55461 329.061 2.00739 331.135 2.37024C331.386 2.32596 331.637 2.28746 331.892 2.23987C333.924 2.45886 334.802 1.96721 336.863 2.25037C337.075 2.28008 336.63 2.74199 339.313 2.72544C339.246 2.66541 339.211 2.56436 339.157 2.48864C339.738 2.52547 340.316 2.56401 340.893 2.60167C340.997 2.54622 341.107 2.49079 341.211 2.43493C340.22 2.4134 339.232 2.39152 338.242 2.36999C339.065 2.35095 339.893 2.3319 340.717 2.31286C339.643 2.22224 339.158 2.22127 339.805 2.07606C340.738 2.06736 341.671 2.05814 342.604 2.04945C342.7 2.01224 342.795 1.9746 342.891 1.93739C342.439 1.82646 341.983 1.71797 341.532 1.60538C343.961 1.69603 346.072 1.70096 347.937 1.91908C348.255 1.95592 347.131 2.10045 349.296 1.9701C349.329 2.04665 349.387 2.1088 349.425 2.17957C352.075 1.96513 352.946 2.02914 355.71 2.18396C353.92 2.03948 355.517 2.13345 355.972 2.05604C356.285 2.0027 355.066 2.01058 355.204 1.95472C355.342 1.89926 356.925 1.67528 355.571 1.64834C352.252 2.10744 351.348 1.55855 347.084 1.7792C347.74 1.72 348.401 1.66067 349.057 1.60147C348.748 1.56135 348.472 1.52495 348.137 1.48234C350.516 1.57215 349.359 1.5138 350.336 1.44303C351.314 1.37224 353.092 1.3121 354.284 1.29265C354.659 1.28653 354.263 1.3895 355.11 1.39909C355.687 1.40571 357.264 1.25306 357.628 1.43302C357.866 1.55016 355.333 1.87273 358.835 1.87196C359.494 1.98681 357.815 1.95114 357.779 1.96498C357.474 2.10159 359.627 2.2043 360.622 2.09998C360.702 2.09098 359.917 1.98453 360.771 1.94276C362.799 1.84299 363.97 1.96508 365.282 2.13025C365.424 1.93651 367.131 1.70513 369.254 1.77675C369.363 1.72131 369.467 1.66538 369.575 1.60952C369.246 1.63887 368.916 1.66782 368.586 1.69717C368.227 1.66239 367.846 1.63708 367.495 1.5961C369.63 1.54845 369.932 1.28145 370.956 1.18376C374.461 0.850051 372.337 1.55596 371.705 1.67763C371.249 1.62837 370.809 1.57338 370.357 1.52164C370.407 1.58911 370.458 1.6571 370.504 1.725C375.751 1.72293 371.303 2.16301 373.966 2.28844C374.652 1.95646 376.608 1.92446 379.099 2.13513C379.375 2.13347 379.652 2.13305 379.928 2.13098C379.974 2.08257 379.973 2.00858 380.048 1.97669C383.05 1.92039 383.584 2.43165 383.869 2.48008C385.131 2.6949 386.114 2.39767 386.486 2.39512C388.054 2.38478 388.51 2.51675 390.002 2.46006C391.607 2.39881 390.509 2.29754 390.998 2.2069C391.389 2.13492 392.656 2.1221 393.179 2.04748C392.971 2.10851 392.74 2.16835 392.533 2.2296C394.196 2.3128 395.556 2.39388 397.445 2.41416C399.577 1.96765 401.391 2.72086 400.655 2.10998C398.866 2.06817 397.865 1.99856 396.908 1.8429C398.082 1.82304 399.258 1.80369 400.432 1.78382C400.775 1.85087 401.018 1.91621 401.424 1.9845C402.301 1.84212 404.336 1.90322 405.135 1.86146C408.877 1.66565 407.719 1.4228 411.134 1.83094C408.673 1.87071 408.677 2.06894 406.236 2.04162C406.762 2.1832 408.003 2.15386 407.2 2.32359C409.562 2.28178 408.798 2.13025 409.718 1.99573C410.51 1.87975 412.107 1.87326 412.017 1.72255C412.18 1.80541 412.306 1.88563 412.469 1.96838C413.999 1.96755 415.528 1.9675 417.058 1.96667C416.406 2.05318 415.754 2.13984 415.102 2.22594C415.595 2.25861 416.089 2.29116 416.581 2.32383C420.344 2.05476 426.832 2.5479 425.796 1.87195C427.61 1.85042 427.837 1.9352 428.823 2.0631C428.932 2.01178 429.037 1.9691 429.146 1.91199C430.316 1.96571 431.215 1.77304 432.247 1.82312C433.28 1.87282 433.536 2.0548 433.686 1.74891C434.355 1.83665 435.02 1.90954 435.685 1.99108C436.086 1.92159 436.486 1.8529 436.883 1.78382C437.51 1.82024 438.139 1.85652 438.766 1.89294C439.101 1.74692 441.566 1.80986 442.653 1.7118C443.685 1.8692 443.657 2.36479 446.084 2.27598C446.021 2.15306 445.959 2.0305 445.897 1.90759C446.453 1.93325 447.01 1.95883 447.57 1.98449C447.603 2.02461 447.632 2.06473 447.666 2.10484C447.381 2.09243 447.101 2.08008 446.817 2.06725C447.064 2.13514 447.305 2.20272 447.548 2.27061C448.396 2.17003 449.246 2.06944 450.098 1.96886C448.949 1.89271 447.799 1.81651 446.65 1.74036C448.092 1.65011 449.096 1.74013 450.35 1.63953C451.441 1.80923 451.038 1.90702 450.595 2.09117C451 2.07545 451.411 2.06027 451.816 2.04454C451.549 2.22873 452.234 2.33847 449.864 2.32358C450.027 2.37611 450.194 2.4262 450.352 2.4808C450.741 2.47252 450.993 2.51693 451.419 2.49667C452.582 2.4412 453.473 2.11769 453.393 2.00426C453.35 1.94484 452.204 2.05847 452.25 1.97448C452.364 1.76965 454.993 1.86161 451.201 1.65589C452.459 1.52549 452.741 1.62383 454.128 1.6615C454.02 1.59325 453.914 1.52543 453.81 1.45717C454.453 1.48862 455.098 1.51995 455.741 1.5514C454.847 1.90202 459.592 2.03371 455.32 2.34043C456.583 2.35615 457.84 2.37196 459.099 2.38852C458.839 2.42453 458.58 2.46017 458.321 2.49618C457.753 2.47714 457.188 2.45841 456.619 2.43979C457.288 2.50559 457.958 2.571 458.626 2.6368C460.206 2.55524 460.826 2.42982 461.549 2.275C459.71 2.16202 460.311 2.31635 458.878 2.34702C458.928 2.24897 458.862 2.15878 458.987 2.05577C459.728 2.25886 462.143 2.11111 462.703 2.10118C464.408 2.07101 463.071 2.27056 464.211 2.27475C465.353 2.27889 466.699 2.16012 467.631 2.358C467.614 2.24709 467.54 2.13234 467.473 2.03136C469.25 1.99493 468.895 2.12595 469.079 2.14292C472.014 2.42193 473.606 2.18638 476.963 2.15781C476.537 2.12346 476.106 2.09245 475.675 2.06016C478.208 1.82468 476.502 1.89678 474.303 1.81896C476.364 1.84256 477.544 1.64201 478.999 1.5824C480.454 1.52289 482.949 1.62589 483.86 1.70617C481.774 1.83533 479.524 1.75016 477.208 1.78576C477.472 1.89874 477.727 1.99437 477.999 2.11851C479.408 1.88137 480.224 2.03993 480.688 2.07139C482.051 2.16366 482.008 1.96013 482.831 2.17905C482.798 2.10374 482.773 2.04042 482.74 1.97008C485.553 2.00154 488.588 2.13468 490.419 1.85656C490.586 2.03744 490.712 2.21171 490.905 2.39632C492.096 2.26016 493.116 2.3996 494.119 2.36776C495.118 2.33589 494.738 2.1897 495.913 2.1334C496.13 2.12305 496.583 2.21454 497.118 2.14707C497.658 2.07923 499.651 1.57487 499.889 2.01548C500.897 2.01755 501.85 2.03366 502.837 2.04111C501.875 2.06595 500.913 2.09001 499.956 2.11484C500.775 2.22163 501.59 2.3281 502.409 2.43489C502.513 2.33968 502.618 2.24275 502.719 2.14877C504.926 2.03287 506.528 2.18854 508.756 2.1517C509.128 2.14549 508.25 1.95725 509.901 2.00523C511.552 2.05324 512.777 2.40459 515.591 2.26888C515.733 2.26185 516.566 1.99276 517.573 2.17904C517.803 2.22126 516.838 2.28374 517.364 2.33919C517.891 2.39466 520.241 2.44028 520.425 2.57233C520.4 2.52557 520.253 2.47711 520.182 2.42952C520.583 2.40717 520.989 2.38481 521.394 2.36287C521.432 2.44524 521.472 2.52773 521.51 2.60969C523.817 2.41803 525.01 2.10538 528.429 2.20883C527.468 2.0892 526.506 1.96909 525.549 1.84947C525.285 1.9335 525.022 2.01811 524.762 2.10214C523.187 2.06862 521.606 2.03533 520.031 2.00181C519.771 2.09743 519.517 2.19279 519.258 2.28841C518.84 2.276 518.426 2.26397 518.008 2.25155C518.112 2.18242 518.218 2.11366 518.326 2.04453C517.499 2.0615 516.67 2.07883 515.847 2.0958C517.523 1.68775 520.528 2.1305 520.311 1.78917C520.683 1.84213 521.056 1.89546 521.427 1.94883C521.59 1.78332 522.347 1.83096 523.68 1.85704C523.375 1.77549 523.037 1.69504 522.757 1.61266C524.053 1.72773 526.352 1.71656 527.694 1.76085C528.284 1.7803 527.695 1.9003 527.87 1.91441C528.769 1.98809 530.487 1.77871 530.846 1.79527C532.995 1.89381 534.391 2.29077 536.737 2.02914C534.316 1.96457 535.633 1.99184 534.772 1.84654C534.502 1.80098 531.375 1.70594 535.291 1.74815C535.75 1.75343 542.855 2.0277 540.519 2.23787C541.669 2.17081 542.569 2.09327 543.623 2.02206C546.198 2.57596 545.307 2.05561 544.558 1.76915C544.981 1.7679 545.382 1.765 545.817 1.765C544.893 2.06595 549.6 2.08464 551.197 1.93271C551.732 1.88221 550.236 1.78588 551.473 1.74034C552.063 1.76144 552.731 1.78877 553.354 1.81236C552.451 1.62194 554.223 1.54856 554.198 1.35486C555.331 1.52747 556.197 1.89333 555.575 2.09164C556.511 2.01134 557.452 1.93115 558.388 1.85044C557.954 1.80449 557.513 1.75894 557.079 1.71299C560.139 1.8347 564.074 1.55776 564.713 1.96469C565.119 1.96179 565.528 1.95929 565.934 1.95639C566.059 1.88767 566.181 1.81882 566.306 1.7501C568.141 1.8097 569.972 1.86969 571.806 1.92929C570.173 1.97194 569.784 2.06975 568.07 1.99032C568.731 2.06936 569.403 2.14883 570.051 2.22786C572.63 2.01508 572.982 1.87524 576.866 1.93857C577.041 1.94146 579.976 2.1199 580.076 2.13728C580.536 2.21676 579.838 2.33222 580.043 2.37238C580.611 2.48498 584.066 2.76771 583.999 2.81035C583.155 3.3336 571.531 3.34054 568.387 3.36745C535.779 3.64646 503.888 3.2732 471.485 3.33695C471.152 3.33794 471.297 3.41519 471.155 3.41849C470.273 3.43789 469.407 3.31751 469.081 3.31254C468.385 3.30231 468.768 3.41353 468.259 3.41361C463 3.41237 458.037 3.34697 452.774 3.36601C452.431 3.36725 452.781 3.27826 452.179 3.29399C451.868 3.30261 450.896 3.43913 450.194 3.4412C447.744 3.44824 445.687 3.40447 443.103 3.40654C441.69 3.40777 439.57 3.39617 437.99 3.39824C437.293 3.39912 436.566 3.46158 435.876 3.46366C434.898 3.46656 435.098 3.33995 434.947 3.33208C434.287 3.29773 434.195 3.4367 433.568 3.43339C432.402 3.42677 432.339 3.33398 430.859 3.34185C429.802 3.34764 427.381 3.4209 426.047 3.44243C422.929 3.33481 418.999 3.37753 416.089 3.41313C414.367 3.43424 414.207 3.30433 413.505 3.30474C411.03 3.30726 409.152 3.47318 406.828 3.47856C403.744 3.48557 401.01 3.37586 398.022 3.36797C397.537 3.36673 397.648 3.48576 397.173 3.48882C395.413 3.5 393.162 3.52166 391.595 3.50469C389.847 3.48604 389.203 3.31326 387.493 3.34845C386.992 3.35889 386.845 3.51038 386.005 3.52983C384.663 3.56042 383.192 3.42683 382.256 3.41192C380.972 3.39205 382.088 3.54638 380.358 3.52569C380.287 3.52479 380.028 3.41447 379.656 3.41973C378.573 3.43464 378.681 3.52151 377.096 3.51324C376.944 3.51209 374.843 3.40697 374.635 3.40655C373.406 3.4049 370.931 3.36809 370.204 3.39044C367.603 3.46992 369.65 3.63585 367.439 3.2757C366.465 3.36385 365.499 3.4532 364.467 3.53887C365.156 3.45898 362.36 3.34369 362.163 3.35114C360.538 3.41118 361.506 3.55131 359.446 3.52813C362.167 3.20441 356.787 3.48641 355.587 3.49469C349.81 3.53483 344.558 3.45405 338.752 3.45612C336.808 3.45697 334.203 3.5254 332.146 3.52374C331.667 3.52364 332.029 3.44703 331.607 3.44538C331.186 3.44424 331.653 3.53025 331.173 3.5257C328.184 3.49588 325.842 3.3336 323.104 3.53644C322.97 3.50711 322.975 3.48394 322.754 3.45173C320.513 3.63344 316.198 3.38907 314.576 3.35554C312.039 3.30341 311.391 3.42624 309.548 3.40144C307.111 3.36832 303.451 3.12836 305.086 3.52448C303.414 3.53689 301.804 3.54032 300.115 3.50349C299.927 3.49931 300.057 3.39863 299.982 3.39656C299.505 3.3821 299.35 3.47225 299.028 3.47639C298.155 3.48752 299.58 3.37959 298.335 3.40974C297.679 3.42589 297.306 3.50451 295.484 3.50617C284.497 3.51487 272.57 3.48671 261.307 3.47347C260.534 3.47264 261.043 3.57 260.073 3.56379C256.704 3.54225 250.672 3.37839 247.767 3.40072C244.862 3.42307 245.517 3.56545 243.699 3.62507C243.348 3.63666 243.636 3.55552 243.318 3.55428C241.182 3.54682 238.635 3.42025 236.904 3.40121C235.76 3.38845 235.851 3.51611 235.057 3.52523C233.874 3.53847 232.657 3.4095 232.025 3.40536C229.058 3.38718 227.017 3.49106 224.246 3.43808C224.354 3.46617 224.426 3.49218 224.518 3.51986C221.236 3.51531 217.959 3.51074 214.678 3.50619C214.832 3.53186 214.982 3.55774 215.137 3.58382C211.287 3.56974 211.726 3.29156 212.065 3.87897C211.785 3.89967 211.488 3.92365 211.22 3.94269C211.329 3.6401 209 3.41866 206.036 3.34165C205.819 3.33585 204.36 3.63089 204.519 3.28233C204.139 3.3676 203.912 3.42638 203.59 3.50131C202.963 3.39578 202.328 3.2915 201.701 3.18638C201.362 3.20211 201.019 3.21729 200.681 3.23301C200.63 3.30132 200.669 3.37224 200.56 3.4393C198.989 3.44965 195.765 3.36521 194.523 3.37388C191.438 3.39582 188.297 3.58049 185.897 3.38096C184.728 3.4013 185.889 3.53536 184.15 3.5184C183.954 3.45053 183.769 3.38547 183.565 3.31553C182.144 3.61879 181.847 3.43431 179.9 3.37095C178.583 3.3279 177.721 3.40202 176.467 3.38755C176.149 3.38382 176.194 3.29481 175.977 3.29771C175.249 3.30689 173.171 3.4294 172.657 3.43272C168.001 3.465 164 3.45126 159.565 3.41856C159.088 3.41525 159.706 3.50309 159.213 3.49937C158.419 3.49352 158.886 3.35853 158.426 3.35191C157.144 3.3342 157.134 3.47654 155.345 3.48399C149.455 3.5084 142.683 3.40147 136.529 3.39195C136.337 3.39195 136.349 3.47535 136.14 3.47618C134.777 3.48026 133.398 3.36752 132.161 3.36876C130.108 3.37042 128.565 3.48758 126.538 3.48717C122.575 3.48675 119.034 3.42676 114.958 3.42345C111.622 3.42055 108.725 3.43168 105.067 3.43126C89.0883 3.42961 72.7839 3.69433 56.6969 3.55358C56.2875 3.54986 56.4543 3.47618 56.3294 3.47937C55.1422 3.51124 55.0362 3.61066 54.614 3.40247C53.1016 3.4435 52.6243 3.59991 50.7978 3.58874C49.8243 3.58288 50.5511 3.34045 48.9042 3.46545C47.4171 3.57846 49.0581 3.71132 44.6358 3.57556C44.5187 3.57183 43.9423 3.42406 43.0229 3.46253C42.0989 3.50061 43.1684 3.60642 40.9443 3.6383C35.723 3.71281 29.114 3.58507 23.0441 3.62439C22.6638 3.62687 18.9999 3.70587 18.2767 3.7423C16.8771 3.81309 17.1696 3.9229 15.3516 3.94981C13.9469 3.97051 12.788 3.84612 11.1366 3.87096C10.9443 3.87398 10.6222 4.00193 9.38114 3.98497ZM317.127 1.49968C317.47 1.37414 318.088 0.912055 320.161 1.05268C320.357 1.06592 319.297 1.38369 320.442 1.43425C319.321 1.46778 318.23 1.47864 317.127 1.50016C317.127 1.5 317.127 1.49984 317.127 1.49968ZM0.396528 1.03858C1.94746 1.06176 3.50386 1.08473 5.05479 1.10791C3.98462 1.1638 2.91293 1.21958 1.84678 1.27588C1.36203 1.19682 0.881399 1.11764 0.396528 1.03858ZM193.469 1.25801C193.468 1.25801 193.466 1.25801 193.465 1.25801C195.095 1.1984 196.727 1.13868 198.357 1.07907C198.186 1.12295 198.014 1.16702 197.842 1.2109C196.555 1.28002 195.267 1.34904 193.984 1.41816C193.813 1.36477 193.641 1.3114 193.469 1.25801ZM180.588 1.72259C179.547 1.67043 179.802 1.58247 179.229 1.49677C179.229 1.49694 179.229 1.4971 179.229 1.49726C179.078 1.47495 178.374 1.45544 178.102 1.4521C178.202 1.50716 178.332 1.56151 178.441 1.61615C176.012 1.74945 171.262 1.27577 177.411 1.08493C177.319 1.15446 177.232 1.22364 177.14 1.29317C180.196 1.27372 183.602 1.42454 180.588 1.72259ZM341.699 1.29949C344.308 1.0718 345.144 1.0238 348.309 1.17986C347.862 1.2444 347.415 1.30892 346.968 1.37346C346.445 1.30763 345.926 1.24226 345.404 1.17644C345.402 1.17644 345.401 1.17644 345.399 1.17644C345.295 1.24557 345.19 1.31482 345.09 1.38395C343.961 1.35581 342.828 1.32763 341.699 1.29949ZM80.7303 1.55807C80.0032 1.10334 80.2129 1.36766 82.2897 1.26512C83.0087 1.22952 82.308 1.14995 82.7553 1.13671C85.1709 1.06435 85.3641 1.36902 84.8249 1.52755C83.4579 1.53832 82.0766 1.54814 80.7347 1.55807C80.7332 1.55807 80.7317 1.55807 80.7303 1.55807ZM18.0561 1.65256C18.0547 1.65256 18.0531 1.65256 18.0517 1.65256C17.989 1.54165 18.9629 1.51181 17.8645 1.40672C18.7001 1.40714 19.5355 1.40802 20.3752 1.40843C20.1291 1.41877 19.8775 1.42862 19.6311 1.43895C19.8486 1.47703 20.0665 1.5156 20.2839 1.55369C20.5807 1.4262 20.8566 1.50031 21.7342 1.54295C21.4918 1.40676 21.2504 1.27047 21.0079 1.13428C22.0279 1.17484 23.0513 1.21554 24.0711 1.2561C24.0837 1.29042 24.0965 1.3248 24.109 1.35912C24.4936 1.31525 24.8741 1.27091 25.2585 1.22704C25.3631 1.26802 25.4637 1.30862 25.5682 1.3496C26.0321 1.31856 26.4967 1.28755 26.9605 1.2561C27.1017 1.35535 26.0794 1.39825 27.8918 1.37303C27.3359 1.47486 26.7811 1.57637 26.2209 1.67819C23.4995 1.66992 20.7775 1.66125 18.0561 1.65256ZM99.6241 1.41818C96.6267 1.43722 97.4709 1.36529 98.1649 1.14012C98.6496 1.23282 99.1393 1.32548 99.6241 1.41818ZM254.049 1.61858C254.919 1.465 255.792 1.31295 256.683 1.16474C258.455 1.07905 260.228 1.35898 258.895 1.46868C257.289 1.60031 255.613 1.45299 254.049 1.61858ZM294.421 1.55022C292.252 1.479 294.293 1.29651 294.782 1.19013C295.382 1.3611 296.219 1.34601 297.562 1.3659C296.3 1.37698 294.78 1.56231 294.421 1.5507C294.421 1.55054 294.421 1.55038 294.421 1.55022ZM219.149 1.44599C218.28 1.45058 217.415 1.49347 216.638 1.44135C216.873 1.29449 218.427 1.4281 217.315 1.2104C217.871 1.20668 218.428 1.20307 218.98 1.19893C218.629 1.28913 219.101 1.35654 219.147 1.4455C219.147 1.44566 219.148 1.44583 219.149 1.44599ZM128.665 1.24509C130.371 1.41896 130.694 1.34456 132.413 1.22409C132.655 1.36565 130.606 1.60278 129.323 1.65498C129.105 1.51838 128.887 1.38169 128.665 1.24509ZM532.11 1.31751C531.7 1.49795 528.679 1.52148 527.177 1.46814C527.356 1.44138 527.535 1.41426 527.714 1.38709C529.177 1.36391 530.646 1.34069 532.11 1.31751ZM298.202 1.3781C297.977 1.37282 297.764 1.36888 297.562 1.3659C297.786 1.36393 298.002 1.367 298.202 1.3781ZM389.015 2.16125C388.3 2.33137 390.424 2.38853 387.845 2.32189C387.845 2.32205 387.845 2.32221 387.845 2.32237C386.14 2.27849 385.763 2.26678 384.183 2.25353C384.752 2.03499 387.958 1.95687 383.539 1.91175C383.481 1.91155 383.597 2.04159 382.891 2.02381C382.673 2.01828 381.975 1.91155 380.915 1.8805C380.572 1.87057 377.996 1.83765 381.507 1.83558C381.403 1.68324 381.591 1.52905 381.583 1.38126C382.954 1.33831 384.007 1.63661 385.457 1.62929C387.61 1.6177 388.706 1.31605 389.12 1.71181C387.309 1.80904 384.201 1.81138 383.795 1.57339C382.044 1.57049 381.541 1.76548 382.953 1.86195C389.002 1.73941 384.614 2.15138 389.91 1.99573C389.973 1.94069 390.191 1.88146 390.158 1.82972C391.775 2.02341 389.27 2.1004 389.015 2.16125ZM376.366 1.74037C377.411 1.62405 378.452 1.50679 379.493 1.39005C379.493 1.57964 378.919 1.74978 377.272 1.85658C376.971 1.8177 376.666 1.77884 376.366 1.74037ZM464.283 1.69055C464.433 1.58748 464.834 1.49302 465.127 1.39491C465.445 1.48184 472.97 1.56524 469.141 1.65052C468.585 1.66293 465.194 1.48067 464.283 1.69055ZM116.823 1.40036C117.709 1.46949 118.591 1.53873 119.474 1.60787C118.116 1.65172 116.757 1.69672 115.399 1.7414C115.875 1.62775 116.347 1.51401 116.823 1.40036ZM268.476 1.79948C268.102 1.79561 269.345 1.65385 267.87 1.67619C268.97 1.58553 270 1.5088 271.074 1.42352C271.396 1.49058 271.721 1.55737 272.043 1.62443C272.294 1.58138 272.55 1.53859 272.801 1.49553C272.65 1.59323 272.516 1.68865 272.357 1.788C270.547 1.57853 270.132 1.81603 268.476 1.79948ZM214.651 2.18155C214.326 1.96922 216.947 1.84296 214.368 1.80901C214.857 1.66951 215.644 1.59634 217.153 1.58392C217.395 1.63727 217.637 1.69023 217.879 1.74358C217.913 1.60082 218.301 1.54776 219.149 1.44599C219.15 1.44615 219.15 1.44631 219.151 1.44648C221.445 1.43614 221.308 1.48374 221.86 1.71843C219.431 1.58596 219.359 1.80039 217.703 1.9279C216.566 2.01557 215.082 1.97587 214.651 2.18155ZM456.265 1.693C457.982 1.51376 456.441 1.34659 459.488 1.537C459.292 1.58253 459.095 1.62769 458.898 1.67322C458.02 1.68026 457.143 1.68679 456.265 1.693ZM206.174 1.4538C206.371 1.78247 207.988 2.03832 208.264 1.5036C206.688 1.39473 207.458 1.69761 206.174 1.4538ZM293.682 2.06484C290.651 2.0495 291.224 1.67854 292.47 1.49309C292.662 1.56057 292.854 1.62816 293.042 1.69523C293.573 1.66459 294.104 1.6339 294.635 1.60368C294.317 1.75726 293.999 1.91126 293.682 2.06484ZM152.745 1.81488C155.062 1.58016 150.245 1.68434 151.863 1.53779C153.155 1.42065 154.857 1.65716 154.214 1.80536C153.766 1.8095 153.268 1.8124 152.75 1.81488C152.748 1.81488 152.747 1.81488 152.745 1.81488ZM166.148 1.74774C165.768 1.49696 166.316 1.57006 164.486 1.61518C163.963 1.62801 159.811 1.53383 161.554 1.74164C163.038 1.74164 164.605 1.74526 166.148 1.74774ZM328.713 1.69791C328.741 1.80712 325.544 2.04693 325.133 1.98695C325.133 1.98712 325.133 1.98728 325.133 1.98744C324.025 1.82393 327.398 1.80069 325.935 1.57633C329.175 1.77376 330.144 1.29621 329.919 1.92543C328.01 1.95304 328.914 1.82333 328.713 1.69791ZM571.782 1.83164C571.783 1.83164 571.785 1.83164 571.786 1.83164C571.572 1.8265 569.802 1.66622 570.017 1.6107C572.145 1.6583 571.766 1.76381 573.747 1.59044C573.855 1.64628 573.948 1.70044 574.065 1.75669C573.279 1.78981 572.844 1.85689 571.782 1.83164ZM472.418 1.91076C471.637 1.93932 470.21 1.82096 469.32 1.828C472.154 1.37347 475.541 1.79732 472.418 1.91076ZM47.3692 1.63693C47.3716 1.63677 47.3736 1.63661 47.376 1.63644C47.3752 1.63669 47.3744 1.63693 47.3737 1.63718C47.3723 1.63709 47.3707 1.63701 47.3692 1.63693ZM411.838 1.63808C411.939 1.66758 411.996 1.69321 412.017 1.71571C412.017 1.71783 412.017 1.71994 412.017 1.72206C411.962 1.69443 411.904 1.66649 411.838 1.63808ZM335.359 1.66495C336.691 1.81726 332.253 2.0594 330.819 2.0016C330.919 1.93208 330.935 1.86906 331.168 1.78921C332.326 1.96923 335.137 1.63928 335.359 1.66495ZM234.195 1.72087C237.703 1.72501 233.138 2.32639 232.95 1.8466C232.957 1.8373 234.105 1.72169 234.195 1.72087ZM307.699 1.72794C306.805 1.91001 308.601 1.95836 305.729 1.9269C305.562 1.87974 305.395 1.83247 305.228 1.78531C306.051 1.76627 306.875 1.74698 307.699 1.72794ZM257.173 2.51038C261.587 2.40896 265.809 2.23004 262.934 1.72795C262.6 1.74407 262.261 1.75967 261.927 1.7758C261.877 2.02075 260.644 1.88704 258.839 1.87906C258.582 1.97631 257.581 1.9988 257.393 2.08145C257.03 2.2412 258.18 2.35351 257.173 2.51038ZM70.7988 2.11176C70.8698 2.06995 70.9394 2.02792 71.0105 1.98652C71.7086 1.93933 72.4086 1.89236 73.1068 1.84517C72.994 1.92541 72.881 2.00564 72.7682 2.08588C72.1122 2.09457 71.4593 2.10331 70.8033 2.112C70.8019 2.11192 70.8002 2.11184 70.7988 2.11176ZM372.064 2.2572C372.465 1.79699 371.063 1.88175 368.221 2.11438C369.5 2.16199 370.784 2.20959 372.064 2.2572ZM186.236 2.32388C186.144 2.19314 186.053 2.0628 185.957 1.93205C184.448 2.06825 184.728 2.21798 185.451 2.39102C185.715 2.36868 185.973 2.34621 186.236 2.32388ZM164.497 2.37955C165.123 2.40682 164.804 2.30126 164.869 2.30338C166.453 2.35885 166.677 2.40727 168.621 2.32779C168.859 2.30006 169.093 2.2709 169.331 2.24235C168.433 1.96838 167.78 2.1177 165.878 1.95672C166.221 2.05069 166.562 2.14479 166.905 2.23917C165.848 2.21931 164.795 2.19971 163.737 2.17985C163.612 2.20883 163.486 2.23754 163.361 2.26652C163.737 2.30376 164.125 2.34562 164.497 2.37955ZM62.7253 1.99287C61.6969 1.98211 60.6638 1.97092 59.6354 1.96016C59.5978 2.02763 59.5616 2.09556 59.524 2.16303C60.5898 2.10633 61.6596 2.04957 62.7253 1.99287ZM393.179 2.04748C393.26 2.02355 393.34 1.99947 393.41 1.97498C393.403 2.00483 393.314 2.02813 393.179 2.04748ZM574.495 2.20174C575.662 2.24892 577.342 2.21794 578.621 2.22786C578.521 2.05859 575.269 2.10538 574.128 2.00277C573.944 2.03314 574.002 2.18188 574.495 2.20174ZM289.489 2.04995C289.196 2.13439 288.904 2.21843 288.616 2.30286C287.909 2.29376 287.201 2.28414 286.49 2.27503C286.469 2.34417 286.449 2.4139 286.428 2.48303C289.559 2.39322 288.837 2.59257 290.387 2.78917C290.086 2.5429 289.79 2.29663 289.489 2.04995ZM30.0037 2.43133C32.2654 2.38455 33.0675 2.29718 31.7926 2.08979C30.9943 2.13738 30.1916 2.18502 29.3933 2.23261C29.5981 2.29883 29.8032 2.36511 30.0037 2.43133ZM434.368 2.20372C436.261 2.12623 436.292 2.40455 438.142 2.24913C437.151 2.19781 436.161 2.14591 435.174 2.09459C434.908 2.13088 434.635 2.16743 434.368 2.20372ZM341.545 2.9681C342.344 3.06493 343.836 2.60467 346.081 2.94442C346.616 2.84302 346.951 2.74616 347.411 2.64683C347.679 2.75488 347.983 2.8643 348.238 2.97152C348.239 2.97152 348.241 2.97152 348.242 2.97152C350.278 2.93509 348.958 2.79958 349.004 2.68491C349.026 2.63738 350.537 2.71684 350.064 2.61338C349.249 2.43579 346.203 2.53791 346.195 2.32141C347.265 2.39216 349.355 2.33304 348.737 2.1886C348.059 2.03006 346.09 2.29575 344.836 2.16419C346.633 2.51022 342.921 2.40334 342.499 2.13758C340.321 2.34166 342.323 2.42491 344.555 2.4154C343.192 2.61906 345.198 2.50903 345.529 2.67832C344.123 2.78052 339.301 2.69533 341.545 2.9681ZM238.787 2.5929C240.292 2.57977 242.644 2.69618 243.675 2.5243C244.275 2.42416 241.917 2.34661 243.543 2.18935C242.076 2.20469 241.742 2.26612 241.993 2.40394C241.658 2.42049 241.32 2.43663 240.986 2.45277C240.831 2.42588 240.672 2.39934 240.518 2.37245C240.342 2.42916 240.166 2.48541 239.994 2.54212C239.639 2.53095 239.28 2.51977 238.925 2.50819C238.883 2.5367 238.812 2.56152 238.787 2.5929ZM488.71 2.19516C488.292 2.19682 487.878 2.19846 487.46 2.20053C487.506 2.2341 487.561 2.26906 487.614 2.30356C487.652 2.33082 487.69 2.35808 487.728 2.38534C487.486 2.28794 485.494 2.12606 484.656 2.23007C484.234 2.28225 485.194 2.4675 483.406 2.49984C484.701 2.49031 485.902 2.46503 487.16 2.4493C487.047 2.50436 486.938 2.56001 486.826 2.61506C486.826 2.61515 486.827 2.61523 486.828 2.61531C487.246 2.62772 487.669 2.64073 488.086 2.65315C488.295 2.50039 488.501 2.34792 488.71 2.19516ZM187.461 2.58241C188.887 2.47437 189.364 2.41826 188.691 2.24356C188.689 2.24348 188.688 2.2434 188.686 2.24332C188.155 2.32072 187.624 2.39809 187.093 2.47548C187.215 2.51109 187.336 2.54681 187.461 2.58241ZM405.458 2.62411C408.489 1.96054 401.663 2.36732 402.963 2.59335C403.022 2.6037 405.174 2.55084 405.458 2.62411ZM294.238 2.26893C293.406 2.27431 292.573 2.27917 291.737 2.28455C291.929 2.36611 292.126 2.44737 292.318 2.52893C292.958 2.44241 293.599 2.35545 294.238 2.26893ZM39.8505 2.73258C40.7261 2.91473 42.9738 2.98072 44.0721 2.78263C43.4953 2.75945 42.9181 2.73623 42.3412 2.71305C43.4319 2.69029 44.5103 2.66524 45.6093 2.64372C45.6678 2.38995 44.4013 2.53717 42.4948 2.46721C42.1997 2.45593 40.3129 2.14094 39.6611 2.37835C39.53 2.42715 41.5375 2.46033 40.1423 2.60222C40.7524 2.61338 41.2789 2.61091 41.8555 2.61711C41.8974 2.67755 41.9387 2.73806 41.9847 2.7985C41.2718 2.77661 40.5635 2.75447 39.8505 2.73258ZM247.551 2.57312C249.619 2.58713 249.874 2.48573 250.304 2.30653C249.343 2.32682 248.381 2.34679 247.419 2.36708C247.465 2.43562 247.505 2.50417 247.551 2.57312ZM58.3321 2.79068C59.4642 2.81999 58.9793 2.67413 59.4349 2.6464C61.157 2.5421 62.3319 2.64634 64.0331 2.58097C63.9201 2.60912 63.8166 2.63543 63.7078 2.66276C63.7093 2.66276 63.7109 2.66276 63.7123 2.66276C71.7678 2.78569 67.5365 2.4549 62.7164 2.50871C62.6037 2.45448 62.4951 2.40018 62.3822 2.34637C60.2253 2.44116 58.236 2.53238 58.3321 2.79068ZM378.531 2.64682C378.623 2.68077 377.841 2.89649 379.308 2.7955C380.47 2.48054 378.565 2.63686 378.088 2.51573C378.485 2.48551 378.891 2.45611 379.284 2.42589C376.909 2.33688 376.563 2.41177 377.428 2.64194C377.49 2.65741 378.439 2.61298 378.531 2.64682ZM394.137 2.80209C394.463 2.33802 391.466 2.5467 391.575 2.69076C391.988 2.69651 392.31 2.61793 392.749 2.65268C393.192 2.68745 393.305 2.79584 394.137 2.80209ZM308.28 2.68858C308.368 2.69065 309.25 2.88569 309.162 2.73301C308.071 2.37162 305.873 2.60424 306.257 2.73009C306.985 2.72386 307.469 2.66963 308.28 2.68907C308.28 2.68891 308.28 2.68875 308.28 2.68858ZM26.212 2.84195C26.2539 2.8549 28.4543 2.9333 28.7383 2.86051C28.9723 2.77856 29.0885 2.69073 29.2641 2.60588C28.0518 2.68454 25.5978 2.62462 26.2165 2.84195C26.215 2.84195 26.2137 2.84195 26.212 2.84195Z" fill="#161616"/>
</svg>
