<svg width="320" height="52" viewBox="0 0 320 52" fill="none" xmlns="http://www.w3.org/2000/svg" preserveAspectRatio="none">
<path d="M279.801 35.3071C280.916 34.9463 277.192 35.1828 279.666 34.644C279.151 34.6076 278.631 34.5701 278.112 34.5337C277.98 34.7332 277.846 34.9323 277.714 35.1318C278.412 35.1906 279.107 35.2493 279.801 35.3081C279.801 35.3077 279.801 35.3074 279.801 35.3071ZM280.742 37.806C280.113 37.2369 278.098 37.0851 280.272 36.56C280.445 36.7553 280.621 36.9505 280.793 37.1459C281.534 36.9944 282.32 36.8429 283.077 36.6923C283.35 36.7667 283.622 36.8413 283.895 36.9149C284.241 36.5755 284.583 36.2352 284.928 35.895C284.622 35.9446 284.311 35.9952 284.004 36.0448C282.793 35.7692 281.675 35.6938 280.047 35.6425C280.192 35.5622 280.336 35.4826 280.48 35.4023C279.647 35.5389 278.809 35.6758 277.97 35.8124C278.699 35.9465 279.51 36.0956 280.178 36.2206C279.114 36.7528 277.192 36.4566 276.212 36.3456C274.876 36.1941 275.177 36.4472 274.18 36.3412C274.021 36.3247 274.003 36.1263 273.687 36.123C272.081 36.1072 269.017 36.2124 270.813 36.6752C273.432 36.6156 275.645 36.9872 278.229 36.8514C277.546 37.3866 278.912 37.5687 280.742 37.806ZM232.695 36.102C233.48 36.3619 235.091 36.257 236.191 36.0766C236.192 36.0766 236.193 36.0766 236.195 36.0766C236.437 36.0368 236.985 35.6914 236.195 35.7055C234.908 35.7296 234.291 36.2733 233.621 35.9042C233.322 35.9729 233.008 36.0341 232.695 36.102ZM229.902 36.0697C229.117 36.203 229.471 36.6127 230.457 36.5019C230.457 36.5022 230.457 36.5025 230.457 36.5028C230.869 36.4565 230.058 36.1326 231.539 36.4613C231.841 36.2056 232.142 35.973 232.439 35.7255C232.078 35.7214 231.744 35.7147 231.364 35.7114C231.62 36.1317 230.686 35.9375 229.902 36.0697ZM269.488 36.4438C269.365 36.0656 269.883 36.068 270.761 35.8056C269.932 35.818 269.101 35.8313 268.27 35.8437C268.678 36.044 269.081 36.2435 269.488 36.4438ZM289.03 36.3852C289.031 36.3852 289.032 36.3852 289.034 36.3852C289.305 36.4448 289.576 36.5046 289.841 36.5634C290.002 36.4284 290.161 36.2941 290.321 36.1591C291.288 36.2858 292.275 36.4124 293.23 36.5399C293.118 36.1277 291.383 36.1948 290.416 35.9067C289.022 36.0309 288.335 36.2702 288.244 36.6195C288.505 36.5417 288.766 36.463 289.03 36.3852ZM142.94 47.0027C142.694 46.7893 142.444 46.5638 142.214 46.336C142.605 46.4534 143.001 46.5672 143.392 46.6395C144.237 47.4378 144.501 47.0733 145.837 47.3594C147.499 47.6674 148.307 47.7837 149 47.8846C150.026 48.0039 150.617 48.0764 152.878 47.0062C149.798 47.5045 150.898 46.8019 149.093 46.4709C148.702 46.7927 150.568 47.4511 149.311 47.6279C149.207 47.6138 149.103 47.5991 149 47.5836C146.884 47.264 144.994 46.6927 143.074 45.7175C143.156 45.6923 143.238 45.6664 143.318 45.6393C143.629 45.7945 143.948 45.9392 144.283 46.0742C143.952 45.8252 143.655 45.5724 143.359 45.3007C143.694 45.7856 142.607 45.1514 142.612 45.553C142.606 45.736 143.059 46.1786 143.319 46.4378C142.453 46.219 141.596 45.9063 140.766 45.5075C141.107 45.8668 141.46 46.2055 141.838 46.5301C142.193 46.701 142.566 46.8606 142.933 47.0016C142.935 47.002 142.938 47.0024 142.94 47.0027ZM23.633 36.29C24.8986 36.6791 27.0429 36.7435 28.2321 36.3105C26.6737 36.3038 25.2186 36.2966 23.633 36.29ZM288.151 36.9076C288.289 36.8414 288.423 36.776 288.56 36.7099C287.953 36.5873 287.337 36.4657 286.722 36.3432C286.604 36.5343 286.483 36.7256 286.361 36.9159C286.96 36.9134 287.56 36.9101 288.151 36.9076ZM249.2 36.6947C249.645 36.7063 249.685 36.7 250.239 36.6727C250.239 36.6729 250.238 36.6731 250.237 36.6732C250.457 36.663 252.298 36.5514 252.093 36.4042C251.179 36.4017 250.204 36.4042 249.27 36.4042C249.241 36.501 249.235 36.5971 249.2 36.6947ZM259.951 36.6088C259.953 36.6085 259.954 36.6081 259.955 36.6078C260.287 36.5854 260.602 36.5399 260.944 36.5316C259.711 36.3 259.516 36.7156 258.393 36.598C257.27 36.4797 256.577 36.2503 255.625 36.8197C255.979 36.905 256.36 37.027 256.724 37.1263C258.318 36.8987 258.748 37.1129 260.025 37.3373C260 37.0939 259.976 36.8522 259.951 36.6088ZM161.454 43.4743C161.844 43.5895 162.006 43.189 162.033 43.1702C162.033 43.1703 162.032 43.1703 162.031 43.1703C164.422 42.1304 161.675 43.2205 163.76 41.952C163.412 42.0802 163.067 42.1964 162.723 42.3111C162.317 42.6996 161.878 43.1139 161.454 43.4743ZM172.04 27.4956C172.124 27.508 172.208 27.5239 172.292 27.5352C172.157 26.2512 172.511 25.9361 172.328 24.8073C172.133 25.7043 172.028 26.6066 172.039 27.4957C172.039 27.4957 172.04 27.4956 172.04 27.4956ZM241.495 37.2909C243.194 37.4474 244.438 37.5163 246.071 37.2679C246.072 37.2676 246.074 37.2673 246.075 37.267C246.169 37.2517 245.714 37.0802 245.837 37.037C246.173 37.0626 246.521 37.1021 246.862 37.1327C246.908 36.9954 246.952 36.8581 246.998 36.7216C246.039 36.7605 245.082 36.7994 244.123 36.8383C244.265 36.758 244.41 36.6783 244.551 36.598C243.737 36.5567 242.928 36.5154 242.118 36.474C242.4 36.6991 242.681 36.9243 242.96 37.1503C242.473 37.1974 241.987 37.2429 241.495 37.2909ZM182.504 6.73076C182.352 6.95493 182.82 6.79428 182.549 7.09169C182.278 7.3852 181.592 7.72985 181.889 7.81396C182.329 7.49804 182.8 7.18858 183.25 6.91774C182.118 8.25318 180.589 9.162 180.959 9.58272C182.072 8.34197 183.178 7.54388 184.557 6.87882C184.296 6.49723 182.719 7.09163 183.345 6.16638C183.061 6.34636 182.764 6.54512 182.508 6.72942C182.507 6.72987 182.506 6.73032 182.504 6.73076ZM312.904 42.503C313.997 42.4691 316.342 42.6512 317.702 42.3912C318.015 42.3271 319.083 41.4972 319.097 41.3878C319.06 41.0194 317.685 40.9693 319.162 40.7292C318.641 40.7267 318.22 40.7129 317.754 40.7062C317.837 40.4587 317.919 40.2118 317.998 39.9651C318.525 40.0023 319.17 40.0398 319.742 40.0778C319.77 39.9959 319.798 39.9137 319.827 39.8318C317.69 39.8301 318.943 39.5138 317.892 39.219C318.779 39.07 319.96 38.9217 320.834 38.7727C320.311 38.7909 319.645 38.8044 319.119 38.826C319.059 38.4062 320.271 38.5063 320.452 38.4285C321.644 37.9889 315.687 38.2108 315.242 37.5999C316.105 37.5321 317.224 37.4658 318.127 37.3988C317.862 37.3234 317.587 37.2481 317.31 37.1727C315.068 37.594 312.717 37.7433 310.1 38.0057C309.86 37.9883 309.651 37.9705 309.427 37.9539C309.493 37.7644 309.555 37.5756 309.62 37.3861C309.283 37.3637 308.938 37.3416 308.594 37.3192C309.6 37.9434 308.227 37.9349 306.463 38.3157C307.399 38.5351 308.525 38.4021 308.446 38.8108C305.276 38.4964 301.699 38.9408 298.61 38.5857C297.868 38.498 297.882 37.9707 296.1 38.0194C296.161 38.0773 296.172 38.1819 296.211 38.2581C293.137 38.0056 291.252 37.8546 288.1 38.1121C288.284 37.9226 288.465 37.7323 288.649 37.5428C289.324 37.6372 289.987 37.7331 290.658 37.8275C291.123 37.5145 290.444 37.3764 292.473 37.3797C294.124 37.3822 293.141 37.5204 293.588 37.6131C294.197 37.7397 294.699 37.4907 295.378 37.6322C295.891 37.7406 295.341 37.9988 296.67 37.9334C296.137 37.5989 295.589 37.2535 295.044 36.9149C294.709 36.9903 294.409 37.0668 294.088 37.1429C294.413 37.2324 294.713 37.3206 295.052 37.41C293.91 37.2494 292.848 37.0979 291.648 36.9315C292.043 37.415 290.785 37.2338 290.133 37.1766C289.11 37.0873 289.988 37.4201 289.315 37.3646C288.64 37.3083 287.91 36.9365 286.668 37.016C287.334 37.2312 286.428 37.4242 286.603 37.6229C286.78 37.8216 288.089 37.8655 286.83 38.0823C284.42 37.9176 287.019 37.161 285.412 37.0385C283.482 36.8911 283.007 38.1243 283.591 38.3895C284.05 38.5981 285.611 38.5561 286.062 38.764C283.28 39.139 283.236 38.3986 282.756 38.2537C280.996 37.7264 282.166 39.1339 280.111 38.6248C280.15 38.888 280.181 39.1248 280.22 39.3772C279.864 39.3292 279.628 39.2654 279.197 39.2273C280.467 38.7144 279.429 38.7364 278.893 38.7356C278.049 38.734 279.352 38.4838 279.129 38.4192C278.528 38.2464 277.571 38.3249 278.157 38.0989C277.894 38.2041 277.609 38.3095 277.337 38.4139C276.341 38.2829 274.055 37.1842 276.24 37.4061C276.037 36.9979 275.329 37.1941 274.774 37.2562C274.219 37.3182 274.229 37.0583 273.74 37.1063C271.79 37.2984 273.066 37.7431 273.375 38.0916C270.798 37.8515 273.312 37.6927 269.624 37.5321C269.267 37.2481 270.973 36.9451 269.552 36.7811C269.293 37.2745 268.235 37.6289 266.197 37.7928C265.999 37.6794 265.802 37.5649 265.604 37.4515C264.491 37.9069 265.062 38.3804 262.995 37.8158C264.106 38.8548 263.339 38.1901 261.492 38.6131C261.118 38.6984 261.983 38.9139 261.46 39.0232C261.223 39.0725 260.648 38.9098 260.068 39.0354C259.785 39.0975 258.462 39.4981 257.543 39.3079C258.217 38.8045 256.472 38.3762 257.968 37.9598C255.206 38.0625 253.276 37.8208 256.368 38.5071C255.668 38.6595 254.966 38.8112 254.265 38.9627C253.777 38.8426 253.284 38.7235 252.793 38.6043C252.718 39.018 252.794 39.1341 250.868 39.0613C251.704 39.1589 252.535 39.2582 253.373 39.3567C253.402 39.4402 253.518 39.5271 253.49 39.6081C252.465 39.4492 249.569 39.3809 248.87 39.2708C248.17 39.1606 249.522 39.1305 249.321 39.0237C247.64 38.143 247.778 38.7925 246.568 38.6414C245.859 38.552 247.553 38.4549 247.173 38.4168C245.766 38.2772 245.113 38.7453 243.869 38.7513C244.311 38.4856 244.749 38.2158 245.181 37.9476C243.871 37.9617 242.432 37.964 241.207 37.8787C240.729 37.8454 241.09 37.6479 241.012 37.6346C240.624 37.5667 239.052 37.4592 238.887 37.4584C237.635 37.4568 237.613 37.7305 236.384 37.7454C236.865 37.7686 237.317 37.7895 237.78 37.8118C237.991 38.2556 238.207 38.6993 238.418 39.1438C237.238 39.1761 236.028 39.2077 234.833 39.24C235.706 39.0918 236.593 38.9444 237.467 38.7962C236.097 38.4377 234.722 38.0784 233.364 37.7191C232.659 37.9393 231.948 38.1595 231.231 38.3797C229.292 38.3216 229.685 37.4277 228.772 38.2108C228.203 38.1446 227.649 38.0784 227.067 38.013C227.149 38.1247 227.23 38.2367 227.313 38.3484C226.618 38.2797 225.928 38.2115 225.242 38.1419C225.963 37.7462 226.675 37.3298 227.399 36.9457C226.033 36.8597 226.011 37.1954 225.808 37.2792C225.271 37.501 224.214 37.2018 223.794 37.4071C223.651 37.4776 224.967 37.6986 224.514 37.9534C224.423 38.0028 222.67 38.9398 221.519 38.7234C221.541 38.5537 221.629 38.3456 221.675 38.161C220.144 38.0579 219.383 38.9438 219.581 39.1922C218.787 39.0183 217.587 39.0038 217.419 38.7322C217.001 38.7256 216.588 38.7193 216.174 38.7127C216.603 39.3741 214.884 39.2531 214.776 38.6844C215.477 38.6703 216.187 38.6555 216.902 38.6414C216.371 37.9443 218.502 37.5235 214.045 38.1693C213.184 38.5319 215.56 38.1198 214.863 38.3914C213.675 38.5495 212.476 38.4172 211.338 38.6697C209.896 38.9851 211.723 39.2885 208.31 38.887C215.718 37.8811 207.308 38.2074 203.818 37.8953C202.886 38.8889 199.964 39.2036 195.903 38.908C196.305 38.6315 197.563 38.7739 198.324 38.6829C199.072 38.5918 198.291 38.4278 199.18 38.2986C200.042 38.1695 202.068 37.994 202.951 37.7987C202.19 37.6422 198.284 37.2722 200.846 37.7166C198.973 37.9906 197.999 38.2722 195.707 38.3235C195.005 37.8922 194.975 37.6236 192.748 37.6112C194.078 38.2106 191.48 38.6271 192.048 39.2463C193.718 39.1021 192.765 38.5003 193.705 38.2122C193.787 38.1834 195.349 38.3343 195.707 38.3235C194.125 38.8642 193.608 39.0654 194.557 39.7087C193.454 39.6524 192.821 39.7332 192.724 39.426C192.506 39.5593 192.252 39.6927 192.025 39.8259C191.66 39.8226 191.338 39.8103 190.968 39.8127C191.437 39.3895 190.639 39.5909 190 39.4688C189.931 39.4572 189.863 39.4426 189.798 39.4242C189.057 39.2044 190.023 38.8672 188.047 38.8096C188.7 38.7241 189.312 38.6415 189.975 38.5393C188.631 38.4183 187.465 38.2583 186.2 38.0442C187.136 37.8415 188.954 37.4723 188.932 37.0946C188.324 37.2334 186.518 36.8917 186.255 36.8521C185.427 36.7464 185.86 37.0167 185.796 37.0178C184.496 37.019 183.518 36.787 182.948 37.0516C182.012 36.7266 181.344 36.6825 180.331 36.3999C179.798 36.2452 179.979 36.0228 179.666 35.9792C177.598 35.5513 179.138 36.7783 175.904 34.3181C176.389 34.4101 176.885 34.4735 177.401 34.5227C177.025 34.2613 176.687 33.9939 176.38 33.7216C176.138 33.6098 175.866 33.4665 175.625 33.3299C175.396 33.6514 175.167 33.9746 174.939 34.2969C174.649 34.1105 174.381 33.9217 174.114 33.7136C174.516 34.1218 174.957 34.5042 175.459 34.8733C175.466 34.9598 175.47 35.0448 175.478 35.1319C174.638 34.7307 173.889 34.2882 173.143 33.6878C173.229 33.5789 173.316 33.4699 173.402 33.362C171.958 32.0167 171.774 31.9167 171.388 30.0497C170.88 28.6653 171.355 27.3936 171.576 26.6244C171.492 26.3441 171.417 26.045 171.353 25.7523C171.476 25.5726 171.602 25.3947 171.731 25.2219C171.604 24.8476 171.495 24.4431 171.398 24.0518C171.8 23.9053 171.877 23.8213 171.854 25.2478C172.293 24.7977 172.557 22.3878 172.8 21.3343C172.947 20.5525 172.308 21.2587 172.297 21.1533C172.245 20.7866 172.859 19.5663 172.953 19.3084C173.332 18.1669 173.733 17.4243 174.197 16.4309C174.286 16.2388 174.385 15.6044 174.407 15.5566C174.573 15.1949 175.01 14.3071 175.072 14.2135C178.336 9.46444 175.408 14.919 178.673 10.7898C178.668 10.9976 178.671 11.1978 178.674 11.3998C178.939 11.11 179.214 10.8191 179.486 10.5425C179.746 10.1077 179.175 10.3955 179.989 9.80482C179.825 9.73251 179.659 9.66133 179.492 9.59412C179.867 9.34258 180.23 9.11461 180.61 8.88435C180.699 7.95659 182.653 6.25662 182.123 5.83333C181.943 5.65509 180.264 6.67491 180.921 5.84037C181.556 5.28904 181.274 5.85545 181.552 5.66345C183.587 4.33768 183.336 4.14305 184.273 3.75304C184.485 3.83389 184.712 3.9141 184.931 3.99979C185.265 3.79727 185.583 3.61926 185.935 3.45192C186.058 3.52924 186.181 3.60813 186.297 3.69061C185.945 3.80178 185.606 3.93529 185.31 4.06623C185.666 4.18588 187.377 3.81933 188.115 3.87989C188.576 3.88601 188.75 3.84093 188.19 3.6857C188.166 3.67992 188.141 3.67456 188.115 3.66961C187.518 3.51751 186.45 3.81381 187.066 3.18348C187.416 3.14384 187.769 3.13077 188.115 3.15256C188.587 3.17927 189.013 3.25267 189.416 3.3812C189.876 3.52668 190.24 3.71771 190.59 3.99909C190.686 3.93227 190.782 3.86645 190.883 3.80551C191.559 4.43559 191.39 4.58671 191.189 4.53701C190.969 4.49295 190.601 4.38277 190.527 4.47934C190.771 4.69836 190.967 4.95443 191.122 5.24654C191.282 5.31448 191.45 5.40839 191.602 5.50839C191.436 5.59968 191.208 5.85407 191.491 6.79401C191.638 7.42989 192.013 6.31928 192.002 7.66315C191.724 7.53793 191.457 7.1545 191.288 8.4623C191.551 8.6235 191.78 8.85342 192.051 9.01002C191.523 10.6992 191.679 11.674 190.681 13.5024C190.028 14.6931 188.651 15.9966 189.217 17.2345C188.794 18.1266 188.695 17.7299 188.513 17.95C187.649 18.9789 187.554 20.1291 187.461 20.3471C186.803 21.8237 186.258 22.3435 185.731 23.5692C185.606 23.3995 185.472 23.2632 185.343 23.1089C186.246 22.2784 186.579 21.7476 187.38 20.2779C187.063 20.7372 186.734 21.199 186.396 21.663C186.31 21.4983 186.222 21.335 186.134 21.1751C189.306 17.0259 187.84 17.6366 185.439 21.1808C185.492 21.655 185.54 22.1289 185.586 22.6029C183.814 24.4562 183.472 25.6128 181.789 27.9204C181.586 28.1971 180.688 29.0346 180.339 29.4347C180.343 29.4272 180.348 29.4197 180.353 29.4123C179.927 29.484 180.114 29.0599 179.954 28.8594C179.748 29.0574 179.541 29.2549 179.332 29.4514C179.065 30.056 179.336 29.9916 178.475 30.8971C178.445 30.6448 178.412 30.3947 178.378 30.1438C177.477 31.157 177.023 31.9524 176.082 32.8027C176.281 32.6997 176.479 32.5977 176.678 32.4927C174.888 34.6063 177.224 33.8222 175.341 34.9149C175.314 35.0785 175.289 35.2405 175.26 35.4043C175.903 34.8151 176.534 34.2131 177.155 33.6021C177.267 33.685 177.379 33.7665 177.489 33.8519C176.808 34.5014 176.114 35.1383 175.411 35.7591C175.968 35.3503 176.52 34.9327 177.068 34.5055C176.352 35.3317 175.618 36.1413 174.863 36.9366C175.36 35.773 174.223 36.7548 174.086 36.1926C172.972 37.787 172.192 39.2428 169.601 40.7883C169.082 41.0873 169.143 40.6232 168.033 41.9456C168.041 41.2627 166.173 42.2315 166.1 41.6309C166.588 41.3365 167.089 41.0085 167.556 40.7124C167.15 41.227 167.353 41.7091 168.231 41.2662C169.356 40.7003 170.564 39.2868 170.854 39.7728C171.226 39.4401 171.574 39.1332 171.931 38.8039C171.688 38.8255 171.448 38.8421 171.209 38.8582C172.406 38.1518 173.005 37.5186 173.256 36.8185C171.997 37.8469 170.702 38.8294 169.373 39.7541C169.548 39.589 169.725 39.4202 169.896 39.2552C168.71 39.7195 169.5 38.7026 167.65 39.9862C167.758 40.1111 167.864 40.2376 167.973 40.3631C167.06 40.5036 165.196 41.7504 165.51 40.9303C165.038 41.4288 164.975 41.5832 164.509 41.5553C163.215 42.8232 162.434 43.7757 163.276 43.9799C162.642 44.2277 161.998 44.4634 161.364 44.6746C161.638 44.3606 161.907 44.0432 162.171 43.7219C161.157 44.2752 160.123 44.7843 159.07 45.2382C159.153 45.7317 161.16 44.4518 160.722 45.1151C160.634 45.2518 159.984 45.3514 159.853 45.4598C158.458 46.6269 160.823 45.1889 160.514 45.7503C158.147 46.8926 160.363 46.7772 156.728 47.4671C156.678 47.6254 156.621 47.7884 156.575 47.9437C155.345 48.3166 155.359 47.9904 154.292 48.1828C153.635 48.2948 152.856 48.9856 152.052 48.7202C151.916 48.6544 153.06 47.9066 150.473 48.1784C149.48 48.2509 149.182 48.3544 149 48.4951C148.807 48.6347 148.743 48.8008 148.161 48.8644C146.996 49.0284 144.625 47.9735 143.689 48.4115C144.309 48.4928 145.038 48.6068 145.704 48.6369C145.945 48.8218 146.189 48.9998 146.446 49.1743C144.932 48.8123 143.338 48.5867 142.51 47.9015C140.353 47.6801 138.702 45.8575 139.56 45.7471C140.048 46.1731 139.317 46.0082 140.171 46.3523C140.321 46.2837 140.474 46.2162 140.621 46.1435C139.318 45.402 138.537 44.6832 138.82 45.453C138.623 45.3149 138.432 45.1737 138.243 45.0266C138.405 44.7688 138.573 44.5146 138.738 44.2597C138.556 44.0586 138.38 43.8531 138.211 43.643C137.95 43.4846 137.692 43.3168 137.436 43.1375C137.379 43.7426 137.826 44.3719 136.057 42.6903C136.182 42.5827 136.305 42.4731 136.43 42.3658C135.097 40.9014 134.673 41.0541 133.576 38.7398C133.881 40.7992 135.411 41.1819 134.426 41.7916C134.766 42.1791 135.129 42.5611 135.499 42.9158C135.415 43.0788 135.332 43.2427 135.248 43.4055C133.414 41.124 132.795 36.552 131.742 35.0162C131.774 34.7825 131.796 34.549 131.84 34.3147C131.038 32.6801 131.9 31.7881 131.179 30.0915C131.119 29.91 130.167 30.3871 130.129 28.0017C130.25 28.0588 130.452 28.0857 130.605 28.13C130.521 27.6265 130.446 27.1211 130.383 26.6132C130.496 26.5243 130.609 26.4317 130.724 26.3446C130.739 27.2081 130.787 28.0604 130.867 28.9197C130.874 28.2029 130.904 27.4892 130.957 26.7793C131.122 27.7091 131.14 28.1156 131.424 27.5637C131.439 26.7717 131.483 25.9765 131.554 25.1888C131.634 25.1125 131.714 25.0373 131.795 24.9621C131.988 25.3584 132.182 25.751 132.392 26.1333C132.295 24.1124 132.529 22.3777 132.41 20.7536C132.396 20.478 131.901 21.3427 132.555 19.6128C132.413 19.5499 132.303 19.4727 132.173 19.4081C133.153 17.3162 133.232 16.6189 133.857 14.2998C133.535 15.8229 133.881 14.4845 134.181 14.198C134.383 13.9992 133.961 14.9367 134.112 14.8738C134.257 14.7992 135.193 13.7887 134.795 14.8297C132.915 17.0668 133.673 18.145 132.55 21.5099C132.764 20.9898 132.991 20.4753 133.228 19.9757C133.249 20.2416 133.271 20.4793 133.299 20.765C133.545 18.8215 133.459 19.7684 133.789 19.0289C134.124 18.2931 134.673 16.9477 135.059 16.072C135.181 15.793 134.868 16.0157 135.109 15.37C135.268 14.9259 136.078 13.9052 135.896 13.4863C135.787 13.197 134.23 14.7943 135.586 12.1997C135.655 11.6003 135.034 12.8746 135.005 12.8921C134.632 13.0042 135.319 11.2574 135.973 10.6688C136.024 10.6226 135.848 11.2907 136.305 10.7349C137.417 9.41854 137.858 8.5459 138.396 7.5069C138.777 7.68101 140.048 6.97916 141.413 5.92303C141.548 5.96789 141.678 6.0176 141.811 6.06626C141.556 6.15594 141.306 6.25255 141.054 6.35934C140.857 6.58414 140.643 6.81116 140.473 7.05374C141.895 6.07272 142.403 6.47475 143.154 6.28722C145.733 5.89632 143.857 5.16286 143.251 5.1487C142.957 5.38693 142.694 5.64101 142.435 5.90332C142.404 5.76622 142.374 5.62747 142.342 5.49035C144.229 4.53775 144.389 4.42403 144.201 4.18501C144.031 3.98359 143.548 3.81338 144.646 3.36824C145.254 3.75451 146.328 3.63316 147.847 3.46403C148.28 3.41978 148.708 3.38339 149.155 3.37477C149.411 3.42478 149.654 3.48724 149.882 3.56685C149.889 3.67136 149.841 3.81123 149.877 3.89156C151.033 4.37068 151.623 4.85885 152.116 5.15137C152.594 5.46003 152.923 5.58338 153.02 5.69477C153.885 6.87111 153.22 7.93914 153.216 8.22799C153.109 9.68265 153.251 10.1431 152.793 11.3879C152.236 12.7351 152.346 11.7232 152.04 12.0696C151.806 12.3272 151.365 13.3615 151.049 13.6808C151.232 13.5714 151.42 13.4419 151.6 13.3302C151.198 14.6896 150.78 15.8497 149.974 17.26C148.258 18.3604 148.565 20.4388 147.942 19.2262C148.758 17.9341 149.089 17.1215 149.227 16.2835C148.697 17.1013 148.121 17.9131 147.521 18.6929C147.463 19.0055 147.442 19.259 147.355 19.6074C146.7 20.0294 145.72 21.4495 145.214 21.8996C142.826 23.9977 143.165 22.92 141.688 25.5161C143.234 24.13 143.523 24.402 144.87 22.8417C144.792 23.3594 144.023 24.0989 144.739 23.8254C143.282 25.2545 143.515 24.5506 142.779 24.9166C142.144 25.2284 141.148 26.1395 141.001 25.8612C141.013 26.0751 141.044 26.2649 141.053 26.4798C140.088 27.3519 139.107 28.1753 138.075 28.9737C138.618 28.7713 139.162 28.557 139.699 28.3353C139.418 28.6536 139.13 28.9704 138.836 29.2852C136.047 30.9216 131.739 34.5177 131.832 32.8855C130.479 33.5814 130.379 33.8071 129.742 34.41C129.614 34.3581 129.497 34.3201 129.365 34.2568C128.523 34.7796 127.666 34.7359 126.909 35.1558C126.148 35.5734 126.067 35.986 125.734 35.4596C125.271 35.8221 124.791 36.1472 124.312 36.4788C123.946 36.454 123.583 36.4258 123.224 36.3911C122.742 36.6151 122.254 36.8296 121.764 37.0343C121.422 36.8347 119.436 37.4327 118.506 37.3815C117.712 37.8287 117.883 38.8432 115.786 38.8962C115.815 38.6462 115.843 38.397 115.87 38.147C115.41 38.2465 114.938 38.3381 114.473 38.4203C114.45 38.5022 114.431 38.5839 114.408 38.6657C114.646 38.6256 114.882 38.5835 115.122 38.5377C114.923 38.6905 114.726 38.8408 114.53 38.99C113.794 38.8375 113.063 38.6641 112.336 38.4695C113.315 38.3081 114.259 38.1096 115.208 37.8743C113.992 37.7957 113.176 38.0067 112.12 37.8121C112.077 37.8281 112.037 37.8437 112 37.8589C111.723 38.0146 111.562 38.141 111.603 38.2724C111.634 38.4037 111.807 38.54 111.938 38.7156C111.81 38.6999 111.649 38.6844 111.456 38.669C111.36 38.6613 111.256 38.6535 111.144 38.6458C111.055 38.638 110.995 38.6302 110.917 38.6224C111.006 38.7879 110.953 38.9234 111.024 39.0197C111.015 39.116 111.505 39.1731 112 39.1819C112.157 39.1839 112.338 39.1825 112.545 39.1765C112.406 39.2836 112.262 39.385 112.123 39.4947C112.08 39.4927 112.04 39.4924 112 39.4932C111.813 39.4986 111.629 39.562 111.242 39.5266C110.37 39.4157 109.432 38.7686 109.564 38.5418C109.573 38.5121 109.629 38.504 109.719 38.506C109.832 38.5079 109.973 38.52 110.105 38.5304C110.371 38.5514 110.595 38.5662 110.576 38.4822C110.539 38.2774 109.929 38.221 109.719 38.1643C109.518 38.1076 109.9 38.0508 111.461 37.8451C111.119 37.7799 110.959 37.7432 110.781 37.7262C110.606 37.7091 110.441 37.7116 110.262 37.7246C110.088 37.7376 109.873 37.7611 109.662 37.7861C109.482 37.811 109.268 37.8374 108.981 37.8563C109.071 37.7198 109.157 37.5841 109.24 37.4476C108.744 37.5105 108.095 37.5732 107.578 37.6361C108.327 38.3373 104.409 38.6007 107.928 39.2141C106.957 39.2456 105.726 39.2772 104.755 39.3103C104.966 39.3823 105.174 39.4536 105.377 39.5256C105.89 39.4876 106.398 39.4501 106.869 39.4128C106.329 39.5444 105.659 39.6753 105.136 39.8069C103.864 39.6438 103.291 39.3929 102.644 39.0833C104.278 38.8573 103.75 39.166 104.934 39.2273C104.893 39.0312 104.947 38.8508 104.845 38.6448C104.277 39.051 102.111 38.7555 101.704 38.7356C100.276 38.6753 101.404 39.0744 100.428 39.0828C99.3898 39.0911 98.3437 38.8535 97.5359 39.2493C97.5502 39.0275 97.6135 38.798 97.6702 38.596C96.1522 38.5231 96.4415 38.7852 96.285 38.8191C93.8538 39.3771 92.4172 38.906 89.6274 38.8489C89.9904 38.7802 90.3541 38.7182 90.7145 38.6536C88.5711 38.1826 90.041 38.3268 91.8525 38.1712C90.155 38.2184 89.1376 37.8173 87.8725 37.6981C86.6808 37.5791 84.5585 37.7851 83.7642 37.9456C85.5948 38.2039 87.3777 38.0336 89.4185 38.1048C89.1937 38.3308 88.9741 38.522 88.7399 38.7703C87.496 38.296 86.8705 38.6131 86.4681 38.6761C85.3215 38.8606 85.3538 38.4535 84.6505 38.8914C84.6791 38.7408 84.7001 38.6141 84.7287 38.4734C82.3226 38.5364 79.7732 38.8026 78.2166 38.2464C78.0767 38.6082 77.971 38.9567 77.8096 39.3259C76.8098 39.0536 75.9438 39.3325 75.0866 39.2688C74.2357 39.2051 74.5434 38.9127 73.5633 38.8001C73.381 38.7794 73.001 38.9624 72.5499 38.8274C72.0963 38.6918 70.4047 37.683 70.2 38.5643C69.3351 38.5684 68.5385 38.6006 67.7053 38.6155C68.5175 38.6652 69.3205 38.7133 70.143 38.763C69.4405 38.9766 68.7559 39.1895 68.0661 39.4031C67.978 39.2127 67.8896 39.0188 67.8049 38.8308C65.9457 38.599 64.5639 38.9104 62.6914 38.8367C62.3768 38.8243 63.1196 38.4478 61.7228 38.5437C60.325 38.6398 59.2813 39.3425 56.9025 39.0711C56.7822 39.057 56.0769 38.5188 55.2237 38.8914C55.0296 38.9758 55.8466 39.1008 55.401 39.2117C54.9556 39.3226 52.9634 39.4139 52.8073 39.678C52.8286 39.5844 52.9529 39.4875 53.0132 39.3923C52.673 39.3476 52.3296 39.3029 51.9862 39.259C51.9543 39.4238 51.9199 39.5888 51.888 39.7527C49.9356 39.3694 48.9253 38.7441 46.0269 38.951C46.8398 38.7117 47.6558 38.4715 48.47 38.2322C48.6936 38.4003 48.9197 38.5695 49.1382 38.7376C50.4676 38.6705 51.8055 38.604 53.1416 38.5369C53.3614 38.7282 53.5773 38.9189 53.7972 39.1101C54.1521 39.0853 54.5019 39.0612 54.8559 39.0364C54.7674 38.8981 54.6781 38.7606 54.5861 38.6224C55.2868 38.6563 55.9885 38.691 56.6856 38.7249C55.2668 37.9088 52.7202 38.7943 52.9036 38.1116C52.5884 38.2176 52.2728 38.3242 51.9579 38.431C51.8198 38.0999 51.1788 38.1952 50.0523 38.2474C50.3102 38.0843 50.5951 37.9234 50.8321 37.7586C49.7393 37.9888 47.7861 37.9664 46.649 38.055C46.15 38.0939 46.6484 38.3339 46.5 38.3621C45.738 38.5095 44.2907 38.0907 43.9889 38.1238C42.154 38.3209 40.9707 39.1148 39.0028 38.5916C41.0363 38.4624 39.9301 38.517 40.6552 38.2264C40.882 38.1353 43.5259 37.9452 40.2178 38.0296C39.8559 38.0402 33.8011 38.5887 35.7864 39.0091C34.8189 38.8749 34.0696 38.7198 33.1601 38.5774C30.9668 39.6852 31.729 38.6445 32.3625 38.0716C32.0036 38.0691 31.6636 38.0633 31.2973 38.0633C32.0823 38.6652 28.0938 38.7026 26.7394 38.3987C26.2891 38.2977 27.5483 38.1051 26.5072 38.014C26.0097 38.0562 25.4656 38.1109 24.9345 38.158C25.7129 37.7772 24.1821 37.6304 24.2043 37.243C23.2292 37.5882 22.5025 38.32 23.0281 38.7166C22.2306 38.556 21.4628 38.3956 20.6715 38.2342C21.0521 38.1423 21.3989 38.0512 21.7648 37.9593C19.1533 38.2027 15.863 37.6488 15.2853 38.4627C14.9397 38.4569 14.5946 38.4519 14.2575 38.4461C14.1532 38.3087 14.0528 38.171 13.9493 38.0335C12.4183 38.1527 10.8414 38.2727 9.29122 38.3919C10.7234 38.4772 10.9514 38.6728 12.4528 38.514C11.8769 38.672 11.3056 38.831 10.7702 38.989C8.59236 38.5635 8.36239 38.2838 4.99619 38.4105C4.92973 38.4162 2.30019 38.7731 2.31426 38.8079C2.12602 38.8874 2.15989 38.9848 2.25427 39.0725C2.32381 39.1601 2.4175 39.2379 2.33962 39.2781C2.08315 39.3907 1.18467 39.5883 0.439442 39.7685C0.209697 39.8136 0.0110942 39.8575 -0.151632 39.8988C-0.233084 39.9194 -0.305766 39.9394 -0.369972 39.9584C-0.402306 39.968 -0.431325 39.9773 -0.460723 39.9864C-0.517473 39.9954 -0.568088 40.0043 -0.613212 40.0128C-0.970216 40.0814 -0.997175 40.1327 -0.999624 40.154C-0.37913 41.2005 9.53588 41.2144 12.178 41.2682C39.815 41.8262 66.7819 41.0797 94.269 41.2072C94.5491 41.2092 94.4268 41.3636 94.5458 41.3703C95.2883 41.4091 95.9744 41.1683 96.283 41.1584C96.8919 41.1379 96.5575 41.3603 96.998 41.3605C101.438 41.358 105.686 41.2272 110.119 41.2653C110.425 41.2678 110.129 41.0898 110.634 41.1213C110.751 41.1287 110.924 41.1839 111.177 41.2445C111.511 41.3051 111.813 41.3712 112 41.4004C112.095 41.4096 112.187 41.4148 112.275 41.4147C114.519 41.4051 116.379 41.1621 118.694 40.7884C119.961 40.5873 121.839 40.15 123.207 39.7612C123.814 39.5924 124.484 39.5185 125.078 39.3276C125.919 39.0533 125.662 38.8679 125.785 38.8098C126.321 38.5478 126.496 38.7795 127.024 38.5732C128.004 38.1786 127.979 37.9943 129.21 37.4772C130.087 37.1153 132.106 36.2884 133.167 35.7371C135.524 34.2084 138.466 32.306 140.531 30.7206C141.758 29.7809 141.678 29.4875 142.158 29.0745C143.81 27.6258 145.234 26.6898 146.663 25.1453C148.539 23.0929 149.882 21.0077 151.324 18.7021C151.558 18.3237 151.707 18.5352 151.937 18.1666C152.802 16.7887 153.785 14.932 154.291 13.4707C154.828 11.8693 154.704 11.1398 155.033 9.40024C155.112 8.85984 155.452 8.71185 155.487 7.745C155.572 6.12153 154.601 4.01905 153.549 2.99079C152.856 2.27674 152.801 2.2297 152.728 2.07185C152.64 1.94754 152.535 1.65934 151.315 1.12751C151.211 1.08652 150.816 1.15677 150.344 1.01403C149.071 0.689133 149.181 0.576878 147.847 0.509533C147.687 0.506493 147.507 0.508018 147.3 0.517365C147.122 0.485828 144.965 0.954998 144.757 1.04387C143.476 1.25508 141.122 2.34276 140.484 2.71234C138.158 3.98663 139.662 2.57137 138.317 4.4778C137.47 4.94023 136.631 5.49264 135.83 6.12444C136.381 5.71957 134.783 7.94667 134.706 8.09923C133.714 9.30336 133.975 8.37391 132.984 10.0773C134.863 8.1938 131.76 12.2769 131.406 13.3634C129.242 18.3346 128.565 23.2022 128.679 28.5424C128.719 30.3313 128.852 32.761 129.285 34.6548C129.384 35.0936 129.457 34.7257 129.551 35.1131C129.647 35.4994 129.374 35.1106 129.493 35.5511C130.27 38.2876 131.403 40.2182 132.467 42.7162C132.587 42.7959 132.624 42.768 132.795 42.9141C133.598 45.0627 137.201 47.809 138.666 48.473C140.901 49.6641 141.454 50.0708 143.216 50.5694C145.582 51.2391 149.111 50.8088 147.497 51.5352C147.994 51.5743 148.494 51.5957 149 51.5981C150.097 51.6036 151.196 51.5183 152.289 51.3267C152.464 51.2954 152.316 51.1116 152.386 51.0983C152.825 51.0095 152.997 51.164 153.299 51.123C154.117 51.0037 152.755 51.0256 153.921 50.8769C154.538 50.7831 154.907 50.8997 156.562 50.4496C166.492 47.5726 174.831 40.4954 181.365 33.1329C181.812 32.6218 181.665 33.0869 182.213 32.4354C184.158 30.1728 187.045 25.7294 188.431 23.5611C189.846 21.3831 189.748 22.0654 190.681 20.6837C190.856 20.4184 190.588 20.5659 190.724 20.3153C191.63 18.6669 192.424 16.4192 192.95 14.97C193.321 13.951 193.522 14.123 193.781 13.4366C194.178 12.3583 194.208 11.2035 194.332 10.5428C194.595 9.14579 194.792 7.76597 194.625 6.25376C194.47 4.77695 193.727 2.61963 191.567 1.48319C191.74 1.51545 191.878 1.53874 192.042 1.5806C191.375 1.14288 190.695 0.87468 189.983 0.705914C189.369 0.562183 188.745 0.501022 188.115 0.502197C184.918 0.612179 182.834 1.94284 180.924 3.19537C181.021 3.06615 181.116 2.94047 181.216 2.81272C178.15 5.00608 179.007 5.26529 178.456 4.13669C178.223 4.2768 177.975 4.42741 177.754 4.57114C178.22 4.97353 176.846 6.71659 175.213 8.87037C175.093 9.01778 173.784 9.68906 174.423 10.0125C174.075 10.1769 173.856 10.2676 173.558 10.412C173.378 10.9975 173.204 11.5925 173.056 12.1771C172.857 12.4111 172.658 12.6524 172.463 12.8926C172.324 12.8561 172.224 12.7489 172.057 12.7594C171.223 13.946 169.969 16.6489 169.52 17.7279C168.327 20.3177 167.207 23.2863 167.543 25.7751C167.495 26.9755 167.184 25.7751 167.309 27.5898C167.46 27.7819 167.61 27.9678 167.775 28.1619C167.404 29.7183 167.785 30.0554 168.697 31.939C169.373 33.2006 169.77 34.0663 170.68 35.0845C170.91 35.3313 171.01 35.1744 171.162 35.3447C171.659 35.9631 173.19 37.4719 173.685 37.75C177.698 40.2766 181.55 40.8629 185.505 41.1877C185.945 41.2178 185.36 41.3458 185.818 41.3755C186.56 41.4192 186.147 41.1181 186.572 41.1333C187.674 41.1589 187.656 41.4527 189.287 41.4969C189.521 41.5018 189.759 41.5048 190 41.506C194.751 41.5318 200.283 41.3353 205.257 41.317C205.423 41.317 205.413 41.4838 205.594 41.4855C206.761 41.4936 207.884 41.2682 208.953 41.2707C210.738 41.274 211.963 41.5083 213.724 41.5075C217.054 41.5066 220.059 41.3867 223.527 41.38C226.334 41.3742 228.792 41.3965 231.902 41.3957C245.435 41.3923 259.227 41.9218 272.852 41.6403C273.201 41.6328 273.059 41.4855 273.165 41.4918C274.174 41.5556 274.262 41.7544 274.62 41.338C275.902 41.4201 276.282 41.7329 277.848 41.7106C278.676 41.6989 278.061 41.214 279.455 41.464C280.718 41.69 279.3 41.9557 283.069 41.6842C283.168 41.6768 283.659 41.3812 284.435 41.4582C285.212 41.5343 284.314 41.7459 286.181 41.8097C290.615 41.9587 296.214 41.7032 301.355 41.7819C301.654 41.7868 304.794 41.9448 305.39 42.0177C306.556 42.1593 306.302 42.3789 307.871 42.4327C309.073 42.4741 310 42.2253 311.442 42.275C311.603 42.281 311.889 42.5369 312.904 42.503ZM138.999 44.1376C138.952 43.7517 139.194 42.8247 137.981 41.862C137.859 41.7603 137.916 42.8064 137.258 42.1872C137.77 42.9114 138.362 43.5444 138.998 44.1383C138.998 44.138 138.998 44.1378 138.999 44.1376ZM320.52 36.6102C319.903 36.6334 319.221 36.6565 318.531 36.6796C317.913 36.7027 317.262 36.7257 316.582 36.7489C317.551 36.8607 318.302 36.9722 319.307 37.0848C319.73 36.9267 320.132 36.7684 320.52 36.6102ZM173.082 20.187C173.081 20.1882 173.081 20.1893 173.08 20.1904C173.666 19.0278 174.348 17.9061 175.098 16.8343C174.954 16.9093 174.81 16.9851 174.666 17.0641C174.043 17.9044 173.461 18.7816 172.939 19.6832C172.986 19.8503 173.033 20.02 173.082 20.187ZM171.498 30.087C171.903 30.8158 171.994 30.5509 172.339 30.8663C172.339 30.8665 172.339 30.8666 172.339 30.8668C172.428 30.9511 172.726 31.3916 172.844 31.5523C172.711 31.5502 172.567 31.5258 172.43 31.5117C172.791 32.4073 173.912 33.3413 174.515 33.4997C175.138 33.6314 174.915 33.2961 173.73 31.5382C173.656 31.6723 173.584 31.806 173.516 31.9448C172.157 30.2387 171.424 27.6292 171.498 30.087ZM133.009 26.0226C133.592 23.9344 133.736 23.3164 133.919 20.7523C133.719 21.0774 133.523 21.409 133.332 21.7465C133.388 22.1914 133.452 22.6244 133.525 23.0602C133.525 23.0614 133.525 23.0626 133.525 23.0638C133.376 23.1285 133.228 23.1946 133.08 23.2581C133.018 24.1802 132.994 25.1053 133.009 26.0226ZM252.504 37.6493C253.119 36.7398 252.943 37.2684 251.183 37.0634C250.574 36.9921 251.167 36.833 250.788 36.8065C248.742 36.6618 248.58 37.2711 249.036 37.5882C250.193 37.6098 251.364 37.6294 252.5 37.6493C252.502 37.6493 252.503 37.6493 252.504 37.6493ZM305.575 37.8382C305.576 37.8382 305.577 37.8382 305.578 37.8382C305.631 37.6164 304.818 37.5567 305.734 37.3465C305.04 37.3474 304.332 37.3491 303.607 37.35C303.82 37.3706 304.035 37.3903 304.246 37.411C304.06 37.4872 303.873 37.5643 303.686 37.6405C303.438 37.3855 303.166 37.5337 302.449 37.619C302.651 37.3466 302.842 37.074 303.059 36.8016C302.197 36.8828 301.358 36.9642 300.486 37.0453C300.475 37.1139 300.464 37.1827 300.453 37.2513C300.126 37.1636 299.799 37.0749 299.467 36.9872C299.377 37.0691 299.29 37.1503 299.2 37.2323C298.79 37.1702 298.424 37.1082 298.032 37.0453C297.913 37.2438 298.772 37.3296 297.25 37.2792C297.719 37.4828 298.183 37.6858 298.647 37.8895C300.991 37.8729 303.263 37.8556 305.575 37.8382ZM236.508 37.3695C239.048 37.4076 238.327 37.2637 237.744 36.8134C237.338 36.9988 236.921 37.1841 236.508 37.3695ZM182.428 25.9622C181.749 26.356 181.061 26.7483 180.366 27.1447C179.33 28.172 178.784 29.6613 179.675 28.9501C180.74 28.0901 181.384 26.803 182.428 25.9622ZM156.333 46.4352C157.973 45.7412 156.268 45.9329 155.842 45.8334C155.481 46.2989 154.81 46.4693 153.769 46.737C154.753 46.5546 156.067 46.5484 156.333 46.4361C156.333 46.4358 156.333 46.4355 156.333 46.4352ZM186.323 4.98115C185.732 5.17199 185.059 5.39596 184.581 5.78104C184.892 5.93137 185.794 5.20052 185.254 5.94735C185.608 5.77656 186.023 5.60262 186.374 5.48663C186.083 5.40087 186.346 5.16088 186.322 4.98259C186.322 4.98211 186.322 4.98163 186.323 4.98115ZM211.908 37.0233C210.466 37.371 210.227 37.2223 208.738 36.9813C208.527 37.2644 210.297 37.7387 211.354 37.8431C211.537 37.5699 211.721 37.2965 211.908 37.0233ZM42.9115 37.1683C43.2695 37.5292 45.812 37.5763 47.087 37.4696C46.9354 37.4161 46.7834 37.3618 46.632 37.3075C45.389 37.2611 44.1679 37.2147 42.9115 37.1683ZM153.269 46.8646C153.446 46.8193 153.613 46.7767 153.769 46.737C153.594 46.7708 153.424 46.8118 153.269 46.8646ZM152.438 10.4055C152.902 9.86149 152.632 11.7525 152.953 9.44713C152.954 9.44718 152.954 9.44723 152.954 9.44728C153.046 7.91217 153.06 7.55725 152.688 6.12976C152.577 6.46442 152.557 7.27859 152.454 7.56591C152.408 7.70955 152.369 7.71008 152.318 7.44751C152.255 7.19537 152.221 6.64961 151.854 5.84464C151.827 5.80511 152.136 5.76866 151.794 5.2608C151.684 5.11529 151.185 4.71096 150.441 4.35933C150.322 4.28875 149.779 4.07747 149.588 4.05267C149.49 4.03481 149.488 4.04121 149.669 4.10522C149.833 4.17157 150.246 4.2894 150.768 4.68609C150.523 4.88148 150.439 5.20685 150.244 5.43016C150.704 5.90726 151.552 6.27407 151.663 7.40023C151.735 9.0561 150.827 9.77055 151.544 10.2771C152.211 8.90449 151.97 6.27249 151.301 6.2766C151.085 5.73014 150.912 5.42218 150.923 5.24908C150.926 5.08845 151.166 5.06698 151.547 5.47611C152.084 6.53552 152.053 7.25494 152.13 7.681C152.182 8.10878 152.237 8.24768 152.3 8.38837C152.389 8.65607 152.657 8.91372 151.925 11.0489C151.804 11.0695 151.637 11.2122 151.547 11.1548C151.491 12.5965 152.304 10.5794 152.438 10.4055ZM146.833 4.09705C147.174 4.16002 147.512 4.23819 147.847 4.33084C148.38 4.4746 148.753 4.65658 149.152 4.89749C149.224 4.57067 149.036 4.10359 147.847 3.86841C147.757 3.85199 147.663 3.83715 147.565 3.82426C147.315 3.90784 147.068 3.99937 146.833 4.09705ZM100.366 37.9144C100.236 37.7082 99.8848 37.5193 99.6241 37.3231C99.4081 37.497 92.983 37.6638 96.2302 37.8343C96.7766 37.8591 99.4896 37.4946 100.366 37.9144ZM221.943 37.3338C221.186 37.4721 220.438 37.6106 219.697 37.7489C220.836 37.8366 222.001 37.9266 223.158 38.0159C222.76 37.7886 222.347 37.5612 221.943 37.3338ZM174.678 35.2728C174.899 35.0491 173.952 35.5692 174.873 34.7416C174.086 35.2549 173.352 35.7318 172.573 36.2039C172.464 36.4829 172.35 36.7631 172.236 37.0416C172.022 37.1155 171.805 37.191 171.591 37.262C171.813 37.3282 172.023 37.3991 172.254 37.4612C173.117 36.1438 173.689 36.2597 174.678 35.2728ZM182.401 5.39458C182.421 5.8858 184.389 4.8867 182.625 6.14654C183.141 6.13259 183.706 5.88945 184.805 5.33779C184.929 5.154 185.036 4.98335 185.185 4.79772C185.326 5.04987 185.677 4.99049 186.323 4.98115C186.323 4.98067 186.324 4.98019 186.324 4.97971C187.83 4.54247 187.818 4.61846 188.115 4.19957C188.145 4.16765 188.177 4.13383 188.213 4.09817C188.18 4.10193 188.147 4.1058 188.115 4.10976C186.417 4.48045 186.274 4.22779 184.893 4.5271C183.968 4.75838 182.94 5.51616 182.401 5.39458ZM107.16 37.9193C105.751 37.5608 106.941 37.2264 104.434 37.6073C104.597 37.6983 104.759 37.7886 104.918 37.8797C105.566 37.8938 106.477 37.9068 107.16 37.9193ZM178.152 11.2436C177.742 10.7016 178.305 9.32011 179.233 9.90873C178.513 10.993 178.483 10.1325 178.152 11.2436ZM157.238 47.2222C159.673 46.316 158.888 45.7765 157.811 45.8047C157.709 45.9868 157.606 46.1685 157.503 46.3475C157.066 46.4385 156.631 46.5189 156.198 46.5894C156.537 46.8061 156.884 47.0175 157.238 47.2222ZM191.512 38.1629C189.534 37.6935 193.684 37.9018 192.28 37.6087C191.125 37.3745 189.776 37.8475 190.291 38.1439C190.652 38.1521 191.065 38.1579 191.508 38.1629C191.51 38.1629 191.511 38.1629 191.512 38.1629ZM180.391 36.9608C180.82 36.548 180.366 36.6115 181.796 37.0204C182.174 37.175 185.631 37.447 184.158 37.6714C182.891 37.5059 181.694 37.2992 180.391 36.9608ZM133.616 36.6012C133.363 36.6474 133.935 39.3305 134.246 39.5749C134.246 39.575 134.246 39.5752 134.245 39.5753C134.939 40.2508 133.769 37.7161 134.693 38.619C133.243 36.3442 134.054 35.2284 132.876 35.7833C133.306 37.3325 133.33 36.5221 133.616 36.6012ZM9.31283 38.1966C9.31152 38.1966 9.31021 38.1966 9.3089 38.1966C9.53689 38.1863 10.9691 37.8658 10.7978 37.7547C9.09573 37.8499 9.26044 38.0609 7.64019 37.7142C7.55122 37.8259 7.47541 37.9342 7.38078 38.0467C8.02097 38.1129 8.3808 38.2471 9.31283 38.1966ZM93.4769 38.3548C94.1539 38.4119 95.3223 38.1752 96.0734 38.1893C93.7541 37.2802 90.7662 38.1279 93.4769 38.3548ZM280.748 37.807C280.746 37.8066 280.744 37.8063 280.742 37.806C280.743 37.8065 280.744 37.807 280.744 37.8075C280.745 37.8073 280.747 37.8071 280.748 37.807ZM140.995 25.6367C140.974 25.7367 140.974 25.8065 140.992 25.8511C140.995 25.8542 140.998 25.8573 141.001 25.8605C140.997 25.7891 140.994 25.7154 140.995 25.6367ZM132.471 31.239C132.018 30.1611 132.023 33.9404 132.524 35.0944C132.636 34.9767 132.754 34.9316 132.861 34.7027C132.241 33.8444 132.523 31.401 132.471 31.239ZM190.584 11.5934C189.667 14.3797 192.049 11.0805 191.103 10.6739C191.09 10.6724 190.615 11.5176 190.584 11.5934ZM145.596 47.6898C146.265 48.159 144.761 48.0746 147.166 48.3054C147.312 48.2239 147.456 48.1407 147.599 48.0561C146.94 47.9725 146.253 47.8499 145.596 47.6898ZM182.209 29.1482C179.673 31.9853 176.902 34.2877 177.832 31.8386C178.047 31.6524 178.262 31.4615 178.474 31.2733C178.868 31.5659 179.364 30.6245 180.334 29.4411C180.625 29.3994 181.197 28.7741 181.424 28.7545C181.867 28.7157 181.425 29.6179 182.209 29.1482ZM260.912 38.7566C260.852 38.673 260.793 38.5889 260.733 38.5062C260.143 38.4118 259.551 38.3178 258.959 38.2234C259.055 38.3839 259.151 38.5444 259.246 38.7049C259.802 38.7222 260.354 38.7397 260.909 38.7571C260.91 38.757 260.911 38.7568 260.912 38.7566ZM143.073 3.96434C143.736 4.72855 142.567 4.80872 140.317 5.86337C141.139 5.13377 142.068 4.48178 143.073 3.96434ZM169.669 25.5496C169.925 25.644 170.182 25.733 170.441 25.8221C170.149 27.0872 169.87 26.8995 169.514 26.2432C169.56 26.0052 169.612 25.7763 169.669 25.5496ZM181.474 38.5149C180.95 38.4588 181.258 38.3081 181.203 38.3009C179.806 38.0839 179.617 38.1561 178.045 37.4364C177.864 37.3103 177.693 37.1813 177.524 37.0508C178.454 36.8268 178.859 37.3202 180.508 37.4232C180.174 37.532 179.843 37.6361 179.51 37.7348C180.387 37.9526 181.318 38.1275 182.181 38.2478C182.275 38.3243 182.371 38.4001 182.468 38.476C182.134 38.4929 181.794 38.5125 181.474 38.5149ZM267.747 38.5188C268.622 38.4973 269.498 38.4749 270.366 38.4534C270.398 38.5884 270.428 38.7242 270.46 38.8592C269.56 38.7458 268.654 38.6322 267.747 38.5188ZM151.049 13.6808C150.977 13.7237 150.905 13.7648 150.836 13.7985C150.893 13.8182 150.967 13.7691 151.049 13.6808ZM7.03599 38.9368C5.94276 39.0312 4.71745 38.9692 3.49771 38.989C3.64424 38.6505 6.33029 38.7441 7.33037 38.5389C7.47943 38.5996 7.42918 38.8971 7.03599 38.9368ZM160.536 45.876C160.833 45.9257 161.135 45.9696 161.428 46.0159C161.963 45.738 162.496 45.445 163.027 45.139C163.108 45.2522 163.19 45.3666 163.272 45.4797C160.783 46.5722 161.515 46.616 160.425 47.5439C160.474 46.9862 160.508 46.4316 160.536 45.876ZM295.451 39.3958C293.526 39.3022 292.875 39.1275 293.939 38.7127C294.599 38.8079 295.29 38.9031 295.975 38.9983C295.8 39.1308 295.624 39.2633 295.451 39.3958ZM125.507 36.5132C123.937 36.9013 124.076 37.4409 122.46 37.5837C123.25 37.2578 124.031 36.9054 124.787 36.5365C125.024 36.5316 125.267 36.5231 125.507 36.5132ZM129.669 26.0104C129.51 25.273 130.483 24.042 130.109 21.9819C130.383 21.5424 130.625 21.2811 130.894 20.9199C130.725 20.6486 130.563 20.3415 130.4 20.0743C130.401 20.073 130.401 20.0717 130.401 20.0704C130.867 18.3095 130.875 19.5262 131.106 19.5339C131.196 19.5362 131.368 18.203 131.466 18.6589C131.601 19.4374 130.909 21.9971 131.356 22.0749C131.346 21.1342 131.855 19.3932 132.023 19.9784C132.2 20.6006 131.366 22.1663 131.506 23.2736C131.011 21.6433 130.828 24.8758 131.372 25.2661C130.88 27.1084 130.737 25.3844 130.978 23.4542C130.444 24.5892 130.85 22.8775 130.564 22.5436C130.119 23.7356 130.14 28.0253 129.669 26.0104ZM190.809 15.8743C190.257 17.0604 189.512 18.9855 188.771 19.588C188.348 19.9403 189.19 18.0969 188.242 19.1621C188.875 18.0819 189.095 17.8984 189.246 18.2106C189.409 17.9712 189.577 17.716 189.736 17.4718C189.748 17.3275 189.762 17.181 189.772 17.0382C189.941 16.9532 190.108 16.8664 190.273 16.7836C190.385 16.5003 190.492 16.2195 190.604 15.9163C190.671 15.9061 190.742 15.869 190.809 15.8743ZM79.6657 38.9236C80.0243 38.9269 80.3779 38.9302 80.7333 38.9344C80.6942 39.0015 80.6475 39.0714 80.6025 39.1404C80.5703 39.1949 80.538 39.2494 80.5058 39.304C80.7149 39.1092 82.399 38.7854 83.0927 38.9934C83.4518 39.0978 82.617 39.4683 84.1566 39.533C83.0271 39.5139 82.0658 39.4633 80.9888 39.4319C81.0845 39.542 81.1764 39.6533 81.2719 39.7634C81.2713 39.7636 81.2707 39.7637 81.27 39.7639C80.9163 39.7887 80.5568 39.8147 80.1998 39.8396C80.0212 39.5341 79.8451 39.2291 79.6657 38.9236ZM169.251 24.4088C169.635 23.1581 169.864 22.7957 170.086 23.4354C170.086 23.4367 170.086 23.438 170.086 23.4393C169.85 23.8645 169.629 24.3 169.426 24.7651C169.366 24.649 169.307 24.5317 169.251 24.4088ZM146.189 23.1055C143.483 24.215 147.89 20.286 147.523 21.394C147.505 21.4647 146.254 22.8215 146.189 23.1055ZM156.915 47.7585C157.596 47.5512 158.282 47.3148 158.956 47.0602C158.864 47.2718 158.761 47.4859 158.661 47.6983C158.073 47.7357 157.49 47.7556 156.915 47.7585ZM287.118 39.9983C286.353 40.3626 284.484 40.4945 283.547 40.0984C284.037 40.052 284.524 40.0056 285.008 39.9592C284.092 39.9137 283.178 39.8636 282.239 39.8205C282.188 39.313 283.276 39.6075 284.879 39.4675C285.124 39.445 286.717 38.815 287.28 39.2898C287.393 39.3874 285.673 39.4538 286.869 39.7375C286.345 39.7599 285.895 39.7549 285.416 39.7673C285.381 39.8882 285.346 40.0092 285.307 40.1301C285.899 40.0863 286.508 40.042 287.118 39.9983ZM187.134 22.5156C186.209 24.0115 185.891 24.088 185.39 24.1929C185.894 23.5268 186.379 22.8634 186.846 22.2004C186.94 22.3081 187.039 22.4088 187.134 22.5156ZM271.465 40.1145C270.511 40.1731 270.919 39.8814 270.535 39.8259C269.083 39.6173 268.079 39.8258 266.638 39.6951C266.733 39.7514 266.821 39.804 266.912 39.8586C266.911 39.8586 266.91 39.8586 266.909 39.8586C260.098 40.1045 263.677 39.4429 267.755 39.5505C267.851 39.4421 267.943 39.3335 268.039 39.2258C269.873 39.4154 271.546 39.5979 271.465 40.1145ZM148.786 2.28863C148.895 2.24658 148.117 1.66748 149.627 2.12243C150.702 3.03805 148.788 2.22713 148.329 2.51527C148.727 2.59831 149.055 2.69601 149.446 2.83955C148.715 2.7472 148.226 2.76614 147.847 2.7533C147.122 2.7434 147.125 2.58001 147.676 2.25132C147.691 2.24359 147.755 2.2423 147.847 2.24502C148.161 2.24821 148.715 2.32865 148.786 2.28863ZM152.055 15.0869C151.125 14.9357 152.561 12.7235 152.776 12.8758C152.655 13.2257 152.388 13.4653 152.305 13.8328C152.212 14.2159 152.376 14.3955 152.055 15.0869ZM144.732 49.4767C144.661 49.4705 143.777 49.6573 143.928 49.3774C145.045 48.9554 146.911 49.6534 146.554 49.8574C145.879 49.7646 145.454 49.5887 144.732 49.4776C144.732 49.4773 144.732 49.477 144.732 49.4767ZM298.655 40.217C298.625 40.2429 296.78 40.3997 296.533 40.2541C296.334 40.0902 296.235 39.9145 296.085 39.7449C297.129 39.9022 299.166 39.7823 298.651 40.217C298.652 40.217 298.653 40.217 298.655 40.217Z" fill="#141414"/>
</svg>
