<svg width="1512" height="57" viewBox="0 0 1512 57" fill="none" xmlns="http://www.w3.org/2000/svg" preserveAspectRatio="none">
<path d="M1393.7 35.2801C1397.74 34.9194 1384.23 35.1559 1393.2 34.6171C1391.36 34.5807 1389.38 34.5431 1387.67 34.5067C1387.22 34.7063 1386.76 34.9053 1386.31 35.1049C1388.64 35.1636 1391.18 35.2224 1393.7 35.2811C1393.7 35.2808 1393.7 35.2805 1393.7 35.2801ZM1397.1 37.779C1394.83 37.2099 1387.53 37.0582 1395.4 36.533C1396.02 36.7283 1396.66 36.9236 1397.28 37.1189C1399.99 36.9674 1402.68 36.816 1405.33 36.6653C1406.29 36.7398 1407.24 36.8143 1408.18 36.888C1409.39 36.5486 1410.58 36.2082 1411.77 35.868C1410.71 35.9177 1409.63 35.9682 1408.56 36.0179C1404.33 35.7423 1400.53 35.6669 1394.59 35.6156C1395.11 35.5353 1395.63 35.4557 1396.15 35.3753C1393.19 35.5119 1389.94 35.6489 1387.19 35.7855C1389.57 35.9196 1392.68 36.0687 1395.06 36.1937C1391.08 36.7258 1384.57 36.4297 1381.14 36.3187C1376.46 36.1672 1377.52 36.4202 1374.01 36.3143C1373.45 36.2977 1373.39 36.0994 1372.28 36.096C1366.69 36.0803 1355.5 36.1854 1362.02 36.6482C1371.45 36.5886 1379.29 36.9603 1388.07 36.8245C1385.72 37.3596 1390.42 37.5417 1397.1 37.779ZM1227.86 36.075C1230.68 36.3349 1236.4 36.23 1240.25 36.0496C1240.26 36.0496 1240.26 36.0496 1240.27 36.0496C1241.11 36.0099 1243.04 35.6645 1240.27 35.6786C1235.75 35.7027 1233.55 36.2464 1231.17 35.8773C1230.1 35.946 1228.98 36.0071 1227.86 36.075ZM1218.1 36.0428C1215.35 36.1761 1216.6 36.5858 1220.05 36.4749C1220.05 36.4752 1220.05 36.4756 1220.05 36.4759C1221.48 36.4295 1218.66 36.1057 1223.82 36.4344C1224.87 36.1787 1225.9 35.946 1226.95 35.6986C1225.68 35.6944 1224.53 35.6877 1223.21 35.6844C1224.1 36.1047 1220.86 35.9105 1218.1 36.0428ZM1357.34 36.4168C1356.94 36.0387 1358.59 36.041 1361.83 35.7786C1358.74 35.7911 1356.05 35.8043 1353.14 35.8167C1354.55 36.017 1355.94 36.2165 1357.34 36.4168ZM1426.29 36.3582C1426.29 36.3582 1426.29 36.3582 1426.3 36.3582C1427.27 36.4178 1428.24 36.4776 1429.19 36.5364C1429.77 36.4015 1430.33 36.2671 1430.9 36.1321C1434.28 36.2588 1437.62 36.3855 1440.87 36.513C1440.49 36.1007 1434.6 36.1678 1431.24 35.8797C1426.27 36.0039 1423.79 36.2432 1423.46 36.5926C1424.4 36.5148 1425.34 36.436 1426.29 36.3582ZM703.935 44.0318C703.515 42.9878 703.198 41.9562 702.937 40.8806C703.474 42.2381 704.112 43.5395 704.9 44.7377C706.623 48.0872 707.112 48.473 711.326 50.8015C713.8 51.924 715.912 52.1367 717.666 52.1969C725.347 51.5996 725.417 52.2148 734.84 45.5814C725.165 51.3301 728.537 48.7733 722.286 50.3911C721.003 51.093 727.583 49.9477 723.275 51.3421C721.409 51.7444 719.505 51.9439 717.666 51.8657C711.907 51.7661 706.86 48.2176 704.519 42.3895C704.667 42.5846 704.819 42.7775 704.974 42.9695C705.523 44.1468 706.171 45.2472 706.945 46.2538C706.194 45.0987 705.615 43.8811 705.136 42.5464C705.592 44.3188 703.886 40.0696 703.818 40.7378C703.74 41.0609 704.299 43.0834 704.795 44.229C703.152 41.499 702.133 38.2427 701.604 34.9651C701.706 36.6986 701.934 38.4104 702.325 40.0987C702.745 41.4465 703.267 42.7533 703.922 44.0096C703.926 44.017 703.931 44.0244 703.935 44.0318ZM65.2643 36.263C69.3241 36.6521 77.0186 36.7165 81.2197 36.2835C75.7271 36.2769 70.4112 36.2696 65.2643 36.263ZM1423.13 36.8806C1423.62 36.8145 1424.1 36.7491 1424.6 36.6829C1422.42 36.5604 1420.2 36.4387 1417.96 36.3162C1417.54 36.5074 1417.08 36.6986 1416.69 36.8889C1418.79 36.8865 1421.01 36.8831 1423.13 36.8806ZM1286.03 36.6678C1287.59 36.6793 1287.73 36.6731 1289.66 36.6458C1289.66 36.646 1289.65 36.6461 1289.65 36.6463C1290.43 36.6361 1296.79 36.5244 1296.12 36.3772C1292.9 36.3748 1289.55 36.3772 1286.28 36.3772C1286.18 36.4741 1286.16 36.5701 1286.03 36.6678ZM1323.82 36.5818C1323.83 36.5815 1323.83 36.5812 1323.83 36.5809C1324.99 36.5585 1326.08 36.513 1327.26 36.5047C1322.99 36.273 1322.31 36.6886 1318.4 36.5711C1314.48 36.4527 1312.04 36.2234 1308.68 36.7928C1309.93 36.878 1311.27 37 1312.56 37.0994C1318.15 36.8717 1319.64 37.086 1324.08 37.3103C1323.99 37.0669 1323.91 36.8252 1323.82 36.5818ZM757.138 20.8606C757.902 20.0925 758.194 18.9209 758.239 18.8229C758.238 18.8246 758.236 18.8264 758.235 18.8281C760.34 14.7904 760.006 14.9538 759.85 15.2796C759.591 15.5717 759.588 15.9665 760.662 11.9684C760.322 13.1402 759.86 14.2834 759.345 15.3891C758.758 17.2351 757.996 19.0986 757.138 20.8606ZM990.571 36.8235C990.658 36.7416 990.761 36.6594 990.848 36.5774C985.489 36.5965 984.255 36.2738 979.704 36.5677C983.444 36.6538 986.926 36.7392 990.571 36.8245C990.571 36.8242 990.571 36.8238 990.571 36.8235ZM1258.85 37.2639C1264.76 37.4204 1269.31 37.4894 1275.04 37.241C1275.05 37.2407 1275.05 37.2403 1275.05 37.24C1275.39 37.2247 1273.78 37.0532 1274.21 37.01C1275.4 37.0357 1276.62 37.0751 1277.82 37.1057C1277.98 36.9684 1278.14 36.8311 1278.3 36.6946C1274.93 36.7335 1271.55 36.7724 1268.15 36.8113C1268.65 36.731 1269.17 36.6514 1269.67 36.5711C1266.79 36.5297 1263.89 36.4885 1261.01 36.4471C1261.99 36.6722 1263.02 36.8974 1264.01 37.1233C1262.26 37.1705 1260.54 37.2159 1258.85 37.2639ZM900.908 37.7204C901.847 37.631 900.109 37.4811 901.566 37.4041C903.023 37.328 905.735 37.4949 905.099 37.2424C903.118 37.2085 901.053 37.1696 899.064 37.134C905.456 36.6788 912.051 37.0907 912.153 36.5286C905.823 36.6743 900.719 36.6066 894.831 36.451C895.065 36.8972 900.994 37.283 897.261 37.7019C898.459 37.7077 899.723 37.7162 900.895 37.7195C900.899 37.7198 900.904 37.7201 900.908 37.7204ZM1510.48 42.4761C1512.38 42.4591 1515.21 42.4961 1518.14 42.5049C1521.82 42.5137 1525.05 42.4942 1527.08 42.3643C1527.33 42.3482 1527.72 42.2844 1528.16 42.1958C1528.33 42.1516 1528.71 42.1012 1529.05 42.0475C1529.4 41.9938 1529.74 41.9369 1530.06 41.8796C1531.35 41.6504 1532.29 41.4156 1532.28 41.3609C1532.25 40.9925 1527.09 40.9423 1532.5 40.7022C1531.67 40.701 1530.77 40.6969 1529.78 40.6923C1529.31 40.69 1528.7 40.6876 1528.3 40.6853C1527.96 40.683 1527.6 40.6809 1527.24 40.6793C1527.5 40.4317 1527.76 40.1848 1528 39.9381C1530.19 39.9754 1532.72 40.0128 1534.3 40.0509C1534.38 39.9689 1534.46 39.8868 1534.54 39.8048C1531.49 39.804 1530.15 39.7245 1529.88 39.6083C1529.7 39.5503 1529.64 39.483 1529.35 39.4119C1529.08 39.3408 1528.38 39.2657 1527.67 39.1921C1528.24 39.1548 1529.57 39.1176 1530.52 39.0804C1531.52 39.0432 1532.42 39.0061 1533.22 38.9689C1533.63 38.9503 1534.01 38.9318 1534.36 38.9132C1534.54 38.9039 1534.71 38.8946 1534.87 38.8853C1534.95 38.8807 1535.03 38.876 1535.11 38.8714C1535.15 38.869 1535.19 38.8667 1535.23 38.8644C1535.3 38.8621 1535.41 38.8597 1535.5 38.8574C1536.95 38.8202 1537.8 38.783 1538 38.7458C1537.88 38.7503 1537.54 38.7546 1536.96 38.7588C1536.67 38.7608 1536.31 38.7629 1535.9 38.765C1535.7 38.766 1535.48 38.767 1535.25 38.768C1535.14 38.7691 1535.05 38.7701 1534.95 38.7712C1534.16 38.7795 1533.24 38.7882 1532.35 38.799C1532.23 38.5891 1533.26 38.5092 1534.17 38.4721C1534.41 38.4628 1534.63 38.4561 1534.84 38.4508C1535.08 38.4455 1535.15 38.4415 1535.67 38.4375C1536.47 38.4293 1536.9 38.421 1537.09 38.4016C1540.39 37.962 1520.97 38.1838 1518.28 37.573C1522.12 37.5051 1525.6 37.4389 1528.39 37.3718C1527.59 37.2965 1526.73 37.2211 1525.83 37.1458C1517.85 37.5671 1509.58 37.7163 1500.46 37.9787C1499.7 37.9614 1498.92 37.9435 1498.15 37.927C1498.38 37.7375 1498.59 37.5487 1498.82 37.3591C1497.65 37.3368 1496.43 37.3146 1495.21 37.2922C1498.75 37.9164 1494 37.9079 1487.52 38.2888C1490.98 38.5081 1494.96 38.3751 1494.68 38.7839C1482.92 38.4694 1470.65 38.9138 1460.02 38.5588C1457.42 38.471 1457.49 37.9438 1451.19 37.9924C1451.4 38.0504 1451.44 38.155 1451.58 38.2312C1440.13 37.9786 1434.55 37.8277 1422.94 38.0852C1423.61 37.8957 1424.26 37.7054 1424.92 37.5159C1427.34 37.6103 1429.74 37.7061 1432.09 37.8005C1433.68 37.4876 1431.37 37.3495 1438.3 37.3528C1443.91 37.3553 1440.57 37.4934 1442.09 37.5862C1444.22 37.7128 1446.27 37.4637 1448.62 37.6052C1450.44 37.7137 1448.5 37.9719 1453.2 37.9065C1451.32 37.572 1449.38 37.2266 1447.43 36.888C1446.26 36.9633 1445.09 37.0398 1443.9 37.116C1445.1 37.2054 1446.28 37.2936 1447.46 37.3831C1443.15 37.2225 1439.58 37.071 1435.48 36.9046C1436.81 37.3881 1432.59 37.2068 1430.23 37.1497C1426.58 37.0604 1429.72 37.3931 1427.31 37.3377C1424.89 37.2813 1422.27 36.9096 1417.77 36.989C1420.18 37.2043 1416.9 37.3973 1417.54 37.5959C1418.18 37.7946 1422.91 37.8386 1418.36 38.0554C1410 37.8906 1419 37.1341 1413.44 37.0115C1406.76 36.8641 1405.09 38.0974 1407.13 38.3625C1408.73 38.5711 1414.14 38.5292 1415.69 38.737C1406.08 39.112 1405.88 38.3717 1404.22 38.2268C1398.04 37.6994 1402.23 39.107 1394.82 38.5978C1394.96 38.8611 1395.07 39.0978 1395.21 39.3502C1393.93 39.3022 1393.07 39.2384 1391.51 39.2004C1396.11 38.6875 1392.35 38.7095 1390.4 38.7087C1387.34 38.707 1392.07 38.4569 1391.26 38.3923C1388.99 38.2195 1385.86 38.2979 1387.83 38.072C1386.93 38.1771 1385.96 38.2826 1385.03 38.3869C1381.66 38.2559 1373.57 37.1573 1381.24 37.3792C1380.53 36.971 1378.05 37.1672 1376.1 37.2293C1374.15 37.2913 1374.19 37.0313 1372.46 37.0794C1365.57 37.2715 1370.08 37.7161 1371.17 38.0647C1362.06 37.8246 1370.95 37.6657 1357.81 37.5051C1356.58 37.2211 1362.45 36.9181 1357.56 36.7542C1356.65 37.2475 1353.07 37.6019 1345.91 37.7659C1345.21 37.6524 1344.52 37.538 1343.82 37.4246C1339.89 37.8799 1341.92 38.3534 1334.58 37.7888C1338.52 38.8278 1335.83 38.1631 1329.2 38.5861C1327.85 38.6714 1330.96 38.887 1329.08 38.9963C1328.19 39.0455 1326.25 38.8828 1324.23 39.0085C1323.25 39.0706 1318.65 39.4712 1315.43 39.2809C1317.79 38.7775 1311.68 38.3493 1316.92 37.9328C1307.25 38.0355 1300.36 37.7938 1311.3 38.4802C1308.83 38.6325 1306.35 38.7842 1303.86 38.9357C1302.13 38.8157 1300.38 38.6966 1298.62 38.5773C1298.39 38.9911 1298.5 39.1071 1291.84 39.0343C1294.72 39.132 1297.7 39.2313 1300.69 39.3297C1300.79 39.4133 1301.21 39.5001 1301.11 39.5812C1297.36 39.4223 1287.35 39.3539 1284.88 39.2438C1282.43 39.1337 1287.16 39.1036 1286.45 38.9967C1280.57 38.116 1281.04 38.7656 1276.79 38.6144C1274.3 38.525 1280.25 38.4279 1278.92 38.3898C1273.97 38.2503 1271.67 38.7183 1267.25 38.7243C1268.82 38.4586 1270.37 38.1888 1271.9 37.9206C1267.3 37.9347 1262.02 37.9371 1257.85 37.8518C1256.18 37.8185 1257.44 37.6209 1257.17 37.6077C1255.82 37.5398 1250.32 37.4322 1249.74 37.4314C1245.34 37.4298 1245.22 37.7035 1240.93 37.7185C1242.61 37.7417 1244.2 37.7625 1245.84 37.7849C1246.58 38.2286 1247.35 38.6723 1248.09 39.1169C1243.9 39.1491 1239.7 39.1808 1235.47 39.213C1238.56 39.0649 1241.66 38.9174 1244.73 38.7692C1239.92 38.4107 1235.1 38.0514 1230.25 37.6921C1227.72 37.9123 1225.23 38.1325 1222.75 38.3527C1215.98 38.2946 1217.34 37.4007 1214.12 38.1838C1212.12 38.1176 1210.12 38.0514 1208.12 37.9861C1208.4 38.0978 1208.69 38.2098 1208.97 38.3215C1206.56 38.2528 1204.14 38.1845 1201.71 38.115C1204.26 37.7192 1206.76 37.3028 1209.27 36.9187C1204.51 36.8327 1204.42 37.1684 1203.71 37.2522C1201.83 37.4741 1198.08 37.1748 1196.58 37.3801C1196.07 37.4506 1200.75 37.6716 1199.14 37.9265C1198.83 37.9759 1192.53 38.9128 1188.58 38.6965C1188.65 38.5267 1188.96 38.3186 1189.12 38.134C1183.78 38.0309 1181.05 38.9169 1181.76 39.1652C1178.92 38.9913 1174.75 38.9768 1174.16 38.7053C1172.71 38.6986 1171.26 38.6924 1169.8 38.6857C1171.32 39.3471 1165.24 39.2262 1164.84 38.6574C1167.35 38.6433 1169.85 38.6285 1172.36 38.6144C1170.46 37.9173 1178.08 37.4966 1162.23 38.1423C1159.2 38.5049 1167.62 38.0929 1165.15 38.3645C1160.86 38.5225 1156.83 38.3903 1152.76 38.6428C1147.69 38.9582 1153.93 39.2616 1142.12 38.86C1168.17 37.8541 1138.53 38.1805 1126.32 37.8684C1122.98 38.8619 1112.59 39.1766 1098.37 38.881C1099.85 38.6045 1104.33 38.747 1106.91 38.6559C1109.49 38.5649 1106.7 38.4008 1109.92 38.2717C1113.13 38.1426 1120 37.967 1123.23 37.7717C1120.5 37.6152 1106.84 37.2452 1115.86 37.6897C1109.13 37.9637 1105.97 38.2452 1097.66 38.2966C1095.17 37.8653 1095.35 37.5967 1087.28 37.5842C1092.05 38.1836 1082.88 38.6002 1084.9 39.2194C1090.62 39.0752 1087.42 38.4733 1090.73 38.1853C1091.07 38.1565 1096.41 38.3073 1097.66 38.2966C1092.26 38.8372 1090.4 39.0385 1093.72 39.6818C1089.9 39.6255 1087.54 39.7062 1087.19 39.3991C1086.4 39.5323 1085.6 39.6657 1084.82 39.799C1083.58 39.7956 1082.44 39.7833 1081.11 39.7858C1082.94 39.3224 1079.4 39.6077 1076.88 39.3976C1074.37 39.1873 1077.74 38.8215 1070.84 38.8166C1073.14 38.7081 1075.24 38.6151 1077.47 38.5124C1073.01 38.3932 1068.56 38.2732 1064.13 38.154C1067.24 37.8709 1074 37.4504 1073.82 37.0779C1071.76 37.2185 1064.77 36.9714 1064 36.9612C1061.04 36.9231 1062.66 37.158 1062.43 37.1638C1057.79 37.278 1053.98 37.198 1052.22 37.5539C1048.79 37.3933 1046.06 37.4849 1042.33 37.4758C1040.28 37.4709 1040.68 37.2094 1039.47 37.259C1031.51 37.5902 1039.05 37.928 1023.78 37.2849C1025.62 37.1028 1027.44 36.9165 1029.3 36.7327C1027.57 36.664 1025.85 36.5949 1024.13 36.5262C1022.98 36.5593 1021.84 36.5927 1020.69 36.6258C1020.72 37.0207 1020.75 37.4164 1020.77 37.8113C1019.51 37.8328 1018.25 37.8537 1017 37.8752C1019.15 37.9141 1021.31 37.953 1023.48 37.9919C1023.68 38.0614 1023.86 38.1309 1024.06 38.2004C1020.84 38.308 1017.67 38.4166 1014.44 38.5251C1014.37 38.3877 1014.31 38.2494 1014.25 38.112C1006.85 38.3033 1006.67 38.4196 999.714 38.0412C994.363 38.0454 990.049 37.471 986.997 37.2293C985.903 37.3062 984.808 37.3842 983.706 37.4612C983.005 37.3469 982.309 37.2332 981.599 37.1189C980.162 37.2779 978.709 37.4368 977.28 37.595C976.487 37.2342 976.061 37.1215 981.66 36.9949C979.725 36.5462 969.926 36.7441 966.005 36.8948C963.02 37.0091 966.332 37.3834 965.959 37.429C964.707 37.5836 959.809 37.4502 958.789 37.4758C954.426 37.5826 951.576 37.5639 947.502 37.6467C946.714 37.6633 944.524 37.9005 944.339 37.9079C942.891 37.9485 939.346 38.0638 938.947 38.0671C918.419 38.2442 940.218 37.2151 921.376 37.3235C921.935 37.1878 922.45 37.053 922.998 36.9173C921.574 36.909 920.198 36.9011 918.729 36.8928C916.843 37.0063 919.118 37.2125 915.385 37.0462C915.627 37.2134 915.871 37.3807 916.127 37.5471C914.504 37.4569 912.947 37.3674 911.303 37.2771C908.693 37.8575 899.448 37.9893 900.12 38.6706C900.33 38.9024 906.889 39.1403 903.422 39.3878C900.611 39.4366 902.513 39.1597 901.369 39.1452C893.141 39.0442 893.695 39.4323 890.356 39.3288C889.8 39.1624 889.216 38.9929 888.649 38.8249C887.322 38.8737 885.998 38.9225 884.674 38.9714C884.368 38.8596 884.049 38.7477 883.744 38.6359C884.977 38.6285 886.373 38.6209 887.517 38.6135C885.843 38.1806 871.596 37.9861 877.025 38.3552C879.223 38.505 883.322 38.4414 880.737 38.9528C876.892 38.8791 872.609 38.8038 868.721 38.7302C868.599 38.8403 868.487 38.9506 868.366 39.0607C863.151 38.9894 867.889 38.5492 867.882 38.3132C866.686 38.3066 865.485 38.3008 864.304 38.2941C863.81 38.4008 863.252 38.5125 862.689 38.6159C862.641 38.4461 861.897 38.0514 858.117 38.198C855.7 38.2933 859.493 38.7217 854.907 38.6623C855.255 38.3974 856.876 38.0748 851.831 37.9895C851.332 38.2659 850.645 38.5192 850.261 38.8097C843.969 38.5442 841.765 38.9711 833.909 38.6623C829.096 38.4669 822.869 37.7733 820.049 38.842C816.894 38.8701 817.749 38.604 816.741 38.5441C811.673 38.261 808.191 38.7677 807.312 38.7975C801.724 38.9886 799.663 38.8132 794.588 39.0524C794.848 38.8545 794.99 38.6672 795.2 38.4743C799.9 38.7707 801.515 38.7568 807.378 38.6931C805.415 38.6533 803.503 38.6127 801.644 38.5729C801.948 38.4124 802.25 38.2518 802.545 38.092C820.687 38.7246 816.173 37.7252 801.314 37.5066C800.696 37.6552 800.073 37.8036 799.457 37.9521C798.72 38.1005 797.989 38.2491 797.285 38.3981C787.907 37.9478 784.28 38.3387 774.153 38.4323C773.879 38.435 773.428 38.4263 772.894 38.4116C772.32 38.397 771.893 38.3763 770.894 38.355C769.146 38.3125 767.521 38.2676 766.615 38.2634C766.645 38.2622 766.676 38.2611 766.706 38.26C765.578 37.9793 767.101 37.8502 767.305 37.5994C766.278 37.5679 765.331 37.5366 764.467 37.5051C763.47 37.6007 763.411 37.6878 762.399 37.7453C761.619 37.8027 760.176 37.8306 758.776 37.8078C759.126 37.6174 759.579 37.427 760.143 37.2366C759.49 37.2356 759.011 37.239 758.666 37.2453C754.959 37.2392 752.098 37.141 748.717 35.7428C749.382 36.094 749.955 36.3617 750.673 36.6358C746.165 35.315 745.905 34.7787 745.538 34.953C745.389 34.9847 745.305 35.0475 744.926 34.7741C744.576 34.4948 743.817 33.9083 742.95 32.2938C742.624 31.9514 742.325 31.5921 742.044 31.1919C743.236 34.0911 745.902 36.1306 748.783 37.1947C748.791 37.3452 748.805 37.497 748.805 37.6438C745.653 36.5157 742.659 34.154 741.524 30.8663C742.297 33.2505 744.073 35.3145 746.223 36.6281C742.622 34.8125 740.256 30.6364 740.283 26.5979C741.076 30.7993 740.759 25.3352 741.356 26.3739C741.348 19.7957 742.977 13.7524 750.567 6.36292C751.392 5.65681 751.618 5.61847 752.235 5.19329C752.535 4.99528 752.923 4.70817 753.569 4.28857C754.229 3.90524 755.095 3.217 756.748 3.02321C756.452 3.13971 756.527 3.23124 756.781 3.31607C757.38 3.49448 758.803 3.73988 759.758 4.3429C760.788 4.95442 761.121 5.73735 760.766 5.64757C759.852 4.70382 758.35 4.33715 756.781 4.32125C756.504 4.31329 756.139 4.36916 755.842 4.44934C756.211 4.30002 756.567 4.20615 756.781 4.14484C757.473 4.00682 757.595 3.81462 756.781 3.64788C756.412 3.56623 755.738 3.57509 754.85 3.90907C750.572 5.56047 747.1 11.2681 746.819 10.6606C745.793 12.1028 744.932 13.4986 744.137 15.0179C744.593 14.465 745.061 13.9374 745.537 13.43C742.844 17.4391 741.993 20.4966 741.853 22.7973C743.162 17.2717 746.237 12.2109 750.123 8.15154C749.58 8.75576 749.03 9.42411 748.531 10.0797C750.027 8.55208 750.175 8.73438 750.55 8.52426C750.983 8.37782 751.51 7.49686 754.612 5.56047C754.495 5.43737 754.384 5.31129 754.262 5.19026C754.947 4.92667 755.948 4.54492 756.781 4.61716C760.269 4.63558 761.237 7.3026 760.275 6.45525C761.254 7.55582 761.285 8.23983 761.06 9.32742C761.029 14.9411 758.815 19.0133 760.47 17.1698C759.427 19.3118 758.22 21.3207 756.886 23.3C757.488 22.0244 758.013 20.7935 758.507 19.506C756.628 23.116 754.297 26.5652 751.771 29.7836C751.985 30.428 756.531 23.4726 755.49 25.6646C755.307 26.1006 753.859 27.8293 753.548 28.3115C750.214 33.5351 755.778 25.5793 754.984 27.2485C749.419 34.6237 754.836 29.5475 745.677 38.4723C745.531 38.8051 745.366 39.157 745.232 39.4712C741.971 42.5084 742.028 42.0302 739.007 44.3548C737.12 45.7684 734.894 47.9462 732.403 48.9205C731.938 48.9832 735.597 46.6858 727.302 50.626C720.549 52.9722 723.47 52.4519 719.622 53.2613C719.061 53.3371 718.395 53.3843 717.666 53.3813C712.931 53.7924 706.973 49.6579 705.291 48.0337C706.704 49.6012 708.887 51.2743 711.079 52.0934C711.869 52.5892 712.758 53.0228 713.631 53.3649C708.218 52.1326 704.098 47.5544 702.91 44.2103C699.09 37.9737 699.886 29.687 700.467 31.8766C700.537 34.1419 700.055 31.7082 700.548 34.8413C700.724 35.1422 700.908 35.4658 701.093 35.762C700.285 30.4751 700.805 26.7154 700.233 29.162C700.24 28.3235 700.272 27.4944 700.329 26.6584C700.642 26.5331 700.954 26.4278 701.268 26.3088C701.39 25.3356 701.547 24.367 701.738 23.4078C701.849 22.3232 702.001 21.2437 702.203 20.1562C701.508 21.5114 700.439 23.9288 702.792 15.7412C702.955 15.7768 703.121 15.8019 703.283 15.8384C704.482 12.5357 705.352 10.9073 706.46 9.18644C707.638 7.59787 708.975 5.31088 713.303 3.77134C709.825 4.59015 707.891 6.85993 706.77 8.23305C705.638 9.67484 705.165 10.4695 704.673 10.1519C703.774 11.7024 703.054 13.3295 702.463 14.995C702.21 15.1783 701.959 15.3654 701.712 15.5481C703.535 10.4598 708.984 2.58216 716.513 2.93962C718.937 2.82841 721.427 4.53027 721.675 6.69598C722.052 8.7122 721.621 10.4204 721.383 11.7115C721.069 12.4026 720.693 13.144 720.303 13.7773C717.912 19.5347 715.343 21.0165 711.431 25.7644C710.936 26.1739 712.871 26.2638 706.312 31.2399C706.41 31.0225 706.378 30.7963 706.422 30.5767C705.035 31.679 703.606 32.7052 702.123 33.6538C701.791 33.7182 701.444 33.7879 701.113 33.8438C703.721 32.3469 706.178 30.6194 708.474 28.6954C706.517 30.2396 704.445 31.6469 702.291 32.8849C704.972 31.0482 706.089 30.154 704.349 31.0215C702.025 32.5622 699.572 33.9103 697.022 35.022C696.73 35.0704 696.438 35.1143 696.145 35.1568C697.302 34.4295 698.417 33.6584 699.484 32.8392C693.259 36.3362 687.087 37.766 681.602 38.3326C680.879 38.4022 682.676 38.5575 680.666 38.5492C680.592 38.544 680.425 38.5337 679.935 38.517C679.689 38.5087 679.358 38.4987 678.898 38.487C678.667 38.4812 678.404 38.4749 678.101 38.4681C677.972 38.4614 677.843 38.4542 677.698 38.4465C677.622 38.5996 677.488 38.7239 677.398 38.8654C675.82 38.7582 674.012 38.6858 672.156 38.6423C670.648 38.5988 669.667 38.5843 668.339 38.5929C665.953 38.61 662.182 38.7194 658.756 38.8742C663.652 38.5852 659.338 38.7732 658.012 38.6183C657.137 38.5117 660.556 38.5274 660.156 38.4157C659.815 38.3048 655.304 37.8568 659.143 37.803C667.977 38.6308 671.809 37.82 680.666 37.9757C681.736 37.9923 682.858 37.9764 684.101 37.905C682.948 37.9415 681.819 37.9243 680.666 37.8545C680.479 37.806 679.703 37.7576 678.381 37.7092C679.712 37.6382 680.451 37.5731 680.666 37.5C680.775 37.4904 680.885 37.4803 680.997 37.4694C680.884 37.4734 680.774 37.4767 680.666 37.4795C674.336 37.6468 677.79 37.5316 674.9 37.3923C674.14 37.3569 673.149 37.3229 671.924 37.2911C671.008 37.2593 670.184 37.2298 669.171 37.2035C667.193 37.1508 664.857 37.111 662.823 37.0916C661.592 37.0793 662.677 37.2853 660.411 37.3044C658.906 37.3177 654.253 37.0124 653.067 37.3723C652.289 37.6066 660.319 38.2517 649.184 38.2502C647.013 38.4799 652.53 38.4086 652.593 38.4362C653.067 38.5728 651.643 38.6925 649.587 38.7519C647.596 38.8114 645.615 38.8106 644.128 38.7062C643.898 38.6882 646.151 38.4753 643.698 38.3918C637.946 38.1923 633.515 38.4364 630.101 38.7668C629.693 38.3793 624.912 37.9165 618.341 38.0598C618.005 37.9489 617.684 37.837 617.346 37.7253C618.372 37.784 619.387 37.8419 620.392 37.9006C621.487 37.8311 622.634 37.7804 623.679 37.6985C617.3 37.6032 616.136 37.0692 613.076 36.8738C603.045 36.2064 609.133 37.6182 610.951 37.8616C612.287 37.763 613.378 37.653 614.895 37.5496C614.736 37.6845 614.575 37.8205 614.43 37.9563C599.248 37.9521 612.166 38.8323 604.37 39.0832C602.457 38.4192 596.123 38.3552 588.923 38.7765C588.127 38.7732 587.325 38.7724 586.521 38.7682C586.388 38.6714 586.39 38.5235 586.171 38.4597C577.369 38.3471 575.618 39.3696 574.779 39.4665C570.935 39.8961 567.842 39.3016 566.847 39.2965C562.314 39.2758 560.975 39.5398 556.548 39.4264C551.757 39.3039 555.033 39.1014 553.573 38.9201C552.403 38.7761 548.573 38.7505 546.97 38.6013C547.605 38.7233 548.309 38.843 548.938 38.9655C543.789 39.1319 539.882 39.2941 534.323 39.3346C528.042 38.4416 522.539 39.948 524.761 38.7263C530.141 38.6426 533.088 38.5034 535.903 38.1921C532.454 38.1524 528.961 38.1137 525.431 38.0739C524.401 38.208 523.669 38.3387 522.443 38.4753C519.785 38.1905 513.592 38.3127 511.328 38.2292C500.314 37.8376 503.742 37.3519 493.492 38.1682C500.894 38.2477 500.884 38.6442 508.096 38.5895C506.548 38.8727 502.871 38.814 505.248 39.1535C498.24 39.0699 500.496 38.7668 497.751 38.4977C495.381 38.2658 490.555 38.2528 490.826 37.9514C490.331 38.1171 489.949 38.2776 489.455 38.4431C484.753 38.4414 480.431 38.4413 475.858 38.4396C477.79 38.6127 479.715 38.786 481.633 38.9582C480.183 39.0235 478.727 39.0886 477.269 39.154C466.122 38.6158 446.626 39.6021 449.779 38.2502C444.413 38.2072 443.731 38.3767 440.795 38.6325C440.471 38.5299 440.156 38.4445 439.832 38.3303C436.341 38.4377 433.649 38.0524 430.547 38.1526C427.443 38.2519 426.667 38.6159 426.214 38.0041C424.194 38.1796 422.266 38.3254 420.292 38.4885C419.105 38.3495 417.919 38.2121 416.742 38.0739C414.882 38.1468 413.016 38.2193 411.15 38.2922C410.156 38.0002 402.801 38.126 399.54 37.9299C396.467 38.2447 396.471 39.2359 389.297 39.0583C389.483 38.8124 389.666 38.5673 389.852 38.3215C388.204 38.3728 386.551 38.424 384.887 38.4753C384.788 38.5555 384.702 38.6358 384.602 38.716C385.447 38.6912 386.279 38.6665 387.123 38.6408C386.391 38.7766 385.673 38.9117 384.953 39.0475C382.433 38.8464 379.905 38.6452 377.365 38.444C380.789 38.2917 384.208 38.1393 387.619 37.987C383.338 37.8065 380.351 37.9866 376.615 37.7854C373.363 38.1248 374.563 38.3203 375.884 38.6887C374.676 38.6572 373.453 38.6268 372.243 38.5954C373.04 38.9638 370.999 39.1833 378.061 39.1535C377.576 39.2585 377.081 39.3587 376.608 39.4679C375.449 39.4514 374.698 39.5402 373.426 39.4997C369.959 39.3887 367.295 38.7417 367.533 38.5148C367.661 38.396 371.084 38.6233 370.947 38.4553C370.607 38.0456 362.76 38.2295 374.078 37.8181C370.323 37.5573 369.484 37.754 365.335 37.8293C365.66 37.6928 365.976 37.5572 366.288 37.4207C364.365 37.4836 362.433 37.5462 360.512 37.6091C363.174 38.3104 349.059 38.5737 361.77 39.1872C358.006 39.2186 354.274 39.2502 350.526 39.2834C351.297 39.3554 352.069 39.4267 352.84 39.4987C354.532 39.4606 356.213 39.4231 357.903 39.3859C355.915 39.5175 353.922 39.6483 351.932 39.7799C347.228 39.6168 345.382 39.366 343.227 39.0563C348.706 38.8304 346.916 39.139 351.183 39.2004C351.034 39.0043 351.231 38.8239 350.858 38.6179C348.654 39.024 341.458 38.7285 339.788 38.7087C334.706 38.6483 338.691 39.0474 335.292 39.0558C331.889 39.0641 327.875 38.8266 325.094 39.2223C325.144 39.0005 325.367 38.771 325.566 38.569C320.267 38.4962 321.324 38.7582 320.776 38.7922C312.026 39.3502 307.277 38.8791 297.299 38.822C298.566 38.7532 299.846 38.6912 301.127 38.6266C293.599 38.1557 298.666 38.2999 305.21 38.1443C299.073 38.1914 295.584 37.7904 291.218 37.6711C286.865 37.5521 279.423 37.7581 276.712 37.9187C282.918 38.177 289.651 38.0066 296.571 38.0778C295.79 38.3038 295.025 38.4951 294.211 38.7433C289.995 38.2691 287.557 38.5862 286.171 38.6491C282.103 38.8336 282.232 38.4266 279.777 38.8644C279.877 38.7138 279.95 38.5872 280.05 38.4465C271.648 38.5094 262.726 38.7757 257.18 38.2194C256.678 38.5812 256.3 38.9298 255.725 39.299C252.157 39.0267 249.112 39.3055 246.125 39.2419C243.151 39.1781 244.281 38.8857 240.794 38.7731C240.149 38.7524 238.806 38.9354 237.223 38.8005C235.621 38.6648 229.746 37.6561 228.991 38.5373C225.954 38.5414 223.091 38.5737 220.14 38.5886C223.016 38.6382 225.905 38.6863 228.789 38.736C226.32 38.9496 223.874 39.1625 221.42 39.3761C221.107 39.1857 220.794 38.9918 220.493 38.8039C213.892 38.5721 209.135 38.8834 202.577 38.8097C201.474 38.7973 204.094 38.4208 199.183 38.5168C194.188 38.6128 190.476 39.3155 182.115 39.0441C181.693 39.03 179.219 38.4919 176.251 38.8644C175.576 38.9489 178.42 39.0738 176.869 39.1847C175.304 39.2957 168.446 39.3869 167.807 39.651C167.883 39.5575 168.329 39.4606 168.545 39.3654C167.324 39.3207 166.095 39.276 164.869 39.2321C164.755 39.3968 164.632 39.5618 164.518 39.7257C157.563 39.3424 153.961 38.7171 143.952 38.924C146.759 38.6847 149.588 38.4445 152.426 38.2053C153.206 38.3734 153.99 38.5426 154.761 38.7106C159.451 38.6436 164.209 38.577 169.006 38.51C169.803 38.7012 170.553 38.8919 171.308 39.0832C172.53 39.0583 173.744 39.0343 174.973 39.0094C174.666 38.8712 174.356 38.7337 174.037 38.5954C176.467 38.6293 178.913 38.664 181.354 38.6979C176.369 37.8818 167.595 38.7674 168.152 38.0847C167.022 38.1906 165.892 38.2973 164.768 38.404C164.276 38.073 161.982 38.1683 157.992 38.2204C158.905 38.0573 159.916 37.8964 160.758 37.7317C156.854 37.9618 150.026 37.9395 146.102 38.028C144.376 38.067 146.1 38.3069 145.587 38.3352C143.011 38.4825 137.811 38.0638 136.705 38.0969C130.187 38.294 126.009 39.0879 119.14 38.5646C126.244 38.4355 122.382 38.49 124.923 38.1994C125.718 38.1083 135.023 37.9182 123.388 38.0027C122.16 38.0132 100.81 38.5618 107.836 38.9821C104.346 38.848 101.65 38.6929 98.5313 38.5505C90.9544 39.6583 93.5915 38.6176 95.7748 38.0446C94.5362 38.0422 93.3644 38.0363 92.1035 38.0363C94.9513 38.6383 80.6955 38.6756 75.9322 38.3718C74.3411 38.2708 78.7911 38.0781 75.112 37.987C73.3648 38.0292 71.4041 38.0839 69.6003 38.1311C72.2185 37.7502 67.0834 37.6035 67.1663 37.2161C64.0712 37.5613 61.0604 38.293 63.0714 38.6896C60.1526 38.529 57.2788 38.3687 54.4824 38.2072C55.7809 38.1153 57.11 38.0242 58.4354 37.9323C49.2097 38.1758 37.7109 37.6219 35.6224 38.4357C34.3997 38.4299 33.181 38.4249 31.9919 38.4191C31.6242 38.2817 31.2703 38.144 30.9057 38.0066C25.9086 38.1258 19.7551 38.2457 14.4832 38.3649C19.236 38.4502 20.6378 38.6459 25.8848 38.487C24.0258 38.6451 21.6803 38.804 19.7338 38.9621C11.903 38.5365 11.2182 38.2568 -0.562115 38.3835C-0.683115 38.3893 -10.1476 38.7462 -10.2066 38.7809C-11.4968 38.9399 -9.53548 39.1708 -10.1118 39.2511C-10.5155 39.3074 -11.4243 39.385 -12.4506 39.471C-12.7073 39.4925 -12.9716 39.5145 -13.2381 39.5369C-13.6525 39.5593 -14.0796 39.5819 -14.4886 39.6048C-15.31 39.6504 -16.0865 39.6965 -16.7731 39.7416C-17.4606 39.7866 -18.0582 39.8306 -18.5515 39.8718C-18.7984 39.8924 -19.0199 39.9124 -19.2164 39.9315C-19.2332 39.9362 -19.3936 39.941 -19.508 39.9456C-19.6282 39.9503 -19.7409 39.9549 -19.8467 39.9594C-20.0583 39.9685 -20.2419 39.9773 -20.4012 39.9859C-21.6551 40.0544 -21.4603 40.1057 -21.4997 40.1271C-19.4963 41.1736 15.0715 41.1874 24.9976 41.2413C121.605 41.7993 217.129 41.0527 313.603 41.1802C314.596 41.1822 314.163 41.3367 314.586 41.3433C317.214 41.3821 319.797 41.1413 320.769 41.1314C322.847 41.1109 321.703 41.3334 323.221 41.3335C338.924 41.3311 353.644 41.2003 369.383 41.2383C370.407 41.2408 369.362 41.0628 371.159 41.0943C372.087 41.1115 374.99 41.3846 377.079 41.3887C384.401 41.4028 390.404 41.3152 398.192 41.3194C402.43 41.3219 408.762 41.2986 413.455 41.3028C415.529 41.3045 417.685 41.4295 419.725 41.4336C422.618 41.4394 422.026 41.1862 422.471 41.1705C424.428 41.1018 424.668 41.3797 426.57 41.3731C430.084 41.3598 430.275 41.1743 434.711 41.19C437.885 41.2016 445.098 41.3481 449.035 41.3912C458.068 41.1759 470.224 41.2614 478.724 41.3326C483.804 41.3748 484.259 41.115 486.315 41.1158C493.829 41.1208 499.481 41.4527 506.348 41.4634C515.264 41.4774 523.816 41.258 532.619 41.2422C534.052 41.2398 533.724 41.4778 535.124 41.4839C540.218 41.5063 547.011 41.5496 551.777 41.5157C557.03 41.4784 558.94 41.1328 563.93 41.2032C565.387 41.2241 565.817 41.5271 568.232 41.566C572.345 41.6271 576.862 41.3599 579.648 41.3301C583.468 41.2904 580.172 41.5991 585.266 41.5577C585.474 41.5559 586.232 41.3352 587.312 41.3458C590.521 41.3756 589.88 41.5493 594.871 41.5328C595.367 41.5305 601.779 41.3202 602.379 41.3194C606.164 41.3161 612.98 41.2425 615.38 41.2872C623.452 41.4461 617.171 41.778 623.845 41.0577C626.739 41.234 629.521 41.4127 632.385 41.584C630.163 41.4242 639.072 41.1937 639.576 41.2086C644.408 41.3286 641.644 41.6089 647.442 41.5625C643.63 41.2388 645.543 41.218 648.696 41.2801C652.567 41.3422 657.474 41.4874 659.099 41.4956C666.44 41.5306 674.515 41.5197 680.666 41.4966C690.763 41.4649 700.408 37.6224 708.582 31.378C713.463 27.6978 719.303 21.7736 722.282 15.6042C722.967 14.1386 722.321 15.2028 722.877 13.8894C723.394 12.5383 723.005 14.0985 723.541 12.5502C724.209 10.3166 724.835 7.80952 723.698 4.82468C722.47 1.54683 718.611 0.462173 716.513 0.60675C710.896 0.627724 706.397 4.17841 703.405 8.17763C703.202 8.58083 703.244 8.5914 702.9 9.25281C698.057 15.3861 696.819 29.4802 697.903 34.5779C699.246 42.5649 699.995 44.8685 703.948 49.849C707.363 54.1545 714.723 55.8538 717.666 55.6106C719.505 55.5993 720.029 55.6714 717.924 56.0539C723.683 55.9708 728.729 54.0029 733.371 51.3756C733.891 51.0754 733.431 51.1018 733.638 50.9805C734.921 50.2139 735.421 50.1073 736.288 49.5671C738.579 48.0871 734.762 50.3674 738.014 48.2545C739.696 47.0768 740.817 46.6246 745.068 42.8939C750.995 37.5398 756.294 31.3582 760.585 24.2232C762.687 20.6187 764.629 16.8713 765.565 12.2751C765.946 9.99297 766.295 7.24798 764.603 4.30165C762.752 1.21732 759.185 0.469086 756.781 0.508396C749.353 1.81799 747.255 6.21308 744.181 9.98827C741.453 13.9726 739.271 18.3866 738.468 23.4792C737.491 28.3826 739.383 35.1796 744.332 38.0753C749.06 41.0374 754.015 41.3973 758.666 41.454C758.856 41.4537 759.083 41.4534 759.347 41.4532C760.26 41.4523 760.567 41.5006 760.835 41.5475C761.119 41.5945 761.526 41.64 763.346 41.6338C773.649 41.5907 790.389 41.263 799.993 41.3077C808.143 41.3524 806.362 41.6371 811.829 41.7564C812.907 41.7796 812.021 41.6173 813.002 41.6148C820.167 41.5999 826.576 41.3467 832.086 41.3086C835.579 41.2831 835.309 41.5384 837.785 41.5567C841.549 41.5832 844.75 41.3252 846.666 41.3169C855.177 41.2806 862.223 41.4883 869.899 41.3824C869.583 41.4386 869.375 41.4906 869.108 41.5459C878.474 41.5368 889.167 41.5277 898.397 41.5186C897.943 41.5699 897.505 41.6217 897.052 41.6739C908.375 41.6457 907.176 41.0893 906.137 42.2642C906.974 42.3056 907.864 42.3535 908.669 42.3916C908.243 41.7864 915.655 41.3435 924.214 41.1895C924.845 41.1779 929.134 41.768 928.669 41.0709C929.79 41.2414 930.461 41.359 931.415 41.5088C933.273 41.2978 935.166 41.0892 937.043 40.879C938.056 40.9104 939.087 40.9408 940.106 40.9722C940.257 41.1088 940.141 41.2507 940.468 41.3848C945.262 41.4055 954.864 41.2366 958.48 41.254C967.543 41.2978 977.16 41.6672 984.274 41.2681C987.708 41.3088 984.291 41.5769 989.414 41.543C989.993 41.4073 990.539 41.2772 991.144 41.1373C995.351 41.7438 996.227 41.3748 1002.04 41.2481C1005.98 41.162 1008.58 41.3102 1012.36 41.2813C1013.32 41.2739 1013.19 41.0958 1013.84 41.1016C1016.05 41.12 1022.13 41.365 1023.66 41.3716C1037.43 41.4362 1049.6 41.4087 1062.67 41.3433C1064.09 41.3367 1062.25 41.5124 1063.72 41.5049C1066.08 41.4932 1064.69 41.2233 1066.06 41.21C1069.88 41.1746 1069.91 41.4593 1075.26 41.4742C1092.87 41.523 1113.01 41.3091 1131.34 41.2901C1131.92 41.2901 1131.88 41.4569 1132.51 41.4585C1136.56 41.4667 1140.67 41.2412 1144.36 41.2437C1150.48 41.247 1155.07 41.4813 1161.12 41.4805C1172.96 41.4797 1183.46 41.3597 1195.63 41.3531C1205.61 41.3473 1214.25 41.3695 1225.08 41.3687C1272.64 41.3654 1321.26 41.8948 1369.33 41.6133C1370.56 41.6059 1370.06 41.4585 1370.43 41.4649C1373.99 41.5286 1374.3 41.7275 1375.56 41.3111C1380.05 41.3931 1381.46 41.706 1386.77 41.6836C1389.63 41.6719 1387.37 41.1871 1392.44 41.4371C1396.95 41.6631 1392.09 41.9288 1405.31 41.6573C1405.65 41.6498 1407.37 41.3543 1410.06 41.4312C1412.75 41.5074 1409.66 41.719 1416.09 41.7827C1432.11 41.9318 1451.67 41.6763 1469.57 41.7549C1470.85 41.7599 1481.8 41.9179 1483.73 41.9907C1487.53 42.1323 1487.09 42.3519 1492.63 42.4058C1496.99 42.4472 1500.01 42.1984 1504.96 42.2481C1505.57 42.2541 1506.71 42.51 1510.48 42.4761ZM701.491 26.7649C701.894 25.7937 702.641 24.0775 704.002 18.3894C704.146 17.8386 702.63 20.5627 703.524 17.3957C702.426 20.434 701.793 23.5707 701.49 26.7648C701.491 26.7649 701.491 26.7649 701.491 26.7649ZM1537.33 36.5833C1532.58 36.6297 1527.63 36.6756 1523.4 36.722C1525.01 36.7778 1526.49 36.8337 1527.84 36.8896C1528.01 36.8966 1528.17 36.9036 1528.34 36.9106C1528.51 36.9176 1528.82 36.9246 1529.06 36.9316C1529.55 36.9456 1530.03 36.9596 1530.48 36.9736C1531.39 37.0016 1532.22 37.0297 1532.97 37.0579C1533.65 36.9788 1534.27 36.8997 1534.81 36.8206C1534.95 36.8008 1535.08 36.781 1535.21 36.7612C1535.44 36.7415 1535.79 36.7217 1536.05 36.7019C1536.58 36.6624 1537.01 36.6228 1537.33 36.5833ZM961.596 37.0222C961.6 37.0222 961.604 37.0222 961.609 37.0222C956.736 36.903 952.133 36.7836 947.142 36.6643C947.664 36.7521 948.188 36.8402 948.711 36.928C952.557 37.0662 956.262 37.2043 960.073 37.3425C960.579 37.2358 961.088 37.129 961.596 37.0222ZM999.987 37.9514C1003.1 37.8471 1002.34 37.6711 1004.05 37.4998C1004.05 37.5001 1004.05 37.5004 1004.05 37.5007C1004.5 37.4561 1006.62 37.4171 1007.43 37.4104C1007.13 37.5205 1006.74 37.6292 1006.42 37.7385C1013.78 38.0051 1027.9 37.0577 1009.51 36.6761C1009.79 36.8151 1010.06 36.9535 1010.33 37.0925C1001.11 37.0536 991.019 37.3553 999.987 37.9514ZM698.77 32.522C691.817 35.2442 689.508 36.1588 680.666 36.8603C680.653 36.8622 680.636 36.8641 680.617 36.866C680.636 36.8716 680.653 36.8772 680.666 36.8828C681.898 37.0058 683.109 37.0676 684.359 37.0646C685.839 36.7814 687.294 36.4092 688.718 35.9544C688.722 35.9535 688.726 35.9526 688.73 35.9516C689.053 36.0207 689.378 36.0858 689.693 36.1498C692.843 35.3074 695.897 34.0667 698.77 32.522ZM1297.59 37.6223C1299.81 36.7128 1299.07 37.2415 1292.94 37.0364C1290.82 36.9652 1292.89 36.8061 1291.57 36.7796C1284.45 36.6349 1283.86 37.2442 1285.46 37.5613C1289.53 37.5828 1293.49 37.6024 1297.57 37.6223C1297.58 37.6223 1297.58 37.6223 1297.59 37.6223ZM1484.35 37.8113C1484.35 37.8113 1484.36 37.8113 1484.36 37.8113C1484.54 37.5894 1481.8 37.5298 1484.89 37.3196C1482.55 37.3204 1480.15 37.3222 1477.67 37.323C1478.39 37.3437 1479.13 37.3634 1479.85 37.384C1479.21 37.4602 1478.58 37.5373 1477.94 37.6135C1477.06 37.3585 1476.26 37.5068 1473.6 37.592C1474.33 37.3197 1475.06 37.0471 1475.79 36.7747C1472.73 36.8558 1469.58 36.9372 1466.34 37.0183C1466.3 37.087 1466.26 37.1557 1466.22 37.2244C1465.04 37.1366 1464.03 37.048 1462.92 36.9602C1462.62 37.0422 1462.33 37.1234 1462.03 37.2053C1460.7 37.1433 1459.36 37.0812 1458 37.0183C1457.58 37.2168 1460.6 37.3026 1455.25 37.2522C1456.9 37.4559 1458.53 37.6589 1460.15 37.8625C1467.5 37.846 1476.96 37.8286 1484.35 37.8113ZM1241.36 37.3425C1250.3 37.3806 1247.77 37.2367 1245.71 36.7864C1244.27 36.9718 1242.81 37.1571 1241.36 37.3425ZM781.038 37.7434C778.228 37.4362 775.639 37.1321 773.261 36.8357C772.648 36.8143 772.163 36.8043 771.486 36.8036C770.707 36.803 769.982 36.8116 769.326 36.8275C768.011 36.8594 766.971 36.9201 766.258 36.9931C764.865 37.1391 764.552 37.3339 766.427 37.4436C771.893 37.7069 775.856 37.4122 781.038 37.7434ZM744.741 37.8446C749.132 33.1994 744.674 37.2613 743.479 38.0582C742.434 39.5042 740.622 41.1735 737.514 43.5748C740.49 41.4071 744.01 38.6111 744.742 37.8453C744.741 37.845 744.741 37.8448 744.741 37.8446ZM885.102 37.3982C887.724 37.4074 890.533 37.4932 892.687 37.3889C892.074 37.0952 887.33 37.3624 890.734 36.927C889.03 36.9196 887.302 36.9124 885.619 36.9041C886.691 37.0845 885.249 37.2193 885.108 37.3972C885.106 37.3975 885.104 37.3979 885.102 37.3982ZM1154.78 36.9964C1149.69 37.3441 1148.73 37.1953 1143.61 36.9544C1142.89 37.2375 1148.99 37.7117 1152.82 37.8161C1153.47 37.5429 1154.12 37.2696 1154.78 36.9964ZM132.881 37.1414C134.099 37.5023 143.326 37.5493 147.619 37.4426C147.094 37.3891 146.567 37.3349 146.044 37.2805C141.845 37.2342 137.282 37.1877 132.881 37.1414ZM736.019 44.6919C736.555 44.3016 737.048 43.932 737.514 43.5748C736.99 43.9631 736.487 44.3352 736.019 44.6919ZM559.472 38.8288C561.573 39.169 555.333 39.2833 562.904 39.1501C562.904 39.1504 562.904 39.1507 562.904 39.151C567.855 39.0633 568.938 39.0398 573.821 39.0133C572.083 38.5763 562.217 38.42 575.781 38.3298C575.956 38.3294 575.611 38.5895 577.741 38.5539C578.397 38.5428 580.504 38.3294 583.63 38.2673C584.641 38.2474 592.193 38.1816 581.878 38.1775C582.188 37.8728 581.628 37.5644 581.653 37.2688C577.578 37.1829 574.385 37.7795 569.9 37.7649C563.533 37.7417 560.41 37.1384 559.163 37.9299C564.429 38.1244 573.694 38.129 575.003 37.6531C580.313 37.6473 581.786 38.0372 577.553 38.2302C558.975 37.9851 572.559 38.809 556.819 38.4977C556.633 38.3877 555.985 38.2692 556.084 38.1657C551.256 38.5531 558.737 38.7071 559.472 38.8288ZM597.128 37.987C593.863 37.7544 590.748 37.5199 587.783 37.2864C587.839 37.6656 589.265 38.0058 594.323 38.2194C595.26 38.1417 596.203 38.064 597.128 37.987ZM335.079 37.8874C334.63 37.6813 333.434 37.4924 332.562 37.2961C331.615 37.47 309.174 37.6368 320.59 37.8074C322.247 37.8322 332.363 37.4677 335.079 37.8874ZM1190.05 37.3069C1187.42 37.4452 1184.8 37.5836 1182.17 37.7219C1186.22 37.8096 1190.22 37.8996 1194.31 37.989C1192.88 37.7617 1191.46 37.5342 1190.05 37.3069ZM742.118 29.9536C742.285 30.4612 742.16 29.849 742.168 29.6141C742.211 29.3654 742.139 29.5745 742.988 31.4449C741.758 28.6169 741.997 25.5809 742.815 22.6723C742.883 21.7606 743.019 20.8232 743.203 19.897C743.526 19.2384 743.879 18.5854 744.25 17.9562C743.897 18.2739 743.569 18.5634 743.215 18.9245C741.949 24.0159 741.089 25.2834 742.118 29.9536ZM898.475 38.8693C899.426 38.4447 891.755 38.1921 899.306 38.1242C897.871 37.8452 895.551 37.6989 891.202 37.6741C890.533 37.7808 889.736 37.8867 888.999 37.9934C888.898 37.7079 887.692 37.6017 885.102 37.3982C885.099 37.3985 885.097 37.3988 885.095 37.3992C878.119 37.3785 878.583 37.4737 876.925 37.9431C884.194 37.6781 884.451 38.107 889.543 38.362C892.961 38.5374 897.182 38.458 898.475 38.8693ZM358.956 37.8923C353.849 37.5338 358.436 37.1995 349.365 37.5803C349.95 37.6714 350.538 37.7617 351.123 37.8528C353.736 37.8668 356.347 37.8799 358.956 37.8923ZM923.811 37.4138C923.217 38.0712 918.587 38.5828 917.648 37.5134C922.41 37.2957 920.039 37.9014 923.811 37.4138ZM747.02 37.0211C753.151 30.3542 751.271 31.0669 748.633 33.613C748.357 34.1254 748.072 34.6393 747.793 35.1356C746.681 36.2419 745.534 37.3204 744.362 38.3595C745.251 37.9324 746.137 37.4879 747.02 37.0211ZM1083.05 38.136C1076.11 37.6665 1090.5 37.8749 1085.68 37.5818C1081.83 37.3475 1076.71 37.8205 1078.64 38.1169C1079.98 38.1252 1081.48 38.131 1083.03 38.136C1083.04 38.136 1083.04 38.136 1083.05 38.136ZM1043.07 38.0017C1044.22 37.5001 1042.57 37.6463 1048.07 37.7366C1049.66 37.7622 1061.92 37.5738 1056.77 37.9895C1052.38 37.9895 1047.73 37.9967 1043.07 38.0017ZM719.653 5.10287C719.784 5.0686 718.68 3.80805 716.513 3.75195C713.733 3.46108 710.601 5.12248 710.12 5.62202C710.12 5.62176 710.12 5.62149 710.12 5.62123C708.918 6.74458 710.263 5.71238 711.645 5.11662C713.051 4.52289 714.333 4.28915 712.525 5.19906C713.928 4.50539 715.296 4.25729 716.513 4.2522C719.506 4.2122 720.188 5.9973 720.363 6.90099C720.55 7.83982 720.613 8.20251 721.148 7.93018C721.146 6.51955 720.716 5.71245 720.399 5.29309C720.073 4.87717 719.875 4.78815 719.811 4.78321C719.683 4.78418 719.924 5.18897 719.653 5.10287ZM14.5544 38.1696C14.5501 38.1696 14.5457 38.1696 14.5414 38.1696C15.1213 38.1594 20.4716 37.8388 19.8368 37.7278C13.3905 37.823 14.5463 38.034 9.02228 37.6872C8.66051 37.7989 8.35265 37.9072 7.96891 38.0197C10.5586 38.086 11.4116 38.2201 14.5544 38.1696ZM310.822 38.3278C313.151 38.385 317.403 38.1482 320.058 38.1623C311.605 37.2533 301.523 38.101 310.822 38.3278ZM1397.12 37.78C1397.11 37.7797 1397.1 37.7794 1397.1 37.779C1397.1 37.7795 1397.1 37.78 1397.1 37.7805C1397.11 37.7803 1397.11 37.7802 1397.12 37.78ZM491.365 37.7825C491.06 37.8415 490.888 37.8927 490.826 37.9377C490.826 37.9419 490.826 37.9462 490.826 37.9504C490.991 37.8952 491.167 37.8393 491.365 37.7825ZM713.67 21.7218C711.312 24.9808 720.525 15.2143 720.945 10.5748C720.734 10.8241 720.612 10.8312 720.246 11.4516C719.765 14.9813 714.126 21.3324 713.67 21.7218ZM840.429 37.948C829.616 37.9563 843.696 39.159 843.986 38.1994C843.96 38.1808 840.679 37.9496 840.429 37.948ZM710.602 50.8605C711.682 51.5855 711.06 51.4047 711.086 51.4904C711.14 51.4766 711.766 52.282 715.973 52.7838C716.466 52.7345 716.962 52.665 717.465 52.5759C715.067 52.5181 712.679 51.9725 710.602 50.8605ZM771.978 39.527C769.211 39.4893 766.504 39.4463 764.585 39.3948C764.095 39.3819 763.638 39.3685 763.216 39.3545C762.444 39.3405 761.742 39.326 761.153 39.3108C759.966 39.2804 759.166 39.2475 758.666 39.2117C752.23 38.8575 749.585 37.5553 754.893 37.789C755.937 37.9215 756.816 37.9976 757.843 38.0503C757.88 38.1782 758.159 38.2612 758.666 38.3042C758.936 38.4256 763.429 38.2762 766.589 38.2644C767.275 38.4589 770.565 38.5038 771.299 38.6691C772.56 38.9886 768.621 39.2133 771.978 39.527ZM1327.15 38.7297C1326.94 38.646 1326.74 38.562 1326.53 38.4792C1324.49 38.3848 1322.43 38.2909 1320.37 38.1965C1320.71 38.357 1321.04 38.5174 1321.37 38.6779C1323.3 38.6953 1325.22 38.7128 1327.14 38.7302C1327.14 38.73 1327.14 38.7298 1327.15 38.7297ZM609.923 39.0207C608.819 38.1003 612.593 38.2698 621.5 38.735C617.678 38.8303 613.398 38.9255 609.923 39.0207ZM983.281 39.154C983.55 38.8925 983.816 38.6318 984.097 38.3703C988.53 38.6427 987.71 38.9422 985.582 39.2882C984.809 39.2436 984.052 39.1986 983.281 39.154ZM1048.04 39.2653C1046.15 39.3198 1047.12 39.1087 1046.92 39.113C1042.15 39.2239 1041.48 39.3207 1035.67 39.1618C1034.96 39.1063 1034.26 39.048 1033.55 38.9909C1036.23 38.443 1038.17 38.7416 1043.88 38.4196C1042.85 38.6076 1041.83 38.7958 1040.8 38.9845C1043.97 38.9448 1047.16 38.9056 1050.31 38.8659C1050.68 38.9239 1051.05 38.9813 1051.42 39.0392C1050.31 39.1137 1049.17 39.1974 1048.04 39.2653ZM1351.33 38.4919C1354.37 38.4704 1357.32 38.448 1360.4 38.4265C1360.52 38.5614 1360.63 38.6973 1360.74 38.8322C1357.52 38.7188 1354.49 38.6053 1351.33 38.4919ZM546.97 38.6013C546.721 38.5534 546.478 38.5052 546.262 38.4562C546.283 38.5159 546.556 38.5625 546.97 38.6013ZM6.57366 38.9098C2.62061 39.0042 -1.49374 38.9422 -5.7383 38.9621C-5.65349 38.8774 -4.92767 38.8198 -3.75069 38.7778C-2.83649 38.7357 -1.65294 38.7093 -0.278116 38.687C2.43937 38.6424 5.88425 38.6145 7.7646 38.5119C8.36955 38.5727 8.16288 38.8701 6.57366 38.9098ZM755.02 27.4123C755.667 26.7943 756.287 26.1888 756.916 25.542C758.062 23.7684 759.14 21.9295 760.11 20.0054C760.262 20.0133 760.414 20.0223 760.565 20.0294C755.768 28.2154 757.008 26.3887 754.601 30.4658C754.766 29.4402 754.894 28.4386 755.02 27.4123ZM1448.88 39.3688C1441.83 39.2752 1439.6 39.1005 1443.34 38.6857C1445.84 38.7809 1448.32 38.8762 1450.74 38.9714C1450.12 39.1038 1449.5 39.2364 1448.88 39.3688ZM424.181 38.9137C418.593 38.7588 418.498 39.3154 413.005 39.0046C415.949 38.9019 418.885 38.7981 421.8 38.6955C422.588 38.7681 423.395 38.8412 424.181 38.9137ZM700.722 35.2679C698.579 36.5651 694.146 37.9197 687.422 39.8148C685.731 39.8921 684.688 39.8099 683.254 39.7133C682.452 39.9846 681.514 40.2351 680.708 40.4493C680.703 40.4493 680.698 40.4493 680.694 40.4493C680.684 40.4492 680.675 40.4491 680.666 40.449C680.484 40.4398 679.859 40.4276 679.245 40.4127C678.936 40.4053 678.621 40.3972 678.33 40.3885C678.257 40.3864 678.186 40.3841 678.116 40.3819C678.063 40.3797 678.052 40.3774 678.022 40.3751C677.969 40.3704 677.921 40.3657 677.876 40.3608C677.517 40.3215 677.446 40.2736 677.53 40.2209C677.612 40.1682 677.833 40.1106 678.016 40.0519C678.047 40.0226 678.348 39.9929 678.459 39.9635C678.593 39.934 678.664 39.9047 678.637 39.8761C678.653 39.8523 677.991 39.8444 677.811 39.8427C677.507 39.841 677.086 39.8455 676.665 39.8465C675.824 39.8485 675.013 39.8365 675.715 39.733C676.21 39.6586 676.951 39.6087 677.674 39.5724C677.765 39.5679 677.855 39.5635 677.944 39.5594C677.989 39.5573 678.034 39.5553 678.078 39.5533C678.133 39.5513 678.278 39.5494 678.375 39.5475C678.794 39.54 679.17 39.5331 679.489 39.5267C680.129 39.514 680.539 39.5032 680.666 39.4931C683.806 39.4609 686.896 38.8952 686.871 38.6437C685.14 39.0219 682.455 39.2447 680.666 39.1633C680.497 39.1371 679.876 39.1 679.543 39.053C679.189 39.006 679.214 38.9491 679.698 38.8835C680.101 38.8258 680.529 38.7962 680.666 38.7848C683.315 38.7891 687.883 38.539 690.807 37.4729C685.709 39.5349 696.585 36.3918 697.38 35.0548C703.387 32.4166 698.305 35.8057 691.758 37.7285C695.845 36.885 689.959 38.5182 688.999 38.968C693.554 38.8704 706.563 31.4842 700.722 35.2679ZM826.457 39.692C822.096 39.6658 815.227 39.8986 811.904 39.5548C810.046 39.3545 817.342 39.1995 812.307 38.8849C816.843 38.9156 817.983 39.0385 817.167 39.3141C818.302 39.3472 819.155 39.3795 820.118 39.4118C820.555 39.358 821.005 39.3049 821.445 39.2511C821.945 39.3645 822.451 39.4771 822.944 39.5905C823.965 39.5681 825.009 39.5458 826.051 39.5226C826.173 39.5796 826.382 39.6293 826.457 39.692ZM262.308 38.8967C263.572 38.9 264.778 38.9033 266.02 38.9074C265.884 38.9745 265.721 39.0444 265.565 39.1134C265.453 39.168 265.341 39.2225 265.229 39.277C265.944 39.0822 271.849 38.7584 274.346 38.9665C275.601 39.0708 272.744 39.4413 278.065 39.506C274.207 39.4869 270.641 39.4364 266.912 39.4049C267.246 39.515 267.568 39.6263 267.902 39.7365C267.9 39.7366 267.898 39.7368 267.896 39.7369C266.656 39.7618 265.404 39.7878 264.167 39.8126C263.548 39.5071 262.938 39.2022 262.308 38.8967ZM979.616 39.671C975.293 39.4549 973.864 39.3427 975.893 38.9933C975.898 38.9932 975.902 38.993 975.907 38.9928C977.51 39.1476 979.119 39.3024 980.732 39.4572C980.363 39.5284 979.996 39.5998 979.616 39.671ZM510.381 39.7545C501.472 38.4274 521.534 39.2409 517.767 39.693C517.514 39.7137 511.212 39.608 510.381 39.7545ZM746.135 38.4912C747.918 36.7465 749.63 34.9119 751.255 33.0098C751.004 33.5591 750.745 34.1067 750.483 34.6506C749.071 35.988 747.623 37.2657 746.135 38.4912ZM1419.4 39.9713C1416.53 40.3356 1410.29 40.4676 1406.98 40.0714C1408.68 40.025 1410.37 39.9786 1412.05 39.9322C1408.87 39.8867 1405.69 39.8366 1402.41 39.7936C1402.23 39.2861 1406.05 39.5805 1411.6 39.4406C1412.49 39.418 1417.83 38.788 1419.98 39.2628C1420.39 39.3604 1414.19 39.4268 1418.5 39.7106C1416.53 39.7329 1415.16 39.728 1413.46 39.7404C1413.34 39.8612 1413.22 39.9823 1413.08 40.1031C1415.16 40.0594 1417.13 40.0151 1419.4 39.9713ZM800.59 39.6525C794.261 39.6805 793.342 39.4777 792.077 39.1193C794.873 39.1599 798.379 39.1998 800.954 39.2404C800.827 39.3775 800.717 39.5146 800.59 39.6525ZM1364.38 40.0875C1360.93 40.1461 1362.41 39.8544 1361.02 39.799C1355.86 39.5903 1352.53 39.7988 1347.46 39.6681C1347.8 39.7244 1348.11 39.777 1348.43 39.8317C1348.42 39.8317 1348.42 39.8317 1348.41 39.8317C1324.33 40.0775 1337.1 39.4159 1351.35 39.5236C1351.69 39.4151 1352 39.3065 1352.34 39.1989C1358.58 39.3885 1364.67 39.5709 1364.38 40.0875ZM590.555 39.7999C590.288 39.8678 592.542 40.2993 588.318 40.0973C584.951 39.4674 590.479 39.78 591.821 39.5377C590.69 39.4773 589.525 39.4185 588.389 39.3581C595.068 39.1801 596.645 39.3298 593.837 39.7902C593.746 39.8056 592.936 39.7912 592.161 39.7813C591.432 39.7714 590.687 39.7661 590.555 39.7999ZM544.034 40.1105C543.052 39.1823 552.19 39.5997 551.837 39.8878C550.59 39.8993 549.616 39.7422 548.281 39.8116C546.931 39.8812 546.589 40.098 544.034 40.1105ZM708.096 51.6076C707.826 51.514 705.364 49.92 705.811 49.8626C707.316 50.8694 709.529 52.2833 711.443 53.0246C713.354 53.7988 714.766 54.1121 714.133 54.1485C711.843 53.6661 710.32 53.0104 708.095 51.6084C708.096 51.6081 708.096 51.6078 708.096 51.6076ZM1460.18 40.19C1460.08 40.2159 1453.6 40.3727 1452.72 40.2272C1452.02 40.0633 1451.66 39.8876 1451.13 39.7179C1454.85 39.8752 1461.96 39.7554 1460.16 40.19C1460.17 40.19 1460.17 40.19 1460.18 40.19Z" fill="black"/>
</svg>
