<svg width="178" height="178" xmlns="http://www.w3.org/2000/svg">
    <g fill="#B6D806">
        <ellipse cx="89" cy="2.192" rx="2.167" ry="2.167"/>
        <circle cx="89" cy="175.808" r="2.167"/>
        <path d="M91.19 165.365h-4.38v-8.757h4.38v8.757zm0-17.515h-4.38v-8.757h4.38v8.757zm0-17.515h-4.38v-8.757h4.38v8.757zm0-70.06h-4.38v-8.757h4.38v8.758zm0-17.514h-4.38v-8.75h4.38v8.76zm0-17.51h-4.38v-8.76h4.38v8.76zm67.038-2.3l-3.087-3.08-2.69 2.67-2.67-2.67-3.11 3.087 2.7 2.694-2.692 2.67 3.11 3.11 2.67-2.692 2.694 2.694 3.088-3.11-2.67-2.67zM31.53 149.65l-3.088-3.09-2.693 2.693-2.67-2.69-3.09 3.088 2.67 2.697-2.67 2.67 3.08 3.11 2.67-2.693 2.693 2.694 3.087-3.11-2.67-2.67zm0-126.7l-3.088-3.087-2.693 2.67-2.67-2.67-3.09 3.09 2.67 2.694-2.67 2.67 3.08 3.11 2.67-2.692 2.693 2.695 3.087-3.11-2.67-2.67zm126.698 126.7l-3.087-3.09-2.69 2.693-2.67-2.69-3.11 3.088 2.7 2.697-2.692 2.67 3.11 3.11 2.67-2.693 2.694 2.694 3.088-3.11-2.67-2.67zM47.245 129.3l12.385-12.39 1.548 1.548-12.385 12.385zm-13.947 13.94l12.385-12.386 1.548 1.548-12.38 12.386zm83.612-83.61l12.385-12.386 1.548 1.548-12.385 12.385zm13.925-13.913l12.385-12.385 1.548 1.548-12.385 12.385zM33.447 34.863l1.548-1.548L47.38 45.7l-1.548 1.548zM47.36 48.787l1.547-1.548 12.385 12.38-1.548 1.542zm69.665 69.666l1.548-1.548 12.385 12.385-1.548 1.548zm13.95 13.962l1.548-1.548 12.385 12.385-1.548 1.548z"/>
        <ellipse cx="175.808" cy="89" rx="2.167" ry="2.167"/>
        <ellipse cx="2.192" cy="89" rx="2.167" ry="2.167"/>
        <path d="M163.7 91.19h-8.756v-4.38h8.757v4.38zm-17.514 0h-8.757v-4.38h8.75v4.38zm-17.515 0h-8.75v-4.38h8.76v4.38zm-70.06 0h-8.75v-4.38h8.76v4.38zm-17.51 0h-8.76v-4.38h8.76v4.38zm-17.51 0h-8.76v-4.38h8.76v4.38zm83.656-18.785l9.677-9.677-1.642-1.533-9.7 9.7a12.9 12.9 0 0 1 1.666 1.51zM89 107.74a2.19 2.19 0 0 1-1.95-1.18 29.644 29.644 0 0 0-15.565-15.502 2.19 2.19 0 0 1 0-3.897 29.62 29.62 0 0 0 15.5-15.52 2.19 2.19 0 0 1 1.95-1.18 2.19 2.19 0 0 1 1.948 1.18 29.644 29.644 0 0 0 15.632 15.5 2.19 2.19 0 0 1 0 3.9 29.644 29.644 0 0 0-15.566 15.48A2.19 2.19 0 0 1 89 107.7v.044zM77.09 89A30.87 30.87 0 0 1 89 101.02 30.87 30.87 0 0 1 100.91 89 30.87 30.87 0 0 1 89 77.177 30.826 30.826 0 0 1 77.09 89zm39.365-58.26a3.744 3.744 0 0 1-1.993-1.99l-.985-1.906-.963 1.905a3.722 3.722 0 0 1-1.993 1.99l-1.9.96 1.91.98a3.744 3.744 0 0 1 1.994 1.99l.985 1.907.962-1.905a3.7 3.7 0 0 1 1.994-1.99l1.904-.988-1.905-.964zm-49.195 0a3.744 3.744 0 0 1-1.993-1.99l-.985-1.906-.963 1.905a3.7 3.7 0 0 1-2 1.99l-1.907.98 1.904.982a3.744 3.744 0 0 1 1.993 1.993l.985 1.905.963-1.906a3.744 3.744 0 0 1 1.995-1.994l1.904-.96-1.905-1.008zm49.195 114.57a3.722 3.722 0 0 1-1.993-1.992l-.985-1.905-.963 1.905a3.744 3.744 0 0 1-1.993 1.992l-1.9.986 1.91.963a3.722 3.722 0 0 1 1.994 1.99l.985 1.9.962-1.908a3.722 3.722 0 0 1 1.994-1.99l1.904-.987-1.905-.964zm33.344-36.387a3.744 3.744 0 0 1-2-1.992l-.988-1.9-.963 1.91a3.722 3.722 0 0 1-1.993 1.993l-1.904.985 1.906.987a3.744 3.744 0 0 1 1.992 1.99l.983 1.907.96-1.904a3.722 3.722 0 0 1 1.994-1.99l1.9-.987-1.903-.983zm-117.05 0a3.744 3.744 0 0 1-1.99-1.992l-.99-1.9-.964 1.91a3.744 3.744 0 0 1-1.99 1.993l-1.906.964 1.906.985a3.722 3.722 0 0 1 1.994 1.99l.987 1.906.987-1.904a3.744 3.744 0 0 1 1.992-1.99l1.903-.986-1.928-.964zM149.8 62.487a3.744 3.744 0 0 1-1.994-1.993l-.985-1.904-.89 1.948a3.7 3.7 0 0 1-1.99 1.993l-1.904.99 1.905.99a3.744 3.744 0 0 1 1.993 1.993l.987 1.905.96-1.904a3.722 3.722 0 0 1 1.99-1.992l1.906-.983-1.97-1.03zm-117.045 0a3.744 3.744 0 0 1-1.992-1.993l-.985-1.904-.986 1.948A3.744 3.744 0 0 1 26.8 62.53l-1.905.964 1.905.985a3.722 3.722 0 0 1 1.992 1.99l.986 1.9.985-1.908a3.722 3.722 0 0 1 1.992-1.99l1.905-.987-1.905-1.007zm34.483 82.823a3.722 3.722 0 0 1-1.993-1.992l-.985-1.905-.963 1.905a3.722 3.722 0 0 1-1.992 1.992l-1.905.986 1.905.963a3.722 3.722 0 0 1 1.992 1.99l.985 1.9.963-1.908a3.744 3.744 0 0 1 1.993-1.99l1.904-.987-1.904-.964zm5.407-74.328l-9.786-9.787-1.56 1.555 9.78 9.786a26.025 26.025 0 0 1 1.555-1.554zm-1.642 34.57l-9.83 9.72 1.555 1.555 9.808-9.81c-.54-.436-1.05-.925-1.533-1.465zm36.322.11a26.025 26.025 0 0 1-1.554 1.554l9.72 9.72 1.56-1.554-9.72-9.72z"/>
    </g>
</svg>
