<svg width="19" height="19" viewBox="1 39 19 19" xmlns="http://www.w3.org/2000/svg">
    <path d="M15.158 49.973c-.478.6-1.132 1.076-1.96 1.424-.826.35-1.726.523-2.7.523a7.79 7.79 0 0 1-1.342-.12c-.63.446-1.34.772-2.123.975a6.677 6.677 0 0 1-.657.124h-.023a.252.252 0 0 1-.156-.068.242.242 0 0 1-.088-.16c-.01-.016-.01-.032-.01-.05v-.05a.15.15 0 0 1 .015-.045l.02-.04.025-.04.03-.04s.017-.01.036-.037l.03-.04.176-.184c.092-.1.158-.174.2-.228l.17-.22c.074-.095.138-.194.19-.295.055-.103.107-.215.158-.336-.63-.367-1.125-.818-1.49-1.35-.36-.538-.54-1.108-.54-1.71 0-.71.24-1.365.718-1.965.48-.603 1.133-1.077 1.96-1.426a6.898 6.898 0 0 1 2.7-.523c.972 0 1.872.176 2.7.524.826.35 1.48.824 1.958 1.426.478.6.718 1.253.718 1.96 0 .71-.24 1.363-.718 1.963M10.498 39C5.255 39 1 43.253 1 48.5c0 5.246 4.254 9.5 9.5 9.5s9.5-4.254 9.5-9.5a9.5 9.5 0 0 0-9.5-9.5" fill="#FFED00" fill-rule="evenodd"/>
</svg>
