<svg width="19" height="19" xmlns="http://www.w3.org/2000/svg">
    <path d="M12.41 81.195c-.517.298-.84.9-.84 1.154 0 .19-.15.417-.35.417h-2.1c-.19 0-.313-.297-.313-.49v-.393c0-1.057 1.05-1.967 1.82-2.316.672-.308.952-.596.952-1.156 0-.49-.64-.926-1.35-.926-.39 0-.75.122-.944.254-.21.147-.42.357-.935 1.005a.357.357 0 0 1-.27.14.412.412 0 0 1-.22-.07l-1.43-1.093a.342.342 0 0 1-.086-.463c.944-1.566 2.272-2.326 4.056-2.326 1.87 0 3.97 1.494 3.97 3.497 0 1.66-1.13 2.3-1.96 2.764zm-.805 4.58a.35.35 0 0 1-.35.35H9.157a.35.35 0 0 1-.35-.35V83.68c0-.194.157-.352.35-.352h2.098c.193 0 .35.158.35.35v2.098zM1 80.5c0 5.246 4.254 9.5 9.5 9.5s9.5-4.254 9.5-9.5-4.254-9.5-9.5-9.5S1 75.254 1 80.5z" fill="#FFF" fill-rule="evenodd"/>
</svg>
