<?xml version="1.0" encoding="UTF-8"?>
<svg width="16px" height="14px" viewBox="0 0 16 14" version="1.1" xmlns="http://www.w3.org/2000/svg" xmlns:xlink="http://www.w3.org/1999/xlink">
    <!-- Generator: Sketch 42 (36781) - http://www.bohemiancoding.com/sketch -->
    <title></title>
    <desc>Created with Sketch.</desc>
    <defs></defs>
    <g id="Wireframes" stroke="none" stroke-width="1" fill="none" fill-rule="evenodd">
        <g id="Projects" transform="translate(-164.000000, -402.000000)" fill="#909090">
            <g id="Filter" transform="translate(43.000000, 400.000000)">
                <path d="M133.571429,10.5714286 L133.571429,13.4285714 C133.571429,14.1369083 133.319943,14.742557 132.816964,15.2455357 C132.313986,15.7485144 131.708337,16 131,16 L123.571429,16 C122.863092,16 122.257443,15.7485144 121.754464,15.2455357 C121.251486,14.742557 121,14.1369083 121,13.4285714 L121,6 C121,5.29166313 121.251486,4.68601442 121.754464,4.18303571 C122.257443,3.68005701 122.863092,3.42857143 123.571429,3.42857143 L129.857143,3.42857143 C129.940477,3.42857143 130.008928,3.45535688 130.0625,3.50892857 C130.116072,3.56250027 130.142857,3.63095196 130.142857,3.71428571 L130.142857,4.28571429 C130.142857,4.36904804 130.116072,4.43749973 130.0625,4.49107143 C130.008928,4.54464313 129.940477,4.57142857 129.857143,4.57142857 L123.571429,4.57142857 C123.178569,4.57142857 122.842263,4.71130813 122.5625,4.99107143 C122.282737,5.27083473 122.142857,5.60714089 122.142857,6 L122.142857,13.4285714 C122.142857,13.8214305 122.282737,14.1577367 122.5625,14.4375 C122.842263,14.7172633 123.178569,14.8571429 123.571429,14.8571429 L131,14.8571429 C131.392859,14.8571429 131.729165,14.7172633 132.008929,14.4375 C132.288692,14.1577367 132.428571,13.8214305 132.428571,13.4285714 L132.428571,10.5714286 C132.428571,10.4880948 132.455357,10.4196431 132.508929,10.3660714 C132.5625,10.3124997 132.630952,10.2857143 132.714286,10.2857143 L133.285714,10.2857143 C133.369048,10.2857143 133.4375,10.3124997 133.491071,10.3660714 C133.544643,10.4196431 133.571429,10.4880948 133.571429,10.5714286 Z M137,2.85714286 L137,7.42857143 C137,7.58333411 136.943453,7.71726134 136.830357,7.83035714 C136.717261,7.94345295 136.583334,8 136.428571,8 C136.273809,8 136.139882,7.94345295 136.026786,7.83035714 L134.455357,6.25892857 L128.633929,12.0803571 C128.574404,12.1398813 128.505953,12.1696429 128.428571,12.1696429 C128.35119,12.1696429 128.282738,12.1398813 128.223214,12.0803571 L127.205357,11.0625 C127.145833,11.0029759 127.116071,10.9345242 127.116071,10.8571429 C127.116071,10.7797615 127.145833,10.7113098 127.205357,10.6517857 L133.026786,4.83035714 L131.455357,3.25892857 C131.342261,3.14583277 131.285714,3.01190554 131.285714,2.85714286 C131.285714,2.70238018 131.342261,2.56845295 131.455357,2.45535714 C131.568453,2.34226134 131.70238,2.28571429 131.857143,2.28571429 L136.428571,2.28571429 C136.583334,2.28571429 136.717261,2.34226134 136.830357,2.45535714 C136.943453,2.56845295 137,2.70238018 137,2.85714286 Z" id=""></path>
            </g>
        </g>
    </g>
</svg>