<svg width="17" height="16" xmlns="http://www.w3.org/2000/svg" xmlns:xlink="http://www.w3.org/1999/xlink"><defs><path id="a" d="M0 0h17v16H0z"/></defs><g fill="none" fill-rule="evenodd"><mask id="b" fill="#b7b9fa"><use xlink:href="#a"/></mask><path d="M8.5 0C3.805 0 0 3.672 0 8.203c0 3.624 2.435 6.698 5.813 7.783.426.075.58-.178.58-.396 0-.194-.007-.71-.011-1.395-2.364.496-2.863-1.1-2.863-1.1-.387-.947-.944-1.199-.944-1.199-.772-.509.058-.499.058-.499.854.059 1.302.846 1.302.846.759 1.253 1.99.89 2.474.681.077-.53.297-.891.54-1.096-1.888-.207-3.872-.911-3.872-4.054 0-.896.331-1.628.875-2.201-.088-.208-.38-1.042.083-2.171 0 0 .714-.22 2.338.84A8.418 8.418 0 0 1 8.5 3.967a8.43 8.43 0 0 1 2.127.277c1.623-1.062 2.335-.841 2.335-.841.464 1.13.173 1.963.085 2.17.545.574.874 1.306.874 2.202 0 3.15-1.988 3.844-3.881 4.047.305.253.577.754.577 1.52 0 1.096-.01 1.98-.01 2.25 0 .219.152.474.584.394C14.566 14.898 17 11.825 17 8.203 17 3.673 13.194 0 8.5 0" fill="#b7b9fa" mask="url(#b)"/></g></svg>