<svg id="Layer_1" data-name="Layer 1" xmlns="http://www.w3.org/2000/svg" viewBox="0 0 17 17"><defs><style>.cls-1{fill:#010101;}</style></defs><title>BuyersGuide-icons</title><path class="cls-1" d="M13.3,10l2.39-2.4A4.48,4.48,0,0,0,9.36,1.31L5.9,4.76a4.5,4.5,0,0,0,0,6.34,4.78,4.78,0,0,0,.84.66L8.59,9.91a2.1,2.1,0,0,1-1-.54,2,2,0,0,1,0-2.88L11.08,3A2,2,0,0,1,14,5.92l-1,1A5.54,5.54,0,0,1,13.3,10Z"/><path class="cls-1" d="M3.7,7,1.31,9.36a4.48,4.48,0,0,0,6.33,6.33l3.46-3.45a4.5,4.5,0,0,0,0-6.34,4.78,4.78,0,0,0-.84-.66L8.41,7.09a2.1,2.1,0,0,1,1,.54,2,2,0,0,1,0,2.88L5.92,14A2,2,0,0,1,3,11.08l1-1A5.53,5.53,0,0,1,3.7,7Z"/></svg>