<svg id="Layer_1" data-name="Layer 1" xmlns="http://www.w3.org/2000/svg" viewBox="0 0 200 200"><title>media-partner-icons</title><path d="M0-.58V200H200.57V-.58ZM182.28,144H146V95c0-15-5-20.65-14.75-20.65-11.8,0-16.52,8.55-16.52,20.35v30.09h11.5v18.88H90V95c0-15-5-20.65-14.75-20.65-11.8,0-16.52,8.55-16.52,20.35v30.09H75.21v18.88H22.12V124.78h11.5V76.12H22.12V57.24H58.4v13c5.31-9.14,14.16-14.75,26.25-14.75,12.39,0,23.89,5.9,28,18.58,4.72-11.5,14.45-18.58,28-18.58,15.63,0,29.79,9.44,29.79,29.79v39.82h11.8Z"/></svg>