<svg width="24" height="24" xmlns="http://www.w3.org/2000/svg"><path d="M19.982 7.851c0-.185 0-.37-.013-.553a8.75 8.75 0 0 0 2.167-2.214 8.759 8.759 0 0 1-2.494.673 4.309 4.309 0 0 0 1.91-2.366 8.79 8.79 0 0 1-2.759 1.038c-1.645-1.722-4.397-1.805-6.147-.185A4.24 4.24 0 0 0 11.39 8.33a12.405 12.405 0 0 1-8.954-4.469 4.24 4.24 0 0 0 1.346 5.71 4.364 4.364 0 0 1-1.973-.536v.055c.001 2.035 1.46 3.789 3.486 4.192-.64.172-1.311.197-1.961.073.568 1.743 2.2 2.936 4.058 2.97A8.803 8.803 0 0 1 .962 18.1a12.444 12.444 0 0 0 6.66 1.917c7.99.004 12.36-6.514 12.36-12.166z" fill="#FFF" fill-rule="evenodd"/></svg>