<svg width="19" height="19" xmlns="http://www.w3.org/2000/svg">
    <path d="M14.776 14.508c.007.096.007.19.007.287 0 2.917-2.22 6.276-6.277 6.276-1.25 0-2.41-.36-3.388-.99.178.03.35.03.533.03 1.04 0 1.98-.35 2.74-.94-.97-.02-1.78-.65-2.06-1.53.14.02.28.04.42.04.2 0 .4-.027.58-.074a2.204 2.204 0 0 1-1.765-2.166v-.03c.293.166.635.268.997.28a2.208 2.208 0 0 1-.683-2.95 6.26 6.26 0 0 0 4.55 2.306 2.29 2.29 0 0 1-.056-.504 2.206 2.206 0 0 1 3.816-1.508c.5-.096.978-.28 1.4-.533-.162.51-.51.94-.97 1.218.445-.05.875-.17 1.272-.342-.3.438-.676.827-1.106 1.14M10.5 7C5.255 7 1 11.254 1 16.5S5.254 26 10.5 26a9.5 9.5 0 0 0 0-19" fill="#FFF" fill-rule="evenodd"/>
</svg>
