<svg width="24" height="24" xmlns="http://www.w3.org/2000/svg"><path d="M20.762 8.07c0-.198 0-.394-.014-.589A9.205 9.205 0 0 0 23 5.128a8.94 8.94 0 0 1-2.592.716 4.56 4.56 0 0 0 1.985-2.515 9.008 9.008 0 0 1-2.867 1.104 4.496 4.496 0 0 0-6.386-.198 4.572 4.572 0 0 0-1.306 4.344A12.79 12.79 0 0 1 2.53 3.83 4.568 4.568 0 0 0 3.93 9.897 4.456 4.456 0 0 1 1.88 9.33v.058a4.54 4.54 0 0 0 3.621 4.455 4.46 4.46 0 0 1-2.037.078 4.522 4.522 0 0 0 4.216 3.157A9.015 9.015 0 0 1 1 18.962 12.717 12.717 0 0 0 7.919 21c8.302.003 12.843-6.924 12.843-12.93z" fill="#0d10bf" fill-rule="evenodd"/></svg>