<svg width="16" height="13" xmlns="http://www.w3.org/2000/svg" xmlns:xlink="http://www.w3.org/1999/xlink"><defs><path id="a" d="M0 0h16v13H0z"/></defs><g fill="none" fill-rule="evenodd"><mask id="b" fill="#fff"><use xlink:href="#a"/></mask><path d="M5.032 13c6.038 0 9.34-5.002 9.34-9.339 0-.142 0-.284-.01-.425A6.677 6.677 0 0 0 16 1.537a6.525 6.525 0 0 1-1.885.517A3.295 3.295 0 0 0 15.558.238a6.578 6.578 0 0 1-2.084.797 3.286 3.286 0 0 0-5.595 2.993A9.32 9.32 0 0 1 1.114.599 3.285 3.285 0 0 0 2.13 4.981 3.274 3.274 0 0 1 .64 4.57v.041a3.284 3.284 0 0 0 2.634 3.218 3.285 3.285 0 0 1-1.482.057 3.284 3.284 0 0 0 3.067 2.279 6.596 6.596 0 0 1-4.86 1.36 9.283 9.283 0 0 0 5.033 1.472" fill="#FFF" mask="url(#b)"/></g></svg>