<svg width="1920" height="757" viewBox="0 0 1920 757" fill="none" xmlns="http://www.w3.org/2000/svg" preserveAspectRatio="none">
<g clip-path="url(#clip0_11580_26828)">
<path d="M1129 613.311V549.449C1129 503.338 1154.06 467.564 1204.17 442.153C1254.28 416.743 1322.93 404 1410.09 404C1507.14 404 1580.58 420.585 1630.83 453.657C1680.94 486.728 1706 534.674 1706 597.37V757H1345.99C1273.61 757 1219.37 744.828 1183.25 720.557C1147.13 696.386 1129 660.538 1129 613.261V613.311Z" fill="#EE9D00"/>
<path d="M8 673H478V757H8V673Z" fill="#20C376"/>
<path d="M1499.03 -1.58265e-05L1706 -3.05176e-05L1706 399L1436.74 395L1367 252.964L1499.03 -1.58265e-05Z" fill="#ED550A"/>
<path d="M1276.49 347H891V0H1476L1276.49 347Z" fill="#23A5E9"/>
<path d="M206 379.024L1127.59 568.581L1130 757L500.291 757V653.114L206 653.114V379V379.024Z" fill="#D13109"/>
<path d="M696.786 366.975H8V0H696.786C760.598 0 807.743 12.7539 838.252 38.2365C868.729 63.7191 884 103.097 884 156.318V212.38C884 264.486 868.38 303.281 837.204 328.763C805.997 354.246 759.201 367 696.818 367L696.786 366.975Z" fill="#FFFF6C"/>
<path d="M1912 0V271H1724V151.459C1724 99.1558 1735.7 60.8105 1759.16 36.4863C1782.59 12.1622 1819.76 5.1117e-05 1870.62 0H1912Z" fill="#20C376"/>
<path d="M192 523.701C191.107 543.305 190.66 562.943 189.172 582.496C188.147 596.062 184.343 609.103 178.356 621.398C169.409 639.764 155.153 651.804 136.167 657.536C112.501 664.676 88.521 664.761 64.7392 658.13C38.6917 650.872 22.8151 632.845 14.9595 606.797C9.71694 589.449 8.07967 571.626 8.04659 553.633C7.98044 527.348 7.88121 501.062 8.57581 474.794C9.05542 456.496 12.3961 438.605 20.2517 421.85C28.7027 403.84 42.1813 391.512 60.6212 385.39C85.8419 377.012 111.393 376.944 136.713 384.762C162.264 392.665 177.231 411.285 184.657 436.96C189.321 453.087 190.942 469.622 191.14 486.342C191.289 498.773 191.173 511.22 191.173 523.651C191.438 523.651 191.719 523.685 191.983 523.685L192 523.701Z" fill="#23A5E9"/>
<rect x="1724" y="287" width="188" height="470" fill="#EED800"/>
</g>
<defs>
<clipPath id="clip0_11580_26828">
<rect width="1920" height="757" fill="white"/>
</clipPath>
</defs>
</svg>
