<svg width="1920" height="757" viewBox="0 0 1920 757" fill="none" xmlns="http://www.w3.org/2000/svg" preserveAspectRatio="none">
<g clip-path="url(#clip0_11580_26828)">
<path d="M1137 613.311V549.449C1137 503.338 1162.06 467.564 1212.17 442.153C1262.28 416.743 1330.93 404 1418.09 404C1515.14 404 1588.58 420.585 1638.83 453.657C1688.94 486.728 1714 534.674 1714 597.37V757H1353.99C1281.61 757 1227.37 744.828 1191.25 720.557C1155.13 696.386 1137 660.538 1137 613.261V613.311Z" fill="#EE9D00"/>
<path d="M-1 673H478V757H-1V673Z" fill="#20C376"/>
<path d="M1507.03 -1.58265e-05L1714 -3.05176e-05L1714 399L1444.74 395L1375 252.964L1507.03 -1.58265e-05Z" fill="#ED550A"/>
<path d="M1276.49 347H891V0H1476L1276.49 347Z" fill="#23A5E9"/>
<path d="M206 379.024L1127.59 568.581L1130 757L500.291 757V653.114L206 653.114V379V379.024Z" fill="#D13109"/>
<path d="M694.54 366.975H-0.79248V0H694.54C758.958 0 806.551 12.7539 837.35 38.2365C868.117 63.7191 883.533 103.097 883.533 156.318V212.38C883.533 264.486 867.765 303.281 836.292 328.763C804.788 354.246 757.548 367 694.572 367L694.54 366.975Z" fill="#FFFF6C"/>
<path d="M1729 149.253L1729 271L2053 271L2053 149.253C2053 95.9852 2042.92 56.9322 2022.79 32.1592C2002.63 7.38629 1970.71 -5.00003 1927 -5.00002L1855 -5.00002C1811.29 -5.00002 1779.34 7.38631 1759.21 32.1592C1739.06 56.9322 1729 95.9852 1729 149.253Z" fill="#20C376"/>
<path d="M2055 757L1729 757L1729 291L1943 291C2004.86 291 2055 341.144 2055 403L2055 757Z" fill="#EED800"/>
<path d="M192 520.644C191.107 539.834 190.66 559.057 189.172 578.197C188.147 591.477 184.343 604.242 178.356 616.277C169.409 634.255 155.153 646.041 136.167 651.652C112.501 658.64 88.521 658.723 64.7392 652.233C38.6917 645.128 22.8151 627.482 14.9595 601.984C9.71694 585.003 8.07967 567.556 8.04659 549.943C7.98044 524.213 7.88121 498.483 8.57581 472.77C9.05542 454.859 12.3961 437.346 20.2517 420.945C28.7027 403.316 42.1813 391.247 60.6212 385.255C85.8419 377.054 111.393 376.988 136.713 384.641C162.264 392.376 177.231 410.603 184.657 435.735C189.321 451.522 190.942 467.707 191.14 484.075C191.289 496.242 191.173 508.427 191.173 520.595C191.438 520.595 191.719 520.628 191.983 520.628L192 520.644Z" fill="#23A5E9"/>
</g>
<defs>
<clipPath id="clip0_11580_26828">
<rect width="1920" height="757" fill="white"/>
</clipPath>
</defs>
</svg>
