<svg width="16" height="16" viewBox="0 0 16 16" fill="none" xmlns="http://www.w3.org/2000/svg">
<path d="M8.01168 1.25485e-05C12.42 0.00645118 15.9796 3.58665 15.9683 8.00613C15.9587 12.4166 12.3898 15.9772 7.98662 15.971C3.57826 15.963 0.0200316 12.3828 0.0312766 7.96331C0.03963 3.55349 3.60847 -0.00771381 8.01168 1.25485e-05Z" fill="#F1B846"/>
<path fill-rule="evenodd" clip-rule="evenodd" d="M8.00623 12.6584C7.70285 12.6523 7.40514 12.5752 7.13701 12.4331C6.98252 12.3613 6.87799 12.2126 6.86273 12.0429C6.80543 11.4856 6.96639 11.0011 7.39842 10.6332C7.80406 10.2877 8.2979 10.3077 8.68969 10.6789C9.08148 11.0501 9.22635 11.5072 9.17259 12.0332C9.15831 12.2085 9.05081 12.3625 8.89122 12.4363C8.61795 12.5793 8.31465 12.6554 8.00623 12.6584Z" fill="#010100"/>
<path fill-rule="evenodd" clip-rule="evenodd" d="M3.82827 6.55668C3.83632 6.03773 4.29475 5.60956 4.80727 5.6424C5.34682 5.67684 5.7457 6.13077 5.70127 6.6568C5.68904 6.79942 5.62304 6.87733 5.47592 6.85898C5.38574 6.84863 5.29644 6.83174 5.20872 6.80843C4.91897 6.72504 4.61149 6.72571 4.32212 6.81037C4.27608 6.82389 4.22876 6.83387 4.18175 6.84417C3.90811 6.90308 3.82409 6.83419 3.82827 6.55668Z" fill="#030201"/>
<path fill-rule="evenodd" clip-rule="evenodd" d="M11.1814 6.73549C10.9912 6.74772 10.8109 6.79987 10.6283 6.8414C10.3457 6.90579 10.2607 6.83786 10.2658 6.55166C10.2755 6.04011 10.7249 5.61806 11.2336 5.64156C11.7767 5.66699 12.1881 6.13219 12.1385 6.66144C12.125 6.80599 12.0535 6.88003 11.907 6.85814C11.7754 6.8385 11.6456 6.80406 11.5143 6.7812C11.4039 6.76317 11.2925 6.75094 11.1814 6.73549Z" fill="#030201"/>
<path fill-rule="evenodd" clip-rule="evenodd" d="M2.69843 8.98533C2.34945 8.99112 2.07871 8.90195 1.91098 8.61833C1.78221 8.40295 1.8144 8.19982 1.98245 8.01374C2.27895 7.6844 2.94825 7.65446 3.27308 7.95547C3.58535 8.24521 3.53835 8.64923 3.16909 8.86203C3.01199 8.95249 2.84619 9.00432 2.69843 8.98533Z" fill="#E49C9B"/>
<path fill-rule="evenodd" clip-rule="evenodd" d="M13.2935 8.98233C13.0767 9.00449 12.8606 8.93318 12.6996 8.78627C12.3944 8.51456 12.4147 8.13114 12.7549 7.90643C13.0695 7.69911 13.4133 7.69428 13.7507 7.84462C14.0147 7.96213 14.155 8.19682 14.1318 8.42217C14.11 8.63529 13.8875 8.87287 13.6409 8.94563C13.5285 8.97961 13.4106 8.99206 13.2935 8.98233Z" fill="#E49C9B"/>
<path fill-rule="evenodd" clip-rule="evenodd" d="M5.31619 3.22494C5.31619 3.30896 5.24891 3.39588 5.12722 3.44385C4.38678 3.73423 3.64633 4.02397 2.90589 4.31307C2.74106 4.37745 2.58975 4.31693 2.52955 4.17496C2.46517 4.02494 2.5347 3.86848 2.70533 3.8012C3.36464 3.54075 4.02621 3.28321 4.68778 3.02566C4.78093 2.98554 4.87614 2.9504 4.97301 2.92039C5.15104 2.86985 5.31201 2.99347 5.31619 3.22494Z" fill="#040301"/>
<path fill-rule="evenodd" clip-rule="evenodd" d="M13.0148 4.34646C12.9729 4.33649 12.9315 4.32435 12.8909 4.31008C12.1601 4.02388 11.4299 3.73543 10.6985 3.45052C10.5559 3.39483 10.4789 3.30147 10.4941 3.14598C10.5066 3.01881 10.5861 2.94799 10.7049 2.9129C10.7626 2.89855 10.8234 2.90458 10.8772 2.92996C11.6234 3.22077 12.3692 3.51266 13.1146 3.80561C13.2598 3.86292 13.3255 3.98751 13.2939 4.12561C13.2624 4.26372 13.1674 4.32972 13.0148 4.34646Z" fill="#040301"/>
<path fill-rule="evenodd" clip-rule="evenodd" d="M12.1436 6.55668C12.1359 6.03773 11.6772 5.60956 11.1646 5.6424C10.6251 5.67684 10.2265 6.13077 10.271 6.6568C10.2829 6.79942 10.3489 6.87733 10.4963 6.85898C10.5866 6.8486 10.676 6.83171 10.7638 6.80843C11.0535 6.72505 11.3608 6.72572 11.6501 6.81037C11.6965 6.82389 11.7435 6.83387 11.7905 6.84417C12.0638 6.90308 12.1478 6.83419 12.1436 6.55668Z" fill="#030201"/>
</svg>
