<svg data-name="Layer 1" xmlns="http://www.w3.org/2000/svg" viewBox="0 0 200 200">
    <path d="M49 29.6a19.88 19.88 0 0 1-6.34 15.32q-6.47 6.15-17 6.15h-.25q-10.3 0-16.57-6.15A20.57 20.57 0 0 1 2.57 29.6 20.23 20.23 0 0 1 9 14.22q6.5-6.09 16.92-6.09t16.7 6.09A21 21 0 0 1 49 29.6zM46.39 68v124.45H5V68zm149 53.11v71.32h-41.27V125.9q0-13.18-5.08-20.65t-15.88-7.47a20.33 20.33 0 0 0-13.25 4.33 26.69 26.69 0 0 0-8 10.74 30.33 30.33 0 0 0-1.36 10.15v69.43H69.24q.25-50.1.25-81.24T69.37 74l-.13-6h41.31v18.1h-.25a54.7 54.7 0 0 1 5.15-7 53.5 53.5 0 0 1 7.09-6.53 32.65 32.65 0 0 1 10.92-5.46 49.78 49.78 0 0 1 14.38-1.95q21.47 0 34.53 14.25t13.06 41.72z"/>
</svg>
