<svg data-name="Layer 1" xmlns="http://www.w3.org/2000/svg" viewBox="0 0 200 200">
    <path d="M198.33 50.65a85 85 0 0 1-20.34 21q.12 1.76.13 5.27a115.24 115.24 0 0 1-4.77 32.58 117.77 117.77 0 0 1-14.5 31.2 122.7 122.7 0 0 1-23.17 26.43 103.16 103.16 0 0 1-32.39 18.33 118.55 118.55 0 0 1-40.55 6.84A112.62 112.62 0 0 1 .45 174.08a86.75 86.75 0 0 0 9.79.5 79.4 79.4 0 0 0 50.36-17.33 40.64 40.64 0 0 1-37.92-28.12 51.19 51.19 0 0 0 7.66.63A41.91 41.91 0 0 0 41 128.38a39.89 39.89 0 0 1-23.29-14 39.18 39.18 0 0 1-9.23-25.8v-.5a40.21 40.21 0 0 0 18.33 5.15 40.49 40.49 0 0 1-13.17-14.45A40.65 40.65 0 0 1 14.27 39a114.91 114.91 0 0 0 37 29.95 113 113 0 0 0 46.62 12.47 45 45 0 0 1-1-9.29 39.09 39.09 0 0 1 11.87-28.69 40.65 40.65 0 0 1 58.32.94 79.54 79.54 0 0 0 25.74-9.79A39.38 39.38 0 0 1 175 56.93a80.76 80.76 0 0 0 23.33-6.28z"/>
</svg>
