<svg width="24" height="24" viewBox="0 0 24 24" fill="none" xmlns="http://www.w3.org/2000/svg">
<path d="M7.51514 12.0009C7.51514 14.4738 9.52697 16.4855 11.9999 16.4855C14.4727 16.4855 16.4844 14.4737 16.4844 12.0009C16.4844 9.52806 14.4727 7.51624 11.9999 7.51624C9.52697 7.51624 7.51514 9.52806 7.51514 12.0009Z" fill="#EA0B12"/>
<path d="M22.3266 6.08116C22.3616 6.0197 22.3609 5.94424 22.3248 5.88342C21.2802 4.1241 19.7936 2.65042 18.0258 1.62172C16.2038 0.561396 14.12 0.000976562 12.0001 0.000976562C8.33124 0.000976562 4.91207 1.64746 2.61924 4.51825C2.56864 4.58151 2.56203 4.66925 2.60256 4.73936L5.98066 10.5902C6.01607 10.6516 6.08138 10.6886 6.15094 10.6886C6.15975 10.6886 6.16872 10.688 6.17761 10.6868C6.25678 10.676 6.32154 10.6184 6.34152 10.5411C7.00762 7.96016 9.33452 6.15765 12.0001 6.15765C12.1655 6.15765 12.3363 6.1652 12.508 6.17984C12.5136 6.18039 12.5193 6.18062 12.5249 6.18062H22.1556C22.2264 6.18062 22.2917 6.14269 22.3266 6.08116Z" fill="#EA0B12"/>
<path d="M13.7732 17.6999C13.7244 17.6367 13.6424 17.6095 13.565 17.6309C13.0569 17.7724 12.5304 17.8441 12 17.8441C9.74628 17.8441 7.66914 16.5223 6.70812 14.4767C6.70576 14.4717 6.70316 14.4668 6.70041 14.4619L1.88152 6.11557C1.84643 6.05459 1.78143 6.01721 1.71116 6.01721C1.71085 6.01721 1.71045 6.01721 1.71014 6.01721C1.63948 6.01761 1.5744 6.05577 1.53978 6.1173C0.532485 7.90471 0 9.93921 0 12.0008C0 14.893 1.04341 17.6867 2.93799 19.8673C4.81377 22.0261 7.39617 23.4468 10.2097 23.8678C10.2194 23.8693 10.2292 23.8699 10.2389 23.8699C10.3084 23.8699 10.3737 23.8329 10.4092 23.7715L13.7881 17.9189C13.8281 17.8496 13.8222 17.763 13.7732 17.6999Z" fill="#EA0B12"/>
<path d="M22.9909 7.49329H16.2257C16.1457 7.49329 16.0737 7.54168 16.0436 7.61565C16.0134 7.68961 16.0309 7.7746 16.088 7.83047C17.2199 8.94013 17.8433 10.4212 17.8433 12.001C17.8433 13.1969 17.4824 14.3478 16.7996 15.3293C16.7965 15.3339 16.7936 15.3385 16.7908 15.3433L11.9636 23.7041C11.9283 23.7654 11.9285 23.8408 11.9641 23.9019C11.9995 23.9622 12.0642 23.9992 12.134 23.9992C12.1347 23.9992 12.1355 23.9992 12.1362 23.9992C15.3128 23.9638 18.2938 22.7 20.5298 20.4408C22.7676 18.1797 24 15.1823 24 12.001C24 10.4888 23.7221 9.01426 23.174 7.61816C23.1444 7.54278 23.0717 7.49329 22.9909 7.49329Z" fill="#EA0B12"/>
</svg>
