<svg width="36" height="36" viewBox="0 0 36 36" fill="none" xmlns="http://www.w3.org/2000/svg">
<circle cx="18" cy="18" r="17.5" stroke="white"/>
<path fill-rule="evenodd" clip-rule="evenodd" d="M23.605 13.2866L19.252 17.8604C19.2305 17.8829 19.2085 17.9049 19.1859 17.9262C18.4833 18.5898 17.3757 18.5582 16.7121 17.8556L12.4348 13.327C12.4217 13.3131 12.408 13.3 12.3939 13.2877C12.4539 13.2764 12.5158 13.2706 12.5791 13.2706H23.4256C23.4868 13.2706 23.5468 13.2761 23.605 13.2866ZM24.4154 14.1274C24.4221 14.1742 24.4256 14.222 24.4256 14.2706V21.6039C24.4256 21.6535 24.422 21.7022 24.415 21.7498L20.6983 18.033L24.4154 14.1274ZM23.6035 22.5881C23.5457 22.5985 23.4863 22.6039 23.4256 22.6039H12.5791C12.517 22.6039 12.4563 22.5982 12.3973 22.5874L16.1022 18.8825C17.1859 19.7999 18.7924 19.805 19.8832 18.8679L23.6035 22.5881ZM11.5891 21.7457C11.5825 21.6994 11.5791 21.652 11.5791 21.6039V14.2706C11.5791 14.223 11.5824 14.1762 11.5888 14.1304L15.2879 18.0469L11.5891 21.7457Z" fill="white"/>
</svg>
