<svg width="23" height="25" viewBox="0 0 23 25" fill="none" xmlns="http://www.w3.org/2000/svg">
<path d="M22.1715 8.38447C21.671 7.11818 20.6574 5.75097 19.8614 5.3189C20.5093 6.65461 20.8842 7.995 21.0275 8.99512C21.0275 8.99714 21.0282 9.00197 21.0297 9.01528C19.7276 5.60132 17.5196 4.22453 15.7164 1.22726C15.6254 1.07564 15.5341 0.923726 15.4452 0.763542C15.3999 0.681747 15.3576 0.598149 15.3184 0.512933C15.2437 0.360874 15.186 0.200179 15.1466 0.0340952C15.1472 0.0177778 15.1359 0.0036871 15.1205 0.00163506C15.1134 -0.00054502 15.1059 -0.00054502 15.0988 0.00163506C15.0973 0.0021895 15.0948 0.00420566 15.0931 0.00491132C15.0906 0.0059194 15.0874 0.00838919 15.0847 0.0096997C15.0859 0.00788515 15.0887 0.00380243 15.0895 0.00289516C12.529 1.58054 11.4676 4.34233 11.1947 6.10027C10.4036 6.14754 9.62867 6.35556 8.91275 6.71283C8.77788 6.78301 8.71504 6.94888 8.76703 7.09741C8.7936 7.17825 8.85131 7.24359 8.92601 7.2774C9.00071 7.31121 9.08549 7.31037 9.15956 7.27508C9.78419 6.96506 10.4582 6.78002 11.1472 6.72941C11.1696 6.72775 11.1921 6.72628 11.2145 6.72437C11.3092 6.71831 11.4039 6.71476 11.4988 6.71373C12.0578 6.70964 12.6145 6.79074 13.1515 6.95451C13.1828 6.96419 13.2135 6.97538 13.2447 6.98556C13.3339 7.01424 13.4224 7.0452 13.5101 7.07841C13.5743 7.1035 13.6381 7.12978 13.7014 7.15724C13.7529 7.17911 13.8043 7.20099 13.855 7.22433C13.9341 7.2612 14.0124 7.29997 14.0898 7.34061C14.1254 7.35916 14.161 7.37766 14.196 7.39691C14.2716 7.43863 14.3463 7.4821 14.4201 7.5273C14.4677 7.55635 14.5148 7.58619 14.5615 7.61682C15.3957 8.15966 16.0879 8.91289 16.5753 9.80824C15.9604 9.35384 14.8594 8.9051 13.7987 9.09915C17.9407 11.2773 16.8287 18.7781 11.0893 18.4949C10.5782 18.473 10.0731 18.3705 9.59086 18.1909C9.47681 18.1458 9.36402 18.0973 9.25262 18.0454C9.18764 18.0143 9.12272 17.9828 9.05851 17.9479C7.6522 17.1833 6.49099 15.7385 6.3459 13.984C6.3459 13.984 6.87744 11.9005 10.1521 11.9005C10.5061 11.9005 11.5181 10.8615 11.5369 10.5601C11.5325 10.4617 9.52833 9.6231 8.747 8.81331C8.32946 8.38059 8.13122 8.17202 7.95571 8.01547C7.86044 7.93087 7.76086 7.85178 7.65742 7.77857C7.39492 6.81261 7.38375 5.79024 7.62508 4.81819C6.44216 5.38483 5.52202 6.28046 4.85315 7.07125H4.84783C4.39128 6.46302 4.42353 4.45664 4.44954 4.03773C4.44408 4.01173 4.109 4.2207 4.06506 4.25215C3.66225 4.55464 3.28566 4.89401 2.93969 5.26628C2.54601 5.68623 2.18629 6.13998 1.8643 6.6228C1.8643 6.62341 1.86396 6.62406 1.86377 6.62467C1.86377 6.62406 1.8641 6.62341 1.8643 6.62275C1.12383 7.72666 0.598702 8.974 0.319269 10.2927C0.31649 10.306 0.20954 10.7994 0.131435 11.409C0.118185 11.5038 0.105901 11.5987 0.0945876 11.6938C0.06785 11.8771 0.0470542 12.0769 0.0265459 12.3877C0.0256354 12.3998 0.0250604 12.4116 0.0242458 12.4236C0.0156982 12.5579 0.00801538 12.6922 0.00119792 12.8266C0.00119792 12.8473 0 12.8677 0 12.8884C0 19.5775 5.15584 25 11.5155 25C17.2112 25 21.9402 20.6507 22.8661 14.9379C22.8856 14.7829 22.9012 14.627 22.9185 14.4706C23.1474 12.3935 22.8931 10.2102 22.1715 8.38447Z" fill="#EA0B12"/>
</svg>
