<svg width="36" height="36" viewBox="0 0 36 36" fill="none" xmlns="http://www.w3.org/2000/svg">
<path d="M22 15.3334C23.1046 15.3334 24 14.4379 24 13.3334C24 12.2288 23.1046 11.3334 22 11.3334C20.8954 11.3334 20 12.2288 20 13.3334C20 14.4379 20.8954 15.3334 22 15.3334Z" fill="white" stroke="white" stroke-linecap="round" stroke-linejoin="round"/>
<path d="M14 20C15.1046 20 16 19.1046 16 18C16 16.8954 15.1046 16 14 16C12.8954 16 12 16.8954 12 18C12 19.1046 12.8954 20 14 20Z" fill="white" stroke="white" stroke-linecap="round" stroke-linejoin="round"/>
<path d="M22 24.6667C23.1046 24.6667 24 23.7713 24 22.6667C24 21.5621 23.1046 20.6667 22 20.6667C20.8954 20.6667 20 21.5621 20 22.6667C20 23.7713 20.8954 24.6667 22 24.6667Z" fill="white" stroke="white" stroke-linecap="round" stroke-linejoin="round"/>
<path d="M15.7266 19.0067L20.2799 21.66" stroke="white" stroke-linecap="round" stroke-linejoin="round"/>
<path d="M20.2732 14.34L15.7266 16.9934" stroke="white" stroke-linecap="round" stroke-linejoin="round"/>
<circle cx="18" cy="18" r="17.5" stroke="white"/>
</svg>
