<svg width="36" height="36" viewBox="0 0 36 36" fill="none" xmlns="http://www.w3.org/2000/svg">
<circle cx="18" cy="18" r="17.5" stroke="white"/>
<path fill-rule="evenodd" clip-rule="evenodd" d="M23.3532 15.8965C23.3532 15.776 23.3532 15.6561 23.345 15.537C23.8971 15.1443 24.3736 14.6569 24.7525 14.099C24.2382 14.3238 23.6915 14.4714 23.1325 14.5364C23.7211 14.1891 24.1619 13.6434 24.373 12.9996C23.8187 13.3232 23.2129 13.5514 22.581 13.6739C21.5124 12.5555 19.7253 12.5013 18.5886 13.5534C17.8563 14.2317 17.5448 15.2432 17.7724 16.2079C15.504 16.0955 13.3902 15.0408 11.9572 13.3056C11.2084 14.575 11.5914 16.1984 12.8311 17.0135C12.3821 17.0007 11.9427 16.8815 11.5501 16.6662V16.7014C11.5508 18.0236 12.4977 19.1623 13.8138 19.4243C13.3984 19.536 12.9625 19.5523 12.5403 19.4717C12.9095 20.6036 13.9692 21.3788 15.176 21.4011C14.1768 22.1743 12.9425 22.594 11.6718 22.5927C11.4476 22.592 11.2235 22.5791 11 22.5527C12.2907 23.3678 13.7918 23.8004 15.3252 23.7984C20.5147 23.8004 23.3532 19.5672 23.3532 15.8965Z" fill="white"/>
</svg>
