<svg width="36" height="36" viewBox="0 0 36 36" fill="none" xmlns="http://www.w3.org/2000/svg">
<circle cx="18" cy="18" r="17.5" stroke="white"/>
<path d="M19.2014 18.5982C18.6802 19.2951 17.882 19.7312 17.014 19.7933C16.146 19.8555 15.2938 19.5376 14.6786 18.9222L12.8791 17.1226C11.7425 15.9458 11.7587 14.0752 12.9156 12.9183C14.0725 11.7614 15.9431 11.7452 17.12 12.8818L18.1517 13.9075" stroke="white" stroke-width="1.5" stroke-linecap="round" stroke-linejoin="round"/>
<path d="M16.8021 17.3986C17.3233 16.7017 18.1215 16.2656 18.9895 16.2035C19.8575 16.1413 20.7097 16.4592 21.3249 17.0746L23.1244 18.8742C24.261 20.051 24.2448 21.9216 23.0879 23.0785C21.931 24.2354 20.0604 24.2516 18.8835 23.115L17.8578 22.0893" stroke="white" stroke-width="1.5" stroke-linecap="round" stroke-linejoin="round"/>
</svg>
