<svg width="178" height="157" xmlns="http://www.w3.org/2000/svg" xmlns:xlink="http://www.w3.org/1999/xlink">
    <defs>
        <path id="a" d="M0 163.75h177.793V7.807H0z"/>
    </defs>
    <g fill="none" fill-rule="evenodd">
        <path fill="#B6D806" d="M103.29 80.04h7.27v-3.636h-7.27zm14.544 0h7.273v-3.636h-7.273zm14.546 0h7.272v-3.636h-7.272zm14.545 0h7.273v-3.636h-7.273z"/>
        <path d="M171.943 82.365a4.162 4.162 0 0 1 0-8.306 4.162 4.162 0 0 1 0 8.3zM133.76 153.14a4.13 4.13 0 0 1-2.944 1.217 4.163 4.163 0 0 1 0-8.306 4.163 4.163 0 0 1 2.945 7.09zm-83.344 0a4.13 4.13 0 0 1-2.946 1.217 4.163 4.163 0 0 1 0-8.306 4.163 4.163 0 0 1 2.946 7.09zM5.58 82.382a4.163 4.163 0 0 1 0-8.306 4.163 4.163 0 0 1 0 8.306zm38.963-79.08a4.128 4.128 0 0 1 2.946-1.217 4.162 4.162 0 0 1 0 8.306 4.145 4.145 0 0 1-2.95-7.09zm83.346 0a4.128 4.128 0 0 1 2.94-1.217 4.163 4.163 0 0 1 0 8.306 4.163 4.163 0 0 1-2.95-7.09zm2.01 49.655l-39.34-22.72 35.47-20.482.182.218-2.527 4.363 3.14 1.817 2.42-4.198.652.145v40.858zm-.82 91.566l-2.165-3.89-3.146 1.818 2.4 4.17-35.62-20.41 39.383-22.72v40.84c-.29.046-.576.11-.855.2zM10.212 81.856L46.25 102.74v41.62l-.31.09L10 82.22l.218-.364zM46.27 12.064v41.62L10.216 74.587l-.218-.272 35.945-62.34.327.09zM86.925 30.24L48.07 52.65V12.135h.382l2.346 4.072 3.145-1.818-2.254-3.91c.1-.11.2-.24.29-.37l34.94 20.12zm-75.673 49.8h4.764v-3.636h-4.764c0-.11 0-.237-.11-.346l35.11-20.265v44.856l-35.11-20.27c.037-.11.074-.24.11-.35zm118.655 21.336L88.743 125.15 48.07 101.685V54.74l40.673-23.446 41.164 23.773v46.31zM53.125 8.01h71.982v.09L88.743 29.15 52.98 8.556c.055-.164.11-.327.164-.51l-.018-.035zm-1.31 138.13l2.128-3.633-3.145-1.818-2.146 3.63h-.582v-40.53l38.855 22.41-34.927 20.14-.182-.2zm73.292 2.255H53.143c0-.163-.09-.345-.164-.51l35.76-20.59 36.36 21.01v.09zm42.145-66.412l.237.29-35.77 61.87V102.34l35.523-20.356zm-.91-5.834c0 .11 0 .21-.09.31h-4.782v3.63h4.764c0 .11 0 .22.09.31l-34.544 19.99V56.12l34.563 20.03zm.91-1.57l-35.527-20.57v-41.8l35.765 62.01-.24.36zm8.873-.58a5.928 5.928 0 0 0-4.218-1.82 5.943 5.943 0 0 0-1.273.145l-35.71-61.796a5.96 5.96 0 0 0-4.09-10.28 5.963 5.963 0 0 0-5.726 4.16H53.143A5.89 5.89 0 0 0 47.47.25a5.98 5.98 0 0 0-6 5.96v.02a5.907 5.907 0 0 0 1.382 3.78L6.925 72.387a6.007 6.007 0 0 0-1.273-.145 5.98 5.98 0 0 0 0 11.94 5.943 5.943 0 0 0 1.273-.145l35.964 62.395a5.906 5.906 0 0 0-1.42 3.78 5.98 5.98 0 0 0 5.98 5.98h.02a5.89 5.89 0 0 0 5.65-4.162h71.98a5.963 5.963 0 0 0 5.65 4.162 5.98 5.98 0 0 0 4.22-10.196l-.13-.11 35.71-61.794c.42.094.846.142 1.274.145a5.98 5.98 0 0 0 4.22-10.196l.072-.03z" fill="#B6D806"/>
        <path d="M88.743 69.915a8.308 8.308 0 0 1 8.306 8.31 8.308 8.308 0 0 1-8.31 8.302 8.308 8.308 0 0 1-8.31-8.31 8.307 8.307 0 0 1 8.304-8.302M76.8 78.22c.01 6.59 5.352 11.932 11.945 11.942 6.597-.002 11.944-5.35 11.94-11.945 0-6.592-5.346-11.935-11.94-11.937-6.593.01-11.935 5.35-11.945 11.94m17.78-13.503l3.636-6.297 3.15 1.816-3.635 6.297zm7.278-12.608l3.635-6.3 3.15 1.82-3.636 6.29zm7.277-12.58l3.635-6.3 3.15 1.814-3.636 6.3zm7.276-12.61l3.64-6.3 3.15 1.816-3.63 6.297zm-54.69 8.14l3.15-1.82 3.64 6.296-3.15 1.82zm-7.29-12.59l3.15-1.82 3.64 6.292-3.15 1.818zM76.26 60.24l3.15-1.817 3.638 6.296-3.15 1.818zm-7.264-12.6l3.15-1.818 3.637 6.292-3.15 1.816z" fill="#B6D806"/>
        <mask id="b" fill="#fff">
            <use xlink:href="#a"/>
        </mask>
        <path fill="#B6D806" mask="url(#b)" d="M23.29 80.04h7.27v-3.636h-7.27zm14.544 0h7.273v-3.636h-7.273zm29.09 0H74.2v-3.636h-7.273zm-14.544 0h7.272v-3.636H52.38zm2.065 54.283l3.636-6.297 3.15 1.817-3.63 6.297zm14.552-25.176l3.635-6.297 3.15 1.817-3.636 6.297zm-7.284 12.583l3.635-6.296 3.15 1.817-3.635 6.3zm14.55-25.175l3.637-6.297 3.15 1.817-3.636 6.297zm32.867 20.73l3.15-1.816 3.634 6.29-3.15 1.814zM94.58 92.1l3.15-1.816 3.635 6.296-3.15 1.818zm7.28 12.59l3.15-1.816 3.635 6.296-3.15 1.817zm14.55 25.182l3.15-1.818 3.636 6.296-3.15 1.818z"/>
    </g>
</svg>
