<svg xmlns="http://www.w3.org/2000/svg" viewBox="0 0 31 39">
    <path d="M7.9 33c-.4 0-.7.1-1 .2-.3.2-.5.4-.7.7-.1-.6-.6-.9-1.4-.9-.3 0-.6.1-.9.2-.3.1-.5.3-.6.6v-.7H2.1V38h1.2v-2.7c0-.4.1-.7.3-.9.2-.3.5-.4.8-.4.3 0 .5.1.6.3s.2.4.2.8v3h1.2v-2.7c0-.4.1-.7.3-.9.2-.4.5-.5.8-.5.3 0 .5.1.6.3s.2.4.2.8v3h1.2v-3c0-.7-.1-1.2-.4-1.5-.2-.4-.6-.6-1.2-.6zm5.8 0c-.5 0-.9.1-1.2.3-.4.2-.6.5-.8.9-.2.4-.3.8-.3 1.3 0 .8.2 1.4.7 1.9.5.5 1.1.7 1.9.7.3 0 .7-.1 1-.2s.6-.3.9-.5l-.4-.9c-.4.3-.9.5-1.5.5-.4 0-.8-.1-1-.3s-.4-.6-.4-1h3.3v-.4c0-.8-.2-1.4-.6-1.8-.3-.3-.9-.5-1.6-.5zm-1.1 2.1c0-.4.2-.7.4-.9.2-.2.5-.3.8-.3.3 0 .6.1.8.3s.3.5.3.9h-2.3zm8-2.1c-.4 0-.7.1-1 .2s-.5.4-.7.6v-.7h-1.2V38H19v-2.8c0-.4.1-.7.3-.9.2-.2.5-.3.9-.3.3 0 .5.1.7.3.1.2.2.5.2.8V38h1.2v-3c0-.7-.1-1.2-.4-1.5-.3-.3-.7-.5-1.3-.5zm7 2.8c0 .4-.1.7-.3.9-.2.2-.5.3-.8.3-.3 0-.5-.1-.7-.2-.1-.2-.2-.4-.2-.8v-3h-1.2v2.9c0 1.3.6 2 1.8 2 .3 0 .6-.1.9-.2.3-.1.5-.3.6-.6v.9h1.2v-4.9h-1.2v2.7zM12.8 0L12 3h18V0zM6 21h24v-3H6.8zm-5-9h29V9H1.8z"/>
</svg>
