<svg xmlns="http://www.w3.org/2000/svg" width="122" height="122">
    <path fill="#B6D806" d="M64 22.2c-.3-1.4-1.6-2.4-3-2.4-1.5 0-2.7 1-3 2.4C37.9 23.7 22 40.6 22.1 61c0 20.4 15.8 37.2 35.9 38.8.3 1.5 1.5 2.6 3.1 2.6 1.5 0 2.8-1.1 3.1-2.5 9.2-.7 17.8-4.7 24.5-11.3C95.9 81.2 100 71.4 99.9 61c0-10.4-4.1-20.2-11.4-27.5-6.6-6.7-15.2-10.6-24.5-11.3zm23.6 65.4C81.2 93.9 72.9 97.7 64 98.5c-.3-1.4-1.6-2.4-3-2.4-1.5 0-2.7 1-3 2.4-8.9-.7-16.9-4.5-22.9-10.3l1.5-1.5-1-1-1.5 1.5c-6.6-6.8-10.6-16-10.6-26.1 0-19.7 15.2-35.9 34.5-37.5.3 1.4 1.6 2.5 3.1 2.5s2.8-1.1 3.1-2.5c8.7.7 16.7 4.3 23 10.4l-1.4 1.4 1 1 1.4-1.4c6.8 7 10.5 16.2 10.5 26-.1 10-4 19.5-11.1 26.6zM9.1 99.3c-.4-.3-.9-.5-1.4-.3-.5.2-.8.6-.9 1.1l-2.6 16.3c-.1.4.1.9.4 1.2.3.3.6.4 1 .4h.2l16.3-2.6c.5-.1.9-.4 1.1-.9.2-.5 0-1-.3-1.4L9.1 99.3zM7.2 115L9 103.1l10 10L7.2 115zm10.4-9.4l-1 1-1-1 1-1 1 1zm73.8-74l-1-1 1.9-1.9 1 1-1.9 1.9zM26.1 95.2l1 1-2 1.8-1-1 2-1.8zm70.1-68.3l-1-1 1.9-1.9 1 1-1.9 1.9zM74.4 48.7l-1-1-.8.8c-3.1-2.8-7.1-4.6-11.6-4.6-4.6 0-8.8 1.8-12.1 5-3.2 3.2-5 7.5-5 12.1 0 4.5 1.8 8.6 4.6 11.6l-.7.7 1 1 .7-.7c3 2.8 7.1 4.5 11.5 4.5 4.6 0 8.8-1.8 12.1-5 3.2-3.2 5-7.5 5-12.1 0-4.4-1.7-8.5-4.5-11.5l.8-.8zM61 75.4c-7.9 0-14.4-6.4-14.4-14.3S53 46.7 60.9 46.7 75.2 53.1 75.3 61c.1 7.9-6.4 14.3-14.3 14.4zM78.1 43l1 1-1.9 1.9-1-1 1.9-1.9zm4.8-4.8l1 1-1.9 1.9-1-1 1.9-1.9zM45 76.2l1 1-1.9 1.9-1-1 1.9-1.9zM30.8 90.4l1 1-1.9 1.9-1-1 1.9-1.9zm9.5-9.5l1 1-1.9 1.9-1-1 1.9-1.9zm64.4-64.5l1-1 1 1-1 1-1-1zm8.5 6.3c.3.3.6.4 1 .4.1 0 .3 0 .4-.1.5-.2.8-.6.9-1.1l2.6-16.3c.1-.4-.1-.9-.4-1.2-.3-.3-.7-.4-1.2-.4l-16.3 2.6c-.5.1-.9.4-1.1.9-.2.5 0 1 .3 1.4l13.8 13.8zM115.1 7l-1.9 11.8-10-10L115.1 7zm3.8 73.3c2.1-6.2 3.1-12.7 3.1-19.4 0-33.6-27.4-61-61-61-23.1.1-43.2 13-53.6 32-.4-.1-.8-.1-1.2-.1-3.1 0-5.6 2.5-5.6 5.6 0 1.9 1 3.6 2.4 4.6-1.9 6-3 12.4-3 19 0 33.6 27.4 61 61 61 16.3 0 31.6-6.4 43.1-17.9 4.1-4.1 7.6-8.8 10.3-13.8.4.1.8.1 1.1.1 3.1 0 5.6-2.5 5.6-5.6.1-1.8-.8-3.4-2.2-4.5zM2 37.4c0-2.3 1.9-4.2 4.2-4.2s4.2 1.9 4.2 4.2-1.9 4.2-4.2 4.2S2 39.7 2 37.4zm100.2 64.8c-11 11-25.6 17.1-41.2 17.1-15.8 0-30.1-6.3-40.6-16.5l1.9-1.9-1-1-1.9 1.9C9.1 91.3 2.7 76.9 2.7 61c0-6.3 1-12.4 2.9-18.2.2 0 .4.1.6.1 3.1 0 5.6-2.5 5.6-5.6 0-1.7-.8-3.2-1.9-4.2 9.9-18 29-30.4 51.1-30.4 15.8 0 30.2 6.4 40.7 16.6l-1.8 1.8 1 1 1.8-1.8c10.3 10.5 16.6 24.8 16.6 40.6 0 6.3-1 12.5-3 18.4-.2 0-.5-.1-.7-.1-3.1 0-5.6 2.5-5.6 5.6 0 1.7.8 3.2 2 4.2-2.6 4.8-5.8 9.3-9.8 13.2zm13.4-13.1c-2.3 0-4.2-1.9-4.2-4.2 0-2.3 1.9-4.2 4.2-4.2 2.3 0 4.2 1.9 4.2 4.2 0 2.3-1.9 4.2-4.2 4.2z"/>
</svg>
