<svg width="350" height="303" viewBox="0 0 350 303" fill="none" xmlns="http://www.w3.org/2000/svg">
<path d="M32.4998 180.56C32.4998 180.56 32.5527 180.545 32.58 180.545C32.8182 180.544 32.9593 180.375 33.0033 180.037C32.7258 180.123 32.4646 180.305 32.1705 180.223C32.1183 180.211 32.0321 180.373 31.9584 180.455C31.8587 180.098 31.9985 179.822 32.1437 179.498C32.5449 179.736 32.6533 179.141 32.953 178.934C32.9699 179.245 32.9858 179.512 33.0051 179.813C33.1458 179.894 33.297 179.977 33.4626 180.069C33.6047 179.783 33.9596 179.791 33.887 179.364C34.0529 179.286 34.1868 179.228 34.3127 179.158C34.4321 179.091 34.5499 179.008 34.6781 178.927C34.8039 179.724 34.868 179.683 34.3128 180.096C34.3365 180.233 34.3345 180.386 34.503 180.369C34.7767 180.348 35.0546 180.405 35.2253 179.994C35.2612 179.909 35.3711 179.884 35.4359 179.817C35.5487 179.683 35.6535 179.536 35.8039 179.334C35.8248 179.339 35.9212 179.35 36.0111 179.364L35.8781 179.154C36.0728 179.022 36.2675 178.89 36.4558 178.762C36.5082 178.846 36.5646 178.935 36.6211 179.025C36.5885 179.143 36.5414 179.253 36.5233 179.381C36.4206 180 36.162 180.243 35.7073 180.119C35.6093 180.091 35.5072 180.057 35.3779 180.023C35.401 180.258 35.4199 180.416 35.4364 180.585C36.09 180.655 36.5945 180.176 37.1233 179.807C37.159 179.65 37.1988 179.5 37.2249 179.385C37.3871 179.372 37.5292 179.399 37.6463 179.343C37.7721 179.273 37.8833 179.122 37.9978 179.005C38.1439 179.905 38.5462 179.633 38.9453 179.399C38.9241 179.565 38.9091 179.655 38.8933 179.772C38.9752 179.774 39.0403 179.777 39.0635 179.772C39.1536 179.545 39.2302 179.354 39.3219 179.144C39.507 179.504 39.7371 179.594 40.0122 179.415C40.0635 179.382 40.1212 179.346 40.1734 179.358C40.3863 179.411 40.5111 179.225 40.6495 179.075C40.6776 179.049 40.7177 179.041 40.8027 179.006C40.7492 179.12 40.714 179.178 40.6957 179.234C40.6727 179.311 40.6536 179.394 40.6369 179.467C41.0825 179.776 41.0865 179.783 41.4961 179.551C41.7094 179.435 41.9153 179.278 42.1164 179.142C42.1292 179.134 42.1558 179.162 42.1807 179.173C42.1393 179.306 42.1043 179.436 42.0582 179.59C42.1721 179.572 42.2956 179.512 42.3238 179.556C42.5538 179.992 42.9273 179.774 43.2305 179.985C43.2525 179.793 43.2706 179.665 43.2823 179.542C43.3154 179.324 43.5301 179.153 43.5995 179.306C43.5316 179.411 43.4636 179.517 43.3893 179.626C43.5586 179.895 43.7421 179.788 43.9 179.697C44.1285 179.562 44.3195 179.567 44.4954 179.902C44.5436 179.595 44.5831 179.374 44.8055 179.385C44.892 179.608 44.9785 179.83 45.0771 180.072C45.1846 180.058 45.353 179.969 45.4182 180.044C45.667 180.325 45.8929 180.129 46.1303 180.051C46.2618 180.004 46.4071 179.993 46.5353 179.912C46.6571 179.835 46.7768 180.153 46.8956 179.872C46.9068 179.847 47.1303 179.974 47.2549 180.03C47.2903 180.043 47.3368 180.032 47.3745 180.035C47.5227 179.602 47.6947 179.377 47.8161 179.47C47.8173 179.586 47.812 179.705 47.8067 179.825C47.8653 179.832 47.9047 179.852 47.9448 179.845C48.3108 179.828 48.7138 179.53 49.0147 180.064C49.0268 180.083 49.0685 180.092 49.0918 180.087C49.2266 180.073 49.353 180.217 49.5058 180.004C49.593 179.887 49.8381 179.991 50.0083 179.991C50.0799 179.749 50.0454 179.467 50.2847 179.477C50.2875 179.61 50.2862 179.735 50.2908 179.956C50.6877 179.804 51.055 179.662 51.4287 179.515C51.3985 179.624 51.3811 179.724 51.3526 179.849C51.6995 179.916 52.0346 180.036 52.371 180.029C52.7073 180.022 53.0898 180.174 53.3664 179.732C53.3928 179.688 53.4908 179.716 53.5687 179.712C53.5361 179.83 53.5066 179.912 53.4947 179.964C53.821 180.098 54.1304 180.233 54.4486 180.354C54.5402 180.386 54.68 180.423 54.7216 180.361C54.8615 180.156 55.0255 180.231 55.1916 180.225C55.5199 180.206 55.6097 180.149 55.9467 179.802C56.0332 179.712 56.1253 179.645 56.2695 179.519C56.2411 179.715 56.2213 179.826 56.2016 179.937C56.5929 180.074 56.9035 179.458 57.3258 179.773C57.1679 179.863 57.0549 179.926 56.9354 179.992L56.9461 180.066C57.2038 180.091 57.4552 180.12 57.6961 180.147C57.7493 179.649 58.0364 179.834 58.2143 179.704C58.2674 179.968 58.4663 180.075 58.8108 180.025C58.8042 179.957 58.804 179.886 58.799 179.835C59.388 179.732 59.9689 179.929 60.5529 179.775C60.9083 179.685 61.2883 179.776 61.6616 179.799C62.3015 179.834 62.9359 179.916 63.579 179.913C63.9298 179.915 64.2754 179.795 64.6237 179.736C64.3991 180.119 64.93 180.222 64.682 180.539C65.1888 180.604 65.6537 180.659 66.1123 180.719C66.1534 180.49 66.3624 180.4 66.7393 180.448C66.7604 180.524 66.8185 180.631 66.7978 180.697C66.6938 181.129 66.919 181.586 66.7122 182.011C66.6835 182.065 66.7175 182.204 66.7514 182.272C67.0312 182.73 66.8014 183.233 66.7971 183.709C66.5648 183.909 66.6268 184.263 66.6803 184.462C66.7752 184.839 66.7859 185.226 66.803 185.608C66.8298 186.02 66.9608 186.384 66.9556 186.816C66.9518 187.194 66.7513 187.544 66.8839 187.925C66.896 187.944 66.8713 188.004 66.8561 188.023C66.749 188.18 66.7655 188.348 66.7644 188.545C66.7648 188.688 66.6866 188.862 66.6042 188.959C66.1792 189.45 65.6309 189.448 65.1937 188.982C64.9506 188.724 64.8198 188.744 64.5757 188.996C64.4332 189.14 64.2674 189.289 64.1005 189.323C63.5348 189.42 62.9618 189.478 62.3952 189.531C62.2772 189.543 62.1327 189.527 62.0337 189.455C61.6814 189.195 61.2903 189.442 60.9263 189.305C60.8805 189.289 60.8164 189.33 60.7691 189.368C60.5096 189.568 60.2549 189.505 60.0112 189.346C59.844 189.237 59.6954 189.215 59.5047 189.353C59.3677 189.448 59.1596 189.374 58.9908 189.319C58.847 189.276 58.7094 189.157 58.5548 189.282C58.3121 189.479 58.0727 189.398 57.8283 189.266C57.7206 189.209 57.5839 189.134 57.482 189.172C57.2551 189.252 57.0567 189.208 56.831 189.162C56.6366 189.124 56.4212 189.322 56.2127 189.418C56.1999 189.426 56.183 189.428 56.1686 189.419C55.8199 189.335 55.4792 189.193 55.1242 189.426C55.0601 189.466 54.9386 189.373 54.8558 189.327C54.7545 189.266 54.6532 189.204 54.5566 189.122C54.4005 188.988 54.256 188.972 54.0942 189.128C53.8788 189.326 53.6474 189.258 53.4129 189.227C52.9648 189.17 52.5169 189.184 52.0633 189.176C52.0256 189.173 51.9864 189.224 51.9479 189.248C51.7428 189.378 51.5484 189.339 51.3372 189.303C51.1677 189.276 50.9726 189.265 50.8171 189.345C50.5061 189.505 50.2162 189.5 49.9251 189.309C49.7538 189.193 49.5941 189.196 49.4072 189.269C48.9974 189.429 48.5627 189.266 48.1507 189.507C48.0738 189.556 47.9556 189.496 47.864 189.465C47.5933 189.376 47.3243 189.376 47.0387 189.449C46.8061 189.507 46.5474 189.437 46.3025 189.404C46.1266 189.381 45.9223 189.242 45.7796 189.314C45.4261 189.492 45.1247 189.37 44.8001 189.253C44.6836 189.21 44.5582 189.182 44.4443 189.2C44.1048 189.244 43.7806 189.27 43.4598 189.088C43.377 189.042 43.2638 189.033 43.1868 189.082C42.8406 189.3 42.5186 189.244 42.1809 189.064C42.0732 189.006 41.9374 188.976 41.8251 189.011C41.4859 189.127 41.1647 189.115 40.8361 188.991C40.73 188.951 40.612 188.963 40.5109 188.973C40.1802 189.003 39.8522 189.094 39.5321 188.884C39.4887 188.858 39.4172 188.859 39.3723 188.887C38.9421 189.185 38.5355 189.066 38.1263 188.815C37.9735 188.715 37.8362 188.739 37.7018 188.895C37.5113 189.104 37.3107 189.142 37.072 189.033C36.773 188.9 36.4605 188.802 36.115 188.68C35.8873 189.101 35.5533 189.097 35.1941 188.939C35.0237 188.868 34.8517 188.78 34.6741 188.74C34.5802 188.719 34.4244 188.728 34.3781 188.811C34.088 189.288 33.7379 189.259 33.3435 189.159C33.1475 189.104 32.9089 189.067 32.7301 189.153C32.387 189.334 32.0745 189.236 31.7532 189.153C31.6487 189.129 31.5258 189.09 31.432 189.141C31.0929 189.328 30.778 189.24 30.4589 189.075C30.3407 189.016 30.1874 189.014 30.0703 189.07C29.7761 189.229 29.4872 189.268 29.1866 189.118C29.0226 189.043 28.8105 188.962 28.6614 189.038C28.1756 189.291 27.733 189.186 27.2788 188.963C27.196 188.917 27.0667 188.882 27.0106 188.936C26.6109 189.268 26.2355 189.085 25.8394 188.968C25.604 188.893 25.3278 188.853 25.1025 188.95C24.7857 189.088 24.5023 189.079 24.2074 188.952C23.9518 188.845 23.6997 188.843 23.4277 188.881C23.1155 188.926 22.7887 188.891 22.4754 188.82C22.2875 188.778 22.151 188.774 21.9715 188.888C21.6381 189.098 21.282 189.215 20.8905 189.006C20.7434 188.929 20.577 188.865 20.414 188.833L18.1392 188.338C15.3881 187.741 13.6516 185.03 14.2566 182.28C14.4097 181.585 14.7106 180.94 15.1033 180.397C15.2057 180.261 15.2791 180.108 15.3293 179.96C15.4232 179.668 15.5743 179.439 15.8211 179.248C15.926 179.173 16.0108 179.066 16.0475 178.953C16.1614 178.622 16.3766 178.352 16.6271 178.096C16.7328 177.994 16.7629 177.814 16.7585 177.665C16.7487 177.323 16.9439 177.092 17.1416 176.852C17.3 176.662 17.4568 176.456 17.5365 176.227C17.6368 175.932 17.7637 175.664 18.0748 175.504C18.2752 175.395 18.3695 175.246 18.3086 175.008C18.2104 174.596 18.395 174.292 18.6319 174C18.7535 173.852 18.8573 173.661 18.8496 173.478C18.8387 173.021 19.0908 172.71 19.399 172.417C19.5952 172.231 19.8628 172.044 19.7472 171.733C19.5702 171.282 19.8231 171.015 20.1204 170.818C20.4153 170.633 20.434 170.406 20.3665 170.1C20.3332 169.934 20.3447 169.739 20.4278 169.615C20.5702 169.4 20.8097 169.24 20.9625 169.028C21.0801 168.873 21.1293 168.681 21.2075 168.507C21.2746 168.357 21.2982 168.182 21.4086 168.058C21.664 167.781 21.9627 167.53 22.2558 167.256C22.221 167.144 22.1162 166.978 22.1568 166.872C22.2724 166.558 22.4418 166.272 22.8138 166.109C23.0392 166.012 23.2113 165.858 23.4229 165.725C23.3382 165.591 23.2673 165.493 23.2237 165.395C23.1801 165.297 23.1227 165.164 23.1683 165.108C23.4147 164.774 23.6143 164.38 23.9734 164.154C24.2555 163.976 24.3071 163.774 24.3184 163.507C24.3206 163.426 24.3188 163.337 24.3233 163.245C24.5168 163.239 24.7062 163.227 24.9165 163.22C24.9097 163.081 24.8813 162.965 24.9051 162.86C24.9582 162.604 24.7445 162.265 25.0603 162.084C25.3761 161.902 25.3649 161.615 25.2035 161.287C25.1696 161.219 25.1485 161.143 25.1307 161.101C25.3469 160.875 25.5703 160.69 25.711 160.458C25.8165 160.284 25.856 160.063 25.8322 159.855C25.8076 159.674 25.8507 159.557 25.9507 159.431C26.1635 159.172 26.4366 158.937 26.434 158.564C26.4229 158.035 26.6546 157.621 26.9988 157.243C27.1613 157.06 27.3437 156.838 27.3374 156.6C27.3369 156.386 27.4603 156.326 27.5708 156.203C27.8477 155.903 28.2042 155.616 28.3003 155.243C28.4107 154.807 28.6072 154.45 28.9371 154.135C29.1117 153.971 29.3014 153.789 29.1979 153.497C29.0766 153.163 29.2011 152.905 29.4431 152.735C29.8349 152.461 29.8981 152.064 29.8784 151.621C30.2455 151.407 30.5193 151.145 30.5728 150.718C30.5947 150.526 30.7652 150.356 30.9262 150.227C31.1537 150.048 31.2825 149.869 31.085 149.555C31.0406 149.485 31.0364 149.407 31.0073 149.318C31.5327 149.157 31.7098 148.741 31.8444 148.344C32.0156 147.834 32.3524 147.416 32.6354 146.969C32.7449 146.802 32.8497 146.656 32.7824 146.421C32.7597 146.328 32.8227 146.172 32.9157 146.149C33.2182 146.075 33.2955 145.856 33.4226 145.66C33.7775 145.115 33.9453 144.499 34.1362 143.879C34.2261 143.581 34.4245 143.313 34.5562 143.024C34.6966 142.721 34.8267 142.416 34.9358 142.106C34.9972 141.933 34.9918 141.74 35.2983 141.672C35.3678 142.137 35.3754 142.561 35.297 142.977C35.2534 143.192 35.1892 143.474 35.3189 143.651C35.4752 143.856 35.4089 143.979 35.4109 144.138L35.1694 144.764L35.2755 144.804L35.4174 144.134C35.7413 144.278 35.9369 144.191 36.0415 143.973C36.1037 143.844 36.1451 143.711 36.205 143.593C36.3288 143.363 36.4631 143.135 36.8654 143.176C37.064 143.605 37.3894 144.007 37.2237 144.469C37.5413 144.376 37.5528 144.181 37.5869 144.008C37.6295 143.749 37.9419 143.775 38.1318 143.664C38.341 143.541 38.4885 143.761 38.5657 143.784C38.7974 143.682 38.9824 143.521 39.1134 143.573C39.5232 143.725 39.5972 143.473 39.8225 143.376C40.1817 143.22 40.3231 142.962 40.4612 142.669C40.4835 142.619 40.5726 142.59 40.6239 142.558L40.6922 142.595C40.6508 142.728 40.6135 142.868 40.5681 142.995C41.0179 143.381 41.1375 143.386 41.2135 142.981C41.2751 142.638 41.3586 142.344 41.6896 142.145C41.773 142.092 41.7783 141.973 41.8351 141.892C41.8966 141.791 41.9726 141.698 42.071 141.556C42.3304 141.91 42.5576 142.214 42.8251 142.581C42.8204 142.602 42.7869 142.677 42.7847 142.759C42.7888 143.078 42.5527 143.343 42.7342 143.702L42.7262 143.689C42.6782 143.755 42.6093 143.816 42.5862 143.893C42.494 144.202 42.3703 144.503 42.3576 144.824C42.3525 145.015 42.6573 145.242 42.5214 145.453C42.7578 145.572 42.9111 145.574 42.995 145.422C43.0525 145.315 43.1124 145.197 43.145 145.078C43.2125 144.83 43.2872 144.55 43.3572 144.292C44.059 144.367 44.0714 143.904 44.3267 143.627C44.1174 144.304 43.9122 144.987 43.6974 145.712C43.8595 145.699 43.9478 145.697 44.0361 145.695L44.0804 145.765C43.8976 145.845 43.7084 145.929 43.4895 146.022C43.4008 145.881 43.3444 145.792 43.2678 145.67C43.0868 145.838 42.921 145.987 42.7272 146.163C42.4777 145.909 42.2708 145.709 42.0559 145.496C41.8856 145.738 41.7089 145.983 41.5257 146.233C41.844 146.666 41.8321 146.719 41.3265 147.082C41.1993 146.966 41.0722 146.849 40.9265 146.718C40.5327 146.832 40.39 147.217 39.9108 147.224C39.8562 147.223 39.8364 147.334 39.8053 147.398C39.7741 147.462 39.7776 147.567 39.7247 147.583C39.3854 147.699 39.5923 147.899 39.7244 148.066C39.609 148.138 39.5017 148.224 39.4159 148.287C39.5865 148.43 39.7096 148.539 39.8328 148.649C39.5019 148.921 39.2022 148.502 38.9278 148.55C38.8101 148.392 38.7127 148.266 38.6031 148.12C38.3979 148.25 38.5234 148.349 38.6377 148.474C38.7666 148.607 38.9314 148.726 38.899 148.917C38.8469 149.218 38.8365 149.528 38.8092 149.84C39.0606 149.869 39.3015 149.896 39.3512 150.159C39.2229 150.24 38.9234 149.893 38.913 150.203C38.9974 150.266 39.0674 150.32 39.2034 150.422C39.0268 150.426 38.9297 150.443 38.8269 150.436C38.7241 150.43 38.6069 150.414 38.5024 150.391C38.2373 150.326 37.7168 149.912 37.7952 149.809C38.0288 149.483 37.6184 149.429 37.4526 149.266C37.2987 149.363 37.193 149.465 37.0487 149.521C36.8811 149.582 36.6924 149.567 36.5161 149.401C36.3994 149.287 36.3259 149.127 36.48 149.102C36.8033 149.032 36.7817 148.742 36.9932 148.608C37.0253 148.588 36.9961 148.499 36.9936 148.438C36.8445 148.515 36.791 148.629 36.7005 148.713C36.61 148.796 36.5027 148.882 36.2969 148.797C35.9144 148.645 35.7382 148.792 35.6248 149.025C35.5778 149.135 35.5347 149.251 35.4829 149.382C35.0009 149.257 34.5378 148.977 34.0701 149.103C34.0236 149.114 33.9142 149.04 33.8354 149C33.7673 149.347 33.8349 149.412 34.226 149.478C34.3096 149.497 34.4382 149.558 34.4745 149.616C34.5859 149.849 34.7447 149.803 34.881 149.735C34.9916 149.683 35.0636 149.584 35.1926 149.476C35.4304 149.853 35.7887 149.967 36.2031 150.027C36.096 150.184 36 150.316 35.9169 150.44C36.245 150.662 36.3617 150.463 36.5044 150.391C36.728 150.277 36.9066 150.119 37.0885 149.996C37.3128 150.096 37.4767 150.171 37.7195 150.286C37.6473 150.626 37.9126 151.075 37.5892 151.387C37.2524 151.25 36.9615 151.13 36.6329 151.007C36.5323 150.918 36.7629 150.701 36.3428 150.618C36.387 150.93 36.4295 151.224 36.49 151.633C36.2018 151.332 35.9893 151.109 35.7341 150.832C35.6218 150.867 35.4324 150.879 35.386 150.962C35.2565 151.169 35.0783 151.156 34.8251 151.039C34.804 150.963 34.7829 150.887 34.7367 150.728C34.5026 150.84 34.3198 150.92 34.166 151.017C34.1083 151.053 34.0797 151.178 34.12 151.242C34.3731 151.601 34.1441 151.835 34.0108 152.106C34.4753 152.019 34.9166 151.937 35.3916 151.852C35.4074 152.048 35.4206 152.182 35.4324 152.371C35.5692 152.205 35.682 152.071 35.7949 151.937C36.302 152.145 36.5607 152.527 36.8002 152.921C36.7361 152.961 36.672 153.001 36.5502 153.078C36.8024 153.151 36.9735 153.195 37.1173 153.239C37.2744 153.417 37.3753 153.648 37.5682 153.741C37.9413 153.934 37.9677 154.204 38.1837 154.532C37.8743 154.396 37.6814 154.304 37.482 154.215C37.4043 153.978 37.2817 153.769 37.1102 153.583C37.0144 153.473 36.7305 153.563 36.786 153.609C37.0209 153.782 36.7589 153.992 37.0171 154.16C37.0894 154.203 37.101 154.321 37.1785 154.487C36.7727 154.341 36.8618 154.624 36.7354 154.793C36.5952 154.613 36.4873 154.485 36.3391 154.292C36.2889 154.44 36.2571 154.532 36.2204 154.644C36.0797 154.563 35.9929 154.511 35.8956 154.456L35.8524 154.501C36.0191 154.709 36.1899 154.923 36.3462 155.128C35.9745 155.121 35.94 155.152 36.1157 155.416C36.1964 155.544 36.3026 155.656 36.4065 155.778C36.4186 155.797 36.4692 155.792 36.5005 155.799C36.5533 155.712 36.606 155.625 36.6611 155.528C37.1269 155.868 37.151 155.907 37.0934 156.256C36.7944 156.123 36.5018 155.986 36.1924 155.85C35.9552 156 36.3703 156.346 36.0303 156.488C35.874 156.283 35.6553 156.135 35.3113 156.272C35.5269 156.457 35.7079 156.602 35.9276 156.794C35.7429 156.786 35.6233 156.781 35.5856 156.778C35.4651 157.041 35.3669 157.255 35.244 157.529C35.4882 157.59 35.718 157.641 35.9935 157.709C35.9683 157.868 36.1599 158.086 36.0126 158.251C35.8186 158.043 35.6447 157.866 35.4467 157.652C35.3554 157.763 35.3236 157.854 35.245 157.886C35.0726 157.968 35.2374 158.329 34.8308 158.21C34.8505 158.34 34.8243 158.455 34.6984 158.526C34.7812 158.572 34.8778 158.654 34.9492 158.653C35.1026 158.655 35.2381 158.614 35.466 158.578C35.2638 158.911 35.2036 159.199 35.5072 159.552C34.9962 159.41 34.9357 159.001 34.5497 158.744C34.5215 159.012 34.4965 159.243 34.4707 159.5C34.4538 159.502 34.3695 159.51 34.3021 159.517C34.2824 159.628 34.269 159.734 34.2556 159.841C34.2406 159.931 34.1831 160.039 34.2339 160.105C34.3193 160.212 34.4735 160.258 34.6179 160.202C34.6708 160.187 34.7463 160.193 34.8346 160.191C34.8036 160.327 34.7799 160.431 34.752 160.529C35.2802 160.812 35.0355 161.163 35.2477 161.557C34.8521 161.341 34.5643 161.183 34.2725 161.019C34.1992 160.931 34.2646 160.765 33.9322 160.778C34.0891 160.884 34.1904 160.946 34.2893 161.017C34.1547 161.102 34.0362 161.213 33.8831 161.282C33.6554 161.39 33.7039 161.538 33.8545 161.72C33.9157 161.789 34.0026 161.841 34.0661 161.9C33.9848 162.112 33.6992 162.185 33.7482 162.475C33.9625 162.474 34.1536 162.479 34.372 162.484C34.3947 162.577 34.4222 162.649 34.4224 162.72C34.4185 162.785 34.3874 162.85 34.3667 162.916L34.3795 162.908C33.9182 162.717 33.4613 162.674 32.9911 162.738C33.0219 162.844 33.0631 162.952 33.0882 163.034C32.5976 162.995 32.4307 162.716 32.3808 162.382C32.1494 162.313 31.9598 162.254 31.7075 162.181C31.8244 162.053 31.9068 161.957 31.9893 161.86C31.8035 161.736 31.6146 161.65 31.4334 161.746C31.116 161.91 30.812 161.727 30.501 161.574C30.1296 161.398 30.1096 161.124 30.0943 160.83C29.9595 160.844 29.8648 160.85 29.7532 160.858C29.7576 161.007 29.7645 161.145 29.7665 161.305C29.3856 161.17 29.0256 161.04 28.6696 160.916C28.4594 161.236 28.2579 161.541 28.0629 161.843C28.3481 161.94 28.598 162.024 28.8792 162.115C28.8986 162.174 28.9294 162.28 28.9562 162.379L29.1024 162.412C29.2216 162.274 29.3409 162.136 29.4449 162.017C29.3016 161.875 29.2155 161.795 29.1213 161.703C29.2439 161.599 29.3472 161.507 29.4849 161.384C29.5983 161.465 29.7896 161.541 29.8067 161.61C29.8637 161.914 30.2876 162.245 29.9625 162.539C30.3521 162.347 30.4568 162.755 30.6962 162.836C30.8886 162.715 31.0809 162.594 31.2476 162.489C31.5147 162.713 31.7287 162.882 31.9588 163.076C31.8975 163.249 31.9514 163.59 32.174 163.673C32.4753 163.796 32.4292 163.95 32.5283 164.093C32.6822 164.309 32.8338 164.535 33.011 164.745C33.1269 164.886 33.2581 165.009 33.0755 165.16C32.7981 165.004 32.5143 164.853 32.2306 164.701C32.1313 164.799 32.0448 164.89 31.9327 164.996C31.6845 164.929 31.4426 164.858 31.2402 164.807C31.0246 164.934 30.8347 165.045 30.6319 165.164C30.9671 165.355 31.2326 165.563 31.1757 165.884C31.3074 165.909 31.488 165.911 31.5018 165.947C31.6559 166.234 32.0524 166.493 31.8895 166.846C31.7294 166.706 31.5933 166.532 31.4189 166.455C31.1488 166.339 30.9411 166.408 30.8847 166.631C30.367 166.662 30.0987 166.322 29.8234 166.013C29.5178 166.126 29.4709 166.307 29.7089 166.443C30.0587 166.642 30.3951 166.948 30.8867 166.79C30.754 166.963 30.6755 167.066 30.5884 167.184C30.4108 167.144 30.2542 167.109 30.0767 167.069C30.0714 167.188 30.0621 167.301 30.0551 167.404C29.8811 167.469 29.5487 167.169 29.5006 167.477C29.6886 167.519 29.8556 167.557 30.0958 167.611C29.9687 167.807 29.872 167.966 29.7801 168.105C29.8761 168.285 29.9745 168.456 30.1044 168.704C29.8191 168.607 29.6423 168.54 29.3675 168.445C29.4823 168.712 29.5655 168.901 29.66 169.136C29.4512 169.089 29.2801 169.045 29.1025 169.005C28.6916 169.05 28.9641 169.468 28.6707 169.599C28.8621 169.747 29.0125 169.857 29.1959 169.992C28.8861 170.026 28.6286 170.073 28.3637 170.079C28.0948 170.079 27.8692 170.105 27.6681 170.241C27.3668 170.431 27.3677 170.475 27.7929 170.68C27.8323 170.7 27.8741 170.709 27.9344 170.734C27.8173 170.79 27.7363 170.832 27.5832 170.902C27.8129 170.953 27.9527 170.99 28.1094 171.026C28.059 171.102 28.015 171.174 27.9559 171.265C28.2058 171.349 28.5108 171.335 28.5846 171.637C28.1814 171.552 28.0626 171.832 27.8076 171.94C27.4804 172.074 27.6878 172.489 27.3011 172.572C27.4059 172.738 27.482 172.958 27.5864 172.981C27.772 173.034 27.9733 172.97 28.1691 172.953C28.5065 173.304 28.5202 173.34 28.4062 173.912C28.126 173.624 27.9211 173.271 27.4144 173.206C27.4357 173.353 27.4593 173.49 27.4815 173.682C27.2908 173.507 27.1532 173.389 26.9971 173.255C26.7091 173.338 26.4404 173.409 26.1396 173.501C26.3655 173.617 26.5769 173.725 26.7843 173.827C26.5282 173.818 26.2582 173.703 26.0889 173.747C25.9028 173.793 25.803 173.99 25.6652 174.112C25.5005 174.064 25.5223 173.801 25.2865 173.896C25.4407 174.183 25.5385 174.451 25.2991 174.683L25.871 174.51C26.0323 174.766 26.2506 174.458 26.4182 174.71C26.5052 174.521 26.5659 174.375 26.6433 174.228C26.7639 174.277 26.8908 174.322 27.0636 174.383C26.9612 174.519 26.8804 174.633 26.8108 174.721C26.8499 174.911 27.2273 174.941 27.1099 175.167C26.8136 175.166 26.421 174.842 26.1715 175.214C26.223 175.253 26.3156 175.328 26.433 175.415C26.0034 175.373 25.7143 175.341 25.4293 175.316C25.4564 175.245 25.4899 175.17 25.5217 175.079C25.4014 175.125 25.3762 175.203 25.4461 175.314C25.53 175.475 25.614 175.637 25.7318 175.866C25.4931 175.758 25.346 175.681 25.1941 175.625C25.0422 175.569 24.8856 175.533 24.7394 175.5C24.5086 175.959 24.985 176.373 25.051 176.733C25.5135 176.799 25.9005 176.787 26.3522 177.021C25.9457 177.087 25.6917 177.181 25.5904 177.305C25.678 177.33 25.7615 177.349 25.9181 177.384C25.7113 177.496 25.8213 177.784 25.4978 177.783C25.4978 177.783 25.528 177.987 25.5489 177.992C25.8204 178.053 26.0902 178.097 26.3079 178.13C26.7884 178.622 26.8572 179.115 26.8714 179.606C26.6329 179.569 26.3944 179.532 26.1558 179.494L26.1679 179.514C25.8544 179.059 26.2261 178.753 26.2667 178.335C26.0016 178.269 25.7574 178.209 25.5132 178.149C25.454 178.239 25.4286 178.327 25.3661 178.384C24.9728 178.713 24.6977 179.101 24.5882 179.581C24.574 179.643 24.5148 179.734 24.4626 179.722C24.127 179.702 24.1396 179.935 24.0325 180.092C23.953 180.079 23.8694 180.061 23.8277 180.051C23.7801 180.26 23.7372 180.448 23.6904 180.629C23.5273 180.598 23.4269 180.581 23.3265 180.564C23.3504 180.772 23.3726 180.964 23.4012 181.151L23.2792 181.157C23.1253 180.941 22.9754 180.732 22.7909 180.482C22.652 180.489 22.4963 180.498 22.2964 180.508C22.4302 180.691 22.5172 180.815 22.6389 180.98C22.4343 181.01 22.2505 181.046 22.0459 181.077C22.0477 181.165 22.0432 181.257 22.0424 181.284C22.4213 181.572 22.7383 181.819 23.1252 182.12C22.8563 182.12 22.6629 182.126 22.4654 182.125C22.6101 182.213 22.6103 182.284 22.5447 182.379C22.5359 182.394 22.6904 182.511 22.7869 182.593C22.5816 182.651 22.4171 182.674 22.2768 182.736C22.2174 182.755 22.1575 182.873 22.18 182.895C22.4071 183.127 22.035 183.29 22.262 183.522C22.2661 183.529 22.2549 183.554 22.2245 183.591L20.5516 180.938C20.6142 180.952 20.693 180.991 20.7108 181.034C20.7989 181.273 20.8975 181.202 21.0136 181.102C21.0825 181.041 21.1634 180.999 21.2171 180.956C21.6046 181.471 21.9132 181.008 22.2409 180.775C22.2961 180.99 22.3399 181.159 22.3683 181.275C22.8439 181.404 23.2778 181.524 23.7365 181.654C23.7546 181.527 23.7775 181.378 23.7837 181.303C24.0574 181.282 24.2974 181.265 24.5414 181.254C24.5632 181.303 24.5907 181.375 24.6222 181.453C24.7861 181.216 24.9957 181.548 25.1703 181.385C25.1668 180.887 25.1929 180.62 25.2484 180.585C25.2834 180.768 25.2928 180.968 25.3535 181.135C25.4198 181.326 25.6037 181.362 25.6964 181.196C25.9169 180.807 26.1985 180.727 26.5279 180.823C26.4776 180.346 26.6868 180.223 27.0175 180.193C26.6256 179.842 26.3013 179.555 25.9665 179.265L25.9896 179.188C26.1783 179.203 26.3606 179.222 26.5284 179.233C26.674 179.052 26.8108 178.885 26.9541 178.714C27.0494 178.922 27.1245 179.098 27.1996 179.274C27.1483 179.306 27.0859 179.364 26.9273 179.482C27.1793 179.483 27.3367 179.491 27.5446 179.494C27.4577 179.996 27.3755 180.477 27.2964 180.92C27.4186 180.985 27.5239 181.053 27.6421 181.113C27.7852 181.183 28.2572 180.894 28.2303 180.724C28.1584 180.269 28.3643 180.425 28.5177 180.426L28.5056 180.407C28.5133 180.59 28.5146 180.777 28.5207 180.943C28.7962 181.01 29.0468 181.067 29.3224 181.134C29.3685 180.98 29.4018 180.834 29.4553 180.72C29.4864 180.655 29.5874 180.574 29.6204 180.598C29.6759 180.643 29.7396 180.773 29.7253 180.835C29.6461 181.207 29.8342 181.008 29.9626 180.998C29.8778 180.793 29.8034 180.59 29.7225 180.39C30.0115 179.797 30.396 179.483 30.874 179.602C31.0011 179.405 31.0995 179.263 31.2066 179.106C31.2717 179.422 31.2662 179.783 31.3886 179.921C31.5642 180.114 31.7164 180.312 31.8017 180.661C31.8494 180.523 31.8701 180.457 31.8908 180.39C32.0519 180.574 32.1972 180.876 32.4338 180.512L32.4998 180.56ZM28.6916 164.887C28.5377 164.671 28.4181 164.666 28.1818 164.86C28.3467 164.979 28.6702 164.98 28.6613 165.236L28.8941 165.25C29.1735 165.253 29.3158 165.351 29.2065 165.589C29.5749 165.563 29.4796 165.355 29.4012 165.145C29.6139 165.127 29.7888 165.106 29.9846 165.09C29.7164 164.75 29.2579 165.003 29.0338 164.662C28.7795 164.742 28.7647 164.903 28.9393 165.052C29.1365 165.223 28.8498 165.18 28.8917 165.261C28.8215 165.135 28.7706 164.998 28.6876 164.88L28.6916 164.887ZM29.7301 164.473C29.8146 164.536 29.8926 164.603 30.0285 164.705C30.1212 164.539 30.1842 164.383 30.2842 164.258C30.3906 164.128 30.5365 164.018 30.6205 163.938C30.4633 163.689 30.3649 163.519 30.2302 163.291C30.1854 163.319 30.0441 163.337 30.0386 163.385C30.0506 163.645 29.9619 163.817 29.6111 163.815C29.6111 163.815 29.6298 163.902 29.6348 163.952C29.5721 163.938 29.4741 163.911 29.3592 163.885C29.3307 164.01 29.3045 164.125 29.2783 164.24C29.4335 164.329 29.5846 164.413 29.7358 164.496L29.7197 164.471L29.7301 164.473ZM33.7995 181.143C34.0297 181.096 34.2367 181.055 34.467 181.008C34.4299 180.665 34.3273 180.417 34.1078 180.297C33.9607 180.22 33.787 180.115 33.6634 180.416C33.7074 180.656 33.749 180.907 33.7954 181.137L33.7995 181.143ZM39.3662 147.711C39.4316 147.544 39.4953 147.361 39.6014 147.089C39.3359 147.194 39.2295 147.323 38.9523 147.239C38.6751 147.155 38.5642 147.377 38.3705 147.624C38.7584 147.656 39.0474 147.688 39.3662 147.711ZM35.7044 150.529C35.5512 150.286 35.402 150.05 35.2633 149.815C34.992 149.826 35.112 149.973 35.0906 150.067C35.0692 150.161 34.9353 150.219 34.8039 150.337C35.0339 150.46 35.2389 150.572 35.4543 150.687C35.5569 150.622 35.6274 150.578 35.7044 150.529ZM29.0351 163.669C29.0572 163.235 29.0162 163.199 28.2193 162.986C28.3135 163.079 28.369 163.124 28.4181 163.174C28.4672 163.223 28.5187 163.262 28.5903 163.333C28.4901 163.387 28.4091 163.43 28.2215 163.53C28.5749 163.593 28.803 163.628 29.0351 163.669ZM25.8131 164.656C25.9474 164.741 26.0881 164.822 26.2867 164.938C26.2425 164.626 26.2096 164.361 26.1735 164.062C25.6776 164.142 25.9772 164.49 25.8154 164.645L25.8131 164.656ZM32.5753 160.374C32.4477 160.115 32.338 159.898 32.2346 159.677L32.1383 159.666C32.0802 159.873 32.0262 160.086 31.9475 160.359C32.145 160.359 32.3296 160.368 32.5753 160.374ZM31.3466 160.514C31.042 160.67 30.8344 160.81 31.0794 161.156C31.2993 161.107 31.2741 160.712 31.7066 160.957L31.7321 160.87C31.6009 160.747 31.4738 160.63 31.3466 160.514ZM32.2276 151.14C32.2679 151.204 32.3782 151.322 32.3846 151.318C32.5394 151.265 32.707 151.204 32.8312 151.117C32.8761 151.088 32.846 150.956 32.7953 150.889C32.7711 150.851 32.6033 150.841 32.5375 150.864C32.4229 150.91 32.3388 150.989 32.2554 151.042C32.2435 151.094 32.2195 151.127 32.2316 151.146L32.2276 151.14ZM27.7497 163.89C28.0651 163.879 28.3458 164.068 28.6457 163.933C28.4077 163.797 28.1738 163.667 27.9173 163.516C27.8526 163.655 27.8143 163.751 27.7497 163.89ZM43.7055 144.546C43.3953 144.75 43.3987 145.096 43.3627 145.423C43.7395 145.239 43.6549 144.863 43.7055 144.546ZM35.2882 153.677C35.5613 153.732 35.7144 153.662 35.7476 153.468C35.6009 153.534 35.4646 153.602 35.2882 153.677ZM59.3419 180.199C59.5482 180.185 59.6975 180.18 59.8427 180.169L59.8424 180.026C59.6789 179.852 59.528 179.84 59.3419 180.199ZM30.6556 180.776C30.7008 180.578 30.7318 180.442 30.796 180.16C30.6061 180.271 30.5059 180.325 30.3736 180.4C30.4832 180.545 30.546 180.631 30.662 180.772L30.6556 180.776ZM36.1662 153.293C36.2208 153.295 36.2666 153.311 36.2754 153.296C36.3906 153.152 36.4657 153.015 36.0447 152.888C36.0966 153.069 36.1314 153.181 36.1622 153.287L36.1662 153.293ZM33.5331 162.504C33.4717 162.364 33.4353 162.235 33.2096 162.19C33.2028 162.364 33.2224 162.494 33.5331 162.504ZM27.7668 163.406C27.7668 163.406 27.6936 163.318 27.6622 163.311C27.4678 163.273 27.4151 163.36 27.5393 163.585C27.6187 163.526 27.698 163.467 27.7668 163.406ZM38.3171 144.2L38.4305 144.28L38.6923 143.999L38.5684 143.916L38.3171 144.2ZM30.0929 181.077C30.1645 181.148 30.1944 181.21 30.2402 181.225C30.2964 181.244 30.3638 181.237 30.4899 181.238C30.3662 180.914 30.2627 180.934 30.0929 181.077ZM28.1416 165.421C28.1416 165.421 28.2233 165.352 28.2192 165.345C28.1452 165.285 28.0688 165.235 27.9948 165.174L27.8915 165.266C27.9719 165.322 28.0588 165.375 28.1416 165.421ZM29.6847 160.749C29.6239 160.615 29.495 160.562 29.2982 160.591C29.4541 160.653 29.5537 160.698 29.6847 160.749ZM31.7859 164.436C31.7859 164.436 31.8094 164.502 31.8198 164.504C31.872 164.516 31.9162 164.515 31.9708 164.516C31.9546 164.491 31.9425 164.472 31.9312 164.425L31.7883 164.426L31.7859 164.436ZM32.81 161.968L32.8213 162.014L33.0357 162.013L33.0163 161.954L32.8059 161.962L32.81 161.968ZM30.712 165.703C30.712 165.703 30.7234 165.75 30.7331 165.779L30.9851 165.781L30.9536 165.703C30.8718 165.701 30.7835 165.703 30.7056 165.707L30.712 165.703ZM35.8959 154.286C35.8959 154.286 36.0163 154.264 36.0147 154.247C35.9928 154.198 35.9501 154.145 35.9179 154.093C35.9098 154.081 35.8417 154.115 35.7679 154.125C35.8186 154.192 35.8445 154.247 35.9024 154.282L35.8959 154.286ZM38.0384 146.529L38.1027 146.56L38.232 146.282L38.1613 146.255L38.032 146.533L38.0384 146.529Z" fill="black"/>
<path d="M115.015 151.057C115.054 151.175 115.089 151.529 115.126 151.773C115.673 154.913 115.687 154.922 116.302 155.329C115.98 154.121 115.749 152.944 115.476 151.758C115.376 151.16 115.283 150.558 115.195 149.934C115.15 149.623 115.117 149.313 115.075 148.991C115.054 148.674 115.039 148.353 115.021 148.025C115.002 147.554 114.782 146.835 114.649 146.213C114.82 145.73 114.978 145.782 115.139 146.109C115.314 146.428 115.512 147.027 115.716 147.622C115.777 151.184 116.589 152.004 117.235 154.464C116.982 154.731 116.762 154.977 116.515 155.24C116.618 155.872 116.72 156.531 116.83 157.203C116.938 157.886 117.108 158.583 117.253 159.323C117.403 159.603 117.568 160.008 117.733 160.44C117.915 160.87 118.105 161.314 118.275 161.725C118.615 162.52 118.907 163.068 119 162.661C119.528 164.026 120.006 165.11 120.455 166.149C120.929 167.128 121.378 168.068 121.875 169.041C121.772 169.786 121.794 170.29 121.529 170.055C121.402 169.938 121.196 169.64 120.887 169.093C120.591 168.511 120.19 167.718 119.625 166.609C119.58 166.879 119.45 166.943 120.034 168.353C120.98 170.633 122.039 172.995 123.053 174.106C123.253 174.337 123.715 175.226 124.051 175.675C124.664 176.504 125.187 177.263 126.05 178.319C126.148 178.489 126.566 179.236 126.983 179.982L126.515 178.758C127.493 180.223 128.556 181.625 129.544 182.95C129.745 183.396 129.983 183.916 130.211 184.406C129.968 184.247 129.657 183.996 129.467 183.937C128.982 183.778 128.362 183.249 127.635 182.296C127.272 181.819 126.858 181.249 126.427 180.565C126.009 179.873 125.555 179.068 125.065 178.163C124.641 177.349 124.247 176.525 123.713 175.45C123.634 175.795 123.575 176.028 123.518 176.279C126.288 181.609 129.185 185.152 132.329 188.717C132.644 188.876 132.97 189.037 133.202 189.149C133.657 189.729 134.078 190.268 134.464 190.766C134.869 191.252 135.248 191.683 135.598 192.053C136.382 192.899 137.108 193.495 137.892 194.171C138.196 195.918 140.88 198.255 143.707 200.565C143.465 200.565 143.322 200.566 143.159 200.562C143.712 201.071 144.151 201.482 144.311 201.622C145.053 202.003 145.684 202.293 146.387 202.627C147.187 203.696 147.599 204.222 148.192 204.75C148.779 205.283 149.537 205.832 151.089 206.872C151.455 207.125 151.907 207.429 152.252 207.694C153.754 208.909 154.762 209.372 155.873 209.967C156.1 210.101 156.394 210.282 157.045 210.676C156.593 210.514 156.323 210.398 156.156 210.36C155.937 210.311 155.79 210.305 155.631 210.281C157.234 211.557 158.061 212.188 158.882 212.707C159.693 213.241 160.524 213.664 162.152 214.469C163.868 215.272 165.505 215.964 167.216 216.574C167.333 216.617 167.554 216.754 167.701 216.831C167.352 216.819 167.01 216.802 166.593 216.779C167.512 217.2 168.545 217.559 168.72 217.68C170.519 218.914 173.658 219.785 176.167 220.552C176.377 220.402 176.475 220.287 176.643 220.199C176.795 220.112 177.32 220.12 177.867 220.178C178.418 220.214 178.994 220.289 179.274 220.407C178.734 220.417 178.172 220.477 177.544 220.462C178.973 220.981 180.528 221.073 181.786 220.994C183.64 220.906 185.119 220.751 186.547 220.771C186.799 220.388 187.019 220.169 188.466 219.623C189.144 219.589 189.807 219.474 190.562 219.293C191.198 218.839 192.014 218.029 192.311 217.734C192.977 217.198 193.434 216.544 193.69 215.828C193.851 215.486 193.901 215.097 194.005 214.736C194.039 214.349 194.122 213.984 194.112 213.57C194.153 213.124 194.108 212.625 194.091 212.145C194.016 211.656 193.976 211.181 193.835 210.743C193.63 209.907 193.626 208.792 193.082 208.072C193.059 208.006 192.491 206.238 192.042 205.243C191.901 204.948 191.723 204.623 191.573 204.342C191.12 203.922 190.62 203.442 190.22 202.935C189.79 202.438 189.416 201.932 189.169 201.453C189.265 201.393 189.367 201.328 189.466 201.257C189.175 200.824 188.979 200.528 188.777 200.235C186.91 197.588 184.344 195.123 182.801 192.719C182.736 192.617 182.489 192.353 182.319 192.183C181.46 191.304 180.733 190.378 179.582 189.576C178.959 189.128 177.356 187.495 176.219 186.487C175.613 186.28 175.71 186.746 174.041 185.279C174.097 185.154 174.153 185.029 174.238 184.824C171.392 182.598 168.679 180.654 165.848 178.723C166.08 178.764 166.298 178.796 166.567 178.841C165.302 177.843 164.04 176.879 162.782 175.921C161.518 175.011 160.29 174.087 158.989 173.273C156.447 171.588 153.478 169.707 151.086 168.884C150.84 168.807 150.1 168.371 149.458 168.035C149.788 168.076 150.012 168.105 150.157 168.121C147.595 166.573 145.027 165.2 142.407 163.859C141.675 163.507 140.479 162.948 140.106 162.853C138.854 162.516 137.485 161.923 136.114 161.367C133.278 160.323 132.548 160.104 129.514 159.471C128.759 159.295 127.926 159.141 126.637 158.873C126.928 158.752 127.086 158.688 127.249 158.621C123.827 157.428 121.062 157.349 117.277 156.207C118.684 156.392 119.706 156.605 120.737 156.777L120.618 156.673C119.48 156.39 118.348 156.086 117.219 155.859C116.089 155.616 114.987 155.346 113.907 155.169C113.442 155.596 110.831 154.937 109.226 154.878C108.493 154.384 108.486 154.316 103.817 153.946C103.862 154.016 103.906 154.086 103.938 154.138C98.5852 153.805 93.3297 153.599 88.0813 154.228C84.908 154.567 81.4855 155.037 78.228 155.697C72.6135 156.896 67.1241 158.678 61.969 161.161C61.2626 161.49 60.5902 161.887 59.904 162.248C59.2299 162.629 58.5276 162.964 57.8793 163.4C56.5522 164.237 55.2811 165.02 53.8924 165.959C55.4243 164.537 51.1405 167.122 52.8561 165.665C48.776 168.175 45.0228 170.479 41.3186 172.762C41.1403 173.142 39.536 174.264 36.5055 176.127C36.2856 176.177 35.7548 176.386 35.8339 176.256C36.3414 175.427 34.2146 176.232 35.5941 174.853C35.7646 174.682 35.4316 174.723 35.0852 174.87C32.5481 175.933 34.0474 174.389 33.6973 174.047C35.39 172.739 34.662 172.778 34.1084 172.894C33.067 173.104 32.7589 172.843 32.3137 172.677C31.8331 172.498 30.5241 172.894 30.2366 172.566C29.9838 172.279 31.3627 170.998 30.0391 171.386C29.9565 171.412 30.0758 171.274 30.1942 171.163C30.9431 170.504 30.7197 170.448 30.5636 170.314C30.459 170.219 30.9585 169.69 31.5537 169.198C34.5702 166.706 38.9515 163.935 42.7877 162.061C44.8954 161.026 45.9026 160.365 47.6801 158.949C48.1912 158.537 48.7471 158.097 49.3496 157.646C49.654 157.418 49.9457 157.199 50.2838 156.967C50.6324 156.739 50.981 156.51 51.3336 156.288C56.1765 153.225 61.4334 150.705 66.8823 148.788C67.4613 148.584 68.0973 148.37 68.7141 148.169C69.3285 147.978 69.9415 147.842 70.455 147.732C74.0066 146.914 77.7649 145.911 81.3953 145.444C81.8504 145.398 82.4842 145.267 82.9407 145.166C83.5706 145.028 84.2124 144.91 84.8415 144.799C85.4763 144.711 86.1103 144.651 86.7484 144.597C88.0205 144.483 89.2911 144.423 90.5467 144.453C91.4121 144.462 92.2044 144.453 93.0183 144.423C93.8275 144.413 94.6647 144.376 95.6166 144.294C96.9271 144.156 99.0718 144.331 100.759 144.42C102.232 144.554 103.563 144.76 105.103 144.745C106.3 144.768 107.487 144.859 108.675 144.995C109.862 145.158 111.034 145.383 112.224 145.607C113.307 145.818 114.615 146.145 115.635 146.27C116.741 146.404 117.76 146.628 118.792 146.844C119.82 147.053 120.841 147.294 121.911 147.584C122.817 147.826 123.808 148.005 124.798 148.212C125.793 148.425 126.821 148.634 127.788 148.846C127.913 148.874 128.057 148.918 128.186 148.952C131.461 150.024 134.665 151.184 137.983 152.21C138.591 152.38 139.677 152.893 140.463 153.273C141.384 153.711 142.299 154.125 143.119 154.573C144.501 155.328 145.799 155.867 147.272 156.413C149.217 157.081 151.232 158.16 153.327 159.278C157.214 161.365 161.06 163.613 164.768 166.082C165.084 166.285 165.421 166.465 165.736 166.651C166.578 167.148 167.403 167.69 168.229 168.26C169.031 168.835 169.821 169.436 170.641 170.053C171.942 171.065 173.448 172.188 174.687 173.06C177.152 174.766 179.366 176.587 181.388 178.599C182.625 179.821 183.771 180.858 185.17 182.067C188.192 184.7 191.155 187.978 193.931 191.016C194.454 191.589 195.166 192.561 195.722 193.372C197.354 195.72 198.901 198.059 200.391 200.819C201.617 203.119 202.679 205.925 203.188 209.035C203.229 209.313 203.274 209.598 203.323 209.888C203.348 210.185 203.372 210.492 203.395 210.799L203.448 211.721C203.442 212.038 203.435 212.355 203.435 212.667C203.438 213.282 203.377 213.91 203.317 214.511C203.276 215.1 203.172 215.675 203.08 216.197C202.682 218.691 201.591 221.068 200.12 222.942C198.648 224.827 196.906 226.229 194.983 227.343C194.3 227.765 193.562 228.087 192.824 228.437C192.084 228.742 191.332 229.056 190.616 229.284C188.584 229.984 186.56 230.34 184.622 230.464C182.683 230.587 180.794 230.518 179.01 230.232C178.113 230.118 176.829 229.9 176.014 229.816C172.32 229.358 168.966 228.274 165.775 226.793C164.754 226.311 163.44 225.719 162.412 225.268C159.264 223.929 156.396 222.307 153.645 220.432C152.768 219.85 151.808 219.223 150.897 218.618C148.162 216.795 145.49 214.888 143.157 212.723C142.842 212.422 142.286 211.968 141.949 211.716C138.544 209.244 135.677 206.432 133.01 203.352C131.964 202.162 131.077 201.211 130.074 200.316C129.371 199.714 128.699 199.003 128.02 198.225C127.675 197.835 127.336 197.423 126.984 196.993C126.644 196.555 126.306 196.089 125.966 195.607C124.193 193.151 122.477 190.543 120.697 187.564C119.165 185.93 117.411 183.078 115.912 179.833C115.523 179.06 115.2 178.263 114.849 177.466C114.499 176.668 114.135 175.879 113.806 175.059C113.439 174.164 112.793 172.785 112.542 172.371C111.026 169.968 109.782 166.616 108.765 162.772C108.518 161.784 108.248 160.703 107.986 159.662C107.75 158.605 107.509 157.569 107.263 156.696C106.418 153.324 106.079 150.072 105.971 146.646C105.977 145.534 105.977 144.212 105.925 143.262C105.795 139.69 106.279 136.293 107.262 132.85C107.451 132.24 107.634 131.507 107.845 130.776C108.087 130.051 108.312 129.329 108.49 128.716C109.482 125.571 110.87 122.614 113.067 119.817C113.644 119.069 114.386 118.271 115.061 117.452C115.759 116.654 116.507 115.95 117.057 115.317C117.5 114.797 118 114.339 118.497 113.891C119.005 113.446 119.506 113.005 119.997 112.561C121.047 111.783 122.121 110.998 123.196 110.33C125.348 109.053 127.563 107.977 129.874 107.137C130.724 106.851 131.973 106.331 132.587 106.096C136.367 104.374 140.368 103.629 144.443 103.186C145.662 103.016 146.97 102.959 148.26 102.816C149.547 102.71 150.813 102.644 151.934 102.518C155.105 102.288 157.989 102.301 160.976 102.633C161.626 102.697 162.265 102.758 162.9 102.814C163.537 102.886 164.174 102.958 164.817 103.026C166.102 103.145 167.4 103.3 168.737 103.458C170.287 103.615 171.841 103.904 173.401 104.162C174.952 104.462 176.498 104.782 177.997 105.141C179.794 105.59 181.081 105.868 182.851 106.217C186.077 106.801 189.428 107.681 193.057 109.101C195.886 110.22 199.038 111.467 201.938 112.614C203.329 113.157 204.615 113.731 205.871 114.288C207.109 114.874 208.302 115.472 209.501 116.109C210.455 116.642 211.589 117.232 212.635 117.725C215.691 119.247 218.516 120.842 221.271 122.625C222.402 123.324 223.843 124.202 225.04 124.85C227.641 126.346 230.026 128.041 232.317 129.84C234.163 131.275 236.069 132.763 237.915 134.199C240.307 136.059 242.513 137.867 244.41 139.851C245.618 141.1 246.893 142.297 248.392 143.523C250.927 145.597 253.37 148.193 255.659 151.083C256.806 152.548 258.132 154.267 259.198 155.686C260.511 157.386 261.647 159.172 262.616 161.107C263.581 163.036 264.39 165.1 264.925 167.398C265.277 168.838 265.473 170.483 265.546 172.162C265.593 173.857 265.428 175.613 265.139 177.243C264.72 179.607 263.506 181.972 261.935 183.73C260.373 185.502 258.545 186.753 256.772 187.621C253.239 189.223 250.763 189.757 247.834 190.228C246.232 190.488 244.16 190.526 242.471 190.349C239.644 190.058 237.099 189.376 234.542 188.603C232.66 188.048 230.749 187.376 228.912 186.667C227.356 186.031 225.724 185.362 224.341 184.618C221.107 182.886 218.144 180.957 215.201 178.82C214.395 178.38 213.432 177.933 212.536 177.293C209.834 175.396 207.272 173.365 205.238 171.262C204.001 169.996 202.516 168.565 201.166 167.12C200.437 166.632 199.955 166.338 199.387 165.892C198.832 165.465 198.08 164.884 197.571 164.375C194.769 161.495 191.923 158.26 189.882 155.365C189.487 154.81 189.117 154.293 188.749 153.81C188.397 153.308 188.048 152.84 187.707 152.385C187.013 151.483 186.335 150.606 185.586 149.631C185.121 149.022 184.634 148.435 184.156 147.763C183.817 146.94 183.499 146.167 183.149 145.298C182.46 144.32 181.893 143.534 181.328 142.666C180.655 141.599 180.002 140.634 179.34 139.613C178.717 138.568 178.076 137.48 177.519 136.142C176.976 134.77 176.366 133.546 175.825 132.377C175.255 131.217 174.681 130.15 174.131 129.121C173.887 128.649 173.627 128.152 173.481 127.878C172.558 125.092 171.846 122.556 171.213 119.918C170.972 118.953 170.697 117.92 170.48 116.895C170.241 115.876 169.99 114.881 169.819 113.97C169.655 113.198 169.512 112.502 169.415 111.795C169.335 111.086 169.275 110.365 169.225 109.547C169.071 106.177 169.268 102.765 169.636 99.2005C170.208 94.1672 171.969 89.045 175.143 84.7291C175.525 84.2115 175.924 83.665 176.334 83.1209C176.78 82.607 177.229 82.0827 177.676 81.5688C177.899 81.3118 178.122 81.0549 178.339 80.802C178.56 80.5554 178.803 80.3305 179.026 80.1008C179.482 79.6438 179.907 79.1965 180.305 78.7759C181.017 78.0145 181.679 77.5435 182.267 77.0561C182.568 76.822 182.859 76.6024 183.16 76.3683C183.472 76.1534 183.797 75.9576 184.146 75.7289C187.598 73.4175 191.636 71.6218 195.34 70.3763C199.705 68.8571 203.783 68.162 208.003 67.8775C209.105 67.8347 210.268 67.7893 211.428 67.7102C212.586 67.6856 213.741 67.6274 214.824 67.4982C217.363 67.2466 220.172 67.3247 222.683 67.6978C224.715 67.9356 226.642 68.2485 228.567 68.446C230.486 68.6747 232.359 68.9318 234.285 69.1292C235.916 69.584 237.56 70.0035 239.285 70.408C240.991 70.8688 242.787 71.273 244.719 71.7078C246.445 72.1292 248.553 72.757 250.236 73.3662C252.574 74.2326 254.59 74.8561 256.511 75.2171C256.933 75.2903 257.578 75.4737 258.264 75.6392C259.869 76.3787 261.655 77.1646 263.525 77.9148C265.403 78.6609 267.322 79.4164 269.191 80.1498C273.984 82.0237 278.426 84.2082 282.907 86.4126C284.609 87.2783 286.074 88.0523 287.731 88.7049C288.403 88.9603 289.839 89.6896 290.276 90.0128C291.795 91.1007 293.761 92.0861 295.692 93.1735C298.332 94.7165 301.018 96.1495 303.627 97.6855L307.575 99.9399C308.876 100.71 310.175 101.49 311.48 102.267C314.053 103.762 316.553 105.51 319.092 107.134C321.731 108.847 324.337 110.635 326.964 112.356C328.358 113.317 329.794 114.216 331.114 115.457C329.504 114.48 327.931 113.506 326.356 112.516C324.76 111.547 323.158 110.556 321.51 109.505C319.819 108.4 317.511 107.014 316.576 106.639C315.478 106.206 314.394 105.495 313.225 104.821L307.785 101.523L307.759 101.638C309.582 102.695 311.402 103.763 313.225 104.821C313.073 105.149 314.227 106.056 316.14 107.298C317.241 108.007 318.346 108.722 319.443 109.424C321.481 110.81 323.486 112.199 324.289 113.202C321.691 111.91 319.642 111.004 315.715 108.557C317.279 109.858 318.789 110.747 320.134 111.614C322.177 112.908 322.835 113.709 324.137 114.737C325.6 115.905 324.373 115.339 324.441 115.475C325.772 116.619 327.456 117.925 327.459 118.101C327.472 118.647 329.466 119.99 330.751 121.118C332.784 122.936 335.032 124.583 337.411 126.38C337.845 126.714 338.233 127.086 338.639 127.447L338.535 127.467C337.475 126.68 336.414 125.893 335.39 125.18C333.797 124.728 334.054 125.022 337.106 127.189C339.643 129.038 342.002 130.705 344.164 132.727C344.703 133.227 345.565 133.855 346.264 134.423C347.119 135.126 347.968 135.833 349.175 136.823C347.349 135.874 345.785 135.056 343.922 134.077C343.797 133.978 343.169 133.48 342.588 133.069C340.375 131.507 337.892 129.517 335.848 128.349L335.949 128.41C335.347 127.923 334.736 127.424 334.125 126.996C331.702 125.299 329.272 123.463 326.889 121.972C325.48 121.073 324.658 120.949 322.807 119.605C322.549 119.75 322.98 120.22 324.283 121.149C325.227 121.823 326.182 122.498 327.127 123.144C329.217 124.569 331.262 126.05 333.242 127.428C334.529 129.171 337.752 131.455 340.345 133.563C335.096 129.672 329.825 125.803 324.038 121.912C324.513 122.425 324.775 122.697 325.034 122.981L324.694 122.838C323.586 121.892 322.49 120.949 321.245 119.884C321.998 120.24 322.509 120.481 323.152 120.791C321.491 119.479 319.947 118.38 318.157 117.034C319.292 117.399 320.234 117.698 321.194 118.013C318.977 116.472 316.782 114.854 314.369 113.257C313.217 112.795 312.542 112.506 311.647 111.954C310.756 111.408 309.644 110.581 307.562 109.142C308.078 109.263 308.598 109.391 309.166 109.525C307.209 107.971 303.979 105.96 302.562 104.665C302.408 104.521 301.522 104.025 300.966 103.697C300.409 103.369 299.638 102.97 299.319 102.734C297.48 101.338 296.57 101.188 295.623 100.865C294.685 100.259 293.766 99.6684 293.051 99.2168C292.426 99.1198 291.965 99.0437 291.499 98.9716C288.44 97.1478 290.768 97.8691 289.571 96.9798C290.419 97.2311 291.117 97.4431 291.899 97.6738C290.3 96.6721 289.87 96.6303 289.285 96.4987C288.638 96.353 288.23 96.36 286.671 95.5921C284.201 94.433 281.762 93.3355 279.188 92.2243C279.733 92.7473 280.237 93.2337 278.353 92.5189C277.27 91.9241 279.116 92.3233 276.633 91.2981C276.398 91.2946 276.177 91.2997 275.799 91.2969C275.2 90.8439 274.798 90.5614 274.522 90.3239C274.243 90.0801 274.005 89.8729 273.871 89.6892C273.539 89.2468 275.181 89.2653 276.274 89.8184C279.554 91.4398 278.731 90.6184 279.52 90.7465C278.253 90.0444 277.113 89.4588 276.237 88.9214C275.209 88.3007 274.747 87.895 275.534 88.0063C276.08 88.0908 277.078 88.4086 277.792 88.8875C279.32 89.8896 281.584 90.7941 283.273 91.8106C283.555 91.9726 284.141 92.1924 284.586 92.3857C283.529 91.7475 282.495 91.2294 281.555 90.7052C280.584 90.174 279.597 89.6612 279.614 89.4182C279.649 88.9763 277.882 88.0355 275.685 87.0089C274.64 86.5598 273.595 86.1108 272.34 85.5706C271.81 84.815 272.576 84.5375 270.044 83.0516C269.781 82.9047 270.072 82.8823 270.108 82.7971C267.085 81.6562 266.734 81.6099 267.467 82.318C267.625 82.4687 267.521 82.588 267.153 82.4889C265.641 82.0936 266.512 82.5805 267.512 83.0851C268.315 83.5074 269.351 83.9268 270.634 84.5558C268.396 84.0193 268.589 84.5233 269.455 85.2997C267.82 84.5972 266.491 84.0238 265.18 83.4655C264.468 83.6015 266.448 84.4257 267.491 84.9565C269.108 85.7593 270.931 86.6741 272.512 87.4907C272.418 87.7109 272.335 87.8789 272.23 88.124C269.269 86.8818 266.557 86.2603 263.009 84.6555C263.001 84.2587 262.995 83.9228 262.988 83.5428C263.392 83.5295 265.874 84.6805 265.165 83.9394C263.999 83.5399 262.829 83.2053 261.57 82.8287C260.309 82.4626 258.966 82.0231 257.386 81.6074C258.907 81.7027 260.014 81.8532 261.385 81.9807C260.711 81.6371 260.011 81.1942 259.165 80.8611C257.059 80.0801 256.533 79.7422 256.653 79.4786C257.208 79.6199 257.766 79.7509 258.92 80.0326C257.169 79.2602 255.943 78.6934 254.574 78.1274C254.054 77.9008 252.895 77.5686 252.537 77.5264C251.465 77.3894 250.258 77.0959 248.972 76.7187C247.677 76.3559 246.29 75.9616 244.883 75.5626C246.054 76.0839 247.2 76.5942 248.356 77.1068C249.489 77.6524 250.636 78.2068 251.823 78.781C250.278 78.4059 249.19 78.1447 247.677 77.7767C249.511 78.3979 250.983 78.8993 252.483 79.4012C252.499 79.9808 250.189 79.686 247.813 79.3434C247.248 79.1283 246.681 78.9405 245.62 78.5645C245.902 78.9134 246.092 79.1425 246.254 79.3436C245.297 79.3038 243.807 79.1 243.636 79.2701C243.466 79.4402 242.868 79.4153 242.063 79.333C241.254 79.2715 240.248 79.155 239.283 79.1024C239.364 78.7748 239.411 78.5661 239.461 78.347C241.132 78.5803 242.422 78.6512 243.404 78.7021C243.971 78.7199 242.235 78.0004 242.068 78.0614C241.432 78.2034 238.799 77.4244 238.335 77.6273C238.208 77.6809 237.294 77.5246 236.205 77.4606C235.961 76.9889 233.928 76.7343 232.076 76.3833C233.04 76.3205 233.754 76.3439 234.813 76.3191C234.092 76.1842 233.513 76.0758 232.986 75.9792C232.454 75.9034 231.977 75.829 231.452 75.7492C231.62 75.6168 231.733 75.5272 231.847 75.4376L231.333 75.3329C230.171 75.3952 229.011 75.4302 227.903 75.5211C226.622 75.0243 226.252 74.963 224.664 75.0443C223.917 75.0683 223.347 75.1868 222.747 75.2878C222.667 75.3027 222.846 75.3595 222.904 75.3944C223.835 75.4504 224.762 75.5986 225.748 75.7273C224.635 76.179 224.395 76.1249 221.286 76.0123C221.306 75.6875 221.335 75.365 221.359 75.0194C220.298 74.8574 219.43 74.8869 218.535 74.9598C217.632 75.0199 216.696 75.0561 215.46 74.9151C216.007 74.8024 216.399 74.6985 216.346 74.5713C216.29 74.4545 215.786 74.2808 214.542 74.1984C213.862 74.4842 213.291 74.7286 212.598 75.0225C211.959 74.8623 211.552 74.7707 211.414 74.7506C210.114 74.8641 208.919 74.9298 207.737 75.0587C206.56 75.2381 205.363 75.3583 204.067 75.6041C204.517 75.7492 204.964 75.932 205.46 76.1371C204.779 76.2361 204.206 76.4364 203.579 76.6353C202.952 76.8343 202.251 77.0168 201.346 77.186C202.186 76.7277 202.948 76.3453 203.856 75.8802C202.631 76.0984 201.814 76.2655 201.238 76.3335C199.978 76.5654 197.804 77.4533 197.259 77.2702C196.812 77.4714 196.358 77.6597 195.895 77.8354C195.662 77.92 195.431 77.9942 195.191 78.0829C194.965 78.1803 194.736 78.2713 194.503 78.3559C194.483 78.4667 194.235 78.7125 194.486 78.6703C194.748 78.6304 195.072 78.5333 195.471 78.4422C195.883 78.3702 196.354 78.2788 196.926 78.1771C195.32 78.6715 194.054 79.3629 192.946 79.9091C191.908 80.5641 191.068 81.1651 190.484 81.7743C189.579 81.6748 192.034 80.011 192.398 79.2811C191.451 79.8962 190.549 80.3845 189.733 80.9797C189.33 81.2785 188.931 81.5837 188.521 81.8865C188.322 82.0391 188.112 82.1893 187.906 82.346C187.704 82.509 187.521 82.6872 187.323 82.8566C187.246 82.9051 186.922 83.0736 186.653 83.2161C186.313 83.529 185.953 83.8099 185.644 84.1298C185.339 84.4562 185.036 84.7721 184.738 85.0944C184.495 85.3634 184.163 85.6619 183.918 85.9686C183.672 86.2754 183.468 86.5475 183.396 86.6906C183.148 87.1778 183.419 87.0961 184.068 86.4906C184.305 86.2696 184.46 86.1894 184.757 86.0203C184.003 86.871 183.486 87.5721 182.98 88.2041C183.133 88.5184 182.699 89.3641 182.13 90.3662C181.883 90.8974 181.615 91.4681 181.352 92.0452C181.084 92.6159 180.934 93.2292 180.77 93.752C180.471 93.3335 180.255 93.0051 180.039 92.6767C180.077 92.4825 180.237 92.0246 180.319 91.758C180.417 91.5001 180.361 91.3834 179.944 91.8875C180.003 92.2079 180.043 92.4145 180.084 92.6211C179.821 93.1268 179.519 93.6295 179.272 94.1608C179.045 94.6968 178.817 95.2159 178.586 95.7014C178.234 96.4233 178.112 97.0814 177.979 97.6385C177.921 97.9162 177.885 98.1714 177.862 98.4185C177.855 98.6638 177.861 98.9011 177.876 99.1239C177.897 99.4686 177.984 99.5924 178.033 99.7845C177.842 100.718 177.729 101.576 177.598 102.462C177.436 103.342 177.453 104.278 177.485 105.339C177.707 104.61 177.905 103.958 178.124 103.239C178.155 103.871 178.204 104.332 178.211 104.855C178.216 105.119 178.213 105.398 178.203 105.681C178.214 105.969 178.226 106.257 178.237 106.545L178.245 106.459C177.768 106.554 177.284 107.861 177.132 110.136C177.256 110.844 177.453 111.569 177.598 112.139C177.479 112.902 177.292 112.904 177.068 112.393C176.951 112.136 176.828 111.757 176.696 111.278C176.564 110.798 176.481 110.225 176.372 109.597C176.164 109.907 175.984 110.163 175.763 110.508C175.72 109.758 175.681 109.113 175.642 108.512C175.641 107.913 175.641 107.359 175.641 106.805C175.409 106.523 175.208 106.516 175.129 107.996C175.099 110.578 174.741 110.223 174.379 110.175C174.172 110.145 173.981 109.586 173.796 108.711C173.656 107.834 173.53 106.654 173.462 105.41C173.326 106.032 173.284 106.478 173.197 107.007C173.255 107.64 173.285 108.256 173.374 108.879C173.462 109.502 173.558 110.138 173.657 110.835C173.284 111.196 172.934 111.55 172.614 111.895C173.02 115.579 173.791 118.962 174.759 122.274C174.962 121.914 175.139 121.597 175.342 121.236C175.515 121.654 175.799 122.36 176.085 123.055L176.134 122.72C175.92 121.926 175.702 121.125 175.493 120.354C175.298 119.575 175.142 118.816 174.98 118.105C174.638 117.534 174.427 117.185 174.229 116.801C174.012 115.419 173.809 114.215 173.67 112.632C173.837 112.839 174.039 112.748 174.161 113.296C174.735 115.642 175.462 116.667 176.297 120.393C175.745 117.301 176.781 120.194 176.972 119.886C176.635 118.143 176.322 116.41 176.16 114.904C176.663 115.659 177.03 116.24 177.49 116.871C177.712 117.678 178.013 118.694 178.311 119.48C178.633 120.26 178.912 120.817 179.013 120.735C179.297 120.503 179.707 121.906 180.135 122.6C180.754 123.667 181.378 124.756 182.026 125.67C182.453 126.276 182.769 126.72 183.469 128.513C183.095 128.445 182.708 128.385 182.323 128.315C182.766 129.43 183.147 130.431 183.677 131.598C183.615 132.04 183.546 132.485 183.492 132.84C183.828 133.728 184.212 134.522 184.552 135.317C184.89 136.123 185.258 136.891 185.654 137.705C186.164 137.803 186.771 138.296 188.375 140.697C188.327 140.379 188.136 139.749 188.278 139.919C189.451 141.324 190.164 141.588 192.199 144.531C191.708 144.207 191.009 143.539 190.872 143.662C190.635 143.856 191.295 145.057 192.542 146.737C193.517 148.767 192.092 147.601 190.906 146.544C191.924 148.386 193.058 149.744 193.396 149.754C193.907 149.754 195.033 150.518 193.403 147.748C194.507 149.313 195.257 150.261 196.045 151.283C196.129 151.658 196.191 152.012 196.282 152.384C196.997 153.148 197.655 153.85 198.241 154.481C198.95 155.464 197.79 154.819 199.747 156.828C199.644 156.437 199.551 156.076 199.417 155.58C200.115 156.373 200.753 157.087 201.373 157.715C201.986 158.347 202.519 158.949 203.072 159.485C203.997 160.143 204.877 160.813 206.171 161.686C206.14 162.063 206.123 162.306 206.094 162.672C207.561 163.748 208.649 164.465 209.947 165.344C210.106 165.753 210.238 166.09 210.37 166.427C211.627 167.966 213.858 169.159 215.487 170.634C216.002 170.711 216.41 170.775 216.897 170.852C217.929 171.935 218.945 172.849 219.668 173.626C220.419 174.377 221.207 175.157 222.769 176.2C225.073 177.75 225.425 177.867 225.706 177.503C225.73 177.47 225.706 177.404 225.698 177.32C226.458 177.815 227.041 178.171 228.033 178.778C227.761 178.404 227.596 178.142 227.42 177.878C228.158 178.279 228.826 178.573 229.689 179.003C229.591 178.662 228.546 177.901 230.657 178.633C231.254 179.338 233.798 180.361 235.485 181.075C237.651 182.023 240.276 182.235 242.314 182.782C242.79 182.741 243.401 182.73 243.873 182.683C244.341 182.629 244.673 182.572 244.603 182.518C244.484 182.414 244.12 182.322 243.695 182.215C243.267 182.091 242.798 181.958 242.381 181.837C243.155 181.671 243.603 181.629 244.441 181.565C244.658 181.554 244.889 181.551 245.16 181.541C245.428 181.524 245.735 181.5 246.08 181.479C246.781 181.439 247.649 181.338 248.739 181.134C248.439 181.269 248.133 181.409 247.837 181.551C247.523 181.677 247.213 181.783 246.983 181.902C246.519 182.132 246.336 182.354 246.985 182.544C248.049 182.399 249.003 182.164 250.237 181.762C249.681 182.13 249.295 182.427 248.8 182.694C250.436 182.646 251.999 182.41 253.662 181.808C253.63 181.543 253.588 181.292 253.55 181.048C254.376 180.822 254.554 181.076 255.358 180.632C255.592 180.52 255.824 180.32 256.097 180.113C256.373 179.911 256.633 179.641 256.898 179.366C257.44 178.819 257.895 178.148 258.258 177.543C258.519 177.432 257.508 179.366 258.474 178.042C259.08 176.417 259.427 174.68 259.356 171.981C259.286 173.134 259.109 174.246 258.704 175.252C258.714 174.558 258.546 174.959 258.393 175.341C258.202 175.721 257.995 176.074 258.06 175.453C257.615 176.993 256.975 177.995 256.128 178.94C255.988 178.903 255.838 178.864 255.646 178.815C256.546 177.926 257.057 177.103 257.367 176.372C257.556 175.833 257.399 175.726 257.361 175.581C257.329 175.502 257.313 175.405 257.333 175.223C257.352 175.041 257.362 174.758 257.466 174.326C257.636 173.915 257.827 173.947 258.015 173.676C258.121 173.547 258.201 173.318 258.256 172.908C258.332 172.502 258.334 171.894 258.221 170.991C258.14 170.89 257.987 170.691 257.796 170.446C257.884 169.845 257.919 169.332 257.95 168.856C257.955 168.38 257.96 167.948 257.969 167.522C258.187 168.18 258.428 168.832 258.614 169.653C258.465 168.451 258.407 168.443 257.978 167.606C257.731 167.172 257.484 166.738 257.215 166.255C256.904 165.79 256.594 165.271 256.179 164.684C256.416 164.561 256.601 164.57 256.696 164.394C256.784 164.222 256.777 163.869 256.816 163.604C255.707 161.533 254.698 160.275 253.773 159.277C252.855 158.274 252.028 157.518 251.074 156.502C251.484 157.692 252.131 159.187 251.583 159.299C250.165 156.567 250.114 156.572 248.797 154.909C248.824 155.08 248.858 155.247 248.904 155.548C247.906 154.149 246.412 152.875 245.763 151.774C245.763 151.774 245.474 151.501 245.17 151.246C244.876 150.993 244.58 150.751 244.586 150.774C244.756 151.328 245.045 151.986 245.233 152.511C243.232 151.342 240.311 148.869 237.122 146.412C236.831 145.837 236.528 145.286 236.232 144.731L236.127 144.663C238.453 145.993 241.275 148.779 243.902 151.224C243.766 150.711 243.648 150.24 243.52 149.767C242.798 149.061 242.205 148.505 241.717 148C238.77 144.962 235.502 142.109 231.879 139.434C231.431 139.092 230.657 138.49 230.551 138.351C229.876 137.436 228.21 136.343 226.84 135.321C226.731 135.149 226.629 134.972 226.579 134.879C224.987 133.818 223.494 132.83 222.033 131.947C221.812 131.612 221.673 131.405 221.534 131.198C220.05 130.409 218.729 129.678 217.365 129.02L216.969 128.662C218.135 129.062 219.287 129.497 220.653 130.029C220.2 129.609 219.704 129.135 219.056 128.534C218.037 128.168 217.37 127.935 216.467 127.611C215.651 126.929 214.862 126.345 213.992 125.661C213.312 125.321 212.559 124.965 212.409 124.899C211.291 124.845 210.357 124.799 209.205 124.748C208.372 124.067 207.784 123.589 207.177 123.096C206.922 123.159 206.376 122.905 205.434 122.462C205.27 122.387 204.839 122.4 204.478 122.368C203.418 121.696 202.673 121.21 201.76 120.714C201.374 120.501 200.282 120.019 200.175 120.006C199.08 119.875 196.531 118.561 195.409 118.473C195.334 118.467 193.619 117.779 193.388 117.612C192.652 117.085 191.792 116.885 190.731 116.625C190.107 116.473 189.435 116.289 188.924 116.174C185.541 114.546 182.728 114.264 179.744 113.752C179.274 113.405 178.909 113.153 178.657 112.981C174.383 111.843 170.388 110.994 166.157 110.365C166.003 110.462 165.812 110.6 165.716 110.661C164.463 110.549 163.285 110.443 162.138 110.344C160.982 110.287 159.862 110.216 158.72 110.167C158.534 110.114 158.23 110.029 157.93 109.951C157.174 110.061 156.3 109.996 155.423 109.968C154.543 109.951 153.655 109.921 152.875 110.02C153.122 110.767 153.118 110.76 152.355 110.83C152.019 110.667 151.854 110.476 151.286 110.343C150.631 110.184 148.921 110.244 148.115 110.529C147.18 110.823 146.076 111.046 144.85 111.319C143.593 111.557 142.254 111.821 140.767 112.106C141.418 112.456 139.587 112.949 136.802 113.874C140.295 113.119 143.253 112.808 146.223 112.687L146.05 112.796C145.234 112.908 144.415 113.031 143.616 113.142C142.828 113.3 142.063 113.451 141.326 113.603C140.733 113.799 140.187 114.071 139.635 114.304C139.091 114.549 138.536 114.764 138 115.022C137.139 115.091 136.416 115.154 135.69 115.21C136.056 115.051 136.587 114.814 137.808 114.276C136.76 114.633 135.905 114.896 135.117 115.196C134.335 115.519 133.598 115.814 132.744 116.165C133.16 115.447 133.58 114.762 133.98 114.117C132.928 114.467 131.968 114.778 131.036 115.205C129.76 115.625 126.367 118.087 126.746 118.106C127.18 118.083 126.984 118.314 126.556 118.629C126.135 118.956 125.427 119.34 124.953 119.782L125.043 119.725C124.865 119.641 124.682 119.551 124.521 119.465C124.05 119.842 123.593 120.211 123.132 120.573C122.709 120.983 122.293 121.388 121.876 121.794C121.665 121.999 121.445 122.191 121.253 122.411C121.064 122.637 120.871 122.857 120.682 123.083C120.308 123.542 119.881 123.972 119.531 124.47C119.434 124.898 119.42 125.174 119.254 125.636C119.168 125.896 118.731 126.654 118.631 126.851C118.371 127.248 117.971 127.723 117.962 127.595C117.972 126.856 117.265 128.392 116.881 129.447C117.127 129.14 117.36 128.841 117.607 128.551C117.873 128.277 118.138 128.002 118.398 127.731C117.792 130.096 116.865 133.129 116.057 137.15C116.041 138.232 116.116 139.034 116.183 139.921C115.823 140.487 115.408 140.454 115.235 141.6C115.099 142.365 114.979 143.084 114.85 143.79C114.751 144.442 114.618 144.999 114.449 145.428C114.601 145.824 114.669 146.004 114.732 146.188C114.652 147.667 114.427 149.087 115.086 151.084L115.015 151.057ZM186.529 142.943C185.687 141.991 185.753 142.422 187.115 144.682C187.508 144.907 187.053 143.702 188.354 145.482L188.094 144.699C187.72 143.666 187.999 143.838 189.397 145.843C188.71 144.284 187.818 143.238 186.9 142.11C186.549 141.197 186.246 140.405 185.902 139.532C185.286 138.839 185.383 139.377 185.491 139.889C185.606 140.398 185.714 140.883 185.033 140.116C185.751 141.637 186.532 142.834 187.048 143.196C187.633 143.613 187.808 144.388 188.181 144.823C187.626 144.199 187.021 143.481 186.527 142.953L186.529 142.943ZM183.347 136.006C183.542 136.159 183.744 136.309 184.065 136.562C183.232 134.97 182.501 133.627 181.917 132.288C181.26 130.906 180.793 129.512 180.434 128.631C179.609 127.293 179.07 126.382 178.374 125.15C178.453 125.502 178.628 126.249 178.797 126.616C179.687 128.61 180.452 130.236 180.682 131.566C180.69 131.579 181.037 132.173 181.218 132.488C181.206 132.611 181.191 132.8 181.176 133.032C181.701 134.077 182.234 135.037 182.778 135.998C182.999 136.037 183.221 136.076 183.436 136.119L183.351 136.012L183.347 136.006ZM117.178 162.827C117.878 164.834 118.566 166.607 119.408 168.524C119.592 168.006 119.395 167.04 118.854 165.103C118.444 163.798 118.071 162.255 117.476 161.353C117.377 161.835 117.273 162.339 117.184 162.823L117.178 162.827ZM297.272 101.192C298.717 101.978 300.272 102.91 302.663 104.271C301.107 103.125 299.795 102.309 299.652 101.898C299.515 101.467 297.499 100.316 295.025 98.8655C295.904 99.7765 296.552 100.449 297.265 101.196L297.272 101.192ZM263.872 82.7268C265.358 83.0668 266.818 83.4063 268.215 83.7316C267.235 83.0721 266.452 82.94 265.614 82.6197C264.782 82.2954 263.87 81.8432 262.474 81.2493C262.219 81.4278 261.994 81.5966 261.752 81.767C262.618 82.1593 263.245 82.443 263.876 82.7331L263.872 82.7268ZM180.608 132.756C178.849 129.398 178.776 129.212 178.542 130.744C178.825 131.066 178.978 131.238 179.125 131.413C179.265 131.566 179.4 131.722 179.61 131.956C179.929 132.774 180.186 133.424 180.759 134.886C180.691 133.954 180.653 133.353 180.608 132.756ZM189.643 152.058C189.879 152.106 190.119 152.16 190.466 152.227C188.77 150.304 187.369 148.623 185.847 146.678C187.013 149.124 188.449 150.363 189.643 152.058ZM177.94 92.7584C178.196 91.9713 178.355 91.2008 178.65 90.5321C178.925 89.8588 179.176 89.1912 179.456 88.5411C179.366 88.5977 179.305 88.6718 179.234 88.7435C178.302 90.4482 177.367 92.1633 176.627 94.6134C176.826 94.3181 177.019 94.0268 177.227 93.717C177.328 93.5642 177.435 93.4073 177.548 93.2463C177.676 93.0941 177.807 92.9315 177.946 92.7543L177.94 92.7584ZM175.175 97.9236C175.016 98.5241 174.875 99.0957 174.73 99.6337C174.662 99.9091 174.594 100.184 174.544 100.448C174.51 100.72 174.475 100.992 174.443 101.253C174.383 101.783 174.342 102.3 174.324 102.812C174.312 103.319 174.383 103.829 174.445 104.326C174.5 104.014 174.535 103.572 174.566 103.097C174.625 102.622 174.695 102.122 174.756 101.664C174.874 100.758 175.046 100.078 175.262 100.335L175.398 99.4986C175.322 98.9659 175.239 98.4371 175.165 97.9212L175.175 97.9236ZM246.902 74.0037C246.52 73.9672 245.899 73.948 245.955 73.9662C246.986 74.3793 248.043 74.7761 249.229 75.2076C249.639 75.3602 250.656 75.5945 251.006 75.6239C251.205 75.6413 250.761 75.3494 250.327 75.1585C249.569 74.8234 248.589 74.4766 247.839 74.2256C247.382 74.1118 247.017 74.0023 246.9 73.9868L246.902 74.0037ZM182.881 139.373C182.454 138.043 182.983 138.371 182.095 136.223C181.742 136.133 181.394 136.049 181.003 135.956C181.688 137.24 182.141 138.115 182.881 139.373ZM332.203 127.145C329.933 125.235 327.515 123.632 325.057 122.064C327.392 124.005 329.808 125.492 332.203 127.145ZM236.359 75.3889C237.155 75.9683 237.164 75.9266 239.74 76.4734C238.691 76.1165 237.637 75.7533 236.359 75.3889ZM99.0659 153.431C98.1082 153.418 97.2981 153.384 96.5668 153.389C95.8331 153.405 95.1772 153.417 94.5214 153.428L94.566 153.57C95.3328 153.649 96.0546 153.685 96.7906 153.659C97.526 153.66 98.2652 153.596 99.074 153.443L99.0659 153.431ZM115.298 134.752C115.411 135.145 115.461 135.408 115.65 135.95C115.765 135.136 115.9 134.542 115.995 133.981C116.08 133.419 116.206 132.937 116.362 132.374C115.895 133.24 115.695 133.804 115.298 134.752ZM242.63 77.4747C242.799 77.5732 242.861 77.6419 242.99 77.6765C244.545 78.1525 245.965 78.5434 245.539 77.9812C244.24 77.7548 243.433 77.6116 242.636 77.4707L242.63 77.4747ZM177.223 106.273C177.065 105.354 177.069 104.494 176.8 104.949C176.794 105.65 176.86 106.251 176.936 106.543C177.009 106.828 177.102 106.805 177.223 106.273ZM180.667 135.721C180.667 135.721 180.354 135.338 180.356 135.426C180.383 135.882 180.821 136.732 181.704 137.962C181.358 137.215 181.017 136.474 180.667 135.721ZM320.565 112.781L320.294 112.764L323.054 114.768L323.335 114.787L320.565 112.781ZM116.524 130.003C116.363 130.274 116.238 130.487 116.13 130.671C116.039 130.854 115.969 131.013 115.895 131.194C115.722 131.687 115.517 132.228 115.189 133.328C115.487 132.792 115.755 132.337 115.942 131.808C116.139 131.282 116.272 130.698 116.513 130L116.524 130.003ZM190.119 148.649C190.094 148.611 189.614 147.877 189.602 147.858C189.387 147.716 189.215 147.628 189.033 147.538L189.653 148.522C189.822 148.577 189.997 148.654 190.119 148.649ZM172.991 106.225C172.875 105.53 172.884 105.176 172.815 105.193C172.772 105.211 172.667 105.599 172.577 106.379C172.738 106.322 172.846 106.281 172.984 106.229L172.991 106.225ZM181.488 127.886C181.573 128.02 181.727 128.307 181.734 128.276C181.745 128.179 181.704 127.973 181.685 127.815C181.597 127.674 181.514 127.53 181.398 127.317C181.427 127.504 181.453 127.702 181.498 127.888L181.488 127.886ZM176.364 104.598L176.382 104.953L176.606 104.214L176.581 103.791L176.368 104.605L176.364 104.598ZM187.904 141.03C187.904 141.03 188.131 141.334 188.249 141.492L187.928 140.542L187.592 140.11C187.694 140.412 187.799 140.721 187.898 141.034L187.904 141.03ZM233.393 75.6154C233.35 75.6333 234.053 75.8517 234.114 75.849C234.48 75.8767 234.798 75.8822 235.025 75.873C235.069 75.872 234.619 75.7268 234.217 75.587C233.854 75.593 233.507 75.57 233.399 75.6114L233.393 75.6154ZM302.42 102.208L302.374 102.264L304.862 103.723L304.879 103.65L302.42 102.208Z" fill="black"/>
</svg>
