<svg width="342" height="237" viewBox="0 0 342 237" fill="none" xmlns="http://www.w3.org/2000/svg">
<path d="M290.376 35.4626C290.376 35.4626 290.329 35.4905 290.311 35.5109C290.146 35.6834 289.926 35.6701 289.65 35.4709C289.903 35.3275 290.215 35.2624 290.356 34.9916C290.384 34.9455 290.56 34.9934 290.671 34.9961C290.479 34.6788 290.182 34.5916 289.847 34.4755C289.746 34.9311 289.238 34.6019 288.882 34.6784C289.097 34.9038 289.28 35.0984 289.486 35.3184C289.448 35.4764 289.405 35.6436 289.359 35.8274C289.053 35.7348 288.816 35.999 288.555 35.653C288.384 35.7206 288.25 35.7786 288.113 35.822C287.983 35.8635 287.841 35.8922 287.695 35.9302C288.188 36.5675 288.115 36.5865 288.796 36.4649C288.879 36.576 288.992 36.6795 288.865 36.7906C288.662 36.9758 288.513 37.2173 288.096 37.0597C288.01 37.0274 287.917 37.0906 287.823 37.0914C287.648 37.082 287.47 37.0579 287.22 37.029C287.209 37.0474 287.15 37.1249 287.099 37.2006L287.037 36.9591C286.808 37.0107 286.578 37.0622 286.356 37.1119C286.381 37.207 286.407 37.3094 286.434 37.4118C286.543 37.4695 286.655 37.5107 286.761 37.5849C287.281 37.9341 287.636 37.9126 287.857 37.4963C287.904 37.406 287.949 37.3085 288.013 37.1906C288.169 37.3689 288.271 37.4908 288.382 37.6181C287.985 38.1423 287.291 38.1815 286.659 38.3137C286.521 38.2324 286.384 38.1585 286.283 38.0989C286.162 38.2081 286.084 38.3298 285.963 38.3767C285.826 38.4201 285.64 38.398 285.476 38.4013C286.031 39.1242 285.558 39.231 285.114 39.3615C285.249 39.4593 285.325 39.51 285.421 39.5788C285.366 39.6398 285.324 39.6896 285.304 39.7026C285.078 39.613 284.886 39.5377 284.67 39.4608C284.805 39.8422 284.713 40.0715 284.394 40.149C284.335 40.1641 284.269 40.1812 284.242 40.2273C284.135 40.4189 283.914 40.3824 283.71 40.3806C283.672 40.3828 283.639 40.4069 283.555 40.4443C283.674 40.4836 283.741 40.4976 283.794 40.5228C283.866 40.5588 283.94 40.6022 284.005 40.6401C283.924 41.1762 283.926 41.1835 283.477 41.3232C283.246 41.3986 282.991 41.4412 282.754 41.4946C282.739 41.4984 282.741 41.5369 282.732 41.5627C282.858 41.6239 282.976 41.687 283.12 41.759C283.028 41.8295 282.9 41.8783 282.913 41.9296C283.073 42.3956 282.659 42.5185 282.604 42.8838C282.449 42.7679 282.344 42.6936 282.246 42.6175C282.065 42.4926 281.793 42.5317 281.857 42.687C281.98 42.7097 282.103 42.7325 282.234 42.7533C282.314 43.0606 282.11 43.1211 281.936 43.174C281.681 43.2478 281.553 43.3901 281.677 43.7483C281.42 43.5728 281.232 43.4498 281.088 43.6197C281.191 43.8351 281.294 44.0506 281.402 44.2879C281.318 44.3565 281.138 44.4186 281.148 44.5175C281.182 44.8912 280.885 44.9214 280.665 45.0407C280.541 45.1041 280.433 45.2023 280.286 45.2402C280.147 45.2763 280.296 45.5812 280.01 45.4756C279.985 45.4666 279.924 45.7165 279.879 45.8452C279.865 45.8802 279.824 45.9062 279.801 45.9358C279.384 45.747 279.102 45.7183 279.087 45.8706C279.17 45.9506 279.261 46.0286 279.352 46.1066C279.317 46.1546 279.305 46.1969 279.272 46.221C279.009 46.4763 278.515 46.5651 278.698 47.1501C278.704 47.1721 278.682 47.209 278.662 47.222C278.559 47.3109 278.577 47.5014 278.318 47.467C278.173 47.45 278.081 47.7002 277.964 47.824C277.739 47.7105 277.557 47.4922 277.4 47.6732C277.495 47.7659 277.587 47.8512 277.745 48.0057C277.362 48.1906 277.007 48.3606 276.644 48.5325C276.744 48.5848 276.829 48.6409 276.94 48.7059C276.751 49.0046 276.608 49.3304 276.373 49.5708C276.137 49.8112 275.986 50.1939 275.474 50.0922C275.424 50.0816 275.377 50.1719 275.321 50.2255C275.43 50.2832 275.509 50.3174 275.555 50.3444C275.429 50.6737 275.316 50.9919 275.186 51.3066C275.146 51.395 275.077 51.5221 275.003 51.5099C274.759 51.4717 274.701 51.6428 274.582 51.7593C274.343 51.9851 274.241 52.0117 273.757 52.0197C273.632 52.0208 273.52 52.042 273.329 52.0602C273.492 52.1742 273.586 52.2357 273.68 52.2972C273.512 52.6764 272.851 52.4806 272.791 53.0037C272.965 52.9508 273.088 52.9112 273.218 52.8697L273.264 52.928C273.106 53.1329 272.955 53.3359 272.809 53.5297C272.41 53.2271 272.348 53.5631 272.132 53.6036C272.288 53.8234 272.229 54.0415 271.956 54.2578C271.912 54.2069 271.86 54.1579 271.827 54.1197C271.348 54.4778 271.093 55.0356 270.581 55.3555C270.272 55.5526 270.077 55.8917 269.839 56.1798C269.425 56.6693 269.051 57.1878 268.608 57.6538C268.369 57.9108 268.045 58.0805 267.763 58.2939C268.196 58.3927 267.907 58.8499 268.308 58.8867C268.008 59.3 267.73 59.6765 267.459 60.0511C267.264 59.9245 267.055 60.015 266.832 60.3226C266.873 60.39 266.911 60.5052 266.973 60.5358C267.359 60.756 267.537 61.2329 267.989 61.3737C268.048 61.3897 268.126 61.51 268.152 61.5813C268.294 62.0989 268.817 62.2757 269.167 62.5989C269.472 62.5669 269.687 62.8546 269.795 63.0296C270.005 63.3578 270.279 63.6303 270.546 63.9048C270.828 64.2066 271.003 64.5516 271.322 64.8439C271.599 65.0999 271.991 65.1936 272.178 65.5513C272.184 65.5732 272.245 65.5965 272.268 65.5981C272.456 65.6276 272.567 65.755 272.712 65.8893C272.815 65.9874 272.996 66.05 273.123 66.0562C273.772 66.0834 274.146 65.6822 274.106 65.0445C274.085 64.6909 274.189 64.6093 274.54 64.6043C274.742 64.5988 274.964 64.5803 275.103 64.4819C275.562 64.1368 275.997 63.759 276.424 63.383C276.513 63.3052 276.601 63.1889 276.616 63.0677C276.668 62.6328 277.116 62.5169 277.266 62.1581C277.286 62.1139 277.359 62.0949 277.42 62.087C277.743 62.0347 277.871 61.8062 277.923 61.5197C277.958 61.3232 278.043 61.1996 278.275 61.1554C278.438 61.1209 278.526 60.9185 278.602 60.7583C278.669 60.6238 278.677 60.4423 278.874 60.4149C279.184 60.3736 279.289 60.1435 279.36 59.8752C279.392 59.7575 279.432 59.6068 279.529 59.5583C279.743 59.4482 279.846 59.2731 279.968 59.0777C280.074 58.9099 280.366 58.889 280.578 58.8028C280.593 58.799 280.606 58.7879 280.609 58.7713C280.787 58.4599 280.917 58.1141 281.329 58.015C281.403 57.9961 281.418 57.8437 281.441 57.7519C281.466 57.6361 281.491 57.5204 281.498 57.3939C281.507 57.1884 281.594 57.0721 281.818 57.061C282.111 57.04 282.219 56.8246 282.357 56.6327C282.623 56.2673 282.94 55.9509 283.245 55.6145C283.269 55.585 283.333 55.5918 283.377 55.5804C283.612 55.5196 283.717 55.3518 283.835 55.1729C283.932 55.0309 284.057 54.8813 284.222 54.823C284.552 54.7064 284.747 54.4919 284.807 54.1486C284.841 53.9448 284.952 53.8301 285.133 53.7441C285.531 53.5554 285.709 53.1267 286.168 52.9924C286.256 52.9696 286.293 52.8428 286.333 52.7544C286.454 52.4967 286.639 52.3007 286.887 52.1426C287.089 52.0125 287.215 51.7767 287.359 51.5756C287.463 51.4316 287.501 51.1874 287.652 51.1329C288.024 50.9976 288.141 50.694 288.278 50.3775C288.327 50.2634 288.392 50.1528 288.484 50.0823C288.749 49.8654 288.989 49.647 289.077 49.2887C289.1 49.1968 289.171 49.1081 289.259 49.0854C289.655 48.9828 289.835 48.7099 289.935 48.3405C289.968 48.2229 290.038 48.103 290.141 48.0453C290.458 47.8775 290.669 47.6354 290.804 47.3115C290.848 47.2066 290.937 47.1288 291.014 47.0621C291.262 46.8418 291.553 46.665 291.62 46.2886C291.631 46.239 291.68 46.1872 291.731 46.1739C292.243 46.0648 292.435 45.6873 292.533 45.217C292.564 45.0371 292.676 44.9536 292.882 44.9627C293.165 44.9676 293.329 44.8469 293.414 44.5987C293.522 44.2897 293.665 43.9951 293.813 43.6601C294.275 43.7825 294.501 43.5366 294.633 43.1669C294.698 42.994 294.751 42.8083 294.844 42.6517C294.893 42.5687 295.006 42.4614 295.098 42.4844C295.645 42.6005 295.863 42.3254 296.061 41.9698C296.155 41.7893 296.292 41.5901 296.477 41.5187C296.843 41.3926 296.986 41.098 297.146 40.8069C297.2 40.7148 297.256 40.5988 297.357 40.5649C297.726 40.4461 297.878 40.1569 297.976 39.8113C298.014 39.6845 298.118 39.5717 298.239 39.5248C298.556 39.4193 298.783 39.2358 298.88 38.9141C298.937 38.743 299.024 38.5333 299.181 38.4769C299.698 38.2962 299.925 37.9019 300.074 37.4184C300.097 37.3265 300.161 37.2086 300.238 37.2042C300.754 37.1409 300.878 36.742 301.064 36.3737C301.171 36.1509 301.331 35.9221 301.556 35.8248C301.873 35.6881 302.061 35.4756 302.171 35.1739C302.268 34.9145 302.439 34.7297 302.653 34.5573C302.9 34.3607 303.098 34.0986 303.261 33.8222C303.359 33.6563 303.451 33.5546 303.656 33.5015C304.038 33.4027 304.367 33.2238 304.483 32.7956C304.528 32.6357 304.595 32.4701 304.684 32.3299L305.882 30.3337C307.332 27.9208 306.548 24.7983 304.131 23.355C303.519 22.9901 302.843 22.767 302.179 22.6813C302.01 22.6626 301.848 22.6109 301.706 22.5461C301.429 22.4148 301.158 22.3677 300.85 22.4163C300.723 22.4413 300.587 22.4296 300.48 22.3793C300.161 22.2354 299.817 22.2073 299.459 22.2142C299.312 22.221 299.16 22.1197 299.055 22.0143C298.812 21.7726 298.511 21.757 298.2 21.7359C297.953 21.7216 297.696 21.6946 297.475 21.5957C297.191 21.4663 296.909 21.3753 296.579 21.4919C296.362 21.5635 296.189 21.5302 296.057 21.3224C295.825 20.9688 295.477 20.8949 295.102 20.8671C294.91 20.8541 294.701 20.7992 294.573 20.6683C294.247 20.3467 293.848 20.3173 293.423 20.3412C293.153 20.3565 292.834 20.4235 292.686 20.126C292.479 19.6878 292.112 19.6893 291.765 19.7712C291.427 19.8585 291.25 19.7171 291.073 19.4584C290.975 19.3199 290.825 19.1948 290.678 19.1704C290.424 19.1268 290.143 19.1917 289.884 19.1573C289.69 19.137 289.517 19.0414 289.336 18.9789C289.181 18.9253 289.037 18.822 288.872 18.818C288.495 18.8141 288.108 18.8597 287.707 18.8853C287.649 18.7831 287.6 18.5929 287.495 18.5498C287.187 18.4187 286.863 18.3464 286.489 18.5056C286.264 18.603 286.034 18.6234 285.792 18.686C285.752 18.5324 285.729 18.4134 285.688 18.3148C285.647 18.2161 285.589 18.0828 285.517 18.078C285.105 18.0285 284.682 17.9039 284.271 18.0103C283.948 18.0938 283.765 17.9928 283.563 17.8186C283.502 17.7641 283.439 17.7023 283.369 17.6425C283.232 17.7794 283.094 17.9089 282.944 18.0569C282.848 17.957 282.783 17.8567 282.69 17.8025C282.467 17.6652 282.366 17.2774 282.018 17.3832C281.67 17.489 281.468 17.2836 281.34 16.9419C281.314 16.8707 281.273 16.8032 281.254 16.7612C280.942 16.764 280.653 16.7995 280.388 16.7432C280.19 16.701 280.001 16.578 279.866 16.4179C279.751 16.2759 279.636 16.2274 279.476 16.2142C279.142 16.1915 278.784 16.2296 278.513 15.9716C278.135 15.601 277.675 15.4859 277.164 15.4777C276.92 15.4707 276.633 15.4513 276.464 15.2841C276.309 15.137 276.18 15.1858 276.015 15.1818C275.607 15.1781 275.153 15.2408 274.816 15.055C274.422 14.8367 274.028 14.7357 273.573 14.7599C273.334 14.7749 273.071 14.7882 272.929 14.5126C272.769 14.1951 272.496 14.1095 272.206 14.1689C271.738 14.2666 271.406 14.0404 271.096 13.7223C270.689 13.8433 270.311 13.8632 269.963 13.6096C269.808 13.4937 269.567 13.5013 269.363 13.5306C269.077 13.5735 268.858 13.5443 268.765 13.1858C268.744 13.1053 268.691 13.049 268.646 12.9669C268.168 13.2388 267.744 13.0831 267.363 12.9087C266.874 12.6839 266.339 12.6428 265.82 12.5429C265.623 12.508 265.444 12.4839 265.319 12.2742C265.267 12.194 265.111 12.1331 265.03 12.1851C264.769 12.3543 264.557 12.2609 264.326 12.2189C263.686 12.1036 263.123 11.8043 262.54 11.518C262.262 11.3794 261.93 11.3401 261.63 11.2383C261.313 11.133 261.002 11.0184 260.701 10.8854C260.533 10.8118 260.396 10.6755 260.136 10.852C260.428 11.2216 260.731 11.5177 261.088 11.7455C261.274 11.8612 261.524 12.0075 261.564 12.2234C261.606 12.4779 261.741 12.5134 261.856 12.6242L262.477 12.8771L262.434 12.982L261.848 12.6261C261.731 12.9608 261.533 13.0432 261.303 12.9701C261.167 12.9273 261.041 12.8661 260.914 12.8287C260.662 12.7613 260.404 12.7031 260.158 13.0243C260.335 13.4628 260.405 13.9755 260.855 14.1713C260.569 14.3389 260.419 14.2137 260.27 14.1197C260.052 13.9731 259.857 14.2187 259.646 14.2811C259.413 14.3492 259.472 14.6072 259.436 14.679C259.203 14.7782 258.959 14.8024 258.906 14.9331C258.737 15.3361 258.502 15.2172 258.277 15.3145C257.918 15.4699 257.633 15.3954 257.325 15.2955C257.273 15.2776 257.191 15.3224 257.132 15.3376L257.112 15.4129C257.238 15.4741 257.365 15.5427 257.489 15.5966C257.462 16.189 257.384 16.2795 257.036 16.0571C256.745 15.8672 256.473 15.7266 256.101 15.8308C256.006 15.8555 255.915 15.7775 255.818 15.7637C255.702 15.739 255.582 15.7309 255.411 15.705C255.491 16.1369 255.557 16.5103 255.641 16.9569C255.659 16.9678 255.737 16.9946 255.798 17.049C256.027 17.2707 256.382 17.2803 256.519 17.6586L256.515 17.644C256.596 17.6542 256.688 17.6461 256.76 17.6821C257.048 17.8262 257.352 17.9427 257.595 18.1532C257.737 18.2802 257.694 18.6583 257.941 18.7038C257.865 18.9574 257.761 19.0702 257.594 19.0277C257.476 18.9957 257.349 18.9584 257.24 18.9007C257.013 18.7799 256.758 18.6428 256.522 18.5166C256.096 19.0796 255.75 18.771 255.373 18.767C256.01 19.0785 256.648 19.3973 257.324 19.7378C257.203 19.847 257.141 19.9099 257.079 19.9728L257.1 20.0533C257.283 19.9747 257.474 19.8941 257.692 19.7987C257.65 19.6377 257.623 19.5353 257.587 19.3963C257.834 19.3794 258.056 19.3609 258.317 19.3402C258.303 18.9847 258.299 18.6969 258.291 18.3944C258.584 18.4358 258.884 18.4753 259.191 18.5129C259.289 19.0419 259.335 19.069 259.946 18.9499C259.948 18.7775 259.951 18.6051 259.955 18.4089C260.308 18.2004 260.686 18.3602 261.02 18.0163C261.056 17.9756 261.15 18.0371 261.218 18.0585C261.287 18.0799 261.361 18.1544 261.408 18.1264C261.725 17.9586 261.729 18.2464 261.76 18.457C261.892 18.4228 262.028 18.4032 262.133 18.384C262.12 18.6059 262.115 18.771 262.111 18.936C262.535 18.8809 262.436 18.3758 262.659 18.2088C262.624 18.0148 262.599 17.8573 262.568 17.6779C262.803 17.6171 262.79 17.7768 262.802 17.9453C262.811 18.1304 262.785 18.3323 262.945 18.4391C263.2 18.6073 263.433 18.8124 263.679 19.0063C263.528 19.2094 263.383 19.4032 263.541 19.6199C263.687 19.582 263.64 19.1259 263.873 19.331C263.861 19.4356 263.852 19.5236 263.833 19.6925C263.958 19.5667 264.036 19.5073 264.102 19.4279C264.167 19.3485 264.236 19.2525 264.291 19.1604C264.425 18.9227 264.481 18.2603 264.352 18.2468C263.954 18.1935 264.196 17.8577 264.191 17.6249C264.367 17.5793 264.514 17.5725 264.653 17.5053C264.813 17.425 264.931 17.2773 264.931 17.0353C264.928 16.8722 264.862 16.7096 264.738 16.8042C264.466 16.9918 264.269 16.7772 264.027 16.8399C263.99 16.8494 263.946 16.7673 263.903 16.7236C264.061 16.6672 264.18 16.7065 264.303 16.6981C264.426 16.6896 264.562 16.6701 264.642 16.4622C264.793 16.0795 265.021 16.0518 265.268 16.1284C265.38 16.1696 265.495 16.2181 265.625 16.2701C265.865 15.8334 265.978 15.3044 266.39 15.0496C266.43 15.0235 266.451 14.8932 266.476 14.8086C266.776 14.9966 266.776 15.0901 266.556 15.4202C266.513 15.494 266.47 15.63 266.487 15.6959C266.58 15.937 266.438 16.0208 266.295 16.0734C266.181 16.1184 266.06 16.103 265.893 16.1228C266.004 16.5545 265.841 16.8933 265.601 17.2365C265.789 17.266 265.951 17.2865 266.098 17.3109C266.035 17.702 265.81 17.6508 265.66 17.7053C265.424 17.7899 265.187 17.8122 264.972 17.8599C264.891 18.0917 264.834 18.2627 264.751 18.5183C265.048 18.6989 265.194 19.2 265.642 19.1777C265.774 18.8391 265.885 18.5448 266.021 18.2209C266.025 18.087 265.709 18.1064 265.936 17.7432C266.133 17.9889 266.318 18.2219 266.575 18.546C266.553 18.13 266.536 17.8221 266.509 17.4465C266.612 17.3888 266.75 17.2592 266.842 17.2822C267.082 17.3296 267.195 17.1911 267.283 16.9263C267.242 16.8588 267.201 16.7913 267.117 16.6491C267.359 16.5553 267.542 16.4766 267.718 16.431C267.784 16.414 267.895 16.479 267.914 16.5521C268.002 16.9822 268.329 16.9756 268.618 17.0647C268.236 17.3431 267.874 17.6085 267.487 17.8961C267.618 18.0416 267.707 18.1435 267.837 18.2817C267.622 18.2671 267.447 18.2577 267.273 18.2482C267.076 18.7597 267.177 19.2098 267.3 19.6542C267.373 19.6352 267.446 19.6162 267.586 19.5801C267.466 19.814 267.381 19.9688 267.314 20.1032C267.336 20.3396 267.435 20.5715 267.371 20.7756C267.256 21.18 267.434 21.3837 267.525 21.7661C267.639 21.4479 267.703 21.2438 267.775 21.0378C267.656 20.8189 267.588 20.5866 267.57 20.3338C267.556 20.1891 267.815 20.0438 267.811 20.1153C267.776 20.4053 268.108 20.3583 268.054 20.6613C268.036 20.744 268.114 20.8331 268.181 21.003C268.353 20.6073 268.498 20.8664 268.708 20.8901C268.673 20.665 268.653 20.4983 268.615 20.2585C268.757 20.3232 268.845 20.3627 268.952 20.4131C268.99 20.2551 269.011 20.1559 269.038 20.0475L269.1 20.047C269.137 20.3106 269.176 20.5816 269.218 20.8361C269.468 20.5607 269.514 20.5566 269.586 20.8658C269.624 21.0121 269.633 21.1661 269.65 21.3254C269.656 21.3473 269.618 21.3807 269.601 21.4083C269.502 21.3872 269.403 21.3661 269.294 21.3396C269.223 21.9122 269.234 21.9561 269.528 22.1533C269.636 21.8444 269.736 21.5373 269.85 21.2191C270.121 21.1489 270.089 21.6882 270.426 21.5385C270.383 21.284 270.426 21.0233 270.761 20.8663C270.748 21.1506 270.73 21.3818 270.719 21.6734C270.839 21.533 270.918 21.4424 270.941 21.4129C271.216 21.5058 271.439 21.5808 271.723 21.6791C271.599 21.8983 271.48 22.1011 271.34 22.348C271.473 22.4385 271.501 22.7279 271.721 22.7333C271.703 22.4493 271.694 22.2018 271.673 21.9105C271.816 21.9202 271.905 21.9598 271.982 21.9243C272.16 21.8548 272.309 22.222 272.501 21.8445C272.583 21.9482 272.685 22.0078 272.822 21.9644C272.799 22.0563 272.793 22.1829 272.743 22.2346C272.639 22.3474 272.517 22.4182 272.334 22.5591C272.715 22.6401 272.966 22.7936 273.016 23.2571C273.262 22.7873 273.006 22.4633 273.083 22.0061C273.298 22.1692 273.483 22.3087 273.688 22.4664C273.701 22.4553 273.765 22.3997 273.816 22.3552C273.91 22.4167 273.997 22.4801 274.084 22.5435C274.159 22.5942 274.277 22.6261 274.291 22.7085C274.31 22.844 274.238 22.9876 274.099 23.0549C274.051 23.0828 274.004 23.1419 273.942 23.2048C274.062 23.2752 274.154 23.3294 274.244 23.3763C274.089 23.9552 274.512 24.0174 274.653 24.4415C274.767 24.0059 274.85 23.688 274.93 23.3628C274.916 23.2492 274.75 23.1829 274.987 22.9498C274.958 23.137 274.933 23.2528 274.917 23.3739C275.071 23.334 275.233 23.3234 275.389 23.2597C275.623 23.1678 275.698 23.3046 275.727 23.539C275.735 23.6306 275.714 23.7298 275.713 23.816C275.923 23.9021 276.172 23.744 276.35 23.979C276.202 24.1343 276.075 24.2766 275.929 24.4392C275.981 24.5194 276.014 24.5888 276.066 24.6378C276.116 24.6796 276.184 24.701 276.247 24.7316L276.232 24.7354C276.409 24.2681 276.691 23.9062 277.06 23.6078C277.116 23.7026 277.166 23.8067 277.209 23.8814C277.517 23.4974 277.428 23.1846 277.219 22.9188C277.327 22.7034 277.414 22.5248 277.534 22.2909C277.361 22.2887 277.234 22.2825 277.107 22.2763C277.144 22.056 277.211 21.8592 277.405 21.7933C277.742 21.6748 277.817 21.3276 277.919 20.9967C278.045 20.6051 277.859 20.4032 277.656 20.1905C277.758 20.1016 277.827 20.0368 277.909 19.9609C278.015 20.0663 278.111 20.1663 278.226 20.2771C278.389 19.9072 278.54 19.5556 278.694 19.2114C279.071 19.2777 279.432 19.3405 279.785 19.4052C279.661 19.6795 279.55 19.9188 279.424 20.1858C279.454 20.2405 279.509 20.3353 279.563 20.4229L279.487 20.5519C279.305 20.5443 279.123 20.5368 278.965 20.5309C278.96 20.3292 278.961 20.2119 278.958 20.0799C278.798 20.0978 278.66 20.1101 278.477 20.1264C278.457 20.2641 278.382 20.4554 278.421 20.5156C278.603 20.7651 278.554 21.3009 278.991 21.2658C278.584 21.418 278.809 21.7735 278.704 22.0036C278.484 22.0605 278.264 22.1175 278.073 22.1669C278.054 22.5154 278.03 22.7869 278.014 23.0877C278.182 23.1614 278.393 23.4345 278.301 23.6535C278.184 23.9571 278.328 24.0291 278.364 24.1993C278.416 24.4592 278.477 24.7245 278.508 24.9974C278.531 25.1787 278.531 25.3583 278.766 25.3287C278.843 25.0201 278.927 24.7095 279.011 24.3989C279.15 24.394 279.275 24.3928 279.43 24.3841C279.551 24.1575 279.665 23.9328 279.767 23.7504C280.007 23.6805 280.218 23.6181 280.444 23.5519C280.353 23.9267 280.322 24.2625 280.596 24.4416C280.523 24.554 280.401 24.6871 280.417 24.7218C280.521 25.0307 280.438 25.4971 280.807 25.6204C280.814 25.4076 280.781 25.1897 280.844 25.0095C280.945 24.7336 281.137 24.6292 281.339 24.7411C281.716 24.3857 281.652 23.9573 281.616 23.5451C281.907 23.3995 282.072 23.4897 282.007 23.7561C281.913 24.1474 281.905 24.6022 281.453 24.8519C281.67 24.8738 281.799 24.8873 281.944 24.9043C282.037 24.7477 282.119 24.6094 282.211 24.4528C282.302 24.5308 282.391 24.6015 282.47 24.6668C282.637 24.5847 282.646 24.1372 282.903 24.3128C282.805 24.4787 282.718 24.6261 282.593 24.8381C282.823 24.88 283.005 24.9187 283.169 24.9466C283.235 25.1403 283.291 25.3287 283.383 25.5937C283.508 25.3194 283.58 25.1446 283.7 24.8795C283.816 25.1461 283.896 25.3361 284.003 25.5661C284.111 25.3818 284.197 25.2271 284.289 25.0704C284.603 24.8018 284.721 25.2866 285.018 25.1629C284.994 25.4033 284.971 25.5887 284.944 25.8144C285.181 25.6125 285.391 25.4566 285.577 25.2679C285.761 25.0719 285.935 24.9255 286.172 24.8721C286.517 24.7828 286.548 24.8137 286.406 25.2642C286.394 25.3065 286.372 25.3433 286.348 25.404C286.469 25.3571 286.556 25.327 286.711 25.2633C286.592 25.466 286.523 25.5931 286.441 25.7314C286.531 25.7471 286.614 25.7647 286.721 25.7839C286.61 26.0232 286.392 26.236 286.561 26.4966C286.775 26.1446 287.061 26.2502 287.313 26.1379C287.636 25.992 287.795 26.427 288.121 26.2022C288.17 26.3925 288.278 26.5986 288.224 26.6908C288.135 26.8621 287.95 26.9646 287.804 27.0961C287.828 27.5817 287.845 27.6164 288.34 27.9255C288.322 27.5241 288.205 27.1328 288.505 26.7195C288.598 26.836 288.682 26.9471 288.806 27.0944C288.809 26.8359 288.817 26.6543 288.827 26.4489C289.085 26.2963 289.321 26.1493 289.593 25.9929C289.524 26.2373 289.457 26.4653 289.389 26.6859C289.559 26.4937 289.659 26.2178 289.808 26.1248C289.969 26.0207 290.18 26.083 290.364 26.0667C290.442 25.9138 290.235 25.7488 290.466 25.6423C290.569 25.9512 290.698 26.2067 291.03 26.1909L290.512 26.4889C290.588 26.7815 290.215 26.7299 290.283 27.0244C290.086 26.9583 289.938 26.9028 289.778 26.8584C289.731 26.9799 289.677 27.1032 289.603 27.2707C289.772 27.2893 289.91 27.3083 290.022 27.3183C290.134 27.4768 289.897 27.7722 290.142 27.8415C290.345 27.6252 290.378 27.1171 290.819 27.1901C290.812 27.2544 290.804 27.3736 290.787 27.5186C291.051 27.1771 291.225 26.9445 291.402 26.7193C291.332 26.6905 291.255 26.6637 291.166 26.6242C291.282 26.5682 291.356 26.6035 291.389 26.7304C291.449 26.9022 291.509 27.074 291.596 27.317C291.68 27.0688 291.725 26.9089 291.788 26.7598C291.851 26.6107 291.933 26.4725 292.009 26.3435C292.501 26.4894 292.477 27.1203 292.694 27.4154C292.425 27.7973 292.151 28.0711 292.011 28.56C292.338 28.309 292.581 28.1889 292.74 28.1997C292.699 28.2807 292.655 28.3544 292.573 28.4927C292.797 28.4192 292.931 28.6966 293.152 28.46C293.152 28.46 293.28 28.622 293.269 28.6404C293.128 28.88 292.975 29.1069 292.85 29.2877C292.879 29.975 293.19 30.3627 293.539 30.7098C293.675 30.5105 293.811 30.3113 293.948 30.1121L293.953 30.134C293.837 29.5942 293.36 29.6553 293.027 29.398C293.161 29.1603 293.284 28.941 293.408 28.7217C293.514 28.7409 293.596 28.7824 293.68 28.7761C294.189 28.7147 294.66 28.7802 295.085 29.0294C295.14 29.0619 295.247 29.0811 295.274 29.0351C295.489 28.7765 295.65 28.9455 295.838 28.975C295.883 28.9086 295.927 28.8349 295.948 28.798C296.133 28.9064 296.299 29.0039 296.464 29.0941C296.553 28.954 296.609 28.8691 296.665 28.7843C296.801 28.9444 296.925 29.0918 297.042 29.2411L297.129 29.156C297.078 28.8961 297.028 28.6436 296.972 28.3379C297.073 28.2416 297.186 28.1343 297.33 27.9955C297.372 28.2188 297.403 28.367 297.439 28.5684C297.602 28.4404 297.754 28.3309 297.916 28.2029C297.979 28.2647 298.049 28.3246 298.07 28.3427C298.02 28.8162 297.983 29.2162 297.937 29.7043C298.121 29.5083 298.258 29.3714 298.393 29.2272C298.357 29.3925 298.409 29.4416 298.523 29.4589C298.54 29.4624 298.519 29.6551 298.513 29.7817C298.696 29.6718 298.825 29.568 298.966 29.5081C299.021 29.4783 299.148 29.5156 299.149 29.5468C299.162 29.8712 299.536 29.712 299.549 30.0364C299.551 30.0437 299.577 30.0526 299.625 30.0559L298.839 27.0195C298.806 27.0748 298.781 27.1594 298.8 27.2014C298.914 27.4295 298.795 27.4526 298.642 27.4686C298.55 27.4768 298.464 27.5069 298.396 27.5166C298.506 28.1518 297.957 28.0596 297.563 28.1383C297.682 28.326 297.775 28.4737 297.84 28.574C297.608 29.0087 297.398 29.4066 297.179 29.8302C297.073 29.756 296.949 29.6709 296.89 29.6238C296.688 29.8089 296.511 29.9719 296.335 30.1421C296.356 30.1914 296.39 30.2608 296.425 30.3375C296.14 30.2942 296.238 30.6746 296 30.6896C295.639 30.3457 295.427 30.182 295.364 30.1984C295.473 30.3496 295.612 30.4932 295.692 30.652C295.786 30.8309 295.686 30.9894 295.502 30.9434C295.067 30.8373 294.816 30.988 294.661 31.2937C294.347 30.9299 294.114 30.998 293.866 31.2183C293.878 30.6921 293.892 30.2593 293.91 29.8172L293.839 29.7812C293.72 29.929 293.609 30.0748 293.502 30.2041C293.27 30.186 293.055 30.1714 292.832 30.1587C292.918 30.3706 292.995 30.5459 293.072 30.7213C293.131 30.7061 293.215 30.6998 293.41 30.6651C293.238 30.8499 293.136 30.97 292.996 31.1234C293.421 31.4038 293.827 31.6734 294.204 31.9193C294.168 32.0535 294.145 32.1765 294.108 32.3034C294.061 32.456 293.527 32.6019 293.421 32.4653C293.139 32.1012 293.112 32.3581 293.008 32.4709L293.002 32.4489C293.13 32.5798 293.265 32.7087 293.382 32.8269C293.242 33.0738 293.112 33.295 292.972 33.5419C292.828 33.4698 292.699 33.394 292.579 33.3547C292.511 33.3333 292.382 33.351 292.377 33.3914C292.372 33.4629 292.423 33.5981 292.478 33.6306C292.803 33.8276 292.529 33.8282 292.434 33.9152C292.343 33.7125 292.246 33.519 292.156 33.3237C291.526 33.1276 291.034 33.1925 290.793 33.6218C290.562 33.5799 290.391 33.5539 290.204 33.5244C290.389 33.7886 290.656 34.0319 290.672 34.2151C290.692 34.4752 290.733 34.7224 290.928 35.0232C290.795 34.9638 290.733 34.9332 290.67 34.9026C290.694 35.1463 290.814 35.4587 290.387 35.3818L290.376 35.4626ZM281.571 21.9486C281.519 21.6887 281.598 21.5982 281.901 21.5588C281.875 21.7607 281.654 21.9974 281.847 22.1662L281.697 22.3453C281.508 22.5505 281.481 22.7213 281.73 22.8052C281.458 23.0552 281.372 22.8433 281.273 22.6425C281.114 22.7851 280.979 22.8981 280.833 23.0296C280.769 22.6011 281.268 22.4408 281.173 22.0438C281.405 21.9134 281.533 22.0131 281.522 22.2424C281.511 22.5028 281.676 22.2648 281.706 22.3507C281.663 22.2136 281.598 22.0822 281.569 21.9413L281.571 21.9486ZM280.558 22.4215C280.546 22.5261 280.541 22.6288 280.522 22.7977C280.338 22.7516 280.182 22.6907 280.022 22.6775C279.854 22.6661 279.674 22.6971 279.559 22.7036C279.485 22.4183 279.428 22.2299 279.355 21.9757C279.406 21.9625 279.516 21.8716 279.554 21.9006C279.736 22.0878 279.922 22.1412 280.161 21.8842C280.161 21.8842 280.211 21.9571 280.244 21.9953C280.277 21.94 280.324 21.8498 280.384 21.7484C280.495 21.8134 280.596 21.873 280.698 21.9326C280.657 22.1071 280.614 22.2743 280.571 22.4416L280.564 22.4123L280.558 22.4215ZM289.911 36.8088C289.719 36.9443 289.547 37.0669 289.355 37.2024C289.13 36.9404 289.02 36.6957 289.083 36.4532C289.127 36.2933 289.17 36.0949 289.474 36.2113C289.619 36.408 289.773 36.6102 289.909 36.8015L289.911 36.8088ZM261.747 17.9529C261.581 17.8866 261.404 17.8075 261.133 17.6981C261.391 17.5766 261.559 17.5879 261.687 17.3283C261.816 17.0686 262.053 17.1398 262.366 17.1682C262.124 17.4729 261.949 17.7054 261.747 17.9529ZM266.309 17.2173C266.237 16.9393 266.167 16.6686 266.091 16.4071C266.285 16.2165 266.31 16.4051 266.393 16.4539C266.476 16.5027 266.61 16.4446 266.786 16.4302C266.718 16.682 266.66 16.908 266.595 17.1433C266.478 17.1737 266.397 17.1945 266.309 17.2173ZM280.449 21.3646C280.118 21.0834 280.119 21.0284 280.511 20.3026C280.514 20.4345 280.509 20.5061 280.511 20.5757C280.513 20.6454 280.507 20.7096 280.509 20.8104C280.617 20.7746 280.704 20.7445 280.905 20.6767C280.709 20.9773 280.578 21.1673 280.449 21.3646ZM283.375 19.694C283.345 19.8501 283.308 20.0081 283.256 20.2322C283.06 19.9864 282.889 19.7808 282.696 19.5497C283.094 19.2436 283.142 19.6997 283.366 19.6885L283.375 19.694ZM275.623 21.6846C275.522 21.4141 275.439 21.1857 275.349 20.9592L275.407 20.8816C275.597 20.9808 275.789 21.0872 276.042 21.217C275.907 21.3612 275.787 21.5016 275.623 21.6846ZM276.567 20.8859C276.89 20.7712 277.134 20.7159 277.218 21.1313C277.031 21.2577 276.761 20.9686 276.643 21.4518L276.562 21.4103C276.562 21.2307 276.565 21.0583 276.567 20.8859ZM269.136 15.1039C269.155 15.177 269.166 15.3383 269.158 15.3402C269.014 15.4166 268.854 15.4969 268.706 15.5276C268.654 15.5408 268.578 15.4278 268.565 15.3455C268.553 15.3016 268.661 15.1723 268.723 15.1406C268.835 15.0882 268.951 15.0817 269.046 15.057C269.092 15.0841 269.133 15.0892 269.138 15.1112L269.136 15.1039ZM281.491 20.5798C281.266 20.8018 281.212 21.136 280.908 21.2615C280.972 20.9951 281.038 20.736 281.104 20.4458C281.249 20.494 281.345 20.5316 281.491 20.5798ZM256.468 18.9442C256.83 18.8585 257.08 19.0983 257.342 19.2958C256.95 19.4441 256.734 19.1252 256.468 18.9442ZM268.887 19.0717C268.739 19.3077 268.584 19.3714 268.42 19.2628C268.568 19.201 268.711 19.1484 268.887 19.0717ZM271.72 54.7641C271.568 54.9048 271.462 55.0103 271.355 55.1084L271.251 55.0103C271.236 54.7721 271.331 54.6539 271.72 54.7641ZM291.797 34.2674C291.622 34.1644 291.502 34.094 291.253 33.9477C291.464 33.8854 291.572 33.8496 291.717 33.8043C291.747 33.9837 291.767 34.088 291.79 34.2693L291.797 34.2674ZM268.006 19.448C267.969 19.4887 267.949 19.5329 267.933 19.5294C267.749 19.5145 267.598 19.4755 267.793 19.0814C267.89 19.2437 267.948 19.3459 268.004 19.4407L268.006 19.448ZM276.518 23.8418C276.458 23.7012 276.389 23.5863 276.511 23.3908C276.642 23.5052 276.724 23.6089 276.518 23.8418ZM281.126 20.2604C281.126 20.2604 281.113 20.1468 281.129 20.1192C281.234 19.9514 281.334 19.9725 281.413 20.2175C281.315 20.2349 281.218 20.2522 281.126 20.2604ZM259.909 14.7829L259.89 14.9206L259.506 14.9185L259.53 14.7716L259.909 14.7829ZM292.402 34.064C292.405 34.1648 292.429 34.2287 292.409 34.2729C292.384 34.3263 292.333 34.3708 292.247 34.4632C292.096 34.151 292.182 34.0898 292.402 34.064ZM282.337 21.9143C282.337 21.9143 282.231 21.9262 282.229 21.9189C282.235 21.8235 282.251 21.7335 282.258 21.6381L282.396 21.6259C282.382 21.7232 282.36 21.8224 282.337 21.9143ZM277.877 19.8366C277.821 19.7002 277.871 19.5702 278.027 19.4466C277.965 19.6029 277.929 19.7059 277.877 19.8366ZM279.123 23.8937C279.123 23.8937 279.154 23.9557 279.149 23.965C279.122 24.011 279.091 24.0425 279.054 24.0831C279.047 24.0539 279.041 24.0319 279.015 23.9918L279.114 23.8883L279.123 23.8937ZM276.623 22.948L276.649 22.9881L276.502 23.1434L276.472 23.0887L276.621 22.9407L276.623 22.948ZM280.781 23.9797C280.781 23.9797 280.807 24.0198 280.822 24.0472L280.651 24.2321L280.615 24.1554C280.67 24.0944 280.732 24.0315 280.789 23.9778L280.781 23.9797ZM268.914 19.9313C268.914 19.9313 268.815 20.0037 268.804 19.9909C268.783 19.9416 268.774 19.8739 268.758 19.8153C268.755 19.8007 268.826 19.7744 268.885 19.728C268.898 19.8104 268.921 19.8671 268.906 19.9332L268.914 19.9313ZM261.796 16.1759L261.775 16.244L261.483 16.1476L261.512 16.0776L261.803 16.174L261.796 16.1759Z" fill="black"/>
<path d="M212.344 75.3411C212.404 75.4506 212.637 75.718 212.79 75.9128C214.702 78.4624 214.699 78.479 214.574 79.2061C213.915 78.1431 213.216 77.1685 212.54 76.157C212.172 75.6745 211.797 75.1938 211.404 74.7023C211.207 74.4566 211.005 74.22 210.799 73.9689C210.582 73.7361 210.358 73.5053 210.132 73.2671C209.802 72.9309 209.43 72.2779 209.067 71.7549C208.599 71.5483 208.528 71.6993 208.656 72.041C208.769 72.3865 209.069 72.9411 209.362 73.4977C211.915 75.9829 211.955 77.1358 213.304 79.2926C213.672 79.2911 214.003 79.2992 214.363 79.2996C214.753 79.8077 215.163 80.3338 215.577 80.8747C216 81.4209 216.391 82.0224 216.831 82.6345C216.932 82.9361 217.114 83.3341 217.315 83.7503C217.504 84.1777 217.697 84.6196 217.88 85.025C218.226 85.8176 218.425 86.4062 218.065 86.1949C218.697 87.5148 219.159 88.6052 219.608 89.6443C219.996 90.6602 220.373 91.6322 220.741 92.6611C221.354 93.0957 221.706 93.4574 221.717 93.1034C221.719 92.9311 221.643 92.5761 221.456 91.9764C221.235 91.3624 220.932 90.5272 220.512 89.3558C220.739 89.5077 220.875 89.457 221.501 90.8485C222.514 93.0999 223.508 95.4891 223.623 96.9897C223.654 97.2937 223.985 98.2386 224.081 98.7914C224.265 99.8055 224.459 100.708 224.637 102.059C224.694 102.247 224.952 103.063 225.21 103.878L224.638 102.699C225.035 104.415 225.328 106.15 225.616 107.778C225.803 108.229 226.018 108.759 226.219 109.261C226.27 108.975 226.3 108.576 226.387 108.398C226.604 107.936 226.644 107.121 226.447 105.939C226.349 105.347 226.217 104.656 226.015 103.873C225.797 103.094 225.522 102.212 225.199 101.234C224.896 100.368 224.566 99.5168 224.15 98.3911C224.454 98.5699 224.665 98.6872 224.886 98.8172C226.87 104.487 227.465 109.024 227.907 113.758C227.807 114.096 227.701 114.444 227.624 114.69C227.734 115.419 227.838 116.094 227.937 116.717C228.013 117.345 228.067 117.916 228.097 118.424C228.175 119.575 228.113 120.512 228.067 121.546C229.131 122.965 228.995 126.521 228.739 130.163C228.905 129.987 229.003 129.884 229.113 129.762C229.104 130.513 229.103 131.115 229.095 131.328C228.864 132.129 228.643 132.787 228.404 133.528C228.635 134.843 228.735 135.503 228.714 136.298C228.7 137.09 228.58 138.018 228.274 139.862C228.207 140.301 228.12 140.839 228.075 141.272C227.932 143.198 227.577 144.25 227.25 145.466C227.192 145.724 227.123 146.062 226.963 146.806C227.154 146.366 227.255 146.09 227.342 145.942C227.457 145.749 227.553 145.638 227.644 145.505C227.476 147.547 227.368 148.582 227.184 149.535C227.016 150.492 226.755 151.387 226.226 153.124C225.635 154.925 225.017 156.591 224.289 158.255C224.24 158.369 224.189 158.624 224.144 158.784C224.373 158.522 224.596 158.261 224.865 157.942C224.542 158.9 224.095 159.898 224.064 160.109C223.729 162.264 222.212 165.147 221.052 167.5C220.799 167.55 220.648 167.542 220.468 167.604C220.301 167.655 219.948 168.044 219.615 168.481C219.263 168.908 218.923 169.378 218.817 169.663C219.194 169.277 219.624 168.908 220.043 168.441C219.441 169.838 218.443 171.033 217.523 171.895C216.189 173.185 215.063 174.156 214.098 175.209C213.647 175.131 213.337 175.141 211.947 175.821C211.458 176.291 210.921 176.695 210.271 177.121C209.504 177.273 208.356 177.312 207.937 177.327C207.09 177.444 206.301 177.329 205.604 177.025C205.245 176.907 204.927 176.677 204.593 176.506C204.288 176.265 203.964 176.075 203.67 175.785C203.317 175.509 202.985 175.134 202.646 174.793C202.342 174.403 202.023 174.048 201.801 173.645C201.333 172.923 200.523 172.157 200.372 171.267C200.34 171.205 199.442 169.58 199.024 168.572C198.906 168.266 198.791 167.914 198.69 167.612C198.694 166.994 198.687 166.301 198.592 165.662C198.525 165.008 198.412 164.39 198.233 163.881C198.123 163.91 198.006 163.94 197.886 163.963C197.77 163.455 197.689 163.109 197.614 162.761C196.965 159.588 196.929 156.03 196.236 153.258C196.205 153.141 196.182 152.78 196.175 152.54C196.123 151.312 195.947 150.148 196.152 148.76C196.253 148 196.162 145.713 196.207 144.194C196.471 143.611 196.744 144.001 196.82 141.78C196.691 141.735 196.562 141.691 196.353 141.612C196.683 138.014 197.126 134.706 197.659 131.32C197.53 131.518 197.405 131.699 197.252 131.925C197.393 130.32 197.555 128.74 197.72 127.167C197.923 125.624 198.092 124.097 198.391 122.591C198.905 119.585 199.57 116.134 200.609 113.828C200.722 113.596 200.912 112.758 201.107 112.059C200.91 112.329 200.778 112.511 200.69 112.628C201.319 109.702 202.079 106.89 202.897 104.063C203.143 103.289 203.555 102.035 203.741 101.697C204.354 100.555 204.86 99.1519 205.395 97.7721C206.578 94.9913 206.919 94.3099 208.536 91.6664C208.926 90.9956 209.384 90.2838 210.072 89.1612C209.785 89.2902 209.631 89.3613 209.47 89.4342C210.946 86.1246 212.783 84.0567 214.545 80.5172C213.715 81.6686 213.171 82.559 212.589 83.4277L212.595 83.27C213.168 82.2474 213.723 81.2139 214.331 80.2368C214.929 79.2469 215.487 78.2592 216.098 77.3518C216.728 77.3058 218.037 74.9529 219.094 73.7426C219.236 72.8705 219.192 72.8195 222.122 69.1651C222.142 69.2456 222.163 69.3261 222.178 69.3846C225.605 65.2583 229.056 61.2894 233.11 57.8981C235.532 55.8194 238.219 53.6485 240.932 51.7286C245.653 48.4615 250.713 45.6846 256.053 43.6312C256.777 43.3424 257.527 43.1249 258.26 42.8727C258.999 42.6424 259.725 42.3609 260.487 42.1873C262.006 41.7942 263.447 41.4055 265.082 41.037C262.997 41.1785 267.815 39.8301 265.578 40.0811C270.203 38.8297 274.453 37.6753 278.653 36.5414C279.052 36.6723 280.969 36.2726 284.403 35.3424C284.589 35.216 285.106 34.9731 284.956 34.9414C284.005 34.7427 286.048 33.7455 284.099 33.805C283.858 33.8127 284.116 33.5977 284.46 33.4462C286.973 32.3274 284.821 32.3612 284.812 31.8718C282.699 32.2078 283.226 31.7045 283.691 31.3813C284.557 30.7667 284.578 30.3632 284.762 29.9252C284.961 29.4523 286.147 28.7707 286.105 28.3365C286.069 27.9555 284.191 28.0823 285.381 27.3841C285.456 27.3413 285.274 27.3337 285.112 27.3443C284.119 27.4376 284.231 27.2367 284.24 27.0313C284.243 26.8901 283.515 26.8911 282.749 26.9878C278.868 27.4771 273.847 28.7687 269.853 30.2784C267.655 31.1047 266.483 31.3846 264.234 31.7091C263.584 31.7992 262.883 31.9026 262.141 32.0321C261.767 32.0978 261.407 32.1597 261.007 32.2476C260.601 32.3447 260.196 32.4418 259.792 32.5463C254.243 33.9745 248.806 36.0765 243.676 38.7312C243.13 39.0129 242.539 39.3298 241.969 39.6411C241.409 39.9578 240.89 40.3107 240.458 40.6098C237.428 42.6352 234.122 44.6851 231.295 47.0094C230.95 47.3095 230.419 47.6809 230.034 47.9447C229.501 48.3088 228.975 48.6948 228.463 49.0771C227.965 49.4794 227.486 49.8998 227.01 50.3276C226.055 51.1758 225.141 52.0603 224.302 52.9955C223.715 53.6314 223.166 54.2028 222.586 54.7745C222.024 55.357 221.424 55.9418 220.712 56.5788C219.713 57.4384 218.371 59.1206 217.28 60.41C216.368 61.575 215.606 62.6855 214.54 63.7969C213.736 64.6841 212.989 65.6111 212.274 66.569C211.579 67.5451 210.94 68.5536 210.288 69.5733C209.699 70.5063 209.041 71.6837 208.433 72.5123C207.773 73.4092 207.238 74.305 206.688 75.2046C206.136 76.0969 205.611 77.0054 205.089 77.9836C204.645 78.8089 204.096 79.6535 203.568 80.5163C203.042 81.3863 202.49 82.2786 201.981 83.1283C201.916 83.2389 201.849 83.3733 201.786 83.4912C200.322 86.61 198.971 89.7388 197.445 92.8582C197.152 93.4181 196.782 94.56 196.52 95.3928C196.207 96.3636 195.882 97.3144 195.646 98.2185C195.25 99.7419 194.752 101.057 194.14 102.504C193.294 104.378 192.699 106.585 192.078 108.877C190.934 113.138 189.936 117.48 189.194 121.872C189.125 122.241 189.025 122.61 188.945 122.967C188.729 123.92 188.558 124.893 188.408 125.885C188.277 126.863 188.173 127.85 188.061 128.871C187.906 130.511 187.692 132.377 187.478 133.877C187.031 136.842 186.84 139.702 186.92 142.554C186.963 144.292 186.932 145.838 186.854 147.684C186.701 151.69 187.058 156.094 187.368 160.198C187.427 160.971 187.648 162.155 187.857 163.116C188.448 165.914 189.092 168.644 190.081 171.62C190.916 174.089 192.232 176.785 194.148 179.287C194.322 179.507 194.499 179.735 194.677 179.97C194.875 180.192 195.083 180.419 195.291 180.646L195.926 181.317C196.161 181.53 196.396 181.742 196.624 181.956C197.07 182.38 197.569 182.766 198.048 183.134C198.505 183.507 198.994 183.825 199.438 184.117C201.527 185.535 204.006 186.369 206.378 186.583C208.76 186.802 210.975 186.494 213.104 185.857C213.88 185.649 214.62 185.332 215.38 185.034C216.109 184.705 216.853 184.372 217.51 184.007C219.412 183.007 221.059 181.777 222.477 180.449C223.895 179.122 225.14 177.699 226.154 176.204C226.685 175.473 227.407 174.388 227.904 173.737C230.101 170.732 231.61 167.547 232.719 164.208C233.067 163.134 233.537 161.771 233.913 160.714C235.094 157.504 235.879 154.303 236.398 151.015C236.576 149.978 236.777 148.848 236.96 147.77C237.507 144.53 237.949 141.277 237.971 138.094C237.968 137.658 238.017 136.942 238.066 136.524C238.598 132.35 238.515 128.336 238.1 124.282C237.95 122.705 237.865 121.408 237.901 120.063C237.943 119.139 237.886 118.162 237.785 117.135C237.737 116.616 237.67 116.087 237.598 115.536C237.511 114.989 237.404 114.423 237.285 113.845C236.712 110.871 235.988 107.834 235.038 104.496C234.898 102.261 234.023 99.029 232.687 95.7133C232.391 94.9001 232.032 94.1187 231.691 93.3168C231.351 92.515 231.025 91.7094 230.653 90.9079C230.253 90.0278 229.691 88.6119 229.562 88.1456C228.85 85.3945 227.262 82.1912 225.159 78.8164C224.609 77.9596 224.006 77.0226 223.428 76.1184C222.82 75.2219 222.231 74.3361 221.763 73.5593C219.887 70.6335 217.75 68.1573 215.33 65.7314C214.515 64.9741 213.553 64.0679 212.897 63.3789C210.383 60.8365 207.578 58.8613 204.397 57.2177C203.823 56.9368 203.164 56.5687 202.487 56.2209C201.794 55.9007 201.113 55.5695 200.545 55.2794C197.575 53.8465 194.47 52.8311 190.927 52.5144C189.987 52.4219 188.897 52.4152 187.838 52.3458C186.779 52.3076 185.754 52.3699 184.916 52.3371C184.234 52.3028 183.557 52.3529 182.891 52.4083C182.218 52.473 181.554 52.5358 180.894 52.5893C179.607 52.8208 178.301 53.0653 177.077 53.3898C174.673 54.0823 172.371 54.959 170.175 56.0658C169.384 56.489 168.15 57.0427 167.558 57.3285C163.714 58.9011 160.429 61.3046 157.314 63.9688C156.355 64.7401 155.417 65.6541 154.429 66.4953C153.47 67.36 152.554 68.2372 151.694 68.9673C149.354 71.1186 147.387 73.228 145.582 75.6312C145.183 76.1481 144.79 76.6558 144.395 77.1561C144.011 77.6693 143.627 78.1824 143.236 78.6974C142.442 79.7146 141.665 80.7666 140.865 81.8481C139.916 83.0849 139.063 84.4144 138.181 85.7277C137.336 87.0626 136.51 88.4083 135.745 89.7462C134.84 91.3621 134.161 92.4902 133.202 94.0186C131.416 96.7681 129.761 99.8116 128.309 103.427C127.185 106.255 125.934 109.405 124.781 112.303C124.223 113.688 123.761 115.018 123.306 116.315C122.884 117.618 122.502 118.896 122.144 120.206C121.878 121.266 121.531 122.496 121.174 123.596C120.188 126.864 119.414 130.015 118.824 133.244C118.559 134.546 118.211 136.197 117.862 137.513C117.169 140.432 116.769 143.331 116.509 146.232C116.29 148.56 116.067 150.968 115.848 153.296C115.564 156.313 115.368 159.158 115.514 161.9C115.595 163.635 115.594 165.384 115.46 167.316C115.232 170.583 115.449 174.142 115.986 177.789C116.266 179.629 116.609 181.773 116.913 183.521C117.251 185.643 117.774 187.693 118.519 189.725C119.262 191.75 120.211 193.753 121.518 195.717C122.325 196.961 123.389 198.231 124.562 199.434C125.764 200.63 127.156 201.714 128.542 202.62C130.55 203.935 133.104 204.671 135.461 204.732C137.822 204.808 139.985 204.334 141.833 203.638C145.42 202.163 147.507 200.725 149.857 198.915C151.143 197.926 152.591 196.443 153.62 195.092C155.345 192.834 156.592 190.513 157.782 188.121C158.667 186.369 159.488 184.517 160.229 182.694C160.833 181.125 161.464 179.478 161.87 177.96C162.824 174.419 163.45 170.939 163.91 167.33C164.142 166.443 164.477 165.435 164.625 164.343C165.094 161.075 165.371 157.819 165.233 154.896C165.159 153.127 165.134 151.065 165.007 149.091C165.151 148.227 165.267 147.674 165.331 146.954C165.401 146.257 165.493 145.312 165.471 144.592C165.294 140.578 164.888 136.288 164.178 132.818C164.044 132.15 163.922 131.526 163.822 130.928C163.698 130.328 163.596 129.753 163.498 129.193C163.317 128.069 163.143 126.974 162.947 125.76C162.821 125.004 162.727 124.248 162.565 123.439C162.199 122.628 161.853 121.866 161.46 121.016C161.22 119.844 161.036 118.893 160.792 117.887C160.475 116.665 160.22 115.528 159.93 114.347C159.596 113.176 159.243 111.964 158.651 110.642C158.023 109.305 157.55 108.023 157.069 106.828C156.615 105.618 156.231 104.469 155.859 103.363C155.682 102.862 155.498 102.332 155.398 102.038C154.002 99.4558 152.643 97.2001 151.156 94.9308C150.618 94.0941 150.054 93.1861 149.456 92.3261C148.878 91.4531 148.325 90.589 147.779 89.8404C147.329 89.1917 146.921 88.6105 146.472 88.0553C146.01 87.5113 145.526 86.9729 144.965 86.3766C142.616 83.9555 139.996 81.7605 137.148 79.5859C133.09 76.5531 128.153 74.3256 122.834 73.6801C122.196 73.6033 121.524 73.5195 120.847 73.4449C120.167 73.4179 119.478 73.3856 118.797 73.3587C118.457 73.3452 118.117 73.3317 117.784 73.3164C117.453 73.3083 117.123 73.3315 116.803 73.3361C116.158 73.3547 115.54 73.3584 114.961 73.3599C113.919 73.3564 113.123 73.5157 112.364 73.6105C111.988 73.6688 111.628 73.7307 111.252 73.7891C110.881 73.8694 110.516 73.9716 110.111 74.0688C106.061 74.9996 101.986 76.7099 98.5411 78.5539C94.4438 80.6915 91.1432 83.185 88.044 86.0636C87.2577 86.837 86.4276 87.6529 85.5752 88.4434C84.7635 89.2701 83.9296 90.0714 83.0931 90.7719C81.1704 92.4483 79.3023 94.5477 77.8532 96.6323C76.6341 98.2749 75.5417 99.8925 74.366 101.43C73.218 102.984 72.1213 104.525 70.9456 106.063C70.1592 107.562 69.3378 109.047 68.4506 110.58C67.617 112.139 66.6806 113.724 65.6734 115.429C64.7973 116.975 63.8105 118.94 63.1006 120.583C62.1291 122.88 61.2024 124.775 60.1488 126.421C59.9125 126.779 59.6045 127.374 59.2545 127.988C58.6937 129.663 58.0423 131.502 57.3066 133.379C56.5635 135.257 55.7987 137.173 55.0519 139.037C53.1324 143.811 51.6794 148.543 50.2138 153.318C49.6781 155.15 49.2381 156.747 48.5779 158.402C48.3035 159.066 47.8502 160.612 47.7863 161.151C47.5375 163.003 46.9083 165.11 46.3768 167.262C45.6918 170.242 44.8943 173.18 44.2255 176.132L43.1617 180.553C42.831 182.028 42.5095 183.509 42.1807 184.991C41.5061 187.89 41.0657 190.908 40.5092 193.871C39.9481 196.967 39.4645 200.09 38.9181 203.182C38.6624 204.856 38.3331 206.518 38.3322 208.33C38.7244 206.487 39.093 204.674 39.4504 202.849C39.8391 201.023 40.2148 199.177 40.5789 197.256C40.9333 195.267 41.5052 192.637 41.8731 191.699C42.3096 190.602 42.5352 189.326 42.845 188.012L44.1709 181.791L44.2725 181.85C43.7936 183.903 43.3239 185.96 42.845 188.012C43.1878 188.127 43.0573 189.589 42.6516 191.833C42.4132 193.12 42.1767 194.415 41.9364 195.695C41.5486 198.129 41.1864 200.542 41.367 201.814C42.2062 199.037 42.9511 196.923 43.8597 192.387C43.7353 194.417 43.3476 196.126 43.0581 197.7C42.6 200.074 42.7328 201.102 42.5891 202.755C42.4378 204.621 42.8655 203.339 42.9181 203.482C42.8394 205.235 42.6368 207.356 42.7627 207.48C43.1516 207.863 42.7634 210.235 42.7046 211.944C42.6352 214.671 42.294 217.437 41.9728 220.401C41.9181 220.946 41.924 221.483 41.9079 222.026L41.9938 221.965C42.1475 220.652 42.3011 219.34 42.4829 218.107C43.2456 216.637 43.2835 217.025 42.7712 220.733C42.3794 223.848 41.9764 226.708 41.9676 229.669C41.9621 230.404 41.8286 231.461 41.7637 232.36C41.6894 233.465 41.6224 234.567 41.5165 236.124C42.0769 234.145 42.5529 232.445 43.1165 230.418C43.13 230.258 43.1975 229.46 43.2969 228.755C43.6755 226.073 43.9271 222.901 44.4778 220.612L44.4529 220.727C44.5114 219.955 44.5661 219.168 44.6726 218.43C45.0971 215.502 45.4252 212.474 45.9723 209.717C46.2834 208.075 46.7561 207.391 47.0459 205.122C47.3282 205.034 47.3753 205.669 47.1594 207.255C47.0027 208.404 46.8405 209.563 46.6634 210.694C46.2688 213.192 45.9459 215.696 45.5927 218.082C45.9801 220.215 45.4344 224.127 45.1932 227.46C45.9564 220.97 46.7509 214.481 47.8825 207.599C47.9301 208.297 47.9495 208.675 47.9781 209.058L48.1078 208.712C48.1777 207.257 48.2421 205.812 48.3198 204.176C48.063 204.968 47.8887 205.505 47.6733 206.185C47.8559 204.077 48.1137 202.199 48.3597 199.973C47.8477 201.051 47.4206 201.942 46.9919 202.857C47.3889 200.186 47.714 197.478 48.2052 194.627C48.6578 193.471 48.9099 192.782 49.1208 191.751C49.3337 190.728 49.4941 189.352 49.8722 186.849C49.6073 187.308 49.3444 187.775 49.0523 188.279C49.2613 185.79 50.0105 182.059 50.0383 180.14C50.0385 179.929 50.2847 178.944 50.427 178.314C50.5693 177.684 50.8074 176.849 50.854 176.455C51.0977 174.159 51.612 173.393 52.026 172.482C52.2273 171.384 52.4268 170.31 52.5878 169.48C52.9459 168.958 53.2059 168.57 53.4731 168.181C54.2408 164.704 53.1711 166.893 53.3437 165.412C52.9453 166.202 52.6213 166.856 52.2536 167.583C52.6201 165.732 52.884 165.39 53.1889 164.874C53.5264 164.303 53.811 164.011 54.3204 162.349C55.1683 159.756 56.0406 157.228 56.9948 154.592C57.0023 155.347 57.0113 156.047 57.7821 154.185C58.091 152.989 57.1162 154.607 58.0714 152.096C58.23 151.922 58.385 151.765 58.6421 151.488C58.7228 150.741 58.7926 150.255 58.8082 149.891C58.822 149.521 58.8343 149.205 58.7922 148.982C58.698 148.437 57.5859 149.646 57.2401 150.82C56.173 154.321 56.1385 153.158 55.6913 153.821C56.0483 152.417 56.4029 151.185 56.6122 150.179C56.8643 149.005 56.8853 148.391 56.4271 149.04C56.1144 149.496 55.662 150.44 55.5214 151.288C55.2042 153.088 54.3116 155.356 53.8942 157.283C53.8194 157.599 53.5775 158.177 53.4137 158.633C53.6729 157.427 54.0045 156.318 54.2668 155.274C54.5455 154.203 54.8479 153.133 54.6593 152.979C54.3135 152.702 54.8392 150.77 55.5974 148.466C55.9864 147.398 56.3753 146.329 56.8416 145.045C56.6547 144.141 55.9277 144.509 56.5806 141.646C56.6538 141.354 56.4384 141.551 56.3517 141.518C57.5919 138.535 57.7992 138.247 57.8125 139.267C57.8141 139.485 57.9722 139.491 58.1517 139.156C58.9004 137.783 58.6578 138.751 58.3406 139.825C58.0972 140.7 57.6934 141.741 57.2718 143.107C58.4146 141.109 58.6498 141.595 58.6219 142.758C59.2305 141.086 59.7238 139.724 60.2155 138.387C60.8023 137.962 60.0455 139.969 59.7176 141.092C59.194 142.82 58.6114 144.774 58.1226 146.486C58.3475 146.568 58.5262 146.623 58.7768 146.714C59.901 143.707 61.3073 141.305 62.5697 137.622C62.2864 137.344 62.0457 137.11 61.7735 136.844C61.4871 137.129 60.6245 139.726 60.5707 138.701C61.0787 137.578 61.6366 136.497 62.2251 135.322C62.8228 134.153 63.4233 132.873 64.2028 131.438C63.2302 132.611 62.5809 133.521 61.7345 134.606C61.9459 133.88 62.1033 133.066 62.4406 132.222C63.3146 130.153 63.4293 129.538 63.1548 129.445C62.8773 129.946 62.5907 130.442 62.0049 131.476C62.6419 129.672 63.0696 128.39 63.5958 127.005C63.7866 126.471 64.3391 125.399 64.5538 125.11C65.1886 124.235 65.8017 123.155 66.4084 121.96C67.0316 120.768 67.6947 119.488 68.3686 118.189C67.9458 119.4 67.532 120.584 67.1128 121.778C66.7341 122.976 66.3518 124.192 65.9569 125.449C66.7423 124.067 67.2974 123.096 68.0665 121.742C67.2619 123.503 66.6183 124.919 65.9564 126.355C66.3676 126.764 67.7355 124.88 69.1138 122.915C69.3449 122.355 69.5963 121.814 70.0498 120.783C70.1102 121.228 70.1473 121.523 70.1823 121.78C70.8091 121.055 71.6821 119.83 71.9228 119.822C72.1635 119.815 72.5553 119.362 73.0467 118.72C73.5566 118.088 74.1606 117.276 74.7836 116.537C74.4901 116.371 74.3055 116.263 74.1117 116.149C73.1369 117.525 72.3044 118.514 71.6686 119.264C71.2932 119.689 71.9582 117.932 72.1175 117.852C72.6569 117.486 73.8937 115.034 74.3591 114.836C74.4855 114.78 74.9979 114.007 75.6974 113.17C75.5208 112.669 76.7287 111.014 77.7423 109.425C77.036 110.084 76.564 110.62 75.8198 111.374C76.2158 110.757 76.5337 110.261 76.8244 109.811C77.1335 109.372 77.4062 108.973 77.708 108.536C77.4969 108.567 77.3537 108.589 77.2105 108.61L77.4865 108.164C78.3277 107.361 79.1486 106.539 79.9738 105.795C80.4898 104.522 80.6988 104.21 81.8466 103.109C82.3757 102.582 82.8528 102.247 83.3371 101.88C83.4029 101.832 83.3215 102.001 83.3073 102.067C82.7099 102.784 82.1827 103.56 81.6007 104.367C82.6923 103.866 82.8176 103.654 84.8658 101.313C84.6161 101.104 84.3609 100.905 84.0927 100.685C84.7018 99.8016 85.3184 99.1892 85.9847 98.5874C86.6473 97.971 87.315 97.3142 88.0592 96.3175C87.6021 96.6388 87.2582 96.8527 87.2021 96.7267C87.1552 96.6061 87.374 96.1201 88.1662 95.1579C88.8404 94.8585 89.4101 94.6096 90.0989 94.3064C90.4199 93.7315 90.6322 93.3721 90.7122 93.2577C91.6853 92.3892 92.5521 91.5638 93.4561 90.7912C94.3934 90.0568 95.301 89.2677 96.3685 88.4918C96.1659 88.9189 95.9928 89.3697 95.8018 89.8719C96.3407 89.4436 96.8791 89.1637 97.4538 88.8433C98.0285 88.5228 98.6413 88.1378 99.3853 87.594C98.4759 87.8918 97.6749 88.1849 96.7143 88.5272C97.7123 87.7849 98.3942 87.304 98.8381 86.9315C99.8708 86.1725 102.007 85.1982 102.247 84.6754C102.7 84.488 103.148 84.286 103.593 84.0694C103.815 83.9574 104.027 83.84 104.256 83.7261C104.482 83.6287 104.705 83.5241 104.926 83.4121C105.021 83.4736 105.37 83.4613 105.167 83.6153C104.959 83.7785 104.666 83.9479 104.326 84.1765C103.991 84.427 103.602 84.7073 103.136 85.0543C104.596 84.2236 105.968 83.775 107.124 83.343C108.313 83.0353 109.326 82.8356 110.17 82.8281C110.717 82.1008 107.824 82.7482 107.043 82.5132C108.14 82.2449 109.113 81.9227 110.106 81.736C110.6 81.6472 111.096 81.5658 111.597 81.4751C111.845 81.4344 112.098 81.3845 112.353 81.3419C112.61 81.3066 112.865 81.2951 113.124 81.2672C113.212 81.2444 113.557 81.124 113.845 81.0261C114.306 80.9926 114.758 80.9226 115.202 80.9168C115.649 80.9183 116.086 80.9144 116.526 80.9178C116.888 80.9256 117.332 80.8886 117.724 80.9199C118.116 80.9512 118.454 80.9886 118.607 81.0349C119.132 81.1878 118.887 81.3294 118.002 81.3868C117.678 81.408 117.513 81.4663 117.187 81.5664C118.323 81.6002 119.188 81.7044 119.995 81.7686C120.119 82.0957 121.033 82.3589 122.152 82.6312C122.709 82.8151 123.307 83.0114 123.908 83.2151C124.507 83.4114 125.057 83.7218 125.55 83.9613C125.45 83.4561 125.359 83.0738 125.268 82.6914C125.1 82.5866 124.657 82.3889 124.406 82.2664C124.152 82.1605 124.105 82.04 124.758 82.0818C124.951 82.3441 125.074 82.5153 125.196 82.6866C125.745 82.8412 126.318 82.9662 126.874 83.1501C127.42 83.3524 127.954 83.5419 128.466 83.706C129.233 83.9449 129.796 84.3065 130.293 84.5917C130.535 84.7399 130.745 84.8884 130.941 85.0406C131.125 85.204 131.293 85.3712 131.445 85.5348C131.682 85.7857 131.713 85.9339 131.819 86.1017C132.629 86.6023 133.332 87.1075 134.067 87.6198C134.819 88.1044 135.489 88.7584 136.239 89.5089C135.557 89.1703 134.946 88.8678 134.273 88.5346C134.712 88.9909 135.014 89.342 135.39 89.7053C135.579 89.8907 135.784 90.0795 135.997 90.2664C136.199 90.4718 136.401 90.6772 136.603 90.8825L136.534 90.83C136.931 90.5477 138.214 91.09 139.975 92.5391C140.406 93.1146 140.799 93.7546 141.115 94.2505C141.752 94.6866 141.882 94.5516 141.663 94.0384C141.556 93.7772 141.364 93.4287 141.105 93.0038C140.847 92.579 140.487 92.1257 140.104 91.6158C140.472 91.6766 140.781 91.7215 141.184 91.7968C140.668 91.2514 140.225 90.7805 139.813 90.3405C139.378 89.93 138.975 89.5505 138.571 89.1709C138.524 88.8083 138.657 88.6568 139.789 89.6129C141.69 91.3614 141.677 90.8574 141.89 90.5603C142.01 90.3887 141.734 89.8668 141.223 89.1326C140.681 88.4297 139.908 87.5291 139.048 86.6274C139.595 86.9544 139.948 87.2299 140.393 87.5284C140.814 88.005 141.242 88.4485 141.635 88.94C142.029 89.4315 142.426 89.9377 142.866 90.4874C143.384 90.4626 143.882 90.4508 144.352 90.454C146.758 93.2742 148.693 96.1536 150.441 99.1283C150.04 99.0292 149.688 98.9406 149.287 98.8416C149.472 99.2543 149.791 99.9444 150.101 100.629L149.824 100.435C149.393 99.7353 148.959 99.0278 148.54 98.3477C148.107 97.6714 147.661 97.0374 147.254 96.4323C147.072 95.7923 146.963 95.3991 146.818 94.9915C145.961 93.8863 145.224 92.9139 144.165 91.728C144.202 91.9917 143.997 92.076 144.313 92.5407C145.628 94.5658 145.876 95.7975 148.017 98.9592C146.144 96.4386 147.541 99.1762 147.186 99.1042C146.147 97.6632 145.1 96.2481 144.114 95.0982C144.319 95.9819 144.491 96.6477 144.635 97.4146C145.07 98.1294 145.605 99.045 145.972 99.8007C146.32 100.569 146.534 101.154 146.406 101.172C146.042 101.219 146.783 102.479 146.995 103.268C147.348 104.449 147.713 105.65 147.935 106.748C148.084 107.475 148.191 108.009 149.016 109.747C149.223 109.428 149.445 109.105 149.658 108.777C150.166 109.863 150.635 110.827 151.121 112.013C151.485 112.27 151.857 112.525 152.152 112.729C152.569 113.582 152.884 114.406 153.23 115.199C153.585 115.997 153.893 116.791 154.213 117.637C153.935 118.076 153.879 118.856 154.529 121.67C154.33 121.417 154.002 120.846 154.028 121.066C154.247 122.882 153.951 123.583 154.7 127.082C154.801 126.502 154.793 125.536 154.977 125.519C155.28 125.48 155.703 126.784 156.072 128.843C156.882 130.944 157.009 129.108 157.052 127.519C157.696 129.523 157.908 131.279 157.684 131.533C157.334 131.904 157.118 133.248 156.218 130.163C156.601 132.039 156.778 133.235 156.982 134.509C157.198 134.828 157.413 135.116 157.622 135.436C157.688 136.481 157.749 137.441 157.807 138.3C158.036 139.49 158.361 138.204 158.483 141.006C158.269 140.663 158.07 140.348 157.801 139.91C157.9 140.962 157.983 141.916 158.016 142.798C158.055 143.677 158.129 144.478 158.141 145.248C157.986 146.373 157.871 147.472 157.62 149.013C157.915 149.248 158.104 149.402 158.391 149.633C158.169 151.439 157.945 152.722 157.696 154.27C157.885 154.666 158.04 154.993 158.195 155.32C158.454 157.29 157.794 159.733 157.752 161.929C157.456 162.357 157.223 162.699 156.945 163.106C157.026 164.6 156.996 165.966 157.067 167.025C157.099 168.086 157.127 169.195 156.816 171.048C156.366 173.787 156.211 174.124 155.753 174.079C155.712 174.073 155.68 174.011 155.625 173.948C155.464 174.84 155.324 175.509 155.086 176.648C155 176.194 154.923 175.894 154.851 175.584C154.638 176.397 154.393 177.085 154.115 178.007C153.935 177.703 154.096 176.42 153.183 178.459C153.287 179.377 152.289 181.931 151.653 183.649C150.859 185.876 149.215 187.933 148.216 189.792C147.86 190.11 147.433 190.549 147.076 190.86C146.716 191.164 146.447 191.366 146.456 191.278C146.462 191.12 146.643 190.792 146.857 190.409C147.06 190.013 147.285 189.58 147.482 189.193C146.831 189.643 146.493 189.941 145.873 190.508C145.716 190.658 145.555 190.824 145.362 191.015C145.166 191.198 144.938 191.405 144.686 191.642C144.177 192.125 143.509 192.688 142.613 193.342C142.917 193.216 143.229 193.089 143.535 192.971C143.843 192.829 144.132 192.676 144.376 192.589C144.861 192.409 145.148 192.428 144.842 193.03C144.007 193.707 143.182 194.241 142.044 194.863C142.693 194.711 143.174 194.633 143.708 194.456C142.551 195.614 141.309 196.591 139.731 197.39C139.56 197.184 139.406 196.982 139.254 196.787C138.524 197.234 138.587 197.538 137.712 197.819C137.47 197.913 137.165 197.945 136.827 198.001C136.492 198.064 136.117 198.068 135.734 198.073C134.964 198.093 134.164 197.964 133.475 197.814C133.215 197.929 135.317 198.517 133.69 198.313C132.092 197.642 130.589 196.703 128.672 194.803C129.56 195.541 130.491 196.174 131.501 196.569C130.988 196.1 131.396 196.253 131.779 196.403C132.186 196.524 132.586 196.616 132.089 196.237C133.515 196.969 134.684 197.189 135.952 197.22C136.021 197.093 136.095 196.957 136.191 196.784C134.927 196.83 133.977 196.638 133.233 196.363C132.711 196.131 132.741 195.944 132.661 195.816C132.625 195.739 132.566 195.661 132.42 195.55C132.274 195.44 132.061 195.253 131.675 195.033C131.258 194.875 131.151 195.036 130.825 194.987C130.658 194.976 130.437 194.877 130.101 194.636C129.753 194.414 129.309 193.998 128.728 193.297C128.711 193.169 128.67 192.922 128.622 192.614C128.125 192.267 127.727 191.94 127.359 191.637C127.01 191.314 126.691 191.022 126.375 190.737C126.705 191.346 127.014 191.969 127.485 192.667C126.711 191.735 126.746 191.687 126.43 190.8C126.283 190.323 126.136 189.846 125.969 189.32C125.843 188.774 125.677 188.193 125.534 187.488C125.283 187.577 125.163 187.717 124.969 187.666C124.783 187.612 124.531 187.365 124.311 187.211C123.563 184.985 123.338 183.388 123.245 182.031C123.144 180.675 123.16 179.554 123.074 178.164C123.66 179.277 124.305 180.773 124.762 180.451C123.744 177.545 123.782 177.512 123.474 175.414C123.58 175.55 123.678 175.689 123.866 175.929C123.531 174.244 123.627 172.283 123.27 171.056C123.27 171.056 123.269 170.658 123.292 170.262C123.309 169.875 123.336 169.493 123.349 169.513C123.635 170.017 123.916 170.678 124.17 171.174C124.689 168.916 124.89 165.094 125.286 161.088C125.067 160.481 124.873 159.884 124.672 159.288L124.695 159.165C124.069 161.77 124.164 165.735 124.145 169.323C123.864 168.872 123.602 168.464 123.345 168.047C123.326 167.037 123.327 166.224 123.294 165.522C123.101 161.295 123.263 156.959 123.797 152.488C123.855 151.927 123.947 150.95 123.918 150.778C123.715 149.66 124.06 147.697 124.255 145.999C124.204 145.802 124.145 145.606 124.111 145.506C124.43 143.62 124.733 141.855 125.091 140.186C124.998 139.796 124.943 139.553 124.888 139.309C125.33 137.688 125.703 136.226 126.159 134.781L126.169 134.247C125.661 135.37 125.188 136.507 124.64 137.867C124.645 137.249 124.639 136.563 124.645 135.68C125.077 134.686 125.365 134.041 125.748 133.162C125.809 132.1 125.925 131.125 126.023 130.022C126.242 129.294 126.499 128.502 126.553 128.347C127.28 127.496 127.887 126.784 128.639 125.911C128.714 124.837 128.769 124.082 128.825 123.302C129.046 123.159 129.235 122.587 129.558 121.598C129.616 121.427 129.921 121.121 130.145 120.837C130.382 119.605 130.538 118.729 130.803 117.724C130.912 117.297 131.309 116.172 131.373 116.085C132.028 115.197 132.818 112.44 133.522 111.563C133.57 111.504 134.244 109.784 134.281 109.501C134.401 108.603 134.845 107.84 135.382 106.89C135.7 106.331 136.026 105.716 136.292 105.264C137.425 101.685 139.147 99.4436 140.819 96.9188C140.888 96.3389 140.955 95.9001 141.002 95.599C143.103 91.7063 145.221 88.215 147.663 84.7024C147.839 84.6569 148.07 84.6126 148.181 84.5842C148.958 83.5945 149.688 82.664 150.402 81.7611C151.152 80.8799 151.868 80.0154 152.615 79.1508C152.704 78.9795 152.851 78.6995 152.999 78.4268C153.597 77.9521 154.148 77.2707 154.73 76.6128C155.32 75.9604 155.907 75.2933 156.514 74.7929C156.888 75.4844 156.886 75.477 157.46 74.9696C157.571 74.6129 157.545 74.362 157.837 73.857C158.171 73.271 159.386 72.0666 160.146 71.6749C161 71.196 161.92 70.5443 162.959 69.8384C163.993 69.0866 165.103 68.292 166.33 67.4047C166.138 68.1178 167.752 67.1225 170.335 65.7281C167.391 67.7546 165.138 69.6961 163.014 71.7757L163.212 71.7245C163.853 71.2072 164.504 70.6954 165.132 70.1893C165.787 69.7233 166.421 69.2703 167.037 68.8376C167.586 68.5393 168.158 68.3289 168.706 68.0857C169.257 67.8571 169.794 67.6011 170.349 67.3871C170.99 66.8076 171.53 66.3242 172.069 65.8336C171.703 65.9908 171.166 66.2156 169.938 66.7363C170.916 66.2179 171.693 65.7746 172.452 65.4067C173.223 65.0588 173.943 64.7241 174.783 64.3426C173.975 64.1537 173.189 63.9902 172.445 63.8392C173.421 63.3135 174.305 62.827 175.254 62.4409C176.435 61.7997 180.554 61.0149 180.308 61.3049C179.994 61.6047 180.295 61.6204 180.818 61.524C181.345 61.4423 182.11 61.1898 182.757 61.1474L182.654 61.1739C182.715 60.9864 182.774 60.7915 182.822 60.6151C183.419 60.5309 184.001 60.4506 184.581 60.3629C185.169 60.3356 185.75 60.3103 186.33 60.2849C186.624 60.2713 186.915 60.243 187.207 60.2533C187.501 60.2708 187.793 60.281 188.088 60.2986C188.678 60.341 189.284 60.3245 189.886 60.4108C190.265 60.633 190.476 60.8126 190.925 61.0084C191.174 61.1235 192.025 61.3249 192.237 61.3872C192.705 61.4692 193.324 61.504 193.237 61.4094C192.693 60.9101 194.296 61.4477 195.327 61.8913C194.935 61.86 194.558 61.8248 194.178 61.8062C193.795 61.8115 193.413 61.8167 193.038 61.82C195.175 63 198.02 64.4028 201.501 66.5699C202.301 67.2998 202.833 67.9037 203.433 68.5602C204.092 68.6863 204.353 68.3613 205.306 69.0201C205.956 69.4452 206.562 69.8504 207.165 70.2411C207.708 70.6157 208.204 70.901 208.632 71.0713C208.817 71.4528 208.901 71.6263 208.992 71.7978C210.124 72.7539 211.312 73.5628 212.315 75.411L212.344 75.3411ZM157.429 121.864C157.312 120.598 157.582 120.942 158.294 123.482C158.189 123.923 157.623 122.766 158.027 124.933L157.636 124.207C157.139 123.227 157.074 123.548 157.575 125.94C156.911 124.371 156.761 123.005 156.568 121.564C156.144 120.682 155.774 119.919 155.375 119.07C155.292 118.147 155.617 118.585 155.916 119.015C156.208 119.447 156.487 119.859 156.395 118.837C157.011 120.403 157.347 121.791 157.258 122.415C157.161 123.128 157.605 123.785 157.666 124.355C157.592 123.523 157.484 122.591 157.438 121.869L157.429 121.864ZM154.557 114.793C154.535 115.04 154.506 115.29 154.471 115.697C153.882 113.999 153.405 112.546 152.83 111.204C152.273 109.778 151.578 108.483 151.182 107.618C150.773 106.099 150.479 105.083 150.059 103.732C150.261 104.03 150.685 104.67 150.837 105.045C151.679 107.059 152.339 108.731 153.15 109.809C153.154 109.824 153.349 110.484 153.454 110.831C153.552 110.907 153.7 111.025 153.879 111.174C154.281 112.272 154.614 113.318 154.942 114.373C154.819 114.561 154.695 114.749 154.579 114.935L154.559 114.8L154.557 114.793ZM219.435 84.9818C220.416 86.8669 221.236 88.583 222.055 90.5098C221.552 90.2888 220.983 89.4836 219.943 87.7622C219.274 86.5691 218.406 85.2403 218.157 84.1884C218.576 84.4468 219.014 84.7161 219.427 84.9837L219.435 84.9818ZM51.1344 173.907C50.7163 175.499 50.3291 177.27 49.6821 179.943C49.9139 178.025 50.2185 176.51 50.0171 176.125C49.7972 175.729 50.3407 173.473 50.9794 170.677C51.0404 171.941 51.0861 172.874 51.1417 173.906L51.1344 173.907ZM60.5739 136.928C59.8027 138.244 59.0497 139.54 58.3294 140.78C58.5209 139.614 58.9607 138.954 59.3018 138.124C59.6356 137.296 59.9315 136.322 60.4555 134.898C60.7602 134.835 61.0374 134.786 61.3273 134.727C61.0199 135.626 60.7969 136.277 60.5758 136.936L60.5739 136.928ZM154.068 110.571C152.828 106.989 152.742 106.808 154.018 107.687C154.058 108.114 154.079 108.343 154.106 108.57C154.12 108.777 154.142 108.983 154.168 109.296C154.546 110.088 154.843 110.722 155.515 112.14C154.883 111.453 154.472 111.013 154.068 110.571ZM161.934 130.378C161.807 130.583 161.682 130.795 161.493 131.093C161.255 128.54 160.99 126.368 160.617 123.927C161.599 126.452 161.518 128.347 161.934 130.378ZM126.766 81.2187C126.017 80.866 125.347 80.454 124.657 80.2108C123.979 79.9492 123.321 79.6746 122.655 79.433C122.758 79.4064 122.854 79.4129 122.955 79.4102C124.835 79.8994 126.725 80.394 129.016 81.5341C128.665 81.4767 128.32 81.4175 127.952 81.3566C127.772 81.3252 127.584 81.2957 127.389 81.2681C127.191 81.257 126.983 81.2406 126.759 81.2206L126.766 81.2187ZM132.422 82.7449C132.968 83.0407 133.482 83.3294 133.972 83.5927C134.22 83.7316 134.467 83.8706 134.692 84.0153C134.914 84.1764 135.136 84.3376 135.349 84.4934C135.776 84.8123 136.181 85.1368 136.565 85.4744C136.943 85.8139 137.266 86.2143 137.585 86.6002C137.321 86.4265 136.975 86.1491 136.607 85.8462C136.221 85.5637 135.808 85.2722 135.433 85.0023C134.692 84.4681 134.079 84.1271 134.119 84.4604L133.417 83.9863C133.081 83.5658 132.752 83.1434 132.427 82.7356L132.422 82.7449ZM65.8499 118.591C66.0847 118.289 66.4965 117.823 66.4712 117.876C66.0655 118.91 65.6304 119.952 65.1319 121.111C64.9622 121.514 64.436 122.416 64.2175 122.691C64.0937 122.848 64.1853 122.324 64.3437 121.878C64.619 121.096 65.0382 120.144 65.3691 119.426C65.5994 119.015 65.7696 118.675 65.8387 118.579L65.8499 118.591ZM157.329 116.761C156.653 115.538 156.529 116.148 155.574 114.03C155.75 113.711 155.927 113.4 156.127 113.051C156.593 114.43 156.92 115.36 157.329 116.761ZM46.0983 217.132C46.2634 214.17 46.7527 211.311 47.2952 208.446C47.1087 211.476 46.536 214.255 46.0983 217.132ZM74.0829 111.863C73.9598 112.839 73.9229 112.818 72.5559 115.068C73.0151 114.06 73.4724 113.043 74.0829 111.863ZM225.002 65.3517C225.649 64.6455 226.18 64.0321 226.685 63.5033C227.199 62.9798 227.657 62.5101 228.115 62.0403L228.187 62.1698C227.72 62.7827 227.252 63.3332 226.728 63.8512C226.225 64.3874 225.671 64.8818 225.006 65.3663L225.002 65.3517ZM200.275 64.3735C200.484 64.7255 200.642 64.9422 200.907 65.4513C200.236 64.977 199.71 64.6682 199.237 64.3534C198.769 64.0294 198.332 63.7913 197.815 63.5191C198.765 63.7728 199.313 64.0136 200.275 64.3735ZM71.3051 117.859C71.2606 118.05 71.2687 118.142 71.2052 118.259C70.4866 119.718 69.798 121.02 69.6806 120.325C70.4056 119.224 70.8544 118.538 71.2978 117.861L71.3051 117.859ZM137.099 89.9577C136.539 89.2129 135.909 88.6263 136.425 88.7427C136.939 89.2185 137.332 89.6788 137.492 89.934C137.651 90.182 137.57 90.234 137.099 89.9577ZM156.186 112.646C156.186 112.646 156.122 112.155 156.185 112.217C156.498 112.549 156.817 113.45 157.108 114.937C156.801 114.173 156.495 113.417 156.186 112.646ZM43.6124 198.813L43.7855 198.604L43.3534 201.987L43.1749 202.205L43.6124 198.813ZM195.977 62.012C196.284 62.0807 196.525 62.1354 196.733 62.1831C196.929 62.2418 197.093 62.3008 197.275 62.3707C197.753 62.5828 198.287 62.8035 199.313 63.3187C198.719 63.1682 198.203 63.0518 197.69 62.8254C197.172 62.6081 196.655 62.3048 195.982 62.0028L195.977 62.012ZM159.125 128.388C159.114 128.344 158.909 127.492 158.903 127.47C158.947 127.217 159.001 127.031 159.06 126.836L159.352 127.963C159.276 128.123 159.213 128.303 159.125 128.388ZM139.965 86.8429C139.538 86.282 139.273 86.0461 139.334 86.007C139.376 85.9883 139.73 86.1776 140.361 86.6469C140.209 86.7252 140.104 86.7757 139.972 86.841L139.965 86.8429ZM149.917 107.874C149.957 108.028 150.061 108.337 150.033 108.321C149.955 108.263 149.833 108.092 149.731 107.97C149.689 107.809 149.64 107.65 149.565 107.419C149.682 107.569 149.808 107.723 149.912 107.884L149.917 107.874ZM136.468 88.185L136.715 88.4413L136.023 88.0973L135.732 87.7901L136.47 88.1923L136.468 88.185ZM155.094 121.555C155.094 121.555 155.159 121.928 155.194 122.122L154.722 121.237L154.637 120.697C154.788 120.978 154.941 121.266 155.101 121.553L155.094 121.555ZM76.2807 109.858C76.3228 109.839 76.0007 110.5 75.9569 110.543C75.7256 110.829 75.5124 111.064 75.35 111.223C75.319 111.254 75.5216 110.827 75.6951 110.439C75.9486 110.178 76.169 109.91 76.2734 109.86L76.2807 109.858ZM48.3467 178.353L48.4184 178.357L47.7761 181.17L47.7115 181.132L48.3467 178.353Z" fill="black"/>
</svg>
