<svg id="person-thinking" width="213" height="266" fill="none" xmlns="http://www.w3.org/2000/svg">
  <path
    d="M192.194 241.474c-6.365 0-12.161 1.231-15.961 3.125-3.895-2.083-10.64-3.788-19.001-4.83-5.89-.757-6.08-4.829-36.102-4.829-30.02 0-10.26 4.072-19 4.261-5.226.095-63.083.284-63.083.284L17.766 250.47h50.542c10.545 0 25.366-.189 30.211-.189 4.846 0 8.931 2.178 2.566 2.556-4.307.19-7.41.348-9.31.474-11.972.852-26.222 9.659-26.222 11.079 0 .947 23.371-3.882 23.371-3.882 16.436 2.272 41.517 4.545 60.043 4.545 27.741 0 27.646-5.492 30.591-7.765 3.515 1.136 7.886 1.799 12.636 1.799 11.495 0 20.806-3.882 20.806-8.712 0-4.829-9.311-8.712-20.806-8.712v-.189Z"
    fill="#BFBFBF" style="mix-blend-mode:multiply"/>
  <path
    d="M44.652 51.325s-5.89-4.64-10.355 0c-4.465 4.64-12.636 33.238-15.486 30.871-2.85-2.367-12.73-28.125-5.32-37.973 7.41-9.754 7.41-.379 11.02-6.155 4.085-6.345-6.46-10.511-11.115-8.712C4.276 32.67.38 44.886 0 53.598c-.38 9.375 2.565 18.181 4.845 27.177 1.805 7.008 4.75 13.637 10.926 17.898 14.346 10.038 28.121-39.015 28.786-47.443l.095.095Z"
    fill="#404040"/>
  <path d="M73.628 35.09c6.216-13.557 2.473-28.547-8.36-33.482-10.833-4.934-24.654 2.055-30.87 15.612-6.215 13.557-2.472 28.547 8.361 33.481 10.833 4.935 24.654-2.055 30.87-15.612Z" fill="#404040"/>
  <path
    d="M47.027 46.874c-5.7 1.042-9.69 5.777-11.21 11.27-.95 3.598-.57 7.764-.76 11.457-.285 4.167-.475 8.428-.855 12.595-1.235 16.856-3.04 33.617-5.51 50.283-.476 3.125-.95 6.345-1.52 9.47-1.806 10.511-3.8 20.927-4.37 31.533-.476 10.606.474 21.118 1.14 31.723.474 8.428.76 16.951.854 25.379 0 1.894 0 3.788-.665 5.587-2.375 6.06-11.115 7.007-14.725 12.5-.475.663-.855 1.515-.76 2.367.095 1.421 1.425 2.462 2.755 3.125 10.26 5.398 25.08 1.042 29.071-9.754 1.805-4.829 1.425-10.037 1.045-15.151-1.71-23.2-3.515-46.685.95-69.506.57-3.125 1.52-6.534 3.99-8.523 2.47-1.989 7.03-1.705 8.076 1.326-3.8 27.177 1.71 55.491 15.295 79.355 2.85 5.113 6.176 11.363 3.04 16.382-2.66 4.261-9.5 6.345-9.12 11.363.285 2.841 3.04 4.83 5.795 5.682 8.836 2.746 19.191-2.651 22.421-11.174.856-2.273 1.33-4.735.95-7.102-.38-2.368-1.425-4.546-2.47-6.629-8.075-16.193-16.815-32.764-17.386-50.757-.57-14.488 4.18-28.503 6.556-42.707 2.85-17.33 2.28-35.038.57-52.462-1.52-15.814-4.94-33.238-17.671-42.897-4.37-3.314-9.785-5.398-15.2-4.64h-.476l.19-.095Z"
    fill="#404040"/>
  <path d="M63.558 52.65s25.176 20.55 32.111 51.421c6.936 30.87 10.736 51.609 1.33 53.787-9.405 2.178-11.02-6.629-7.885-15.909 3.135-9.28-2.85-32.481-6.27-41.193-3.42-8.712-20.331-25.946-21.946-31.25-1.615-5.302-6.746-14.772 2.66-16.855Z"
        fill="#404040"/>
</svg>
