<svg id="person-pointing" width="226" height="266" fill="none" xmlns="http://www.w3.org/2000/svg"><path d="M204.923 243.003c-6.238 0-11.917 1.21-15.642 3.073-3.817-2.049-10.427-3.725-18.62-4.749-5.773-.745-5.959-4.748-35.38-4.748-29.421 0-10.056 4.003-18.621 4.19-5.121.093-82.677.279-82.677.279v10.8s70.015 6.704 70.015 8.1c0 .931 40.407 6.145 58.562 6.145 27.187 0 27.094-5.4 29.98-7.635 3.445 1.118 7.728 1.769 12.383 1.769 11.266 0 20.39-3.817 20.39-8.565 0-4.749-9.124-8.566-20.39-8.566v-.093Z" fill="#BFBFBF" style="mix-blend-mode:multiply"/><path d="M107.526 44.838c5.285-13.668.744-28.162-10.143-32.371-10.887-4.21-23.997 3.458-29.282 17.127-5.285 13.668-.744 28.161 10.143 32.371 10.887 4.21 23.997-3.458 29.282-17.127Z" fill="#404040"/><path d="M74.39 53.535c-5.586 1.024-9.496 5.68-10.986 11.08-.93 3.538-.558 7.634-.745 11.265-.279 4.097-.465 8.287-.837 12.383-1.21 16.573-2.98 33.052-5.4 49.439-.466 3.072-.932 6.238-1.49 9.31-1.77 10.335-3.724 20.576-4.283 31.004-.466 10.428-.931 18.993-2.886 29.235a367.31 367.31 0 0 1-5.307 24.393c-.466 1.769-.931 3.631-1.955 5.121-3.725 5.214-12.197 4.097-16.945 8.38-.652.558-1.118 1.21-1.304 2.048-.186 1.396.838 2.7 1.862 3.631 8.473 7.541 23.556 6.983 29.98-2.421 2.793-4.096 3.724-9.217 4.562-14.245 3.91-22.531 6.797-47.483 11.173-69.921.558-3.073 1.49-6.425 3.91-8.38 2.42-1.955 6.89-1.676 7.914 1.304-3.724 26.721-5.028 57.911 20.017 68.059 5.307 2.142 11.732 5.028 12.29 10.707.559 4.935-3.445 10.707 0 14.245 1.955 2.048 5.307 1.862 7.914.838 8.473-3.259 13.128-13.686 10.428-22.252-.745-2.234-1.862-4.469-3.631-6.052-1.676-1.582-3.818-2.607-5.959-3.631-16.014-7.634-22.159-7.914-22.81-25.604-.56-14.245 4.096-28.024 6.424-41.99 2.793-17.038 2.234-34.448.558-51.58-1.489-15.548-4.841-32.68-17.317-42.176-4.283-3.259-9.59-5.307-14.897-4.562h-.466l.187.372Z" fill="#404040"/><path d="M89.846 59.773s28.117 17.783 36.683 47.763c8.566 29.98 4.376 52.604-5.028 53.907-9.403 1.304-10.241-7.355-6.424-16.2 3.817-8.845.373-31.004-3.445-39.383-3.817-8.38-21.32-24.3-23.276-29.421-1.955-5.12-7.448-14.152 1.583-16.666h-.093ZM79.511 73.739c-.93.838-6.89-.745-7.914-.838-6.517-1.024-12.941-2.7-19.086-5.028-12.197-4.655-23.09-12.383-31.842-22.159-7.262-8.1-11.545-15.455-16.573-25.231-2.42-4.655-6.703-13.5-1.862-17.97 6.983-6.423 12.57.187 14.525 9.684 1.21 6.145 6.052 12.476 9.776 17.41 4.19 5.587 6.238 8.659 11.824 12.849a60.277 60.277 0 0 0 18.155 9.03c5.307 1.584 12.756 2.7 16.945 6.518 4.004 3.724 12.942 9.31 6.052 15.642v.093Z" fill="#404040"/></svg>
