<svg width="195" height="266" fill="none" xmlns="http://www.w3.org/2000/svg"><path d="M175.659 243.861c-5.705 0-10.899 1.107-14.305 2.81-3.491-1.873-9.537-3.406-17.03-4.342-5.279-.681-5.449-4.343-32.356-4.343-26.906 0-9.195 3.662-17.029 3.832-4.683.085-12.772.851-12.772.851l-7.067 9.452s22.394-.426 26.736-.426c4.342 0 8.004 1.958 2.299 2.299-5.79.255-63.18.255-65.734.426-10.728.766-4.002 10.303-4.002 11.495 0 .851 20.947-3.491 20.947-3.491 14.73 2.043 64.967 2.469 81.571 2.469 24.863 0 24.777-4.939 27.417-6.982 3.15 1.022 7.067 1.618 11.325 1.618 10.302 0 18.647-3.491 18.647-7.834 0-4.342-8.345-7.834-18.647-7.834Z" fill="#BFBFBF" style="mix-blend-mode:multiply"/><path d="M69.001 71.868c9.116-5.555 10.851-19.336 3.876-30.78-6.974-11.445-20.018-16.219-29.133-10.663-9.116 5.555-10.851 19.336-3.876 30.78C46.842 72.65 59.886 77.424 69 71.868Z" fill="#404040"/><path d="M61.39 68.884c5.11.936 8.686 5.194 10.048 10.132.852 3.236.511 6.982.681 10.303.256 3.747.426 7.578.767 11.325 1.107 15.156 2.724 30.227 4.938 45.213.426 2.81.852 5.705 1.363 8.515 1.617 9.451 3.406 18.817 3.916 28.354.426 9.536-.425 18.988-1.021 28.524a510.524 510.524 0 0 0-.767 22.819c0 1.703 0 3.406.596 5.024 2.129 5.45 9.963 6.301 13.198 11.24.426.596.766 1.362.681 2.128-.085 1.277-1.277 2.214-2.469 2.81-9.196 4.854-22.479.937-26.055-8.77-1.618-4.343-1.277-9.026-.937-13.624 1.533-20.861 3.15-41.977-.851-62.498-.511-2.81-1.362-5.875-3.576-7.663-2.214-1.788-6.301-1.533-7.238 1.192 3.406 24.437-1.532 49.896-13.709 71.354-2.554 4.597-5.534 10.217-2.724 14.73 2.384 3.832 8.514 5.705 8.174 10.218-.255 2.554-2.725 4.342-5.194 5.109-7.919 2.469-17.2-2.385-20.095-10.048-.766-2.043-1.192-4.257-.851-6.386.34-2.129 1.277-4.087 2.213-5.96 7.238-14.56 15.072-29.461 15.582-45.639.511-13.028-3.746-25.629-5.875-38.402-2.554-15.581-2.043-31.504-.51-47.171 1.362-14.22 4.427-29.887 15.837-38.572 3.917-2.98 8.77-4.853 13.623-4.172h.426l-.17-.085Z" fill="#404040"/><path d="M66.16 88.468S88.722 72.8 96.556 47.255c7.833-25.63 12.431-42.829 4.683-45.213C93.492-.34 91.533 6.896 93.577 14.9c2.043 8.004-4.513 27.162-8.004 34.23-3.406 7.067-18.732 20.52-20.52 24.863-1.789 4.342-6.642 12.005 1.106 14.39v.085ZM48.278 90.597S21.201 77.314 8.344 50.747C-4.428 24.183-.68 4.854 7.322.938 15.326-2.98 22.564 5.96 17.796 13.708c-7.408 12.005-2.13 30.227 2.81 37.38 4.938 7.151 18.732 19.583 23.84 20.35 4.513.68 11.921-.682 16.349-.767 4.428-.085-7.067 17.285-12.517 19.925Z" fill="#404040"/></svg>
