<svg width="293" height="37" viewBox="0 0 293 37" fill="none" xmlns="http://www.w3.org/2000/svg" preserveAspectRatio="none">
<path d="M259.146 30.1767C260.544 29.8611 255.877 30.068 258.976 29.5966C258.33 29.5647 257.679 29.5318 257.033 29.5C256.869 29.6746 256.701 29.8488 256.537 30.0233C257.405 30.0748 258.274 30.1262 259.146 30.1776C259.146 30.1773 259.146 30.177 259.146 30.1767ZM260.331 32.3633C259.535 31.8653 257.008 31.7325 259.738 31.273C259.955 31.4439 260.177 31.6147 260.394 31.7857C261.342 31.6531 262.296 31.5206 263.244 31.3888C263.584 31.4539 263.925 31.5191 264.266 31.5836C264.7 31.2866 265.13 30.9888 265.564 30.6911C265.179 30.7346 264.788 30.7788 264.403 30.8223C262.879 30.5811 261.523 30.5151 259.455 30.4702C259.637 30.4 259.819 30.3303 260 30.26C258.951 30.3796 257.901 30.4994 256.856 30.6189C257.764 30.7362 258.779 30.8667 259.62 30.9761C258.274 31.4417 255.899 31.1826 254.663 31.0854C252.98 30.9529 253.36 31.1743 252.111 31.0816C251.912 31.0671 251.889 30.8935 251.495 30.8906C249.506 30.8768 245.644 30.9688 247.903 31.3738C251.176 31.3216 253.968 31.6468 257.179 31.528C256.33 31.9963 258.022 32.1556 260.331 32.3633ZM200.194 30.8722C201.186 31.0997 203.207 31.0079 204.575 30.85C204.577 30.85 204.578 30.85 204.58 30.85C204.881 30.8153 205.563 30.513 204.58 30.5253C202.977 30.5464 202.202 31.0222 201.36 30.6992C200.984 30.7593 200.588 30.8128 200.194 30.8722ZM196.71 30.844C195.727 30.9607 196.173 31.3192 197.404 31.2221C197.404 31.2224 197.404 31.2227 197.404 31.223C197.918 31.1824 196.909 30.8991 198.752 31.1867C199.128 30.9629 199.499 30.7594 199.871 30.5428C199.42 30.5392 199.008 30.5334 198.535 30.5305C198.853 30.8982 197.693 30.7283 196.71 30.844ZM246.241 31.1713C246.086 30.8404 246.734 30.8425 247.837 30.6129C246.796 30.6238 245.755 30.6354 244.718 30.6462C245.227 30.8215 245.732 30.9961 246.241 31.1713ZM270.574 31.0039C270.576 31.0038 270.577 31.0037 270.579 31.0037C270.912 31.035 271.241 31.0637 271.573 31.088C271.76 30.9542 271.94 30.8202 272.125 30.6841C273.282 30.6858 274.442 30.6442 275.588 30.5445C275.389 30.2266 273.378 30.6104 272.218 30.4533C270.549 30.7193 269.728 30.9457 269.631 31.2602C269.945 31.1778 270.26 31.0919 270.574 31.0039ZM3.44193 10.9306C3.54187 10.5277 3.64191 10.1298 3.74185 9.72679C3.78745 10.2626 3.82227 10.7941 3.87512 11.3343C3.44052 12.7472 3.82495 12.8799 3.79825 14.7311C3.71564 20.4053 3.04062 18.8999 4.02936 24.0244C3.98233 19.91 4.44693 21.4912 4.80478 19.0107C4.53238 18.4969 3.91806 20.9548 3.79056 19.2892C4.07883 16.4193 4.34732 13.6595 4.53348 10.4751C4.58057 10.5681 4.62781 10.6606 4.6749 10.7536C4.6452 11.2586 4.61533 11.7594 4.5856 12.2643C4.71167 11.7195 4.83664 11.1869 4.96414 10.6332C4.67801 11.333 4.83789 9.54947 4.50913 9.78816C4.36279 9.89448 4.15979 10.6827 4.01996 11.1478C3.94391 9.94763 3.87424 8.71667 3.80039 7.50318C3.68378 8.13195 3.56705 8.76017 3.45047 9.38451C3.44684 9.89805 3.44428 10.4077 3.44064 10.9212C3.44107 10.9244 3.4415 10.9275 3.44193 10.9306ZM253.395 4.96327C251.871 4.62278 249.102 4.56644 247.644 4.94533C249.562 4.95112 251.477 4.95748 253.395 4.96327ZM269.529 31.5171C269.696 31.4519 269.856 31.3869 270.019 31.3204C269.273 31.252 268.527 31.1698 267.784 31.0745C267.645 31.244 267.501 31.4132 267.354 31.5812C268.08 31.572 268.809 31.5507 269.529 31.5171ZM220.856 31.3909C221.413 31.401 221.462 31.3955 222.156 31.3717C222.156 31.3718 222.155 31.372 222.154 31.3721C222.429 31.3632 224.731 31.2655 224.475 31.1367C223.332 31.1345 222.113 31.1367 220.943 31.1367C220.908 31.2214 220.9 31.3055 220.856 31.3909ZM234.308 31.3157C234.31 31.3154 234.312 31.3151 234.313 31.3148C234.729 31.2953 235.123 31.2555 235.552 31.2482C234.007 31.0455 233.763 31.4092 232.359 31.3063C230.955 31.2027 230.087 31.0021 228.896 31.5003C229.339 31.5749 229.816 31.6816 230.272 31.7686C232.265 31.5694 232.802 31.7568 234.4 31.9531C234.369 31.7402 234.339 31.5287 234.308 31.3157ZM6.19293 31.5502C6.57379 31.7965 6.9986 31.5548 7.04272 31.5519C7.04193 31.5517 7.04114 31.5514 7.04034 31.5511C10.4143 31.7792 6.60123 31.4147 9.78564 31.3763C9.31183 31.3148 8.84579 31.2498 8.3764 31.1875C7.65021 31.3063 6.90143 31.4409 6.19293 31.5502ZM115.822 31.5272C115.853 31.4554 115.89 31.3836 115.921 31.3118C114.008 31.3285 113.52 31.0462 111.93 31.3033C113.227 31.3786 114.525 31.4534 115.822 31.528C115.822 31.5277 115.822 31.5275 115.822 31.5272ZM211.211 31.9125C213.333 32.0495 214.902 32.1098 216.94 31.8925C216.941 31.8922 216.943 31.8919 216.944 31.8916C217.062 31.8782 216.494 31.7282 216.647 31.6904C217.067 31.7128 217.502 31.7473 217.926 31.7741C217.984 31.654 218.039 31.5338 218.096 31.4144C216.9 31.4484 215.704 31.4825 214.504 31.5165C214.681 31.4462 214.862 31.3766 215.04 31.3063C214.021 31.2701 213.006 31.234 211.987 31.1978C212.342 31.3948 212.695 31.5918 213.045 31.7895C212.434 31.8308 211.822 31.8705 211.211 31.9125ZM83.9648 32.312C84.3015 32.2337 83.6782 32.1025 84.2009 32.0351C84.7237 31.9686 85.6873 32.1146 85.4614 31.8937C84.7576 31.864 84.0185 31.83 83.3015 31.7989C85.6092 31.4005 87.9116 31.761 87.947 31.2691C85.7322 31.3966 83.9111 31.3374 81.7672 31.2012C81.8558 31.5916 84.0002 31.9292 82.65 32.2957C83.0838 32.3008 83.5396 32.3082 83.9601 32.3111C83.9617 32.3114 83.9632 32.3117 83.9648 32.312ZM292.155 14.237C291.955 12.6991 290.812 8.94375 289.224 7.36046C288.875 6.92644 287.178 6.14451 287.117 6.24883C286.943 6.51205 288.232 7.96499 286.646 6.59312C287.143 7.08468 287.58 7.60744 287.988 8.16794C287.74 8.1968 287.495 8.23187 287.255 8.27593C286.786 7.6241 286.25 7.01396 285.662 6.46103C285.586 6.48929 285.509 6.51832 285.433 6.54769C287.495 8.51398 286.099 7.54655 286.83 8.79263C285.934 7.83204 284.882 7.03957 283.767 6.44465C284.38 6.83504 285.049 7.37588 285.516 7.8185C285.328 8.12093 284.276 7.06452 284.012 6.98652C283.304 6.73917 284.549 7.54516 285.598 8.86088C286.685 10.1551 287.366 11.9822 287.204 12.3384C286.748 11.3309 286.13 10.3573 285.393 9.54148C285.539 9.82776 285.673 10.122 285.79 10.416C287.441 12.2021 288.324 15.0582 288.521 18.0768C288.526 18.157 288.532 18.237 288.537 18.3168C288.518 18.5964 288.494 18.8784 288.465 19.1537C288.303 19.063 288.142 18.9778 287.98 18.892C287.943 19.3046 287.894 19.7152 287.829 20.1202C288.456 18.959 288.454 20.6444 288.202 22.7646C288.714 21.7339 288.764 20.3113 289.105 20.4508C288.571 23.7995 286.821 27.6874 283.726 29.4948C283.268 29.781 282.797 30.0234 282.325 30.2238C281.436 30.5689 281.281 30.2163 279.251 30.9625C279.337 30.9879 279.378 31.0709 279.444 31.1191C275.749 32.0252 273.451 32.1301 269.511 32.5728C269.735 32.3973 269.949 32.2203 270.166 32.0424C271.002 32.0798 271.842 32.0999 272.676 32.0964C273.21 31.753 272.378 31.7706 274.813 31.4234C276.796 31.0832 275.634 31.4045 276.191 31.3843C276.944 31.3452 277.527 30.986 278.321 30.8907C278.933 30.8033 278.371 31.242 279.882 30.6675C279.173 30.6118 278.463 30.5133 277.775 30.3899C277.424 30.5518 277.066 30.7074 276.706 30.8555C277.102 30.8479 277.497 30.8316 277.896 30.8062C276.524 31.0245 275.211 31.1334 273.771 31.1784C274.293 31.5369 272.792 31.5769 271.976 31.5919C270.708 31.6189 271.813 31.8223 270.98 31.836C270.143 31.8428 269.229 31.57 267.729 31.6641C268.538 31.8385 267.444 32.0263 267.658 32.1962C267.871 32.3701 269.49 32.3679 267.942 32.5938C267.15 32.5691 266.8 32.4921 266.666 32.4021C266.562 32.331 266.597 32.2498 266.666 32.168C266.806 32.0029 267.085 31.8351 266.666 31.7453C266.556 31.7217 266.397 31.7034 266.175 31.6917C263.739 31.5627 263.16 32.6418 263.886 32.8738C264.373 33.0297 265.878 33.0257 266.666 33.1343C266.802 33.153 266.917 33.1745 267.002 33.2007C266.887 33.2119 266.775 33.2218 266.666 33.2305C263.475 33.488 263.427 32.8777 262.845 32.755C260.657 32.2936 262.126 33.5252 259.535 33.0797C259.584 33.31 259.623 33.5172 259.672 33.7381C259.225 33.6961 258.928 33.6402 258.388 33.6069C259.981 33.1582 258.677 33.1774 258.008 33.1767C256.954 33.1752 258.582 32.9564 258.303 32.8999C257.55 32.7486 256.359 32.8173 257.09 32.6196C256.762 32.7116 256.407 32.8039 256.07 32.8952C254.838 32.7805 251.944 31.8192 254.699 32.0134C254.442 31.6562 253.55 31.8279 252.855 31.8822C252.16 31.9365 252.173 31.709 251.561 31.751C249.13 31.9191 250.72 32.3082 251.106 32.6132C247.895 32.4031 251.038 32.2641 246.411 32.1236C245.963 31.8751 248.102 31.61 246.321 31.4665C245.993 31.8982 244.682 32.2083 242.126 32.3517C241.878 32.2525 241.631 32.1523 241.383 32.0531C239.988 32.4515 240.701 32.8659 238.118 32.3718C239.505 33.281 238.551 32.6993 236.239 33.0695C235.77 33.1441 236.855 33.3327 236.199 33.4283C235.902 33.4715 235.181 33.3291 234.455 33.439C234.1 33.4933 232.444 33.8439 231.296 33.6774C232.138 33.2369 229.958 32.8622 231.827 32.4978C228.372 32.5877 225.954 32.3762 229.826 32.9768C228.949 33.1101 228.071 33.2428 227.194 33.3754C226.583 33.2703 225.966 33.1661 225.35 33.0618C225.257 33.4238 225.351 33.5253 222.943 33.4617C223.987 33.5471 225.028 33.634 226.077 33.7201C226.113 33.7932 226.259 33.8692 226.224 33.9401C224.938 33.8011 221.32 33.7413 220.443 33.6449C219.566 33.5486 221.259 33.5222 221.007 33.4288C218.903 32.6581 219.07 33.2265 217.561 33.0942C216.675 33.016 218.79 32.931 218.316 32.8977C216.559 32.7756 215.743 33.1851 214.185 33.1904C214.739 32.9579 215.288 32.7218 215.828 32.4872C214.193 32.4995 212.371 32.5015 210.852 32.4269C210.256 32.3978 210.706 32.2249 210.609 32.2133C210.126 32.1539 208.159 32.0598 207.951 32.0591C206.384 32.0577 206.339 32.2972 204.816 32.3103C205.414 32.3306 205.976 32.3488 206.561 32.3684C206.826 32.7566 207.097 33.1449 207.363 33.5339C205.871 33.5621 204.377 33.5898 202.881 33.618C203.974 33.4884 205.072 33.3593 206.166 33.2297C204.457 32.916 202.747 32.6016 201.037 32.2872C200.147 32.4799 199.26 32.6726 198.37 32.8652C195.952 32.8144 196.439 32.0322 195.291 32.7174C194.579 32.6595 193.866 32.6016 193.153 32.5444C193.255 32.6422 193.355 32.7401 193.457 32.8379C192.598 32.7778 191.739 32.718 190.88 32.6572C191.783 32.3109 192.669 31.9466 193.564 31.6105C191.872 31.5352 191.84 31.829 191.588 31.9023C190.919 32.0964 189.591 31.8345 189.06 32.0142C188.88 32.0759 190.537 32.2693 189.966 32.4923C189.855 32.5355 187.636 33.3553 186.22 33.166C186.247 33.0175 186.356 32.8354 186.414 32.6738C184.51 32.5836 183.539 33.3589 183.791 33.5761C182.777 33.424 181.294 33.4113 181.086 33.1737C180.568 33.1679 180.053 33.1624 179.535 33.1566C180.075 33.7353 177.913 33.6295 177.772 33.1318C178.662 33.1195 179.553 33.1065 180.444 33.0942C179.77 32.4843 182.476 32.1161 176.846 32.6811C175.77 32.9984 178.76 32.6379 177.883 32.8755C176.359 33.0138 174.929 32.8981 173.48 33.119C171.678 33.395 173.895 33.6605 169.696 33.3091C178.959 32.4289 168.426 32.7145 164.076 32.4414C162.88 33.3108 159.206 33.5861 154.148 33.3275C154.675 33.0855 156.266 33.2102 157.183 33.1305C158.1 33.0509 157.108 32.9073 158.25 32.7943C159.393 32.6813 161.819 32.5277 162.976 32.3568C161.996 32.2199 157.161 31.8962 160.358 32.2851C157.972 32.5248 156.851 32.7712 153.893 32.8161C153.007 32.4387 153.072 32.2037 150.189 32.1928C151.894 32.7172 148.618 33.0817 149.339 33.6236C151.384 33.4974 150.241 32.9708 151.424 32.7187C151.545 32.6935 153.45 32.8255 153.893 32.8161C151.97 33.2892 151.305 33.4653 152.488 34.0281C151.128 33.9789 150.282 34.0496 150.158 33.7808C149.875 33.8974 149.59 34.0141 149.311 34.1307C148.868 34.1278 148.47 34.117 148.001 34.1191C148.647 33.7137 147.395 33.9633 146.504 33.7795C145.614 33.5955 146.808 33.2754 144.363 33.2711C145.178 33.1762 145.924 33.0948 146.712 33.0049C145.135 32.9006 143.554 32.7957 141.977 32.6914C143.084 32.4436 145.484 32.0757 145.418 31.7498C144.692 31.8728 142.204 31.6565 141.932 31.6476C140.878 31.6143 141.452 31.8199 141.373 31.8249C139.716 31.9248 138.352 31.8548 137.723 32.1663C136.479 32.0258 135.54 32.1059 134.22 32.0979C133.494 32.0936 133.635 31.8648 133.21 31.9083C130.384 32.198 133.076 32.4936 127.625 31.9309C128.285 31.7715 128.936 31.6085 129.596 31.4477C128.98 31.3876 128.368 31.3271 127.752 31.267C127.34 31.296 126.932 31.3252 126.52 31.3541C126.529 31.6997 126.54 32.0459 126.549 32.3914C126.097 32.4103 125.643 32.4286 125.191 32.4474C125.966 32.4815 126.743 32.5155 127.519 32.5495C127.59 32.6103 127.656 32.6711 127.726 32.7319C126.575 32.8261 125.427 32.9211 124.275 33.016C124.253 32.8959 124.231 32.7748 124.209 32.6546C121.614 32.822 121.552 32.9237 119.085 32.5927C117.184 32.5963 115.637 32.0937 114.538 31.8822C114.144 31.9495 113.749 32.0178 113.351 32.0851C113.098 31.9851 112.843 31.8856 112.591 31.7856C112.09 31.9247 111.583 32.0638 111.082 32.2022C110.803 31.8865 110.659 31.7879 112.612 31.6771C111.943 31.2845 108.505 31.4577 107.105 31.5895C106.043 31.6896 107.221 32.0171 107.088 32.0569C106.645 32.1923 104.895 32.0755 104.527 32.0979C102.973 32.1914 101.883 32.175 100.479 32.2475C100.206 32.262 99.4415 32.4695 99.3766 32.476C98.8717 32.5115 97.6252 32.6124 97.4835 32.6153C90.1718 32.7702 97.9845 31.8698 91.1856 31.9646C91.3893 31.8459 91.5765 31.7279 91.7758 31.6092C91.2622 31.602 90.7432 31.5951 90.2296 31.5878C89.5785 31.6871 90.3662 31.8676 89.073 31.722C89.1571 31.8683 89.2417 32.0147 89.3303 32.1603C88.7677 32.0813 88.2255 32.003 87.6496 31.9241C86.746 32.4319 83.4471 32.5472 83.6816 33.1434C83.7613 33.3462 86.1001 33.5543 84.8642 33.7709C83.86 33.8136 84.5397 33.5713 84.1301 33.5586C81.171 33.4702 81.343 33.8098 80.1337 33.7193C79.9434 33.5737 79.7431 33.4253 79.5483 33.2784C79.0923 33.3211 78.6349 33.3638 78.1745 33.4065C78.0682 33.3087 77.9574 33.2108 77.8511 33.113C78.2807 33.1065 78.7646 33.0999 79.1588 33.0934C78.6091 32.7146 73.5607 32.5444 75.4859 32.8674C76.2698 32.9985 77.7056 32.9428 76.7983 33.3903C75.4473 33.3258 73.9146 33.2599 72.4927 33.1955C72.4484 33.2918 72.4072 33.3884 72.3629 33.4847C70.4467 33.4223 72.1894 33.0371 72.1859 32.8306C71.7475 32.8248 71.3047 32.8198 70.8663 32.814C70.6805 32.9073 70.5039 33.005 70.3092 33.0955C70.2914 32.9469 70.0459 32.6016 68.7395 32.7298C67.8995 32.8132 69.2223 33.1881 67.6206 33.1361C67.7403 32.9043 68.3189 32.622 66.5348 32.5474C66.3576 32.7893 66.1126 33.0109 65.9753 33.2651C63.7566 33.0327 62.7469 33.4063 60.1425 33.1361C58.4903 32.9651 56.227 32.3582 55.1595 33.2933C53.9509 33.3179 54.3345 33.0851 53.9768 33.0327C52.2892 32.7849 51.0338 33.2284 50.7193 33.2544C48.7136 33.4216 47.8143 33.2681 46.1801 33.4774C46.2687 33.3043 46.3169 33.1404 46.3878 32.9716C47.885 33.231 48.6432 33.2188 50.7429 33.163C50.0388 33.1282 49.3344 33.0927 48.6303 33.0579C48.7454 32.9174 48.8595 32.7769 48.9702 32.6371C55.4641 33.1906 53.9492 32.3161 48.5052 32.1248C48.0357 32.3849 47.5492 32.6442 47.0841 32.905C43.9392 32.5109 42.4593 32.853 38.9026 32.9349C38.4798 32.9442 36.9396 32.7944 36.2777 32.787C36.2887 32.786 36.2997 32.7851 36.3107 32.7841C35.8989 32.5385 36.4567 32.4255 36.5232 32.206C36.1645 32.1785 35.8055 32.1511 35.4468 32.1236C34.6457 32.2909 34.9273 32.4283 33.3507 32.3884C33.5632 32.2218 33.773 32.0552 33.9856 31.8886C32.2581 31.8828 31.1275 32.0638 29.5195 31.9856C29.7897 32.0486 30.0566 32.1118 30.3268 32.1748C26.8274 32.3357 29.6123 33.3152 26.9678 32.8276C26.7996 32.9131 26.6357 32.9994 26.4674 33.0848C27.5569 33.1058 28.6469 33.1262 29.732 33.1472C29.7541 33.2681 29.778 33.3885 29.7957 33.5095C28.6307 33.4733 27.4601 33.4359 26.2951 33.3997C27.1456 33.4808 28.001 33.5621 28.8515 33.6432C27.5006 33.7012 26.1494 33.7591 24.7985 33.8171C26.2331 33.3724 24.3733 33.318 24.723 32.8776C22.331 33.2442 20.4521 33.7274 16.7444 33.4181C16.0094 33.3564 16.4087 33.0487 14.3225 33.4232C14.8275 32.9335 12.214 32.7037 12.5498 32.2381C13.276 32.2605 14.0292 32.2746 14.7333 32.3021C13.9315 32.4637 13.7986 32.9081 15.0165 33.04C16.5713 33.208 18.8389 32.9 18.7462 33.3933C19.3661 33.3701 19.9427 33.3564 20.5449 33.3369C20.297 33.2145 20.0542 33.0914 19.8107 32.969C21.5243 33.1609 22.601 33.0985 23.4247 32.79C21.383 32.7191 19.3456 32.6488 17.3039 32.5786C17.6046 32.5576 17.9095 32.5364 18.2103 32.5162C16.6644 32.201 18.259 31.9026 15.3753 31.8352C15.393 31.9793 15.4072 32.1235 15.4249 32.2684C14.3751 31.883 11.5007 31.8851 12.4176 31.4417C11.5495 31.5779 11.3725 31.664 10.8809 31.4251C8.59076 31.7619 7.11996 32.1879 7.935 32.6965C7.08469 32.6146 6.23389 32.5327 5.388 32.4508C5.87958 32.3118 6.37173 32.1733 6.86331 32.0343C5.57797 32.0418 4.28455 32.0493 3 32.0563L3.94366 33C3.9426 32.8059 3.94156 32.612 3.94049 32.4184C3.8107 32.3737 3.75037 32.6407 3.71707 33L3 32.2829C3.7796 32.3552 4.99405 32.3003 4.40366 32.5521C4.23108 32.6259 3.43491 32.4678 3.22577 32.5093C3.14264 32.5263 3.06757 32.5422 3 32.557L3.44299 33C3.25418 32.1399 3.23123 32.5001 3.21457 33L3 32.7854C3.50253 32.8022 4.14618 32.8126 3.83243 32.9789C3.49841 32.9897 3.22552 33.0054 3 33.0243C2.98624 33.0242 2.97549 33.0137 2.97568 33C2.80823 31.0062 2.38638 32.7158 2.82245 28.6487C2.70367 28.5291 2.58249 28.4006 2.46445 28.2899C2.45731 26.7183 2.72562 26.8458 2.77631 25.495C2.80786 24.6491 2.33673 23.5873 2.65753 22.653C2.71671 22.4864 3.29254 24.0581 3.26718 20.7551C3.24756 18.1917 2.84061 19.2586 2.69641 17.8729C2.55225 16.4864 3.11652 13.3147 2.47684 12.38C2.56155 13.1062 2.60727 14.0313 2.67676 14.8373C2.55219 15.165 2.42896 15.4842 2.30508 15.8075C2.46591 13.9648 2.27637 12.06 2.5734 10.8197C2.11914 8.36125 2.54068 5.61178 3.05359 6.35597C2.97965 7.16517 2.75598 6.28486 2.8985 7.40876C3.01804 7.52393 3.13699 7.64531 3.2565 7.76048C3.24204 5.84686 3.24539 4.51787 2.88098 5.39052C2.87229 5.09374 2.86362 4.79975 2.85492 4.50297C3.11862 4.44982 3.3833 4.40268 3.647 4.34953C3.6767 3.99518 3.70615 3.63929 3.73587 3.28494C3.72189 3.19002 3.70792 3.09504 3.69388 2.99997L3 3.69386C3.29953 3.64967 3.59992 3.60518 3.90238 3.56067C3.36643 3.14338 2.45343 3.1296 5.47449 2.89633C5.48331 3.0405 5.49628 3.18409 5.50516 3.32826C8.03436 3.14498 8.10114 2.79575 11.2766 2.80875C8.84036 2.30822 7.50748 3.19548 7.51633 2.19141C6.90503 2.25734 6.28876 2.32415 5.67749 2.39007C5.58447 2.24446 5.49225 2.09863 5.40366 1.95302C8.68573 2.02983 14.1377 2.98746 16.3352 2.35248C16.6009 2.42997 16.8676 2.49733 17.1378 2.58061C19.2906 2.19738 20.2202 3.05777 22.4041 2.56224C22.6294 2.51024 22.1579 1.7019 25.0007 1.73086C24.9298 1.83592 24.893 2.01275 24.8354 2.14527C25.451 2.08082 26.0632 2.01337 26.6743 1.94747C26.7849 2.0445 26.9011 2.1415 27.0118 2.23926C25.962 2.27693 24.9151 2.31523 23.8653 2.3529C24.7376 2.38622 25.6155 2.41956 26.4878 2.45288C25.3497 2.61147 24.8364 2.61316 25.5223 2.86728C26.5101 2.8825 27.4993 2.89864 28.4872 2.91385C28.5889 2.97896 28.6899 3.04483 28.7917 3.10995C28.3133 3.30408 27.8301 3.49394 27.3517 3.69097C29.9253 3.53233 32.1627 3.52371 34.1382 3.14199C34.4749 3.07752 33.2843 2.82459 35.5781 3.0527C35.6136 2.91875 35.6752 2.80997 35.715 2.68614C38.5234 3.0614 39.446 2.94939 42.3741 2.67845C40.4782 2.93128 42.1698 2.76684 42.6526 2.90232C42.9834 2.99565 41.6922 2.98186 41.8382 3.07962C41.9844 3.17668 43.6623 3.56864 42.2277 3.61578C38.7105 2.81237 37.7524 3.77292 33.2341 3.38679C33.9296 3.49039 34.6301 3.59421 35.3256 3.69781C34.998 3.76802 34.7048 3.83173 34.3507 3.90629C36.8707 3.74912 35.6451 3.85123 36.6805 3.97508C37.717 4.09896 39.6009 4.2042 40.8633 4.23825C41.261 4.24895 40.8416 4.06875 41.7391 4.05198C42.3503 4.04039 44.0208 4.30752 44.4065 3.99259C44.6589 3.78759 41.9753 3.2231 45.6859 3.22444C46.3842 3.02347 44.6053 3.08589 44.567 3.06167C44.2436 2.8226 46.5248 2.64286 47.579 2.82542C47.6644 2.84116 46.8318 3.02746 47.7371 3.10055C49.8855 3.27514 51.1263 3.0615 52.5172 2.77244C52.6678 3.11148 54.4757 3.51639 56.726 3.39106C56.8411 3.48809 56.9508 3.58597 57.0659 3.68371C56.7165 3.63236 56.3672 3.58169 56.0178 3.53034C55.6369 3.59119 55.2333 3.63549 54.8612 3.70721C57.1242 3.79059 57.4442 4.25784 58.5294 4.42879C62.243 5.01279 59.9923 3.77745 59.3225 3.56452C58.8397 3.65073 58.3729 3.74696 57.8944 3.83751C57.9476 3.71943 58.0015 3.60044 58.0502 3.48164C63.6093 3.48525 58.8968 2.71511 61.7185 2.4956C62.4449 3.07657 64.5173 3.13256 67.1571 2.7639C67.4495 2.7668 67.7429 2.76754 68.0352 2.77116C68.0838 2.85587 68.0832 2.98535 68.1627 3.04117C71.3432 3.13969 71.9097 2.24499 72.211 2.16023C73.5486 1.7843 74.5902 2.30445 74.9846 2.3089C76.6456 2.32702 77.1283 2.09606 78.7095 2.19526C80.4101 2.30246 79.2473 2.47967 79.7646 2.6383C80.1797 2.76427 81.5213 2.7867 82.0756 2.91727C81.8553 2.81048 81.6106 2.70576 81.391 2.59856C83.1536 2.45298 84.5941 2.31107 86.5959 2.27558C88.8549 3.05698 90.7768 1.73886 89.9974 2.8079C88.1015 2.88107 87.0415 3.0029 86.0271 3.27529C87.2715 3.31005 88.517 3.34391 89.7614 3.37868C90.1245 3.26135 90.3823 3.147 90.8118 3.0275C91.7419 3.27666 93.898 3.16974 94.7444 3.24282C98.7089 3.58548 97.4825 4.01047 101.101 3.29622C98.493 3.22663 98.4972 2.87973 95.9105 2.92753C96.4687 2.67977 97.7831 2.73111 96.9326 2.43408C99.435 2.50724 98.6261 2.77243 99.6 3.00785C100.44 3.2108 102.132 3.22217 102.036 3.48591C102.209 3.3409 102.343 3.20052 102.515 3.0557C104.136 3.05715 105.757 3.05724 107.378 3.05869C106.687 2.9073 105.996 2.75564 105.305 2.60497C105.828 2.5478 106.351 2.49084 106.873 2.43366C110.859 2.90454 117.734 2.04153 116.636 3.22445C118.558 3.26212 118.799 3.11376 119.844 2.88993C119.959 2.97974 120.071 3.05444 120.186 3.15439C121.426 3.06038 122.378 3.39754 123.472 3.3099C124.566 3.22293 124.837 2.90446 124.997 3.43977C125.705 3.28622 126.41 3.15866 127.114 3.01597C127.539 3.13758 127.964 3.25779 128.384 3.37868C129.049 3.31494 129.714 3.25146 130.379 3.18771C130.734 3.44325 133.346 3.3331 134.498 3.50471C135.591 3.22926 135.561 2.36198 138.133 2.5174C138.067 2.7325 138.001 2.94698 137.935 3.16208C138.524 3.11717 139.114 3.07241 139.708 3.0275C139.743 2.9573 139.774 2.88709 139.809 2.81688C139.508 2.83861 139.211 2.86022 138.91 2.88267C139.171 2.76387 139.427 2.64561 139.684 2.5268C140.583 2.70281 141.483 2.87883 142.387 3.05485C141.169 3.18811 139.951 3.32146 138.733 3.45473C140.261 3.61266 141.325 3.45513 142.653 3.63117C143.809 3.3342 143.383 3.16308 142.913 2.84081C143.343 2.86832 143.777 2.89489 144.207 2.92241C143.923 2.60009 144.65 2.40803 142.139 2.43409C142.312 2.34216 142.488 2.2545 142.656 2.15896C143.068 2.17344 143.335 2.09573 143.787 2.13119C145.018 2.22826 145.962 2.7944 145.878 2.9929C145.833 3.09688 144.618 2.89803 144.667 3.04502C144.787 3.40347 147.572 3.24254 143.555 3.60255C144.889 3.83075 145.186 3.65865 146.657 3.59272C146.542 3.71217 146.43 3.83086 146.319 3.95031C147.001 3.89527 147.684 3.84044 148.366 3.7854C147.418 3.17182 152.446 2.94137 147.92 2.40461C149.257 2.37709 150.59 2.34942 151.923 2.32045C151.649 2.25743 151.374 2.19505 151.099 2.13204C150.497 2.16536 149.898 2.19814 149.296 2.23073C150.004 2.11558 150.714 2.00111 151.423 1.88596C153.097 2.02868 153.753 2.24817 154.52 2.51911C152.571 2.71682 153.208 2.44675 151.69 2.39308C151.743 2.56466 151.672 2.72248 151.805 2.90276C152.59 2.54735 155.149 2.80591 155.743 2.82329C157.549 2.87608 156.132 2.52688 157.341 2.51954C158.55 2.51229 159.976 2.72014 160.964 2.37385C160.946 2.56794 160.867 2.76876 160.796 2.94548C162.679 3.00923 162.303 2.77994 162.498 2.75024C165.608 2.26198 167.295 2.67419 170.852 2.72418C170.4 2.78429 169.944 2.83857 169.488 2.89507C172.171 3.30716 170.364 3.18098 168.034 3.31716C170.218 3.27587 171.468 3.62683 173.01 3.73115C174.551 3.83529 177.194 3.65504 178.16 3.51454C175.95 3.28852 173.566 3.43757 171.112 3.37527C171.391 3.17755 171.662 3.01021 171.95 2.79296C173.442 3.20794 174.307 2.93047 174.799 2.87541C176.243 2.71394 176.197 3.07012 177.07 2.68701C177.034 2.8188 177.008 2.92962 176.973 3.05271C179.954 2.99766 183.169 2.76466 185.11 3.25137C185.287 2.93482 185.421 2.62985 185.624 2.30678C186.887 2.54507 187.968 2.30105 189.031 2.35677C190.089 2.41255 189.686 2.66837 190.931 2.7669C191.161 2.78501 191.641 2.62489 192.208 2.74298C192.78 2.86169 194.892 3.74433 195.144 2.97325C196.212 2.96963 197.222 2.94143 198.267 2.92839C197.248 2.88493 196.229 2.84283 195.215 2.79937C196.083 2.61249 196.946 2.42616 197.814 2.23928C197.925 2.4059 198.036 2.57554 198.142 2.73999C200.481 2.94283 202.178 2.6704 204.539 2.73486C204.933 2.74573 204.003 3.07516 205.752 2.9912C207.502 2.90717 208.8 2.2923 211.781 2.52979C211.932 2.54211 212.814 3.01301 213.882 2.68701C214.125 2.61313 213.102 2.5038 213.66 2.40675C214.218 2.30968 216.709 2.22985 216.903 1.99875C216.877 2.08059 216.722 2.16539 216.646 2.24868C217.071 2.28779 217.501 2.32693 217.93 2.36531C217.97 2.22117 218.013 2.07681 218.053 1.93339C220.498 2.26879 221.762 2.81593 225.385 2.63489C224.366 2.84424 223.347 3.05442 222.333 3.26377C222.054 3.1167 221.774 2.96865 221.499 2.82159C219.83 2.88026 218.155 2.93851 216.486 2.99718C216.211 2.82983 215.941 2.66296 215.667 2.49562C215.224 2.51734 214.785 2.5384 214.342 2.56013C214.453 2.6811 214.565 2.80144 214.68 2.92241C213.803 2.89272 212.925 2.86239 212.053 2.8327C213.829 3.54678 217.013 2.77196 216.783 3.36929C217.177 3.27661 217.572 3.18329 217.966 3.08989C218.138 3.37952 218.94 3.29617 220.352 3.25052C220.029 3.39324 219.672 3.53401 219.375 3.67818C220.748 3.4768 223.184 3.49636 224.606 3.41885C225.23 3.38481 224.607 3.17481 224.792 3.15012C225.745 3.02117 227.565 3.38759 227.946 3.35861C230.223 3.18617 231.702 2.49149 234.187 2.94933C231.622 3.06234 233.018 3.01461 232.105 3.2689C231.82 3.34862 228.506 3.51493 232.655 3.44107C233.142 3.43182 240.67 2.95186 238.195 2.58405C239.413 2.70142 240.367 2.83712 241.484 2.96172C244.212 1.99241 243.268 2.90301 242.475 3.40433C242.922 3.4065 243.348 3.41159 243.809 3.41159C242.83 2.88492 247.817 2.85221 249.509 3.11809C250.076 3.20647 248.491 3.37505 249.802 3.45474C250.426 3.4178 251.135 3.36998 251.794 3.32871C250.838 3.66193 252.715 3.79034 252.689 4.12933C253.889 3.82726 254.807 3.187 254.148 2.83996C255.14 2.98048 256.137 3.12082 257.129 3.26206C256.668 3.34247 256.202 3.42218 255.741 3.50259C258.984 3.2896 263.153 3.77425 263.831 3.06212C264.26 3.06719 264.694 3.07158 265.124 3.07665C265.257 3.19691 265.385 3.31739 265.518 3.43765C265.901 3.41712 266.284 3.39656 266.666 3.37599C268.222 3.29231 269.772 3.25554 271.334 3.28833C269.616 3.09676 269.209 2.91045 267.388 3.0208C268.09 2.88937 268.808 2.76815 269.502 2.65884C272.23 3.20154 272.58 3.35712 276.629 3.99338C276.812 3.98265 279.901 4.50731 280.008 4.56522C280.519 4.60014 279.88 4.15758 280.111 4.16515C280.767 4.06589 284.486 5.42898 284.443 5.443C284.342 4.74559 281.109 2.60169 277.321 1.74965C273.557 0.796016 269.475 0.663055 267.76 0.615222C267.392 0.604861 267.034 0.597461 266.666 0.5927C232.483 0.13228 199.032 0.77111 165.048 0.660681C164.695 0.658953 164.849 0.523775 164.698 0.517988C163.764 0.484038 162.846 0.694712 162.501 0.703402C161.762 0.721316 162.169 0.526671 161.63 0.526529C156.057 0.528704 150.799 0.643163 145.222 0.609838C144.858 0.607664 145.229 0.763399 144.591 0.735868C144.262 0.720796 143.231 0.48187 142.488 0.478254C139.893 0.465943 137.712 0.542539 134.975 0.538918C133.477 0.536755 131.231 0.557065 129.557 0.553445C128.818 0.551903 128.048 0.442597 127.317 0.438946C126.281 0.433877 126.492 0.655457 126.333 0.66922C125.633 0.729336 125.536 0.486134 124.872 0.491921C123.636 0.503514 123.569 0.66589 122.001 0.65213C120.881 0.641987 118.316 0.513786 116.903 0.476112C113.598 0.664452 109.434 0.589679 106.351 0.527382C104.526 0.490448 104.357 0.717792 103.613 0.717067C100.991 0.712665 99.0011 0.422302 96.5384 0.412883C93.2702 0.400615 90.3737 0.592612 87.2073 0.606414C86.6938 0.608588 86.8118 0.400283 86.308 0.394938C84.4431 0.375376 82.0583 0.337466 80.3972 0.367167C78.546 0.399809 77.8631 0.702166 76.0515 0.640593C75.5204 0.622309 75.3647 0.357199 74.4747 0.323164C73.053 0.26964 71.4941 0.50342 70.502 0.529512C69.142 0.564287 70.3247 0.294203 68.4908 0.330427C68.4154 0.331987 68.1411 0.525053 67.7472 0.51584C66.5999 0.489759 66.7139 0.337725 65.035 0.352213C64.8739 0.354215 62.6479 0.538175 62.4266 0.538911C61.1244 0.541807 58.5025 0.606214 57.7316 0.567106C54.9763 0.428014 57.1455 0.137632 54.8022 0.767904C53.7703 0.613637 52.7471 0.457273 51.6532 0.307355C52.3832 0.447171 49.4206 0.648927 49.2125 0.635888C47.4903 0.53082 48.5161 0.285588 46.3326 0.32615C49.2164 0.892671 43.5155 0.399171 42.2442 0.384682C36.1228 0.314431 30.5583 0.455803 24.4058 0.452179C22.3461 0.450695 19.5859 0.33094 17.4069 0.333839C16.899 0.334011 17.2827 0.468082 16.8356 0.470977C16.3896 0.472965 16.8844 0.322456 16.3753 0.330421C13.2083 0.382598 10.7269 0.666587 7.82556 0.311622C7.68427 0.362945 7.68881 0.403499 7.45496 0.459869C6.2973 0.304824 4.61722 0.327029 3 0.397303C1.5278 0.380652 0.414003 1.52778 0.39734 2.99997C0.471193 4.69966 0.598146 6.32976 0.628236 7.21048C0.719453 9.89859 0.504518 10.5853 0.547913 12.5382C0.605866 15.1206 1.02579 18.9979 0.332581 17.2663C0.310853 19.0378 0.304871 20.7433 0.369324 22.5326C0.376648 22.7318 0.552826 22.5945 0.556458 22.6742C0.581757 23.179 0.423981 23.3435 0.416748 23.6845C0.397278 24.6092 0.586152 23.1002 0.533387 24.4186C0.505127 25.1141 0.367524 25.5089 0.364624 27.4401C0.362244 29.2709 0.36145 31.1264 0.361877 33C0.345001 34.4922 1.50775 35.6212 3 35.6381C13.0391 35.6357 23.5961 35.5976 33.6528 35.5781C34.4723 35.5767 33.9329 35.747 34.9605 35.7362C38.5308 35.6985 44.9214 35.4117 48 35.4508C51.0784 35.4899 50.3839 35.7391 52.3103 35.8434C52.6824 35.8637 52.3773 35.7217 52.714 35.7195C54.9775 35.7065 57.6761 35.485 59.5099 35.4516C60.7226 35.4293 60.6255 35.6527 61.4668 35.6687C62.7203 35.6919 64.0105 35.4662 64.6794 35.4589C67.8239 35.4271 69.9858 35.6089 72.9223 35.5162C72.8074 35.5653 72.7316 35.6108 72.6344 35.6593C76.1113 35.6513 79.5838 35.6433 83.0607 35.6354C82.8968 35.6803 82.7384 35.7256 82.5745 35.7712C86.6539 35.7466 86.1884 35.2598 85.8296 36.2877C86.1263 36.3239 86.4408 36.3659 86.7243 36.3992C86.6091 35.8697 89.0769 35.4822 92.2172 35.3474C92.4475 35.3373 93.993 35.8536 93.8247 35.2436C94.2278 35.3928 94.468 35.4957 94.809 35.6268C95.4733 35.4421 96.1465 35.2596 96.8108 35.0757C97.1694 35.1032 97.5332 35.1298 97.8919 35.1573C97.945 35.2768 97.9042 35.4009 98.0193 35.5183C99.6847 35.5364 103.1 35.3886 104.416 35.4038C107.685 35.4422 111.014 35.7654 113.556 35.4162C114.795 35.4518 113.565 35.6864 115.407 35.6567C115.615 35.5379 115.811 35.4241 116.028 35.3017C117.533 35.8324 117.848 35.5096 119.911 35.3987C121.306 35.3233 122.22 35.4531 123.548 35.4277C123.885 35.4212 123.837 35.2654 124.068 35.2705C124.839 35.2866 127.04 35.501 127.585 35.5068C132.519 35.5633 136.758 35.5392 141.458 35.482C141.963 35.4762 141.308 35.6299 141.831 35.6234C142.671 35.6132 142.177 35.3769 142.664 35.3654C144.023 35.3344 144.033 35.5835 145.928 35.5965C152.169 35.6392 159.345 35.4521 165.865 35.4354C166.069 35.4354 166.057 35.5814 166.278 35.5828C167.722 35.59 169.183 35.3927 170.494 35.3948C172.669 35.3977 174.304 35.6028 176.452 35.602C180.651 35.6013 184.403 35.4963 188.722 35.4905C192.257 35.4855 195.327 35.5049 199.203 35.5042C216.133 35.5013 233.409 35.9646 250.454 35.7183C250.888 35.7117 250.712 35.5828 250.844 35.5884C252.102 35.6442 252.214 35.8181 252.661 35.4538C254.264 35.5256 254.77 35.7993 256.705 35.7798C257.736 35.7695 256.966 35.3453 258.711 35.564C260.287 35.7618 258.548 35.9943 263.234 35.7567C263.358 35.7502 263.969 35.4916 264.943 35.5589C265.848 35.6205 264.949 35.7832 266.666 35.8516C266.814 35.8573 266.98 35.8619 267.166 35.8649C272.33 35.8441 279.1 35.5983 285.236 31.726C285.861 31.3052 286.462 30.8382 287.024 30.3282C287.209 30.1639 288.218 29.269 289.06 28.1318C289.921 27.0084 290.563 25.6889 290.764 25.2589C291.506 23.5798 291.628 23.9846 292.129 21.6879C292.36 20.4206 292.331 19.3182 292.289 18.0768C292.27 17.5745 292.247 17.0446 292.22 16.4576C292.199 16.218 292.44 15.8053 292.155 14.237ZM3.87598 4.50769C4.02365 4.26352 4.43741 3.88733 4.6181 2.99997L3 4.61806C3.43286 4.7062 3.98724 4.73889 4.70731 4.65821C4.9155 4.63503 3.79166 4.07893 5.00473 3.99045C4.32919 3.95706 3.66364 3.93652 3 3.91807L3.91809 2.99997C3.90415 3.50244 3.89136 4.00382 3.87512 4.50769C3.87543 4.50769 3.8757 4.50769 3.87598 4.50769ZM283.003 8.21995C284.172 9.0178 285.155 10.0558 285.884 11.2817C285.49 10.3755 284.959 9.52344 284.299 8.76014C283.873 8.54556 283.442 8.36827 283.003 8.21995ZM105.533 31.701C105.534 31.701 105.536 31.701 105.538 31.701C103.81 31.5967 102.081 31.4922 100.354 31.3879C100.535 31.4647 100.718 31.5418 100.899 31.6186C102.263 31.7395 103.628 31.8603 104.988 31.9813C105.169 31.8879 105.351 31.7945 105.533 31.701ZM119.181 32.5141C120.284 32.4228 120.014 32.2688 120.621 32.1189C120.621 32.1192 120.621 32.1194 120.621 32.1197C120.781 32.0807 121.527 32.0465 121.816 32.0407C121.709 32.137 121.572 32.2322 121.457 32.3278C124.031 32.5611 129.063 31.7321 122.547 31.3981C122.645 31.5198 122.738 31.6409 122.835 31.7626C119.597 31.7285 115.988 31.9925 119.181 32.5141ZM27.5288 4.22629C30.2928 4.62473 31.1792 4.70874 34.5324 4.43563C34.0588 4.32269 33.585 4.20977 33.1114 4.09684C32.5577 4.21202 32.008 4.32642 31.4543 4.44161C31.4527 4.44161 31.4512 4.44161 31.4496 4.44161C31.3388 4.32063 31.2278 4.19944 31.1215 4.07847C29.9256 4.12772 28.7247 4.17703 27.5288 4.22629ZM224.989 32.2261C225.76 31.4303 225.537 31.8929 223.337 31.7134C222.575 31.6511 223.317 31.5119 222.843 31.4887C220.284 31.3621 220.079 31.8953 220.65 32.1727C222.099 32.1915 223.562 32.2087 224.984 32.2261C224.986 32.2261 224.988 32.2261 224.989 32.2261ZM287.457 23.6781C287.457 23.6767 287.458 23.6753 287.458 23.6739C287.299 23.5515 286.902 24.4151 287.121 23.3492C286.842 24.1134 286.486 24.8426 286.048 25.5207C286.192 25.3319 286.331 25.1325 286.463 24.9322C286.419 25.1491 286.368 25.3666 286.309 25.5833C285.96 25.7058 285.944 26.0068 285.448 26.7207C285.421 26.3846 285.376 26.0565 285.315 25.7364C284.819 26.5305 284.196 27.2614 283.472 27.9059C283.499 27.9608 283.526 28.016 283.553 28.071C283.352 28.1674 283.15 28.2561 282.945 28.34C282.804 28.3969 282.659 28.4533 282.515 28.5055C282.469 28.6188 282.422 28.7301 282.371 28.8439C281.954 29.0266 281.527 29.188 281.093 29.3303C281.034 29.5398 282.005 29.2103 280.33 29.8843C280.911 29.8424 281.494 29.7724 282.083 29.663C282.513 29.4328 282.93 29.1822 283.33 28.9089C285.216 27.6349 286.67 25.8015 287.457 23.6781ZM204.97 31.9813C208.145 32.0146 207.251 31.8888 206.516 31.4947C206.002 31.6569 205.483 31.8191 204.97 31.9813ZM41.3434 32.3321C40.422 32.0633 39.4967 31.7972 38.5532 31.5378C36.675 31.3879 34.7962 31.8778 36.2092 32.0697C37.9102 32.3001 39.6867 32.0423 41.3434 32.3321ZM3.78757 28.5661C3.91217 30.864 4.23154 28.7019 4.41772 28.1837C4.1185 27.548 4.1449 26.6615 4.11011 25.2377C4.0907 26.5747 3.76639 28.1861 3.78671 28.5661C3.78699 28.5661 3.78726 28.5661 3.78757 28.5661ZM78.3232 32.03C79.244 32.038 80.16 32.1131 80.9835 32.0219C80.7351 31.7649 79.088 31.9987 80.2659 31.6177C79.6769 31.6112 79.0872 31.6049 78.5026 31.5977C78.8741 31.7555 78.3744 31.8735 78.3255 32.0292C78.3248 32.0294 78.324 32.0297 78.3232 32.03ZM174.198 31.6784C172.391 31.9827 172.048 31.8525 170.227 31.6417C169.971 31.8894 172.142 32.3044 173.502 32.3957C173.732 32.1567 173.963 31.9175 174.198 31.6784ZM229.284 4.19469C228.85 3.87892 225.649 3.83774 224.058 3.93109C224.248 3.97793 224.438 4.02539 224.627 4.07293C226.177 4.1135 227.734 4.15412 229.284 4.19469ZM4.08875 24.5603C4.09799 24.7986 4.10489 25.0245 4.11011 25.2377C4.11356 25.0006 4.10819 24.7718 4.08875 24.5603ZM77.6637 2.71819C76.9066 2.42047 79.1573 2.32045 76.4245 2.43707C76.4245 2.43679 76.4245 2.4365 76.4245 2.43622C74.6171 2.51301 74.2182 2.53351 72.5438 2.55669C73.1465 2.93915 76.5435 3.07585 71.8616 3.15481C71.7999 3.15516 71.9227 2.92759 71.1747 2.95871C70.9438 2.96839 70.2048 3.15516 69.0809 3.20949C68.7177 3.22688 65.9881 3.28448 69.7088 3.2881C69.5981 3.5547 69.7979 3.82454 69.7891 4.08317C71.2414 4.15833 72.3576 3.6363 73.894 3.64911C76.1753 3.66939 77.3361 4.19728 77.7747 3.50471C75.8565 3.33455 72.5627 3.33046 72.1331 3.74694C70.2773 3.75201 69.7444 3.41079 71.2408 3.24196C77.6505 3.4564 73.0004 2.73546 78.6127 3.00785C78.6791 3.10416 78.9099 3.20782 78.8747 3.29836C80.5878 2.9594 77.9339 2.82467 77.6637 2.71819ZM64.2608 3.45472C65.3682 3.65829 66.4719 3.86349 67.5749 4.06779C67.5749 3.736 66.9668 3.43826 65.2215 3.25136C64.9028 3.3194 64.5794 3.3874 64.2608 3.45472ZM157.416 3.54188C157.576 3.72227 158.001 3.88757 158.311 4.05925C158.647 3.90713 166.621 3.76118 162.564 3.61195C161.975 3.59022 158.382 3.90918 157.416 3.54188ZM186.746 31.9501C185.807 32.0711 184.872 32.1923 183.937 32.3133C185.376 32.39 186.816 32.4688 188.255 32.547C187.751 32.3481 187.25 32.149 186.746 31.9501ZM26.0567 32.6486C26.4533 32.6419 25.1359 32.3938 26.6987 32.4329C25.5338 32.2742 24.4427 32.1399 23.3043 31.9907C22.9632 32.1081 22.6186 32.2249 22.2775 32.3423C22.0117 32.267 21.7407 32.1921 21.4749 32.1167C21.6344 32.2877 21.7763 32.4547 21.9446 32.6285C23.8627 32.262 24.3025 32.6776 26.0567 32.6486ZM83.0891 33.3172C83.434 32.9457 80.6566 32.7247 83.3889 32.6653C82.8706 32.4212 82.0373 32.2931 80.4382 32.2714C80.1815 32.3648 79.9254 32.4574 79.6687 32.5508C79.6332 32.301 79.2218 32.2081 78.3232 32.03C78.3224 32.0303 78.3216 32.0306 78.3208 32.0309C75.8898 32.0128 76.0351 32.0961 75.4504 32.5068C78.0241 32.275 78.101 32.6502 79.8552 32.8733C81.0599 33.0268 82.6329 32.9573 83.0891 33.3172ZM148.921 3.53761C150.741 3.85127 149.107 4.14383 152.336 3.81061C152.128 3.73092 151.919 3.6519 151.711 3.57222C150.781 3.5599 149.851 3.54847 148.921 3.53761ZM92.0708 32.0437C91.8627 32.6189 90.1492 33.0666 89.8567 32.1308C91.5266 31.9403 90.711 32.4704 92.0708 32.0437ZM2.88696 29.3497C2.91379 32.561 3.56299 31.9539 3.88751 30.6339C3.76944 30.4301 3.65115 30.2266 3.53378 30.0272C3.5874 29.4646 3.64111 28.902 3.694 28.3395C3.42523 28.6761 3.15573 29.0131 2.88696 29.3497ZM148.683 32.6756C146.229 32.2648 151.332 32.4471 149.618 32.1907C148.249 31.9857 146.445 32.3995 147.128 32.6589C147.601 32.6661 148.129 32.6712 148.678 32.6756C148.68 32.6756 148.682 32.6756 148.683 32.6756ZM134.482 32.5581C134.885 32.1192 134.304 32.2471 136.243 32.3261C136.797 32.3485 141.197 32.1837 139.35 32.5474C137.777 32.5474 136.116 32.5537 134.482 32.5581ZM13.7693 3.52905C13.7989 3.33793 10.4108 2.91827 9.97598 3.02322C9.97598 3.02293 9.97598 3.02265 9.97598 3.02236C8.80213 3.30852 12.376 3.34918 10.8258 3.74181C14.2585 3.39631 15.2856 4.23202 15.0464 3.13088C13.0242 3.08257 13.9816 3.30956 13.7693 3.52905ZM271.296 3.45683C271.297 3.45694 271.299 3.45706 271.3 3.45717C271.071 3.44061 269.201 3.62482 269.422 3.73647C271.649 3.76878 271.281 3.55493 273.305 4.07312C273.43 3.98951 273.538 3.90724 273.672 3.82489C272.862 3.66724 272.413 3.49918 271.296 3.45683ZM166.037 3.15653C165.208 3.10654 163.697 3.31367 162.753 3.30136C165.757 4.09679 169.345 3.35504 166.037 3.15653ZM260.338 32.3641C260.335 32.3638 260.333 32.3635 260.331 32.3633C260.331 32.3637 260.332 32.3641 260.333 32.3645C260.335 32.3644 260.336 32.3643 260.338 32.3641ZM101.847 3.63373C101.954 3.5821 102.014 3.53724 102.036 3.49787C102.036 3.49417 102.036 3.49047 102.036 3.48677C101.978 3.53511 101.917 3.58401 101.847 3.63373ZM20.8108 3.58673C22.2218 3.32019 17.5204 2.89644 16 2.99758C16.1063 3.11924 16.1229 3.22954 16.3706 3.36927C17.5977 3.05423 20.576 3.63164 20.8108 3.58673ZM62.3803 32.5111C58.6638 32.5183 63.5004 33.5707 63.6998 32.7311C63.6923 32.7148 62.4763 32.5125 62.3803 32.5111ZM3.47653 14.4974C3.1579 15.4442 3.0733 13.5414 3.12836 16.5841C3.21088 16.7612 3.29361 16.9381 3.37613 17.1152C3.40946 16.2428 3.44321 15.3698 3.47653 14.4974ZM38.0339 33.8927C33.3564 33.7152 28.8828 33.4021 31.9296 32.5234C32.2836 32.5517 32.6426 32.579 32.9966 32.6072C33.0497 33.0359 34.356 32.8019 36.2682 32.7879C36.5408 32.9581 37.6012 32.9974 37.8002 33.1421C38.185 33.4216 36.9666 33.6182 38.0339 33.8927ZM235.512 33.1951C235.437 33.1219 235.363 33.0483 235.288 32.9759C234.548 32.8933 233.807 32.8111 233.067 32.7285C233.186 32.869 233.306 33.0094 233.426 33.1498C234.121 33.165 234.812 33.1803 235.508 33.1955C235.509 33.1953 235.511 33.1952 235.512 33.1951ZM59.7026 2.55028C60.1275 3.35565 58.6426 3.20732 55.6307 2.80021C56.9861 2.7169 58.3472 2.63359 59.7026 2.55028ZM113.197 33.5663C113.295 33.3375 113.391 33.1094 113.493 32.8806C115.092 33.119 114.795 33.381 114.028 33.6838C113.75 33.6447 113.476 33.6054 113.197 33.5663ZM136.231 33.6637C135.568 33.7115 135.906 33.5267 135.837 33.5304C134.158 33.6275 133.922 33.7122 131.862 33.5731C131.61 33.5246 131.361 33.4736 131.109 33.4236C132.061 32.9442 132.753 33.2055 134.768 32.9238C134.405 33.0882 134.043 33.2529 133.68 33.4181C134.8 33.3833 135.916 33.349 137.036 33.3143C137.169 33.365 137.302 33.4152 137.435 33.4659C137.037 33.5311 136.625 33.6043 136.231 33.6637ZM244.067 32.987C245.156 32.9682 246.251 32.9486 247.341 32.9298C247.381 33.0478 247.419 33.1667 247.459 33.2848C246.33 33.1856 245.196 33.0862 244.067 32.987ZM82.0756 2.91727C82.1619 2.95916 82.2462 3.0013 82.321 3.04416C82.3137 2.99193 82.2194 2.95115 82.0756 2.91727ZM274.225 3.11236C275.471 3.19404 277.239 3.58203 278.566 3.94469C278.389 4.15513 275.024 3.33004 273.791 3.40596C273.607 3.32959 273.695 3.07572 274.225 3.11236ZM3.7923 33.087C4.10233 33.2347 4.41199 33.3818 4.71762 33.5296C5.46622 33.5136 6.21649 33.4968 6.96954 33.4809C6.9917 33.6018 7.01346 33.7239 7.03564 33.8449C3.8309 33.693 4.43607 34.0135 3 34.3456C2.23886 34.337 1.64578 33.7611 1.65439 33C1.64273 32.9496 1.63104 32.8967 1.61938 32.841C1.69119 32.8941 1.763 32.9471 1.83481 33C1.82736 33.6591 2.34091 34.1577 3 34.1652C3.26453 33.806 3.52652 33.4467 3.7923 33.087ZM278.831 32.35C276.425 32.9198 275.552 32.8442 276.816 32.2372C277.666 32.1398 278.519 32.006 279.364 31.826C279.191 32.0024 279.007 32.1789 278.831 32.35ZM125.719 2.64385C127.724 2.77947 127.758 2.29239 129.718 2.56439C128.668 2.6542 127.619 2.74501 126.574 2.83482C126.291 2.77132 126.002 2.70736 125.719 2.64385ZM27.3659 1.3062C28.2119 1.13676 29.7935 1.94221 32.1719 1.34765C32.7387 1.5251 33.094 1.6946 33.5811 1.86843C33.8646 1.67935 34.1867 1.48785 34.4569 1.30022C34.4585 1.30022 34.46 1.30022 34.4616 1.30022C36.6189 1.36397 35.2202 1.60111 35.2689 1.80178C35.2918 1.88497 36.8928 1.74591 36.3925 1.92696C35.5287 2.23775 32.3011 2.05904 32.2923 2.43792C33.4263 2.31409 35.6406 2.41757 34.9856 2.67033C34.2681 2.94777 32.1813 2.48282 30.8524 2.71305C32.7567 2.10749 28.8235 2.29454 28.3762 2.75962C26.0684 2.40248 28.1895 2.25678 30.555 2.27344C29.1109 1.91702 31.2365 2.10958 31.5865 1.81332C30.0974 1.63448 24.9875 1.78356 27.3659 1.3062ZM57.5153 34.0371C55.9202 34.0141 53.4283 34.2178 52.3363 33.9171C51.7002 33.7418 54.198 33.6061 52.4756 33.3309C54.0296 33.3577 54.3842 33.4652 54.1185 33.7064C54.4727 33.7354 54.8313 33.7636 55.1854 33.7919C55.3492 33.7448 55.5173 33.6984 55.6811 33.6513C55.8672 33.7506 56.0542 33.849 56.2359 33.9482C56.6121 33.9287 56.9927 33.9091 57.3689 33.8889C57.4131 33.9388 57.4885 33.9822 57.5153 34.0371ZM183.299 2.65881C182.856 2.65592 182.418 2.65304 181.975 2.64941C182.024 2.59067 182.082 2.5295 182.138 2.46912C182.178 2.42142 182.218 2.37371 182.258 2.32601C182.002 2.49645 179.892 2.77974 179.003 2.59772C178.556 2.5064 179.573 2.18222 177.679 2.12564C179.052 2.14231 180.323 2.18655 181.656 2.21407C181.537 2.11772 181.422 2.02034 181.302 1.92399C181.303 1.92384 181.304 1.9237 181.305 1.92356C181.747 1.90183 182.195 1.87907 182.638 1.85734C182.86 2.12466 183.078 2.39149 183.299 2.65881ZM111.899 34.0187C110.389 33.8297 109.883 33.7315 110.596 33.4258C110.598 33.4256 110.599 33.4255 110.601 33.4253C111.163 33.5608 111.726 33.6962 112.289 33.8316C112.16 33.8939 112.032 33.9564 111.899 34.0187ZM95.0867 1.90817C98.2981 3.06942 91.066 2.35756 92.4429 1.962C92.505 1.94389 94.7855 2.0364 95.0867 1.90817ZM2.52982 28.7596C2.52039 29.6411 2.51187 30.5246 2.50247 31.4105C2.35974 31.2067 2.21753 30.9981 2.0748 30.7944C2.22623 30.1166 2.37839 29.4374 2.52982 28.7596ZM268.335 34.2625C267.959 34.3988 267.348 34.504 266.666 34.5498C265.668 34.6188 264.53 34.5772 263.831 34.3691C264.443 34.3285 265.054 34.2879 265.665 34.2473C264.51 34.2075 263.367 34.1636 262.203 34.126C262.141 33.6819 263.483 33.9395 265.503 33.8171C265.642 33.8083 266.12 33.6932 266.666 33.6058C267.351 33.4985 268.129 33.419 268.524 33.6377C268.668 33.7248 266.513 33.8151 268.016 34.041C267.538 34.0641 267.108 34.0691 266.666 34.0732C266.506 34.0747 266.345 34.0765 266.18 34.0794C266.136 34.1852 266.092 34.2911 266.043 34.3969C266.251 34.3863 266.459 34.3757 266.666 34.3651C267.225 34.3372 267.777 34.3032 268.335 34.2625ZM48.229 34.0025C46.0381 34.027 45.7675 33.8496 45.3114 33.536C46.3302 33.5715 47.3494 33.6064 48.3683 33.6419C48.3196 33.7619 48.2776 33.8818 48.229 34.0025ZM248.722 34.3832C247.522 34.4345 248.036 34.1792 247.553 34.1307C245.728 33.9482 244.484 34.1306 242.681 34.0162C242.801 34.0655 242.911 34.1115 243.026 34.1593C243.024 34.1593 243.023 34.1593 243.021 34.1593C234.486 34.3744 238.969 33.7956 244.076 33.8897C244.196 33.7948 244.311 33.6998 244.43 33.6056C246.716 33.7715 248.824 33.9311 248.722 34.3832ZM66.5552 1.86843C66.6526 1.80903 65.8244 1.43152 67.379 1.60826C68.6101 2.15943 66.591 1.88586 66.0854 2.09785C66.5063 2.15074 66.9366 2.20219 67.353 2.25507C64.837 2.41083 64.4698 2.27977 65.3867 1.87698C65.4522 1.84991 66.4576 1.92765 66.5552 1.86843ZM83.0906 1.59672C83.4361 2.40883 80.2608 2.04364 80.376 1.79154C80.8143 1.78149 81.1551 1.91899 81.62 1.85818C82.0895 1.79734 82.2095 1.60765 83.0906 1.59672ZM1.79541 13.8813C1.79178 13.7883 1.45047 12.8537 1.71765 12.9465C2.3501 14.1027 1.94299 16.4322 1.72278 16.0246C1.73367 15.2542 1.82858 14.7404 1.79456 13.8813C1.79483 13.8813 1.79511 13.8813 1.79541 13.8813ZM283.043 31.4589C283.028 31.54 280.756 32.6923 280.399 32.6387C280.099 32.5916 279.93 32.4856 279.698 32.4049C281.04 32.182 283.493 30.812 283.039 31.4613C283.04 31.4605 283.042 31.4597 283.043 31.4589Z" fill="#23A5E9"/>
</svg>
