<svg width="271" height="457" viewBox="0 0 271 457" fill="none" xmlns="http://www.w3.org/2000/svg" preserveAspectRatio="none">
<path d="M107.017 447.467C104.159 447.016 113.699 447.311 107.364 446.638C108.685 446.592 110.015 446.545 111.336 446.5C111.671 446.749 112.014 446.998 112.349 447.248C110.575 447.321 108.8 447.395 107.017 447.468C107.017 447.468 107.017 447.467 107.017 447.467ZM104.595 450.59C106.221 449.879 111.386 449.689 105.806 449.033C105.362 449.277 104.908 449.521 104.464 449.765C102.527 449.576 100.578 449.387 98.6404 449.198C97.9437 449.291 97.2478 449.384 96.5511 449.477C95.6639 449.052 94.7845 448.627 93.8972 448.202C94.685 448.264 95.4834 448.327 96.2712 448.389C99.3856 448.044 102.157 447.95 106.385 447.886C106.014 447.786 105.641 447.686 105.27 447.586C107.416 447.757 109.561 447.928 111.697 448.098C109.842 448.266 107.767 448.452 106.047 448.609C108.799 449.274 113.653 448.904 116.18 448.765C119.621 448.576 118.843 448.892 121.396 448.759C121.804 448.739 121.85 448.491 122.656 448.487C126.721 448.467 134.617 448.598 129.999 449.177C123.308 449.102 117.601 449.567 111.036 449.397C112.773 450.066 109.315 450.294 104.595 450.59ZM183.685 410.703C184.01 412.731 183.879 416.861 183.654 419.659C183.654 419.662 183.654 419.665 183.654 419.668C183.604 420.284 183.172 421.678 183.19 419.668C183.22 416.391 183.9 414.807 183.438 413.087C183.524 412.317 183.6 411.509 183.685 410.703ZM183.645 403.581C183.812 401.571 184.324 402.483 184.185 405C184.186 405 184.186 405 184.186 405C184.128 406.05 183.724 403.988 184.135 407.755C183.815 408.524 183.524 409.282 183.215 410.042C183.21 409.12 183.201 408.278 183.197 407.311C183.722 407.962 183.48 405.591 183.645 403.581ZM133.396 448.888C133.713 448.415 132.389 448.418 130.135 448.09C132.262 448.105 134.39 448.122 136.509 448.137C135.468 448.388 134.437 448.637 133.396 448.888ZM83.412 448.814C83.4088 448.814 83.4056 448.814 83.4024 448.814C82.7052 448.889 82.006 448.964 81.3179 449.037C80.9013 448.868 80.4895 448.7 80.073 448.532C77.6101 448.69 75.134 448.848 72.6711 449.008C72.9704 448.493 77.3913 448.576 79.8269 448.216C83.4484 448.371 85.1936 448.671 85.429 449.107C84.7592 449.01 84.0909 448.912 83.412 448.814ZM265.369 41.7733C265.226 40.9496 265.083 40.1362 264.94 39.3125C264.875 40.4077 264.825 41.4942 264.75 42.5984C265.371 45.4866 264.821 45.758 264.86 49.5419C264.978 61.1409 265.942 58.0635 264.529 68.5388C264.597 60.1285 263.933 63.3605 263.422 58.2901C263.811 57.2397 264.689 62.2641 264.871 58.8594C264.459 52.9928 264.075 47.3514 263.809 40.8421C263.742 41.0322 263.675 41.2213 263.607 41.4114C263.65 42.4437 263.692 43.4673 263.735 44.4996C263.555 43.3858 263.376 42.2972 263.194 41.1654C263.603 42.5958 263.374 38.95 263.844 39.4379C264.053 39.6553 264.343 41.2665 264.543 42.2172C264.652 39.7639 264.751 37.2477 264.857 34.7671C265.023 36.0524 265.19 37.3366 265.356 38.6128C265.362 39.6626 265.365 40.7043 265.371 41.754C265.37 41.7605 265.369 41.7669 265.369 41.7733ZM30.316 395.024C31.1422 391.982 33.3772 386.781 35.0864 384.282C33.495 387.865 31.9074 391.441 30.316 395.024ZM85.6654 449.467C85.3127 449.385 84.971 449.303 84.6183 449.22C86.1755 449.067 87.7417 448.915 89.2988 448.762C89.5975 449.001 89.903 449.24 90.2108 449.478C88.699 449.475 87.1771 449.47 85.6654 449.467ZM185.287 449.201C184.148 449.216 184.047 449.208 182.628 449.174C182.63 449.174 182.631 449.174 182.633 449.174C182.071 449.162 177.365 449.022 177.89 448.838C180.226 448.835 182.718 448.838 185.108 448.838C185.181 448.959 185.196 449.079 185.287 449.201ZM157.788 449.094C157.785 449.093 157.781 449.093 157.778 449.093C156.928 449.065 156.123 449.008 155.245 448.997C158.404 448.708 158.903 449.227 161.774 449.08C164.643 448.932 166.417 448.646 168.852 449.358C167.947 449.464 166.972 449.617 166.039 449.741C161.965 449.456 160.868 449.724 157.6 450.004C157.663 449.7 157.725 449.398 157.788 449.094ZM263.929 93.4128C264.281 94.1914 263.936 95.0597 263.931 95.1499C263.931 95.1483 263.931 95.1467 263.93 95.1451C264.256 102.042 263.735 94.2475 263.681 100.757C263.593 99.7883 263.5 98.8356 263.411 97.8762C263.58 96.3917 263.773 94.8611 263.929 93.4128ZM263.896 317.51C263.794 317.574 263.691 317.65 263.588 317.713C263.612 313.801 263.209 312.804 263.576 309.554C263.684 312.206 263.791 314.858 263.897 317.51C263.897 317.51 263.896 317.51 263.896 317.51ZM185.171 433.222C185.367 437.56 185.453 440.768 185.143 444.933C185.142 444.936 185.142 444.94 185.142 444.943C185.122 445.183 184.908 444.021 184.854 444.335C184.886 445.194 184.935 446.082 184.974 446.95C184.802 447.068 184.63 447.18 184.46 447.297C184.508 444.853 184.557 442.407 184.606 439.953C184.505 440.316 184.406 440.687 184.305 441.049C184.254 438.967 184.202 436.892 184.15 434.81C184.432 435.534 184.713 436.256 184.996 436.971C185.055 435.722 185.111 434.471 185.171 433.222ZM265.017 252.389C264.905 253.077 264.718 251.803 264.622 252.872C264.527 253.94 264.735 255.91 264.42 255.448C264.377 254.01 264.329 252.499 264.284 251.033C263.715 255.751 264.23 260.457 263.527 260.529C263.709 256.002 263.625 252.279 263.43 247.897C263.988 248.078 264.47 252.462 264.994 249.702C265.001 250.588 265.012 251.52 265.016 252.38C265.016 252.383 265.017 252.386 265.017 252.389ZM22.3007 456.462C19.6204 456.419 13.4794 456.647 10.0929 456.322C9.25969 456.242 6.48396 455.204 6.49807 455.068C6.5796 454.607 9.96937 454.544 6.33885 454.244C7.56014 454.241 8.74544 454.224 9.95776 454.216C9.74048 453.906 9.52423 453.598 9.31601 453.289C7.84008 453.336 6.36239 453.383 4.88646 453.43C4.814 453.328 4.7418 453.225 4.66932 453.123C9.97547 453.121 6.84316 452.725 9.59587 452.357C7.06715 452.171 4.51983 451.986 2 451.8C1.63981 451.8 1.63981 451.2 2 451.2C2.00611 451.2 2.01221 451.201 2.01832 451.201C2.01222 451.201 2.00611 451.201 2 451.201C1.64109 451.201 1.64109 451.799 2 451.799C3.45365 451.822 5.1647 451.839 6.445 451.865C6.61705 451.341 3.54956 451.466 3.02393 451.369C0.0632002 450.819 15.1369 451.096 16.3705 450.333C13.9625 450.248 11.4358 450.165 8.97342 450.081C9.67965 449.987 10.3951 449.893 11.1013 449.799C16.6875 450.325 22.9518 450.512 29.4613 450.84C30.0494 450.818 30.6386 450.796 31.2177 450.775C31.0457 450.538 30.883 450.302 30.711 450.065C31.5984 450.038 32.4968 450.01 33.3842 449.982C30.7679 450.762 34.391 450.751 38.7643 451.228C36.4376 451.502 33.5674 451.336 33.7654 451.846C41.7509 451.453 51.1028 452.009 58.871 451.565C60.7993 451.455 60.7931 450.796 65.3271 450.857C65.1732 450.93 65.1469 451.06 65.0472 451.156C72.8888 450.84 77.6463 450.651 85.7957 450.973C85.3251 450.736 84.8622 450.498 84.3915 450.261C82.6621 450.379 80.9297 450.499 79.2093 450.617C78.0324 450.226 79.7717 450.053 74.6108 450.058C70.3822 450.061 72.8995 450.233 71.7495 450.349C70.1924 450.508 68.8258 450.196 67.1511 450.373C65.8562 450.509 67.257 450.831 63.8796 450.75C65.2378 450.332 66.6234 449.9 67.9906 449.477C68.8146 449.571 69.6323 449.666 70.4563 449.762C69.6233 449.873 68.8044 449.984 67.9713 450.095C70.9048 449.895 73.6767 449.705 76.7098 449.497C75.7228 450.102 78.858 449.875 80.5603 449.804C83.2121 449.692 80.9402 450.108 82.6786 450.039C84.417 449.968 86.292 449.504 89.4339 449.603C87.75 449.872 90.0407 450.113 89.598 450.361C89.1543 450.61 85.831 450.665 89.0238 450.936C95.1628 450.73 88.5012 449.784 92.6475 449.631C97.6272 449.447 98.8122 450.988 97.328 451.32C96.1599 451.581 92.1406 451.528 90.9635 451.788C98.1619 452.257 98.2244 451.331 99.4559 451.15C103.929 450.491 100.924 452.25 106.221 451.614C106.121 451.943 106.041 452.239 105.941 452.554C106.855 452.494 107.462 452.415 108.566 452.367C105.31 451.726 107.975 451.753 109.343 451.752C111.498 451.75 108.169 451.438 108.74 451.357C110.279 451.141 112.713 451.239 111.22 450.957C111.89 451.088 112.616 451.22 113.304 451.35C115.822 451.186 121.739 449.813 116.108 450.091C116.633 449.58 118.455 449.826 119.876 449.903C121.297 449.981 121.271 449.656 122.52 449.716C127.491 449.956 124.239 450.512 123.452 450.947C130.016 450.647 123.589 450.449 133.049 450.248C133.964 449.893 129.593 449.514 133.232 449.309C133.903 449.926 136.583 450.369 141.807 450.574C142.314 450.432 142.82 450.289 143.327 450.147C146.179 450.716 144.721 451.308 150 450.603C147.166 451.901 149.115 451.07 153.841 451.599C154.801 451.706 152.583 451.975 153.923 452.112C154.53 452.174 156.005 451.97 157.489 452.127C158.213 452.205 161.6 452.706 163.945 452.468C162.224 451.838 166.68 451.303 162.859 450.783C169.922 450.911 174.865 450.609 166.951 451.467C168.744 451.657 170.538 451.847 172.331 452.036C173.581 451.886 174.841 451.737 176.1 451.588C176.29 452.105 176.099 452.25 181.021 452.16C178.885 452.282 176.758 452.406 174.613 452.529C174.541 452.633 174.243 452.742 174.314 452.843C176.941 452.644 184.339 452.559 186.131 452.421C187.924 452.284 184.462 452.246 184.978 452.113C185.669 451.936 186.24 451.808 186.725 451.718C186.848 451.717 186.944 451.623 186.943 451.5C186.472 448.968 187.018 448.792 186.86 446.202C186.748 444.391 186.626 448.715 186.579 447.746C186.404 444.154 186.989 442.487 186.997 439.302C186.665 440.434 186.328 441.556 185.992 442.66C186.01 439.319 186.013 435.595 185.906 432.489C185.865 431.27 185.618 432.191 185.601 431.992C185.516 431.004 185.382 426.984 185.381 426.559C185.379 423.355 185.721 423.264 185.74 420.151C185.769 421.373 185.795 422.522 185.823 423.717C186.377 424.26 186.932 424.814 187.488 425.357C187.528 422.306 187.568 419.254 187.608 416.194C187.423 418.43 187.238 420.675 187.053 422.911C186.605 419.416 186.156 415.921 185.707 412.426C185.982 410.606 186.257 408.793 186.532 406.973C186.46 402.031 185.342 403.026 186.321 400.681C186.239 399.224 186.156 397.767 186.074 396.309C186.214 396.518 186.354 396.724 186.493 396.932C186.408 395.175 186.322 393.419 186.235 391.663C185.741 393.51 185.22 395.32 184.74 397.149C184.632 393.692 185.052 393.626 185.157 393.11C185.434 391.743 185.06 389.029 185.317 387.942C185.405 387.575 185.681 390.963 186 389.795C186.061 389.567 187.233 385.032 186.962 382.138C186.75 382.192 186.49 382.416 186.259 382.533C186.13 378.641 187.238 376.657 187.548 377.173C187.331 375.099 187.313 372.068 186.973 371.643C186.969 371.167 186.966 370.693 186.962 370.219L186.725 370.456C187.306 370.452 187.888 370.447 188.471 370.443C187.367 371.269 191.786 371.118 192.076 370.407C190.293 370.39 188.508 370.372 186.725 370.355L186.861 370.219C186.86 370.256 186.86 370.293 186.86 370.33C186.832 370.286 186.804 370.25 186.777 370.219L186.725 370.271C186.934 370.086 186.851 369.919 186.725 369.78C186.477 369.778 186.288 369.971 186.286 370.219C186.074 370.413 185.927 370.709 185.883 370.219C185.887 369.743 186.249 369.373 186.725 369.377C187.337 369.322 189.174 369.427 193.967 369.763C196.167 370.217 190.056 369.702 191.849 370.041C194.963 370.239 197.887 370.073 200.848 370.389C204.532 370.783 199.999 371.162 208.583 370.661C189.649 369.403 211.179 369.811 220.071 369.421C222.516 370.663 230.026 371.056 240.366 370.687C239.289 370.341 236.036 370.519 234.161 370.405C232.287 370.292 234.315 370.087 231.98 369.925C229.645 369.764 224.684 369.544 222.32 369.3C224.322 369.104 234.206 368.642 227.671 369.198C232.55 369.54 234.841 369.892 240.887 369.956C242.698 369.417 242.564 369.081 248.458 369.066C244.972 369.815 251.67 370.336 250.195 371.11C246.016 370.929 248.352 370.177 245.935 369.817C245.687 369.781 241.793 369.97 240.887 369.956C244.817 370.632 246.176 370.884 243.758 371.688C246.538 371.617 248.267 371.718 248.521 371.334C249.1 371.501 249.683 371.668 250.253 371.834C251.158 371.83 251.972 371.815 252.931 371.818C251.61 371.239 254.171 371.595 255.99 371.332C257.81 371.07 255.369 370.612 260.367 370.606C258.701 370.471 257.178 370.354 255.566 370.226C258.789 370.077 262.022 369.927 265.245 369.778C262.981 369.424 258.076 368.898 258.21 368.433C259.695 368.609 264.78 368.3 265.337 368.287C265.607 368.281 265.825 368.28 266 368.284L264.065 370.219C264.09 369.001 264.315 369.881 264.321 369.738C264.464 366.353 264.364 363.564 264.809 362.279C264.608 359.735 264.723 357.816 264.711 355.118C264.705 353.633 264.378 353.922 264.44 353.053C264.854 347.276 265.277 352.78 264.473 341.636C264.245 342.985 264.012 344.317 263.782 345.666C263.697 344.407 263.61 343.156 263.524 341.897C263.566 341.055 263.607 340.22 263.649 339.378C264.142 339.396 264.637 339.418 265.131 339.436C265.158 338.513 265.184 337.585 265.211 336.662C265.259 338.246 265.308 339.835 265.357 341.419C265.443 341.564 265.53 341.699 265.617 341.844C265.752 339.49 265.887 337.144 266.023 334.789C265.851 334.744 265.678 334.7 265.507 334.654C265.746 329.348 265.891 329.222 265.418 324.179C265.423 320.294 264.705 317.131 264.403 314.885C264.499 314.08 264.597 313.273 264.693 312.458C264.55 311.942 264.408 311.421 264.265 310.905C264.464 309.882 264.663 308.844 264.86 307.821C264.409 307.251 264.269 306.956 264.11 310.948C263.549 309.581 263.797 302.552 263.985 299.691C264.128 297.52 264.596 299.929 264.653 299.657C264.846 298.751 264.679 295.173 264.711 294.422C264.845 291.244 264.821 289.017 264.925 286.146C264.946 285.588 265.242 284.026 265.252 283.893C265.302 282.861 265.446 280.313 265.45 280.023C265.672 265.077 264.385 281.047 264.521 267.15C264.351 267.566 264.183 267.949 264.013 268.356C264.003 267.306 263.993 266.245 263.983 265.195C264.124 263.864 264.382 265.475 264.174 262.831C264.383 263.003 264.592 263.176 264.8 263.357C264.688 262.207 264.576 261.099 264.463 259.921C265.188 258.074 265.353 251.331 266.205 251.81C266.495 251.973 266.792 256.754 267.101 254.228C267.162 252.175 266.816 253.564 266.798 252.727C266.672 246.678 267.157 247.03 267.028 244.558C266.82 244.169 266.608 243.759 266.398 243.361C266.459 242.429 266.52 241.494 266.581 240.553C266.441 240.336 266.301 240.109 266.161 239.892C266.152 240.77 266.143 241.759 266.133 242.565C265.592 241.441 265.349 231.122 265.811 235.057C265.998 236.66 265.918 239.595 266.558 237.74C266.466 234.978 266.371 231.845 266.279 228.939C266.417 228.848 266.555 228.764 266.692 228.673C266.603 224.756 266.053 228.319 265.758 228.311C265.75 227.415 265.743 226.51 265.734 225.614C265.868 225.234 266.007 224.873 266.136 224.475C265.924 224.439 265.431 223.937 265.614 221.267C265.733 219.55 266.269 222.254 266.194 218.979C265.863 219.224 265.46 220.407 265.353 216.76C265.699 216.398 266.016 215.897 266.379 215.616C266.047 211.081 266.58 209.017 266.194 203.693C265.95 200.316 265.083 195.689 266.419 193.507C266.454 191.037 266.122 191.821 266.047 191.09C265.693 187.64 266.326 185.074 266.364 184.431C266.602 180.331 266.383 178.493 266.682 175.152C266.435 175.333 266.201 175.432 265.959 175.577C266.33 178.637 266.313 180.187 266.233 184.479C266.183 183.04 266.132 181.6 266.083 180.161C265.882 180.396 265.681 180.629 265.482 180.855C266.272 194.13 265.023 191.033 264.75 179.905C265.121 178.945 265.492 177.951 265.864 177C265.301 170.571 265.79 167.546 265.907 160.276C265.92 159.412 265.706 156.263 265.696 154.91C265.694 154.933 265.693 154.955 265.692 154.978C265.341 154.136 265.179 155.276 264.866 155.412C264.826 154.679 264.787 153.945 264.748 153.212C264.987 151.574 265.183 152.15 265.126 148.927C264.888 149.362 264.65 149.79 264.412 150.225C264.404 146.694 264.663 144.382 264.551 141.096C264.641 141.648 264.731 142.194 264.821 142.746C265.051 135.593 266.45 141.285 265.754 135.88C265.876 135.536 265.999 135.201 266.121 134.857C266.151 137.084 266.18 139.312 266.21 141.53C266.383 141.575 266.555 141.624 266.728 141.66C266.676 139.279 266.623 136.886 266.571 134.504C266.687 136.243 266.803 137.992 266.919 139.73C267.002 136.969 267.085 134.207 267.167 131.445C266.532 134.378 266.454 130.576 265.825 131.291C266.349 126.401 267.039 122.56 266.597 114.982C266.509 113.479 266.07 114.295 266.605 110.031C265.905 111.063 265.577 105.721 264.912 106.407C264.944 107.892 264.964 109.431 265.003 110.87C265.234 109.232 265.869 108.96 266.057 111.45C266.297 114.628 265.857 119.263 266.562 119.073C266.529 120.341 266.509 121.519 266.481 122.75C266.307 122.243 266.131 121.747 265.956 121.25C266.23 124.752 266.141 126.953 265.7 128.637C265.599 124.463 265.498 120.299 265.398 116.125C265.368 116.74 265.338 117.363 265.309 117.978C264.859 114.818 264.432 118.078 264.336 112.183C264.542 112.219 264.748 112.248 264.955 112.284C264.404 110.138 264.407 104.263 263.774 106.137C263.968 104.362 264.092 104.001 263.75 102.996C264.231 98.3144 264.84 95.3078 265.566 96.9738C265.45 95.2357 265.332 93.4965 265.215 91.7674C265.017 92.7723 264.819 93.7783 264.62 94.7832C264.633 91.7588 264.645 88.7125 264.656 85.6973C265.244 85.4076 264.835 91.5184 265.36 89.7553C265.466 89.4025 265.24 87.775 265.299 87.3476C265.942 82.8386 265.477 89.917 265.97 88.5876C266.122 81.8689 266.947 87.2454 266.254 77.9914C266.423 77.747 266.596 77.4843 266.765 77.258C266.775 74.0456 266.392 74.3061 266.32 71.5449C266.275 69.8157 266.948 67.6453 266.489 65.7354C266.405 65.3949 265.582 68.6076 265.618 61.8559C265.646 56.6159 266.228 58.7968 266.434 55.9643C266.64 53.1301 265.834 46.6466 266.747 44.736C266.626 46.2205 266.561 48.1115 266.462 49.7591C266.64 50.429 266.816 51.0813 266.993 51.7422C266.763 47.9755 267.034 44.0819 266.609 41.5466C267.258 36.5211 266.656 30.9008 265.923 32.4221C266.029 34.0762 266.349 32.2767 266.145 34.5741C265.974 34.8095 265.804 35.0576 265.634 35.2931C265.654 31.3814 265.649 28.6647 266.17 30.4485C266.182 29.8419 266.195 29.2409 266.207 28.6343C265.831 28.5256 265.452 28.4293 265.076 28.3206C265.033 27.5963 264.991 26.8688 264.949 26.1445C265.032 25.3391 265.115 24.5318 265.199 23.7174C265.795 24.813 265.815 26.6792 266.148 20.5038C265.942 20.4857 265.737 20.4592 265.531 20.4411C265.793 15.271 266.292 15.1346 266.273 8.64339C266.988 13.6234 265.721 16.3481 267.155 16.33C267.061 17.5795 266.965 18.8392 266.871 20.0888C267.079 20.2789 267.288 20.4674 267.496 20.6485C267.422 16.1462 266.782 9.64632 266.643 4.49999C266.64 4.13649 266.364 3.85451 266 3.85738C263.478 3.92559 261.28 3.87334 259.803 3.57497C259.26 3.68569 258.715 3.78191 258.162 3.9009C253.762 3.35341 251.861 4.58254 247.397 3.87465C246.937 3.80034 247.901 2.64559 242.09 2.68697C242.234 2.83706 242.31 3.08965 242.427 3.27898C241.169 3.18691 239.918 3.09054 238.669 2.99639C238.442 3.13503 238.205 3.27358 237.979 3.41326C240.125 3.46706 242.265 3.52178 244.411 3.57558C242.627 3.62319 240.833 3.67083 239.05 3.7184C241.376 3.94497 242.425 3.94738 241.023 4.31041C239.004 4.33214 236.982 4.35521 234.963 4.37694C234.755 4.46996 234.548 4.56408 234.34 4.65709C235.318 4.93441 236.306 5.20565 237.284 5.48711C232.023 5.26049 227.45 5.24816 223.411 4.70284C222.723 4.61074 225.157 4.24944 220.468 4.57531C220.395 4.38393 220.269 4.22854 220.188 4.05166C214.447 4.58773 212.561 4.42773 206.576 4.04067C210.452 4.40185 206.994 4.16692 206.007 4.36046C205.33 4.4938 207.97 4.47411 207.671 4.61376C207.373 4.7524 203.943 5.31234 206.875 5.37969C214.065 4.23195 216.023 5.60418 225.259 5.05257C223.838 5.20055 222.406 5.3489 220.984 5.49688C221.654 5.59719 222.253 5.68819 222.977 5.79473C217.826 5.57018 220.331 5.71605 218.214 5.893C216.096 6.06997 212.245 6.2203 209.664 6.26894C208.851 6.28423 209.709 6.02679 207.874 6.00283C206.625 5.98629 203.21 6.36791 202.422 5.91799C201.956 5.65389 206.372 4.97204 201.679 4.84218L201.992 4.63955C201.771 5.09997 201.512 5.66146 201.208 6.34106C200.535 7.28713 201.393 5.39062 201.769 4.53997L201.679 4.59804C201.916 4.59707 202.078 4.59511 202.093 4.58813C202.264 4.50024 202.081 4.41793 201.679 4.34865C201.627 4.34905 201.562 4.39022 201.541 4.43825C200.886 5.41497 199.585 8.10158 199.11 9.64193C199.059 9.81051 199.996 8.36507 199.337 10.0974C197.773 14.2089 196.46 16.4002 194.924 18.8278C195.24 19.3064 194.261 22.9166 192.222 27.0435C192.252 27.3149 192.289 27.5767 192.32 27.8485C192.544 27.1665 192.77 26.4849 192.994 25.803C193.391 25.1274 193.785 24.4 194.189 23.7472C192.411 28.0195 192.754 28.8891 192.072 31.0141C189.738 38.2854 190.003 33.365 190.283 31.9909C190.798 31.1399 191.313 30.3246 191.83 29.4845C191.632 29.5149 191.432 29.5462 191.236 29.5679C186.606 39.9454 189.53 30.7014 186.892 35.8399C187.044 37.5341 185.389 41.4347 182.708 46.1469C182.468 46.6943 182.224 47.2423 181.985 47.7901C182.055 47.9301 182.224 48.0043 182.231 48.1853C179.708 54.1788 178.069 54.715 177.707 55.2278C176.101 57.5053 175.912 59.7525 175.589 60.4911C174.228 63.6018 173.524 64.3682 172.335 67.3771C171.057 70.6135 172.258 68.5465 172.033 69.6045C171.852 70.4525 170.762 72.9697 170.471 74.0803C170.515 73.607 170.582 73.0891 170.626 72.6169C168.966 75.8218 167.58 78.4277 165.865 82.1433C165.001 86.8146 161.68 89.6339 163.724 88.802C165.4 85.3061 166.442 83.3986 167.643 81.664C166.651 84.0069 165.657 86.3511 164.665 88.694C164.209 89.3033 163.845 89.7178 163.331 90.4499C162.881 92.3309 160.944 96.2929 160.334 97.9152C157.475 105.514 159.052 103.473 155.104 109.811C157.187 104.902 156.731 104.708 158.95 99.908C158.162 100.805 157.133 103.289 157.454 101.528C155.464 106.241 156.484 104.886 155.979 106.841C155.544 108.527 154.148 111.691 154.572 111.666C154.239 111.904 153.944 112.072 153.611 112.31C152.262 115.336 150.911 118.361 149.561 121.387C149.94 120.01 150.318 118.632 150.697 117.255C150.187 118.196 149.677 119.139 149.167 120.08C146.458 127.795 139.601 140.124 142.059 138.763C140.506 142.373 140.112 142.735 138.949 144.555C138.97 144.823 138.974 145.075 139.008 145.348C137.852 147.608 137.498 149.581 136.472 151.572C135.447 153.563 134.805 153.884 135.37 154.493C134.579 155.727 133.825 156.967 133.052 158.198C132.856 159.062 132.659 159.925 132.466 160.78C131.829 161.983 131.192 163.189 130.555 164.392C130.592 165.203 128.27 170.015 127.534 172.264C126.263 174.144 125.157 173.583 123.216 178.474C123.552 178.475 123.886 178.478 124.222 178.479C123.672 179.552 123.122 180.628 122.568 181.709C122.447 181.735 122.33 181.751 122.209 181.776C122.488 181.227 122.764 180.685 123.045 180.136C122.672 180.555 122.304 180.963 121.935 181.374C121.415 183.154 120.894 184.937 120.371 186.726C121.56 184.53 122.749 182.334 123.938 180.139C122.87 183.083 121.778 184.977 120.9 187.559C119.549 189.544 119.682 188.648 119.653 187.584C119.33 188.401 119.003 189.228 118.681 190.045C118.496 189.329 117.64 190.573 119.767 185.902C119.504 186.17 119.242 186.448 118.978 186.706C118.653 187.483 118.329 187.937 117.999 188.8C117.099 191.155 117.05 193.247 117.379 193.206C117.553 193.182 118.306 190.799 118.457 190.976C118.824 191.409 116.292 196.514 120.111 189.226C119.297 191.847 118.824 192.303 117.512 195.009C117.764 194.864 118.012 194.724 118.26 194.587C117.62 195.828 116.979 197.071 116.339 198.311C116.329 196.184 111.837 205.434 114.91 196.674C113.759 199.154 112.611 201.626 111.462 204.097C111.609 203.548 111.757 202.999 111.903 202.45C112.449 201.345 112.991 200.246 113.536 199.141C112.795 200.396 112.054 201.655 111.313 202.91C110.103 206.118 109.842 207.471 109.557 209.059C111.439 205.537 110.556 206.568 111.752 203.703C111.932 203.902 112.196 203.863 112.32 204.216C111.203 205.473 109.406 210.401 108.934 211.518C107.497 214.92 108.223 212.073 107.206 214.324C106.188 216.577 105.27 219.36 103.995 221.002C104.263 221.082 104.591 221.051 104.88 221.022C103.394 224.573 103.408 223.738 103.207 224.085C99.9776 229.604 99.1087 232.994 96.2085 239.661C96.6635 238.853 97.1148 238.033 97.5688 237.215C95.8693 242.463 97.2117 239.016 99.3316 234.747C97.4572 238.798 96.8723 241.337 95.7233 244.275C94.5742 247.212 92.1354 252.041 91.1468 253.762C92.6948 249.505 94.8767 245.142 96.8413 240.525C96.3508 240.931 95.9065 241.34 95.3831 241.75C94.6801 244.778 93.5971 246.23 93.1155 247.116C91.7012 249.716 92.2037 249.839 90.9766 251.244C91.178 251.255 91.3442 251.271 91.5343 251.277C88.9773 256.808 85.9928 262.674 85.0101 266.579C84.4495 266.725 83.9403 266.797 83.349 266.989C82.6075 269.484 81.3881 271.359 80.5746 273.376C79.7647 275.384 80.4344 274.781 79.5254 277.161C79.357 277.602 78.7482 278.404 78.4295 279.531C78.1071 280.668 77.4981 285.124 76.2818 285.146C75.3872 287.136 74.5083 289.005 73.6198 290.948C74.4124 289.021 75.2071 287.095 75.996 285.176C75.0285 286.688 74.0663 288.189 73.0988 289.701C73.2238 290.005 73.3525 290.311 73.4784 290.605C71.7932 295.088 70.0229 298.097 68.1387 302.541C67.8243 303.283 69.0293 301.74 67.4616 304.955C65.8934 308.172 64.0089 310.237 61.8338 315.939C61.7243 316.227 61.6026 318.149 60.2874 319.951C59.9885 320.362 60.6983 318.39 60.1068 319.374C59.5149 320.359 57.3347 324.96 56.8708 325.189C56.9997 325.188 57.2398 324.947 57.4113 324.855C57.1079 325.671 56.8009 326.495 56.4929 327.32C56.2716 327.31 56.0474 327.306 55.8271 327.297C54.2263 332.056 53.8865 334.733 50.6299 341.39C51.7522 339.61 52.876 337.831 53.9947 336.06C54.0355 335.453 54.0754 334.845 54.1126 334.247C55.5811 331.165 57.0529 328.074 58.5214 324.991C58.5321 324.381 58.5394 323.78 58.55 323.17C58.9476 322.357 59.3406 321.55 59.7382 320.736C59.8036 321.014 59.8675 321.292 59.9293 321.577C60.6216 319.924 61.314 318.267 62.0025 316.622C61.4532 320.353 57.7882 325.844 58.7588 325.763C58.3094 326.445 57.8588 327.127 57.4084 327.808C57.6422 328.299 56.8655 329.746 55.6285 332.356C56.0842 331.835 56.5655 331.251 57.001 330.781C55.5935 333.226 53.5884 337.784 52.3019 340.393C51.7369 341.538 51.983 340.252 51.7959 340.584C50.8337 342.287 49.7941 345.897 49.4387 346.592C47.3158 350.74 45.1762 353.097 43.7018 358.002C45.9874 353.281 44.7619 355.857 45.8543 354.302C46.1964 353.815 49.1756 347.728 45.6204 355.429C45.2028 356.331 38.3005 370.103 39.8839 365.27C39.0214 367.612 38.4033 369.471 37.6352 371.627C34.0961 376.155 36.0711 374.923 37.386 373.735C37.0159 374.572 36.6677 375.369 36.2836 376.229C36.4128 374.095 32.2122 383.384 31.1484 386.697C30.791 387.807 32.3325 384.946 31.3435 387.44C30.7748 388.584 30.122 389.878 29.5182 391.085C30.7504 389.493 29.3526 393.073 29.8166 393.221C28.422 395.285 26.8214 396.626 26.9187 395.193C26.2749 397.126 25.6266 399.069 24.9838 401.003C25.4727 400.19 25.9657 399.365 26.4547 398.553C23.4737 404.48 20.6301 412.544 19.1362 413.394C18.7846 414.199 18.4283 415.012 18.0767 415.817C18.1228 416.135 18.1729 416.445 18.219 416.763C16.4622 420.331 14.7081 423.89 12.9512 427.458C14.2971 424.184 14.4173 423.315 16.1121 420.007C15.3484 421.233 14.573 422.482 13.8204 423.682C12.0276 429 12.036 429.838 8.461 437.454C8.29928 437.798 5.29998 443.419 5.17167 443.6C4.5842 444.428 4.93702 442.93 4.66454 443.294C3.90529 444.304 0.208101 450.848 0.169857 450.672C-0.278582 448.468 9.97353 425.474 12.6891 419.229C40.8564 354.458 69.8783 291.772 98.356 227.626C98.648 226.966 98.3432 227.175 98.4611 226.89C99.1959 225.127 100.236 223.536 100.535 222.897C101.174 221.529 100.581 222.175 101.03 221.168C105.679 210.769 110.212 201.021 114.818 190.593C115.118 189.913 115.012 190.696 115.508 189.49C115.763 188.866 116.31 186.803 116.925 185.414C119.073 180.562 120.991 176.537 123.268 171.426C124.513 168.63 126.412 164.45 127.803 161.324C128.418 159.943 128.917 158.441 129.521 157.076C130.379 155.138 130.492 155.662 130.642 155.373C131.304 154.102 131.068 153.779 131.629 152.542C132.675 150.243 132.942 150.213 134.231 147.278C135.152 145.181 137.123 140.319 138.252 137.66C141.253 131.602 144.627 123.786 147.116 117.996C148.589 114.569 149.026 114.385 149.646 112.996C151.826 108.1 153.106 104.217 155.147 99.6148C157.855 93.5077 160.52 88.2137 163.178 82.3119C163.609 81.3548 163.239 81.4535 163.652 80.5101C165.181 77.0181 167.12 72.5451 168.544 69.4621C170.129 66.0258 171.093 64.9275 172.523 61.5105C172.942 60.5086 172.726 60.0636 173.424 58.3825C174.539 55.6979 176.144 52.9245 177.005 51.088C178.184 48.57 176.846 50.62 178.422 47.2183C178.486 47.0785 178.967 46.679 179.283 45.9386C180.206 43.7821 179.913 43.906 181.331 40.7811C181.468 40.4816 183.564 36.4341 183.749 36.0216C184.838 33.5927 187.108 28.7367 187.7 27.2751C189.815 22.0516 187.628 25.9309 190.404 21.9246C191.063 19.9089 191.712 17.908 192.428 15.7791C192.002 17.223 194.735 11.8111 194.892 11.415C196.19 8.13955 195.015 9.91134 196.889 5.85958C195.83 9.48986 197.104 6.39956 198.441 3.05331C198.933 1.92696 200.45 0.962455 201.679 0.95275C203.744 0.869834 205.894 0.771384 206.841 0.763846C219.355 0.663473 230.729 0.865438 243.306 0.86028C247.516 0.858144 253.158 0.687062 257.612 0.691212C258.651 0.691456 257.866 0.882984 258.78 0.887135C259.692 0.889973 258.68 0.674946 259.721 0.686329C261.949 0.711994 264.012 0.776875 266 0.83028C268.076 0.813862 269.653 2.42415 269.67 4.49999C269.568 8.28838 269.508 11.8086 269.84 15.6979C269.767 15.9866 269.709 15.9773 269.629 16.4554C270.083 21.3089 269.472 30.6556 269.388 34.1688C269.258 39.6637 269.565 41.0673 269.503 45.0593C269.42 50.3381 268.82 58.2638 269.811 54.7242C269.842 58.3455 269.85 61.8317 269.758 65.4893C269.748 65.8964 269.496 65.6158 269.491 65.7788C269.455 66.8107 269.68 67.1469 269.69 67.844C269.718 69.7341 269.448 66.6495 269.524 69.3446C269.564 70.7662 269.761 71.5734 269.765 75.5209C269.787 99.3169 269.716 125.151 269.683 149.545C269.681 151.22 269.924 150.117 269.909 152.218C269.855 159.516 269.445 172.579 269.501 178.872C269.557 185.165 269.913 183.745 270.062 187.683C270.091 188.444 269.888 187.82 269.885 188.508C269.866 193.135 269.55 198.651 269.502 202.4C269.471 204.879 269.79 204.68 269.812 206.4C269.846 208.963 269.523 211.6 269.513 212.967C269.467 219.395 269.727 223.814 269.595 229.817C269.665 229.582 269.73 229.427 269.799 229.228C269.788 236.335 269.776 243.434 269.765 250.541C269.829 250.206 269.894 249.882 269.959 249.547C269.924 257.886 269.228 256.935 270.697 256.201C270.749 256.808 270.808 257.451 270.856 258.03C270.1 257.794 269.546 262.839 269.353 269.258C269.339 269.729 270.077 272.888 269.205 272.544C269.418 273.368 269.565 273.859 269.753 274.556C269.489 275.914 269.228 277.29 268.965 278.648C269.005 279.381 269.043 280.125 269.082 280.858C269.253 280.967 269.43 280.883 269.598 281.119C269.623 284.523 269.412 291.505 269.434 294.195C269.489 300.877 269.951 307.681 269.452 312.878C269.503 315.41 269.838 312.896 269.795 316.661C269.626 317.087 269.463 317.487 269.288 317.93C270.046 321.008 269.585 321.65 269.427 325.868C269.319 328.72 269.504 330.587 269.468 333.303C269.459 333.992 269.236 333.894 269.244 334.365C269.267 335.942 269.573 340.441 269.581 341.554C269.662 351.641 269.627 360.306 269.546 369.912C269.545 370.056 269.548 370.154 269.554 370.219C269.594 370.219 269.756 370.219 269.748 370.219C269.766 372.471 267.797 373.949 265.544 373.967C263.825 373.952 264.837 373.615 263.841 373.598C261.063 373.554 261.042 373.91 257.168 373.928C244.41 373.989 229.742 373.722 216.414 373.698C215.997 373.698 216.022 373.907 215.57 373.909C212.618 373.919 209.631 373.637 206.952 373.64C202.506 373.644 199.165 373.937 194.773 373.936C192.019 373.936 189.359 373.92 186.725 373.899L190.405 370.219C190.359 375.795 190.289 381.257 190.283 387.252C190.276 394.478 190.303 400.754 190.302 408.676C190.301 422.859 190.411 437.161 190.517 451.5C190.534 453.645 188.87 455.275 186.725 455.292C166.075 455.445 145.347 455.591 124.783 455.383C123.897 455.374 124.258 455.19 123.987 455.198C121.416 455.277 121.186 455.526 120.272 455.005C116.996 455.108 115.962 455.499 112.006 455.471C109.898 455.456 111.472 454.85 107.905 455.163C104.684 455.445 108.238 455.778 98.6597 455.438C98.4062 455.429 97.158 455.059 95.1663 455.156C93.1652 455.251 95.4815 455.515 90.6643 455.595C79.3554 455.781 65.0408 455.462 51.8937 455.56C51.0697 455.566 43.1342 455.764 41.5677 455.855C38.5363 456.032 39.1696 456.306 35.2322 456.374C32.1898 456.426 29.6796 456.115 26.1029 456.177C25.6863 456.184 24.9885 456.504 22.3007 456.462ZM264.749 28.6439C264.435 27.9014 263.28 26.5614 263.631 22.072C263.664 21.6464 264.459 23.9437 264.585 21.464C264.669 23.8906 264.696 26.2536 264.75 28.6439C264.749 28.6439 264.749 28.6439 264.749 28.6439ZM2.84056 449.096C6.19987 449.154 9.57079 449.211 12.9301 449.269C10.6121 449.409 8.29074 449.548 5.98178 449.689C4.9316 449.491 3.89075 449.293 2.84056 449.096ZM264.144 296.477C264.144 296.48 264.144 296.484 264.144 296.487C263.995 292.955 263.846 289.422 263.697 285.891C263.807 286.262 263.917 286.634 264.027 287.005C264.199 289.794 264.372 292.583 264.545 295.363C264.411 295.734 264.278 296.106 264.144 296.477ZM265.306 324.377C265.175 326.631 264.956 326.079 264.741 327.32C264.742 327.32 264.742 327.32 264.743 327.32C264.687 327.647 264.638 329.172 264.63 329.762C264.767 329.544 264.903 329.264 265.04 329.028C265.373 334.289 264.189 344.577 263.712 331.257C263.885 331.457 264.058 331.647 264.232 331.846C264.184 325.227 264.561 317.848 265.306 324.377ZM236.922 6.25185C231.272 6.82107 229.46 6.94106 222.605 6.55089C223.574 6.38958 224.542 6.22826 225.51 6.06692C226.642 6.23147 227.766 6.39489 228.897 6.55944C228.901 6.55944 228.904 6.55944 228.907 6.55944C229.133 6.38662 229.361 6.21349 229.578 6.04067C232.022 6.11104 234.477 6.18148 236.922 6.25185ZM176.838 450.394C175.263 449.258 175.717 449.918 180.216 449.662C181.773 449.573 180.255 449.374 181.224 449.341C186.456 449.16 186.874 449.922 185.707 450.318C182.746 450.345 179.754 450.37 176.848 450.394C176.844 450.394 176.841 450.394 176.838 450.394ZM41.09 450.631C41.0869 450.631 41.0836 450.631 41.0804 450.631C40.9446 450.353 43.0537 450.279 40.6751 450.016C42.4848 450.017 44.2944 450.019 46.1131 450.02C45.5797 450.046 45.0349 450.071 44.5015 450.097C44.9723 450.192 45.4445 450.288 45.9153 450.383C46.5581 450.065 47.1554 450.25 49.0565 450.357C48.5313 450.016 48.0087 449.675 47.4835 449.335C49.6924 449.436 51.9092 449.538 54.1182 449.639C54.1453 449.725 54.173 449.811 54.2002 449.897C55.0329 449.787 55.8572 449.677 56.69 449.567C56.9163 449.669 57.1344 449.771 57.3607 449.873C58.3654 449.796 59.3717 449.718 60.3764 449.639C60.6823 449.888 58.4678 449.995 62.3934 449.932C61.1893 450.186 59.9876 450.44 58.7745 450.695C52.88 450.674 46.9846 450.652 41.09 450.631ZM185.27 420.464C185.317 426.956 185.137 425.128 184.575 423.625C184.806 422.575 185.038 421.514 185.27 420.464ZM265.046 165.265C264.662 163.382 264.282 161.49 263.911 159.562C263.697 155.722 264.397 151.882 264.671 154.77C265 158.247 264.632 161.879 265.046 165.265ZM264.875 77.8225C264.697 82.5198 264.241 78.1001 263.975 77.0409C264.402 75.7414 264.364 73.9294 264.414 71.019C264.442 73.7519 264.905 77.0457 264.876 77.8225C264.876 77.8225 264.875 77.8225 264.875 77.8225ZM264.614 240.857C264.626 242.739 264.733 244.612 264.603 246.295C264.236 245.787 264.57 242.42 264.025 244.828C264.016 243.624 264.007 242.419 263.997 241.224C264.222 241.983 264.391 240.962 264.613 240.862C264.614 240.86 264.614 240.859 264.614 240.857ZM199.381 368.331C203.075 368.766 203.775 368.58 207.497 368.278C208.021 368.632 203.584 369.225 200.804 369.356C200.334 369.014 199.861 368.672 199.381 368.331ZM49.4135 349.577C49.3634 348.583 51.9787 342.583 53.4266 339.669C53.3298 340.05 53.2332 340.432 53.1373 340.813C51.8977 343.731 50.6531 346.659 49.4135 349.577ZM264.445 69.6341C264.431 70.1212 264.422 70.5831 264.414 71.019C264.409 70.5344 264.417 70.0665 264.445 69.6341ZM173.889 65.73C174.132 64.1433 172.125 68.2859 174.555 63.2532C174.555 63.253 174.555 63.2529 174.554 63.2527C176.161 59.9243 176.52 59.1917 177.947 56.08C177.943 57.4278 175.289 63.8475 179.295 55.1552C179.347 55.0404 178.948 55.1368 179.612 53.7589C179.818 53.3335 180.677 52.0632 181.685 49.9972C182.01 49.3293 184.361 44.2685 181.264 51.2149C181.704 51.1635 181.89 51.6937 182.234 51.8279C181.121 54.5824 179.51 56.3614 178.246 59.2365C176.371 63.5061 176.091 65.9803 174.822 66.3953C176.2 62.7161 178.94 56.5659 179.842 56.0069C181.395 52.5462 181.394 51.3527 179.927 54.0473C174.863 66.1354 177.799 57.0363 173.476 67.6699C173.546 67.8499 173.489 68.3412 173.636 68.3281C171.766 71.3281 173.803 66.2964 173.889 65.73ZM186.023 41.1436C185.366 43.3291 184.713 45.5088 184.06 47.6864C183.627 47.493 183.746 46.1845 184.957 42.8182C185.312 42.2631 185.67 41.6991 186.023 41.1436ZM108.476 215.061C108.579 215.463 108.44 216.353 108.405 217.032C107.926 217.571 101.089 232.368 104.276 224.71C104.739 223.598 108.15 217.077 108.476 215.061ZM185.225 383.214C185.398 381.294 185.571 379.382 185.744 377.472C185.854 380.413 185.966 383.356 186.078 386.297C185.794 385.267 185.509 384.244 185.225 383.214ZM265.498 134.017C265.488 134.828 265.134 132.135 265.19 135.329C264.963 132.948 264.771 130.718 264.558 128.391C264.726 127.694 264.893 126.989 265.06 126.292C264.953 125.749 264.846 125.195 264.738 124.651C264.982 124.977 265.221 125.267 265.469 125.611C264.946 129.532 265.539 130.431 265.498 134.017ZM266.453 250.599C265.922 251.304 265.607 245.627 265.522 251.212C265.173 250.152 264.99 248.449 264.959 245.18C265.093 244.656 265.225 244.132 265.358 243.607C265.001 243.535 264.869 242.694 264.614 240.857C264.615 240.855 264.615 240.854 264.616 240.852C264.59 235.883 264.709 236.18 265.295 234.985C264.964 240.246 265.5 240.403 265.819 243.989C266.038 246.451 265.939 249.667 266.453 250.599ZM115.553 199.202C114.445 202.781 116.188 199.904 113.062 205.736C113.131 205.301 113.203 204.865 113.272 204.43C114.032 202.687 114.792 200.944 115.553 199.202ZM264.634 268.959C265.456 268.533 266.095 265.031 264.758 264.433C264.486 267.847 265.243 266.179 264.634 268.959ZM266.161 79.4245C266.123 85.9886 265.196 84.7477 264.732 82.0494C264.901 81.6329 265.07 81.2168 265.237 80.8093C265.161 79.6594 265.084 78.5093 265.009 77.3593C265.393 78.0474 265.778 78.7363 266.161 79.4245ZM251.537 369.755C256.553 369.169 246.122 369.429 249.626 369.063C252.424 368.77 256.111 369.361 254.717 369.732C253.748 369.742 252.669 369.749 251.546 369.755C251.543 369.755 251.54 369.755 251.537 369.755ZM265.369 355.654C264.742 356.477 264.924 355.29 265.037 359.253C265.069 360.385 264.834 369.379 265.353 365.603C265.353 362.39 265.362 358.994 265.369 355.654ZM265.048 5.25582C265.034 5.19143 265.408 5.10888 266 5.0223L265.478 4.49999C265.758 6.41829 266.081 10.6228 265.967 11.3021C265.967 11.3021 265.968 11.3021 265.968 11.3021C265.559 13.7016 265.501 6.39617 264.94 9.56502C265.089 7.45192 265.084 5.78478 265.049 4.49999L266 5.45128C263.018 5.53429 262.096 5.78634 262.438 4.68697C266.571 4.61797 264.614 4.94225 265.048 5.25582ZM13.1958 427.509C13.1945 427.512 13.1932 427.515 13.1919 427.518C13.3933 427.099 15.322 423.763 15.2587 424.245C13.2706 428.404 13.3647 427.547 12.0107 431.641C11.7873 431.799 11.5815 431.927 11.3498 432.101C11.9685 430.513 12.2002 429.583 13.1958 427.509ZM100.787 230.926C101.412 229.351 102.943 226.65 103.713 224.882C102.247 230.951 98.2875 237.217 100.787 230.926ZM104.58 450.592C104.585 450.591 104.59 450.591 104.595 450.59C104.593 450.591 104.591 450.592 104.59 450.592C104.587 450.592 104.583 450.592 104.58 450.592ZM154.922 111.4C154.766 111.569 154.657 111.656 154.587 111.673C154.583 111.671 154.578 111.669 154.573 111.667C154.684 111.587 154.799 111.501 154.922 111.4ZM250.654 5.33818C247.77 4.95742 257.38 4.35207 260.488 4.49657C260.271 4.67037 260.237 4.82793 259.731 5.02755C257.222 4.57747 251.134 5.40236 250.654 5.33818ZM265.302 208.267C265.312 200.67 266.815 210.557 265.616 210.965C265.593 210.949 265.304 208.464 265.302 208.267ZM265.319 49.0642C265.774 50.9997 265.895 47.1101 265.817 53.3297C265.699 53.6917 265.581 54.0534 265.463 54.4154C265.415 52.6321 265.367 50.8475 265.319 49.0642ZM267.275 158.5C267.022 148.939 266.574 139.794 265.319 146.022C265.36 146.746 265.399 147.48 265.439 148.203C266.051 148.312 265.717 150.982 265.697 154.891C265.94 155.448 265.996 157.616 266.203 158.022C266.602 158.809 266.883 156.318 267.275 158.5ZM155.327 451.779C155.481 451.674 155.631 451.569 155.785 451.466C157.298 451.348 158.814 451.23 160.326 451.112C160.082 451.313 159.837 451.513 159.593 451.714C158.172 451.736 156.758 451.758 155.337 451.779C155.333 451.779 155.33 451.779 155.327 451.779ZM188.644 32.1093C189.34 33.3715 190.384 30.5137 192.364 24.6551C191.126 27.1363 189.882 29.628 188.644 32.1093ZM266.809 312.145C266.482 312.344 266.156 312.54 265.829 312.748C266.17 316.017 266.544 315.41 266.977 313.843C266.921 313.273 266.865 312.715 266.809 312.145ZM266.948 359.229C267.016 357.873 266.752 358.565 266.758 358.423C266.896 354.992 267.018 354.508 266.819 350.298C266.75 349.782 266.677 349.275 266.605 348.758C265.92 350.705 266.294 352.118 265.891 356.238C266.126 355.495 266.361 354.756 266.597 354.013C266.548 356.303 266.499 358.584 266.449 360.875C266.521 361.146 266.593 361.418 266.666 361.69C266.759 360.875 266.863 360.035 266.948 359.229ZM137.84 451.481C135.613 451.455 133.375 451.427 131.148 451.4C131.066 451.568 130.988 451.738 130.907 451.907C133.215 451.765 135.532 451.623 137.84 451.481ZM170.471 74.0803C170.453 74.2659 170.438 74.4476 170.431 74.6124C170.369 74.5683 170.395 74.3684 170.471 74.0803ZM9.9541 432.498C8.81627 434.756 7.40254 438.111 6.24995 440.631C6.72516 440.604 9.49028 434.127 10.733 431.974C10.8257 431.58 10.4349 431.543 9.9541 432.498ZM266.124 88.5056C266.335 89.1393 266.545 89.7724 266.757 90.3971C266.734 91.9274 266.71 93.461 266.687 95.0003C266.86 95.0456 267.034 95.0901 267.207 95.1354C266.982 88.3546 267.481 89.918 267.972 86.561C267.357 87.2129 266.741 87.8537 266.124 88.5056ZM66.9677 452.578C71.8663 452.461 73.6038 452.242 70.8423 451.724C69.1135 451.843 67.3744 451.962 65.6456 452.081C66.0891 452.246 66.5332 452.412 66.9677 452.578ZM133.73 155.378C132.235 159.2 131.572 158.978 130.292 162.795C131.285 160.888 132.278 158.982 133.266 157.084C133.419 156.52 133.577 155.942 133.73 155.378ZM237.255 2.08031C235.525 1.83825 232.292 2.98888 227.431 2.13952C226.272 2.393 225.546 2.63515 224.55 2.88347C223.97 2.61336 223.312 2.3398 222.76 2.07177C222.757 2.07177 222.753 2.07177 222.75 2.07177C218.34 2.16283 221.2 2.50161 221.1 2.78829C221.053 2.90713 217.78 2.70846 218.803 2.96709C220.569 3.41109 227.166 3.15578 227.185 3.69704C224.867 3.52016 220.34 3.66796 221.679 4.02907C223.146 4.42541 227.411 3.76119 230.128 4.09008C226.235 3.225 234.275 3.49221 235.19 4.15661C239.907 3.64641 235.571 3.43828 230.736 3.46206C233.688 2.9529 229.343 3.22799 228.627 2.80477C231.671 2.54928 242.117 2.76223 237.255 2.08031ZM267.482 198.323C267.449 195.062 267.74 189.968 267.31 187.736C267.06 186.436 266.866 191.542 266.473 188.021C266.511 191.198 266.665 191.922 267.009 191.379C267.051 192.103 267.091 192.836 267.131 193.56C267.064 193.895 266.998 194.239 266.931 194.574C267.072 194.954 267.213 195.336 267.355 195.707C267.327 196.476 267.299 197.255 267.27 198.024C267.341 198.114 267.403 198.268 267.482 198.323ZM85.7466 262.855C86.112 262.026 86.4738 261.206 86.8383 260.378C86.721 260.434 86.5928 260.507 86.4673 260.576C86.3717 260.624 86.276 260.671 86.1803 260.718C86.6166 260.338 88.745 256.565 89.2484 254.801C89.5018 253.913 88.2313 255.622 89.7366 252.054C88.6139 254.626 87.6115 257.025 86.5361 259.529C86.5101 259.25 86.4789 258.979 86.4529 258.699C86.4521 258.701 86.4512 258.702 86.4504 258.703C86.0529 259.517 85.6497 260.34 85.2522 261.154C85.4162 261.723 85.5825 262.285 85.7466 262.855ZM267.455 309.491C267.185 306.403 267.045 305.37 266.608 306.827C266.608 306.831 266.608 306.834 266.608 306.837C266.801 307.987 266.995 309.137 267.188 310.287C267.277 310.024 267.366 309.763 267.455 309.491ZM158.307 97.7765C157.145 104.447 162.246 90.5339 160.582 92.8735C160.506 92.9787 158.726 97.2891 158.307 97.7765ZM266.672 78.2182C266.685 80.0201 266.697 81.826 266.711 83.637C266.915 83.2204 267.118 82.794 267.322 82.3775C267.105 80.9921 266.888 79.6036 266.672 78.2182ZM88.2951 453.331C90.1917 453.786 95.0599 453.951 97.4389 453.456C96.1894 453.398 94.9393 453.34 93.6897 453.282C96.0521 453.225 98.3879 453.162 100.768 453.109C100.895 452.474 98.1517 452.842 94.0227 452.667C93.3834 452.639 89.2963 451.852 87.885 452.445C87.6011 452.567 91.9489 452.65 88.9273 453.005C90.2485 453.033 91.3889 453.027 92.6378 453.042C92.7284 453.193 92.8181 453.344 92.9177 453.495C91.3733 453.441 89.8395 453.385 88.2951 453.331ZM267.432 179.34C267.467 174.862 267.214 174.309 266.766 173.376C266.816 175.459 266.866 177.542 266.917 179.625C267.088 179.526 267.26 179.44 267.432 179.34ZM128.325 453.476C130.777 453.549 129.727 453.185 130.714 453.115C134.444 452.855 136.988 453.115 140.673 452.952C140.428 453.022 140.204 453.088 139.968 453.156C139.972 453.156 139.975 453.156 139.978 453.156C157.426 453.463 148.261 452.637 137.821 452.771C137.577 452.635 137.342 452.5 137.097 452.365C132.425 452.602 128.117 452.83 128.325 453.476ZM182.041 44.5017C181.883 44.649 182.081 42.8831 181.015 45.8877C180.708 48.5066 182.034 44.5788 182.732 43.7587C182.45 44.5749 182.159 45.4082 181.881 46.2161C184.181 41.6109 184.316 40.8492 183.027 42.3259C182.937 42.4323 182.2 44.354 182.041 44.5017ZM167.902 75.2053C168.673 76.3233 170.844 70.1842 170.419 70.2523C170.041 71.0644 169.936 71.7807 169.469 72.6129C168.998 73.4537 168.651 73.5671 167.902 75.2053ZM267.721 47.8049C267.726 47.6147 268.214 45.7043 267.832 45.8941C266.928 48.2574 267.51 53.0192 267.825 52.1861C267.809 50.6112 267.673 49.5609 267.722 47.8049C267.722 47.8049 267.721 47.8049 267.721 47.8049ZM58.7552 453.604C58.8456 453.637 63.6118 453.832 64.227 453.651C64.7338 453.446 64.9855 453.226 65.3657 453.014C62.7398 453.211 57.4247 453.061 58.7648 453.604C58.7616 453.604 58.7584 453.604 58.7552 453.604Z" fill="#0057D4"/>
</svg>
