<svg width="295" height="32" viewBox="0 0 295 32" fill="none" xmlns="http://www.w3.org/2000/svg" preserveAspectRatio="none">
<path d="M265.907 6.82327C267.297 7.13894 262.657 6.93202 265.738 7.40345C265.096 7.4353 264.449 7.46815 263.806 7.5C263.644 7.32541 263.477 7.15124 263.314 6.97665C264.177 6.92524 265.04 6.87383 265.907 6.82242C265.907 6.8227 265.907 6.82299 265.907 6.82327ZM267.085 4.63674C266.295 5.13471 263.782 5.26748 266.496 5.72701C266.712 5.55611 266.933 5.38525 267.149 5.21434C268.091 5.3469 269.039 5.47941 269.982 5.61124C270.321 5.54608 270.659 5.48085 270.998 5.41642C271.43 5.7134 271.858 6.01119 272.289 6.3089C271.906 6.26543 271.517 6.22121 271.134 6.17774C269.619 6.4189 268.271 6.48486 266.215 6.52977C266.395 6.60004 266.576 6.66969 266.757 6.73997C265.713 6.62044 264.67 6.50062 263.63 6.3811C264.533 6.26377 265.542 6.13329 266.379 6.02394C265.04 5.55828 262.679 5.81744 261.45 5.91457C259.776 6.04713 260.155 5.82572 258.913 5.91841C258.714 5.9329 258.692 6.10645 258.3 6.10938C256.322 6.12315 252.481 6.03116 254.728 5.62619C257.983 5.67835 260.759 5.35315 263.952 5.47196C263.107 5.00371 264.79 4.84437 267.085 4.63674ZM207.289 6.12775C208.276 5.90033 210.285 5.99211 211.646 6.14996C211.647 6.14996 211.649 6.14996 211.65 6.14996C211.95 6.18474 212.628 6.48697 211.65 6.47466C210.056 6.45355 209.286 5.9778 208.449 6.30077C208.074 6.24065 207.681 6.18715 207.289 6.12775ZM203.825 6.15595C202.847 6.03932 203.291 5.68083 204.515 5.77785C204.515 5.77757 204.515 5.77728 204.515 5.777C205.026 5.81757 204.023 6.10092 205.855 5.81331C206.229 6.03706 206.598 6.24063 206.968 6.45714C206.519 6.46076 206.11 6.46663 205.639 6.46953C205.956 6.10174 204.803 6.27166 203.825 6.15595ZM253.075 5.82869C252.921 6.15956 253.565 6.15747 254.662 6.38708C253.627 6.37621 252.592 6.36462 251.561 6.35375C252.068 6.17851 252.569 6.00393 253.075 5.82869ZM277.389 5.87996C277.391 5.87996 277.393 5.87996 277.394 5.87996C277.733 5.82781 278.073 5.77546 278.408 5.72402C278.611 5.84211 278.811 5.95968 279.014 6.07777C280.212 5.96693 281.416 5.8561 282.614 5.74453C282.469 6.10524 280.318 6.04655 279.133 6.29864C277.372 6.18997 276.523 5.98059 276.408 5.67489C276.734 5.74296 277.059 5.81189 277.389 5.87996ZM3.75225 16.5916C4.15706 16.5098 4.55676 16.4277 4.9616 16.346C4.43143 16.2764 3.905 16.2177 3.37082 16.1407C3.25015 16.1722 3.13894 16.1981 3.03524 16.2193L3.7815 17C3.50275 15.8921 3.8227 15.6388 3.79823 13.9541C3.71565 8.31202 3.04062 9.80895 4.02936 4.71339C3.98232 8.80448 4.44691 7.23229 4.80477 9.69875C4.53238 10.2097 3.91804 7.76565 3.79054 9.42178C4.04224 11.9134 4.27886 14.3215 4.45877 17L3.06578 15.5427C3.45588 15.5342 3.85157 15.527 4.25401 15.5216C4.16371 15.4704 4.07395 15.419 3.98368 15.3678C3.67928 15.3721 3.3763 15.3764 3.07309 15.3808L4.62084 17C4.60908 16.8026 4.59733 16.6051 4.58561 16.4069C4.63186 16.6057 4.67797 16.8029 4.72411 17L3.07775 15.2776C3.42108 15.2135 3.76448 15.1492 4.11632 15.0843C3.40828 15.3387 5.18712 15.259 4.93523 15.5767C4.82307 15.7181 4.03087 15.8856 3.56259 16.0044C4.75133 16.1342 5.97094 16.259 7.17299 16.3872C6.54315 16.4755 5.9139 16.5639 5.28846 16.6524C4.77815 16.633 4.2718 16.6127 3.76155 16.5933C3.75842 16.5927 3.75535 16.5921 3.75225 16.5916ZM260.423 26.6545C258.894 26.9263 256.141 26.8585 254.71 26.4146C256.615 26.4948 258.517 26.5743 260.423 26.6545ZM276.293 5.42283C276.465 5.48072 276.631 5.53797 276.803 5.59586C276.045 5.70305 275.283 5.80951 274.526 5.9167C274.381 5.74943 274.232 5.58212 274.082 5.41557C274.818 5.41774 275.558 5.42066 276.293 5.42283ZM227.834 5.6091C228.388 5.59898 228.437 5.60446 229.127 5.62832C229.127 5.62818 229.126 5.62804 229.125 5.6279C229.398 5.63681 231.687 5.73451 231.432 5.8633C230.296 5.86547 229.084 5.8633 227.921 5.8633C227.886 5.77858 227.878 5.69454 227.834 5.6091ZM241.21 5.68429C241.212 5.68458 241.214 5.68486 241.215 5.68515C241.629 5.70471 242.021 5.74453 242.447 5.75179C240.911 5.95449 240.668 5.59083 239.272 5.69369C237.876 5.79728 237.013 5.99793 235.828 5.49973C236.269 5.42511 236.743 5.31837 237.197 5.23143C239.179 5.43063 239.712 5.24317 241.302 5.04687C241.271 5.25983 241.241 5.47134 241.21 5.68429ZM14.3862 5.44973C14.7649 5.20345 15.1873 5.44511 15.2312 5.44803C15.2304 5.44831 15.2296 5.4486 15.2288 5.44888C18.5837 5.22079 14.7922 5.58521 17.9586 5.62362C17.4874 5.68517 17.024 5.75017 16.5573 5.81245C15.8352 5.69367 15.0907 5.55909 14.3862 5.44973ZM123.395 5.47281C123.426 5.54453 123.463 5.61641 123.494 5.68813C121.591 5.67147 121.106 5.95381 119.525 5.69668C120.815 5.62135 122.105 5.54656 123.395 5.47196C123.395 5.47224 123.395 5.47252 123.395 5.47281ZM218.244 5.08746C220.353 4.95054 221.914 4.89021 223.94 5.10754C223.942 5.10782 223.943 5.10811 223.945 5.10839C224.062 5.12177 223.497 5.27182 223.649 5.30961C224.067 5.28717 224.499 5.25267 224.921 5.22588C224.978 5.34604 225.033 5.46617 225.09 5.5856C223.901 5.55156 222.711 5.51754 221.518 5.48349C221.694 5.55376 221.874 5.62342 222.051 5.69369C221.038 5.7299 220.029 5.76599 219.016 5.8022C219.368 5.60523 219.719 5.4082 220.067 5.2105C219.46 5.16922 218.851 5.12946 218.244 5.08746ZM91.7179 4.688C92.0526 4.76624 91.4328 4.89746 91.9526 4.96484C92.4724 5.03136 93.4305 4.88535 93.206 5.10625C92.5062 5.13593 91.7713 5.16997 91.0583 5.20109C93.353 5.59943 95.6423 5.23898 95.6775 5.73085C93.4753 5.60335 91.6645 5.66259 89.5327 5.79878C89.6207 5.40834 91.7531 5.07076 90.4105 4.70423C90.8418 4.69916 91.295 4.69175 91.7132 4.68885C91.7147 4.68857 91.7163 4.68828 91.7179 4.688ZM294.473 20.1161C294.443 21.4199 294.603 24.4071 294.375 26.0544C294.319 26.4597 293.593 27.8099 293.497 27.8031C293.175 27.7634 293.131 26.1145 292.921 27.8805C292.919 27.2864 292.907 26.7099 292.901 26.1202C292.684 26.2259 292.468 26.331 292.252 26.4323C292.285 27.1503 292.318 27.8691 292.351 28.587C292.279 28.6223 292.208 28.6574 292.136 28.6926C292.134 26.1115 291.858 27.6352 291.6 26.2962C291.469 27.5292 291.34 28.7714 291.209 30C291.225 29.291 291.237 28.4543 291.256 27.8289C290.888 27.7452 290.976 29.2373 290.908 29.493C290.523 30.9332 290.717 23.6008 290.183 23.0008C290.124 24.1721 290.066 25.4012 290.007 26.599C289.941 26.2555 289.875 25.9074 289.809 25.5639C290.178 22.8466 290.308 19.7994 290.538 16.633C290.523 16.3469 290.507 16.0603 290.493 15.7786C290.327 15.8623 290.162 15.9414 289.996 16.0251C289.976 15.5934 289.957 15.1564 289.937 14.7247C290.483 15.9974 290.476 14.235 290.809 12.1077C291.001 13.2394 290.885 14.6356 291.242 14.5393C291.007 11.2132 291.258 7.39982 291.14 4C291.139 3.9207 291.079 3.85891 291 3.85981C290.429 3.87961 289.87 3.90981 289.327 3.95446C288.389 4.03124 288.392 4.49259 286.187 4.45004C286.261 4.39933 286.274 4.30778 286.323 4.24113C282.508 4.46208 280.194 4.59417 276.23 4.36887C276.459 4.53468 276.684 4.7012 276.913 4.86701C277.754 4.78442 278.597 4.70053 279.434 4.61794C280.006 4.89176 279.16 5.0126 281.671 5.00971C283.728 5.00753 282.503 4.88663 283.063 4.80549C283.82 4.69472 284.485 4.91263 285.299 4.78883C285.929 4.69393 285.248 4.468 286.891 4.52523C286.23 4.81791 285.556 5.12012 284.891 5.41642C284.49 5.3505 284.092 5.28356 283.692 5.21691C284.097 5.13867 284.495 5.06146 284.9 4.98322C283.473 5.12375 282.125 5.2563 280.65 5.4019C281.13 4.97882 279.605 5.13744 278.777 5.18743C277.487 5.26559 278.592 4.97442 277.746 5.02295C276.901 5.07223 275.988 5.39753 274.46 5.32799C275.279 5.13966 274.165 4.97078 274.38 4.79695C274.596 4.62312 276.213 4.58463 274.66 4.39493C271.673 4.53909 274.914 5.20108 272.897 5.30833C270.475 5.43727 269.898 4.35817 270.62 4.1262C271.188 3.94364 273.144 3.98036 273.716 3.79852C270.215 3.47037 270.184 4.11819 269.585 4.24497C267.409 4.7064 268.871 3.47481 266.294 3.92028C266.343 3.68997 266.382 3.48282 266.431 3.26193C265.986 3.30394 265.691 3.35977 265.154 3.39309C266.738 3.84184 265.441 3.8226 264.776 3.8233C263.728 3.82475 265.347 4.04364 265.069 4.10014C264.32 4.25135 263.136 4.18269 263.863 4.3804C263.537 4.2884 263.184 4.19612 262.849 4.10484C261.624 4.21948 258.746 5.18076 261.485 4.98663C261.23 5.34379 260.344 5.17212 259.652 5.11779C258.961 5.06351 258.974 5.29096 258.366 5.24895C255.948 5.08087 257.53 4.69179 257.913 4.38681C254.72 4.59689 257.846 4.73588 253.244 4.87641C252.799 5.12489 254.926 5.39004 253.155 5.53348C252.829 5.1018 251.525 4.79169 248.984 4.64827C248.738 4.74752 248.492 4.84765 248.245 4.9469C246.857 4.54846 247.567 4.13413 244.999 4.62819C246.377 3.71903 245.429 4.30067 243.13 3.93053C242.663 3.85592 243.742 3.66729 243.091 3.57166C242.795 3.52854 242.078 3.67092 241.356 3.56098C241.004 3.50666 239.356 3.1561 238.215 3.32259C239.052 3.76306 236.885 4.13776 238.744 4.50216C235.308 4.41233 232.904 4.62381 236.753 4.02324C235.881 3.88994 235.008 3.75721 234.136 3.62464C233.528 3.72969 232.915 3.8339 232.303 3.93822C232.211 3.57621 232.303 3.47466 229.909 3.53834C230.948 3.4529 231.983 3.36604 233.026 3.27987C233.061 3.20677 233.206 3.13079 233.171 3.05985C231.893 3.19889 228.295 3.25873 227.423 3.35506C226.551 3.45141 228.235 3.47778 227.984 3.57124C225.893 4.34186 226.058 3.7735 224.557 3.90575C223.676 3.98399 225.78 4.06895 225.308 4.10228C223.561 4.22441 222.75 3.81485 221.201 3.80963C221.751 4.0421 222.297 4.27819 222.835 4.51284C221.209 4.50052 219.398 4.49846 217.887 4.57308C217.294 4.60221 217.742 4.77511 217.645 4.78669C217.164 4.8461 215.209 4.94019 215.002 4.94092C213.444 4.9423 213.399 4.70282 211.885 4.68971C212.479 4.66944 213.038 4.65116 213.62 4.63161C213.884 4.24335 214.153 3.85512 214.418 3.46614C212.934 3.43789 211.449 3.41022 209.96 3.38197C211.048 3.51163 212.14 3.64067 213.228 3.77032C211.528 4.084 209.827 4.39838 208.127 4.71278C207.242 4.52009 206.36 4.32744 205.475 4.13474C203.071 4.18558 203.555 4.96778 202.414 4.28257C201.706 4.34049 200.997 4.39839 200.288 4.45559C200.389 4.35782 200.489 4.25985 200.591 4.16209C199.736 4.22222 198.882 4.28195 198.027 4.3428C198.926 4.68905 199.807 5.0534 200.696 5.3895C199.015 5.46475 198.982 5.17101 198.732 5.09771C198.067 4.90356 196.746 5.16544 196.218 4.98578C196.039 4.9241 197.687 4.73073 197.119 4.50771C197.008 4.46448 194.802 3.64469 193.394 3.83398C193.421 3.98249 193.529 4.16459 193.587 4.32614C191.693 4.41634 190.728 3.64113 190.979 3.42384C189.97 3.57596 188.496 3.58868 188.289 3.82629C187.774 3.83208 187.262 3.83758 186.747 3.84338C187.284 3.26468 185.135 3.3705 184.994 3.86816C185.879 3.88047 186.765 3.89344 187.651 3.90575C186.981 4.51573 189.672 4.88391 184.074 4.31888C183.003 4.00157 185.976 4.36211 185.104 4.12449C183.589 3.98619 182.167 4.10191 180.727 3.88097C178.935 3.60498 181.139 3.33952 176.964 3.69086C186.174 4.57104 175.701 4.28546 171.376 4.55855C170.186 3.68921 166.534 3.41386 161.503 3.67249C162.028 3.91444 163.61 3.78978 164.522 3.86944C165.434 3.94912 164.447 4.09266 165.583 4.20566C166.719 4.31864 169.132 4.47224 170.282 4.64314C169.308 4.78008 164.5 5.10382 167.679 4.71491C165.306 4.47518 164.191 4.22882 161.25 4.18387C160.369 4.56129 160.434 4.79631 157.567 4.80719C159.263 4.28274 156.005 3.91824 156.722 3.37642C158.755 3.50262 157.619 4.02923 158.795 4.28128C158.915 4.30647 160.81 4.17446 161.25 4.18387C159.338 3.71081 158.677 3.53473 159.853 2.97184C158.501 3.0211 157.66 2.95043 157.537 3.2192C157.255 3.1026 156.972 2.9859 156.694 2.8693C156.254 2.87221 155.858 2.883 155.391 2.88084C156.034 3.28626 154.789 3.03668 153.903 3.22048C153.018 3.40449 154.206 3.72453 151.774 3.72888C152.585 3.82378 153.326 3.90521 154.11 3.99504C152.542 4.09935 150.969 4.20432 149.402 4.30862C150.503 4.55634 152.889 4.9243 152.824 5.25023C152.102 5.12718 149.628 5.34344 149.357 5.35233C148.309 5.38566 148.88 5.18011 148.801 5.17503C147.154 5.07515 145.797 5.14513 145.172 4.83368C143.934 4.97421 143.001 4.89409 141.689 4.90204C140.966 4.90638 141.107 5.13515 140.684 5.09173C137.874 4.80197 140.551 4.50635 135.131 5.06908C135.787 5.22844 136.434 5.39147 137.091 5.55227C136.478 5.6124 135.87 5.67286 135.258 5.73299C134.848 5.70401 134.442 5.67481 134.032 5.64584C134.041 5.30031 134.052 4.95406 134.061 4.60853C133.611 4.5897 133.16 4.5714 132.711 4.55257C133.482 4.51852 134.254 4.48451 135.025 4.45046C135.096 4.38966 135.161 4.32883 135.232 4.26804C134.087 4.17386 132.945 4.07883 131.8 3.98393C131.778 4.10413 131.756 4.22517 131.734 4.34536C129.153 4.17802 129.092 4.07627 126.639 4.40731C124.749 4.40369 123.211 4.90625 122.118 5.11779C121.726 5.05043 121.334 4.98221 120.938 4.91485C120.687 5.01483 120.433 5.11436 120.182 5.21434C119.684 5.07526 119.18 4.93615 118.682 4.79779C118.405 5.11348 118.261 5.21204 120.203 5.32285C119.538 5.71549 116.119 5.54228 114.727 5.41043C113.671 5.31038 114.843 4.98289 114.711 4.94305C114.27 4.80771 112.529 4.92449 112.164 4.90204C110.618 4.80859 109.535 4.82495 108.139 4.75251C107.867 4.73801 107.107 4.53046 107.042 4.52394C106.54 4.48844 105.301 4.38756 105.16 4.38467C97.8897 4.22973 105.658 5.13021 98.8978 5.03533C99.1003 5.15408 99.2865 5.27203 99.4846 5.39078C98.9739 5.39802 98.4579 5.4049 97.9472 5.41214C97.2998 5.3129 98.0831 5.13241 96.7971 5.27799C96.8808 5.13166 96.9649 4.98527 97.0529 4.83966C96.4935 4.91863 95.9544 4.99695 95.3818 5.07592C94.4833 4.5681 91.2031 4.45277 91.4362 3.85662C91.5155 3.65377 93.841 3.44563 92.6121 3.22902C91.6136 3.18638 92.2895 3.42864 91.8822 3.44135C88.9399 3.52974 89.1109 3.19016 87.9084 3.28072C87.7191 3.42625 87.5201 3.57463 87.3263 3.72161C86.8729 3.67889 86.4181 3.63617 85.9603 3.59345C85.8546 3.69125 85.7444 3.78915 85.6387 3.88695C86.0659 3.89347 86.547 3.90008 86.9391 3.9066C86.3924 4.2854 81.3726 4.45555 83.2869 4.1326C84.0664 4.0015 85.4941 4.0572 84.5919 3.60968C83.2486 3.67415 81.7245 3.74002 80.3107 3.80449C80.2667 3.70814 80.2256 3.61162 80.1816 3.51526C78.2762 3.57763 80.0091 3.96287 80.0056 4.16935C79.5697 4.17514 79.1294 4.18021 78.6935 4.18601C78.5088 4.09265 78.3331 3.99493 78.1396 3.90447C78.1219 4.05304 77.8777 4.39837 76.5787 4.27017C75.7435 4.18673 77.0588 3.8119 75.4662 3.86388C75.5852 4.09565 76.1605 4.37795 74.3865 4.45259C74.2103 4.21069 73.9667 3.98908 73.8302 3.73486C71.624 3.96725 70.62 3.59369 68.0304 3.86388C66.3875 4.03486 64.1371 4.64177 63.0755 3.70666C61.8738 3.68204 62.2553 3.91491 61.8996 3.96727C60.2215 4.21503 58.9733 3.77162 58.6606 3.74554C56.6661 3.57836 55.7719 3.73185 54.147 3.52253C54.2351 3.69567 54.283 3.85956 54.3535 4.02836C55.8423 3.76901 56.5962 3.78118 58.684 3.83696C57.9839 3.87173 57.2835 3.9073 56.5833 3.94206C56.6978 4.08256 56.8112 4.2231 56.9213 4.36288C63.3784 3.8094 61.8722 4.68387 56.4589 4.87512C55.9921 4.61509 55.5083 4.35576 55.0459 4.09501C51.9188 4.48909 50.4473 4.14698 46.9107 4.0651C46.4903 4.05574 44.9589 4.20552 44.3007 4.21292C44.3116 4.21392 44.3226 4.21491 44.3335 4.21591C43.9241 4.46146 44.4786 4.57447 44.5448 4.79395C44.1881 4.82147 43.8312 4.84888 43.4745 4.8764C42.6779 4.7091 42.9579 4.57168 41.3902 4.61152C41.6016 4.77812 41.8102 4.94477 42.0216 5.11137C40.3038 5.11717 39.1796 4.93615 37.5808 5.01439C37.8494 4.95137 38.1148 4.88816 38.3835 4.82513C34.9039 4.66431 37.673 3.68478 35.0435 4.17233C34.8762 4.08688 34.7132 4.0006 34.5459 3.91514C35.6292 3.89414 36.7131 3.87378 37.792 3.85277C37.814 3.73184 37.8378 3.61142 37.8554 3.49048C36.697 3.5267 35.5329 3.56406 34.3746 3.60028C35.2202 3.51914 36.0709 3.4379 36.9165 3.35676C35.5733 3.29881 34.2297 3.24083 32.8865 3.18288C34.3129 3.62758 32.4636 3.68197 32.8113 4.12235C30.4329 3.75578 28.5646 3.27257 24.878 3.58191C24.1471 3.64353 24.5441 3.95128 22.4698 3.57678C22.9719 4.06644 20.3732 4.29622 20.7071 4.7619C21.4292 4.73945 22.1781 4.72533 22.8782 4.69782C22.081 4.53628 21.9488 4.09188 23.1599 3.96C24.7058 3.79194 26.9606 4.09993 26.8684 3.60669C27.4848 3.62986 28.0581 3.64353 28.6569 3.66308C28.4104 3.78544 28.169 3.90856 27.9269 4.03092C29.6307 3.83909 30.7013 3.90148 31.5204 4.20993C29.4902 4.28091 27.4644 4.35115 25.4342 4.4214C25.7333 4.44238 26.0365 4.46352 26.3355 4.48378C24.7983 4.79891 26.384 5.0974 23.5166 5.16478C23.5342 5.02065 23.5483 4.87642 23.5659 4.73157C22.522 5.11698 19.6639 5.11489 20.5756 5.55825C19.7124 5.42207 19.5364 5.33593 19.0476 5.57491C16.7705 5.23804 15.308 4.81205 16.1184 4.30349C15.2729 4.38534 14.4269 4.4673 13.5858 4.54915C14.0746 4.68821 14.564 4.82662 15.0528 4.96569C13.5816 4.957 12.0998 4.94845 10.6331 4.94048C10.4922 4.52906 13.4647 4.81566 12.607 4.44789C12.4354 4.37407 11.6438 4.5322 11.4358 4.49061C9.24253 4.04077 12.6857 4.36577 12.039 4.02109C8.77083 3.9146 11.3862 3.33706 6.88467 3.82244C6.76577 3.70365 6.638 3.58248 6.5279 3.46442C4.96527 3.45729 5.09199 3.72559 3.74887 3.77629C3.51355 3.78512 3.26144 3.7546 3 3.71309C2.83772 3.71493 2.71125 3.8377 2.7131 3.99999C2.60622 4.67306 2.42647 5.40794 2.65754 6.07709C2.71669 6.24271 3.29253 4.67995 3.26719 7.9642C3.24755 10.5131 2.84061 9.45224 2.69642 10.8301C2.55225 12.2087 3.11651 15.3625 2.47682 16.2919C2.56155 15.5698 2.60726 14.6499 2.67676 13.8485C2.55218 13.5226 2.42894 13.2053 2.30508 12.8838C2.43264 14.3373 2.33976 15.8295 2.44414 17C2.44756 17.3003 2.67476 17.5452 2.97493 17.5553C3.28099 17.5419 3.56571 17.5141 3.82329 17.4642C6.24485 18.0282 8.99498 17.7304 8.27887 17.1847C7.47176 17.2222 8.33608 17.4851 7.22614 17.2924C7.11711 17.1678 7.00189 17.0435 6.8929 16.919C8.79308 17.0192 10.1134 17.0755 9.23011 17.4004C9.52448 17.4224 9.81617 17.4442 10.1106 17.4662C10.1752 17.2051 10.234 16.9429 10.2987 16.6818C10.652 16.668 11.0069 16.6545 11.3602 16.6408C11.7489 16.7163 12.1385 16.7925 12.5317 16.869C11.9805 17.2618 11.073 17.2346 14.0634 17.6031C14.0786 17.4595 14.098 17.3166 14.1133 17.173C16.6174 17.4695 16.6679 17.8214 19.8228 17.9508C17.3803 18.3416 16.0963 17.3955 16.0598 18.3989C15.4556 18.3056 14.8465 18.2113 14.2422 18.118C14.1432 18.2593 14.0451 18.4008 13.9505 18.5423C17.2141 18.6127 22.6729 17.9005 24.8271 18.6334C25.0945 18.5679 25.3625 18.5126 25.6346 18.4415C27.7558 18.9209 28.7181 18.103 30.865 18.696C31.0864 18.758 30.5816 19.5444 33.4067 19.6429C33.3411 19.5348 33.3125 19.3565 33.2613 19.2215C33.8697 19.3135 34.4749 19.4084 35.0789 19.5016C35.1933 19.4096 35.313 19.3179 35.4274 19.2252C34.3863 19.1405 33.3481 19.0553 32.3069 18.9706C33.1749 18.9764 34.0485 18.9825 34.9165 18.9883C33.7931 18.7789 33.2832 18.7542 33.9761 18.5311C34.958 18.5602 35.9414 18.5884 36.9233 18.6175C37.0273 18.557 37.1306 18.4957 37.2346 18.4352C36.7682 18.2198 36.2968 18.0085 35.8305 17.7902C38.3797 18.0641 40.6018 18.173 42.5469 18.6429C42.8784 18.7224 41.6844 18.9217 43.9732 18.7967C44.0024 18.9321 44.0587 19.0435 44.0927 19.169C46.8992 18.9201 47.8107 19.0733 50.7069 19.4753C48.8351 19.1377 50.508 19.3778 50.9937 19.2641C51.3265 19.1857 50.0433 19.1416 50.1928 19.0505C50.3423 18.9601 52.0267 18.6438 50.6038 18.5324C47.0739 19.1772 46.1655 18.1747 41.6599 18.3579C42.3554 18.2856 43.0559 18.2132 43.7514 18.1409C43.4293 18.0561 43.1409 17.9793 42.7924 17.8889C45.2885 18.159 44.0757 18.002 45.1098 17.9247C46.145 17.8474 48.0211 17.8268 49.2766 17.8493C49.6721 17.8565 49.2473 18.0177 50.1381 18.0747C50.7447 18.1137 52.4161 17.9217 52.785 18.2536C53.0266 18.4697 50.3354 18.9133 54.0212 19.0783C54.7059 19.3104 52.9416 19.1683 52.9025 19.1908C52.5705 19.4151 54.8283 19.697 55.8838 19.5619C55.9693 19.55 55.1507 19.3265 56.0533 19.2941C58.1952 19.216 59.418 19.4851 60.7866 19.8362C60.9515 19.5043 62.7656 19.1808 64.9952 19.4069C65.114 19.3152 65.2273 19.2223 65.3461 19.1298C64.9967 19.1654 64.6475 19.2004 64.2981 19.236C63.9225 19.1582 63.5235 19.0958 63.1571 19.0075C65.4088 19.0257 65.7478 18.5732 66.8334 18.4511C70.5485 18.0342 68.2572 19.1674 67.5823 19.3501C67.1065 19.2423 66.6472 19.1252 66.176 19.0133C66.2235 19.1337 66.2717 19.2549 66.3147 19.3758C71.8368 19.6215 67.121 20.1795 69.9141 20.5253C70.6618 19.9775 72.7229 20.0145 75.3285 20.5012C75.619 20.5114 75.9105 20.5238 76.2011 20.5333C76.2532 20.4508 76.2584 20.3214 76.3399 20.2693C79.5036 20.3134 80.026 21.2326 80.3214 21.3308C81.6331 21.7663 82.6913 21.2934 83.0832 21.3066C84.734 21.363 85.203 21.6154 86.7781 21.5872C88.4722 21.5564 87.3251 21.3272 87.8462 21.1919C88.2642 21.0847 89.5978 21.1224 90.1543 21.0168C89.9307 21.1137 89.6829 21.2073 89.46 21.3045C91.2042 21.529 92.6287 21.7354 94.6156 21.8606C96.8947 21.1813 98.7444 22.5842 98.0184 21.4813C96.1385 21.3232 95.0909 21.154 94.0956 20.8364C95.3333 20.8574 96.5719 20.8795 97.8097 20.9005C98.1651 21.034 98.416 21.1598 98.8373 21.2984C99.7724 21.0912 101.909 21.2947 102.753 21.2597C106.707 21.0951 105.508 20.6156 109.07 21.4914C106.476 21.4439 106.465 21.7907 103.897 21.6269C104.441 21.8995 105.749 21.9071 104.89 22.1657C107.38 22.2048 106.588 21.9036 107.566 21.7121C108.41 21.547 110.09 21.6115 110.007 21.3438C110.173 21.4964 110.299 21.6426 110.464 21.795C112.074 21.8663 113.684 21.9388 115.294 22.0101C114.601 22.1303 113.908 22.2509 113.215 22.3704C113.731 22.4509 114.248 22.5313 114.764 22.6118C118.746 22.3202 125.535 23.4905 124.498 22.2596C126.409 22.3082 126.641 22.4671 127.669 22.7376C127.788 22.6531 127.902 22.5835 128.021 22.4888C129.249 22.6383 130.209 22.3441 131.292 22.4807C132.375 22.6167 132.63 22.947 132.813 22.4194C133.51 22.6045 134.204 22.7636 134.897 22.9377C135.325 22.8353 135.752 22.7342 136.175 22.6323C136.832 22.7258 137.49 22.819 138.147 22.9125C138.512 22.6731 141.102 22.9003 142.253 22.7805C143.327 23.1047 143.258 23.9697 145.82 23.9298C145.763 23.712 145.708 23.4948 145.652 23.2769C146.235 23.3482 146.819 23.4194 147.407 23.4908C147.439 23.5625 147.466 23.6341 147.498 23.7058C147.2 23.6706 146.906 23.6357 146.608 23.5997C146.862 23.7301 147.111 23.8598 147.361 23.99C148.262 23.8544 149.164 23.719 150.069 23.5836C148.866 23.3959 147.661 23.2081 146.458 23.0203C147.983 22.9311 149.032 23.1361 150.36 23.0199C151.495 23.3684 151.063 23.5202 150.583 23.8211C151.01 23.8128 151.443 23.8058 151.871 23.7975C151.575 24.1068 152.288 24.3313 149.795 24.1926C149.962 24.2922 150.133 24.3877 150.296 24.4907C150.706 24.4947 150.968 24.5843 151.418 24.5691C152.646 24.5274 153.609 24.0041 153.534 23.8021C153.494 23.6962 152.279 23.8404 152.334 23.6957C152.469 23.343 155.229 23.6287 151.255 23.0889C152.589 22.9207 152.877 23.106 154.335 23.2378C154.226 23.1133 154.121 22.9897 154.016 22.8654C154.691 22.951 155.367 23.0364 156.042 23.1219C155.072 23.6924 160.056 24.148 155.536 24.4813C156.863 24.5688 158.186 24.6562 159.509 24.7449C159.233 24.7955 158.958 24.8455 158.682 24.8962C158.085 24.8359 157.492 24.7763 156.895 24.7167C157.594 24.8635 158.294 25.0097 158.992 25.1565C160.662 25.089 161.324 24.8992 162.097 24.6629C160.171 24.378 160.791 24.6763 159.28 24.6619C159.341 24.4928 159.278 24.332 159.418 24.1579C160.181 24.5481 162.735 24.4046 163.326 24.4138C165.122 24.4421 163.699 24.7274 164.899 24.7889C166.1 24.8504 167.526 24.7067 168.492 25.0969C168.483 24.9022 168.414 24.6981 168.351 24.5183C170.224 24.5391 169.841 24.7513 170.033 24.7897C173.1 25.4169 174.794 25.0807 178.33 25.1903C177.884 25.11 177.433 25.0353 176.982 24.9584C179.667 24.6671 177.865 24.7121 175.557 24.4715C177.724 24.6107 178.982 24.3162 180.518 24.2811C182.054 24.2462 184.672 24.5448 185.625 24.7284C183.419 24.8551 181.058 24.5993 178.617 24.5515C178.885 24.7615 179.147 24.9409 179.423 25.1708C180.925 24.8232 181.771 25.1391 182.257 25.2162C183.684 25.4422 183.655 25.0844 184.504 25.5062C184.475 25.373 184.454 25.2611 184.425 25.1365C187.383 25.3252 190.567 25.7021 192.516 25.3029C192.678 25.6271 192.797 25.9377 192.985 26.2696C194.249 26.0882 195.312 26.3804 196.37 26.3724C197.425 26.3642 197.036 26.0905 198.276 26.0479C198.506 26.0401 198.975 26.2216 199.544 26.1291C200.118 26.0361 202.255 25.2491 202.471 26.0307C203.531 26.0822 204.533 26.1556 205.571 26.2155C204.557 26.2133 203.543 26.2096 202.534 26.2076C203.388 26.4332 204.236 26.658 205.09 26.8836C205.207 26.7221 205.325 26.5576 205.438 26.3981C207.771 26.3004 209.444 26.6486 211.793 26.6901C212.185 26.6969 211.276 26.3261 213.009 26.4884C214.743 26.6508 216.005 27.3233 218.977 27.2197C219.127 27.2141 220.025 26.7833 221.071 27.1568C221.309 27.2415 220.288 27.3049 220.838 27.4268C221.388 27.5488 223.858 27.7402 224.041 27.9798C224.019 27.8969 223.868 27.8052 223.797 27.7186C224.221 27.6986 224.649 27.6788 225.078 27.6597C225.111 27.8055 225.147 27.9516 225.18 28.0967C227.624 27.8712 228.904 27.3813 232.495 27.7246C231.492 27.4698 230.489 27.2141 229.491 26.9595C229.207 27.0939 228.923 27.2293 228.644 27.3639C226.988 27.2304 225.327 27.0972 223.671 26.9637C223.391 27.1185 223.115 27.2731 222.835 27.428C222.396 27.3864 221.961 27.3457 221.522 27.3042C221.638 27.1883 221.754 27.0731 221.874 26.9574C221.002 26.9478 220.128 26.9387 219.26 26.9292C221.057 26.2955 224.185 27.2123 223.983 26.6053C224.371 26.7155 224.758 26.8265 225.146 26.9374C225.33 26.6558 226.122 26.775 227.523 26.884C227.209 26.7269 226.86 26.5703 226.572 26.4129C227.927 26.6757 230.347 26.7653 231.756 26.9065C232.375 26.9685 231.746 27.1504 231.929 27.1833C232.87 27.3549 234.694 27.0704 235.071 27.1165C237.325 27.3908 238.763 28.1511 241.252 27.8052C238.71 27.5773 240.094 27.6875 239.199 27.3926C238.919 27.3001 235.635 26.9854 239.753 27.2453C240.236 27.2763 247.692 28.0933 245.217 28.3498C246.433 28.2872 247.386 28.1944 248.501 28.12C251.167 29.2106 250.27 28.2586 249.505 27.7223C249.95 27.7401 250.373 27.7541 250.831 27.7748C249.834 28.257 254.787 28.5133 256.48 28.3236C257.047 28.2607 255.48 28.0212 256.786 28.0004C257.404 28.0653 258.106 28.1448 258.759 28.2157C257.824 27.8399 259.695 27.7958 259.684 27.456C260.863 27.8115 261.746 28.4923 261.075 28.8094C262.067 28.7135 263.064 28.618 264.055 28.5214C263.601 28.4204 263.141 28.3199 262.688 28.2189C265.899 28.5771 270.062 28.2799 270.703 29.0217C271.13 29.0358 271.562 29.0509 271.989 29.0651C272.126 28.951 272.259 28.8364 272.397 28.7222C274.323 28.9135 276.245 29.1054 278.172 29.2968C276.449 29.2937 276.032 29.4462 274.235 29.226C274.923 29.3955 275.625 29.5664 276.3 29.7353C279.032 29.4859 279.413 29.2581 283.496 29.5533C283.68 29.5668 286.755 30.0181 286.859 30.0533C287.337 30.214 286.593 30.3827 286.805 30.4627C287.395 30.6865 291.009 31.3449 290.935 31.4163C290.005 32.291 277.77 31.7508 274.459 31.6485C240.116 30.5871 206.581 28.4194 172.471 26.9914C172.12 26.9773 172.267 27.1193 172.118 27.1183C171.188 27.1103 170.286 26.8587 169.943 26.8346C169.211 26.7836 169.606 26.9962 169.07 26.9722C163.535 26.7202 158.316 26.37 152.775 26.1533C152.414 26.1392 152.79 26.0002 152.155 25.9991C151.827 25.9994 150.792 26.1919 150.054 26.1622C147.475 26.0581 145.313 25.8838 142.593 25.7647C141.106 25.6997 138.876 25.5787 137.213 25.5073C136.478 25.4756 135.708 25.5503 134.982 25.5212C133.952 25.4798 134.173 25.2679 134.015 25.247C133.323 25.1556 133.215 25.3942 132.556 25.3586C131.328 25.2916 131.27 25.1264 129.712 25.0699C128.598 25.0298 126.044 25.0428 124.639 25.0171C121.365 24.6808 117.225 24.5688 114.16 24.4928C112.346 24.4478 112.188 24.2131 111.449 24.1805C108.844 24.0673 106.854 24.2682 104.408 24.1672C101.161 24.0329 98.2923 23.7112 95.1476 23.5555C94.6377 23.5303 94.7454 23.7436 94.2447 23.7264C92.3914 23.6623 90.0209 23.5933 88.3722 23.4891C86.5348 23.3735 85.8701 23.0408 84.0678 23.0211C83.5394 23.0156 83.3728 23.2734 82.4872 23.2675C81.0726 23.2572 79.5346 22.9538 78.5503 22.8832C77.201 22.7875 78.3636 23.1104 76.5435 22.9919C76.4688 22.987 76.2049 22.7818 75.8133 22.7734C74.6725 22.748 74.7787 22.905 73.1118 22.8152C72.9519 22.806 70.749 22.5224 70.5292 22.5118C69.2358 22.4505 66.6343 22.2686 65.8668 22.2731C63.1236 22.2885 65.2652 22.6758 62.966 21.9411C61.9341 22.049 60.9106 22.1593 59.8173 22.26C60.5487 22.1531 57.615 21.8187 57.4076 21.8224C55.6922 21.8501 56.7001 22.1411 54.533 22.0027C57.423 21.5661 51.738 21.8034 50.4745 21.7609C44.3907 21.5566 38.8698 21.1659 32.7582 20.8936C30.7122 20.8028 27.965 20.7986 25.8006 20.698C25.2961 20.6751 25.6834 20.5584 25.2394 20.5354C24.7965 20.5135 25.2811 20.686 24.7758 20.6552C21.6323 20.4611 19.1801 20.0661 16.2822 20.2906C16.1442 20.233 16.1505 20.1927 15.9208 20.1259C13.5479 20.3371 9.02534 19.7049 7.32069 19.5692C5.0904 19.3922 4.24169 19.4919 2.88929 19.4526C1.56348 19.4079 0.55995 18.3265 0.544859 17C0.540616 16.7357 0.540809 16.452 0.547903 16.1346C0.605857 13.5668 1.02578 9.71151 0.332582 11.4333C0.310858 9.67177 0.304859 7.97596 0.369324 6.19679C0.376631 5.99875 0.552827 6.13524 0.556448 6.05596C0.581745 5.55402 0.423989 5.39049 0.416746 5.05138C0.397261 4.13194 0.58615 5.63243 0.533378 4.32142C0.528785 4.20899 0.521301 4.10447 0.511976 3.99999C0.495965 2.59264 1.59265 1.52797 3 1.51196C3.53812 1.46393 4.07491 1.36705 5.68293 1.36461C17.2582 1.3494 29.8247 1.39868 41.6906 1.42186C42.5055 1.42331 41.9691 1.25292 42.991 1.26379C46.541 1.30149 52.8955 1.58825 55.9566 1.54917C59.0176 1.51006 58.327 1.26089 60.2425 1.15655C60.6125 1.13627 60.3091 1.27828 60.6439 1.28045C62.8946 1.2935 65.5779 1.515 67.4014 1.54832C68.6072 1.57065 68.5106 1.34725 69.3471 1.33129C70.5936 1.30811 71.8765 1.53381 72.5416 1.54106C75.6683 1.57288 77.8179 1.39109 80.7379 1.48381C80.6236 1.43464 80.5482 1.38913 80.4515 1.34069C83.9088 1.34866 87.3616 1.35665 90.8189 1.36461C90.6559 1.3197 90.4984 1.2744 90.3354 1.22876C94.3917 1.25341 93.9289 1.74021 93.5721 0.712242C93.8671 0.676027 94.1799 0.634051 94.4617 0.600735C94.3472 1.13027 96.801 1.51779 99.9235 1.65256C100.153 1.66271 101.689 1.1464 101.522 1.75638C101.923 1.60715 102.162 1.50428 102.501 1.37316C103.161 1.55784 103.831 1.74033 104.491 1.92428C104.848 1.89676 105.209 1.8702 105.566 1.84268C105.619 1.72315 105.578 1.59903 105.693 1.48167C107.349 1.46356 110.745 1.61134 112.054 1.59617C115.304 1.55777 118.614 1.2346 121.142 1.58378C122.373 1.54818 121.15 1.31357 122.982 1.34325C123.189 1.46203 123.383 1.57588 123.599 1.69828C125.096 1.16757 125.409 1.49041 127.46 1.6013C128.848 1.67663 129.756 1.54692 131.077 1.57225C131.412 1.57877 131.365 1.73454 131.594 1.72947C132.361 1.7134 134.549 1.499 135.091 1.49321C139.997 1.43672 144.212 1.46076 148.885 1.51799C149.387 1.52379 148.736 1.37006 149.256 1.37658C150.092 1.38681 149.6 1.62303 150.085 1.63462C151.436 1.66562 151.446 1.41653 153.331 1.40349C159.536 1.36078 166.672 1.5479 173.155 1.56456C173.357 1.56456 173.345 1.41862 173.565 1.41717C175.001 1.41003 176.454 1.60731 177.757 1.60514C179.92 1.60225 181.545 1.39722 183.682 1.39794C187.857 1.39867 191.588 1.50365 195.882 1.50945C199.397 1.51452 202.45 1.49505 206.304 1.49578C223.138 1.49867 240.316 1.03543 257.265 1.28174C257.696 1.28826 257.521 1.4172 257.652 1.41162C258.903 1.35584 259.015 1.18185 259.46 1.54619C261.053 1.47439 261.556 1.20066 263.48 1.22022C264.506 1.23047 263.74 1.65472 265.475 1.43597C267.042 1.23821 265.313 1.00571 269.972 1.24329C270.096 1.24982 270.703 1.50842 271.672 1.4411C272.645 1.37445 271.518 1.18928 273.862 1.13349C278.873 1.01472 285.097 1.18963 291 1.16973C292.601 1.15152 293.812 2.39906 293.83 4C293.832 4.57724 293.836 5.1514 293.842 5.72106C293.846 6.12187 293.985 9.98198 294.048 10.744C294.172 12.2186 294.365 11.9105 294.412 13.8258C294.448 15.3057 294.23 16.5268 294.274 18.2666C294.279 18.4693 294.503 18.8087 294.473 20.1161ZM10.1519 16.446C10.5226 16.2428 11.2103 15.4643 13.3807 15.8087C13.5865 15.8411 12.4451 16.3463 13.6461 16.4891C12.4643 16.4945 11.3152 16.4616 10.1519 16.4468C10.1519 16.4465 10.1519 16.4462 10.1519 16.446ZM289.317 29.5822C289.358 27.9481 289.398 26.3084 289.438 24.6743C289.536 25.8019 289.634 26.9311 289.732 28.0542C289.594 28.5651 289.455 29.0714 289.317 29.5822ZM113.164 5.29893C113.165 5.29893 113.167 5.29893 113.168 5.29893C111.451 5.40325 109.732 5.50776 108.014 5.61208C108.195 5.53529 108.376 5.45817 108.556 5.38138C109.913 5.26042 111.27 5.13963 112.622 5.01867C112.802 5.1121 112.983 5.2055 113.164 5.29893ZM126.735 4.48592C127.832 4.5772 127.563 4.73114 128.167 4.8811C128.167 4.88082 128.167 4.88053 128.167 4.88025C128.326 4.91929 129.068 4.95345 129.354 4.95929C129.249 4.86293 129.112 4.76782 128.998 4.67219C131.557 4.43892 136.561 5.26786 130.082 5.60183C130.179 5.48015 130.272 5.35909 130.368 5.23741C127.149 5.27145 123.559 5.00752 126.735 4.48592ZM36.0305 17.2634C38.7941 16.9893 39.6783 16.9451 42.9968 17.3683C42.5213 17.4599 42.0456 17.5515 41.57 17.643C41.0252 17.5031 40.4844 17.3642 39.9395 17.2243C39.938 17.2242 39.9364 17.2242 39.9348 17.2241C39.8194 17.34 39.7036 17.4561 39.5926 17.5722C38.4069 17.4693 37.2162 17.3662 36.0305 17.2634ZM231.944 4.77387C232.71 5.56965 232.489 5.1071 230.301 5.28655C229.543 5.34885 230.282 5.48808 229.81 5.51127C227.265 5.63789 227.062 5.10472 227.63 4.82728C229.07 4.80844 230.525 4.79126 231.939 4.77387C231.941 4.77387 231.942 4.77387 231.944 4.77387ZM290.391 10.9763C290.391 10.9779 290.391 10.9795 290.391 10.981C290.197 11.0471 290.145 10.0211 289.961 11.1782C289.962 10.2979 289.964 9.41764 289.964 8.53294C289.982 8.79242 290 9.05742 290.018 9.3169C290.084 9.08786 290.152 8.85821 290.218 8.62918C289.995 8.3165 290.125 8.02592 290.2 7.10118C289.961 7.35665 289.723 7.61088 289.484 7.86635C289.555 6.79187 289.627 5.7135 289.698 4.63902C289.758 4.62582 289.818 4.61232 289.878 4.59912C289.84 4.39874 289.802 4.19936 289.764 4L291 5.23639C290.796 5.2754 290.593 5.3144 290.388 5.35319C290.278 5.28149 290.172 5.21043 290.062 5.13873C289.573 5.19304 289.083 5.24732 288.595 5.30235C288.446 5.12866 289.523 5.05359 287.614 5.09771C288.199 4.91952 288.784 4.74187 289.374 4.56368C289.916 4.56642 290.458 4.56918 291 4.57197L290.428 4C290.416 6.32542 290.404 8.65101 290.391 10.9763ZM212.038 5.01867C215.196 4.98535 214.306 5.11124 213.575 5.50528C213.064 5.34306 212.548 5.1809 212.038 5.01867ZM49.3377 4.66792C48.4215 4.93669 47.5015 5.20277 46.5633 5.46213C44.6958 5.61209 42.8275 5.12221 44.2326 4.93023C45.9239 4.69988 47.6904 4.95769 49.3377 4.66792ZM6.80252 4.78754C9.08742 4.91217 6.93757 5.23153 6.42228 5.41769C5.7902 5.11849 4.90875 5.14489 3.49303 5.11009C4.82242 5.09069 6.42466 4.76638 6.80252 4.78668C6.80252 4.78697 6.80252 4.78725 6.80252 4.78754ZM86.1082 4.96996C87.0238 4.96193 87.9346 4.88687 88.7534 4.97808C88.5064 5.23508 86.8686 5.00127 88.0399 5.38224C87.4542 5.38876 86.8678 5.39507 86.2865 5.40232C86.656 5.24447 86.1591 5.1265 86.1105 4.97082C86.1097 4.97053 86.1089 4.97025 86.1082 4.96996ZM181.44 5.32158C179.643 5.01731 179.303 5.1475 177.492 5.35832C177.237 5.11058 179.396 4.69561 180.748 4.60426C180.977 4.84331 181.207 5.08253 181.44 5.32158ZM236.439 26.3413C235.993 26.6372 232.811 26.5348 231.235 26.3703C231.426 26.332 231.617 26.2931 231.807 26.2541C233.349 26.2831 234.897 26.3123 236.439 26.3413ZM4.08874 4.18059C4.09113 4.11957 4.09335 4.05937 4.09543 3.99999L3 5.09542C3.17121 5.10142 3.33559 5.10622 3.49303 5.11009C3.32333 5.11257 3.15785 5.11047 3 5.10186L4.10188 3.99999C4.09852 4.06141 4.09418 4.12168 4.08874 4.18059ZM85.763 21.0179C84.9974 21.2814 87.2286 21.4822 84.5193 21.2432C84.5193 21.2435 84.5193 21.2437 84.5192 21.244C82.7274 21.0863 82.3321 21.0479 80.6699 20.9497C81.2859 20.5946 84.6663 20.6104 80.0192 20.3216C79.958 20.3185 80.0697 20.5513 79.3281 20.4867C79.0991 20.4667 78.3735 20.2469 77.2596 20.1423C76.8995 20.1086 74.1908 19.9287 77.8868 20.0919C77.7888 19.8206 77.9995 19.56 78.0024 19.3012C79.4484 19.2913 80.5337 19.8628 82.0604 19.9189C84.3273 20.0009 85.5043 19.5256 85.9086 20.2372C83.9955 20.3211 80.7235 20.1775 80.3156 19.7422C78.4725 19.6539 77.9277 19.9709 79.4065 20.2067C85.7831 20.2799 81.1315 20.7916 86.7186 20.7711C86.7889 20.6779 87.0229 20.5846 86.992 20.4926C88.6784 20.9081 86.0362 20.9237 85.763 21.0179ZM72.4826 19.6812C73.5918 19.5275 74.6974 19.372 75.8023 19.2173C75.7873 19.5488 75.1698 19.8189 73.4277 19.9274C73.1143 19.8451 72.7961 19.7627 72.4826 19.6812ZM165.02 23.771C165.187 23.5979 165.617 23.4519 165.932 23.2943C166.26 23.4613 174.174 23.9646 170.137 23.9318C169.551 23.9271 165.996 23.4474 165.02 23.771ZM193.918 5.04986C192.984 4.92888 192.054 4.8077 191.125 4.68672C192.555 4.60997 193.987 4.53122 195.417 4.45303C194.916 4.65192 194.419 4.85096 193.918 5.04986ZM34.1375 4.35134C34.5319 4.35811 33.2219 4.60619 34.7759 4.56709C33.6175 4.72574 32.5327 4.86003 31.4007 5.00927C31.0615 4.89191 30.7189 4.77502 30.3797 4.65766C30.1154 4.733 29.8459 4.80789 29.5817 4.88324C29.7402 4.71227 29.8814 4.54529 30.0487 4.37142C31.9559 4.73799 32.3933 4.32236 34.1375 4.35134ZM90.8471 3.68274C91.19 4.0543 88.4284 4.27527 91.1452 4.33468C90.6298 4.5788 89.8012 4.70685 88.2112 4.72858C87.956 4.63522 87.7013 4.54254 87.446 4.44918C87.4108 4.69901 87.0017 4.79187 86.1082 4.96996C86.1074 4.96968 86.1066 4.96939 86.1058 4.96911C83.6886 4.9872 83.833 4.9039 83.2517 4.49318C85.8107 4.725 85.8872 4.34975 87.6315 4.12662C88.8294 3.97319 90.3935 4.04268 90.8471 3.68274ZM156.581 23.3943C158.403 23.1626 156.794 22.7971 159.987 23.2748C159.776 23.345 159.565 23.4146 159.354 23.4849C158.43 23.4555 157.506 23.4252 156.581 23.3943ZM99.778 4.95629C99.571 4.38112 97.8672 3.93339 97.5764 4.86914C99.2369 5.05967 98.4258 4.52962 99.778 4.95629ZM7.58177 3.88695C10.7748 3.91378 10.1711 4.56296 8.85863 4.88751C8.65602 4.76942 8.45361 4.65113 8.25541 4.53376C7.69601 4.58737 7.13658 4.64109 6.57719 4.69397C6.91194 4.42521 7.24703 4.15571 7.58177 3.88695ZM156.07 4.32443C153.63 4.73519 158.704 4.55288 156.999 4.80933C155.638 5.01433 153.845 4.60044 154.523 4.34109C154.994 4.33385 155.519 4.32878 156.065 4.32443C156.067 4.32443 156.068 4.32443 156.07 4.32443ZM141.949 4.44192C142.35 4.88079 141.772 4.75287 143.7 4.6739C144.251 4.65144 148.626 4.81627 146.789 4.4526C145.226 4.4526 143.574 4.44626 141.949 4.44192ZM22.3314 17.343C22.3521 17.5352 18.9678 17.8026 18.5406 17.6782C18.5405 17.6785 18.5405 17.6788 18.5405 17.6791C17.3874 17.3406 20.9392 17.4602 19.4171 16.9985C22.8114 17.4975 23.8692 16.7087 23.582 17.798C21.5711 17.7556 22.5323 17.5718 22.3314 17.343ZM278.154 29.1249C278.155 29.125 278.157 29.125 278.158 29.1251C277.933 29.1059 276.083 28.7416 276.314 28.6548C278.55 28.8391 278.142 29.0055 280.241 28.7966C280.351 28.8993 280.444 28.9984 280.563 29.1023C279.733 29.1229 279.269 29.2195 278.154 29.1249ZM173.566 24.5425C172.741 24.5553 171.249 24.2806 170.311 24.2506C173.33 23.5906 176.862 24.4925 173.566 24.5425ZM267.092 4.63588C267.09 4.63617 267.088 4.63645 267.085 4.63674C267.086 4.6363 267.087 4.63589 267.088 4.63545C267.089 4.6356 267.091 4.63574 267.092 4.63588ZM109.826 21.1876C109.93 21.244 109.988 21.2915 110.008 21.3318C110.008 21.3355 110.007 21.3392 110.007 21.3429C109.952 21.292 109.893 21.2404 109.826 21.1876ZM29.3284 17.6011C30.7181 17.9306 26.0288 18.1431 24.5232 17.9739C24.6342 17.8572 24.6558 17.7477 24.9081 17.6192C26.1128 17.989 29.0973 17.5457 29.3284 17.6011ZM70.2555 4.48891C66.56 4.48166 71.3693 3.42925 71.5675 4.26889C71.5601 4.28516 70.351 4.48748 70.2555 4.48891ZM3.47653 14.1865C3.1579 13.245 3.07329 15.1371 3.12834 12.1116C3.21087 11.9355 3.2936 11.7596 3.37613 11.5835C3.40945 12.451 3.44321 13.319 3.47653 14.1865ZM46.0469 3.10726C41.3959 3.28474 36.9477 3.59785 39.9772 4.47652C40.3292 4.44829 40.6861 4.421 41.0381 4.39278C41.091 3.9641 42.3899 4.1981 44.2913 4.21206C44.5623 4.04188 45.6167 4.00253 45.8146 3.8579C46.1972 3.57833 44.9856 3.38178 46.0469 3.10726ZM242.407 3.80493C242.333 3.8781 242.259 3.95165 242.184 4.02409C241.449 4.10668 240.711 4.18887 239.976 4.27146C240.095 4.13104 240.214 3.99063 240.333 3.85021C241.024 3.83501 241.712 3.81971 242.403 3.8045C242.404 3.80464 242.406 3.80479 242.407 3.80493ZM67.9141 20.3803C68.3725 19.5948 66.8908 19.6764 63.8806 19.9481C65.2232 20.0921 66.5714 20.2363 67.9141 20.3803ZM120.785 3.43367C120.882 3.66246 120.977 3.89056 121.078 4.11936C122.668 3.88102 122.373 3.619 121.611 3.31618C121.334 3.35526 121.062 3.39458 120.785 3.43367ZM143.689 3.33626C143.029 3.28853 143.366 3.47326 143.297 3.46955C141.627 3.37248 141.392 3.28774 139.344 3.42683C139.093 3.47536 138.846 3.52638 138.595 3.57636C139.542 4.05579 140.23 3.79449 142.233 4.07621C141.872 3.91176 141.512 3.74709 141.151 3.58191C142.265 3.61668 143.375 3.65097 144.489 3.68573C144.621 3.63502 144.753 3.58478 144.886 3.53406C144.489 3.46889 144.08 3.39564 143.689 3.33626ZM250.914 4.01299C251.997 4.03182 253.086 4.0514 254.169 4.07024C254.209 3.95216 254.247 3.83329 254.286 3.71521C253.163 3.81444 252.036 3.91376 250.914 4.01299ZM90.1543 21.0168C90.242 20.9789 90.3276 20.9406 90.4039 20.9011C90.3943 20.9529 90.2987 20.9895 90.1543 21.0168ZM280.98 29.9008C282.204 30.0387 283.975 30.0644 285.321 30.1425C285.228 29.8418 281.803 29.7691 280.609 29.5355C280.414 29.5799 280.463 29.8427 280.98 29.9008ZM11.9991 3.91301C12.3074 3.76524 12.6153 3.61817 12.9192 3.4704C13.6636 3.48634 14.4096 3.50317 15.1584 3.51911C15.1804 3.39812 15.2021 3.27609 15.2241 3.15511C11.9257 3.31229 12.6862 2.96342 11.0532 2.61937C11.3703 3.05033 11.6821 3.48132 11.9991 3.91301ZM285.389 3.24569C283.006 3.32755 282.161 3.48045 283.504 3.84338C284.345 3.7601 285.191 3.67674 286.032 3.59346C285.816 3.47757 285.6 3.36158 285.389 3.24569ZM133.494 23.2469C135.492 23.2013 135.504 23.6894 137.463 23.5055C136.424 23.3688 135.386 23.231 134.352 23.0944C134.068 23.1452 133.778 23.1961 133.494 23.2469ZM35.737 20.1732C36.5698 20.3804 38.1771 19.6467 40.5128 20.3473C41.0838 20.1954 41.4444 20.042 41.9361 19.8902C42.2092 20.0918 42.5205 20.2976 42.7804 20.4971C42.782 20.4972 42.7836 20.4973 42.7851 20.4973C44.9309 20.5304 43.5522 20.2308 43.6097 20.0325C43.6361 19.9504 45.2202 20.1611 44.7314 19.9578C43.8874 19.6086 40.6733 19.6424 40.6816 19.2635C41.8024 19.4381 44.0066 19.434 43.3674 19.1521C42.6672 18.8428 40.5734 19.2137 39.2637 18.9241C41.128 19.6145 37.2295 19.2512 36.8061 18.7666C34.4976 19.0199 36.598 19.2605 38.9484 19.3499C37.498 19.6413 39.618 19.5442 39.9523 19.8559C38.4652 19.9677 33.396 19.5897 35.737 20.1732ZM65.418 2.96286C63.8319 2.98584 61.3542 2.78212 60.2683 3.08291C59.6359 3.25816 62.1195 3.39386 60.4068 3.66906C61.9521 3.64223 62.3047 3.53473 62.0405 3.29353C62.3926 3.26457 62.7492 3.23633 63.1014 3.20809C63.2642 3.25515 63.4314 3.30158 63.5943 3.34864C63.7793 3.24941 63.9653 3.15096 64.1458 3.05172C64.5199 3.07127 64.8984 3.09084 65.2725 3.11111C65.3165 3.06121 65.3914 3.01778 65.418 2.96286ZM190.691 25.8137C190.251 25.7967 189.815 25.7799 189.375 25.7637C189.421 25.8246 189.476 25.8883 189.529 25.9511C189.566 26.0006 189.604 26.05 189.642 26.0995C189.395 25.9177 187.312 25.5401 186.421 25.6821C185.973 25.7533 186.968 26.1227 185.084 26.0943C186.448 26.1392 187.714 26.152 189.039 26.1843C188.916 26.2752 188.797 26.3673 188.674 26.4582C188.675 26.4584 188.676 26.4586 188.676 26.4588C189.115 26.5003 189.559 26.5432 189.998 26.5847C190.23 26.3276 190.459 26.0708 190.691 25.8137ZM119.494 2.98123C117.992 3.17032 117.489 3.2685 118.198 3.57422C118.2 3.57436 118.202 3.57451 118.203 3.57465C118.762 3.4392 119.322 3.30381 119.881 3.16836C119.754 3.10606 119.626 3.04354 119.494 2.98123ZM103.033 22.6083C106.275 21.5922 99.0595 21.9791 100.409 22.436C100.47 22.4569 102.74 22.4667 103.033 22.6083ZM6.99499 3.52979C7.8715 3.52037 8.74994 3.51186 9.63086 3.50244C9.42823 3.35973 9.22084 3.21751 9.01823 3.07479C8.34432 3.2262 7.66889 3.37838 6.99499 3.52979ZM275.014 2.7185C274.092 2.39974 271.724 2.28425 270.566 2.63092C271.174 2.67149 271.782 2.71211 272.39 2.75268C271.241 2.7925 270.105 2.83635 268.947 2.87401C268.885 3.31809 270.22 3.06046 272.228 3.18289C272.539 3.20264 274.527 3.75387 275.214 3.3384C275.352 3.25301 273.237 3.19494 274.707 2.94663C274.064 2.9271 273.509 2.93143 272.902 2.92057C272.858 2.81481 272.814 2.70892 272.766 2.60315C273.517 2.64144 274.263 2.6802 275.014 2.7185ZM56.1843 2.99747C54.0058 2.97296 53.7368 3.1504 53.2832 3.464C54.2963 3.4285 55.3097 3.39354 56.3228 3.35804C56.2744 3.2381 56.2326 3.11813 56.1843 2.99747ZM255.542 2.61682C254.349 2.56552 254.86 2.82078 254.38 2.86931C252.566 3.05184 251.328 2.86941 249.536 2.9838C249.655 2.93454 249.764 2.8885 249.878 2.84068C249.877 2.84068 249.875 2.84068 249.874 2.84068C241.387 2.62555 245.845 3.20444 250.923 3.11026C251.042 3.20517 251.156 3.30019 251.275 3.39437C253.548 3.22848 255.643 3.06885 255.542 2.61682ZM74.6902 21.3687C74.7843 21.4324 73.9446 21.7724 75.4968 21.6656C76.7446 21.1702 74.7265 21.3529 74.2339 21.1185C74.6543 21.0845 75.0842 21.0524 75.5001 21.0182C73.0079 20.7498 72.6373 20.8643 73.5299 21.3078C73.5937 21.3378 74.5958 21.3052 74.6902 21.3687ZM91.103 22.3816C91.4829 21.5858 88.3123 21.8082 88.4153 22.0652C88.8503 22.0949 89.1949 21.9728 89.654 22.0544C90.1176 22.1363 90.2283 22.3311 91.103 22.3816ZM1.7954 14.7991C1.79178 14.8916 1.45046 15.8209 1.71764 15.7286C2.35009 14.579 1.943 12.2627 1.72277 12.6679C1.73366 13.434 1.82856 13.9449 1.79455 14.7991C1.79483 14.7991 1.79511 14.7991 1.7954 14.7991ZM289.383 2.5271C289.339 2.50444 287.021 2.36725 286.722 2.49463C286.475 2.63805 286.353 2.79175 286.168 2.94023C287.445 2.80258 290.031 2.90744 289.379 2.5271C289.38 2.5271 289.382 2.5271 289.383 2.5271Z" fill="#F88539"/>
</svg>
