<svg width="291" height="64" viewBox="0 0 291 64" fill="none" xmlns="http://www.w3.org/2000/svg" preserveAspectRatio="none">
<path d="M272.308 25.8492C273.747 26.3001 268.944 26.0045 272.133 26.678C271.468 26.7235 270.799 26.7704 270.134 26.8159C269.966 26.5665 269.793 26.3177 269.624 26.0683C270.517 25.9948 271.411 25.9214 272.308 25.8479C272.308 25.8483 272.308 25.8488 272.308 25.8492ZM273.528 22.7255C272.709 23.4369 270.109 23.6266 272.918 24.2831C273.141 24.0389 273.37 23.7948 273.593 23.5507C274.569 23.7401 275.55 23.9294 276.526 24.1177C276.876 24.0246 277.227 23.9314 277.577 23.8394C278.024 24.2636 278.467 24.689 278.913 25.1143C278.517 25.0522 278.115 24.9891 277.718 24.927C276.15 25.2715 274.755 25.3657 272.627 25.4299C272.814 25.5303 273.001 25.6298 273.188 25.7302C272.107 25.5594 271.028 25.3882 269.952 25.2175C270.886 25.0499 271.931 24.8635 272.797 24.7073C271.411 24.042 268.967 24.4123 267.695 24.551C265.963 24.7404 266.355 24.4241 265.069 24.5565C264.864 24.5772 264.841 24.8251 264.435 24.8293C262.388 24.849 258.413 24.7176 260.738 24.139C264.107 24.2136 266.98 23.749 270.285 23.9187C269.411 23.2498 271.152 23.0222 273.528 22.7255ZM228.457 8.03963C229.477 7.71475 231.557 7.84586 232.965 8.07137C232.967 8.07137 232.969 8.07137 232.97 8.07137C233.28 8.12105 233.982 8.55281 232.97 8.53522C231.32 8.50506 230.523 7.82542 229.657 8.28681C229.269 8.20092 228.862 8.1245 228.457 8.03963ZM224.871 8.07992C223.859 7.9133 224.318 7.40118 225.585 7.53978C225.585 7.53937 225.585 7.53897 225.585 7.53856C226.114 7.59651 225.076 8.0013 226.972 7.59044C227.36 7.91009 227.741 8.20089 228.124 8.51019C227.659 8.51536 227.236 8.52375 226.749 8.52789C227.077 8.00249 225.883 8.24523 224.871 8.07992ZM259.028 24.4283C258.869 24.901 259.535 24.898 260.67 25.226C259.599 25.2105 258.527 25.1939 257.461 25.1784C257.985 24.9281 258.504 24.6787 259.028 24.4283ZM284.192 24.5016C284.194 24.5016 284.195 24.5016 284.197 24.5016C284.548 24.4271 284.9 24.3523 285.247 24.2788C285.456 24.4475 285.664 24.6155 285.873 24.7842C285.915 24.7788 285.958 24.7734 286 24.768L283.048 21.8159C283.201 23.014 283.354 24.2179 283.508 25.4156C282.993 25.2651 283.076 23.0427 282.717 21.8159L286 25.0989C285.999 25.0991 285.998 25.0994 285.997 25.0997C284.174 24.9444 283.295 24.6453 283.177 24.2086C283.514 24.3059 283.85 24.4043 284.192 24.5016ZM4.63132 6.1901C4.77408 6.60481 4.917 7.01431 5.05976 7.429C5.12494 6.87763 5.17466 6.33063 5.25019 5.77469C5.11893 5.46729 5.03995 5.21876 4.99668 4.99997L4 5.99665C4.81611 5.83525 5.21866 6.17041 6.72095 6.1403C12.5604 6.02232 11.0111 5.058 16.2848 6.47048C12.0507 6.40329 13.6779 7.06699 11.1252 7.57821C10.5963 7.18908 13.1259 6.31146 11.4118 6.12931C8.96753 6.47013 6.6009 6.7916 4 7.04306L6.0431 4.99997C6.09549 5.54185 6.14484 6.0939 6.19068 6.65894C6.25794 6.56323 6.32544 6.468 6.3927 6.37229C6.35526 5.91345 6.31757 5.45801 6.28006 4.99997L4 7.28003C4.06073 7.27506 4.12153 7.27009 4.18238 7.26512C4.12146 7.28469 4.06067 7.30424 4 7.32377L6.3238 4.99997C6.48407 5.49766 6.64353 5.98827 6.80588 6.49618C6.39716 5.77601 6.62555 7.61148 6.15592 7.36584C5.94684 7.25643 5.65683 6.44526 5.4571 5.9666C5.34845 7.20174 5.24891 8.46853 5.14338 9.71734C4.97684 9.07027 4.81009 8.42376 4.64353 7.78124C4.63837 7.25275 4.63465 6.72828 4.62949 6.19981C4.6301 6.19657 4.63071 6.19333 4.63132 6.1901ZM254.998 53.504C253.375 53.7521 250.545 53.4085 249.143 52.6504C251.096 52.9354 253.045 53.219 254.998 53.504ZM283.058 23.8485C283.235 23.9312 283.407 24.013 283.585 24.0957C282.801 24.2488 282.012 24.4009 281.229 24.5541C281.078 24.3151 280.924 24.0761 280.769 23.8382C281.53 23.8413 282.297 23.8454 283.058 23.8485ZM232.423 19.9977C232.438 20.5712 232.43 20.622 232.396 21.3362C232.396 21.3354 232.396 21.3346 232.396 21.3338C232.393 21.4001 232.383 21.5811 232.368 21.8159C232.347 23.1476 233.39 24.1494 234.722 24.1703C235.489 24.2221 236.83 24.3369 236.628 24.4778C236.008 24.4794 235.366 24.4793 234.722 24.4789C233.216 24.4552 232.035 23.3221 232.059 21.8159C232.059 21.2375 232.06 20.6568 232.06 20.0876C232.181 20.0511 232.301 20.0432 232.423 19.9977ZM246.748 24.222C246.75 24.2225 246.751 24.2229 246.753 24.2233C247.181 24.2512 247.586 24.3081 248.028 24.3185C246.438 24.608 246.186 24.0885 244.741 24.2355C243.297 24.3835 242.404 24.6701 241.178 23.9584C241.634 23.8518 242.124 23.6993 242.594 23.5751C244.645 23.8597 245.198 23.5919 246.843 23.3114C246.811 23.6157 246.78 23.9178 246.748 24.222ZM28.8076 7.07104C29.1995 6.7192 29.6367 7.06443 29.6821 7.0686C29.6813 7.069 29.6805 7.06941 29.6797 7.06982C33.1519 6.74397 29.2278 7.26458 32.5049 7.31944C32.0173 7.40738 31.5376 7.50023 31.0546 7.5892C30.3073 7.41952 29.5367 7.22725 28.8076 7.07104ZM141.628 7.104C141.66 7.20646 141.699 7.30915 141.731 7.4116C139.761 7.3878 139.259 7.79114 137.623 7.42381C138.958 7.3162 140.293 7.20936 141.628 7.10278C141.628 7.10319 141.628 7.1036 141.628 7.104ZM233.168 10.0718C233.364 12.2554 233.45 13.8706 233.14 15.9676C233.139 15.9692 233.139 15.9708 233.139 15.9725C233.119 16.0933 232.905 15.5086 232.851 15.6664C232.883 16.099 232.932 16.5458 232.971 16.983C232.799 17.0422 232.627 17.0987 232.457 17.1579C232.505 15.9272 232.554 14.6958 232.603 13.4606C232.502 13.643 232.403 13.8297 232.302 14.0121C232.251 12.9638 232.199 11.9194 232.147 10.8711C232.429 11.2356 232.71 11.5993 232.993 11.9594C233.052 11.3305 233.108 10.7007 233.168 10.0718ZM108.844 5.98284C109.19 6.09461 108.549 6.28208 109.086 6.37833C109.624 6.47336 110.616 6.26478 110.384 6.58035C109.659 6.62275 108.899 6.67137 108.161 6.71584C110.536 7.28489 112.905 6.76996 112.942 7.47263C110.662 7.29049 108.788 7.37511 106.582 7.56968C106.673 7.01191 108.88 6.52964 107.49 6.00603C107.937 5.99879 108.406 5.9882 108.839 5.98406C108.84 5.98365 108.842 5.98325 108.844 5.98284ZM290.962 50.7744C290.919 52.1237 291.147 55.2154 290.822 56.9203C290.742 57.3398 289.704 58.7372 289.568 58.7301C289.107 58.6891 289.044 56.9825 288.744 58.8103C288.741 58.1954 288.724 57.5987 288.716 56.9884C288.406 57.0978 288.098 57.2066 287.789 57.3115C287.836 58.0545 287.883 58.7984 287.93 59.5415C287.828 59.578 287.725 59.6143 287.623 59.6508C287.621 56.9794 287.225 58.5564 286.857 57.1706C286.671 58.4454 286.485 59.7297 286.299 61C286.299 61.3593 285.701 61.3593 285.701 61C285.701 60.9987 285.701 60.9974 285.701 60.9961C285.701 60.9974 285.701 60.9987 285.701 61C285.701 61.3587 286.299 61.3587 286.299 61C286.322 60.267 286.338 59.403 286.365 58.7568C285.841 58.6702 285.966 60.2145 285.869 60.4792C285.319 61.9697 285.596 54.3809 284.833 53.7599C284.748 54.9722 284.665 56.2443 284.581 57.4839C284.487 57.1284 284.393 56.7682 284.299 56.4126C284.825 53.6003 285.012 50.4465 285.34 47.1694C285.318 46.8733 285.296 46.5767 285.275 46.2852C285.038 46.3717 284.802 46.4536 284.565 46.5402C284.538 46.0935 284.51 45.6412 284.482 45.1944C285.262 46.5116 285.252 44.6876 285.728 42.4858C286.002 43.6572 285.836 45.1022 286.346 45.0025C285.953 40.9823 286.509 36.2741 286.065 32.3632C285.955 31.3924 285.296 31.3955 285.357 29.1129C285.43 29.1904 285.56 29.2037 285.656 29.2538C285.425 26.3696 285.262 24.3141 285.317 21.8159L286 22.4993C285.079 22.4792 284.097 22.4296 282.992 22.3429C283.229 22.5797 283.462 22.8176 283.699 23.0545C284.467 22.9505 285.235 22.845 286 22.7407L285.075 21.8159C285.089 21.9187 285.103 22.0214 285.117 22.124C284.726 22.7165 284.553 21.8408 284.558 24.439C284.561 26.5679 284.733 25.3006 284.849 25.8796C285.008 26.6635 284.696 27.3515 284.873 28.1946C285.009 28.8465 285.331 28.1413 285.25 29.8417C284.832 29.1579 284.4 28.4603 283.977 27.772C284.071 27.3571 284.166 26.9454 284.262 26.5306C284.373 26.95 284.484 27.3623 284.595 27.7817C284.395 26.3048 284.205 24.9093 283.997 23.3823C284.522 23.8134 284.421 22.6826 284.338 21.8159L286 23.478C285.868 23.4906 285.741 23.5028 285.628 23.5122C284.293 23.6239 285.437 23.2079 284.561 23.2773C283.686 23.3477 282.742 23.8124 281.161 23.713C282.008 23.444 280.855 23.2027 281.078 22.9544C281.301 22.7061 282.974 22.6511 281.367 22.3801C278.276 22.586 281.63 23.5317 279.543 23.685C277.036 23.8692 276.439 22.3276 277.186 21.9962C277.774 21.7354 279.798 21.7879 280.39 21.5281C276.766 21.0593 276.735 21.9848 276.115 22.1659C273.863 22.8251 275.376 21.0656 272.709 21.702C272.759 21.373 272.8 21.0771 272.85 20.7615C272.39 20.8215 272.085 20.9013 271.529 20.9489C273.168 21.59 271.826 21.5625 271.138 21.5635C270.053 21.5656 271.728 21.8783 271.441 21.959C270.666 22.175 269.441 22.0769 270.193 22.3593C269.855 22.2279 269.49 22.0961 269.143 21.9657C267.876 22.1295 264.897 23.5027 267.732 23.2254C267.467 23.7356 266.55 23.4904 265.834 23.4128C265.119 23.3352 265.132 23.6602 264.503 23.6001C262.001 23.36 263.638 22.8042 264.034 22.3685C260.73 22.6686 263.965 22.8672 259.203 23.0679C258.742 23.4229 260.943 23.8017 259.11 24.0066C258.773 23.3899 257.424 22.9469 254.794 22.742C254.538 22.8838 254.284 23.0268 254.028 23.1686C252.592 22.5994 253.326 22.0075 250.669 22.7133C252.096 21.4145 251.115 22.2454 248.735 21.7167C248.252 21.6101 249.368 21.3406 248.694 21.204C248.388 21.1424 247.646 21.3458 246.899 21.1887C246.534 21.1111 244.829 20.6103 243.648 20.8482C244.514 21.4774 242.271 22.0127 244.195 22.5333C240.639 22.405 238.151 22.7071 242.135 21.8491C241.232 21.6587 240.329 21.4691 239.426 21.2797C238.797 21.4297 238.163 21.5786 237.529 21.7277C237.433 21.2105 237.53 21.0654 235.051 21.1564C236.127 21.0343 237.197 20.9103 238.277 20.7872C238.314 20.6827 238.464 20.5742 238.428 20.4728C237.661 20.588 236.086 20.6652 234.722 20.7365L235.801 21.8159C235.75 20.8284 235.701 19.9516 235.643 19.5726C235.506 18.67 235.468 20.413 235.335 20.1532C234.234 17.9883 235.046 18.1599 234.857 16.6065C234.745 15.6948 234.623 17.8716 234.576 17.3838C234.401 15.5753 234.986 14.7364 234.994 13.1327C234.662 13.7023 234.325 14.2674 233.989 14.8234C234.007 13.1413 234.01 11.2662 233.903 9.7026C233.862 9.0888 233.615 9.55263 233.598 9.45239C233.513 8.95508 233.379 6.9313 233.378 6.71707C233.377 5.85355 233.474 5.43917 233.568 4.99999L234.722 6.15387C234.341 6.0725 233.941 5.99399 233.213 5.98529C233.73 5.96095 234.221 5.93862 234.722 5.91553L233.806 4.99999C233.811 5.09499 233.815 5.19033 233.82 5.28625C234.374 5.55973 234.929 5.83871 235.485 6.11219C235.494 5.74151 235.504 5.37079 235.514 4.99999C235.507 4.55216 235.17 4.20121 234.722 4.20824C233.556 4.17785 232.39 4.14772 231.221 4.1171C232.347 4.30232 233.477 4.48666 234.603 4.67188C232.843 5.11999 231.083 5.56911 229.324 6.01825C228.408 5.74297 227.495 5.46776 226.579 5.19248C224.091 5.2651 224.592 6.38253 223.411 5.40365C222.677 5.48641 221.944 5.56911 221.21 5.65084C221.315 5.51117 221.419 5.37121 221.524 5.23155C220.639 5.31744 219.755 5.40278 218.871 5.48971C219.801 5.98435 220.712 6.50485 221.633 6.985C219.893 7.09249 219.859 6.67287 219.6 6.56815C218.911 6.29079 217.545 6.66491 216.998 6.40824C216.813 6.32013 218.519 6.04389 217.931 5.72529C217.816 5.66354 215.533 4.4924 214.076 4.76282C214.103 4.97498 214.215 5.23512 214.275 5.46591C212.315 5.59477 211.316 4.48733 211.576 4.17691C210.532 4.39423 209.006 4.41238 208.792 4.75183C208.259 4.76011 207.729 4.76796 207.196 4.77625C207.752 3.94953 205.527 4.1007 205.381 4.81164C206.298 4.82924 207.215 4.84776 208.131 4.86535C207.438 5.73674 210.223 6.26272 204.429 5.45553C203.321 5.00223 206.398 5.51729 205.495 5.17783C203.928 4.98026 202.455 5.14557 200.965 4.82995C199.11 4.43567 201.392 4.05645 197.071 4.55836C206.603 5.81577 195.764 5.40779 191.287 5.79792C190.056 4.55601 186.275 4.16265 181.07 4.53211C181.612 4.87776 183.25 4.69968 184.194 4.81347C185.137 4.9273 184.116 5.13236 185.292 5.2938C186.467 5.45519 188.965 5.67461 190.155 5.91877C189.147 6.11439 184.171 6.57688 187.461 6.0213C185.005 5.67882 183.851 5.32687 180.807 5.26267C179.896 5.80184 179.963 6.13757 176.996 6.15313C178.751 5.4039 175.379 4.88318 176.121 4.10916C178.225 4.28944 177.049 5.04174 178.266 5.40182C178.391 5.43781 180.352 5.24922 180.807 5.26267C178.829 4.58687 178.145 4.33532 179.362 3.53119C177.962 3.60156 177.092 3.5006 176.964 3.88456C176.672 3.71799 176.379 3.55128 176.092 3.38471C175.637 3.38886 175.227 3.40428 174.744 3.40119C175.409 3.98037 174.12 3.62382 173.204 3.88639C172.287 4.14926 173.517 4.60647 171 4.61268C171.839 4.74825 172.606 4.86458 173.417 4.99291C171.795 5.14192 170.167 5.29187 168.544 5.44088C169.684 5.79477 172.154 6.32042 172.086 6.78603C171.339 6.61024 168.778 6.91918 168.498 6.93189C167.413 6.9795 168.005 6.68586 167.923 6.67861C166.218 6.53592 164.814 6.6359 164.167 6.19096C162.886 6.39172 161.92 6.27726 160.562 6.28862C159.814 6.29483 159.96 6.62162 159.522 6.5596C156.614 6.14566 159.385 5.72335 153.775 6.52725C154.454 6.75491 155.124 6.9878 155.803 7.21753C155.169 7.30342 154.539 7.38979 153.906 7.47569C153.482 7.43429 153.062 7.39258 152.638 7.35118C152.647 6.85757 152.658 6.36293 152.667 5.86932C152.202 5.84242 151.735 5.81628 151.27 5.78937C152.068 5.74073 152.868 5.69215 153.665 5.6435C153.738 5.55665 153.806 5.46975 153.879 5.3829C152.694 5.24836 151.513 5.11261 150.328 4.97704C150.305 5.14874 150.282 5.32165 150.26 5.49337C147.588 5.25431 147.525 5.10894 144.986 5.58186C143.03 5.57669 141.438 6.29463 140.307 6.59683C139.901 6.5006 139.495 6.40315 139.085 6.30693C138.825 6.44974 138.563 6.59194 138.303 6.73476C137.788 6.53607 137.266 6.33735 136.751 6.1397C136.464 6.59067 136.315 6.73147 138.325 6.88978C137.636 7.45069 134.098 7.20325 132.657 7.01489C131.565 6.87197 132.777 6.40411 132.64 6.3472C132.184 6.15386 130.383 6.32069 130.005 6.28861C128.405 6.15512 127.284 6.17849 125.838 6.075C125.557 6.05429 124.771 5.75778 124.704 5.74848C124.184 5.69777 122.902 5.55365 122.756 5.54951C115.231 5.32818 123.271 6.61457 116.275 6.47903C116.484 6.64867 116.677 6.81718 116.882 6.98682C116.353 6.99716 115.819 7.00699 115.291 7.01733C114.621 6.87556 115.431 6.61771 114.1 6.8257C114.187 6.61665 114.274 6.40751 114.365 6.19951C113.786 6.31231 113.228 6.42421 112.636 6.53701C111.706 5.81156 108.311 5.64681 108.552 4.79515C108.634 4.50537 111.041 4.20804 109.769 3.89859C108.736 3.83768 109.435 4.18377 109.014 4.20192C105.968 4.32818 106.145 3.84308 104.901 3.97244C104.705 4.18035 104.499 4.39232 104.298 4.60229C103.829 4.54127 103.358 4.48022 102.885 4.4192C102.775 4.55891 102.661 4.69877 102.552 4.83849C102.994 4.8478 103.492 4.85725 103.898 4.86656C103.332 5.4077 98.1365 5.65078 100.118 5.18942C100.925 5.00212 102.402 5.0817 101.468 4.44239C100.078 4.53449 98.5007 4.62859 97.0375 4.72069C96.9919 4.58305 96.9494 4.44515 96.9039 4.30751C94.9318 4.39661 96.7253 4.94694 96.7217 5.24191C96.2706 5.25018 95.8148 5.25744 95.3637 5.26571C95.1725 5.13235 94.9908 4.99275 94.7904 4.86351C94.7721 5.07575 94.5195 5.56908 93.175 5.38595C92.3105 5.26674 93.6719 4.73127 92.0235 4.80553C92.1467 5.13664 92.7422 5.53992 90.9061 5.64655C90.7238 5.30098 90.4716 4.98439 90.3304 4.62121C88.047 4.95321 87.0079 4.41954 84.3277 4.80553C82.6274 5.04978 80.2983 5.9168 79.1996 4.58093C77.9559 4.54577 78.3506 4.87843 77.9825 4.95323C76.2457 5.30717 74.9539 4.67373 74.6302 4.63647C72.566 4.39764 71.6406 4.61691 69.9588 4.31788C70.05 4.56523 70.0996 4.79936 70.1726 5.0405C71.7134 4.67 72.4937 4.68739 74.6545 4.76708C73.9299 4.81674 73.205 4.86755 72.4803 4.91722C72.5989 5.11794 72.7162 5.3187 72.8301 5.51838C79.5131 4.7277 77.9541 5.97694 72.3516 6.25016C71.8685 5.87869 71.3677 5.50821 70.8892 5.13571C67.6527 5.69868 66.1297 5.20996 62.4695 5.09299C62.0343 5.07961 60.4494 5.29359 59.7681 5.30416C59.7795 5.30558 59.7908 5.30701 59.8022 5.30843C59.3784 5.65922 59.9524 5.82066 60.0208 6.1342C59.6516 6.17351 59.2822 6.21267 58.9131 6.25199C58.0886 6.01299 58.3784 5.81668 56.7559 5.87359C56.9747 6.11159 57.1906 6.34966 57.4094 6.58766C55.6315 6.59594 54.468 6.33735 52.8133 6.44912C53.0913 6.35908 53.366 6.26879 53.644 6.17875C50.0428 5.949 52.9088 4.54967 50.1872 5.24618C50.0141 5.1241 49.8454 5.00084 49.6723 4.87876C50.7935 4.84876 51.9152 4.81967 53.0319 4.78966C53.0547 4.6169 53.0793 4.44487 53.0975 4.2721C51.8986 4.32385 50.6938 4.37721 49.4949 4.42896C50.3702 4.31305 51.2505 4.19699 52.1258 4.08108C50.7356 3.99829 49.345 3.91546 47.9548 3.83267C49.4311 4.46796 47.5171 4.54565 47.877 5.17477C45.4154 4.6511 43.4818 3.9608 39.6662 4.40271C38.9098 4.49074 39.3207 4.93038 37.1738 4.39539C37.6935 5.0949 35.0039 5.42315 35.3495 6.08842C36.0969 6.05635 36.8719 6.03617 37.5965 5.99687C36.7715 5.7661 36.6347 5.13125 37.888 4.94285C39.488 4.70276 41.8217 5.14274 41.7262 4.43811C42.3642 4.47122 42.9576 4.49075 43.5773 4.51867C43.3222 4.69347 43.0724 4.86936 42.8218 5.04416C44.5852 4.77012 45.6932 4.85924 46.541 5.29989C44.4398 5.40129 42.3431 5.50162 40.242 5.60199C40.5515 5.63196 40.8653 5.66216 41.1748 5.6911C39.5838 6.14129 41.2249 6.5677 38.2573 6.66395C38.2755 6.45805 38.2901 6.25202 38.3083 6.04509C37.2279 6.59567 34.2698 6.59268 35.2135 7.22606C34.3201 7.03151 34.1379 6.90846 33.632 7.24986C31.2752 6.76862 29.7616 6.16006 30.6003 5.43354C29.7253 5.55047 28.8497 5.66756 27.9792 5.78448C28.4851 5.98314 28.9916 6.18088 29.4975 6.37954C27.9749 6.36712 26.4412 6.35492 24.9232 6.34353C24.7773 5.75578 27.8538 6.16522 26.9662 5.63983C26.7886 5.53437 25.9692 5.76027 25.754 5.70086C23.484 5.05824 27.0476 5.52252 26.3783 5.03012C22.9958 4.87799 25.7026 4.05292 21.0437 4.74632C20.9207 4.57663 20.7884 4.40353 20.6745 4.23487C19.0572 4.22469 19.1883 4.60798 17.7983 4.68041C16.9277 4.72547 15.835 4.05241 14.8734 4.51074C14.702 4.59524 16.3195 5.41787 12.9204 5.38167C10.2823 5.35361 11.3803 4.77226 9.95426 4.56628C8.52741 4.36033 5.26328 5.16641 4.30143 4.25257C5.0488 4.37361 6.0008 4.43891 6.83027 4.5382C7.16755 4.36022 7.49595 4.18416 7.82868 4.00722C6.49775 4.16846 5.13535 4.08316 4 4.16465C3.52753 4.17207 3.15726 4.5275 3.16468 4.99997C3.19932 5.48231 3.26401 5.92369 3.39054 6.30427C2.74164 8.8343 3.34382 11.6638 4.07654 10.898C3.97089 10.0652 3.6514 10.9711 3.85498 9.81451C4.02576 9.69599 4.19568 9.57108 4.36643 9.45255C4.34574 11.4219 4.35053 12.7896 3.82996 11.8915C3.81754 12.1969 3.80515 12.4995 3.79273 12.8049C4.16947 12.8596 4.54755 12.9081 4.92429 12.9628C4.96671 13.3275 5.00879 13.6937 5.05121 14.0584C4.96848 14.4639 4.88477 14.8703 4.801 15.2803C4.20487 14.7287 4.18518 13.7892 3.85193 16.8982C4.0579 16.9073 4.26303 16.9206 4.46897 16.9297C4.39579 17.6574 4.30405 18.1869 4.2103 18.6437L4.03122 18.4358C5.15955 18.8496 5.8078 19.205 8.13807 19.5415C5.55246 19.8762 4.38422 18.419 4.18021 19.8388C4.06574 19.8037 3.95111 19.7685 3.83637 19.7333C3.30869 19.6625 2.90656 19.1761 2.8982 18.6437C2.97498 18.1318 3.05225 17.6178 3.1287 17.1071C2.92069 17.0113 2.71238 16.9165 2.50434 16.8253C2.52234 17.3795 2.57425 17.9939 2.64441 18.6437C2.6547 19.2987 3.14942 19.8972 3.79868 19.9843C7.1254 20.1225 11.4325 19.9286 13.1894 20.9592C13.4762 20.8904 13.7619 20.836 14.0545 20.7596C16.1642 21.63 17.2928 20.5566 19.4101 21.5905C19.6284 21.6984 18.9771 22.7683 21.8763 23.1618C21.8265 23.0026 21.8264 22.7472 21.7961 22.5512C22.4088 22.7363 23.0176 22.9251 23.6255 23.1116C23.7587 22.9915 23.8975 22.8722 24.0309 22.751C22.9704 22.5373 21.9132 22.3232 20.8528 22.1095C21.7476 22.1958 22.6481 22.2829 23.5429 22.3691C22.4183 21.9711 21.8962 21.8903 22.6483 21.6361C23.6568 21.7656 24.6669 21.894 25.6755 22.0235C25.7928 21.9471 25.9096 21.8694 26.027 21.793C25.5813 21.4456 25.1299 21.1036 24.6848 20.7521C27.2702 21.3696 29.5454 21.7237 31.475 22.5649C31.8038 22.7075 30.5386 22.8828 32.9214 22.9112C32.929 23.1058 32.9687 23.2689 32.983 23.4499C35.9207 23.349 36.8359 23.6483 39.7582 24.4786C37.8824 23.8316 39.5691 24.3225 40.0892 24.2049C40.4457 24.1236 39.1286 23.9457 39.298 23.8299C39.4674 23.7152 41.2581 23.4179 39.8082 23.132C36.0583 23.7295 35.2869 22.226 30.6068 22.0809C31.3366 22.0409 32.0715 22.0012 32.8012 21.9612C32.4828 21.8119 32.1979 21.6771 31.8533 21.5177C34.3845 22.1249 33.159 21.7933 34.239 21.7766C35.3202 21.76 37.2596 21.8992 38.5517 22.0441C38.9587 22.0898 38.4935 22.2802 39.4034 22.4411C40.023 22.5509 41.7797 22.4288 42.1054 22.9327C42.3188 23.2609 39.468 23.6482 43.2445 24.2134C43.9126 24.6041 42.1153 24.244 42.0712 24.2724C41.6914 24.5607 43.9748 25.1633 45.0864 25.0665C45.1767 25.0573 44.3689 24.6669 45.3058 24.702C47.5292 24.7837 48.7466 25.2752 50.1008 25.8961C50.326 25.4402 52.2518 25.1445 54.5153 25.6655C54.6531 25.546 54.7854 25.4245 54.9234 25.304C54.5569 25.3231 54.1907 25.3413 53.8242 25.3605C53.4495 25.2163 53.0481 25.092 52.6846 24.9338C55.0054 25.1619 55.4302 24.5507 56.5709 24.4751C60.4741 24.2176 57.9215 25.6188 57.1947 25.8173C56.7216 25.6217 56.2668 25.4144 55.7992 25.2133C55.8282 25.3883 55.8579 25.5646 55.8822 25.7399C61.5404 26.5845 56.5811 26.9522 59.4062 27.6936C60.2687 26.9838 62.3897 27.2215 64.998 28.1458C65.2962 28.1864 65.5949 28.2302 65.8932 28.2698C65.9607 28.1575 65.9874 27.9745 66.0802 27.9078C69.3379 28.2547 69.7247 29.6053 70.0132 29.7711C71.2947 30.5066 72.4652 29.931 72.8675 29.985C74.5617 30.2133 75.004 30.6133 76.6342 30.7148C78.3877 30.8233 77.2418 30.3952 77.802 30.2502C78.2511 30.1357 79.6212 30.3091 80.213 30.2093C79.9663 30.3265 79.6949 30.4371 79.4487 30.5549C81.2117 31.03 82.6476 31.4507 84.6773 31.8068C87.142 31.0481 88.8183 33.204 88.2519 31.5746C86.338 31.1815 85.2849 30.8474 84.3104 30.3075C85.5843 30.4486 86.859 30.5911 88.1328 30.7322C88.4774 30.9535 88.7155 31.1544 89.1273 31.3889C90.1267 31.1791 92.2983 31.6597 93.1752 31.6858C97.2825 31.8076 96.1246 31.0198 99.6559 32.5819C96.9867 32.2816 96.9173 32.7723 94.295 32.3094C94.8105 32.7448 96.1591 32.8731 95.2305 33.1628C97.7928 33.4419 97.0258 32.9436 98.0669 32.7599C98.9648 32.6016 100.689 32.844 100.647 32.4568C100.793 32.6881 100.899 32.9069 101.044 33.1379C102.694 33.3836 104.343 33.6312 105.993 33.8769C105.258 33.9851 104.523 34.0938 103.788 34.2011C104.307 34.3617 104.827 34.5221 105.347 34.6826C109.504 34.6267 116.317 36.8967 115.45 35.0577C117.414 35.2983 117.628 35.5446 118.644 36.0206C118.78 35.9113 118.91 35.8229 119.048 35.6993C120.29 36.0216 121.331 35.6908 122.425 35.9818C123.52 36.2719 123.729 36.7633 124.005 36.0314C124.693 36.3567 125.383 36.6446 126.07 36.9538C126.528 36.8469 126.985 36.742 127.439 36.6355C128.102 36.8271 128.766 37.0185 129.429 37.2101C129.844 36.9034 132.479 37.4583 133.688 37.3919C134.742 37.9481 134.527 39.1687 137.178 39.3423C137.156 39.0283 137.135 38.7153 137.113 38.4012C137.703 38.5547 138.294 38.7082 138.888 38.8623C138.91 38.9669 138.926 39.0708 138.947 39.1754C138.645 39.0986 138.347 39.0227 138.046 38.945C138.286 39.1528 138.522 39.3589 138.758 39.5661C139.71 39.4548 140.664 39.3437 141.621 39.2332C140.41 38.8588 139.198 38.4841 137.987 38.1097C139.576 38.1202 140.625 38.5053 142.015 38.4597C143.128 39.056 142.657 39.2325 142.111 39.616C142.554 39.6428 143.002 39.6717 143.445 39.6984C143.088 40.1105 143.787 40.4928 141.237 40.0722C141.393 40.2285 141.554 40.3793 141.705 40.54C142.127 40.5824 142.382 40.733 142.849 40.752C144.123 40.8031 145.204 40.1476 145.161 39.8543C145.136 39.7005 143.859 39.7958 143.939 39.5956C144.138 39.1075 146.938 39.7606 142.926 38.638C144.331 38.5194 144.598 38.8081 146.081 39.126C145.989 38.9396 145.9 38.7549 145.813 38.5692C146.495 38.7512 147.179 38.933 147.861 39.115C146.766 39.8369 151.834 40.9309 147.114 40.9975C148.469 41.2408 149.82 41.4836 151.17 41.7283C150.877 41.7753 150.585 41.8215 150.292 41.8685C149.686 41.7294 149.084 41.5916 148.477 41.4535C149.174 41.7244 149.872 41.9946 150.569 42.2656C152.303 42.3199 153.018 42.1101 153.855 41.8445C151.914 41.2673 152.504 41.7462 150.948 41.5899C151.038 41.3557 151 41.122 151.174 40.8876C151.897 41.5096 154.556 41.5355 155.164 41.6016C157.013 41.8031 155.498 42.08 156.726 42.275C157.955 42.4701 159.451 42.3945 160.382 43.0346C160.406 42.7577 160.368 42.462 160.333 42.2015C162.263 42.3992 161.832 42.6657 162.024 42.7374C165.085 43.9025 166.889 43.578 170.52 44.0511C170.073 43.8971 169.62 43.7507 169.168 43.6011C171.986 43.4291 170.12 43.3311 167.777 42.7826C169.991 43.1747 171.338 42.87 172.929 42.9583C174.52 43.0467 177.172 43.7054 178.125 44.0515C175.828 44.033 173.433 43.458 170.922 43.171C171.164 43.4929 171.405 43.7708 171.652 44.1217C173.259 43.7636 174.08 44.2877 174.569 44.4407C176.004 44.8894 176.033 44.3793 176.84 45.0539C176.832 44.8623 176.829 44.7018 176.819 44.5225C179.841 45.0559 183.064 45.8765 185.142 45.4855C185.255 45.9598 185.326 46.411 185.465 46.8986C186.8 46.7549 187.848 47.2648 188.942 47.3486C190.031 47.4316 189.675 47.0086 190.963 47.0596C191.201 47.0692 191.655 47.3688 192.257 47.2886C192.865 47.2084 195.201 46.2842 195.295 47.4121C196.38 47.5804 197.402 47.7746 198.463 47.9528C197.417 47.8585 196.371 47.7622 195.33 47.6686C196.174 48.0653 197.012 48.4604 197.856 48.8571C198.004 48.6386 198.153 48.4159 198.296 48.1999C200.719 48.2708 202.389 48.915 204.805 49.1848C205.209 49.2297 204.332 48.6222 206.094 49.0081C207.857 49.3943 209.048 50.4614 212.132 50.5814C212.288 50.5871 213.286 50.0567 214.303 50.6804C214.535 50.822 213.471 50.8201 214.018 51.0425C214.566 51.2649 217.083 51.7583 217.232 52.1146C217.223 51.9949 217.082 51.8513 217.023 51.7222C217.464 51.7319 217.91 51.7422 218.355 51.7537C218.365 51.9634 218.378 52.1739 218.388 52.3826C220.948 52.2825 222.35 51.7027 225.999 52.5122C225.006 52.0607 224.014 51.608 223.026 51.1573C222.711 51.3224 222.395 51.4888 222.084 51.6546C220.397 51.3165 218.706 50.9783 217.019 50.6402C216.704 50.8346 216.394 51.0291 216.079 51.2236C215.633 51.1252 215.191 51.0284 214.745 50.93C214.883 50.7761 215.022 50.6231 215.165 50.4698C214.267 50.3778 213.367 50.2864 212.473 50.195C214.432 49.4577 217.508 51.039 217.401 50.16C217.782 50.3511 218.164 50.5433 218.545 50.7355C218.782 50.3527 219.58 50.5929 221.008 50.8733C220.709 50.6222 220.375 50.3688 220.104 50.1198C221.459 50.6141 223.942 50.9588 225.372 51.2856C226.001 51.4292 225.321 51.6305 225.505 51.6938C226.447 52.0215 228.377 51.7821 228.759 51.8812C231.039 52.4728 232.397 53.6804 235.024 53.4134C232.437 52.8617 233.847 53.1424 232.973 52.6437C232.699 52.4874 229.362 51.746 233.569 52.4845C234.062 52.5719 241.622 54.4007 239.025 54.542C240.29 54.5624 241.289 54.5165 242.452 54.5111C245.023 56.2975 244.255 54.8667 243.555 54.0373C244.01 54.1026 244.445 54.1605 244.913 54.2309C243.805 54.8253 248.874 55.6338 250.653 55.5169C251.248 55.4787 249.671 54.9982 251.022 55.086C251.65 55.2336 252.36 55.4094 253.023 55.5686C252.12 54.9516 254.058 55.0571 254.103 54.5742C255.261 55.1844 256.059 56.2293 255.314 56.6187C256.354 56.5718 257.398 56.526 258.438 56.4781C257.986 56.2941 257.528 56.1102 257.076 55.9261C260.331 56.7226 264.677 56.6752 265.215 57.7848C265.654 57.8433 266.097 57.9035 266.535 57.962C266.696 57.8124 266.852 57.6619 267.013 57.5123C268.969 57.9568 270.921 58.4016 272.878 58.8461C271.1 58.6869 270.644 58.8658 268.826 58.3919C269.509 58.6942 270.205 58.9996 270.874 59.2999C273.734 59.1916 274.165 58.9029 278.33 59.6884C278.518 59.724 281.616 60.6403 281.718 60.6996C282.184 60.9705 281.388 61.1429 281.594 61.2754C282.166 61.6458 285.786 62.9043 285.698 62.9989C284.593 64.1558 272.056 62.2904 268.656 61.8478C233.39 57.2566 199.14 51.1692 164.175 46.0791C163.815 46.0276 163.943 46.2421 163.789 46.2273C162.831 46.1324 161.942 45.6945 161.592 45.6294C160.844 45.4913 161.217 45.8284 160.668 45.7462C154.997 44.8914 149.67 43.9259 143.987 43.1206C143.617 43.0682 144.028 42.9048 143.373 42.8462C143.034 42.8172 141.935 42.9972 141.177 42.8887C138.533 42.5094 136.33 42.0679 133.544 41.6546C132.02 41.4288 129.738 41.0568 128.034 40.8061C127.281 40.6952 126.474 40.7319 125.73 40.6254C124.674 40.4742 124.936 40.1935 124.777 40.1497C124.077 39.9578 123.927 40.2865 123.252 40.1768C121.997 39.9716 121.963 39.732 120.365 39.5118C119.222 39.3548 116.585 39.1439 115.139 38.9811C111.815 38.21 107.562 37.6792 104.411 37.296C102.546 37.0692 102.422 36.7222 101.665 36.6095C98.9954 36.2149 96.9088 36.321 94.4005 35.9579C91.0718 35.4757 88.1649 34.7618 84.9453 34.2583C84.4232 34.1767 84.499 34.489 83.9852 34.4196C82.0831 34.1622 79.6482 33.8513 77.9639 33.5554C76.0869 33.2263 75.456 32.6948 73.5994 32.5049C73.0549 32.4496 72.8403 32.8003 71.9273 32.7124C70.469 32.5707 68.9321 32.0021 67.928 31.8136C66.5513 31.5566 67.6977 32.119 65.839 31.7875C65.7626 31.7738 65.5243 31.4591 65.1216 31.4119C63.9485 31.2734 64.0321 31.5056 62.3266 31.2285C62.1632 31.2011 59.9368 30.601 59.7117 30.5661C58.3871 30.363 55.7324 29.8712 54.9395 29.8086C52.106 29.584 54.252 30.3258 52.0009 29.0772C50.9181 29.1375 49.8436 29.202 48.6985 29.2466C49.4712 29.1606 46.4989 28.4228 46.2843 28.4094C44.5094 28.2946 45.5013 28.7978 43.2878 28.4068C46.3427 28.0472 40.4363 27.8731 39.1394 27.6992C32.8947 26.8628 27.2618 25.8126 20.9996 24.8774C18.9031 24.5646 16.0688 24.312 13.8517 23.9748C13.3348 23.8969 13.7538 23.7662 13.2994 23.6937C12.846 23.6228 13.3175 23.911 12.8012 23.822C9.58918 23.2642 7.12406 22.4837 4.09607 22.5417C3.96326 22.4477 3.97638 22.391 3.75034 22.2757C3.65454 22.279 3.55564 22.2803 3.45395 22.2796C1.69309 22.0433 0.351261 20.4202 0.323368 18.6437C-0.0366782 16.1342 0.531163 11.7191 0.61176 10.0186C0.731511 7.47611 0.481847 6.67341 0.488774 4.99997C0.457586 3.01396 2.01401 1.51993 4.00001 1.48874C4.14737 1.48935 4.30152 1.49195 4.46418 1.49697C7.12177 1.57976 11.1119 2.17966 9.32993 1.18937C11.1531 1.15834 12.9082 1.14976 14.7495 1.24186C14.9545 1.2523 14.8133 1.504 14.8953 1.50918C15.4148 1.54531 15.5841 1.31995 15.935 1.3096C16.8866 1.28177 15.3337 1.55161 16.6905 1.47622C17.4062 1.43586 17.8126 1.2393 19.7999 1.23515C31.78 1.21341 44.7859 1.28381 57.0668 1.31693C57.9102 1.319 57.355 1.07559 58.4126 1.09111C62.0868 1.14498 68.6635 1.55462 71.8317 1.49881C74.9997 1.44293 74.285 1.08697 76.2675 0.93792C76.6504 0.908944 76.3364 1.11181 76.6829 1.11491C79.0123 1.13356 81.7894 1.44998 83.6767 1.49759C84.9247 1.52949 84.8248 1.21034 85.6905 1.18754C86.9806 1.15443 88.3084 1.47686 88.9967 1.48721C92.2327 1.53268 94.4576 1.27297 97.4796 1.40543C97.3613 1.33519 97.2833 1.27017 97.1832 1.20097C100.761 1.21236 104.335 1.22377 107.913 1.23515C107.744 1.17099 107.581 1.10627 107.413 1.04107C111.611 1.07628 111.132 1.77172 110.763 0.303192C111.068 0.251457 111.392 0.19149 111.683 0.143898C111.565 0.900375 114.104 1.45398 117.336 1.64651C117.573 1.661 119.164 0.923409 118.99 1.79482C119.405 1.58163 119.652 1.43467 120.003 1.24736C120.687 1.51118 121.38 1.77189 122.063 2.03467C122.433 1.99536 122.807 1.95742 123.176 1.9181C123.231 1.74734 123.189 1.57004 123.307 1.40238C125.021 1.37651 128.536 1.58761 129.89 1.56595C133.255 1.5111 136.68 1.04941 139.296 1.54825C140.571 1.49739 139.305 1.16223 141.201 1.20464C141.415 1.37432 141.617 1.53696 141.84 1.71181C143.389 0.953658 143.713 1.41487 145.836 1.57327C147.272 1.6809 148.212 1.4956 149.579 1.53177C149.926 1.54108 149.877 1.76361 150.114 1.75637C150.908 1.73342 153.173 1.42714 153.733 1.41886C158.811 1.33816 163.174 1.37251 168.01 1.45426C168.53 1.46254 167.856 1.24293 168.394 1.25224C169.259 1.26687 168.75 1.60433 169.251 1.62088C170.65 1.66516 170.66 1.30932 172.611 1.2907C179.034 1.22968 186.418 1.49699 193.128 1.52079C193.338 1.52079 193.325 1.3123 193.553 1.31023C195.039 1.30003 196.543 1.58186 197.892 1.57877C200.13 1.57463 201.812 1.28173 204.023 1.28276C208.345 1.2838 212.206 1.43377 216.651 1.44206C220.288 1.4493 223.448 1.4215 227.436 1.42253C229.859 1.42311 232.288 1.41081 234.722 1.39016C236.764 1.3581 238.3 2.95821 238.332 4.99999C238.379 10.5839 238.471 16.1956 238.551 21.8159L234.722 17.9865C244.276 17.8491 253.855 17.7419 263.364 17.9327C263.81 17.942 263.629 18.1262 263.765 18.1182C265.059 18.0385 265.175 17.79 265.635 18.3105C267.285 18.2079 267.805 17.8169 269.797 17.8448C270.858 17.8594 270.066 18.4655 271.861 18.153C273.483 17.8705 271.694 17.5384 276.516 17.8778C276.643 17.8871 277.272 18.2565 278.275 18.1603C279.282 18.0651 278.116 17.8006 280.541 17.7209C282.244 17.6652 284.082 17.6547 286 17.6648C288.348 17.6279 290.114 19.468 290.151 21.8159C290.128 26.3091 289.991 31.2369 290.06 35.8759C290.066 36.2907 290.264 40.2858 290.355 41.0744C290.532 42.6006 290.806 42.2818 290.874 44.264C290.926 45.7957 290.615 47.0595 290.677 48.8601C290.684 49.0699 291.004 49.4212 290.962 50.7744ZM5.25141 12.8C5.56525 13.1739 6.72046 13.8485 6.3689 16.1087C6.33579 16.3229 5.54136 15.1663 5.41498 16.4147C5.33115 15.1931 5.30399 14.0034 5.25019 12.8C5.25058 12.8 5.25101 12.8 5.25141 12.8ZM283.596 60.5715C283.654 58.8802 283.711 57.1832 283.769 55.492C283.909 56.6589 284.048 57.8276 284.189 58.9901C283.991 59.5187 283.793 60.0428 283.596 60.5715ZM131.039 6.8556C131.041 6.8556 131.043 6.8556 131.044 6.8556C129.266 7.00463 127.488 7.15394 125.71 7.30297C125.897 7.19327 126.084 7.0831 126.271 6.97339C127.675 6.8006 129.079 6.62803 130.478 6.45523C130.665 6.5887 130.853 6.72213 131.039 6.8556ZM145.085 5.69416C146.22 5.82456 145.943 6.04448 146.567 6.25871C146.567 6.2583 146.567 6.2579 146.567 6.25749C146.732 6.31326 147.5 6.36206 147.796 6.3704C147.687 6.23275 147.546 6.09687 147.427 5.96026C150.076 5.62702 155.255 6.81122 148.549 7.28832C148.65 7.11449 148.745 6.94155 148.846 6.76772C145.513 6.81635 141.799 6.4393 145.085 5.69416ZM24.9786 20.0229C27.8762 19.8825 28.796 19.8993 32.1506 20.7976C31.6446 20.8848 31.1386 20.9719 30.6325 21.059C30.0934 20.8117 29.5584 20.5661 29.0193 20.3187C29.0177 20.3185 29.0161 20.3182 29.0145 20.318C28.8761 20.472 28.7374 20.6262 28.6035 20.7809C27.3969 20.5285 26.1852 20.2753 24.9786 20.0229ZM237.157 22.9214C237.95 24.0583 237.721 23.3975 235.457 23.6538C234.673 23.7428 235.437 23.9417 234.949 23.9749C234.871 23.9802 234.796 23.9847 234.722 23.9885C233.493 23.9692 232.53 23.0447 232.549 21.8159C232.427 19.3973 233.156 19.2158 233.54 19.7863C233.552 20.4615 233.564 21.1398 233.576 21.8159C233.565 22.4644 234.074 22.9522 234.722 22.9624C235.539 22.9485 236.352 22.935 237.153 22.9214C237.154 22.9214 237.156 22.9214 237.157 22.9214ZM285.131 41.3149C285.131 41.3166 285.131 41.3182 285.131 41.3198C284.853 41.3882 284.779 40.3263 284.516 41.5239C284.517 40.6128 284.519 39.7017 284.52 38.7861C284.546 39.0547 284.571 39.3289 284.597 39.5975C284.692 39.3604 284.788 39.1227 284.883 38.8857C284.565 38.5621 284.75 38.2614 284.857 37.3043C284.516 37.5687 284.175 37.8318 283.835 38.0962C283.936 36.9841 284.038 35.8681 284.139 34.756C284.225 34.7423 284.311 34.7284 284.397 34.7147C284.287 34.2955 284.177 33.8805 284.067 33.4612C284.169 33.3473 284.271 33.2375 284.373 33.1236C284.296 32.6177 284.218 32.1111 284.139 31.6053C284.388 31.4513 284.495 32.5662 284.432 30.5899C284.686 31.1961 284.94 31.801 285.195 32.4118C285.174 35.3794 285.152 38.3474 285.131 41.3149ZM233.371 6.45524C233.941 6.44694 234.384 6.44555 234.722 6.45192L233.27 4.99999C233.24 6.60115 233.036 5.86481 232.572 5.2401C232.607 5.16017 232.642 5.08012 232.677 4.99999L234.722 7.04528C234.272 6.84859 233.82 6.65195 233.371 6.45524ZM64.9813 5.95415C64.0331 6.33811 63.0809 6.71823 62.1099 7.08874C60.1771 7.30297 58.2435 6.60314 59.6977 6.32889C61.4482 5.99982 63.2764 6.36811 64.9813 5.95415ZM20.9587 6.12504C23.3235 6.30308 21.0985 6.75931 20.5652 7.02526C19.911 6.59784 18.9987 6.63554 17.5335 6.58583C18.9093 6.55812 20.5676 6.09481 20.9587 6.12382C20.9587 6.12423 20.9587 6.12463 20.9587 6.12504ZM103.038 6.38565C103.985 6.37417 104.928 6.26694 105.775 6.39725C105.52 6.76439 103.825 6.43037 105.037 6.97461C104.431 6.98392 103.824 6.99295 103.222 7.0033C103.605 6.7778 103.09 6.60928 103.04 6.38687C103.039 6.38647 103.039 6.38606 103.038 6.38565ZM201.703 6.88795C199.844 6.45329 199.491 6.63928 197.617 6.94044C197.353 6.58654 199.587 5.99372 200.987 5.86322C201.224 6.20472 201.462 6.54646 201.703 6.88795ZM230.298 50.9047C229.79 51.2844 226.523 50.8533 224.924 50.4783C225.126 50.441 225.33 50.4031 225.533 50.3648C227.119 50.5445 228.712 50.725 230.298 50.9047ZM16.8363 6.55531C17.0815 6.56853 17.314 6.57838 17.5335 6.58583C17.2895 6.59074 17.0539 6.58306 16.8363 6.55531ZM75.6809 29.8163C74.8472 30.1211 77.1165 30.6064 74.3601 30.024C74.36 30.0244 74.3599 30.0248 74.3599 30.0252C72.5369 29.6405 72.1352 29.5505 70.4361 29.2619C71.1307 28.8137 74.6167 29.1398 69.8687 28.3126C69.806 28.3027 69.8827 28.643 69.1281 28.4847C68.8951 28.4357 68.1827 28.0589 67.0504 27.8103C66.6844 27.7303 63.9188 27.2317 67.7061 27.7953C67.65 27.4017 67.9106 27.051 67.9565 26.6843C69.4505 26.8001 70.4757 27.7082 72.042 27.9249C74.3679 28.245 75.6613 27.6766 75.9607 28.7221C73.9725 28.6693 70.6194 28.1716 70.2706 27.5176C68.3831 27.2268 67.7683 27.6274 69.2554 28.0946C75.8241 28.7713 70.9387 29.0791 76.7081 29.5521C76.7962 29.4262 77.053 29.315 77.0364 29.1817C78.7079 29.9224 75.9785 29.7071 75.6809 29.8163ZM62.197 26.7272C63.3672 26.6088 64.534 26.4877 65.6998 26.3676C65.6294 26.8363 64.9473 27.164 63.1315 27.1613C62.8217 27.0165 62.507 26.871 62.197 26.7272ZM157.02 40.8423C157.22 40.6118 157.688 40.4433 158.04 40.2481C158.35 40.5145 166.434 41.9394 162.274 41.5302C161.67 41.4708 158.08 40.471 157.02 40.8423ZM214.617 6.49979C213.651 6.32696 212.688 6.15385 211.726 5.98102C213.207 5.87138 214.689 5.75888 216.17 5.64717C215.651 5.93131 215.136 6.21565 214.617 6.49979ZM49.2496 5.5019C49.6578 5.51158 48.302 5.86597 49.9103 5.81011C48.7114 6.03676 47.5887 6.2286 46.4171 6.4418C46.0661 6.27414 45.7114 6.10716 45.3604 5.9395C45.0868 6.04714 44.8079 6.15412 44.5344 6.26175C44.6986 6.01751 44.8446 5.77897 45.0178 5.53059C46.9917 6.05426 47.4443 5.4605 49.2496 5.5019ZM107.942 4.54676C108.297 5.07757 105.439 5.39323 108.251 5.4781C107.717 5.82685 106.86 6.00977 105.214 6.04082C104.95 5.90745 104.686 5.77505 104.422 5.64167C104.386 5.99857 103.962 6.13122 103.038 6.38565C103.037 6.38525 103.036 6.38484 103.035 6.38443C100.533 6.41027 100.683 6.29127 100.081 5.70453C102.73 6.03571 102.809 5.49963 104.614 5.18088C105.854 4.96169 107.473 5.06095 107.942 4.54676ZM148.373 39.5498C150.291 39.3849 148.691 38.7219 151.907 39.6862C151.678 39.767 151.448 39.8466 151.22 39.9274C150.271 39.8026 149.322 39.6766 148.373 39.5498ZM117.186 6.36612C116.971 5.54445 115.208 4.90484 114.907 6.24162C116.625 6.5138 115.786 5.75659 117.186 6.36612ZM21.7652 4.83848C25.0699 4.87682 24.4451 5.80422 23.0867 6.26785C22.877 6.09916 22.6675 5.93016 22.4624 5.76251C21.8834 5.83909 21.3044 5.91583 20.7255 5.99138C21.0719 5.60743 21.4187 5.22243 21.7652 4.83848ZM175.446 5.46346C172.92 6.05026 178.172 5.78981 176.408 6.15618C174.999 6.44903 173.143 5.85776 173.845 5.48726C174.333 5.47692 174.876 5.46967 175.441 5.46346C175.443 5.46346 175.444 5.46346 175.446 5.46346ZM160.832 5.6313C161.246 6.25826 160.649 6.07551 162.644 5.9627C163.214 5.93062 167.742 6.16609 165.841 5.64656C164.223 5.64656 162.513 5.63751 160.832 5.6313ZM10.8277 18.9049C10.8172 19.1794 7.28016 19.2544 6.85987 19.0397C6.85981 19.0401 6.85974 19.0405 6.85968 19.0409C5.72583 18.4572 9.37149 18.946 7.8772 18.1544C11.2974 19.1672 12.5199 18.1435 12.0429 19.6626C9.97464 19.4217 10.9971 19.2474 10.8277 18.9049ZM272.887 58.6007C272.889 58.6009 272.891 58.6012 272.892 58.6014C272.663 58.5539 270.814 57.8711 271.067 57.7687C273.343 58.231 272.895 58.4304 275.096 58.3226C275.192 58.4782 275.272 58.6272 275.378 58.7852C274.518 58.7398 274.023 58.8351 272.887 58.6007ZM165.711 42.7043C164.857 42.6483 163.363 42.1246 162.4 41.9978C165.625 41.3331 169.12 42.9295 165.711 42.7043ZM273.535 22.7243C273.533 22.7247 273.53 22.7251 273.528 22.7255C273.529 22.7249 273.53 22.7243 273.53 22.7237C273.532 22.7239 273.534 22.7241 273.535 22.7243ZM100.487 32.2191C100.584 32.3084 100.636 32.381 100.65 32.4399C100.649 32.4452 100.648 32.4504 100.648 32.4556C100.599 32.3785 100.547 32.3 100.487 32.2191ZM18.006 19.8996C19.3855 20.4918 14.5109 20.3719 12.9851 19.9966C13.1191 19.841 13.1593 19.6877 13.4411 19.5282C14.6231 20.1608 17.7766 19.8003 18.006 19.8996ZM86.6306 5.69843C82.806 5.68808 87.7834 4.18463 87.9886 5.38412C87.9809 5.40735 86.7294 5.69638 86.6306 5.69843ZM6.48044 5.68072C7.45487 5.22554 5.49662 5.10467 8.6279 5.18331C8.81012 5.30121 8.99225 5.41939 9.17447 5.5373C8.27668 5.58489 7.37824 5.63313 6.48044 5.68072ZM61.5755 3.72465C56.7618 3.97819 52.158 4.42549 55.2935 5.68073C55.6578 5.64041 56.0272 5.60142 56.3915 5.5611C56.4462 4.94871 57.7906 5.283 59.7584 5.30294C60.0389 5.05981 61.1302 5.0036 61.335 4.79698C61.731 4.39761 60.4771 4.11682 61.5755 3.72465ZM247.987 21.5372C247.909 21.6418 247.834 21.7468 247.756 21.8503C246.995 21.9683 246.232 22.0857 245.47 22.2037C245.593 22.0031 245.716 21.8025 245.839 21.6019C246.555 21.5802 247.267 21.5584 247.982 21.5366C247.984 21.5368 247.985 21.537 247.987 21.5372ZM57.3662 27.3082C57.9695 26.2354 56.4269 26.218 53.2753 26.3328C54.6371 26.6576 56.0045 26.9833 57.3662 27.3082ZM138.927 4.19094C139.027 4.51779 139.126 4.84365 139.231 5.1705C140.877 4.83002 140.571 4.4557 139.782 4.0231C139.495 4.07893 139.214 4.13511 138.927 4.19094ZM162.632 4.05179C161.949 3.9836 162.297 4.24751 162.226 4.24221C160.498 4.10353 160.255 3.98247 158.135 4.18118C157.875 4.2505 157.62 4.3234 157.36 4.39479C158.34 5.07969 159.052 4.7064 161.126 5.10886C160.752 4.87394 160.379 4.63869 160.006 4.40272C161.159 4.45239 162.307 4.50137 163.46 4.55103C163.597 4.47859 163.734 4.40681 163.871 4.33437C163.46 4.24125 163.037 4.13662 162.632 4.05179ZM256.79 21.8345C257.912 21.8614 259.038 21.8893 260.16 21.9162C260.201 21.7476 260.24 21.5778 260.281 21.4091C259.119 21.5508 257.953 21.6927 256.79 21.8345ZM80.213 30.2093C80.3098 30.1634 80.4045 30.1167 80.4898 30.0676C80.4713 30.1403 80.3666 30.1834 80.213 30.2093ZM275.676 59.9551C276.916 60.2606 278.74 60.4562 280.115 60.6879C280.07 60.2531 276.546 59.8423 275.353 59.4037C275.144 59.4491 275.152 59.8262 275.676 59.9551ZM26.337 4.87571C26.6561 4.66461 26.9748 4.45451 27.2893 4.24342C28.0597 4.26619 28.8318 4.29023 29.6068 4.313C29.6296 4.14016 29.652 3.96583 29.6748 3.793C26.261 4.01754 27.0481 3.51916 25.358 3.02766C25.6862 3.64332 26.0089 4.25901 26.337 4.87571ZM287.078 28.287C286.961 25.8208 286.742 24.946 286.224 26.3363C286.343 27.2067 286.462 28.0822 286.581 28.9526C286.746 28.7293 286.912 28.5057 287.078 28.287ZM124.571 37.2662C126.641 37.3812 126.571 38.0744 128.624 37.9897C127.575 37.7024 126.526 37.4137 125.481 37.1271C125.18 37.1736 124.872 37.2197 124.571 37.2662ZM24.1933 24.1233C25.0183 24.492 26.7988 23.5958 29.0931 24.7993C29.7076 24.6353 30.1052 24.4501 30.6378 24.279C30.8862 24.5894 31.1733 24.9092 31.4085 25.2156C31.4101 25.2158 31.4117 25.216 31.4133 25.2163C33.6223 25.4559 32.2491 24.9071 32.3413 24.6311C32.3822 24.5171 33.9821 24.9582 33.5114 24.626C32.6982 24.0549 29.3756 23.8141 29.447 23.2775C30.5747 23.6257 32.8502 23.818 32.2373 23.3608C31.5659 22.8592 29.3435 23.1971 28.04 22.6687C29.8495 23.8152 25.8864 22.9498 25.5298 22.2244C23.1054 22.3762 25.2332 22.9063 27.644 23.2443C26.0988 23.5271 28.3028 23.5799 28.5962 24.052C27.0429 24.077 21.874 23.0854 24.1933 24.1233ZM81.624 3.51836C79.9825 3.55119 77.4181 3.26016 76.2942 3.68986C75.6397 3.94021 78.2101 4.13407 76.4376 4.52722C78.0369 4.48889 78.4018 4.33531 78.1283 3.99075C78.4928 3.94938 78.8619 3.90902 79.2263 3.86868C79.3949 3.93591 79.5679 4.00225 79.7365 4.06948C79.9279 3.92771 80.1204 3.78708 80.3073 3.64531C80.6945 3.67323 81.0862 3.70119 81.4734 3.73014C81.5189 3.65886 81.5965 3.59682 81.624 3.51836ZM183.173 46.0459C182.722 45.9823 182.275 45.9193 181.824 45.8568C181.861 45.9472 181.907 46.0425 181.951 46.1363C181.982 46.2099 182.013 46.2834 182.043 46.3569C181.818 46.0769 179.731 45.3542 178.788 45.4755C178.314 45.5363 179.28 46.1496 177.34 45.9401C178.741 46.1263 180.045 46.2582 181.407 46.4231C181.265 46.5409 181.127 46.6609 180.985 46.7788C180.986 46.7791 180.987 46.7794 180.987 46.7797C181.433 46.8781 181.885 46.9787 182.331 47.0771C182.613 46.7333 182.891 46.3897 183.173 46.0459ZM137.591 3.54461C136.037 3.81473 135.516 3.955 136.25 4.39174C136.252 4.39194 136.253 4.39214 136.255 4.39235C136.834 4.19885 137.413 4.00543 137.992 3.81193C137.86 3.72293 137.728 3.63361 137.591 3.54461ZM93.2404 33.6236C96.755 32.4739 89.2438 32.3742 90.5612 33.1435C90.6205 33.1785 92.961 33.3964 93.2404 33.6236ZM21.1579 4.32825C22.0651 4.3148 22.9742 4.30265 23.8859 4.28919C23.6762 4.08531 23.4616 3.88214 23.2519 3.67826C22.5544 3.89456 21.8554 4.11195 21.1579 4.32825ZM281.734 19.9852C280.779 19.5298 278.328 19.3648 277.13 19.8601C277.76 19.918 278.389 19.9761 279.018 20.034C277.829 20.0909 276.653 20.1536 275.454 20.2074C275.39 20.8418 276.772 20.4737 278.85 20.6486C279.172 20.6768 281.23 21.4643 281.94 20.8708C282.083 20.7488 279.894 20.6658 281.416 20.3111C280.75 20.2832 280.176 20.2894 279.548 20.2739C279.502 20.1228 279.457 19.9715 279.407 19.8204C280.184 19.8751 280.956 19.9305 281.734 19.9852ZM72.0674 3.5678C69.8127 3.53279 69.5342 3.78627 69.0648 4.23427C70.1133 4.18356 71.1622 4.13362 72.2107 4.08291C72.1607 3.91156 72.1173 3.74017 72.0674 3.5678ZM261.581 19.8399C260.347 19.7667 260.875 20.1313 260.378 20.2006C258.5 20.4614 257.22 20.2008 255.364 20.3642C255.488 20.2938 255.601 20.2281 255.719 20.1597C255.718 20.1597 255.716 20.1597 255.714 20.1597C246.93 19.8524 251.544 20.6794 256.8 20.5449C256.923 20.6804 257.041 20.8162 257.165 20.9507C259.517 20.7137 261.686 20.4857 261.581 19.8399ZM64.1954 29.3189C64.282 29.4177 63.359 29.8244 64.9786 29.8123C66.3485 29.2218 64.2355 29.2997 63.7661 28.923C64.2055 28.9126 64.6545 28.9057 65.0894 28.8946C62.5619 28.29 62.1604 28.419 63.0081 29.1282C63.069 29.1764 64.1086 29.2203 64.1954 29.3189ZM80.9658 32.23C81.4898 31.1356 78.1808 31.1662 78.2445 31.5399C78.6885 31.6211 79.0644 31.4789 79.5247 31.6359C79.9896 31.7936 80.0714 32.0799 80.9658 32.23ZM5.84641 3.27911C5.75068 3.27394 4.78892 2.78634 4.88443 3.16803C6.07422 4.07152 8.47156 3.48997 8.05216 3.17535C7.25925 3.19092 6.7305 3.32649 5.84641 3.27789C5.84641 3.2783 5.84641 3.2787 5.84641 3.27911ZM288.104 32.4215C288.137 32.376 288.332 29.9765 288.151 29.6668C287.946 29.4116 287.726 29.2849 287.514 29.0935C287.711 30.4155 287.561 33.0913 288.104 32.4167C288.104 32.4183 288.104 32.4199 288.104 32.4215Z" fill="#0057D4"/>
</svg>
