<svg width="276" height="460" viewBox="0 0 276 460" fill="none" xmlns="http://www.w3.org/2000/svg" preserveAspectRatio="none">
<path d="M222.202 39.4411C219.764 37.9067 227.099 43.9605 221.924 40.2952C222.886 41.1865 223.836 42.1043 224.761 43.0323C225.174 43.0772 225.593 43.1309 226.007 43.182C224.777 41.9051 223.509 40.6577 222.203 39.4401C222.202 39.4404 222.202 39.4407 222.202 39.4411ZM222.317 35.4645C223.187 37.0693 227.017 40.6666 222.281 37.4555C222.091 36.978 221.89 36.4956 221.692 36.0193C220.032 34.9118 218.338 33.8513 216.624 32.845C216.104 32.3544 215.578 31.8683 215.045 31.3867C214.055 31.2176 213.078 31.0729 212.096 30.9372C212.796 31.3219 213.498 31.717 214.192 32.1198C216.582 34.197 218.778 35.9237 221.991 38.7103C221.641 38.5456 221.29 38.3811 220.939 38.2217C222.707 39.4632 224.436 40.7621 226.119 42.1151C224.876 40.709 223.431 39.1783 222.196 37.938C224.782 39.2055 228.156 42.8725 229.812 44.8236C232.079 47.4807 231.765 46.6969 233.387 48.7236C233.561 48.9445 233.544 49.1069 233.681 49.3824C233.746 49.5136 233.844 49.6688 234.013 49.8687C236.72 52.9586 241.446 59.4526 239.175 55.2942C237.484 53.0411 235.876 50.9281 234.233 48.9093C231.893 46.0353 229.463 43.3173 226.518 40.709C228.259 41.4515 225.907 38.7815 222.317 35.4645ZM267.834 149.967C268.002 147.865 267.495 143.626 266.957 140.763C266.956 140.76 266.956 140.756 266.956 140.753C266.839 140.126 266.255 138.75 266.495 140.802C266.881 144.178 267.693 145.712 267.388 147.538C267.542 148.333 267.685 149.144 267.834 149.967ZM268.287 157.311C268.567 159.391 269.033 158.407 268.74 155.813C268.74 155.812 268.74 155.812 268.741 155.812C268.614 154.733 268.352 156.882 268.505 152.979C268.131 152.201 267.785 151.44 267.417 150.682C267.484 151.63 267.538 152.5 267.601 153.504C268.08 152.804 268.005 155.237 268.287 157.311ZM240.94 58.2848C240.728 58.8185 239.989 57.6976 238.378 56.0469C239.662 57.7758 240.89 59.5379 242.065 61.3309C241.709 60.3176 241.331 59.2971 240.94 58.2848ZM203.24 25.023C203.237 25.0214 203.234 25.0199 203.231 25.0184C202.638 24.623 202.03 24.2266 201.441 23.8486C200.986 23.8093 200.537 23.774 200.082 23.7396C197.896 22.4947 195.66 21.3155 193.401 20.2066C193.493 20.7874 197.661 22.4852 199.719 23.9138C203.08 25.3836 204.764 26.0103 205.187 25.7356C204.541 25.4925 203.897 25.2587 203.24 25.023ZM51.7683 454.869C50.9099 454.726 50.0624 454.583 49.2041 454.44C50.3453 454.375 51.4774 454.325 52.6281 454.25C55.6375 454.871 55.9202 454.321 59.8632 454.36C71.9492 454.478 68.7426 455.442 79.6579 454.029C70.8943 454.097 74.2621 453.433 68.9787 452.922C67.8842 453.311 73.1196 454.189 69.572 454.371C63.459 453.959 57.5806 453.575 50.7979 453.309C50.996 453.242 51.1931 453.175 51.3912 453.107C52.4668 453.15 53.5334 453.192 54.609 453.235C53.4485 453.055 52.3142 452.876 51.1348 452.694C52.6253 453.103 48.8264 452.874 49.3348 453.344C49.5612 453.553 51.2402 453.843 52.2309 454.043C49.6745 454.152 47.0525 454.251 44.4678 454.357C45.8071 454.523 47.1452 454.69 48.475 454.856C49.5689 454.862 50.6544 454.865 51.7482 454.871C51.7549 454.87 51.7616 454.869 51.7683 454.869ZM56.4611 8.30468C53.2154 7.81826 47.3174 7.73779 44.2132 8.27905C48.2985 8.28732 52.3757 8.29641 56.4611 8.30468ZM205.573 25.537C205.215 25.4339 204.871 25.3397 204.515 25.242C205.842 26.1309 207.157 27.0509 208.439 27.992C208.823 27.9424 209.213 27.8982 209.606 27.8583C208.277 27.0553 206.935 26.2845 205.573 25.537ZM261.936 106.841C261.668 105.702 261.633 105.591 261.234 104.186C261.235 104.188 261.235 104.189 261.236 104.191C261.095 103.636 259.659 98.9959 259.623 99.5744C260.285 101.887 260.945 104.347 261.539 106.751C261.674 106.793 261.795 106.78 261.936 106.841ZM253.001 80.0483C253 80.0454 252.998 80.0426 252.996 80.0397C252.633 79.26 252.242 78.5103 251.866 77.6978C252.918 80.7857 253.58 81.0379 254.543 83.8325C255.485 86.6312 255.828 88.4166 257.326 90.562C257.123 89.6454 256.929 88.64 256.717 87.6977C254.996 83.8593 254.815 82.7231 253.763 79.5129C253.509 79.6926 253.256 79.8692 253.001 80.0483ZM105.577 453.429C106.388 453.781 107.293 453.436 107.387 453.431C107.385 453.431 107.383 453.431 107.382 453.43C114.568 453.756 106.446 453.235 113.229 453.181C112.22 453.093 111.227 453 110.227 452.911C108.681 453.08 107.086 453.273 105.577 453.429ZM266.866 329.016C266.773 328.937 266.682 328.845 266.589 328.766C266.059 332.767 265.495 333.739 265.315 337.088C265.872 334.424 266.391 331.715 266.867 329.016C266.867 329.016 266.866 329.016 266.866 329.016ZM266.645 126.665C266.141 122.218 265.626 118.887 264.459 114.748C264.458 114.745 264.457 114.741 264.456 114.738C264.388 114.501 264.419 115.716 264.301 115.41C264.156 114.54 264.012 113.617 263.86 112.734C263.667 112.651 263.474 112.574 263.282 112.492C263.869 114.958 264.41 117.404 264.92 119.902C264.754 119.557 264.585 119.194 264.417 118.844C264.764 120.959 265.086 123.089 265.378 125.208C265.537 124.431 265.691 123.648 265.843 122.866C266.123 124.147 266.384 125.39 266.645 126.665ZM248.538 393.418C248.781 392.738 247.986 393.807 248.43 392.79C248.878 391.773 249.988 390.076 249.49 390.351C248.776 391.643 247.995 392.996 247.22 394.285C249.106 389.794 251.591 385.647 250.991 385.272C249.187 389.54 247.32 392.895 244.872 396.638C245.455 396.782 248.116 393.098 247.16 395.826C247.624 395.035 248.101 394.207 248.532 393.426C248.534 393.423 248.536 393.421 248.538 393.418ZM143.786 1.39696C140.922 1.18151 134.439 0.57378 130.824 0.808644C129.943 0.856831 126.968 1.83178 126.984 1.972C127.065 2.43184 130.646 2.56701 126.804 2.79247C128.092 2.81646 129.348 2.8629 130.617 2.90953C130.38 3.21193 130.145 3.51387 129.918 3.81612C128.375 3.72667 126.81 3.65017 125.274 3.58614C125.198 3.68776 125.121 3.78966 125.044 3.89138C130.592 3.976 127.321 4.31984 130.184 4.75658C127.522 4.8662 124.875 5.015 122.218 5.20119C123.752 5.17766 125.545 5.17708 126.876 5.17299C127.048 5.69689 123.866 5.53335 123.31 5.63357C120.231 6.10457 135.924 6.12062 137.143 7.07799C134.653 7.02156 132.01 6.99572 129.475 7.01314C130.204 7.12658 130.938 7.24331 131.66 7.36263C137.462 7.03673 143.962 7.27471 150.721 7.73705C151.328 7.82997 151.934 7.92607 152.526 8.02159C152.32 8.23436 152.123 8.44771 151.918 8.66103C152.829 8.80168 153.727 8.94646 154.645 9.10066C152.056 7.97689 155.787 8.429 160.353 8.70696C157.99 8.02953 155.029 7.78594 155.295 7.30818C163.486 8.81825 173.165 10.2696 180.825 13.0473C182.702 13.7401 182.532 14.323 186.994 15.7858C186.867 15.6647 186.884 15.5322 186.817 15.4082C194.386 18.4424 198.84 20.5506 206.418 24.2839C205.874 24.2536 205.343 24.2352 204.804 24.2149C203.289 23.2686 201.748 22.3528 200.193 21.4761C198.915 21.3191 200.503 22.181 195.639 20.0151C191.636 18.3167 194.084 19.1685 193.032 18.6052C191.599 17.8541 190.172 17.6363 188.607 16.8757C187.394 16.299 188.883 16.4635 185.535 15.3982C186.744 16.2473 187.941 17.1298 189.108 18.0158C189.937 18.224 190.757 18.4353 191.577 18.6564C190.824 18.2394 190.075 17.8345 189.305 17.4288C192.077 18.6764 194.632 19.9266 197.388 21.4032C196.714 20.4331 199.557 21.9667 201.09 22.8175C203.468 24.1342 201.574 22.7131 203.139 23.5898C204.697 24.4804 206.176 25.7848 208.988 27.3404C207.635 26.2252 209.787 27.2208 209.522 26.776C209.258 26.3191 206.315 24.5496 209.305 25.978C214.622 29.464 208.272 26.6611 211.803 29.0457C215.966 31.9623 217.81 31.5155 216.757 30.334C215.924 29.4022 212.392 27.1387 211.475 26.2935C218.09 29.9287 217.507 30.9009 218.452 31.7624C221.75 35.088 220.391 31.7561 224.269 35.7548C224.402 35.4363 224.528 35.1554 224.65 34.8462C225.348 35.5121 225.781 35.9873 226.619 36.7902C223.621 35.033 225.76 36.8343 226.817 37.7907C228.484 39.3023 225.697 37.2041 226.084 37.6664C227.144 38.8864 229.04 40.5531 227.719 39.6971C228.316 40.0748 228.953 40.4998 229.557 40.9063C231.36 42.846 234.479 48.2526 230.713 43.8481C230.723 44.588 232.186 45.7682 233.216 46.8042C234.107 47.6997 234.027 47.9699 234.561 48.6264C234.644 48.7295 234.742 48.8415 234.86 48.9675C238.3 52.7288 236.611 49.8188 236.418 48.9046C240.421 54.403 236.302 49.2154 241.86 57.2212C242.103 58.1875 239.234 54.7432 241.193 57.9084C242.075 58.1268 244.066 60.1206 246.974 64.6816C247.116 65.2088 247.252 65.7333 247.384 66.2553C249.296 68.5498 249.161 66.9349 251.014 72.1353C250.835 68.9295 251.073 71.0613 253.635 75.3035C254.149 76.1639 253.428 73.9597 254.137 75.1663C254.457 75.7133 254.911 77.2038 255.668 78.57C256.04 79.2208 257.874 82.3169 258.516 84.709C257.287 83.2494 258.442 87.7901 256.536 84.2526C259.267 91.0565 260.498 96.0761 258.661 88C259.475 89.7104 260.247 91.3961 261.007 93.1389C261.263 94.4258 261.507 95.7176 261.742 97.027C262.285 97.079 262.414 96.8119 263.694 101.816C263.227 99.6124 262.738 97.4635 262.191 95.2632C262.269 95.16 262.28 94.8292 262.399 94.871C263.07 97.5666 264.998 105.058 265.271 106.924C265.576 108.773 264.69 105.276 264.685 105.833C264.671 110.435 265.366 109.916 265.867 113.098C266.153 114.971 265.087 110.586 265.252 111.585C265.879 115.284 266.783 116.861 267.393 120.133C266.858 119.046 266.306 117.939 265.756 116.882C266.449 120.302 267.105 124.098 267.488 127.307C267.638 128.572 267.249 127.658 267.264 127.866C267.343 128.895 267.783 133.033 267.833 133.482C268.249 136.749 268.605 136.852 268.977 140.034C268.87 138.775 268.76 137.588 268.638 136.345C269.121 135.717 269.601 135.077 270.082 134.446C270.522 137.607 270.909 140.767 271.252 143.95C270.847 141.645 270.417 139.332 269.96 137.036C269.941 140.706 269.852 144.359 269.707 148.035C270.136 149.881 270.552 151.749 270.952 153.627C271.204 158.748 270.013 157.808 271.117 160.173C271.108 161.682 271.091 163.228 271.065 164.732C271.197 164.512 271.328 164.293 271.46 164.073C271.444 165.888 271.417 167.726 271.376 169.564C270.833 167.645 270.252 165.776 269.699 163.917C269.725 167.479 270.134 167.552 270.257 168.082C270.578 169.518 270.264 172.304 270.536 173.443C270.633 173.821 270.842 170.296 271.184 171.502C271.255 171.735 272.507 176.439 272.236 179.47C272.024 179.413 271.763 179.18 271.532 179.058C271.517 179.567 271.521 180.046 271.54 180.493C271.67 183.598 272.552 185.122 272.823 184.651C272.606 186.812 272.588 189.97 272.248 190.413C272.24 191.517 272.232 192.612 272.224 193.716C273.05 192.566 272.899 197.17 272.188 197.472C272.171 195.576 272.152 193.677 272.135 191.781C271.263 193.215 270.737 187.452 271.544 199.443C271.998 201.736 271.483 195.368 271.822 197.236C272.02 200.481 271.854 203.528 272.17 206.613C272.564 210.452 272.944 205.729 272.442 214.673C271.184 194.944 271.592 217.378 271.202 226.644C272.444 229.191 272.837 237.016 272.468 247.791C272.122 246.668 272.3 243.278 272.187 241.325C272.073 239.372 271.868 241.485 271.706 239.053C271.545 236.619 271.325 231.45 271.081 228.987C270.886 231.073 270.423 241.372 270.979 234.563C271.321 239.646 271.673 242.034 271.737 248.334C271.198 250.221 270.862 250.081 270.847 256.223C271.596 252.591 272.117 259.569 272.891 258.033C272.711 253.678 271.958 256.112 271.598 253.593C271.562 253.335 271.751 249.277 271.737 248.334C272.413 252.429 272.665 253.845 273.469 251.326C273.398 254.222 273.499 256.024 273.115 256.288C273.282 256.892 273.449 257.499 273.615 258.093C273.611 259.036 273.596 259.884 273.599 260.884C273.02 259.507 273.376 262.175 273.114 264.071C272.851 265.968 272.394 263.423 272.387 268.632C272.252 266.896 272.135 265.308 272.007 263.629C271.858 266.987 271.708 270.356 271.559 273.715C271.205 271.356 270.68 266.244 270.214 266.384C270.39 267.931 270.081 273.23 270.068 273.81C270.02 276.056 270.314 274.832 270.321 275.002C270.408 277.133 270.405 279.038 270.488 280.507C270.542 281.474 270.63 282.25 270.803 282.78C270.588 285.416 270.677 287.42 270.605 290.216C270.564 291.751 270.244 291.438 270.282 292.349C270.486 298.367 271.197 292.672 269.813 304.194C269.667 302.772 269.506 301.392 269.342 299.987C269.195 301.285 269.042 302.56 268.882 303.869C268.873 304.744 268.862 305.609 268.848 306.477C269.341 306.49 269.837 306.5 270.33 306.513C270.296 307.463 270.256 308.434 270.213 309.397C270.382 307.74 270.537 306.12 270.682 304.471C270.777 304.325 270.872 304.19 270.968 304.044C270.962 306.5 270.933 308.946 270.877 311.401C270.702 311.435 270.526 311.467 270.351 311.501C270.135 317.024 270.264 317.178 269.231 322.336C268.782 326.365 267.622 329.527 266.988 331.773C266.964 332.599 266.932 333.461 266.897 334.309C266.673 334.816 266.448 335.327 266.222 335.829C266.25 336.895 266.265 338 266.276 339.08C265.724 339.587 265.559 339.857 266.076 335.76C265.321 337.063 264.281 344.255 263.822 347.176C263.492 349.403 264.472 347.063 264.468 347.348C264.469 348.315 263.495 351.886 263.337 352.654C262.705 355.872 262.098 358.099 261.389 361.004C261.253 361.57 261.088 363.195 261.056 363.333C260.803 364.387 260.155 366.949 260.065 367.23C255.191 381.981 259.637 365.983 254.633 379.444C254.64 378.981 254.634 378.549 254.634 378.096C254.219 379.1 253.791 380.107 253.359 381.09C252.949 382.395 253.852 380.986 252.559 383.397C252.823 383.321 253.086 383.243 253.352 383.155C252.765 384.203 252.197 385.176 251.57 386.238C251.464 388.288 248.337 394.551 249.289 394.518C249.643 394.52 252.238 390.231 251.282 392.715C250.323 394.643 250.704 393.194 250.271 393.96C247.08 399.438 247.597 399.318 246.12 401.468C245.726 401.701 245.316 401.946 244.914 402.179C244.434 403.026 243.936 403.88 243.429 404.724C243.185 404.832 242.936 404.946 242.692 405.051C243.207 404.298 243.778 403.438 244.236 402.729C243.239 403.496 236.602 411.883 239.434 408.911C240.61 407.704 242.322 405.17 241.708 407.116C240.046 409.256 238.08 411.616 236.142 413.733C236.016 413.871 235.89 414.008 235.764 414.144C235.806 414.306 235.852 414.463 235.893 414.625C233.095 417.633 235.176 414.48 234.941 414.293C234.319 414.987 233.684 415.679 233.043 416.355C232.871 416.735 232.716 417.105 232.523 417.495C232.337 417.373 231.646 417.429 229.81 419.51C228.613 420.839 231.018 419.271 228.496 421.579C228.451 421.154 229.087 420.053 226.228 422.521C226.18 423.029 226.001 423.612 226.02 424.078C222.219 426.917 220.864 428.699 216.082 431.58C213.039 433.405 208.502 435.119 207.157 437.374C204.908 438.652 205.47 437.954 204.762 438.25C201.422 439.614 199.262 441.285 198.667 441.601C194.849 443.586 192.989 444.083 189.812 445.597C189.905 445.299 189.921 445.043 189.978 444.764C193.093 443.975 194.603 443.379 198.658 441.462C197.272 442.042 195.872 442.596 194.469 443.125C194.619 442.846 194.765 442.567 194.904 442.292C207.776 437.239 204.315 437.621 193.714 441.996C192.936 442.719 192.12 443.444 191.332 444.148C184.878 445.974 182.064 447.41 174.754 449.457C173.898 449.697 170.637 450.259 169.277 450.538C169.3 450.531 169.322 450.525 169.345 450.518C168.417 450.362 169.538 449.952 169.605 449.615C168.859 449.741 168.108 449.863 167.355 449.98C165.726 450.555 166.379 450.642 163.07 451.203C163.473 450.888 163.867 450.572 164.264 450.254C160.67 450.922 158.358 451.555 154.973 451.92C155.554 451.93 156.126 451.939 156.704 451.945C149.383 453.186 155.434 453.8 149.747 453.788C149.408 453.949 149.076 454.11 148.734 454.269C151.043 454.052 153.345 453.796 155.652 453.501C155.723 453.665 155.798 453.828 155.859 453.994C153.376 454.295 150.888 454.547 148.417 454.755C150.215 454.682 152.078 454.579 153.88 454.458C151.034 454.917 148.17 455.317 145.285 455.662C148.29 454.743 144.31 455.038 145.004 454.34C139.979 455.299 136.007 456.288 128.07 456.036C126.482 455.974 127.361 455.543 122.899 456.104C123.262 455.868 122.871 455.676 122.218 455.498C120.937 455.146 118.642 454.853 119.117 454.412C120.141 454.433 121.19 454.449 122.218 454.469C122.745 454.479 123.264 454.488 123.771 454.499C122.062 454.735 121.776 455.374 124.381 455.549C127.678 455.777 132.507 455.171 132.338 455.877C133.667 455.794 134.895 455.72 136.167 455.625C135.634 455.478 135.11 455.328 134.585 455.177C138.239 455.28 140.519 455.022 142.245 454.447C137.914 454.684 133.564 454.8 129.237 454.81C129.875 454.763 130.52 454.715 131.154 454.665C127.873 454.303 131.226 453.82 125.127 453.821C125.167 454.027 125.199 454.232 125.239 454.439C124.51 454.267 123.366 454.154 122.218 454.051C119.863 453.838 117.521 453.7 118.835 453.274C116.986 453.468 116.609 453.591 115.562 453.25C110.684 453.731 107.551 454.34 109.287 455.066C107.476 454.949 105.664 454.832 103.862 454.715C104.909 454.517 105.957 454.319 107.004 454.12C103.853 454.133 100.679 454.145 97.537 454.156C97.2351 454.744 103.603 454.335 101.765 454.86C101.398 454.966 99.7019 454.74 99.2565 454.799C94.5582 455.442 101.934 454.977 100.549 455.47C93.5478 455.622 99.1501 456.447 89.5074 455.754C89.2528 455.923 88.979 456.096 88.7432 456.265C85.3959 456.275 85.6673 455.892 82.7902 455.82C80.9884 455.774 78.7268 456.448 76.7367 455.989C76.3819 455.905 79.7295 455.082 72.6943 455.118C67.2342 455.146 69.5067 455.728 66.5552 455.934C63.602 456.14 56.8462 455.334 54.8554 456.247C56.4022 456.126 58.3727 456.061 60.0894 455.962C60.7875 456.14 61.4672 456.316 62.1559 456.493C58.2309 456.263 54.1738 456.534 51.532 456.109C46.2955 456.758 40.4392 456.156 42.0243 455.423C43.7479 455.529 41.8728 455.849 44.2667 455.645C44.512 455.474 44.7706 455.304 45.0159 455.134C40.9399 455.154 38.1092 455.149 39.9679 455.67C39.3358 455.682 38.7096 455.695 38.0774 455.707C37.9642 455.331 37.8638 454.952 37.7506 454.576C36.9958 454.533 36.2378 454.491 35.483 454.449C34.6438 454.532 33.8027 454.615 32.954 454.699C34.0957 455.295 36.0402 455.315 29.6055 455.648C29.5866 455.442 29.559 455.237 29.5401 455.031C24.1529 455.293 24.0108 455.792 17.247 455.773C22.4361 456.488 25.2752 455.221 25.2564 456.655C26.5584 456.561 27.871 456.465 29.1731 456.371C29.3712 456.579 29.5676 456.788 29.7563 456.996C22.7655 456.886 11.1528 455.518 6.47226 456.425C5.90631 456.314 5.33816 456.218 4.76278 456.099C4.50032 456.13 4.24638 456.156 4 456.176C3.61742 456.173 3.32077 455.883 3.32367 455.5C2.9878 451.442 4.04204 449.431 3.37467 445.046C3.30038 444.566 2.1456 445.57 2.18698 439.515C2.33707 439.666 2.58967 439.744 2.77899 439.867C2.68692 438.556 2.59056 437.252 2.49641 435.95C2.63504 435.714 2.77361 435.467 2.91326 435.231C2.96708 437.467 3.02179 439.697 3.07561 441.933C3.1232 440.075 3.17084 438.205 3.21842 436.347C3.44499 438.771 3.4474 439.865 3.81044 438.404C3.83217 436.3 3.85523 434.193 3.87696 432.089C3.96998 431.872 4.06408 431.657 4.1571 431.44C4.43443 432.459 4.70566 433.488 4.98714 434.507C4.7605 429.026 4.74819 424.26 4.20287 420.052C4.11077 419.335 3.74945 421.871 4.07531 416.985C3.88395 416.91 3.72856 416.778 3.55166 416.693C4.08775 410.712 3.92773 408.747 3.54067 402.51C3.90186 406.548 3.66695 402.945 3.86048 401.917C3.99381 401.212 3.97411 403.962 4.11376 403.651C4.25243 403.34 4.81237 399.766 4.87972 402.822C3.73198 410.313 5.1042 412.354 4.55259 421.978C4.70058 420.496 4.8489 419.004 4.9969 417.523C5.09721 418.221 5.18821 418.845 5.29474 419.6C5.0702 414.232 5.21607 416.843 5.393 414.637C5.56997 412.429 5.72031 408.417 5.76895 405.728C5.78424 404.881 5.52682 405.774 5.50285 403.862C5.4863 402.561 5.86791 399.002 5.41802 398.181C5.12516 397.643 4.31874 403.359 4.32066 395.456C4.03355 393.968 4.12272 397.758 4.08813 397.839C3.7466 398.528 3.48982 393.669 3.75062 391.423C3.77312 391.242 4.03925 393.015 4.14367 391.087C4.39308 386.511 4.08788 383.868 3.67494 380.905C4.15929 380.584 4.73773 376.734 4.55868 371.94C4.69729 371.695 4.83712 371.462 4.97675 371.216C4.90339 371.961 4.83101 372.705 4.75765 373.449C4.84458 374.26 4.90786 375.12 5.01032 375.912C5.12943 371.092 5.79694 370.411 6.04115 368.099C6.87543 360.189 5.11066 364.983 4.80647 366.41C4.92963 367.438 5.0671 368.433 5.19647 369.452C5.02778 369.338 4.8578 369.224 4.68807 369.12C4.69323 357.279 3.59303 367.317 3.27945 361.307C4.10941 359.759 4.1894 355.345 3.66273 349.722C3.66687 349.1 3.66793 348.475 3.67311 347.852C3.79412 347.748 3.97909 347.75 4.05883 347.58C4.19958 340.806 2.92143 339.599 2.80035 338.958C2.26331 336.109 3.00637 333.89 3.01274 333.05C3.03861 329.512 2.70867 328.484 2.85039 325.116C3.00352 321.494 3.25669 323.97 3.48329 322.868C3.66325 321.985 3.6953 319.127 3.88183 317.946C3.72927 318.415 3.57967 318.937 3.42653 319.404C3.21855 315.65 3.01583 312.582 2.96513 308.318C4.08141 303.506 2.19839 299.413 3.72559 301.073C3.83012 305.111 4.00415 307.369 4.39328 309.53C4.44295 306.879 4.49131 304.226 4.54098 301.575C4.37337 300.802 4.21001 300.253 4.03929 299.338C4.39524 297.357 4.24249 292.765 4.3469 290.962C4.83641 282.517 5.44354 285.13 4.42319 277.422C4.32376 282.977 3.82819 282.968 3.89648 288.478C3.54254 287.289 3.61587 284.489 3.19156 286.301C3.29607 280.971 3.6749 282.694 4.01122 280.619C4.30115 278.83 4.31739 275.227 4.69417 275.431C4.48701 275.062 4.28646 274.777 4.07957 274.41C4.08164 270.957 4.08178 267.505 4.08385 264.053C3.86758 265.524 3.65092 266.995 3.43568 268.467C3.354 267.355 3.27263 266.241 3.19095 265.129C3.86363 256.637 2.63077 241.994 4.32065 244.333C4.37446 240.239 4.16251 239.727 3.84277 237.5C3.97106 237.255 4.07777 237.017 4.22055 236.771C4.08625 234.13 4.56792 232.103 4.44271 229.773C4.31847 227.443 3.86351 226.864 4.62825 226.525C4.40889 225.015 4.22666 223.514 4.02281 222.015C4.19654 221.109 4.36827 220.205 4.54097 219.31C4.44991 217.894 4.35922 216.476 4.26816 215.061C4.63321 214.305 4.47585 208.74 4.72102 206.287C4.32751 203.959 3.08854 204.023 3.31056 198.544C3.61785 198.686 3.92425 198.825 4.23154 198.967C4.16739 197.712 4.10344 196.455 4.03929 195.191C3.93899 195.115 3.83869 195.05 3.7384 194.975C3.76944 195.616 3.80031 196.249 3.83239 196.89C3.66266 196.334 3.49372 195.788 3.32399 195.241C3.57543 193.326 3.8269 191.409 4.07835 189.484C4.26873 192.078 4.45923 194.673 4.64961 197.267C4.87522 194.012 4.65018 191.747 4.90167 188.916C4.47742 186.454 4.23296 187.363 3.77258 188.363C3.81189 187.448 3.84984 186.523 3.88915 185.608C3.42869 186.211 3.15433 184.664 3.19155 190.012C3.06022 189.645 2.935 189.269 2.7985 188.911C2.8192 188.034 2.70819 187.465 2.75883 186.503C2.89751 183.88 3.70628 181.869 3.98985 182.048C4.13839 182.145 3.85432 184.731 4.06431 184.627C4.57638 184.371 4.34647 178.439 4.86078 186.995C5.18677 184.156 4.94092 183.521 4.84674 180.389C5.01738 180.634 5.18694 180.872 5.35758 181.108C5.27896 179.655 5.20062 178.201 5.12199 176.749C4.24546 178.768 3.91623 168.059 3.14944 177.699C3.11012 174.85 3.07059 172.011 3.0292 169.172C2.93918 169.757 2.85007 170.342 2.76005 170.926C2.80765 172.209 2.85447 173.485 2.90104 174.768C2.73653 173.259 2.57301 171.747 2.40851 170.238C2.61239 166.671 2.92595 165.273 3.313 163.641C3.59545 167.791 3.20963 166.435 3.13296 169.669C3.37808 169.556 3.60354 169.706 3.86107 169.423C3.35334 167.752 3.72272 162.301 3.74755 161.037C3.82297 157.189 3.3241 160.206 3.31361 157.633C3.30326 155.057 3.60019 152.019 3.10549 149.915C3.38276 149.953 3.66964 150.121 3.9221 150.272C4.01317 146.262 3.68562 147.062 3.64318 146.647C2.94567 140.024 3.53454 136.43 3.60595 128.853C3.69184 129.816 3.76937 130.788 3.85008 131.759C4.43879 126.044 4.25853 129.894 4.45308 134.857C4.39409 130.205 4.89545 127.541 5.04448 124.258C5.19325 120.975 4.93575 115.345 4.73504 113.287C4.41215 117.995 4.62508 123.073 4.53608 128.3C4.25362 127.706 4.01457 127.128 3.70421 126.515C4.29705 123.336 3.90065 121.494 3.82201 120.447C3.59133 117.372 4.10016 117.468 3.55285 115.61C3.74113 115.685 3.89944 115.741 4.07529 115.816C3.99664 109.467 3.66378 102.618 4.35909 98.485C3.90687 98.1076 3.47119 97.8228 3.00967 97.3889C3.35007 94.7003 3.00148 92.3978 3.08107 90.1337C3.16076 87.8788 3.52622 88.7372 3.66698 86.0862C3.69285 85.5956 3.46411 84.5739 3.6328 83.3662C3.80239 82.1467 5.0633 77.6493 3.96176 77.1115C3.95658 74.8379 3.91631 72.6861 3.89768 70.4597C3.83559 72.6295 3.77545 74.8002 3.71336 76.9607C3.44639 75.1116 3.18021 73.274 2.91323 71.425C3.15127 71.1891 3.3936 70.9525 3.62853 70.7261C3.9183 65.7445 3.52912 62.1294 3.6212 57.1006C3.63673 56.261 4.10734 58.2419 3.9874 54.5163C3.86735 50.7896 2.98898 48.0241 3.32825 41.6751C3.34584 41.3543 4.01856 39.4742 3.55285 37.2003C3.4473 36.6829 3.29111 38.8607 3.15248 37.6729C3.0138 36.4841 2.89976 31.1798 2.56962 30.7646C2.68653 30.8212 2.80767 31.1523 2.92666 31.3127C2.98253 30.4072 3.03844 29.4925 3.09327 28.5775C2.88735 28.4926 2.68113 28.401 2.47624 28.3161C2.95539 23.1081 3.73701 20.4167 3.47838 12.6995C3.77745 14.8694 4.07771 17.0401 4.37678 19.2006C4.16669 19.795 3.95519 20.3904 3.7451 20.9754C3.82891 24.5318 3.91212 28.0981 3.99594 31.6546C3.75687 32.2396 3.51849 32.8143 3.27942 33.3993C3.31046 34.3425 3.34054 35.2766 3.37158 36.2199C3.5444 35.984 3.71631 35.7462 3.88913 35.5009C3.84671 37.3686 3.80339 39.2386 3.76097 41.0969C4.78109 37.3137 3.67419 30.5319 4.52753 31.0211C4.39513 30.1818 4.26181 29.3414 4.12838 28.5021C4.54215 28.134 4.42306 26.4274 4.35786 23.4189C4.56174 24.1077 4.76284 24.8683 4.96879 25.5005C4.68112 22.5756 4.70905 17.3873 4.59832 14.3587C4.54969 13.0286 4.2497 14.3572 4.21443 13.9615C4.03022 11.933 4.55367 8.05573 4.51227 7.24429C4.48151 6.63889 4.43913 6.05997 4.38978 5.50003L3.99996 5.88983C7.92527 5.54385 10.9172 4.85522 15.5494 5.42764C10.0864 5.58908 13.0584 5.5209 11.1148 5.88415C10.5063 5.99805 3.44886 6.23563 12.2863 6.13013C13.3223 6.11691 29.3578 5.43124 24.0867 4.90582C26.6813 5.07348 28.7128 5.26733 31.0905 5.44534C36.9025 4.06061 34.8911 5.36145 33.2022 6.07763C34.1551 6.08075 35.0617 6.08801 36.0429 6.08801C33.9577 5.3356 44.581 5.28891 48.1852 5.6687C49.3928 5.79498 46.0161 6.03579 48.8087 6.14965C50.1385 6.09689 51.647 6.02856 53.0522 5.9696C51.0143 6.44564 55.0138 6.62908 54.9577 7.11334C57.5144 6.68182 59.4701 5.76715 58.065 5.27139C60.178 5.47213 62.3021 5.6726 64.4152 5.87438C63.4339 5.98925 62.44 6.10311 61.4588 6.21801C68.3653 5.91372 77.2457 6.60607 78.6893 5.58877C79.6044 5.596 80.5294 5.60226 81.4445 5.60952C81.7276 5.7813 82.0012 5.95342 82.2842 6.12524C86.4252 5.97622 90.557 5.82626 94.698 5.67724C91.0108 5.57064 90.133 5.3261 86.2663 5.52468C87.7564 5.32708 89.2742 5.12841 90.736 4.93084C96.5574 5.46276 97.3515 5.81237 106.116 5.65404C106.513 5.64681 113.135 5.20074 113.361 5.15725C114.399 4.95858 112.824 4.66991 113.286 4.56951C114.569 4.28802 122.366 3.5812 122.215 3.4746C120.31 2.16646 94.0754 2.14913 86.9802 2.08184C59.1383 1.81796 31.5284 1.78747 3.99996 1.84293C1.93126 1.82724 0.358578 3.43134 0.342882 5.50003C0.434004 50.7364 0.757179 95.7527 0.658101 141.217C0.655634 141.969 0.462525 141.64 0.454254 141.961C0.405754 143.951 0.706717 145.906 0.719134 146.642C0.744724 148.214 0.466659 147.348 0.466461 148.497C0.469567 160.366 0.63308 171.567 0.585477 183.446C0.582372 184.219 0.804849 183.43 0.765522 184.788C0.743988 185.49 0.402666 187.685 0.397498 189.268C0.379913 194.797 0.489339 199.441 0.484165 205.272C0.481077 208.461 0.51009 213.245 0.504917 216.811C0.502718 218.386 0.346569 220.026 0.341352 221.582C0.334107 223.79 0.650651 223.339 0.670315 223.679C0.756194 225.169 0.408764 225.376 0.417032 226.791C0.433591 229.423 0.665556 229.565 0.645903 232.905C0.631414 235.292 0.448268 240.755 0.394451 243.765C0.663506 250.804 0.556693 259.673 0.467692 266.24C0.414933 270.127 0.73971 270.487 0.738675 272.072C0.732385 277.657 0.31758 281.895 0.304128 287.141C0.286602 294.102 0.560885 300.271 0.580605 307.016C0.583708 308.109 0.286131 307.858 0.278496 308.931C0.250554 312.903 0.196394 317.983 0.238826 321.521C0.285457 325.464 0.717394 326.919 0.629433 330.777C0.603315 331.909 0.224588 332.24 0.175964 334.136C0.0995008 337.164 0.433474 340.485 0.47075 342.598C0.520427 345.494 0.134594 342.975 0.186341 346.882C0.188575 347.042 0.464379 347.627 0.45122 348.465C0.413963 350.909 0.196769 350.666 0.217468 354.242C0.220326 354.585 0.483126 359.327 0.484179 359.798C0.488319 362.572 0.580327 368.157 0.524461 369.799C0.325756 375.667 -0.0890734 371.047 0.811313 376.038C0.590932 378.236 0.367559 380.416 0.153387 382.745C0.353125 381.19 0.641351 387.501 0.622724 387.944C0.472625 391.612 0.122294 389.427 0.180242 394.078C0.989553 387.936 0.284555 400.078 0.263857 402.786C0.163501 415.825 0.365464 427.677 0.360291 440.782C0.3582 445.11 0.191705 450.889 0.19116 455.5C0.174814 457.655 1.84546 459.292 4 459.309C4.06343 459.309 4.12663 459.309 4.18961 459.309C5.2715 459.309 4.454 459.117 5.40635 459.113C6.35626 459.11 5.30241 459.325 6.38678 459.314C13.1325 459.239 18.418 458.833 24.5977 459.341C24.8986 459.267 24.8889 459.209 25.3871 459.129C30.4444 459.583 40.1836 458.972 43.8444 458.888C49.57 458.758 51.0327 459.065 55.1923 459.003C60.6928 458.92 68.9513 458.32 65.2631 459.311C69.0365 459.342 72.6691 459.35 76.4802 459.258C76.9045 459.248 76.6121 458.996 76.7819 458.991C77.8571 458.955 78.2075 459.18 78.9338 459.19C80.9034 459.218 77.6892 458.948 80.4975 459.024C81.9788 459.064 82.8199 459.261 86.9332 459.265C98.3619 459.275 110.242 459.265 122.218 459.249C136.42 459.232 150.783 458.151 164.538 455.566C166.288 455.231 165.187 455.696 167.367 455.246C175.028 453.788 188.302 449.42 194.502 446.806C200.737 444.263 199.468 445.15 203.368 443.466C204.115 443.13 203.424 443.245 204.084 442.914C208.543 440.69 213.498 437.388 216.807 435.086C218.996 433.563 218.998 433.936 220.516 432.873C222.78 431.273 224.799 429.238 225.918 428.288C231.081 423.884 234.606 420.709 238.648 415.889C238.728 415.793 238.806 415.697 238.885 415.601C238.822 415.736 238.776 415.848 238.732 415.958C238.697 416.044 238.664 416.127 238.625 416.217C238.683 416.151 238.74 416.084 238.798 416.017C243.734 410.257 248.032 403.994 251.74 397.426C251.62 397.769 251.504 398.102 251.379 398.449C255.722 390.611 254.443 391.112 255.44 392.503C255.784 391.941 256.148 391.346 256.464 390.809C255.664 390.702 257.628 385.613 259.942 379.201C260.117 378.745 262.007 375.835 261.054 375.882C261.555 375.14 261.871 374.699 262.298 374.062C262.539 372.599 262.76 371.148 262.961 369.694C263.241 368.967 263.521 368.22 263.789 367.499C263.986 367.441 264.129 367.578 264.364 367.391C265.51 363.94 267.226 356.745 267.876 353.979C269.579 347.119 271.329 340.102 271.667 334.604C272.118 331.956 272.066 334.637 272.588 330.704C272.482 330.236 272.379 329.794 272.268 329.305C273.443 326.193 273.083 325.434 273.408 321.022C273.619 318.003 273.982 316.1 274.187 313.219C274.237 312.502 274.007 312.586 274.053 312.095C274.216 310.453 274.839 305.745 274.908 304.576C275.465 296.018 275.631 288.422 275.587 280.507C275.575 278.636 275.561 276.747 275.546 274.821C275.537 273.745 275.757 275.14 275.748 274.026C275.733 272.235 275.396 273.289 275.379 272.252C275.335 269.357 275.691 269.335 275.709 265.298C275.77 252.004 275.503 236.72 275.479 222.833C275.479 222.399 275.688 222.425 275.69 221.953C275.7 218.878 275.418 215.765 275.421 212.973C275.425 208.34 275.718 204.859 275.717 200.283C275.716 193.451 275.629 187.176 275.584 180.493C275.57 178.389 275.546 176.285 275.513 174.092C275.388 166.502 275.176 159.908 274.59 151.582C271.871 115.656 264.928 76.7447 240.738 47.1696C240.123 46.432 240.228 46.8525 240.048 46.6217C239.475 45.8881 239.091 45.3686 238.798 44.9824C238.214 44.2156 237.989 43.9713 237.295 43.7116C235.005 41.0303 234.525 39.9328 231.42 36.9811C229.741 35.4367 230.602 37.0144 227.937 34.2261C225.442 31.8037 228.765 33.7809 220.296 27.8C220.068 27.6484 218.77 27.1545 217.044 25.8759C215.297 24.6166 217.562 25.7164 213.198 22.8836C202.894 16.2331 188.386 10.6397 174.768 7.25633C173.931 6.98833 165.697 4.99266 164.055 4.65608C160.908 3.91979 161.608 3.74465 157.471 3.04625C154.253 2.52544 151.552 2.49605 147.79 2.05016C147.353 2.00148 146.626 1.59404 143.786 1.39696ZM38.0875 454.249C37.3137 453.935 35.9175 452.78 31.2395 453.131C30.7961 453.164 33.1899 453.959 30.606 454.085C33.1345 454.169 35.5968 454.196 38.0875 454.25C38.0875 454.249 38.0875 454.249 38.0875 454.249ZM123.111 7.90572C126.589 7.85878 130.058 7.87621 133.538 7.96511C131.129 7.72365 128.764 7.51815 126.363 7.34163C125.28 7.52321 124.202 7.71154 123.111 7.90572ZM263.268 350.445C263.269 350.442 263.269 350.439 263.27 350.436C262.311 353.983 261.277 357.45 260.136 360.924C260.346 360.586 260.556 360.246 260.764 359.905C261.701 357.179 262.578 354.426 263.398 351.665C263.355 351.26 263.312 350.852 263.268 350.445ZM269.142 322.12C269.268 319.785 268.985 320.328 268.906 319.022C268.906 319.022 268.906 319.022 268.907 319.022C268.887 318.674 268.994 317.095 269.041 316.49C269.157 316.727 269.265 317.028 269.378 317.283C270.244 311.85 269.819 301.149 268.268 314.865C268.46 314.675 268.649 314.493 268.841 314.302C268.21 321.126 267.595 328.775 269.142 322.12ZM5.75187 434.13C6.32107 428.243 6.44109 426.355 6.05092 419.212C5.88959 420.221 5.72828 421.23 5.56694 422.239C5.73149 423.419 5.89492 424.589 6.05947 425.769C6.05947 425.772 6.05947 425.775 6.05947 425.779C5.88665 426.015 5.71352 426.251 5.5407 426.478C5.61106 429.025 5.6815 431.583 5.75187 434.13ZM260.816 98.1036C259.252 96.8636 260.063 97.1126 261.064 101.662C261.402 103.24 260.8 101.781 261.027 102.75C262.225 108.008 263.009 108.259 263.123 106.993C262.421 104.004 261.64 100.995 260.819 98.1132C260.818 98.11 260.817 98.1068 260.816 98.1036ZM162.625 9.70635C162.622 9.70577 162.618 9.70516 162.615 9.70458C162.429 9.95235 164.569 10.4163 162.094 10.2358C163.951 10.5646 165.762 10.9123 167.617 11.3013C167.083 11.1626 166.525 11.0229 165.997 10.8908C166.486 10.8916 166.993 10.8971 167.49 10.9038C168.078 11.3543 168.721 11.2937 170.657 11.6249C170.047 11.8346 169.455 12.051 168.854 12.268C171.089 12.6536 173.329 13.087 175.564 13.571C175.613 13.4951 175.663 13.4194 175.712 13.3436C176.516 13.6694 177.3 13.9982 178.094 14.336C178.347 14.301 178.592 14.2651 178.846 14.2312C179.824 14.5926 180.791 14.9617 181.751 15.3414C182.124 15.2024 179.978 14.4031 183.825 15.693C182.724 15.0672 181.606 14.4532 180.48 13.8529C174.62 12.1315 168.649 10.7684 162.625 9.70635ZM268.474 139.762C267.757 133.065 267.773 134.978 267.411 136.589C267.771 137.645 268.127 138.712 268.474 139.762ZM179.531 447.262C177.536 447.442 175.573 447.578 173.551 447.702C169.676 448.456 165.942 449.915 168.916 449.567C172.504 449.122 176.055 447.843 179.531 447.262ZM89.3315 454.375C94.226 454.197 89.6208 453.741 88.517 453.475C87.163 453.902 85.2748 453.864 82.2422 453.914C85.0899 453.942 88.522 454.405 89.3315 454.376C89.3315 454.376 89.3315 454.375 89.3315 454.375ZM241.986 403.351C243.093 401.756 244.223 400.2 245.026 398.646C244.445 398.911 242.867 401.994 243.736 399.622C243.069 400.658 242.385 401.685 241.688 402.693C242.311 402.175 241.864 403.136 241.988 403.347C241.987 403.348 241.987 403.35 241.986 403.351ZM270.112 205.084C270.547 208.934 270.361 209.663 270.06 213.541C270.413 214.088 271.006 209.464 271.137 206.568C270.795 206.077 270.454 205.584 270.112 205.084ZM5.10647 7.20673C4.93027 7.12073 4.53991 7.04901 3.99996 6.99014L5.49008 5.50003C5.24012 7.79282 5.22216 12.7828 5.3301 15.5252C5.397 15.1217 5.4648 14.7169 5.53273 14.3135C5.58421 11.3799 5.63575 8.43594 5.68725 5.50003L3.99996 7.18732C4.36894 7.19379 4.7378 7.20026 5.10647 7.20673ZM80.7992 453.945C81.3068 453.931 81.7879 453.922 82.2422 453.914C81.7372 453.909 81.2497 453.917 80.7992 453.945ZM3.59742 327.343C3.17212 328.956 3.02923 324.162 3.19583 329.983C3.19543 329.983 3.19502 329.983 3.19461 329.983C3.30432 333.832 3.33361 334.682 3.36672 338.249C3.91308 336.965 4.10837 329.73 4.22117 339.702C4.22167 339.833 3.89657 339.572 3.94104 341.165C3.95486 341.657 4.22168 343.231 4.2993 345.625C4.32413 346.398 4.40642 352.212 4.41159 344.287C4.79245 344.523 5.17793 344.097 5.5474 344.116C5.65478 341.023 4.90902 338.645 4.92732 335.373C4.95629 330.514 5.71042 328.041 4.72103 327.107C4.47794 331.193 4.4721 338.209 5.06708 339.124C5.07432 343.076 4.58686 344.211 4.34568 341.024C4.65202 327.372 3.6221 337.276 4.01122 325.322C4.14882 325.181 4.29691 324.689 4.42624 324.764C3.94201 321.115 3.74954 326.768 3.59742 327.343ZM4.64962 355.892C4.94043 353.533 5.23358 351.182 5.52543 348.832C5.05145 348.832 4.62611 350.128 4.35911 353.845C4.45631 354.524 4.55345 355.213 4.64962 355.892ZM4.77411 157.472C5.0318 157.132 5.26794 156.227 5.51321 155.566C5.29588 154.849 5.08739 137.866 4.8742 146.506C4.84315 147.761 5.29882 155.415 4.77411 157.472ZM270.495 178.352C270.56 179.064 270.623 179.778 270.685 180.493C270.796 181.777 270.908 183.058 271.019 184.339C271.065 183.058 271.111 181.775 271.158 180.493C271.223 178.698 271.277 176.916 271.321 175.149C271.05 176.216 270.774 177.278 270.495 178.352ZM147.802 453.741C148.636 453.644 145.826 453.584 149.12 453.291C146.647 453.333 144.323 453.355 141.901 453.328C141.189 453.551 140.474 453.77 139.768 453.986C139.2 453.917 138.62 453.847 138.051 453.773C138.403 453.997 138.719 454.216 139.091 454.441C143.116 453.641 144.073 454.153 147.802 453.741ZM248.889 395.741C248.797 394.845 245.578 399.805 248.389 394.73C247.548 395.509 246.536 396.969 244.719 399.813C244.543 400.344 244.364 400.871 244.181 401.398C243.84 401.264 243.262 401.932 241.986 403.351C241.986 403.353 241.985 403.354 241.984 403.356C239.036 407.538 239.251 407.302 238.979 408.656C241.985 404.11 242.459 404.259 244.782 401.317C246.366 399.282 247.968 396.338 248.889 395.741ZM4.76801 175.567C5.21609 171.691 5.63403 175.169 5.158 168.292C5.04416 168.735 4.93128 169.181 4.81744 169.624C4.79985 171.605 4.78353 173.586 4.76801 175.567ZM255.439 377.752C256.058 378.452 255.241 382.096 253.762 382.115C254.887 378.78 254.927 380.642 255.439 377.752ZM91.0007 455.661C97.8405 455.623 96.5474 454.696 93.7359 454.232C93.3019 454.401 92.8683 454.57 92.4437 454.737C91.2455 454.661 90.0471 454.584 88.8488 454.509C89.5658 454.893 90.2837 455.278 91.0007 455.661ZM271.537 259.431C270.95 264.658 271.21 253.788 270.844 257.44C270.551 260.355 271.142 264.197 271.513 262.744C271.523 261.734 271.53 260.611 271.537 259.441C271.537 259.437 271.537 259.434 271.537 259.431ZM271.275 289.675C270.662 288.805 270.833 290.055 271.005 285.918C271.03 285.317 271.001 282.54 271.014 280.507C271.028 278.617 271.102 277.408 271.353 279.311C271.353 279.707 271.354 280.106 271.354 280.507C271.356 283.519 271.333 286.6 271.275 289.675ZM11.9375 454.744C11.8746 455.017 19.0911 455.617 20.0173 455.467C20.0173 455.467 20.0173 455.468 20.0173 455.468C22.5176 455.059 14.9054 455.001 18.2073 454.44C10.8955 454.934 8.70797 453.74 9.21747 455.313C13.5247 455.382 11.4855 455.058 11.9375 454.744ZM94.6427 5.92138C94.646 5.92138 94.6494 5.92138 94.6527 5.92138C94.1681 5.93423 90.175 6.33492 90.6606 6.47372C95.4625 6.35473 94.6068 6.09096 99.0773 6.52438C99.3223 6.38479 99.5323 6.24938 99.7962 6.10876C98.0224 6.02596 97.0392 5.85824 94.6427 5.92138ZM4.2236 139.11C4.15219 140.874 4.44809 144.094 4.4305 146.104C5.56683 139.707 4.50719 132.063 4.2236 139.11ZM222.306 35.4541C222.31 35.4575 222.313 35.461 222.317 35.4645C222.316 35.4631 222.315 35.4613 222.314 35.4599C222.312 35.458 222.309 35.456 222.306 35.4541ZM4.90534 275.833C4.83158 275.605 4.7675 275.477 4.71126 275.431C4.70597 275.431 4.70068 275.431 4.69539 275.431C4.76445 275.554 4.83431 275.685 4.90534 275.833ZM4.83822 448.439C4.54782 446.147 4.1268 451.428 4.0074 455.5L4 455.493C5.26733 455.53 6.41763 455.538 7.18621 455.503C6.95988 455.33 6.92457 455.172 6.39684 454.972C5.76892 455.081 4.92572 455.115 4 455.106L4.39394 455.5C4.42253 452.572 4.88697 448.819 4.83822 448.439ZM219.415 428.073C213.063 432.743 222.269 427.892 221.815 426.605C221.791 426.604 219.582 427.96 219.415 428.073ZM59.3654 454.819C61.3822 455.274 57.3291 455.395 63.81 455.317C64.1872 455.199 64.5641 455.081 64.9413 454.963C63.0831 454.915 61.2236 454.867 59.3654 454.819ZM173.288 451.232C163.453 453.376 153.906 454.11 160.138 451.91C160.886 451.827 161.642 451.736 162.383 451.645C162.609 452.222 165.277 451.434 169.258 450.543C169.87 450.662 172.091 450.208 172.551 450.306C173.446 450.503 170.97 451.384 173.288 451.232ZM254.439 76.6368C254.409 76.8263 254.377 77.0126 254.348 77.2015C254.886 78.7033 255.385 80.178 255.873 81.69C255.962 81.3779 256.051 81.0649 256.139 80.7523C255.592 79.3711 255.033 78.0149 254.443 76.6458C254.442 76.6428 254.44 76.6398 254.439 76.6368ZM3.35757 365.6C4.50809 364.695 4.29619 367.858 3.71461 374.273C3.5956 371.386 3.47659 368.487 3.35757 365.6ZM268.937 334.959C268.646 334.703 268.356 334.45 268.066 334.185C268.917 330.855 269.185 331.542 269.374 333.223C269.23 333.808 269.085 334.379 268.937 334.959ZM272.915 285.966C272.965 287.387 272.71 286.659 272.714 286.808C272.793 290.41 272.91 290.893 272.57 295.295C272.483 295.83 272.391 296.354 272.299 296.885C271.687 294.856 272.123 293.349 271.809 289.079C272.029 289.857 272.247 290.629 272.464 291.404C272.473 289.041 272.464 286.613 272.434 284.252C272.508 283.97 272.582 283.687 272.656 283.405C272.744 284.255 272.841 285.13 272.915 285.966ZM245.62 60.6884C244.365 58.741 243.042 56.8179 241.669 54.9481C241.757 54.7807 241.847 54.6152 241.934 54.4473C243.232 56.4921 244.463 58.5798 245.62 60.6884ZM3.88183 317.946C3.94167 317.762 4.00187 317.583 4.0631 317.423C3.98848 317.439 3.93023 317.64 3.88183 317.946ZM100.767 4.99615C103.399 4.87817 107.191 4.95562 110.078 4.93084C109.851 5.35399 102.514 5.23702 99.937 5.49355C99.523 5.41762 99.6541 5.04577 100.767 4.99615ZM100.463 455.624C101.124 455.835 101.783 456.045 102.434 456.257C104.029 456.234 105.627 456.21 107.231 456.187C107.278 456.36 107.324 456.534 107.371 456.707C100.306 456.482 101.935 456.981 98.437 457.472C99.1162 456.857 99.784 456.241 100.463 455.624ZM189.182 14.7392C193.975 16.6329 195.533 17.5972 192.67 16.9785C191.045 16.2046 189.372 15.4514 187.713 14.741C188.205 14.7391 188.699 14.7396 189.182 14.7392ZM3.49122 224.986C3.68495 220.715 2.98913 220.644 3.3777 216.469C3.506 218.704 3.63573 220.94 3.76403 223.166C3.67332 223.767 3.58195 224.384 3.49122 224.986ZM1.58032 434.477C1.33826 432.675 2.48891 429.306 1.63952 424.24C1.89303 423.033 2.13517 422.276 2.3835 421.239C2.11339 420.635 1.83982 419.949 1.57178 419.373C1.57178 419.37 1.57178 419.367 1.57178 419.363C1.66285 414.768 2.00162 417.748 2.28829 417.644C2.40713 417.595 2.20848 414.185 2.46712 415.25C2.9111 417.09 2.6558 423.965 3.19706 423.984C3.02017 421.569 3.16799 416.852 3.52908 418.247C3.92542 419.775 3.2612 424.22 3.59011 427.051C2.72502 422.995 2.99224 431.372 3.65664 432.325C3.14643 437.241 2.9383 432.723 2.96209 427.684C2.45292 430.76 2.72801 426.233 2.30477 425.487C2.04929 428.659 2.26226 439.543 1.58032 434.477ZM212.061 435.734C209.13 437.537 204.517 440.342 202.206 440.971C200.879 441.354 205.568 438.791 202.103 440.088C205.09 438.639 205.818 438.378 205.481 438.958C206.171 438.638 206.864 438.307 207.553 437.969C207.828 437.739 208.111 437.504 208.383 437.271C208.8 437.197 209.219 437.118 209.627 437.044C210.311 436.614 211.006 436.166 211.681 435.719C211.8 435.73 211.971 435.698 212.061 435.734ZM3.51257 102.341C3.50843 103.285 3.50432 104.219 3.49914 105.162C3.41523 105.058 3.32784 104.934 3.24159 104.815C3.17344 104.73 3.10528 104.644 3.03713 104.559C3.28062 105.105 3.68533 109.599 3.4253 111.492C3.29485 112.444 2.83173 110.278 2.75089 114.313C2.77471 111.389 2.83791 108.68 2.87723 105.841C2.73958 106.095 2.60046 106.34 2.46282 106.595C2.46261 106.593 2.46241 106.592 2.46221 106.59C2.43117 105.647 2.39865 104.692 2.36761 103.749C2.7495 103.277 3.13068 102.813 3.51257 102.341ZM269.13 337.796C268.318 340.961 267.973 341.969 267.817 340.404C267.817 340.4 267.818 340.397 267.818 340.394C268.22 339.252 268.618 338.08 269.003 336.932C269.046 337.217 269.09 337.496 269.13 337.796ZM2.44025 290.233C4.09918 283.392 3.08223 298.797 2.51715 295.864C2.49128 295.732 2.62343 290.874 2.44025 290.233ZM89.7438 456.172C91.6213 456.185 93.5031 456.197 95.3901 456.211C94.956 456.415 94.5118 456.618 94.0778 456.822C92.6342 456.605 91.1873 456.388 89.7438 456.172ZM209.86 23.5265C211.839 24.1194 216.317 26.7643 218.082 28.6547C216.965 27.9378 215.835 27.2417 214.696 26.5679C216.756 27.9798 218.747 29.4527 220.726 31.0142C220.446 31.6093 218.388 29.5227 214.654 27.2746C214.078 26.9059 210.034 25.3067 209.042 24.0759C208.845 23.8044 212.83 26.0868 210.271 24.1455C211.491 24.8346 212.508 25.4677 213.63 26.1652C213.793 26.0895 213.954 26.0134 214.125 25.9434C212.714 25.1027 211.302 24.304 209.86 23.5265ZM194.186 444.701C189.825 446.488 189.159 446.391 188.097 446.308C190.159 445.63 192.229 444.894 194.269 444.111C194.238 444.309 194.219 444.502 194.186 444.701ZM241.581 51.3298C243.199 53.3662 242.234 52.6926 242.795 53.5755C244.879 56.9272 246.564 59.036 248.422 62.454C248.351 62.1966 248.286 61.9599 248.216 61.7123C248.218 61.7152 248.22 61.7181 248.222 61.721C257.348 77.7258 252.273 69.4398 246.701 59.985C246.449 59.8388 246.202 59.7027 245.951 59.5588C243.527 55.2853 240.936 51.5518 241.581 51.3298ZM2.3835 351.004C2.29864 350.797 1.75934 352.561 2.01181 349.25C2.79921 346.627 2.4084 350.928 2.71124 352.005C2.78679 351.109 2.86029 350.192 2.93584 349.305C3.15835 354.664 2.97112 355.446 2.3957 353.493C2.35703 353.354 2.46809 351.213 2.3835 351.004ZM1.99533 315.784C3.15548 315.048 2.63379 321.812 2.27364 321.566C2.25928 320.633 2.45571 319.907 2.36885 318.917C2.28193 317.917 2.01094 317.661 1.99533 315.784ZM58.0531 457.221C57.855 457.226 55.8644 457.714 56.0621 457.332C58.5246 456.428 63.4864 457.01 62.6184 457.325C60.9773 457.309 59.8829 457.173 58.0531 457.222C58.0531 457.222 58.0531 457.221 58.0531 457.221ZM181.29 11.0584C181.388 11.0333 186.266 12.3655 186.811 12.7679C187.255 13.1358 187.435 13.4306 187.744 13.7631C185.203 12.6319 179.793 11.1741 181.3 11.0613C181.297 11.0603 181.293 11.0594 181.29 11.0584Z" fill="#23A5E9"/>
</svg>
