<svg width="285" height="447" viewBox="0 0 285 447" fill="none" xmlns="http://www.w3.org/2000/svg" preserveAspectRatio="none">
<path d="M205.374 333.051C204.295 335.925 206.713 326.077 204.641 332.516C204.891 331.134 205.142 329.744 205.392 328.362C205.711 328.067 206.031 327.762 206.35 327.467C206.025 329.325 205.701 331.184 205.375 333.051C205.374 333.051 205.374 333.051 205.374 333.051ZM207.887 336.223C207.554 334.385 208.522 328.98 206.634 334.638C206.774 335.15 206.911 335.673 207.051 336.185C206.433 338.158 205.813 340.143 205.197 342.116C205.132 342.859 205.068 343.601 205.002 344.344C204.389 345.177 203.777 346.001 203.163 346.833C203.4 346.028 203.64 345.212 203.876 344.407C204.235 341.099 204.761 338.201 205.642 333.796C205.461 334.16 205.281 334.526 205.1 334.89C205.746 332.697 206.392 330.506 207.036 328.322C206.786 330.285 206.505 332.479 206.273 334.298C207.538 331.579 208.26 326.46 208.688 323.806C209.271 320.192 209.407 321.067 209.847 318.387C209.918 317.959 209.686 317.859 209.862 317.021C210.75 312.794 212.641 304.62 212.176 309.538C210.609 316.473 209.79 322.498 208.158 329.282C209.2 327.618 208.65 331.259 207.887 336.223ZM233.245 208.09C233.11 210.264 232.06 214.526 231.215 217.385C231.214 217.389 231.214 217.392 231.213 217.395C231.027 218.025 230.293 219.382 230.759 217.298C231.52 213.9 232.539 212.397 232.471 210.514C232.727 209.732 232.982 208.909 233.245 208.09ZM234.796 200.684C235.407 198.631 235.704 199.685 235.007 202.271C235.007 202.271 235.008 202.271 235.008 202.271C234.717 203.35 234.782 201.123 234.342 205.122C233.858 205.854 233.405 206.58 232.933 207.304C233.134 206.345 233.313 205.47 233.525 204.464C233.893 205.25 234.185 202.736 234.796 200.684ZM212.651 305.949C212.26 305.521 211.967 306.897 211.143 309.169C211.633 306.963 212.125 304.756 212.613 302.559C212.625 303.692 212.639 304.815 212.651 305.949ZM201.422 357.853C201.421 357.856 201.42 357.86 201.42 357.863C201.337 358.603 201.254 359.345 201.172 360.075C200.914 360.472 200.658 360.865 200.4 361.262C200.005 363.853 199.607 366.459 199.213 369.05C198.776 368.631 199.845 364.057 200.037 361.451C200.997 357.722 201.679 355.972 202.158 355.819C201.914 356.495 201.668 357.168 201.422 357.853ZM12.1943 5.63132C11.3191 5.7741 10.4549 5.91699 9.57976 6.05977C10.7433 6.12493 11.8977 6.17467 13.0709 6.25019C16.1394 5.62931 16.4276 6.17852 20.4478 6.14033C32.7709 6.02235 29.5014 5.05803 40.6307 6.47051C31.6953 6.40332 35.1291 7.06702 29.7421 7.57825C28.6262 7.18911 33.9642 6.31149 30.347 6.12934C24.1142 6.54117 18.1205 6.92474 11.2048 7.19069C11.4068 7.25795 11.6078 7.32545 11.8098 7.39271C12.9065 7.35028 13.994 7.30758 15.0907 7.26515C13.9074 7.44523 12.7508 7.62375 11.5483 7.80589C13.0681 7.39715 9.19468 7.62554 9.71305 7.1559C9.94394 6.94685 11.6558 6.65683 12.6659 6.45708C10.0594 6.34844 7.38604 6.24892 4.75064 6.14338C6.11616 5.97682 7.48052 5.81008 8.83642 5.64353C9.95171 5.63835 11.0585 5.63466 12.1737 5.62949C12.1806 5.6301 12.1874 5.63071 12.1943 5.63132ZM118.824 440.195C115.515 440.682 109.501 440.762 106.336 440.221C110.501 440.213 114.659 440.204 118.824 440.195ZM202.563 355.65C202.404 355.999 202.247 356.336 202.088 356.685C202.286 355.036 202.487 353.377 202.685 351.727C202.985 351.467 203.287 351.2 203.588 350.93C203.248 352.5 202.904 354.08 202.563 355.65ZM224.541 252.116C224.301 253.302 224.271 253.405 223.921 254.871C223.922 254.87 223.922 254.868 223.923 254.867C223.785 255.448 222.598 260.306 222.535 259.723C223.054 257.295 223.613 254.708 224.147 252.225C224.281 252.175 224.402 252.184 224.541 252.116ZM218.298 280.656C218.297 280.66 218.296 280.663 218.295 280.666C218.077 281.544 217.842 282.368 217.636 283.278C218.058 279.935 218.677 279.526 219.174 276.514C219.67 273.502 219.786 271.599 221.026 269.219C220.928 270.182 220.859 271.227 220.772 272.222C219.585 276.394 219.601 277.59 219.146 281.043C218.863 280.914 218.581 280.786 218.298 280.656ZM67.0576 7.07107C67.8847 6.71923 68.8073 7.06447 68.9031 7.06863C68.9014 7.06903 68.8997 7.06944 68.898 7.06985C76.2254 6.74401 67.9443 7.26461 74.86 7.31947C73.831 7.40741 72.8189 7.50026 71.7995 7.58923C70.2224 7.41955 68.5962 7.22729 67.0576 7.07107ZM272.66 29.1419C272.545 29.1862 272.428 29.2434 272.314 29.2878C273.21 25.2298 273.038 24.1089 274.123 20.8099C273.636 23.5877 273.149 26.3646 272.661 29.1422C272.66 29.1421 272.66 29.142 272.66 29.1419ZM229.671 231.793C228.894 236.339 228.262 239.69 227.029 243.951C227.028 243.954 227.027 243.958 227.026 243.961C226.953 244.206 227.003 242.955 226.88 243.269C226.72 244.168 226.57 245.101 226.413 246.011C226.219 246.097 226.027 246.177 225.833 246.264C226.427 243.735 227.02 241.204 227.615 238.666C227.436 239.021 227.256 239.385 227.077 239.741C227.492 237.567 227.904 235.401 228.319 233.227C228.432 234.039 228.546 234.848 228.662 235.65C228.999 234.365 229.334 233.078 229.671 231.793ZM235.959 5.98287C236.69 6.09464 235.336 6.28211 236.471 6.37835C237.607 6.47338 239.699 6.2648 239.209 6.58037C237.681 6.62277 236.075 6.67139 234.518 6.71586C239.53 7.28491 244.53 6.76999 244.607 7.47266C239.797 7.29052 235.842 7.37514 231.186 7.5697C231.378 7.01193 236.036 6.52967 233.103 6.00606C234.045 5.99882 235.035 5.98823 235.948 5.98409C235.952 5.98368 235.955 5.98327 235.959 5.98287ZM195.257 422.937C194.617 425.712 193.468 432.139 192.395 435.588C192.131 436.437 190.497 439.102 190.366 439.058C189.934 438.877 190.63 435.343 189.526 439.051C189.795 437.782 190.043 436.547 190.305 435.286C189.954 435.446 189.604 435.606 189.256 435.758C188.972 437.3 188.688 438.845 188.405 440.388C188.289 440.442 188.173 440.496 188.056 440.549C189.239 435.037 188.153 438.208 188.407 435.271C187.659 437.865 186.908 440.478 186.162 443.063C186.51 441.554 186.91 439.77 187.223 438.441C186.749 438.152 186.186 441.364 185.974 441.89C184.776 444.85 188.412 429.251 187.941 427.809C187.32 430.292 186.675 432.899 186.044 435.44C186.109 434.686 186.177 433.923 186.242 433.17C188.004 427.478 189.585 421.01 191.359 414.318C191.469 413.702 191.579 413.086 191.688 412.48C191.418 412.609 191.151 412.728 190.881 412.857C191.051 411.929 191.225 410.99 191.396 410.063C191.574 412.944 192.373 409.179 193.814 404.736C193.563 407.21 192.76 410.157 193.304 410.059C194.702 401.681 197.333 392.084 198.633 383.922C198.956 381.896 198.31 381.764 199.382 377.067C199.418 377.242 199.54 377.297 199.611 377.421C201.053 369.209 201.931 364.228 204.064 355.831C203.728 356.27 203.392 356.701 203.055 357.14C202.784 358.961 202.515 360.785 202.246 362.597C201.601 363.737 201.821 361.895 200.673 367.256C199.732 371.649 200.462 369.071 200.319 370.289C200.126 371.94 199.517 373.294 199.316 375.071C199.159 376.444 199.788 375.057 198.954 378.548C198.848 377.05 198.735 375.52 198.627 374.01C198.903 373.174 199.179 372.345 199.456 371.509C199.379 372.398 199.304 373.272 199.227 374.161C199.686 371.071 200.12 368.152 200.593 364.958C200.964 366.11 201.442 362.806 201.752 361.023C202.235 358.245 202.135 360.692 202.455 358.872C202.774 357.051 202.738 355.006 203.537 351.764C203.424 353.569 204.171 351.241 204.315 351.753C204.459 352.266 203.771 355.729 204.749 352.47C205.918 346.05 203.506 352.77 204.282 348.432C205.213 343.22 206.985 342.313 206.978 343.925C206.972 345.193 206.023 349.357 206.015 350.634C208.08 343.255 207.189 342.996 207.287 341.679C207.641 336.894 208.69 340.385 209.25 334.749C209.55 334.922 209.821 335.068 210.107 335.238C210.253 334.276 210.31 333.629 210.51 332.472C209.157 335.719 209.778 332.957 210.083 331.536C210.562 329.297 209.513 332.689 209.561 332.079C209.694 330.435 210.333 327.927 209.724 329.419C210.002 328.75 210.293 328.024 210.574 327.336C210.976 324.687 210.954 318.252 209.968 324.16C209.586 323.507 210.233 321.666 210.626 320.206C211.019 318.746 210.696 318.705 211.033 317.42C212.377 312.308 212.195 315.802 212.445 316.711C213.617 309.83 211.988 316.464 213.904 306.596C213.761 305.571 212.415 310.032 213.027 306.208C213.78 305.641 214.811 302.95 216.177 297.567C216.152 297.011 216.125 296.455 216.1 295.899C217.293 293.056 217.546 294.694 218.034 289.063C218.672 292.28 218.294 290.081 219.866 285.283C220.185 284.308 219.953 286.669 220.386 285.305C220.582 284.687 220.712 283.113 221.197 281.605C221.434 280.869 222.68 277.456 222.971 274.97C221.972 276.625 222.443 271.884 221.081 275.744C222.783 268.434 223.591 263.237 222.663 271.637C223.25 269.815 223.836 267.991 224.421 266.169C224.553 264.839 224.689 263.499 224.824 262.16C225.372 262.071 225.472 262.3 226.481 257.168C226.124 259.412 225.77 261.648 225.412 263.901C225.498 263.998 225.537 264.331 225.653 264.278C226.045 261.508 227.613 253.806 227.878 251.915C228.144 250.024 227.334 253.612 227.319 253.048C227.202 248.35 227.92 248.875 228.424 245.63C228.719 243.726 227.635 248.191 227.805 247.175C228.436 243.407 229.38 241.799 230.099 238.492C229.521 239.597 228.941 240.692 228.367 241.769C229.13 238.302 229.964 234.434 230.553 231.186C230.785 229.911 230.338 230.816 230.366 230.605C230.503 229.561 231.269 225.358 231.363 224.915C232.077 221.587 232.431 221.564 233.145 218.335C232.9 219.61 232.669 220.809 232.43 222.056C232.851 222.737 233.269 223.429 233.691 224.11C234.412 220.95 235.132 217.788 235.854 214.618C235.174 216.901 234.493 219.194 233.813 221.478C234.155 217.753 234.496 214.028 234.837 210.304C235.512 208.471 236.186 206.646 236.861 204.814C237.894 199.665 236.579 200.464 238.059 198.234C238.304 196.703 238.548 195.172 238.794 193.641C238.884 193.886 238.975 194.13 239.065 194.375C239.373 192.533 239.681 190.691 239.988 188.848C239.093 190.663 238.18 192.434 237.302 194.233C237.968 190.619 238.394 190.639 238.611 190.125C239.187 188.763 239.427 185.866 239.921 184.791C240.089 184.428 239.603 188.005 240.175 186.859C240.286 186.635 242.444 182.17 242.825 179.107C242.606 179.119 242.302 179.297 242.05 179.37C242.793 175.301 244.318 173.472 244.507 174.073C244.757 171.873 245.416 168.722 245.179 168.208C245.407 167.106 245.634 166.012 245.863 164.91C246.425 166.231 247.263 161.609 246.633 161.159C246.209 163.046 245.784 164.934 245.361 166.821C244.816 165.208 243.067 170.843 246.425 159.059C247.36 156.869 245.492 163.108 246.224 161.317C247.112 158.124 247.604 155.052 248.573 152.043C249.781 148.299 249.14 153.087 250.565 144.066C245.109 163.468 250.314 141.19 251.918 131.872C253.678 129.593 255.739 121.876 257.686 111.057C257.107 112.104 256.555 115.521 256.026 117.444C255.496 119.366 255.748 117.217 255.069 119.608C254.39 122 253.068 127.107 252.302 129.511C252.557 127.39 254.312 117.026 253.396 123.931C254.82 118.935 255.675 116.63 257.088 110.363C256.965 108.368 256.607 108.437 257.907 102.312C257.862 106.09 259.866 99.2425 260.293 100.937C259.184 105.24 258.97 102.656 258.079 105.091C257.988 105.341 257.303 109.425 257.088 110.363C258.626 106.423 259.175 105.064 259.422 107.744C259.973 104.842 260.458 103.067 260.139 102.723C260.431 102.156 260.725 101.586 261.015 101.029C261.213 100.088 261.379 99.2391 261.596 98.2437C260.735 99.4939 261.655 96.9095 261.805 94.9641C261.954 93.0184 260.962 95.4587 262.072 90.2656C261.567 91.9677 261.114 93.5255 260.628 95.1727C261.202 91.7935 261.777 88.4036 262.351 85.0245C261.5 87.3015 259.891 92.2865 259.465 92.0494C259.969 90.5442 260.802 85.1968 260.914 84.616C261.348 82.3675 261.373 83.6491 261.417 83.4813C262.312 79.9946 262.837 77.077 263.559 75.8352C263.93 73.1504 264.471 71.1815 265.062 68.3769C265.387 66.8332 265.003 67.0644 265.258 66.1748C266.952 60.2615 266.136 66.0668 267.838 54.3232C267.314 55.6766 266.789 57.0102 266.264 58.3632C266.461 57.0378 266.655 55.7199 266.852 54.3945C267.081 53.5286 267.308 52.6704 267.536 51.8044C268.015 51.9269 268.494 52.0534 268.972 52.1759C269.205 51.2222 269.437 50.2645 269.67 49.3108C269.364 50.967 269.057 52.6271 268.75 54.2833C268.803 54.4519 268.858 54.6105 268.91 54.7791C269.567 52.362 270.224 49.9537 270.882 47.5368C270.724 47.4538 270.565 47.3711 270.407 47.288C271.825 41.8268 271.996 41.7261 272.659 36.3883C273.531 32.3545 273.536 28.918 273.741 26.5219C274.015 25.7053 274.291 24.8878 274.567 24.0618C274.542 23.4957 274.52 22.9242 274.495 22.358C274.918 21.3371 275.344 20.3016 275.765 19.2804C275.452 18.5934 275.38 18.257 274.334 22.3706C274.091 20.8324 275.902 13.5837 276.725 10.6513C277.349 8.42659 277.269 11.0266 277.385 10.7565C277.776 9.85561 278.412 6.10446 278.611 5.33074C278.663 5.12833 278.713 4.92957 278.763 4.73408L280 6.2656C276.944 6.15755 274.684 6.17211 271.823 6.07502C271.23 6.05431 269.57 5.75781 269.429 5.7485C268.333 5.69779 265.626 5.55368 265.318 5.54954C249.439 5.3282 266.406 6.61459 251.641 6.47906C252.083 6.6487 252.489 6.8172 252.922 6.98684C251.807 6.99719 250.68 7.00702 249.564 7.01736C248.15 6.87558 249.861 6.61774 247.052 6.82572C247.235 6.61668 247.419 6.40754 247.611 6.19953C246.389 6.31234 245.212 6.42423 243.961 6.53704C241.999 5.81158 234.834 5.64683 235.344 4.79518C235.517 4.5054 240.596 4.20806 237.912 3.89862C235.731 3.8377 237.207 4.18379 236.318 4.20195C229.891 4.32821 230.265 3.84311 227.638 3.97247C227.225 4.18037 226.79 4.39235 226.367 4.60232C225.377 4.54129 224.384 4.48025 223.384 4.41922C223.153 4.55894 222.912 4.6988 222.681 4.83851C223.614 4.84783 224.665 4.85727 225.521 4.86659C224.327 5.40773 213.364 5.6508 217.545 5.18945C219.247 5.00215 222.365 5.08173 220.395 4.44241C217.461 4.53452 214.132 4.62862 211.044 4.72072C210.948 4.58308 210.858 4.44518 210.762 4.30753C206.601 4.39663 210.385 4.94697 210.378 5.24194C209.426 5.25021 208.464 5.25746 207.512 5.26574C207.109 5.13237 206.725 4.99277 206.302 4.86354C206.264 5.07578 205.73 5.56911 202.893 5.38597C201.069 5.26677 203.942 4.7313 200.463 4.80556C200.723 5.13666 201.98 5.53994 198.105 5.64658C197.72 5.301 197.188 4.98442 196.89 4.62124C192.071 4.95323 189.879 4.41957 184.223 4.80556C180.634 5.04981 175.719 5.91683 173.401 4.58096C170.776 4.54579 171.609 4.87846 170.832 4.95325C167.167 5.3072 164.441 4.67375 163.758 4.6365C159.402 4.39767 157.449 4.61694 153.9 4.31791C154.092 4.56526 154.197 4.79939 154.351 5.04053C157.602 4.67003 159.249 4.68742 163.809 4.76711C162.28 4.81677 160.75 4.86758 159.221 4.91724C159.471 5.11796 159.719 5.31873 159.959 5.51841C174.062 4.72773 170.772 5.97697 158.949 6.25019C157.93 5.87872 156.873 5.50824 155.863 5.13574C149.033 5.69871 145.819 5.20999 138.095 5.09302C137.177 5.07964 133.832 5.29362 132.394 5.30419C132.418 5.30561 132.442 5.30704 132.466 5.30846C131.572 5.65924 132.783 5.82069 132.927 6.13422C132.148 6.17354 131.369 6.2127 130.59 6.25202C128.85 6.01302 129.461 5.81671 126.037 5.87362C126.499 6.11162 126.955 6.34969 127.416 6.58769C123.665 6.59597 121.209 6.33738 117.717 6.44915C118.304 6.35911 118.884 6.26882 119.47 6.17878C111.871 5.94902 117.919 4.5497 112.175 5.24621C111.81 5.12413 111.454 5.00087 111.089 4.87879C113.455 4.84879 115.822 4.81969 118.179 4.78969C118.227 4.61692 118.278 4.4449 118.317 4.27213C115.787 4.32388 113.244 4.37724 110.714 4.42899C112.561 4.31308 114.419 4.19702 116.266 4.0811C113.333 3.99832 110.398 3.91549 107.464 3.8327C110.58 4.46799 106.541 4.54568 107.3 5.1748C102.105 4.65113 98.0248 3.96083 89.9728 4.40274C88.3765 4.49078 89.2436 4.93041 84.7131 4.39542C85.8096 5.09493 80.1339 5.42318 80.8631 6.08845C82.4403 6.05638 84.0759 6.0362 85.6051 5.9969C83.8639 5.76613 83.5752 5.13128 86.2202 4.94288C89.5967 4.70279 94.5215 5.14277 94.32 4.43814C95.6664 4.47125 96.9186 4.49078 98.2264 4.5187C97.688 4.6935 97.1608 4.8694 96.632 5.04419C100.353 4.77015 102.692 4.85927 104.481 5.29992C100.046 5.40132 95.6219 5.50165 91.1878 5.60202C91.841 5.63199 92.5031 5.66219 93.1563 5.69113C89.7989 6.14132 93.2621 6.56774 86.9995 6.66398C87.0379 6.45809 87.0687 6.25205 87.1071 6.04512C84.8271 6.5957 78.5846 6.59272 80.576 7.22609C78.6907 7.03154 78.3063 6.90849 77.2387 7.24989C72.2651 6.76865 69.0708 6.16009 70.8409 5.43358C68.9942 5.5505 67.1465 5.66759 65.3094 5.78451C66.377 5.98317 67.4459 6.18091 68.5135 6.37957C65.3003 6.36715 62.0638 6.35495 58.8604 6.34357C58.5525 5.75581 65.0449 6.16525 63.1717 5.63986C62.7969 5.53441 61.0678 5.7603 60.6136 5.7009C55.8232 5.05827 63.3435 5.52255 61.9311 5.03015C54.793 4.87802 60.5052 4.05295 50.6734 4.74635C50.4137 4.57666 50.1346 4.40356 49.8942 4.23491C46.4812 4.22472 46.758 4.60801 43.8244 4.68044C41.9873 4.7255 39.6814 4.05245 37.6522 4.51077C37.2905 4.59527 40.7037 5.4179 33.5305 5.3817C27.9634 5.35364 30.2805 4.77229 27.2711 4.56631C24.26 4.36036 17.3717 5.16644 15.3419 4.2526C16.9191 4.37364 18.9281 4.43894 20.6785 4.53824C21.3903 4.36026 22.0833 4.1842 22.7855 4.00726C18.7836 4.23699 14.6469 3.96622 11.9533 4.39054C9.04785 4.03742 5.95523 4.05479 4 4.26206L3.25661 4.26759L3.26206 5C3.43568 6.63772 3.74255 7.47753 4.07654 6.7408C3.98013 5.13706 3.70561 6.58908 3.8131 5L3.81172 4.8145L4 4.8131C4.15218 4.8234 4.33226 4.8372 4.54559 4.85499C4.7957 5.02575 5.05931 5.19568 5.30943 5.36644C4.85634 5.36418 4.41835 5.36223 4 5.35987L4.35987 5C4.34054 8.41896 4.29378 10.5261 3.82997 8.83752C3.81755 9.48206 3.80516 10.1205 3.79274 10.7651C4.16945 10.8805 4.54756 10.9829 4.92427 11.0983C4.9667 11.8678 5.00879 12.6408 5.05122 13.4103C4.96848 14.266 4.88477 15.1237 4.80099 15.9889C4.20487 14.8249 4.18519 12.8422 3.85194 19.4031C4.05789 19.4224 4.26302 19.4505 4.46897 19.4698C4.20715 24.9625 3.70826 25.1075 3.72682 32.004C3.01178 26.7131 4.27929 23.8183 2.84491 23.8375C2.93909 22.51 3.03453 21.1716 3.12871 19.844C2.92069 19.642 2.71237 19.4417 2.50435 19.2494C2.61408 26.3772 3.98212 38.2176 3.075 42.9899C3.1857 43.567 3.28193 44.1463 3.40091 44.7329C2.85344 49.4083 4.08256 51.4273 3.37467 56.17C3.30038 56.6593 2.1456 55.6355 2.18698 61.8092C2.33707 61.6553 2.58968 61.5753 2.779 61.4503C2.68692 62.787 2.59056 64.1167 2.49642 65.4438C2.63504 65.6842 2.77361 65.9365 2.91327 66.1769C2.96708 63.8969 3.0218 61.6233 3.07561 59.3433C3.1232 61.2377 3.17084 63.1444 3.21843 65.0388C3.44499 62.5672 3.4474 61.4523 3.81044 62.9421C3.83217 65.0874 3.85523 67.2356 3.87696 69.3809C3.96998 69.6019 4.06408 69.8213 4.1571 70.0422C4.43444 69.0034 4.70566 67.954 4.98714 66.9151C4.7605 72.5041 4.74819 77.3632 4.20287 81.6536C4.11077 82.3847 3.74945 79.7991 4.07532 84.7808C3.88396 84.8578 3.72857 84.9916 3.55166 85.0781C4.08775 91.1773 3.92774 93.1809 3.54068 99.5398C3.90187 95.4224 3.66695 99.0961 3.86048 100.145C3.99382 100.863 3.97412 98.0589 4.11377 98.3761C4.25244 98.6935 4.81237 102.338 4.87972 99.222C3.73199 91.5836 5.1042 89.5027 4.55259 79.6902C4.70058 81.2005 4.84891 82.7219 4.9969 84.2322C5.09721 83.521 5.18821 82.8841 5.29474 82.115C5.0702 87.5878 5.21608 84.9261 5.393 87.1748C5.56997 89.4259 5.72032 93.5172 5.76896 96.2589C5.78424 97.1225 5.52682 96.2117 5.50286 98.1608C5.4863 99.4882 5.86792 103.116 5.41802 103.954C5.12517 104.502 4.31874 98.6737 4.32067 106.732C4.03356 108.249 4.12273 104.385 4.08813 104.302C3.74661 103.6 3.48983 108.554 3.75063 110.844C3.77312 111.029 4.03925 109.221 4.14367 111.187C4.39309 115.853 4.08788 118.547 3.67495 121.568C4.15929 121.895 4.73773 125.822 4.55869 130.709C4.6973 130.959 4.83712 131.197 4.97676 131.447C4.9034 130.688 4.83102 129.929 4.75766 129.171C4.84459 128.343 4.90787 127.467 5.01033 126.659C5.12944 131.573 5.79694 132.269 6.04116 134.625C6.87544 142.69 5.11067 137.802 4.80648 136.348C4.92964 135.299 5.06711 134.285 5.19648 133.246C5.02778 133.362 4.85781 133.479 4.68808 133.585C4.69324 145.657 3.59304 135.423 3.27946 141.551C4.10942 143.129 4.18941 147.629 3.66274 153.362C3.66688 153.997 3.66794 154.634 3.67312 155.269C3.79413 155.375 3.9791 155.374 4.05884 155.546C4.19959 162.453 2.92144 163.684 2.80036 164.338C2.26332 167.243 3.00638 169.505 3.01275 170.362C3.03862 173.969 2.70868 175.017 2.8504 178.451C3.00354 182.145 3.2567 179.619 3.48331 180.743C3.66326 181.644 3.69532 184.558 3.88185 185.762C3.72928 185.283 3.57968 184.752 3.42655 184.275C3.21857 188.103 3.01585 191.231 2.96514 195.579C4.08142 200.485 2.1984 204.659 3.7256 202.966C3.83013 198.849 4.00416 196.546 4.39329 194.343C4.44296 197.046 4.49133 199.751 4.54099 202.453C4.37338 203.242 4.21003 203.802 4.03931 204.735C4.39525 206.754 4.24251 211.437 4.34691 213.275C4.83642 221.885 5.44356 219.222 4.4232 227.081C4.32378 221.416 3.8282 221.425 3.89649 215.808C3.54256 217.02 3.61589 219.875 3.19157 218.027C3.29609 223.462 3.67492 221.705 4.01123 223.82C4.30117 225.645 4.3174 229.318 4.69418 229.111C4.48703 229.486 4.28648 229.777 4.07959 230.152C4.08166 233.672 4.08179 237.192 4.08386 240.712C3.8676 239.212 3.65093 237.711 3.4357 236.211C3.35402 237.345 3.27265 238.481 3.19096 239.615C3.86365 248.273 2.63078 263.203 4.32067 260.818C4.37448 264.993 4.16253 265.515 3.84279 267.785C3.97108 268.035 4.07779 268.278 4.22057 268.528C4.08627 271.221 4.56793 273.288 4.44273 275.664C4.31849 278.04 3.86353 278.63 4.62827 278.976C4.40891 280.515 4.22668 282.045 4.02283 283.574C4.19656 284.497 4.36829 285.419 4.54099 286.332C4.44993 287.775 4.35924 289.221 4.26818 290.664C4.63323 291.435 4.47588 297.109 4.72104 299.61C4.32753 301.984 3.08857 301.919 3.31059 307.505C3.61787 307.36 3.92427 307.218 4.23156 307.074C4.16741 308.353 4.10346 309.635 4.03931 310.924C3.93901 311.001 3.83871 311.067 3.73842 311.144C3.76946 310.49 3.80034 309.845 3.83241 309.191C3.66268 309.759 3.49374 310.315 3.32401 310.873C3.57546 312.825 3.82693 314.78 4.07837 316.742C4.26875 314.098 4.45925 311.452 4.64963 308.807C4.87524 312.126 4.65021 314.436 4.90169 317.322C4.47745 319.832 4.23299 318.905 3.7726 317.886C3.81191 318.818 3.84986 319.762 3.88917 320.695C3.42871 320.08 3.15435 321.657 3.19157 316.204C3.06024 316.579 2.93502 316.961 2.79853 317.327C2.81922 318.221 2.70821 318.801 2.75885 319.782C2.89753 322.457 3.7063 324.507 3.98987 324.324C4.13841 324.226 3.85434 321.589 4.06433 321.695C4.57641 321.955 4.3465 328.005 4.8608 319.28C5.1868 322.176 4.94095 322.822 4.84676 326.016C5.0174 325.766 5.18696 325.523 5.3576 325.283C5.27898 326.764 5.20064 328.247 5.12202 329.728C4.24548 327.669 3.91626 338.588 3.14946 328.759C3.11014 331.663 3.07061 334.558 3.02923 337.453C2.93921 336.857 2.85009 336.26 2.76008 335.664C2.80768 334.356 2.85449 333.056 2.90106 331.747C2.73656 333.286 2.57303 334.828 2.40853 336.366C2.61241 340.003 2.92597 341.428 3.31303 343.092C3.59548 338.861 3.20966 340.243 3.13298 336.946C3.3781 337.061 3.60356 336.909 3.86109 337.197C3.35337 338.901 3.72274 344.459 3.74758 345.748C3.82299 349.671 3.32413 346.594 3.31364 349.218C3.30329 351.845 3.60021 354.942 3.10552 357.088C3.38279 357.049 3.66966 356.877 3.92213 356.724C4.0132 360.812 3.68564 359.996 3.64321 360.42C2.9457 367.173 3.53457 370.837 3.60598 378.562C3.69186 377.581 3.7694 376.59 3.85011 375.599C4.43881 381.427 4.25856 377.501 4.45311 372.441C4.39412 377.184 4.89548 379.9 5.04451 383.248C5.19328 386.595 4.93578 392.336 4.73507 394.434C4.41218 389.633 4.62511 384.456 4.53611 379.126C4.25365 379.732 4.0146 380.321 3.70424 380.946C4.29708 384.188 3.90068 386.066 3.82203 387.134C3.59136 390.269 4.10019 390.171 3.55288 392.065C3.74116 391.988 3.89947 391.932 4.07532 391.855C3.99667 398.329 3.66381 405.312 4.35912 409.526C3.9069 409.911 3.47122 410.201 3.0097 410.644C3.35011 413.385 3.00151 415.733 3.0811 418.041C3.16079 420.34 3.52625 419.465 3.66701 422.168C3.69289 422.668 3.46414 423.71 3.63283 424.941C3.80242 426.185 5.06334 430.77 3.9618 431.319C3.95662 433.637 3.91634 435.831 3.89771 438.101C3.83562 435.888 3.77549 433.675 3.7134 431.472C3.44642 433.358 3.18024 435.231 2.91327 437.117C3.1513 437.357 3.39363 437.598 3.62856 437.829C3.73494 439.694 3.74982 441.371 3.73059 443L3.73261 443.271L4 443.269C6.809 443.303 9.47674 443.437 12.7218 443.379C13.5779 443.363 11.5582 442.893 15.3568 443.013C19.1565 443.133 21.9764 444.011 28.4498 443.672C28.7769 443.654 30.6938 442.981 33.0123 443.447C33.5399 443.553 31.3194 443.709 32.5304 443.848C33.7426 443.986 39.1509 444.1 39.5742 444.43C39.5165 444.313 39.179 444.192 39.0154 444.073C39.9387 444.017 40.8713 443.962 41.8042 443.907C41.8907 444.113 41.9842 444.319 42.0708 444.524C47.3808 444.045 50.1251 443.263 57.9935 443.522C55.7811 443.223 53.5678 442.922 51.365 442.623C50.7589 442.833 50.1518 443.045 49.5554 443.255C45.9292 443.171 42.2929 443.088 38.6668 443.004C38.0703 443.243 37.4844 443.481 36.8879 443.721C35.9261 443.69 34.9738 443.659 34.012 443.628C34.2524 443.456 34.495 443.284 34.7451 443.111C32.8407 443.153 30.934 443.197 29.0393 443.239C32.8967 442.219 39.8115 443.326 39.3127 442.472C40.1684 442.605 41.0254 442.738 41.8811 442.872C42.2564 442.458 43.9965 442.577 47.0639 442.642C46.3617 442.438 45.5861 442.237 44.9416 442.031C47.9238 442.319 53.2138 442.291 56.3018 442.402C57.658 442.45 56.3033 442.75 56.7068 442.786C58.7751 442.97 62.7284 442.446 63.5557 442.488C68.5002 442.734 71.7133 443.726 77.11 443.072C71.54 442.911 74.5703 442.979 72.5885 442.616C71.9681 442.502 64.7723 442.264 73.783 442.37C74.8394 442.383 91.1892 443.069 85.8148 443.594C88.4603 443.427 90.5316 443.233 92.9559 443.055C98.8819 444.439 96.831 443.139 95.109 442.422C96.0806 442.419 97.005 442.412 98.0055 442.412C95.8794 443.164 106.711 443.211 110.386 442.831C111.617 442.705 108.174 442.464 111.022 442.35C112.377 442.403 113.916 442.471 115.348 442.53C113.27 442.054 117.348 441.871 117.291 441.387C119.898 441.818 121.892 442.733 120.459 443.229C122.614 443.028 124.78 442.827 126.934 442.626C125.934 442.511 124.92 442.397 123.92 442.282C130.962 442.586 140.016 441.894 141.488 442.911C142.421 442.904 143.364 442.898 144.297 442.891C144.586 442.719 144.865 442.547 145.153 442.375C149.376 442.524 153.588 442.674 157.811 442.823C154.051 442.929 153.156 443.174 149.214 442.975C150.733 443.173 152.28 443.372 153.771 443.569C159.706 443.037 160.516 442.688 169.453 442.846C169.857 442.853 176.609 443.299 176.84 443.343C177.898 443.541 176.292 443.83 176.763 443.93C178.071 444.212 186.022 444.919 185.868 445.025C183.924 446.334 157.176 446.351 149.942 446.418C100.852 446.874 52.4689 446.633 4 446.456L0.570058 446.481L0.544152 443C0.637717 417.382 0.713239 391.74 0.658129 365.956C0.655662 365.19 0.462552 365.524 0.454282 365.198C0.405781 363.168 0.706744 361.175 0.719161 360.425C0.744751 358.822 0.466686 359.704 0.466488 358.533C0.469593 346.431 0.633104 335.011 0.5855 322.899C0.582396 322.11 0.804873 322.916 0.765545 321.53C0.744012 320.815 0.402689 318.577 0.397522 316.963C0.379936 311.326 0.489362 306.59 0.484187 300.645C0.481098 297.394 0.510112 292.516 0.504938 288.88C0.502739 287.274 0.346589 285.602 0.341372 284.015C0.334128 281.764 0.650672 282.224 0.670335 281.877C0.756214 280.358 0.408784 280.147 0.417052 278.704C0.43361 276.02 0.665576 275.876 0.645922 272.47C0.631433 270.036 0.448286 264.466 0.39447 261.397C0.663524 254.221 0.55671 245.177 0.467709 238.482C0.414949 234.519 0.739726 234.151 0.738691 232.535C0.732401 226.841 0.317595 222.52 0.304142 217.171C0.286616 210.074 0.560899 203.783 0.580618 196.906C0.583721 195.791 0.286144 196.047 0.278509 194.953C0.250566 190.903 0.196406 185.724 0.238838 182.117C0.285469 178.096 0.717405 176.613 0.629444 172.679C0.603326 171.526 0.224599 171.187 0.175975 169.254C0.0995111 166.167 0.433484 162.781 0.47076 160.627C0.520437 157.673 0.134604 160.242 0.18635 156.259C0.188584 156.095 0.464389 155.499 0.45123 154.644C0.413973 152.152 0.196778 152.4 0.217477 148.754C0.220335 148.404 0.483134 143.57 0.484187 143.089C0.488327 140.261 0.580335 134.567 0.524468 132.892C0.325763 126.909 -0.089066 131.62 0.81132 126.531C0.590939 124.29 0.367565 122.067 0.153393 119.692C0.353131 121.277 0.641357 114.843 0.62273 114.391C0.472631 110.651 0.122299 112.879 0.180247 108.137C0.989559 114.4 0.28456 102.019 0.263861 99.2579C0.163505 85.9635 0.365467 73.8791 0.360292 60.5173C0.358172 56.0441 0.187094 50.0497 0.191233 45.3174C0.191479 44.2142 0.383009 45.0478 0.387146 44.0768C0.389983 43.1081 0.174973 44.1828 0.18635 43.0771C0.260891 36.1991 0.666587 30.81 0.159496 24.5091C0.232814 24.2023 0.290747 24.2122 0.371278 23.7042C-0.078424 18.5999 0.515687 8.81764 0.609045 5L0.584002 1.63446L4 1.60905C4.03895 1.61 4.07727 1.6109 4.11496 1.61174C9.95287 1.74207 11.4442 1.435 15.6854 1.497C21.2937 1.5798 29.7142 2.17969 25.9536 1.1894C29.801 1.15837 33.5049 1.1498 37.3908 1.24189C37.8233 1.25233 37.5252 1.50404 37.6983 1.50921C38.7946 1.54535 39.1518 1.31998 39.8925 1.30964C41.9006 1.2818 38.6234 1.55164 41.4868 1.47625C42.9971 1.43589 43.8547 1.23933 48.0486 1.23518C73.3303 1.21344 100.777 1.28384 126.694 1.31696C128.473 1.31903 127.302 1.07562 129.534 1.09114C137.287 1.14501 151.166 1.55465 157.852 1.49883C164.538 1.44295 163.029 1.087 167.213 0.93795C168.021 0.908972 167.358 1.11184 168.09 1.11494C173.005 1.13359 178.866 1.45001 182.849 1.49761C185.482 1.52951 185.271 1.21037 187.099 1.18757C189.821 1.15445 192.623 1.47689 194.076 1.48724C200.905 1.5327 205.6 1.273 211.977 1.40546C211.728 1.33522 211.563 1.2702 211.352 1.201C218.903 1.21238 226.444 1.22379 233.995 1.23518C233.639 1.17101 233.295 1.10629 232.939 1.04109C241.799 1.07631 240.788 1.77175 240.009 0.303216C240.653 0.251481 241.336 0.191514 241.952 0.143922C241.701 0.900401 247.061 1.454 253.881 1.64653C254.381 1.66102 257.737 0.923433 257.372 1.79484C258.247 1.58165 258.769 1.4347 259.51 1.24738C260.952 1.51121 262.414 1.77191 263.857 2.0347C264.636 1.99538 265.426 1.95744 266.205 1.91813C266.32 1.74736 266.231 1.57006 266.482 1.4024C269.95 1.3776 276.914 1.57071 280 1.56749L284.223 1.53636L283.356 5.72121C283.328 5.85035 283.303 5.97262 283.279 6.08746C281.841 13.0402 280.773 20.2038 279.125 25.4977C278.61 28.1381 279.499 25.5971 278.617 29.4993C278.356 29.9056 278.108 30.2869 277.838 30.7109C277.892 34.0667 277.298 34.6376 276.201 38.9848C275.459 41.9246 275.224 43.9035 274.582 46.717C274.419 47.4299 274.224 47.2819 274.125 47.7725C273.796 49.4153 273.091 54.1531 272.851 55.3113C270.678 65.8049 268.71 74.7983 266.486 84.7595C266.247 85.8299 266.761 84.4859 266.513 85.5938C266.115 87.3762 266.011 86.2547 265.772 87.2856C265.109 90.1615 265.452 90.2582 264.605 94.2866C261.817 107.551 258.282 122.731 255.283 136.57C255.19 137.002 255.4 137.02 255.3 137.491C254.652 140.558 253.709 143.602 253.114 146.386C252.126 151.005 251.666 154.537 250.685 159.099C248.768 168.015 246.909 175.949 244.93 185.118C243.31 192.621 241.937 199.146 240.167 207.375C232.437 243.322 225.201 280.142 217.079 316.26C216.872 317.179 216.773 316.766 216.72 317.048C216.224 319.736 216.416 320.027 215.703 320.867C215.072 324.291 215.223 325.447 214.313 329.55C213.828 331.737 213.587 329.975 213.096 333.746C212.653 337.151 213.771 333.529 211.301 343.407C211.236 343.668 210.596 344.887 210.245 346.976C209.892 349.075 210.667 346.724 209.67 351.745C207.328 363.53 203.82 378.332 200.981 392.009C200.803 392.866 199.225 401.15 198.964 402.796C198.461 405.982 198.871 405.382 198.057 409.486C197.429 412.657 196.564 415.199 195.827 418.928C195.741 419.362 195.898 420.154 195.257 422.937ZM5.25141 10.7548C5.56525 11.5437 6.72046 12.9673 6.3689 17.7371C6.33579 18.1892 5.54137 15.7485 5.41497 18.383C5.33115 15.805 5.304 13.2943 5.25019 10.7548C5.25059 10.7548 5.251 10.7548 5.25141 10.7548ZM183.711 441.603C184.518 438.125 185.326 434.636 186.133 431.159C185.752 433.596 185.37 436.037 184.992 438.465C184.565 439.514 184.139 440.553 183.711 441.603ZM277.598 7.34673C277.597 7.35007 277.596 7.35341 277.596 7.35675C277.756 6.4335 277.916 5.51011 278.077 4.58666L280 6.96725C277.184 7.07916 274.367 7.19115 271.552 7.30299C271.946 7.19329 272.341 7.08312 272.736 6.97342C275.159 6.8321 277.582 6.69094 280 6.54968L278.485 4.67439C278.403 5.2076 278.32 5.74052 278.238 6.27307C278.025 6.63056 277.811 6.98924 277.598 7.34673ZM272.505 36.5702C271.874 38.8848 271.783 38.2654 271.296 39.5089C271.297 39.509 271.297 39.5091 271.297 39.5092C271.17 39.8376 270.782 41.4112 270.642 42.0215C270.825 41.8248 271.021 41.5618 271.207 41.3459C270.358 46.8804 266.904 57.318 269.411 43.3824C269.536 43.6258 269.663 43.8598 269.788 44.1033C271.218 37.2177 273.234 29.6324 272.505 36.5702ZM5.75187 67.2995C6.32108 73.3025 6.44109 75.2274 6.05093 82.5097C5.88959 81.4811 5.72828 80.4522 5.56694 79.4236C5.73149 78.2211 5.89492 77.0274 6.05947 75.8249C6.05947 75.8215 6.05947 75.818 6.05947 75.8146C5.88665 75.5742 5.71352 75.3329 5.5407 75.102C5.61107 72.5049 5.6815 69.8968 5.75187 67.2995ZM223.822 261.142C222.359 262.539 223.106 262.206 223.86 257.48C224.121 255.844 223.587 257.378 223.771 256.365C224.762 250.893 225.6 250.618 225.727 251.914C225.092 254.995 224.449 258.108 223.824 261.132C223.823 261.136 223.823 261.139 223.822 261.142ZM193.75 402.195C193.749 402.198 193.749 402.202 193.748 402.205C193.447 402.288 193.844 400.081 193.057 402.497C193.462 400.617 193.868 398.738 194.275 396.849C194.181 397.409 194.083 397.98 193.989 398.539C194.188 398.07 194.387 397.6 194.586 397.131C194.417 396.396 194.732 395.815 195.26 393.863C194.81 394.337 194.361 394.808 193.91 395.282C194.503 393.009 195.097 390.727 195.689 388.454C195.779 388.444 195.869 388.433 195.959 388.423C196.038 387.535 196.114 386.656 196.192 385.768C196.343 385.554 196.491 385.349 196.642 385.135C196.79 384.075 196.939 383.014 197.086 381.954C197.397 381.688 197.008 384.011 197.822 379.92C197.802 381.224 197.782 382.526 197.76 383.839C196.424 389.958 195.087 396.077 193.75 402.195ZM232.615 218.562C231.213 225.315 231.445 223.378 231.23 221.699C231.691 220.657 232.154 219.604 232.615 218.562ZM143.396 5.95418C141.395 6.33814 139.385 6.71826 137.336 7.08877C133.257 7.303 129.177 6.60317 132.245 6.32892C135.94 5.99985 139.798 6.36814 143.396 5.95418ZM50.494 6.12507C55.4844 6.30311 50.7889 6.75934 49.6635 7.02529C48.2829 6.59787 46.3577 6.63557 43.2657 6.58586C46.1692 6.55815 49.6687 6.09484 50.494 6.12385C50.494 6.12426 50.494 6.12466 50.494 6.12507ZM223.706 6.38568C225.706 6.37419 227.696 6.26696 229.484 6.39727C228.945 6.76442 225.367 6.43039 227.926 6.97464C226.646 6.98395 225.366 6.99298 224.096 7.00332C224.903 6.77783 223.818 6.6093 223.712 6.3869C223.71 6.38649 223.708 6.38608 223.706 6.38568ZM246.234 153.134C247.483 149.388 247.458 148.622 247.994 144.693C248.457 144.223 248.046 148.956 247.553 151.871C247.114 152.288 246.675 152.708 246.234 153.134ZM66.4624 441.293C65.5199 441.744 58.5671 441.803 55.1124 441.67C55.5238 441.603 55.9366 441.535 56.3479 441.467C59.715 441.409 63.0953 441.351 66.4624 441.293ZM41.7944 6.55535C42.3119 6.56856 42.8025 6.57842 43.2657 6.58586C42.7508 6.59078 42.2537 6.58309 41.7944 6.55535ZM3.59744 176.18C3.17213 174.536 3.02924 179.424 3.19584 173.489C3.19544 173.489 3.19503 173.489 3.19462 173.489C3.30433 169.564 3.33362 168.697 3.36673 165.061C3.91309 166.37 4.10838 173.747 4.22118 163.579C4.22168 163.445 3.89658 163.712 3.94105 162.088C3.95487 161.586 4.22168 159.981 4.29931 157.54C4.32414 156.752 4.40643 150.824 4.4116 158.904C4.79246 158.664 5.17794 159.098 5.54741 159.078C5.65479 162.233 4.90903 164.657 4.92733 167.993C4.9563 172.948 5.71043 175.469 4.72104 176.421C4.47796 172.255 4.47211 165.102 5.06709 164.169C5.07433 160.139 4.58687 158.981 4.34569 162.231C4.65203 176.151 3.62211 166.053 4.01123 178.241C4.14883 178.385 4.29692 178.887 4.42625 178.81C3.94202 182.531 3.74955 176.767 3.59744 176.18ZM4.64963 147.072C4.94044 149.477 5.23359 151.874 5.52544 154.27C5.05146 154.27 4.62612 152.949 4.35912 149.159C4.45632 148.467 4.55346 147.764 4.64963 147.072ZM4.77414 349.383C5.03182 349.729 5.26797 350.652 5.51323 351.325C5.29591 352.057 5.08741 369.373 4.87423 360.563C4.84318 359.284 5.29884 351.48 4.77414 349.383ZM240.887 179.86C241.484 177.902 242.081 175.953 242.676 174.005C242.127 177.082 241.58 180.163 241.032 183.242C240.985 182.112 240.935 180.99 240.887 179.86ZM110.197 5.50193C111.058 5.51161 108.197 5.866 111.591 5.81014C109.061 6.03679 106.692 6.22863 104.219 6.44183C103.478 6.27417 102.73 6.10719 101.989 5.93953C101.412 6.04716 100.823 6.15415 100.246 6.26178C100.593 6.01754 100.901 5.779 101.266 5.53062C105.432 6.05429 106.387 5.46054 110.197 5.50193ZM234.057 4.54678C234.806 5.07759 228.774 5.39326 234.708 5.47813C233.582 5.82687 231.773 6.0098 228.3 6.04085C227.742 5.90747 227.186 5.77507 226.629 5.6417C226.552 5.9986 225.658 6.13125 223.706 6.38568C223.705 6.38527 223.703 6.38486 223.701 6.38446C218.422 6.41029 218.737 6.2913 217.468 5.70456C223.057 6.03573 223.224 5.49966 227.034 5.1809C229.65 4.96171 233.066 5.06098 234.057 4.54678ZM4.76803 330.932C5.21611 334.885 5.63405 331.338 5.15803 338.35C5.04419 337.898 4.93131 337.444 4.81747 336.992C4.79988 334.972 4.78355 332.952 4.76803 330.932ZM253.563 6.36615C253.111 5.54447 249.39 4.90486 248.754 6.24164C252.381 6.51382 250.61 5.75662 253.563 6.36615ZM52.1959 4.83851C59.1699 4.87685 57.8514 5.80425 54.9847 6.26789C54.5422 6.09919 54.1001 5.9302 53.6672 5.76254C52.4455 5.83912 51.2236 5.91586 50.0018 5.99141C50.733 5.60746 51.4648 5.22247 52.1959 4.83851ZM259.269 99.2589C259.815 93.9249 257.741 104.815 258.165 101.098C258.503 98.1303 259.904 94.4247 259.955 95.9509C259.749 96.9595 259.516 98.0813 259.271 99.2488C259.27 99.2522 259.27 99.2555 259.269 99.2589ZM265.585 69.0713C264.788 69.7952 265.232 68.6003 264.457 72.7406C264.236 73.9231 261.998 83.2158 263.349 79.4029C264.066 76.0647 264.833 72.5398 265.585 69.0713ZM4.75583 37.4175C4.4828 37.4817 3.88328 30.1237 4.03321 29.1793C4.0328 29.1793 4.03239 29.1793 4.03198 29.1793C4.44077 26.6299 4.49886 34.3915 5.05977 31.0248C4.56619 38.4799 5.76006 40.7104 4.18701 40.1909C4.118 35.7992 4.44226 37.8784 4.75583 37.4175ZM157.754 442.579C157.758 442.579 157.761 442.579 157.764 442.579C157.27 442.566 153.199 442.165 153.694 442.026C158.59 442.145 157.718 442.409 162.276 441.976C162.526 442.115 162.74 442.251 163.009 442.391C161.2 442.474 160.198 442.642 157.754 442.579ZM4.22363 368.104C4.15222 366.305 4.44812 363.023 4.43052 360.973C5.56685 367.496 4.50722 375.29 4.22363 368.104ZM207.885 336.239C207.885 336.234 207.886 336.228 207.887 336.223C207.887 336.225 207.887 336.227 207.887 336.229C207.887 336.232 207.886 336.235 207.885 336.239ZM4.90535 228.701C4.83159 228.933 4.76752 229.064 4.71127 229.111C4.70598 229.111 4.70069 229.111 4.6954 229.111C4.76447 228.986 4.83432 228.852 4.90535 228.701ZM4.83822 52.7097C4.45744 55.7743 3.85209 45.5636 3.99659 42.262C4.17038 42.4927 4.32794 42.5287 4.52757 43.0668C4.07751 45.7318 4.90238 52.1999 4.83822 52.7097ZM189.082 5.69846C181.011 5.68811 191.515 4.18466 191.948 5.38414C191.932 5.40738 189.291 5.69641 189.082 5.69846ZM19.9403 5.68076C21.9966 5.22558 17.8641 5.1047 24.4721 5.18334C24.8567 5.30125 25.241 5.41943 25.6256 5.53733C23.7309 5.58492 21.8349 5.63316 19.9403 5.68076ZM136.208 3.72468C126.05 3.97822 116.334 4.42552 122.951 5.68076C123.72 5.64044 124.5 5.60145 125.268 5.56113C125.384 4.94874 128.221 5.28302 132.374 5.30297C132.966 5.05984 135.269 5.00362 135.701 4.79701C136.536 4.39763 133.89 4.11685 136.208 3.72468ZM220.373 283.777C220.306 283.595 220.236 283.416 220.17 283.235C220.392 281.639 220.616 280.04 220.838 278.444C220.979 278.74 221.121 279.037 221.262 279.333C220.966 280.813 220.672 282.286 220.376 283.767C220.375 283.77 220.374 283.773 220.373 283.777ZM3.35758 137.173C4.5081 138.096 4.2962 134.871 3.71462 128.33C3.5956 131.274 3.47659 134.229 3.35758 137.173ZM276.705 24.1806C276.341 24.3188 275.979 24.4538 275.613 24.6013C275.216 28.0682 275.718 27.5163 276.49 25.9801C276.563 25.3764 276.633 24.7843 276.705 24.1806ZM266.331 73.1171C266.7 71.723 266.288 72.3863 266.325 72.2401C267.226 68.7046 267.452 68.2279 268.198 63.8127C268.246 63.2621 268.288 62.7199 268.333 62.1689C267.229 64.0469 267.278 65.5934 265.965 69.7875C266.361 69.0657 266.756 68.347 267.152 67.6254C266.592 69.9939 266.035 72.3527 265.475 74.7213C265.486 75.0187 265.495 75.3165 265.505 75.6138C265.778 74.7872 266.068 73.9359 266.331 73.1171ZM216.179 301.878C215.656 304.186 215.129 306.504 214.605 308.812C214.752 308.932 214.901 309.049 215.047 309.169C215.424 306.742 215.803 304.305 216.179 301.878ZM3.88185 185.762C3.94168 185.949 4.00188 186.132 4.06311 186.295C3.98849 186.279 3.93024 186.074 3.88185 185.762ZM163.998 443.504C166.682 443.622 170.549 443.544 173.492 443.569C173.261 443.146 165.78 443.263 163.152 443.006C162.73 443.082 162.864 443.454 163.998 443.504ZM61.844 4.87574C62.5173 4.66465 63.1898 4.45455 63.8535 4.24345C65.4793 4.26622 67.1087 4.29026 68.7442 4.31303C68.7923 4.14019 68.8396 3.96587 68.8877 3.79303C61.6835 4.01757 63.3446 3.51919 59.778 3.02769C60.4706 3.64335 61.1514 4.25905 61.844 4.87574ZM201.43 375.725C202.409 370.612 202.584 368.761 201.46 371.521C201.191 373.341 200.919 375.173 200.649 376.993C200.91 376.568 201.171 376.141 201.43 375.725ZM3.49124 280.545C3.68497 284.9 2.98915 284.972 3.37772 289.229C3.50602 286.949 3.63575 284.67 3.76405 282.4C3.67334 281.787 3.58197 281.158 3.49124 280.545ZM1.58032 66.9458C1.33826 68.7833 2.48891 72.2179 1.63953 77.3833C1.89303 78.6142 2.13517 79.3858 2.38351 80.4438C2.11339 81.0594 1.83983 81.7589 1.57178 82.3457C1.57178 82.3491 1.57178 82.3526 1.57178 82.356C1.66285 87.041 2.00162 84.0034 2.2883 84.1092C2.40714 84.1589 2.20848 87.636 2.46712 86.5494C2.9111 84.6734 2.6558 77.6639 3.19707 77.6447C3.02017 80.1074 3.16799 84.9164 3.52908 83.494C3.92542 81.9357 3.2612 77.4037 3.59011 74.5176C2.72502 78.6532 2.99224 70.1116 3.65664 69.14C3.14643 64.128 2.9383 68.7346 2.96209 73.8717C2.45292 70.7356 2.72801 75.3517 2.30478 76.1119C2.04929 72.8781 2.26226 61.7804 1.58032 66.9458ZM178.517 3.51839C175.053 3.55122 169.641 3.26019 167.269 3.68989C165.888 3.94024 171.313 4.1341 167.572 4.52725C170.947 4.48892 171.717 4.33534 171.14 3.99078C171.909 3.94941 172.688 3.90905 173.457 3.86871C173.813 3.93594 174.178 4.00228 174.534 4.06951C174.938 3.92774 175.344 3.7871 175.738 3.64533C176.555 3.67326 177.382 3.70122 178.199 3.73017C178.295 3.65889 178.459 3.59685 178.517 3.51839ZM3.5126 405.594C3.50846 404.632 3.50435 403.68 3.49917 402.718C3.41526 402.824 3.32787 402.95 3.24162 403.072C3.17347 403.159 3.10531 403.246 3.03716 403.333C3.28066 402.776 3.68536 398.194 3.42533 396.264C3.29488 395.293 2.83176 397.502 2.75092 393.388C2.77474 396.369 2.83794 399.131 2.87726 402.026C2.73961 401.766 2.60049 401.517 2.46285 401.257C2.46265 401.259 2.46244 401.26 2.46224 401.262C2.4312 402.224 2.39868 403.197 2.36764 404.159C2.74953 404.64 3.13071 405.113 3.5126 405.594ZM277.93 21.5598C278.355 18.2958 278.449 17.1927 277.696 18.6152C277.695 18.6185 277.694 18.6218 277.693 18.6251C277.626 19.86 277.558 21.0957 277.491 22.3306C277.636 22.0766 277.782 21.8233 277.93 21.5598ZM2.44027 214.019C4.0992 220.993 3.08225 205.286 2.51717 208.277C2.49129 208.412 2.62345 213.364 2.44027 214.019ZM50.9143 4.32828C52.8287 4.31483 54.7473 4.30268 56.6714 4.28922C56.2288 4.08534 55.7758 3.88217 55.3333 3.67829C53.8614 3.89459 52.3862 4.11198 50.9143 4.32828ZM206.927 353.73C207.796 351.855 209.044 346.833 209.091 344.258C208.755 345.544 208.419 346.83 208.084 348.116C208.556 345.65 209.016 343.211 209.495 340.727C208.903 340.462 208.65 343.389 207.557 347.641C207.387 348.299 205.705 352.379 205.97 353.97C206.026 354.29 207.078 349.791 206.75 353.005C207.072 351.638 207.321 350.452 207.615 349.158C207.783 349.096 207.95 349.035 208.12 348.963C207.722 350.555 207.326 352.137 206.927 353.73ZM158.349 3.56782C153.591 3.53282 153.004 3.7863 152.013 4.2343C154.226 4.18358 156.439 4.13365 158.652 4.08294C158.546 3.91159 158.455 3.7402 158.349 3.56782ZM216.005 312.181C216.624 309.649 216.033 310.663 216.186 309.624C216.764 305.695 217.586 303.106 218.249 299.245C218.263 299.513 218.277 299.761 218.292 300.019C218.292 300.016 218.293 300.013 218.294 300.009C222.489 281.951 219.635 291.296 217.436 302.169C217.249 302.394 217.064 302.61 216.877 302.835C216.066 307.738 215.327 312.261 216.005 312.181ZM2.38351 152.055C2.29865 152.267 1.75935 150.468 2.01182 153.844C2.79922 156.518 2.40841 152.133 2.71125 151.035C2.7868 151.949 2.8603 152.884 2.93585 153.788C3.15836 148.324 2.97113 147.526 2.39571 149.518C2.35704 149.66 2.4681 151.843 2.38351 152.055ZM1.99534 187.966C3.15549 188.716 2.6338 181.82 2.27365 182.071C2.25929 183.022 2.45572 183.763 2.36886 184.772C2.28194 185.792 2.01095 186.052 1.99534 187.966ZM18.6023 3.27914C18.4003 3.27397 16.3707 2.78637 16.5722 3.16806C19.0831 4.07155 24.1422 3.49 23.2571 3.17539C21.5839 3.19095 20.468 3.32652 18.6023 3.27792C18.6023 3.27833 18.6023 3.27874 18.6023 3.27914ZM200.601 384.471C200.652 384.384 201.908 379.474 201.867 378.797C201.78 378.227 201.622 377.92 201.499 377.48C201.105 380.249 199.772 385.739 200.603 384.461C200.602 384.464 200.601 384.467 200.601 384.471Z" fill="#F88539"/>
</svg>
