<svg width="23" height="25" xmlns="http://www.w3.org/2000/svg"><path d="M22.172 8.384c-.501-1.266-1.515-2.633-2.31-3.065.647 1.336 1.022 2.676 1.165 3.676l.003.02c-1.302-3.414-3.51-4.79-5.314-7.788-.09-.151-.182-.303-.27-.463a3.76 3.76 0 01-.128-.251 2.278 2.278 0 01-.171-.479.031.031 0 00-.027-.032.037.037 0 00-.021 0l-.006.003c-.002 0-.006.003-.008.005l.004-.007c-2.56 1.578-3.621 4.34-3.894 6.097a5.895 5.895 0 00-2.282.613.316.316 0 00-.146.384.296.296 0 00.159.18c.075.034.16.033.234-.002a5.35 5.35 0 011.987-.546l.068-.005a5.36 5.36 0 011.936.23l.094.032a5.56 5.56 0 01.61.238c.08.037.157.076.235.117l.106.056a5.698 5.698 0 01.366.22 6.072 6.072 0 012.013 2.191c-.615-.454-1.716-.903-2.776-.709 4.142 2.178 3.03 9.68-2.71 9.396a4.891 4.891 0 01-1.498-.304 6.173 6.173 0 01-.338-.146 4.279 4.279 0 01-.194-.097c-1.407-.765-2.568-2.21-2.713-3.964 0 0 .531-2.083 3.806-2.083.354 0 1.366-1.04 1.385-1.34-.004-.1-2.009-.938-2.79-1.748-.418-.432-.616-.641-.791-.798a3.457 3.457 0 00-.299-.236 5.893 5.893 0 01-.032-2.96C6.442 5.384 5.522 6.28 4.853 7.07h-.005c-.457-.608-.424-2.614-.398-3.033-.006-.026-.341.183-.385.214-.403.303-.78.642-1.125 1.014-.394.42-.754.874-1.076 1.357a10.494 10.494 0 00-1.545 3.67c-.003.013-.11.506-.188 1.116l-.036.285a8.533 8.533 0 00-.068.694l-.003.036-.023.403-.001.061C0 19.578 5.156 25 11.516 25c5.695 0 10.424-4.35 11.35-10.062.02-.155.035-.311.052-.467.23-2.078-.025-4.26-.746-6.087z" fill="#EA0B12"/></svg>