<svg width="96" height="82" xmlns="http://www.w3.org/2000/svg"><g fill="#FFDCDC" fill-rule="evenodd"><path d="M51.898.7L22.101 23.5.499 25.4v31.203L22.101 58.5l29.797 22.801zM70.301 14.898L63.601 21c4.802 5.3 7.7 12.3 7.7 20 0 7.699-2.898 14.8-7.7 20l6.7 6.101A38.629 38.629 0 0080.403 41c-.004-10-3.8-19.199-10.102-26.102v.001z"/><path d="M81.5 4.699l-6.7 6.102C82 18.8 86.5 29.403 86.5 41c0 11.602-4.399 22.199-11.7 30.199l6.7 6.101c8.7-9.601 14-22.3 14-36.3 0-14-5.3-26.7-14-36.302V4.7z"/></g></svg>