<svg width="44" height="34" fill="none" xmlns="http://www.w3.org/2000/svg"><path d="M17.924 2.706l-2.9 11.6c2 .4 3.4 1.267 4.2 2.6.866 1.334 1.3 3.434 1.3 6.3 0 3.734-.733 6.3-2.2 7.7-1.4 1.4-3.967 2.1-7.7 2.1-3.734 0-6.3-.7-7.7-2.1-1.334-1.4-2-3.966-2-7.7.066-2.333.266-4.033.6-5.1.333-1.133 1.167-3.033 2.5-5.7l6.1-12.3 7.8 2.6zm23.1 0l-2.9 11.6c2 .4 3.4 1.267 4.2 2.6.867 1.334 1.3 3.434 1.3 6.3 0 3.734-.733 6.3-2.2 7.7-1.4 1.4-3.967 2.1-7.7 2.1s-6.3-.7-7.7-2.1c-1.334-1.4-2-3.966-2-7.7.066-2.333.267-4.033.6-5.1.333-1.133 1.167-3.033 2.5-5.7l6.1-12.3 7.8 2.6z" fill="#fff"/></svg>