<svg version="1.1" id="Layer_1" xmlns="http://www.w3.org/2000/svg" x="0" y="0" viewBox="0 0 334 288" xml:space="preserve"><style>.st0{fill:#999999}</style><path class="st0" d="M175.5 92.3h-7.7c-1.6 0-2.7.3-3.3.9-.6.6-.9 1.6-.9 2.9v18.3c0 1.4.3 2.3.9 2.9.6.6 1.7.9 3.3.9h7.7c1.6 0 2.7-.3 3.3-.9.6-.6.9-1.5.9-2.9V96c0-1.4-.3-2.3-.9-2.9-.6-.6-1.7-.8-3.3-.8zM175.5 132.6h-7.7c-1.6 0-2.7.3-3.3.9-.6.6-.9 1.6-.9 3.1v19.2c0 1.5.3 2.5.9 3.1.6.6 1.7.9 3.3.9h7.7c1.6 0 2.7-.3 3.3-.9.6-.6.9-1.6.9-3.1v-19.2c0-1.5-.3-2.5-.9-3.1-.6-.6-1.7-.9-3.3-.9z"/><path class="st0" d="M243.7 3c-32.1 0-62.2 25.3-76.7 39.7C152.5 28.3 122.4 3 90.3 3 35.4 3 2.5 35.1 2.5 88.9c0 44.1 40.4 81 41.9 82.3L159 281.7c2.2 2.2 5.1 3.3 8.1 3.3s5.9-1.1 8.1-3.3l114.4-110.2c1.7-1.7 42-38.6 42-82.6-.1-53.8-33-85.9-87.9-85.9zM125.6 176.1H103V92.4H89.9V75.9h35.6v100.2zm75.7-65.6c0 7.8-2.4 12.7-7.1 14.7 4.7 1.9 7.1 6.5 7.1 13.7v19.7c0 11.7-6.6 17.5-19.9 17.5h-19.7c-13.2 0-19.9-5.8-19.9-17.5v-19.7c0-7.2 2.3-11.8 6.9-13.7-4.6-2-6.9-6.9-6.9-14.7V93.2c0-11.6 6.6-17.3 19.9-17.3h19.7c13.2 0 19.9 5.8 19.9 17.3v17.3zm75.1 18.8h-19.7v20h-17.6v-20h-19.7v-13.8h19.7v-20h17.6v20h19.7v13.8z"/></svg>