<svg width="749" height="12" viewBox="0 0 749 12" fill="none" xmlns="http://www.w3.org/2000/svg">
<path d="M1 3L5.11642 6.5678C11.0417 11.7034 19.9842 11.4468 25.7118 6.0917V6.0917C31.492 0.687445 40.5695 0.59581 46.3497 6.00006V6.00006C52.1299 11.4043 61.1094 11.4043 66.8896 6.00006V6.00006C72.6698 0.595809 81.6493 0.595813 87.4294 6.00006V6.00006C93.2096 11.4043 102.189 11.4043 107.969 6.00006V6.00006C113.75 0.59581 122.763 0.627896 128.544 6.03215V6.03215C134.285 11.4004 143.239 11.4323 148.981 6.06402L149.26 5.80321C154.901 0.528888 163.715 0.619122 169.286 5.96799V5.96799C174.873 11.3329 183.732 11.365 189.319 6.00006V6.00006C194.906 0.635119 203.732 0.635124 209.319 6.00006V6.00006C214.906 11.365 223.732 11.365 229.319 6.00006V6.00006C234.906 0.635122 243.732 0.635122 249.319 6.00006V6.00006C254.906 11.365 263.732 11.365 269.319 6.00006V6.00006C274.906 0.635122 283.732 0.635122 289.319 6.00006V6.00006C294.906 11.365 303.732 11.365 309.319 6.00006V6.00006C314.906 0.635122 323.732 0.635122 329.319 6.00006V6.00006C334.906 11.365 343.732 11.365 349.319 6.00006V6.00006C354.906 0.635122 363.732 0.635122 369.319 6.00006V6.00006C374.906 11.365 383.732 11.365 389.319 6.00006V6.00006C394.906 0.635122 403.732 0.635122 409.319 6.00006V6.00006C414.906 11.365 423.732 11.365 429.319 6.00006V6.00006C434.906 0.635122 443.732 0.635122 449.319 6.00006V6.00006C454.906 11.365 463.732 11.365 469.319 6.00006V6.00006C474.906 0.635122 483.732 0.635122 489.319 6.00006V6.00006C494.906 11.365 503.732 11.365 509.319 6.00006V6.00006C514.906 0.635122 523.732 0.635122 529.319 6.00006V6.00006C534.906 11.365 543.732 11.365 549.319 6.00006V6.00006C554.906 0.635122 563.732 0.635122 569.319 6.00006L569.526 6.19915C574.998 11.4529 583.64 11.4529 589.112 6.19915L589.924 5.41929C595.111 0.438261 603.356 0.609197 608.332 5.80097V5.80097C613.455 11.1455 621.999 11.1455 627.122 5.80097V5.80097C632.098 0.609197 640.343 0.438262 645.53 5.41929L646.342 6.19915C651.814 11.4529 660.456 11.4529 665.928 6.19915L666.135 6.00006C671.722 0.635122 680.548 0.635122 686.135 6.00006V6.00006C691.722 11.365 700.548 11.365 706.135 6.00006V6.00006C711.722 0.635122 720.582 0.668208 726.169 6.03315V6.03315C731.739 11.3815 740.553 11.4746 746.196 6.20316L748.227 4.30603" stroke="#595CF3" stroke-width="2"/>
</svg>
