<?xml version="1.0" encoding="UTF-8"?><svg id="Layer_1" xmlns="http://www.w3.org/2000/svg" viewBox="0 0 584 396"><defs><style>.cls-1{fill:#23a5e9;}.cls-2{fill:#eed800;}.cls-3{fill:#f06c13;}</style></defs><polygon class="cls-3" points="41.7 116.03 35.7 51.53 118.64 21.61 139.92 80.6 41.7 116.03"/><path class="cls-3" d="M373.44,283.65l167.58,19.84,6.68,21.26-120.14,37.76-8.24-26.2-26.7,8.39-19.19-61.06h0Z"/><rect class="cls-2" x="283.7" y="287.4" width="26.19" height="98.76" transform="translate(-139.35 443) rotate(-62.3)"/><path class="cls-1" d="M101.6,286.65l106.59,27.3,1.29,3.65-155.99,55.26-6.65-18.78,54.76-67.43Z"/><path class="cls-1" d="M311.23,23.39l19.82,59.44-64.44-10.97,38.57-49.49,6.05,1.03h0Z"/><path class="cls-2" d="M551.62,60.29l-12.96,40.99-55.34-17.5,12.96-40.99c2.43-7.69,6.15-12.75,11.15-15.21,5-2.46,11.52-2.42,19.55.12l8.46,2.67c7.86,2.48,13.11,6.22,15.77,11.19,2.65,4.97,2.79,11.22.42,18.73h0Z"/><path class="cls-3" d="M322.38,112.57c15.93,6.4,27.74,20.47,35.44,42.22l7.31,20.66c7.57,21.39,7.24,39.76-.99,55.12-8.24,15.36-24.31,27.27-48.24,35.73-22.84,8.08-42.32,8.66-58.44,1.72-16.12-6.93-27.9-20.92-35.35-41.95l-7.31-20.66c-7.44-21.02-7.05-39.21,1.18-54.57,8.23-15.35,23.77-27.08,46.61-35.16,23.93-8.47,43.85-9.5,59.79-3.11Z"/><polygon points="173.61 215.32 153.41 209.91 162.92 174.41 145.78 169.82 131.37 189.36 127.7 203.03 92.82 193.69 155.66 114.96 128.93 107.8 66.09 186.53 61 205.5 122.62 222 113.88 254.65 139.59 261.53 148.33 228.89 168.53 234.3 173.61 215.32"/><polygon points="527.76 190.59 521.64 172.01 501.86 178.52 490.41 143.75 473.62 149.28 472.27 173.43 476.68 186.82 442.51 198.07 451.92 98.18 425.74 106.8 416.34 206.69 422.46 225.27 482.8 205.4 493.33 237.37 518.51 229.08 507.98 197.11 527.76 190.59"/></svg>