<svg width="342" height="4" viewBox="0 0 342 4" fill="none" xmlns="http://www.w3.org/2000/svg" preserveAspectRatio="none">
<path d="M28.399 0.386811C27.6264 0.206427 30.2058 0.324672 28.493 0.055284C28.8501 0.037083 29.2095 0.0183113 29.5667 0.000110533C29.6573 0.0998772 29.7501 0.199401 29.8407 0.299168C29.3611 0.328546 28.8812 0.35792 28.399 0.387299C28.399 0.387136 28.399 0.386973 28.399 0.386811ZM27.7441 1.63626C28.1837 1.3517 29.5803 1.27584 28.0716 1.01324C27.9517 1.1109 27.8288 1.20854 27.7089 1.3062C27.1851 1.23046 26.6581 1.15473 26.1342 1.0794C25.9458 1.11664 25.7577 1.15391 25.5693 1.19073C25.3294 1.02102 25.0917 0.85086 24.8518 0.680743C25.0648 0.705581 25.2807 0.730852 25.4937 0.75569C26.3358 0.61788 27.085 0.58019 28.2281 0.554527C28.1278 0.514372 28.0272 0.474571 27.9268 0.434416C28.5069 0.502714 29.0868 0.571184 29.6646 0.639483C29.1628 0.706528 28.6018 0.781088 28.1368 0.843575C28.881 1.10966 30.1933 0.96157 30.8766 0.906071C31.8069 0.830318 31.5966 0.95684 32.2868 0.903873C32.397 0.895595 32.4095 0.796423 32.6273 0.794748C33.7266 0.786882 35.8616 0.839447 34.613 1.07086C32.8037 1.04105 31.2608 1.22688 29.4858 1.15899C29.9554 1.42656 29.0203 1.51762 27.7441 1.63626ZM60.9807 0.78424C60.4324 0.914195 59.3159 0.861751 58.5594 0.771546C58.5585 0.771546 58.5576 0.771546 58.5568 0.771546C58.3903 0.751676 58.0132 0.578971 58.5568 0.586009C59.4427 0.598068 59.8712 0.869928 60.3363 0.685368C60.5443 0.719726 60.7628 0.750296 60.9807 0.78424ZM62.9064 0.768127C63.4499 0.834773 63.2032 1.03962 62.5228 0.984181C62.5228 0.984344 62.5228 0.984506 62.5228 0.984669C62.2388 0.961487 62.7963 0.799572 61.7779 0.963919C61.5699 0.83606 61.365 0.719737 61.1595 0.596017C61.4089 0.593948 61.6364 0.590593 61.8979 0.588937C61.7219 0.799099 62.363 0.702003 62.9064 0.768127ZM35.5314 0.955139C35.6169 0.766071 35.259 0.767265 34.6495 0.636063C35.2248 0.642272 35.8002 0.648896 36.3729 0.655105C36.0915 0.755243 35.8128 0.855002 35.5314 0.955139ZM22.0168 0.925849C22.0159 0.925849 22.0152 0.925849 22.0142 0.925849C21.8257 0.955652 21.6367 0.985566 21.4506 1.01496C21.338 0.947478 21.2267 0.880295 21.114 0.812817C20.4481 0.876155 19.7787 0.939487 19.1127 1.00324C19.1936 0.797119 20.389 0.830657 21.0475 0.686603C22.0267 0.748701 22.4985 0.868344 22.5622 1.04303C22.381 1.00413 22.2004 0.964745 22.0168 0.925849ZM182.165 1.74753C182.387 1.69042 182.607 1.63326 182.83 1.57615C182.534 1.55008 182.24 1.53019 181.942 1.49998C181.161 1.74833 181.087 1.52865 180.064 1.54393C176.928 1.59112 177.76 1.97685 174.928 1.41185C177.202 1.43873 176.328 1.17325 177.699 0.96876C177.983 1.12441 176.624 1.47546 177.545 1.54832C179.131 1.38359 180.657 1.23016 182.416 1.12378C182.365 1.09688 182.314 1.06988 182.263 1.04297C181.983 1.05995 181.707 1.07702 181.428 1.094C181.729 1.02197 182.023 0.950557 182.329 0.877699C181.942 1.0412 182.928 0.949841 182.796 1.1377C182.737 1.22132 182.302 1.33733 182.045 1.41722C182.708 1.46068 183.388 1.50049 184.059 1.5427C183.711 1.60933 183.364 1.67602 183.019 1.74265C182.735 1.74471 182.454 1.74619 182.17 1.74826C182.168 1.74802 182.166 1.74777 182.165 1.74753ZM324.938 0.878136C324.095 1.0727 322.565 1.1049 321.759 0.888391C322.82 0.885079 323.878 0.881448 324.938 0.878136ZM22.6261 1.18707C22.5308 1.15399 22.4384 1.12127 22.343 1.08819C22.764 1.02694 23.1874 0.966107 23.6085 0.904853C23.6892 1.00044 23.7719 1.09604 23.855 1.19122C23.4463 1.18997 23.0348 1.18831 22.6261 1.18707ZM49.5614 1.08062C49.2533 1.0864 49.2261 1.08327 48.8425 1.06963C48.843 1.06971 48.8434 1.06979 48.8438 1.06987C48.6918 1.06478 47.4196 1.00895 47.5614 0.935361C48.1931 0.934118 48.8668 0.93536 49.5131 0.93536C49.5327 0.983768 49.5369 1.03179 49.5614 1.08062ZM42.1263 1.03765C42.1255 1.03749 42.1245 1.03733 42.1237 1.03716C41.8938 1.02598 41.676 1.00323 41.4388 0.99908C42.293 0.883255 42.4279 1.09106 43.2039 1.03228C43.9798 0.973086 44.4594 0.858432 45.1178 1.14311C44.873 1.18575 44.6094 1.24675 44.3572 1.29643C43.2556 1.1826 42.959 1.28972 42.0754 1.40189C42.0925 1.2802 42.1092 1.15934 42.1263 1.03765ZM168.203 1.17163C167.992 1.31237 167.757 1.17428 167.733 1.17261C167.733 1.17245 167.734 1.17229 167.734 1.17212C165.869 1.30246 167.977 1.09422 166.217 1.07227C166.479 1.0371 166.736 0.999957 166.996 0.96437C167.397 1.03224 167.811 1.10915 168.203 1.17163ZM107.612 1.15847C107.595 1.11749 107.574 1.07642 107.557 1.03543C108.615 1.04495 108.884 0.883617 109.763 1.03055C109.046 1.07359 108.329 1.11633 107.612 1.15896C107.612 1.1588 107.612 1.15864 107.612 1.15847ZM54.8921 1.3787C53.7194 1.45694 52.8519 1.49141 51.7257 1.36722C51.7249 1.36706 51.724 1.3669 51.7231 1.36673C51.6581 1.35909 51.9723 1.27335 51.8875 1.25175C51.6552 1.26457 51.4152 1.28429 51.1804 1.2996C51.1487 1.23094 51.1183 1.16229 51.0865 1.09404C51.7474 1.1135 52.4088 1.13294 53.0721 1.15239C52.9742 1.11224 52.8739 1.07243 52.776 1.03228C53.3389 1.01158 53.8998 0.990963 54.4629 0.970268C54.267 1.08283 54.0717 1.19541 53.8784 1.30839C54.2161 1.33197 54.5544 1.3547 54.8921 1.3787ZM125.219 1.60693C125.033 1.56222 125.378 1.48723 125.089 1.44874C124.8 1.41072 124.267 1.49416 124.392 1.36793C124.781 1.35097 125.189 1.33152 125.586 1.31373C124.31 1.08611 123.038 1.29208 123.018 1.01101C124.242 1.08387 125.249 1.05002 126.434 0.972196C126.385 1.1953 125.2 1.38821 125.946 1.59765C125.706 1.60055 125.454 1.60479 125.222 1.60644C125.221 1.60661 125.22 1.60677 125.219 1.60693ZM5.49377 3.98478C4.7691 3.96781 3.10873 4.05887 2.19308 3.92888C1.9678 3.89685 1.21735 3.48189 1.22113 3.4272C1.24313 3.24298 2.1597 3.21791 1.17807 3.09787C1.50824 3.09662 1.82877 3.0897 2.15656 3.08639C2.09781 2.96262 2.03934 2.83917 1.98303 2.71581C1.58395 2.73443 1.18448 2.75316 0.78537 2.7722C0.765778 2.73122 0.746246 2.69014 0.726685 2.64916C2.16135 2.64833 1.31445 2.49015 2.05869 2.34278C1.37335 2.26828 0.682892 2.19414 2.58206e-09 2.11964C0.394104 2.12875 0.859131 2.13549 1.20679 2.14625C1.2533 1.93639 0.42392 1.98643 0.281799 1.94753C-0.518738 1.72773 3.55688 1.83867 3.89038 1.53325C3.23938 1.49931 2.55615 1.46619 1.89041 1.43267C2.0813 1.395 2.27484 1.3573 2.46573 1.31963C3.97617 1.53029 5.66977 1.60491 7.42984 1.73612C7.58884 1.72743 7.74814 1.71851 7.90472 1.71024C7.85822 1.61548 7.81424 1.52108 7.76773 1.42632C8.00769 1.41514 8.25055 1.40405 8.49051 1.39287C7.78311 1.70497 8.7627 1.70072 9.94516 1.89114C9.3161 2.00082 8.54001 1.93432 8.59357 2.13868C10.7527 1.98145 13.2811 2.20366 15.3815 2.02614C15.9029 1.98227 15.9012 1.71864 17.1271 1.74295C17.0854 1.77193 17.0783 1.82424 17.0515 1.86233C19.1716 1.73607 20.4579 1.66059 22.6613 1.78933C22.5341 1.69458 22.4089 1.59943 22.2817 1.50468C21.814 1.55187 21.3456 1.59981 20.8805 1.647C20.5623 1.49054 21.0325 1.42148 19.6372 1.42314C18.4938 1.42438 19.1745 1.49347 18.8636 1.53983C18.4425 1.60313 18.0731 1.47861 17.6203 1.54935C17.2702 1.60358 17.6489 1.73269 16.7357 1.69998C17.1029 1.53274 17.4776 1.36004 17.8473 1.19073C18.0701 1.2284 18.2911 1.26665 18.5139 1.30474C18.2886 1.34945 18.0673 1.39357 17.842 1.43828C18.6353 1.35797 19.3846 1.28223 20.2047 1.19903C19.9379 1.44079 20.7855 1.35015 21.2458 1.32158C21.9628 1.27692 21.3485 1.4433 21.8185 1.41557C22.2886 1.38741 22.7955 1.20152 23.645 1.24126C23.1897 1.34888 23.8091 1.44538 23.6894 1.54471C23.5694 1.64404 22.6709 1.66604 23.5341 1.77444C25.1939 1.69206 23.3929 1.31378 24.5139 1.25249C25.8603 1.17881 26.1807 1.79544 25.7794 1.92799C25.4636 2.03232 24.3769 2.01134 24.0586 2.11524C26.0049 2.30276 26.0218 1.93257 26.3547 1.86013C27.5641 1.59645 26.7517 2.30022 28.1838 2.04566C28.1568 2.17727 28.1351 2.29564 28.1081 2.42187C28.3552 2.39786 28.5193 2.36595 28.8178 2.34692C27.9375 2.09049 28.658 2.10148 29.0279 2.10108C29.6105 2.10025 28.7106 1.97518 28.8648 1.94289C29.281 1.85648 29.9392 1.89571 29.5354 1.78274C29.7165 1.83531 29.9129 1.88804 30.099 1.9402C30.7797 1.87469 32.3796 1.32539 30.857 1.43632C30.999 1.23223 31.4915 1.33032 31.8759 1.36137C32.2602 1.39239 32.253 1.26241 32.5908 1.28642C33.9347 1.38247 33.0555 1.6048 32.8426 1.77907C34.6174 1.65903 32.8799 1.57961 35.4375 1.4993C35.6848 1.35731 34.503 1.2058 35.4871 1.12383C35.6684 1.37051 36.393 1.54771 37.8054 1.62967C37.9425 1.57295 38.0792 1.51573 38.2164 1.45902C38.9875 1.6867 38.5933 1.92346 40.0207 1.64114C39.2543 2.16066 39.7812 1.8283 41.0591 2.0398C41.3187 2.08244 40.719 2.19022 41.0813 2.24487C41.2456 2.26951 41.6443 2.18815 42.0454 2.25097C42.2412 2.28202 43.1569 2.48233 43.791 2.38719C43.3259 2.1355 44.5306 1.92138 43.4975 1.71316C45.4071 1.76449 46.7435 1.64364 44.6038 1.98682C45.0886 2.06299 45.5737 2.13884 46.0584 2.21459C46.3963 2.15457 46.7371 2.09502 47.0774 2.0354C47.1287 2.24227 47.0771 2.3003 48.4081 2.26391C47.8306 2.31273 47.2555 2.36237 46.6755 2.41161C46.6559 2.45338 46.5753 2.4968 46.5947 2.53733C47.3049 2.45788 49.305 2.42369 49.7897 2.36864C50.2744 2.31358 49.3383 2.29851 49.4779 2.24511C50.6405 1.80475 50.5483 2.12953 51.3826 2.05396C51.8723 2.00925 50.7032 1.9607 50.9651 1.94166C51.9364 1.87186 52.3871 2.1059 53.2482 2.10888C52.9423 1.97604 52.6388 1.84113 52.3402 1.70705C53.2436 1.71409 54.2506 1.71527 55.0904 1.67263C55.42 1.65598 55.1709 1.55718 55.2247 1.55056C55.4919 1.51662 56.5787 1.46284 56.6938 1.46243C57.5599 1.46164 57.5847 1.59849 58.4263 1.60598C58.0959 1.61756 57.7852 1.62801 57.4622 1.63918C57.3153 1.86104 57.1654 2.08289 57.0186 2.30516C57.8435 2.3213 58.6687 2.33711 59.4961 2.35325C58.8915 2.27917 58.2846 2.20543 57.6801 2.13134C58.625 1.9521 59.5701 1.77245 60.515 1.59279C61.0071 1.7029 61.4972 1.81299 61.9892 1.9231C63.3255 1.89405 63.0565 1.44708 63.6905 1.83863C64.0844 1.80553 64.4785 1.77245 64.8724 1.73976C64.8162 1.79562 64.7604 1.85161 64.7041 1.90747C65.1791 1.87311 65.6539 1.83898 66.1288 1.80421C65.6295 1.60635 65.1399 1.39815 64.6454 1.20609C65.58 1.1631 65.598 1.33094 65.7374 1.37283C66.1071 1.48378 66.8409 1.33413 67.1347 1.43679C67.234 1.47204 66.318 1.58254 66.6337 1.70997C66.6953 1.73468 67.9217 2.20313 68.7041 2.09496C68.6894 2.0101 68.629 1.90604 68.5971 1.81373C69.6495 1.76218 70.1861 2.20516 70.0466 2.32933C70.6072 2.2424 71.4266 2.23513 71.5417 2.09936C71.8281 2.09604 72.1124 2.0929 72.3988 2.08959C72.1003 2.42028 73.2951 2.35981 73.3734 2.07543C72.8813 2.06839 72.3886 2.06099 71.8965 2.05395C72.2687 1.70539 70.7732 1.495 73.8848 1.81788C74.4797 1.99919 72.8273 1.79317 73.312 1.92895C74.1542 2.00798 74.9447 1.94186 75.7452 2.06811C76.7412 2.22582 75.5157 2.37751 77.8365 2.17674C72.7174 1.67378 78.5386 1.83697 80.9428 1.68092C81.6038 2.17768 83.6342 2.33503 86.4301 2.18724C86.1387 2.04898 85.259 2.12021 84.7523 2.0747C84.2455 2.02917 84.7938 1.94714 84.1626 1.88257C83.5311 1.81801 82.19 1.73024 81.5508 1.63258C82.0922 1.55433 84.7645 1.36933 82.9976 1.59157C84.3167 1.72856 84.9361 1.86934 86.571 1.89502C87.0606 1.67935 87.0244 1.54505 88.6179 1.53883C87.6754 1.83852 89.4863 2.04681 89.0876 2.35642C87.9575 2.28431 88.5891 1.98339 87.9356 1.83935C87.8686 1.82496 86.8157 1.90039 86.571 1.89502C87.6335 2.16534 88.0009 2.26595 87.3472 2.58761C88.0988 2.55946 88.5663 2.59984 88.6349 2.44626C88.7915 2.51289 88.949 2.57957 89.1032 2.6462C89.3478 2.64454 89.568 2.63837 89.8273 2.63961C89.4702 2.40794 90.1624 2.55055 90.6544 2.44552C91.1465 2.34038 90.4863 2.1575 91.8377 2.15501C91.3872 2.10078 90.9754 2.05425 90.5396 2.00292C91.4111 1.94332 92.2853 1.88333 93.1567 1.82373C92.5446 1.68217 91.2183 1.47191 91.2546 1.28567C91.6559 1.35598 93.031 1.23241 93.1815 1.22732C93.7641 1.20828 93.4466 1.32574 93.4907 1.32864C94.4061 1.38571 95.1601 1.34572 95.5076 1.52369C96.1955 1.44339 96.7143 1.48917 97.4437 1.48463C97.8452 1.48215 97.7671 1.35143 98.0021 1.37624C99.5639 1.54181 98.0759 1.71074 101.089 1.38918C100.724 1.29811 100.364 1.20496 99.9995 1.11307C100.34 1.07871 100.678 1.04416 101.018 1.0098C101.246 1.02636 101.472 1.04304 101.699 1.0596C101.694 1.25705 101.689 1.4549 101.684 1.65235C101.933 1.66311 102.184 1.67356 102.434 1.68433C102.005 1.70378 101.576 1.72322 101.148 1.74267C101.108 1.77742 101.072 1.81218 101.033 1.84692C101.669 1.90073 102.304 1.95503 102.94 2.00926C102.952 1.94058 102.964 1.87141 102.977 1.80273C104.411 1.89835 104.445 1.9565 105.809 1.76733C106.859 1.7694 107.714 1.48222 108.322 1.36134C108.54 1.39983 108.758 1.43881 108.978 1.4773C109.117 1.42018 109.258 1.3633 109.398 1.30617C109.675 1.38564 109.955 1.46513 110.232 1.54419C110.386 1.3638 110.466 1.30748 109.386 1.24416C109.756 1.0198 111.656 1.11877 112.43 1.19411C113.017 1.25129 112.366 1.43843 112.439 1.46119C112.684 1.53853 113.651 1.4718 113.855 1.48463C114.714 1.53802 115.316 1.52867 116.092 1.57007C116.243 1.57836 116.665 1.69696 116.701 1.70068C116.98 1.72096 117.669 1.77861 117.748 1.78026C121.789 1.8688 117.471 1.35424 121.228 1.40846C121.116 1.3406 121.012 1.2732 120.902 1.20534C121.186 1.2012 121.473 1.19727 121.757 1.19313C122.117 1.24985 121.681 1.35298 122.396 1.26979C122.349 1.35341 122.303 1.43706 122.254 1.52027C122.565 1.47514 122.864 1.43039 123.183 1.38526C123.682 1.67544 125.505 1.74134 125.376 2.082C125.332 2.19792 124.039 2.31685 124.722 2.44063C125.277 2.46499 124.901 2.32656 125.128 2.3193C126.763 2.26879 126.668 2.46283 127.337 2.41109C127.442 2.32793 127.552 2.24314 127.66 2.15915C127.912 2.18356 128.165 2.20798 128.419 2.23239C128.478 2.1765 128.539 2.12056 128.598 2.06467C128.361 2.06094 128.093 2.05717 127.875 2.05344C128.179 1.83699 130.969 1.73975 129.905 1.9243C129.472 1.99922 128.679 1.96739 129.18 2.22311C129.927 2.18627 130.774 2.14863 131.56 2.11179C131.584 2.16684 131.607 2.222 131.631 2.27706C132.69 2.24142 131.727 2.02129 131.729 1.9033C131.971 1.89999 132.216 1.89709 132.459 1.89378C132.561 1.94713 132.659 2.00297 132.766 2.05466C132.776 1.96976 132.912 1.77243 133.634 1.84569C134.098 1.89336 133.367 2.10755 134.252 2.07785C134.186 1.94541 133.866 1.7841 134.852 1.74144C134.95 1.87967 135.086 2.00631 135.162 2.15158C136.388 2.01878 136.946 2.23224 138.385 2.07785C139.299 1.98015 140.549 1.63334 141.139 2.16769C141.807 2.18175 141.595 2.04869 141.793 2.01877C142.726 1.87719 143.42 2.13057 143.593 2.14547C144.702 2.241 145.199 2.15329 146.102 2.27291C146.053 2.17397 146.027 2.08031 145.987 1.98386C145.16 2.13206 144.741 2.1251 143.58 2.09323C143.97 2.07336 144.359 2.05304 144.748 2.03317C144.684 1.95288 144.621 1.87258 144.56 1.79271C140.971 2.10898 141.808 1.60928 144.817 1.5C145.077 1.64858 145.346 1.79677 145.603 1.94577C147.341 1.72058 148.159 1.91607 150.124 1.96286C150.358 1.96821 151.209 1.88262 151.575 1.87839C151.569 1.87782 151.563 1.87725 151.557 1.87668C151.784 1.73637 151.476 1.67179 151.439 1.54638C151.638 1.53065 151.836 1.51499 152.034 1.49926C152.477 1.59486 152.321 1.67338 153.193 1.65062C153.075 1.55542 152.959 1.46019 152.842 1.36499C153.797 1.36168 154.422 1.46511 155.31 1.42041C155.161 1.45642 155.013 1.49254 154.864 1.52855C156.798 1.62046 155.259 2.18019 156.721 1.90158C156.814 1.95041 156.904 1.99972 156.997 2.04855C156.395 2.06055 155.793 2.07219 155.193 2.08419C155.181 2.1533 155.167 2.22211 155.158 2.29121C155.802 2.27051 156.449 2.24917 157.092 2.22847C156.622 2.27484 156.15 2.32126 155.68 2.36762C156.426 2.40074 157.173 2.43387 157.92 2.46698C157.127 2.21287 158.155 2.18179 157.961 1.93015C159.283 2.13961 160.322 2.41573 162.371 2.23897C162.777 2.20375 162.557 2.0279 163.709 2.2419C163.43 1.96209 164.875 1.83079 164.689 1.56468C164.288 1.57751 163.872 1.58558 163.482 1.6013C163.926 1.69361 163.999 1.94755 163.326 2.02291C162.467 2.11895 161.213 1.94296 161.265 2.22481C160.922 2.21156 160.603 2.20375 160.27 2.19258C160.407 2.12266 160.542 2.05231 160.676 1.98239C159.729 2.092 159.134 2.05636 158.679 1.8801C159.807 1.83954 160.933 1.7994 162.062 1.75925C161.895 1.74727 161.727 1.73519 161.561 1.72361C162.415 1.54353 161.534 1.37297 163.128 1.33447C163.118 1.41683 163.11 1.49924 163.1 1.58202C163.68 1.36178 165.269 1.36298 164.762 1.10963C165.242 1.18745 165.34 1.23666 165.612 1.10011C166.877 1.2926 167.69 1.53602 167.24 1.82663C167.71 1.77986 168.18 1.73303 168.647 1.68626C168.376 1.60679 168.104 1.5277 167.832 1.44823C168.65 1.4532 169.473 1.45808 170.289 1.46263C170.367 1.69773 168.715 1.53396 169.191 1.74412C169.287 1.7863 169.727 1.69594 169.843 1.7197C171.062 1.97675 169.148 1.79104 169.507 1.988C171.324 2.04885 169.87 2.37888 172.372 2.10152C172.438 2.16939 172.509 2.23864 172.57 2.3061C173.439 2.31017 173.369 2.15686 174.115 2.12788C174.583 2.10986 175.17 2.37908 175.686 2.19575C175.778 2.16195 174.909 1.8329 176.735 1.84738C178.152 1.8586 177.562 2.09114 178.328 2.17353C179.094 2.25591 180.847 1.93348 181.364 2.29901C180.962 2.2506 180.451 2.22448 180.006 2.18476C179.824 2.25595 179.648 2.32638 179.469 2.39716C180.488 2.30526 181.541 2.41357 182.226 2.24384C183.585 2.5034 185.104 2.26253 184.693 1.96944C184.246 2.0117 184.732 2.1395 184.111 2.05806C184.048 1.98975 183.98 1.92178 183.917 1.85348C184.974 1.86176 185.709 1.85984 185.227 2.06807C185.391 2.07304 185.553 2.07799 185.717 2.08296C185.747 1.93227 185.773 1.78103 185.802 1.63035C185.998 1.61337 186.195 1.59654 186.39 1.57957C186.608 1.61266 186.826 1.64615 187.047 1.67966C186.75 1.91811 186.246 1.92598 187.915 2.05928C187.92 1.9769 187.928 1.89484 187.932 1.81246C189.33 1.91719 189.367 2.11675 191.122 2.10932C189.776 2.39534 189.039 1.88834 189.044 2.46209C188.706 2.42442 188.366 2.38624 188.028 2.34857C187.976 2.43178 187.925 2.51511 187.876 2.59831C189.69 2.55442 192.704 2.0072 193.918 2.37005C194.065 2.32577 194.212 2.28728 194.362 2.23969C195.551 2.45868 196.065 1.96703 197.272 2.25018C197.397 2.2799 197.136 2.74181 198.707 2.72526C198.668 2.66522 198.648 2.56418 198.616 2.48845C198.956 2.52528 199.295 2.56383 199.632 2.60148C199.693 2.54603 199.758 2.49061 199.819 2.43474C199.239 2.41322 198.66 2.39133 198.08 2.36981C198.562 2.35077 199.047 2.33172 199.529 2.31268C198.9 2.22205 198.617 2.22109 198.996 2.07588C199.542 2.06718 200.088 2.05796 200.634 2.04926C200.691 2.01206 200.746 1.97442 200.803 1.93721C200.538 1.82628 200.271 1.71778 200.007 1.6052C201.429 1.69585 202.666 1.70077 203.758 1.9189C203.944 1.95574 203.286 2.10027 204.553 1.96992C204.573 2.04647 204.607 2.10862 204.629 2.17938C206.181 1.96495 206.691 2.02895 208.309 2.18378C207.262 2.0393 208.196 2.13327 208.463 2.05585C208.646 2.00252 207.933 2.0104 208.013 1.95454C208.094 1.89907 209.021 1.6751 208.228 1.64816C206.285 2.10725 205.755 1.55837 203.258 1.77901C203.642 1.71982 204.029 1.66049 204.414 1.60129C204.233 1.56117 204.071 1.52476 203.875 1.48215C205.268 1.57197 204.59 1.51362 205.163 1.44285C205.736 1.37206 206.777 1.31192 207.474 1.29246C207.694 1.28635 207.462 1.38932 207.958 1.3989C208.296 1.40553 209.219 1.25288 209.433 1.43284C209.572 1.54998 208.089 1.87255 210.14 1.87178C210.526 1.98662 209.543 1.95096 209.521 1.96479C209.343 2.1014 210.603 2.20412 211.186 2.0998C211.233 2.0908 210.773 1.98434 211.273 1.94258C212.461 1.84281 213.147 1.96489 213.915 2.13007C213.999 1.93633 214.998 1.70495 216.241 1.77657C216.305 1.72113 216.366 1.6652 216.429 1.60934C216.236 1.63869 216.043 1.66764 215.85 1.69698C215.64 1.66221 215.416 1.6369 215.211 1.59591C216.462 1.54827 216.638 1.28127 217.238 1.18358C219.291 0.849868 218.047 1.55578 217.677 1.67745C217.41 1.62819 217.152 1.5732 216.887 1.52145C216.917 1.58893 216.946 1.65692 216.973 1.72481C220.046 1.72275 217.441 2.16283 219.001 2.28826C219.402 1.95628 220.548 1.92428 222.007 2.13495C222.168 2.13329 222.33 2.13287 222.492 2.1308C222.519 2.08239 222.518 2.0084 222.562 1.97651C224.32 1.92021 224.633 2.43146 224.8 2.4799C225.539 2.69471 226.115 2.39749 226.333 2.39494C227.251 2.38459 227.518 2.51657 228.391 2.45988C229.331 2.39863 228.689 2.29736 228.975 2.20672C229.204 2.13473 229.945 2.12191 230.252 2.0473C230.13 2.10833 229.995 2.16817 229.873 2.22942C230.848 2.31261 231.644 2.3937 232.75 2.41398C233.999 1.96747 235.061 2.72068 234.63 2.1098C233.582 2.06799 232.996 1.99837 232.436 1.84272C233.124 1.82285 233.812 1.80351 234.5 1.78364C234.7 1.85069 234.843 1.91603 235.08 1.98431C235.594 1.84194 236.786 1.90303 237.254 1.86127C239.445 1.66547 238.767 1.42261 240.767 1.83076C239.326 1.87052 239.328 2.06876 237.898 2.04144C238.207 2.18301 238.933 2.15368 238.463 2.32341C239.846 2.2816 239.399 2.13007 239.937 1.99554C240.402 1.87957 241.337 1.87307 241.284 1.72236C241.379 1.80523 241.453 1.88544 241.549 1.9682C242.444 1.96737 243.34 1.96732 244.236 1.96649C243.854 2.053 243.473 2.13966 243.091 2.22575C243.379 2.25843 243.668 2.29098 243.957 2.32365C246.16 2.05457 249.96 2.54772 249.353 1.87177C250.415 1.85024 250.548 1.93502 251.126 2.06292C251.189 2.0116 251.251 1.96892 251.315 1.9118C252 1.96552 252.526 1.77286 253.131 1.82294C253.736 1.87264 253.886 2.05462 253.974 1.74872C254.365 1.83647 254.755 1.90936 255.144 1.9909C255.379 1.92141 255.614 1.85271 255.846 1.78363C256.213 1.82006 256.581 1.85633 256.948 1.89276C257.145 1.74674 258.588 1.80968 259.225 1.71161C259.829 1.86902 259.813 2.3646 261.234 2.27579C261.197 2.15288 261.161 2.03032 261.124 1.9074C261.45 1.93307 261.776 1.95864 262.104 1.9843C262.124 2.02442 262.141 2.06454 262.16 2.10466C261.994 2.09224 261.83 2.07989 261.663 2.06706C261.808 2.13496 261.949 2.20253 262.091 2.27042C262.588 2.16985 263.086 2.06926 263.585 1.96868C262.912 1.89253 262.239 1.81633 261.565 1.74018C262.41 1.64993 262.998 1.73995 263.732 1.63935C264.371 1.80905 264.135 1.90683 263.876 2.09099C264.113 2.07526 264.353 2.06008 264.591 2.04436C264.434 2.22854 264.836 2.33829 263.448 2.3234C263.543 2.37593 263.641 2.42602 263.734 2.48062C263.961 2.47234 264.109 2.51674 264.359 2.49649C265.039 2.44101 265.561 2.11751 265.515 2.00408C265.489 1.94466 264.818 2.05829 264.845 1.97429C264.912 1.76946 266.451 1.86143 264.231 1.65571C264.968 1.52531 265.132 1.62365 265.945 1.66132C265.881 1.59307 265.82 1.52524 265.758 1.45699C266.135 1.48843 266.513 1.51977 266.89 1.55122C266.366 1.90183 269.144 2.03352 266.643 2.34024C267.382 2.35597 268.119 2.37178 268.856 2.38834C268.704 2.42434 268.552 2.45999 268.4 2.496C268.067 2.47696 267.737 2.45823 267.404 2.4396C267.795 2.5054 268.187 2.57081 268.579 2.63661C269.504 2.55506 269.867 2.42964 270.291 2.27481C269.214 2.16184 269.566 2.31616 268.727 2.34683C268.756 2.24879 268.717 2.1586 268.79 2.05559C269.224 2.25868 270.639 2.11093 270.967 2.101C271.965 2.07083 271.182 2.27037 271.85 2.27457C272.518 2.27871 273.306 2.15994 273.852 2.35782C273.843 2.24691 273.799 2.13216 273.76 2.03117C274.8 1.99474 274.593 2.12577 274.7 2.14274C276.419 2.42174 277.352 2.18619 279.317 2.15763C279.068 2.12328 278.816 2.09226 278.563 2.05998C280.046 1.8245 279.047 1.8966 277.76 1.81878C278.967 1.84238 279.658 1.64183 280.51 1.58222C281.362 1.52271 282.823 1.62571 283.357 1.70599C282.135 1.83515 280.817 1.74998 279.461 1.78558C279.615 1.89856 279.765 1.99418 279.924 2.11832C280.749 1.88119 281.227 2.03975 281.499 2.07121C282.297 2.16348 282.272 1.95995 282.754 2.17887C282.734 2.10356 282.72 2.04023 282.7 1.96989C284.348 2.00135 286.125 2.1345 287.197 1.85637C287.295 2.03726 287.369 2.21153 287.482 2.39614C288.179 2.25998 288.777 2.39941 289.364 2.36758C289.949 2.3357 289.727 2.18952 290.415 2.13321C290.542 2.12286 290.807 2.21436 291.12 2.14688C291.437 2.07905 292.604 1.57468 292.743 2.0153C293.333 2.01737 293.892 2.03348 294.469 2.04093C293.906 2.06577 293.343 2.08982 292.782 2.11466C293.262 2.22145 293.739 2.32792 294.219 2.43471C294.28 2.3395 294.341 2.24256 294.4 2.14859C295.693 2.03268 296.631 2.18835 297.936 2.15152C298.154 2.14531 297.64 1.95707 298.606 2.00504C299.573 2.05306 300.291 2.40441 301.938 2.2687C302.022 2.26166 302.509 1.99257 303.099 2.17886C303.234 2.22108 302.669 2.28355 302.977 2.33901C303.285 2.39448 304.662 2.44009 304.769 2.57215C304.755 2.52539 304.669 2.47693 304.627 2.42934C304.862 2.40699 305.099 2.38462 305.337 2.36269C305.359 2.44506 305.383 2.52755 305.405 2.6095C306.756 2.41784 307.454 2.10519 309.457 2.20864C308.894 2.08902 308.331 1.96891 307.77 1.84929C307.616 1.93332 307.461 2.01792 307.309 2.10196C306.387 2.06843 305.461 2.03515 304.538 2.00162C304.387 2.09725 304.238 2.1926 304.086 2.28823C303.841 2.27581 303.599 2.26378 303.354 2.25137C303.415 2.18224 303.477 2.11347 303.54 2.04435C303.056 2.06131 302.571 2.07864 302.088 2.09561C303.07 1.68756 304.83 2.13032 304.703 1.78899C304.921 1.84195 305.139 1.89527 305.356 1.94865C305.452 1.78314 305.895 1.83077 306.675 1.85685C306.497 1.7753 306.299 1.69486 306.135 1.61248C306.894 1.72755 308.241 1.71638 309.026 1.76067C309.372 1.78012 309.027 1.90012 309.129 1.91422C309.656 1.98791 310.662 1.77853 310.872 1.79509C312.131 1.89363 312.948 2.29058 314.322 2.02896C312.904 1.96438 313.675 1.99166 313.171 1.84635C313.013 1.8008 311.182 1.70576 313.475 1.74797C313.744 1.75325 317.905 2.02752 316.537 2.23769C317.21 2.17063 317.737 2.09308 318.354 2.02188C319.863 2.57577 319.341 2.05543 318.902 1.76896C319.15 1.76772 319.385 1.76481 319.639 1.76481C319.098 2.06577 321.855 2.08446 322.79 1.93253C323.103 1.88202 322.227 1.78569 322.952 1.74015C323.297 1.76126 323.688 1.78859 324.053 1.81217C323.524 1.62176 324.562 1.54838 324.547 1.35468C325.211 1.52728 325.718 1.89315 325.354 2.09145C325.902 2.01116 326.453 1.93096 327.001 1.85026C326.747 1.80431 326.489 1.75876 326.234 1.71281C328.026 1.83452 330.331 1.55757 330.705 1.96451C330.943 1.96161 331.183 1.9591 331.42 1.95621C331.494 1.88749 331.565 1.81864 331.638 1.74992C332.713 1.80951 333.785 1.86951 334.859 1.92911C333.902 1.97175 333.675 2.06956 332.671 1.99014C333.058 2.06917 333.452 2.14864 333.831 2.22768C335.342 2.0149 335.548 1.87505 337.822 1.93838C337.925 1.94128 339.643 2.11971 339.702 2.1371C339.971 2.21658 339.563 2.33204 339.682 2.3722C340.015 2.4848 342.039 2.76752 341.999 2.81016C341.505 3.33342 334.698 3.34036 332.857 3.36727C313.761 3.64627 295.085 3.27301 276.109 3.33677C275.914 3.33776 275.999 3.415 275.916 3.41831C275.4 3.43771 274.893 3.31733 274.702 3.31236C274.294 3.30212 274.518 3.41335 274.22 3.41343C271.14 3.41219 268.234 3.34678 265.152 3.36583C264.951 3.36707 265.156 3.27808 264.804 3.29381C264.622 3.30242 264.052 3.43895 263.641 3.44102C262.206 3.44805 261.001 3.40428 259.488 3.40635C258.661 3.40759 257.42 3.39599 256.494 3.39805C256.086 3.39893 255.66 3.46139 255.256 3.46348C254.683 3.46638 254.8 3.33976 254.712 3.3319C254.325 3.29755 254.272 3.43652 253.905 3.43321C253.222 3.42659 253.185 3.3338 252.318 3.34166C251.699 3.34746 250.281 3.42072 249.5 3.44224C247.674 3.33462 245.373 3.37735 243.669 3.41295C242.66 3.43406 242.567 3.30414 242.155 3.30456C240.706 3.30708 239.606 3.473 238.245 3.47838C236.439 3.48539 234.838 3.37568 233.088 3.36779C232.804 3.36655 232.869 3.48558 232.591 3.48864C231.56 3.49981 230.242 3.52148 229.324 3.5045C228.301 3.48585 227.924 3.31308 226.922 3.34826C226.629 3.35871 226.543 3.5102 226.051 3.52965C225.265 3.56024 224.404 3.42665 223.855 3.41174C223.104 3.39187 223.757 3.5462 222.744 3.5255C222.702 3.52461 222.55 3.41429 222.333 3.41955C221.699 3.43445 221.762 3.52133 220.834 3.51305C220.745 3.51191 219.514 3.40679 219.392 3.40637C218.672 3.40471 217.223 3.36791 216.797 3.39026C215.274 3.46974 216.473 3.63567 215.178 3.27552C214.608 3.36367 214.042 3.45302 213.438 3.53869C213.841 3.45879 212.204 3.3435 212.089 3.35095C211.137 3.41099 211.704 3.55113 210.497 3.52795C212.091 3.20422 208.94 3.48622 208.238 3.4945C204.854 3.53465 201.779 3.45386 198.379 3.45593C197.24 3.45678 195.715 3.52521 194.51 3.52356C194.23 3.52346 194.442 3.44685 194.195 3.44519C193.948 3.44406 194.222 3.53006 193.94 3.52551C192.19 3.4957 190.818 3.33342 189.215 3.53626C189.137 3.50693 189.139 3.48376 189.01 3.45154C187.698 3.63326 185.171 3.38889 184.221 3.35536C182.735 3.30323 182.356 3.42606 181.276 3.40126C179.849 3.36814 177.706 3.12818 178.663 3.5243C177.684 3.53671 176.741 3.54014 175.752 3.5033C175.642 3.49913 175.718 3.39844 175.674 3.39637C175.395 3.38192 175.304 3.47207 175.116 3.4762C174.605 3.48734 175.439 3.3794 174.71 3.40956C174.326 3.4257 174.107 3.50433 173.04 3.50599C166.606 3.51468 159.621 3.48653 153.026 3.47328C152.573 3.47246 152.871 3.56982 152.303 3.56361C150.33 3.54207 146.798 3.37821 145.096 3.40054C143.395 3.42289 143.779 3.56527 142.714 3.62489C142.509 3.63648 142.677 3.55534 142.491 3.55409C141.24 3.54664 139.749 3.42007 138.735 3.40103C138.065 3.38827 138.118 3.51593 137.654 3.52504C136.961 3.53829 136.248 3.40932 135.878 3.40518C134.14 3.38699 132.945 3.49087 131.322 3.43789C131.386 3.46599 131.428 3.49199 131.481 3.51968C129.56 3.51512 127.64 3.51056 125.719 3.50601C125.809 3.53167 125.897 3.55756 125.988 3.58364C123.733 3.56955 123.99 3.29138 124.188 3.87879C124.025 3.89948 123.851 3.92347 123.694 3.94251C123.758 3.63992 122.394 3.41848 120.658 3.34147C120.531 3.33567 119.677 3.63071 119.77 3.28214C119.547 3.36742 119.414 3.4262 119.226 3.50113C118.859 3.3956 118.486 3.29132 118.119 3.1862C117.921 3.20193 117.72 3.2171 117.522 3.23283C117.492 3.30113 117.515 3.37205 117.451 3.43912C116.531 3.44947 114.643 3.36503 113.916 3.37369C112.109 3.39563 110.27 3.58031 108.864 3.38077C108.18 3.40112 108.86 3.53518 107.842 3.51822C107.727 3.45034 107.618 3.38529 107.498 3.31535C106.666 3.61861 106.493 3.43413 105.352 3.37077C104.581 3.32772 104.076 3.40184 103.342 3.38737C103.156 3.38364 103.182 3.29463 103.055 3.29753C102.628 3.30671 101.412 3.42922 101.111 3.43253C98.3839 3.46482 96.0411 3.45107 93.4437 3.41838C93.1647 3.41506 93.5265 3.50291 93.2376 3.49918C92.7728 3.49333 93.0463 3.35835 92.7771 3.35173C92.026 3.33402 92.0203 3.47635 90.9728 3.4838C87.5233 3.50821 83.5575 3.40129 79.9539 3.39177C79.8413 3.39177 79.8479 3.47517 79.7256 3.47599C78.9277 3.48007 78.12 3.36734 77.3955 3.36858C76.1934 3.37024 75.29 3.4874 74.1027 3.48698C71.7817 3.48657 69.7082 3.42658 67.3212 3.42327C65.3676 3.42037 63.6708 3.43149 61.5287 3.43108C52.1716 3.42943 42.6234 3.69415 33.2027 3.5534C32.9629 3.54968 33.0605 3.47599 32.9874 3.47918C32.2922 3.51106 32.2301 3.61048 31.9829 3.40228C31.0972 3.44332 30.8176 3.59973 29.748 3.58856C29.1779 3.5827 29.6036 3.34027 28.6391 3.46527C27.7682 3.57827 28.7293 3.71113 26.1395 3.57537C26.0709 3.57164 25.7334 3.42387 25.1949 3.46234C24.6538 3.50043 25.2802 3.60624 23.9777 3.63812C20.92 3.71262 17.0497 3.58489 13.495 3.6242C13.2723 3.62669 11.1266 3.70569 10.7031 3.74212C9.88348 3.8129 10.0547 3.92272 8.99017 3.94963C8.16751 3.97033 7.48889 3.84594 6.52182 3.87078C6.40918 3.8738 6.22052 4.00175 5.49377 3.98478ZM185.715 1.49949C185.915 1.37395 186.278 0.911872 187.491 1.05249C187.607 1.06574 186.985 1.38351 187.656 1.43407C187 1.4676 186.361 1.47846 185.715 1.49998C185.715 1.49982 185.715 1.49966 185.715 1.49949ZM0.232208 1.0384C1.14047 1.06158 2.05194 1.08455 2.96021 1.10773C2.33344 1.16362 1.70584 1.21939 1.08154 1.27569C0.797546 1.19664 0.516205 1.11745 0.232208 1.0384ZM113.299 1.25783C113.298 1.25783 113.297 1.25783 113.296 1.25783C114.251 1.19822 115.206 1.1385 116.161 1.07888C116.061 1.12276 115.96 1.16683 115.86 1.21071C115.106 1.27983 114.352 1.34886 113.6 1.41798C113.5 1.36459 113.399 1.31122 113.299 1.25783ZM105.755 1.72241C105.146 1.67025 105.295 1.58228 104.96 1.49659C104.96 1.49675 104.96 1.49692 104.96 1.49708C104.871 1.47477 104.459 1.45525 104.299 1.45192C104.358 1.50697 104.434 1.56133 104.498 1.61597C103.075 1.74927 100.294 1.27559 103.895 1.08475C103.841 1.15428 103.79 1.22346 103.736 1.29299C105.525 1.27353 107.521 1.42435 105.755 1.72241ZM200.105 1.2993C201.632 1.07162 202.122 1.02361 203.975 1.17968C203.714 1.24421 203.452 1.30874 203.19 1.37327C202.884 1.30745 202.58 1.24208 202.274 1.17626C202.273 1.17626 202.272 1.17626 202.272 1.17626C202.21 1.24539 202.149 1.31464 202.09 1.38377C201.429 1.35562 200.766 1.32745 200.105 1.2993ZM47.277 1.55789C46.8512 1.10316 46.974 1.36747 48.1902 1.26493C48.6113 1.22933 48.2009 1.14977 48.4629 1.13652C49.8774 1.06416 49.9906 1.36883 49.6749 1.52737C48.8744 1.53813 48.0654 1.54795 47.2796 1.55789C47.2787 1.55789 47.2778 1.55789 47.277 1.55789ZM10.574 1.65238C10.5731 1.65238 10.5722 1.65238 10.5714 1.65238C10.5347 1.54146 11.1048 1.51163 10.4618 1.40654C10.951 1.40696 11.4404 1.40784 11.9321 1.40825C11.7879 1.41858 11.6406 1.42843 11.4963 1.43877C11.6237 1.47685 11.7513 1.51542 11.8786 1.55351C12.0525 1.42602 12.2139 1.50012 12.7279 1.54276C12.5859 1.40657 12.4446 1.27028 12.3026 1.13409C12.8998 1.17465 13.4992 1.21535 14.0965 1.25591C14.1038 1.29023 14.1113 1.32461 14.1187 1.35894C14.3438 1.31507 14.5667 1.27073 14.7918 1.22686C14.853 1.26784 14.912 1.30844 14.9732 1.34941C15.2448 1.31838 15.5169 1.28736 15.7886 1.25591C15.8712 1.35517 15.2726 1.39807 16.3339 1.37285C16.0083 1.47467 15.6835 1.57619 15.3554 1.67801C13.7617 1.66973 12.1677 1.66107 10.574 1.65238ZM58.3415 1.418C56.5862 1.43704 57.0806 1.36511 57.487 1.13994C57.7708 1.23264 58.0576 1.3253 58.3415 1.418ZM148.775 1.6184C149.285 1.46481 149.796 1.31276 150.318 1.16456C151.356 1.07887 152.394 1.3588 151.613 1.4685C150.673 1.60013 149.691 1.45281 148.775 1.6184ZM172.418 1.55003C171.148 1.47881 172.343 1.29632 172.629 1.18994C172.981 1.36091 173.47 1.34583 174.257 1.36571C173.518 1.3768 172.628 1.56212 172.418 1.55052C172.418 1.55036 172.418 1.55019 172.418 1.55003ZM128.337 1.4458C127.828 1.4504 127.322 1.49329 126.867 1.44117C127.004 1.29431 127.915 1.42792 127.263 1.21022C127.589 1.2065 127.915 1.20289 128.238 1.19875C128.033 1.28894 128.309 1.35636 128.336 1.44532C128.336 1.44548 128.337 1.44564 128.337 1.4458ZM75.3486 1.24491C76.3474 1.41877 76.5367 1.34438 77.543 1.22391C77.6847 1.36547 76.485 1.6026 75.7334 1.6548C75.6061 1.5182 75.4783 1.3815 75.3486 1.24491ZM311.612 1.31733C311.372 1.49777 309.603 1.5213 308.724 1.46796C308.828 1.44119 308.933 1.41408 309.038 1.38691C309.895 1.36372 310.755 1.34051 311.612 1.31733ZM174.632 1.37792C174.5 1.37264 174.375 1.36869 174.257 1.36571C174.388 1.36375 174.515 1.36682 174.632 1.37792ZM227.814 2.16107C227.395 2.33119 228.639 2.38834 227.129 2.3217C227.129 2.32187 227.129 2.32203 227.129 2.32219C226.13 2.27831 225.909 2.26659 224.984 2.25335C225.317 2.0348 227.194 1.95669 224.607 1.91157C224.573 1.91137 224.64 2.04141 224.227 2.02362C224.099 2.01809 223.691 1.91137 223.07 1.88032C222.869 1.87038 221.361 1.83747 223.417 1.8354C223.356 1.68306 223.466 1.52886 223.461 1.38108C224.264 1.33813 224.881 1.63643 225.73 1.62911C226.991 1.61752 227.632 1.31587 227.875 1.71163C226.815 1.80886 224.994 1.8112 224.757 1.57321C223.731 1.57031 223.437 1.7653 224.264 1.86177C227.806 1.73923 225.236 2.1512 228.338 1.99555C228.375 1.94051 228.502 1.88127 228.483 1.82954C229.43 2.02323 227.963 2.10022 227.814 2.16107ZM220.406 1.74019C221.018 1.62387 221.628 1.50661 222.238 1.38987C222.238 1.57946 221.901 1.74959 220.937 1.8564C220.761 1.81752 220.582 1.77866 220.406 1.74019ZM271.892 1.69037C271.98 1.5873 272.215 1.49284 272.386 1.39473C272.572 1.48166 276.979 1.56506 274.737 1.65033C274.411 1.66275 272.425 1.48049 271.892 1.69037ZM68.4132 1.40017C68.9322 1.46931 69.4492 1.53855 69.9657 1.60768C69.1706 1.65154 68.3747 1.69654 67.5795 1.74122C67.8582 1.62757 68.1345 1.51383 68.4132 1.40017ZM157.224 1.79929C157.005 1.79542 157.733 1.65366 156.869 1.67601C157.513 1.58535 158.116 1.50861 158.745 1.42333C158.934 1.4904 159.124 1.55719 159.313 1.62425C159.46 1.5812 159.61 1.5384 159.756 1.49535C159.668 1.59305 159.59 1.68846 159.497 1.78782C158.437 1.57835 158.194 1.81585 157.224 1.79929ZM125.703 2.18136C125.513 1.96904 127.048 1.84277 125.537 1.80882C125.824 1.66933 126.285 1.59616 127.168 1.58374C127.31 1.63709 127.452 1.69005 127.594 1.7434C127.613 1.60064 127.841 1.54758 128.337 1.4458C128.338 1.44597 128.338 1.44613 128.339 1.44629C129.682 1.43596 129.602 1.48356 129.925 1.71825C128.503 1.58578 128.46 1.80021 127.49 1.92771C126.825 2.01539 125.955 1.97568 125.703 2.18136ZM267.196 1.69281C268.202 1.51358 267.299 1.3464 269.084 1.53681C268.969 1.58235 268.853 1.6275 268.738 1.67304C268.224 1.68007 267.71 1.68661 267.196 1.69281ZM120.739 1.45362C120.854 1.78229 121.801 2.03813 121.963 1.50342C121.04 1.39455 121.491 1.69743 120.739 1.45362ZM171.985 2.06465C170.21 2.04932 170.545 1.67836 171.275 1.49291C171.388 1.56038 171.5 1.62798 171.61 1.69504C171.921 1.66441 172.232 1.63372 172.543 1.6035C172.357 1.75708 172.171 1.91107 171.985 2.06465ZM89.4503 1.8147C90.8066 1.57997 87.9861 1.68416 88.9336 1.53761C89.6901 1.42047 90.687 1.65698 90.31 1.80518C90.048 1.80932 89.7564 1.81221 89.4529 1.8147C89.452 1.8147 89.4512 1.8147 89.4503 1.8147ZM97.2989 1.74756C97.0762 1.49677 97.3972 1.56987 96.3256 1.615C96.0196 1.62783 93.5878 1.53364 94.6087 1.74146C95.4777 1.74146 96.3957 1.74508 97.2989 1.74756ZM192.5 1.69772C192.516 1.80693 190.644 2.04674 190.403 1.98677C190.403 1.98693 190.403 1.9871 190.403 1.98726C189.755 1.82374 191.73 1.80051 190.873 1.57615C192.77 1.77357 193.338 1.29603 193.206 1.92525C192.088 1.95285 192.617 1.82315 192.5 1.69772ZM334.845 1.83145C334.846 1.83145 334.847 1.83145 334.847 1.83145C334.722 1.82632 333.686 1.66604 333.812 1.61052C335.058 1.65812 334.836 1.76362 335.996 1.59026C336.059 1.64609 336.114 1.70025 336.182 1.75651C335.722 1.78962 335.467 1.85671 334.845 1.83145ZM276.656 1.91057C276.198 1.93914 275.363 1.82078 274.841 1.82781C276.501 1.37328 278.485 1.79714 276.656 1.91057ZM27.7402 1.63675C27.7415 1.63659 27.7428 1.63642 27.7441 1.63626C27.7438 1.63651 27.7432 1.63675 27.7428 1.63699C27.742 1.63691 27.7411 1.63683 27.7402 1.63675ZM241.179 1.63789C241.238 1.6674 241.272 1.69303 241.284 1.71553C241.284 1.71764 241.284 1.71976 241.284 1.72187C241.252 1.69425 241.218 1.66631 241.179 1.63789ZM196.392 1.66476C197.172 1.81707 194.573 2.05922 193.733 2.00142C193.792 1.9319 193.801 1.86888 193.938 1.78903C194.616 1.96905 196.262 1.6391 196.392 1.66476ZM137.149 1.72069C139.203 1.72483 136.53 2.32621 136.419 1.84642C136.423 1.83712 137.096 1.72151 137.149 1.72069ZM180.193 1.72775C179.67 1.90983 180.722 1.95818 179.04 1.92672C178.942 1.87956 178.844 1.83229 178.747 1.78513C179.229 1.76609 179.711 1.74679 180.193 1.72775ZM150.605 2.5102C153.19 2.40878 155.662 2.22986 153.978 1.72776C153.783 1.74389 153.584 1.75949 153.389 1.77561C153.359 2.02057 152.637 1.88686 151.58 1.87888C151.43 1.97613 150.844 1.99862 150.734 2.08126C150.521 2.24101 151.194 2.35333 150.605 2.5102ZM41.461 2.11157C41.5026 2.06976 41.5433 2.02773 41.5849 1.98634C41.9938 1.93914 42.4037 1.89218 42.8126 1.84499C42.7465 1.92522 42.6803 2.00546 42.6143 2.0857C42.2301 2.09438 41.8477 2.10313 41.4636 2.11182C41.4627 2.11174 41.4618 2.11166 41.461 2.11157ZM217.887 2.25701C218.121 1.7968 217.301 1.88156 215.636 2.1142C216.385 2.1618 217.137 2.20941 217.887 2.25701ZM109.063 2.3237C109.009 2.19296 108.956 2.06261 108.9 1.93187C108.016 2.06807 108.18 2.21779 108.603 2.39083C108.758 2.3685 108.909 2.34603 109.063 2.3237ZM96.3322 2.37936C96.6988 2.40664 96.5117 2.30108 96.55 2.3032C97.4779 2.35867 97.6085 2.40709 98.747 2.32761C98.8865 2.29988 99.0237 2.27072 99.1632 2.24216C98.6369 1.9682 98.2548 2.11752 97.141 1.95653C97.3418 2.0505 97.5417 2.1446 97.7424 2.23899C97.1232 2.21912 96.5065 2.19953 95.8873 2.17967C95.8138 2.20864 95.7403 2.23735 95.6668 2.26633C95.8871 2.30358 96.1143 2.34543 96.3322 2.37936ZM36.733 1.99268C36.1307 1.98192 35.5258 1.97074 34.9235 1.95997C34.9015 2.02744 34.8803 2.09537 34.8582 2.16284C35.4824 2.10614 36.1088 2.04939 36.733 1.99268ZM230.252 2.0473C230.3 2.02337 230.346 1.99929 230.388 1.9748C230.383 2.00464 230.331 2.02794 230.252 2.0473ZM336.434 2.20155C337.117 2.24874 338.101 2.21775 338.85 2.22767C338.791 2.05841 336.887 2.1052 336.219 2.00259C336.111 2.03296 336.145 2.1817 336.434 2.20155ZM169.529 2.04976C169.358 2.1342 169.187 2.21824 169.018 2.30268C168.604 2.29357 168.19 2.28396 167.773 2.27485C167.761 2.34398 167.749 2.41372 167.737 2.48285C169.57 2.39303 169.148 2.59238 170.055 2.78898C169.879 2.54272 169.706 2.29644 169.529 2.04976ZM17.5707 2.43115C18.8951 2.38437 19.3649 2.297 18.6183 2.08961C18.1508 2.1372 17.6807 2.18484 17.2132 2.23243C17.3331 2.29864 17.4532 2.36493 17.5707 2.43115ZM254.373 2.20353C255.481 2.12604 255.5 2.40437 256.583 2.24894C256.003 2.19762 255.423 2.14573 254.845 2.09441C254.689 2.1307 254.529 2.16724 254.373 2.20353ZM200.015 2.96792C200.482 3.06475 201.356 2.60449 202.671 2.94424C202.984 2.84284 203.18 2.74598 203.45 2.64665C203.606 2.75469 203.784 2.86412 203.934 2.97134C203.935 2.97134 203.935 2.97134 203.936 2.97134C205.129 2.93491 204.356 2.7994 204.382 2.68473C204.395 2.63719 205.28 2.71666 205.003 2.6132C204.526 2.43561 202.742 2.53773 202.737 2.32122C203.364 2.39198 204.588 2.33285 204.226 2.18842C203.829 2.02988 202.676 2.29557 201.941 2.164C202.994 2.51004 200.82 2.40315 200.573 2.1374C199.297 2.34148 200.47 2.42473 201.777 2.41521C200.979 2.61888 202.154 2.50884 202.347 2.67814C201.524 2.78033 198.7 2.69515 200.015 2.96792ZM139.837 2.59272C140.719 2.57958 142.096 2.696 142.7 2.52412C143.051 2.42397 141.671 2.34643 142.623 2.18917C141.764 2.2045 141.568 2.26593 141.715 2.40376C141.519 2.42031 141.321 2.43645 141.125 2.45259C141.035 2.42569 140.942 2.39916 140.851 2.37227C140.748 2.42897 140.645 2.48523 140.545 2.54194C140.337 2.53077 140.126 2.51959 139.918 2.508C139.894 2.53652 139.852 2.56133 139.837 2.59272ZM286.197 2.19498C285.952 2.19663 285.71 2.19828 285.465 2.20035C285.492 2.23392 285.524 2.26887 285.555 2.30337C285.577 2.33063 285.599 2.35789 285.621 2.38516C285.48 2.28776 284.314 2.12588 283.822 2.22989C283.575 2.28207 284.137 2.46732 283.09 2.49965C283.849 2.49013 284.552 2.46484 285.289 2.44912C285.223 2.50418 285.159 2.55982 285.093 2.61488C285.093 2.61496 285.094 2.61504 285.094 2.61512C285.339 2.62754 285.587 2.64055 285.831 2.65296C285.954 2.50021 286.074 2.34773 286.197 2.19498ZM109.78 2.58223C110.615 2.47418 110.895 2.41807 110.5 2.24338C110.499 2.2433 110.499 2.24322 110.498 2.24313C110.187 2.32053 109.876 2.3979 109.565 2.4753C109.636 2.5109 109.707 2.54663 109.78 2.58223ZM237.443 2.62393C239.218 1.96036 235.221 2.36714 235.982 2.59317C236.016 2.60352 237.276 2.55066 237.443 2.62393ZM172.311 2.26875C171.824 2.27413 171.335 2.27899 170.846 2.28437C170.958 2.36592 171.074 2.44719 171.186 2.52874C171.561 2.44222 171.936 2.35527 172.311 2.26875ZM23.3371 2.7324C23.8498 2.91455 25.1662 2.98054 25.8094 2.78244C25.4715 2.75926 25.1335 2.73605 24.7957 2.71287C25.4344 2.69011 26.066 2.66505 26.7096 2.64354C26.7438 2.38977 26.0021 2.53699 24.8857 2.46703C24.7128 2.45575 23.6078 2.14076 23.2262 2.37817C23.1494 2.42697 24.325 2.46015 23.508 2.60203C23.8653 2.6132 24.1736 2.61072 24.5113 2.61693C24.5357 2.67737 24.56 2.73787 24.5869 2.79831C24.1694 2.77643 23.7546 2.75428 23.3371 2.7324ZM144.97 2.57294C146.181 2.58694 146.33 2.48555 146.582 2.30635C146.019 2.32664 145.456 2.34661 144.893 2.3669C144.92 2.43543 144.943 2.50399 144.97 2.57294ZM34.1603 2.7905C34.8232 2.81981 34.5392 2.67395 34.8061 2.64622C35.8146 2.54191 36.5025 2.64616 37.4988 2.58079C37.4326 2.60894 37.372 2.63525 37.3083 2.66257C37.3092 2.66257 37.3101 2.66257 37.3109 2.66257C42.0284 2.78551 39.5506 2.45471 36.7278 2.50853C36.6617 2.4543 36.5982 2.4 36.5321 2.34618C35.2689 2.44098 34.104 2.53219 34.1603 2.7905ZM221.674 2.64664C221.728 2.68058 221.27 2.8963 222.129 2.79531C222.81 2.48035 221.694 2.63668 221.414 2.51554C221.647 2.48532 221.885 2.45592 222.115 2.4257C220.724 2.3367 220.521 2.41159 221.028 2.64176C221.064 2.65723 221.62 2.6128 221.674 2.64664ZM230.813 2.8019C231.004 2.33784 229.249 2.54652 229.313 2.69058C229.555 2.69632 229.743 2.61775 230 2.6525C230.26 2.68726 230.326 2.79566 230.813 2.8019ZM180.534 2.6884C180.585 2.69047 181.102 2.88551 181.051 2.73283C180.412 2.37144 179.124 2.60406 179.349 2.7299C179.775 2.72368 180.059 2.66945 180.534 2.68889C180.534 2.68873 180.534 2.68856 180.534 2.6884ZM15.3502 2.84177C15.3746 2.85472 16.6634 2.93311 16.8297 2.86032C16.9667 2.77837 17.0347 2.69054 17.1375 2.6057C16.4276 2.68435 14.9904 2.62444 15.3528 2.84177C15.352 2.84177 15.3511 2.84177 15.3502 2.84177Z" fill="#141414"/>
</svg>
