<svg width="89" height="91" viewBox="0 0 89 91" fill="none" xmlns="http://www.w3.org/2000/svg" preserveAspectRatio="none">
<path d="M88.6667 45.607C88.3498 50.495 88.4351 55.8949 87.5638 61.152C85.1204 75.8932 76.1999 85.163 61.4116 88.8186C49.9502 91.6525 38.3609 91.8252 26.9239 88.7471C12.0564 84.7463 3.25166 75.1311 1.06419 60.2173C-0.355537 50.5724 -0.318977 40.7786 0.960603 31.1337C3.05668 15.3447 12.6474 5.26517 28.6422 1.77038C40.719 -0.873039 52.8567 -0.646801 64.7263 3.06232C78.3082 7.30131 85.8028 16.6842 87.7222 30.3002C88.4107 35.1882 88.3498 40.1833 88.6606 45.613L88.6667 45.607Z" fill="#ED550A"/>
</svg>
