<svg fill="none" height="59" viewBox="0 0 1550 59" width="1550" xmlns="http://www.w3.org/2000/svg"><path d="m1405.2 37.7733c4.04-.3608-9.47-.1243-.5-.6631-1.84-.0364-3.82-.0739-5.53-.1103-.45.1995-.91.3986-1.36.5981 2.33.0588 4.87.1175 7.39.1763 0-.0003 0-.0007 0-.001zm3.4 2.4989c-2.27-.5691-9.57-.7209-1.7-1.246.62.1953 1.26.3906 1.88.5859 2.71-.1515 5.4-.303 8.05-.4536.96.0744 1.91.149 2.85.2226 1.21-.3394 2.4-.6797 3.59-1.0199-1.06.0496-2.14.1002-3.21.1499-4.23-.2757-8.03-.351-13.97-.4024.52-.0803 1.04-.1599 1.56-.2402-2.96.1366-6.21.2735-8.96.4101 2.38.1341 5.49.2833 7.87.4082-3.98.5322-10.49.236-13.92.125-4.68-.1515-3.62.1016-7.13-.0044-.56-.0165-.62-.2149-1.73-.2182-5.59-.0158-16.78.0894-10.26.5522 9.43-.0596 17.27.312 26.05.1763-2.35.5351 2.35.7172 9.03.9545zm-169.24-1.704c2.82.2599 8.54.155 12.39-.0254h.02c.84-.0397 2.77-.3852 0-.3711-4.52.0241-6.72.5679-9.1.1987-1.07.0688-2.19.1299-3.31.1978zm-9.76-.0322c-2.75.1332-1.5.5429 1.95.4321v.0009c1.43-.0463-1.39-.3702 3.77-.0415 1.05-.2557 2.08-.4883 3.13-.7358-1.27-.0041-2.42-.0108-3.74-.0141.89.4203-2.35.2261-5.11.3584zm139.24.374c-.4-.3782 1.25-.3758 4.49-.6382-3.09.0124-5.78.0257-8.69.0381 1.41.2003 2.8.3998 4.2.6001zm68.95-.0586h.01c.97.0596 1.94.1194 2.89.1782.58-.135 1.14-.2693 1.71-.4043 3.38.1267 6.72.2533 9.97.3808-.38-.4122-6.27-.3451-9.63-.6332-4.97.1242-7.45.3635-7.78.7128.94-.0778 1.88-.1565 2.83-.2343zm-722.355 7.6736c-.42-1.044-.737-2.0756-.998-3.1513.537 1.3576 1.175 2.659 1.963 3.8571 1.723 3.3495 2.212 3.7353 6.426 6.0639 2.474 1.1225 4.586 1.3352 6.34 1.3954 7.681-.5973 7.751.0179 17.174-6.6156-9.675 5.7488-6.303 3.192-12.554 4.8098-1.283.7019 5.297-.4435.989.951-1.866.4023-3.77.6018-5.609.5236-5.759-.0997-10.806-3.6481-13.147-9.4762.148.195.3.3879.455.58.549 1.1773 1.197 2.2776 1.971 3.2843-.751-1.1552-1.33-2.3727-1.809-3.7075.456 1.7724-1.25-2.4767-1.318-1.8085-.078.3231.481 2.3456.977 3.4912-1.643-2.73-2.662-5.9864-3.191-9.264.102 1.7335.33 3.4453.721 5.1337.42 1.3477.942 2.6545 1.597 3.9108.004.0075.009.0149.013.0223zm-638.6707-7.7688c4.0598.3891 11.7543.4535 15.9554.0205-5.4926-.0067-10.8085-.0139-15.9554-.0205zm1357.8657.6176c.49-.0661.97-.1316 1.47-.1977-2.18-.1225-4.4-.2442-6.64-.3667-.42.1912-.88.3824-1.27.5727 2.1-.0025 4.32-.0058 6.44-.0083zm-137.1-.2129c1.56.0116 1.7.0053 3.63-.0219 0 .0001-.01.0003-.01.0004.78-.0101 7.14-.1218 6.47-.269-3.22-.0025-6.57 0-9.84 0-.1.0968-.12.1929-.25.2905zm37.79-.0859c.01-.0003.01-.0007.01-.001 1.16-.0223 2.25-.0679 3.43-.0762-4.27-.2316-4.95.184-8.86.0665-3.92-.1184-6.36-.3477-9.72.2216 1.25.0853 2.59.2073 3.88.3066 5.59-.2276 7.08-.0134 11.52.211-.09-.2434-.17-.4851-.26-.7285zm-566.682-15.7212c.764-.7681 1.056-1.9398 1.101-2.0377-.001.0017-.003.0034-.004.0052 2.105-4.0377 1.771-3.8743 1.615-3.5485-.259.2921-.262.6869.812-3.3113-.34 1.1719-.802 2.3151-1.317 3.4208-.587 1.846-1.349 3.7094-2.207 5.4715zm233.432 15.9629c.09-.082.19-.1641.28-.2461-5.361.019-6.595-.3036-11.146-.0098 3.74.0861 7.222.1716 10.866.2569 0-.0004 0-.0007 0-.001zm268.28.4404c5.91.1565 10.46.2254 16.19-.023.01-.0003.01-.0006.01-.0009.34-.0153-1.27-.1868-.84-.23 1.19.0256 2.41.0651 3.61.0957.16-.1373.32-.2746.48-.4111-3.37.0389-6.75.0778-10.15.1167.5-.0803 1.02-.1599 1.52-.2402-2.88-.0414-5.78-.0827-8.66-.1241.98.2252 2.01.4503 3 .6763-1.75.0471-3.47.0926-5.16.1406zm-357.942.4565c.939-.0894-.799-.2394.658-.3164 1.457-.076 4.169.0909 3.533-.1616-1.981-.0339-4.046-.0728-6.035-.1084 6.392-.4552 12.987-.0433 13.089-.6054-6.33.1457-11.434.078-17.322-.0777.234.4463 6.163.8321 2.43 1.251 1.198.0057 2.462.0142 3.634.0175.004.0004.009.0007.013.001zm609.572 4.7556c1.9-.0169 4.73.0201 7.66.0289 3.68.0088 6.91-.0107 8.94-.1407.25-.016.64-.0799 1.08-.1684.17-.0443.55-.0947.89-.1484.35-.0536.69-.1106 1.01-.1679 1.29-.2291 2.23-.4639 2.22-.5186-.03-.3685-5.19-.4186.22-.6587-.83-.0013-1.73-.0053-2.72-.0099-.47-.0023-1.08-.0048-1.48-.007-.34-.0023-.7-.0044-1.06-.0061.26-.2475.52-.4944.76-.7411 2.19.0372 4.72.0747 6.3.1128.08-.082.16-.1642.24-.2461-3.05-.0009-4.39-.0804-4.66-.1965-.18-.0581-.24-.1253-.53-.1964-.27-.0712-.97-.1462-1.68-.2199.57-.0372 1.9-.0744 2.85-.1116 1-.0372 1.9-.0744 2.7-.1115.41-.0186.79-.0372 1.14-.0558.18-.0093.35-.0185.51-.0278.08-.0047.16-.0093.24-.014.04-.0023.08-.0046.12-.0069.07-.0024.18-.0047.27-.007 1.45-.0372 2.3-.0744 2.5-.1117-.12.0046-.46.0089-1.04.013-.29.0021-.65.0042-1.06.0062-.2.001-.42.0021-.65.0031-.11.001-.2.0021-.3.0031-.79.0084-1.71.0171-2.6.0279-.12-.2099.91-.2898 1.82-.327.24-.0093.46-.0159.67-.0212.24-.0053.31-.0093.83-.0134.8-.0081 1.23-.0164 1.42-.0359 3.3-.4396-16.12-.2177-18.81-.8285 3.84-.0679 7.32-.1342 10.11-.2012-.8-.0753-1.66-.1507-2.56-.2261-7.98.4213-16.25.5706-25.37.833-.76-.0174-1.54-.0352-2.31-.0518.23-.1895.44-.3783.67-.5678-1.17-.0224-2.39-.0445-3.61-.0669 3.54.6242-1.21.6157-7.69.9965 3.46.2194 7.44.0864 7.16.4951-11.76-.3144-24.03.13-34.66-.2251-2.6-.0877-2.53-.615-8.83-.5663.21.0579.25.1626.39.2387-11.45-.2525-17.03-.4035-28.64-.146.67-.1895 1.32-.3798 1.98-.5693 2.42.0944 4.82.1903 7.17.2847 1.59-.313-.72-.4511 6.21-.4477 5.61.0024 2.27.1406 3.79.2333 2.13.1266 4.18-.1224 6.53.0191 1.82.1084-.12.3666 4.58.3012-1.88-.3345-3.82-.6798-5.77-1.0185-1.17.0754-2.34.1519-3.53.228 1.2.0895 2.38.1777 3.56.2671-4.31-.1606-7.88-.3121-11.98-.4785 1.33.4835-2.89.3023-5.25.2451-3.65-.0893-.51.2435-2.92.188-2.42-.0563-5.04-.4281-9.54-.3486 2.41.2152-.87.4082-.23.6069s5.37.2427.82.4595c-8.36-.1648.64-.9214-4.92-1.0439-6.68-.1474-8.35 1.0859-6.31 1.351 1.6.2086 7.01.1666 8.56.3745-9.61.375-9.81-.3654-11.47-.5103-6.18-.5273-1.99.8802-9.4.3711.14.2632.25.5.39.7524-1.28-.048-2.14-.1118-3.7-.1499 4.6-.5128.84-.4909-1.11-.4917-3.06-.0016 1.67-.2518.86-.3163-2.27-.1729-5.4-.0944-3.43-.3203-.9.1051-1.87.2106-2.8.3149-3.37-.131-11.46-1.2296-3.79-1.0078-.71-.4082-3.19-.212-5.14-.1499s-1.91-.1979-3.64-.1499c-6.89.1921-2.38.6368-1.29.9853-9.11-.2401-.22-.3989-13.36-.5595-1.23-.284 4.64-.587-.25-.751-.91.4934-4.49.8478-11.65 1.0117-.7-.1134-1.39-.2278-2.09-.3413-3.93.4554-1.9.9289-9.24.3643 3.94 1.039 1.25.3743-5.38.7973-1.35.0853 1.76.3008-.12.4101-.89.0493-2.83-.1134-4.85.0122-.98.0621-5.58.4628-8.8.2725 2.36-.5034-3.75-.9316 1.49-1.3481-9.67.1027-16.56-.139-5.62.5473-2.47.1524-4.95.3041-7.44.4556-1.73-.1201-3.48-.2392-5.24-.3584-.23.4137-.12.5298-6.78.457 2.88.0977 5.86.1969 8.85.2954.1.0835.52.1704.42.2515-3.75-.1589-13.76-.2273-16.23-.3374-2.45-.1101 2.28-.1403 1.57-.2471-5.88-.8807-5.41-.2311-9.66-.3823-2.49-.0894 3.46-.1865 2.13-.2246-4.95-.1396-7.25.3285-11.67.3345 1.57-.2657 3.12-.5355 4.65-.8037-4.6.0141-9.88.0164-14.05-.0689-1.67-.0332-.41-.2308-.68-.2441-1.35-.0679-6.85-.1754-7.43-.1762-4.4-.0016-4.52.2721-8.81.2871 1.68.0231 3.27.044 4.91.0664.74.4437 1.51.8874 2.25 1.3319-4.19.0323-8.39.0639-12.62.0962 3.09-.1482 6.19-.2956 9.26-.4438-4.81-.3585-9.63-.7178-14.48-1.0771-2.53.2202-5.02.4404-7.5.6606-6.77-.0581-5.41-.952-8.63-.1689-2-.0662-4-.1324-6-.1978.28.1118.57.2237.85.3355-2.41-.0688-4.83-.137-7.26-.2066 2.55-.3957 5.05-.8121 7.56-1.1962-4.76-.086-4.85.2497-5.56.3335-1.88.2219-5.63-.0774-7.13.1279-.51.0705 4.17.2915 2.56.5464-.31.0494-6.61.9863-10.56.7699.07-.1697.38-.3778.54-.5624-5.34-.1031-8.07.7828-7.36 1.0312-2.84-.1739-7.01-.1884-7.6-.46-1.45-.0066-2.9-.0129-4.36-.0195 1.52.6614-4.56.5404-4.96-.0283 2.51-.0141 5.01-.0289 7.52-.043-1.9-.6971 5.72-1.1179-10.13-.4721-3.03.3626 5.39-.0494 2.92.2221-4.29.1581-8.32.0258-12.39.2783-5.07.3155 1.17.6188-10.64.2173 26.05-1.0059-3.59-.6795-15.8-.9916-3.34.9935-13.73 1.3082-27.95 1.0126 1.48-.2765 5.96-.1341 8.54-.2251 2.58-.0911-.21-.2551 3.01-.3842 3.21-.1292 10.08-.3047 13.31-.5-2.73-.1565-16.39-.5265-7.37-.0821-6.73.274-9.89.5556-18.2.607-2.49-.4314-2.31-.7-10.38-.7124 4.77.5994-4.4 1.0159-2.38 1.6352 5.72-.1443 2.52-.7461 5.83-1.0342.34-.0288 5.68.1221 6.93.1114-5.4.5406-7.26.7418-3.94 1.3851-3.82-.0563-6.18.0245-6.53-.2827-.79.1333-1.59.2667-2.37.3999-1.24-.0033-2.38-.0156-3.71-.0132 1.83-.4633-1.71-.1781-4.23-.3881-2.51-.2103.86-.5761-6.04-.5811 2.3-.1084 4.4-.2015 6.63-.3041-4.46-.1192-8.91-.2392-13.34-.3584 3.11-.2831 9.87-.7037 9.69-1.0761-2.06.1406-9.05-.1066-9.82-.1167-2.96-.0381-1.34.1968-1.57.2026-4.64.1142-8.45.0342-10.21.3901-3.43-.1606-6.16-.069-9.89-.0781-2.05-.005-1.65-.2664-2.86-.2168-7.96.3312-.42.669-15.69.0259 1.84-.1821 3.66-.3685 5.52-.5522-1.73-.0688-3.45-.1378-5.17-.2066-1.15.0332-2.29.0665-3.44.0996.03.3949.06.7906.08 1.1855-1.26.0216-2.52.0425-3.77.064 2.15.0389 4.31.0778 6.48.1167.2.0695.38.139.58.2085-3.22.1076-6.39.2162-9.62.3247-.07-.1374-.13-.2757-.19-.4131-7.4.1912-7.58.3075-14.54-.0708-5.35.0041-9.66-.5702-12.713-.812-1.094.077-2.189.155-3.291.2319-.701-.1142-1.397-.228-2.107-.3422-1.437.1589-2.89.3179-4.319.476-.793-.3608-1.219-.4734 4.38-.6-1.935-.4488-11.734-.2508-15.655-.1001-2.985.1143.327.4886-.046.5341-1.252.1547-6.15.0212-7.17.0469-4.363.1068-7.213.0881-11.287.1709-.788.0166-2.978.2538-3.163.2612-1.448.0406-4.993.1559-5.392.1592-20.528.177 1.271-.8521-17.571-.7436.559-.1358 1.074-.2706 1.622-.4063-1.424-.0082-2.8-.0161-4.269-.0244-1.886.1134.389.3197-3.344.1533.242.1673.486.3346.742.501-1.623-.0903-3.18-.1798-4.824-.27-2.61.5803-11.855.7121-11.183 1.3935.21.2318 6.769.4697 3.302.7172-2.811.0487-.909-.2281-2.053-.2427-8.228-.101-7.674.2871-11.013.1836-.556-.1663-1.14-.3359-1.707-.5039-1.327.0489-2.651.0977-3.975.1465-.306-.1117-.625-.2236-.93-.3354 1.233-.0075 2.629-.015 3.773-.0225-1.674-.4329-15.921-.6273-10.492-.2583 2.198.1499 6.297.0862 3.712.5977-3.845-.0737-8.128-.149-12.016-.2227-.122.1101-.234.2205-.355.3306-5.215-.0713-.477-.5116-.484-.7475-1.196-.0067-2.397-.0125-3.578-.0191-.494.1067-1.052.2184-1.615.3218-.048-.1698-.792-.5645-4.572-.418-2.417.0954 1.376.5238-3.21.4644.348-.2649 1.969-.5876-3.076-.6729-.499.2765-1.186.5298-1.57.8203-6.292-.2656-8.496.1613-16.352-.1474-4.813-.1954-11.04-.8891-13.86.1796-3.155.0282-2.3-.238-3.308-.2978-5.068-.2832-8.55.2236-9.429.2534-5.588.1911-7.649.0156-12.724.2549.26-.1979.402-.3852.612-.5781 4.7.2964 6.315.2825 12.178.2187-1.963-.0397-3.875-.0804-5.734-.1201.304-.1606.606-.3212.901-.4809 18.142.6325 13.628-.3669-1.231-.5854-.618.1485-1.241.2969-1.857.4454-.737.1485-1.468.2971-2.172.4461-9.378-.4504-13.005-.0594-23.132.0342-.274.0027-.725-.006-1.259-.0207-.574-.0147-1.001-.0353-2-.0566-1.748-.0425-3.373-.0874-4.279-.0916.03-.0012.061-.0023.091-.0035-1.128-.2806.395-.4097.599-.6606-1.027-.0314-1.974-.0628-2.838-.0942-.997.0956-1.056.1826-2.068.2401-.78.0575-2.223.0854-3.623.0626.35-.1904.803-.3809 1.367-.5713-.653-.0009-1.132.0025-1.477.0087-3.707-.0061-6.568-.1042-9.949-1.5024.665.3512 1.238.6189 1.956.893-4.508-1.3209-4.768-1.8571-5.135-1.6829-.149.0318-.233.0946-.612-.1788-.35-.2793-1.109-.8658-1.976-2.4804-.326-.3423-.625-.7016-.906-1.1018 1.192 2.8992 3.858 4.9387 6.739 6.0028.008.1504.022.3023.022.4491-3.152-1.1281-6.146-3.4898-7.281-6.7776.773 2.3843 2.549 4.4482 4.699 5.7619-3.601-1.8157-5.967-5.9918-5.94-10.0302.793 4.2014.476-1.2628 1.073-.224-.008-6.5783 1.621-12.6215 9.211-20.01102.825-.70611 1.051-.74445 1.668-1.16963.3-.19801.688-.48512 1.334-.90472.66-.38333 1.526-1.07157 3.179-1.26535-.296.1165-.221.20802.033.29286.599.17841 2.022.4238 2.977 1.02682 1.03.61152 1.363 1.39445 1.008 1.30468-.914-.94376-2.416-1.31042-3.985-1.32633-.277-.00796-.642.04791-.939.12809.369-.14932.725-.24319.939-.30449.692-.13803.814-.33022 0-.49697-.369-.08165-1.043-.07279-1.931.26119-4.278 1.6514-7.75 7.35907-8.031 6.75147-1.026 1.4423-1.887 2.8381-2.682 4.3573.456-.5528.924-1.0804 1.4-1.5878-2.693 4.0091-3.544 7.0666-3.684 9.3672 1.309-5.5255 4.384-10.5864 8.27-14.6457-.543.6042-1.093 1.2726-1.592 1.9281 1.496-1.5276 1.644-1.3453 2.019-1.5554.433-.1464.96-1.02737 4.062-2.96377-.117-.1231-.228-.24918-.35-.37021.685-.26359 1.686-.64533 2.519-.5731 3.488.01843 4.456 2.68544 3.494 1.8381.979 1.10058 1.01 1.78458.785 2.87218-.031 5.6137-2.245 9.6859-.59 7.8424-1.043 2.1419-2.25 4.1509-3.584 6.1301.602-1.2756 1.127-2.5064 1.621-3.7939-1.879 3.61-4.21 7.0592-6.736 10.2776.214.6444 4.76-6.311 3.719-4.1191-.183.4361-1.631 2.1648-1.942 2.6469-3.334 5.2237 2.23-2.7321 1.436-1.0629-5.565 7.3752-.148 2.2989-9.307 11.2237-.146.3328-.311.6848-.445.999-3.261 3.0372-3.204 2.5589-6.225 4.8836-1.887 1.4135-4.113 3.5914-6.604 4.5657-.465.0627 3.194-2.2348-5.101 1.7054-6.753 2.3463-3.832 1.826-7.68 2.6353-.561.0759-1.227.1231-1.956.12-4.735.4112-10.693-3.7234-12.375-5.3475 1.413 1.5675 3.596 3.2406 5.788 4.0597.79.4958 1.679.9293 2.552 1.2715-5.413-1.2323-9.533-5.8105-10.721-9.1547-3.82-6.2365-3.024-14.5232-2.443-12.3336.07 2.2652-.412-.1685.081 2.9647.176.3009.36.6244.545.9207-.808-5.2869-.288-9.0467-.86-6.6001.007-.8385.039-1.6676.096-2.5035.313-.1254.625-.2307.939-.3496.122-.9732.279-1.9418.47-2.901.111-1.0846.263-2.1642.465-3.2516-.695 1.3551-1.764 3.7726.589-4.415.163.0356.329.0607.491.0971 1.199-3.3026 2.069-4.9311 3.177-6.6519 1.178-1.5886 2.515-3.87555 6.843-5.4151-3.478.81881-5.412 3.08859-6.533 4.4617-1.132 1.4418-1.605 2.2365-2.097 1.9189-.899 1.5505-1.619 3.1775-2.21 4.8431-.253.1833-.504.3704-.751.5531 1.823-5.0884 7.272-12.96598 14.801-12.60851 2.424-.11121 4.914 1.59064 5.162 3.75635.377 2.01626-.054 3.72446-.292 5.01556-.314.691-.69 1.4324-1.08 2.0658-2.391 5.7574-4.96 7.2392-8.872 11.9871-.495.4095 1.44.4994-5.119 5.4755.098-.2174.066-.4436.11-.6633-1.387 1.1023-2.816 2.1286-4.299 3.0771-.332.0645-.679.1342-1.01.19 2.608-1.4968 5.065-3.2244 7.361-5.1484-1.957 1.5442-4.029 2.9516-6.183 4.1896 2.681-1.8367 3.798-2.7309 2.058-1.8635-2.324 1.5408-4.777 2.8889-7.327 4.0006-.292.0483-.584.0922-.877.1348 1.157-.7273 2.272-1.4985 3.339-2.3176-6.225 3.4969-12.397 4.9267-17.882 5.4934-.723.0696 1.074.2249-.936.2166-.074-.0052-.241-.0155-.731-.0322-.246-.0084-.577-.0183-1.037-.03-.231-.0059-.494-.0122-.797-.0189-.129-.0068-.258-.014-.403-.0217-.076.1531-.21.2774-.3.419-1.578-.1072-3.386-.1797-5.242-.2231-1.508-.0435-2.489-.058-3.817-.0495-2.386.0171-6.157.1265-9.583.2814 4.896-.289.582-.1011-.744-.2559-.875-.1067 2.544-.0909 2.144-.2026-.341-.1109-4.852-.5589-1.013-.6128 8.834.8278 12.666.017 21.523.1728 1.07.0165 2.192.0006 3.435-.0707-1.153.0365-2.282.0192-3.435-.0505-.187-.0485-.963-.0969-2.285-.1453 1.331-.071 2.07-.1362 2.285-.2093.109-.0095.219-.0196.331-.0305-.113.004-.223.0073-.331.0101-6.33.1672-2.876.052-5.766-.0872-.76-.0354-1.751-.0695-2.976-.1013-.916-.0317-1.74-.0613-2.753-.0876-1.978-.0526-4.314-.0924-6.348-.1119-1.231-.0122-.146.1937-2.412.2129-1.505.0133-6.158-.292-7.344.0679-.778.2343 7.252.8794-3.883.8779-2.171.2297 3.346.1583 3.409.186.474.1366-.95.2563-3.006.3157-1.991.0594-3.972.0586-5.459-.0457-.23-.018 2.023-.2309-.43-.3144-5.752-.1996-10.183.0446-13.597.3749-.408-.3874-5.189-.8502-11.76-.707-.336-.1108-.657-.2227-.995-.3344 1.026.0587 2.041.1166 3.046.1753 1.095-.0696 2.242-.1202 3.287-.2022-6.379-.0952-7.543-.6293-10.603-.8246-10.031-.6675-3.943.7444-2.125.9877 1.336-.0985 2.427-.2085 3.944-.312-.159.135-.32.271-.465.4067-15.182-.0041-2.264.8761-10.06 1.1269-1.913-.6639-8.247-.7279-15.447-.3066-.796-.0033-1.598-.0042-2.402-.0083-.133-.0968-.131-.2448-.35-.3086-8.802-.1126-10.553.9099-11.392 1.0068-3.844.4296-6.937-.1648-7.932-.1699-4.533-.0207-5.872.2433-10.299.1299-4.791-.1225-1.515-.3251-2.975-.5063-1.17-.144-5-.1697-6.603-.3189.635.1221 1.339.2418 1.968.3643-5.149.1663-9.056.3285-14.615.3691-6.281-.893-11.784.6134-9.562-.6084 5.38-.0836 8.327-.2228 11.142-.5341-3.449-.0398-6.942-.0785-10.472-.1182-1.03.1341-1.762.2648-2.988.4014-2.658-.2848-8.851-.1626-11.115-.2461-11.014-.3916-7.586-.8773-17.836-.0611 7.402.0796 7.392.476 14.604.4214-1.548.2832-5.225.2245-2.848.5639-7.008-.0836-4.752-.3866-7.497-.6557-2.37-.2319-7.196-.2449-6.925-.5463-.495.1657-.877.3261-1.371.4916-4.702-.0016-9.024-.0017-13.597-.0034 1.932.173 3.857.3464 5.775.5185-1.45.0654-2.906.1305-4.364.1958-11.147-.5381-30.643.4482-27.49-.9037-5.366-.0431-6.048.1265-8.984.3823-.324-.1027-.639-.188-.963-.3023-3.491.1075-6.183-.2778-9.285-.1777-3.104.0994-3.88.4634-4.333-.1484-2.02.1755-3.948.3213-5.922.4843-1.187-.139-2.373-.2763-3.55-.4145-1.86.0729-3.726.1454-5.592.2183-.994-.2921-8.349-.1662-11.61-.3623-3.073.3148-3.069 1.3059-10.243 1.1283.186-.2458.369-.4909.555-.7367-1.648.0513-3.301.1024-4.965.1538-.099.0802-.185.1604-.285.2407.845-.0249 1.677-.0496 2.521-.0752-.732.1358-1.45.2709-2.17.4067-2.52-.2012-5.048-.4023-7.588-.6035 3.424-.1523 6.843-.3047 10.254-.457-4.281-.1805-7.268-.0005-11.004-.2017-3.252.3394-2.052.535-.731.9033-1.208-.0314-2.431-.0618-3.641-.0932.797.3683-1.244.5878 5.818.558-.485.1051-.98.2053-1.453.3145-1.159-.0166-1.91.0722-3.182.0317-3.467-.1109-6.131-.7579-5.893-.9848.128-.1188 3.551.1084 3.414-.0596-.34-.4096-8.187-.2257 3.131-.6371-3.755-.2608-4.594-.0642-8.743.0112.325-.1365.641-.2722.953-.4087-1.923.0629-3.855.1256-5.776.1885 2.662.7012-11.453.9646 1.258 1.578-3.764.0315-7.496.0631-11.244.0962.771.072 1.543.1433 2.314.2153 1.692-.038 3.373-.0755 5.063-.1127-1.988.1316-3.981.2624-5.971.394-4.704-.1631-6.55-.414-8.705-.7236 5.479-.226 3.689.0827 7.956.144-.149-.1961.048-.3765-.325-.5825-2.204.4062-9.4.1107-11.07.0908-5.082-.0603-1.097.3388-4.496.3472-3.403.0083-7.417-.2293-10.198.1665.05-.2218.273-.4513.472-.6533-5.299-.0729-4.242.1892-4.79.2231-8.75.558-13.499.0869-23.477.0298 1.267-.0687 2.547-.1307 3.828-.1953-7.528-.471-2.461-.3267 4.083-.4824-6.137.0472-9.626-.3539-13.992-.4731-4.353-.119-11.795.087-14.506.2475 6.206.2584 12.939.088 19.859.1592-.781.226-1.546.4172-2.36.6655-4.216-.4743-6.654-.1571-8.04-.0942-4.068.1845-3.939-.2225-6.394.2153.1-.1506.173-.2773.273-.418-8.402.063-17.324.3293-22.87-.227-.502.3618-.88.7103-1.455 1.0795-3.568-.2723-6.613.0066-9.6-.0571-2.974-.0637-1.844-.3561-5.331-.4687-.645-.0207-1.988.1623-3.571.0273-1.602-.1356-7.477-1.1444-8.232-.2631-3.037.0041-5.9.0363-8.851.0512 2.876.0497 5.765.0978 8.649.1475-2.469.2136-4.915.4265-7.369.6401-.313-.1904-.626-.3843-.927-.5722-6.601-.2319-11.358.0795-17.916.0058-1.103-.0124 1.517-.3889-3.394-.2929-4.995.096-8.707.7987-17.068.5273-.422-.0141-2.896-.5523-5.864-.1797-.675.0844 2.169.2094.618.3203-1.565.1109-8.423.2022-9.062.4663.076-.0936.522-.1905.738-.2857-1.221-.0446-2.45-.0894-3.676-.1332-.114.1647-.237.3297-.351.4936-6.955-.3833-10.557-1.0086-20.566-.8017 2.807-.2393 5.636-.4795 8.474-.7188.78.1681 1.564.3373 2.335.5054 4.69-.0671 9.448-.1336 14.245-.2007.797.1913 1.547.382 2.302.5732 1.222-.0248 2.436-.0489 3.665-.0737-.307-.1383-.617-.2758-.936-.414 2.43.0339 4.876.0686 7.317.1025-4.985-.8161-13.759.0694-13.202-.6133-1.13.106-2.26.2126-3.384.3194-.492-.331-2.786-.2358-6.776-.1836.913-.1631 1.924-.324 2.766-.4888-3.904.2302-10.732.2078-14.656.2964-1.726.0389-.002.2789-.515.3071-2.576.1474-7.776-.2714-8.882-.2382-6.518.197-10.696.9909-17.565.4677 7.104-.1292 3.242-.0746 5.783-.3652.795-.0911 10.1-.2812-1.535-.1968-1.228.0106-22.578.5591-15.552.9795-3.49-.1342-6.186-.2892-9.305-.4317-7.577 1.1078-4.939.0671-2.756-.5058-1.239-.0025-2.411-.0083-3.672-.0083 2.848.6019-11.4075.6393-16.1708.3354-1.5911-.101 2.8589-.2936-.8202-.3847-1.7472.0422-3.7079.0969-5.5117.144 2.6182-.3808-2.5169-.5275-2.434-.915-3.0951.3453-6.1059 1.077-4.0949 1.4736-2.9188-.1606-5.7926-.321-8.589-.4824 1.2985-.0919 2.6276-.183 3.953-.2749-9.2257.2434-20.7245-.3105-22.813.5034-1.2227-.0058-2.4414-.0108-3.6305-.0166-.3677-.1374-.7216-.2751-1.0862-.4126-4.9971.1192-11.1506.2392-16.4225.3584 4.7528.0853 6.1546.2809 11.4016.1221-1.859.158-4.2045.317-6.151.475-7.8308-.4255-8.5156-.7052-20.2959-.5785-.121.0058-9.58553.3626-9.6445.3974-1.29016132.159.67112.3899.09478.4702-.403705.0563-1.312526.1339-2.338791.2199-.256709.0215-.520979.0435-.787469.0659-.41445.0223-.84155.045-1.25057.0678-.82136.0457-1.59788.0918-2.28442.1368-.68748.0451-1.2851.089-1.77845.1303-.24692.0206-.46833.0406-.66489.0596-.01682.0048-.17717.0095-.29163.0142-.12014.0046-.23289.0092-.33867.0138-.21156.0091-.39519.0179-.55448.0265-1.25391.0685-1.05913.1198-1.09849.1411 2.00337 1.0465 36.57118 1.0604 46.49728 1.1142 96.6074.558 192.1314-.1885 288.6054-.061.993.002.56.1565.983.1631 2.628.0388 5.211-.202 6.183-.2119 2.078-.0205.934.202 2.452.2021 15.703-.0025 30.423-.1333 46.162-.0952 1.024.0025-.021-.1755 1.776-.144.928.0172 3.831.2902 5.92.2944 7.322.0141 13.325-.0735 21.113-.0693 4.238.0024 10.57-.0208 15.263-.0167 2.074.0018 4.23.1267 6.27.1309 2.893.0058 2.301-.2474 2.746-.2632 1.957-.0687 2.197.2093 4.099.2027 3.514-.0133 3.705-.1989 8.141-.1831 3.174.0116 10.387.1581 14.324.2011 9.033-.2152 21.189-.1298 29.689-.0586 5.08.0422 5.535-.2176 7.591-.2168 7.514.0051 13.166.3369 20.033.3477 8.916.014 17.468-.2054 26.271-.2212 1.433-.0025 1.105.2356 2.505.2417 5.094.0223 11.887.0657 16.653.0317 5.253-.0373 7.163-.3828 12.153-.3125 1.457.0209 1.887.3239 4.302.3628 4.113.0612 8.63-.206 11.416-.2358 3.82-.0397.524.2689 5.618.2275.208-.0018.966-.2224 2.046-.2119 3.209.0298 2.568.2036 7.559.187.496-.0023 6.908-.2125 7.508-.2133 3.785-.0034 10.601-.077 13.001-.0323 8.072.159 1.791.4909 8.465-.2295 2.894.1763 5.676.355 8.54.5264-2.222-.1598 6.687-.3904 7.191-.3755 4.832.1201 2.068.4004 7.866.354-3.812-.3237-1.899-.3446 1.254-.2824 3.871.0621 8.778.2072 10.403.2155 7.341.035 15.416.0241 21.567.001 10.097-.0318 19.742-3.8742 27.916-10.1187 4.881-3.6801 10.721-9.6044 13.7-15.7737.685-1.4657.039-.4014.595-1.7149.517-1.351.128.2092.664-1.3391.668-2.2336 1.294-4.7407.157-7.72555-1.228-3.27786-5.087-4.36251-7.185-4.21794-5.617.02098-10.116 3.57167-13.108 7.57089-.203.4032-.161.4138-.505 1.0752-4.843 6.1333-6.081 20.2274-4.997 25.3251 1.343 7.987 2.092 10.2906 6.045 15.2711 3.415 4.3055 10.775 6.0047 13.718 5.7616 1.839-.0114 2.363.0608.258.4432 5.759-.0831 10.805-2.0509 15.447-4.6783.52-.3002.06-.2737.267-.395 1.283-.7667 1.783-.8732 2.65-1.4134 2.291-1.48-1.526.8003 1.726-1.3126 1.682-1.1778 2.803-1.63 7.054-5.3606 5.927-5.3541 11.226-11.5358 15.517-18.6707 2.102-3.6045 4.044-7.3519 4.98-11.9482.381-2.2821.73-5.02705-.962-7.97339-1.851-3.08433-5.418-3.83256-7.822-3.79325-7.428 1.30959-9.526 5.70469-12.6 9.47984-2.728 3.9844-4.91 8.3984-5.713 13.4909-.977 4.9035.915 11.7005 5.864 14.5962 4.728 2.9621 9.683 3.3219 14.334 3.3787.19-.0003.417-.0006.681-.0009.913-.0008 1.22.0475 1.488.0944.284.0469.691.0925 2.511.0863 10.303-.0431 27.043-.3708 36.647-.3262 8.15.0447 6.369.3295 11.836.4487 1.078.0232.192-.1391 1.173-.1416 7.165-.0149 13.574-.268 19.084-.3061 3.493-.0255 3.223.2298 5.699.248 3.764.0265 6.965-.2314 8.881-.2397 8.511-.0364 15.557.1714 23.233.0654-.316.0562-.524.1082-.791.1636 9.366-.0091 20.059-.0182 29.289-.0273-.454.0513-.892.1031-1.345.1552 11.323-.0281 10.124-.5845 9.085.5903.837.0414 1.727.0894 2.532.1275-.426-.6052 6.986-1.0481 15.545-1.2021.631-.0116 4.92.5785 4.455-.1187 1.121.1706 1.792.2881 2.746.438 1.858-.2111 3.751-.4196 5.628-.6299 1.013.0315 2.044.0618 3.063.0933.151.1366.035.2785.362.4126 4.794.0207 14.396-.1482 18.012-.1309 9.063.0439 18.68.4133 25.794.0142 3.434.0407.017.3088 5.136.2749.58-.1358 1.13-.2659 1.73-.4058 4.21.6066 5.09.2376 10.9.1109 3.94-.0861 6.54.0621 10.32.0332.96-.0075.83-.1855 1.48-.1797 2.21.0183 8.29.2634 9.82.27 13.77.0646 25.94.0371 39.01-.0283 1.42-.0066-.42.169 1.05.1616 2.36-.0117.97-.2817 2.34-.2949 3.82-.0354 3.85.2492 9.2.2641 17.61.0488 37.75-.165 56.08-.184.58 0 .54.1667 1.17.1684 4.05.0082 8.16-.2173 11.85-.2148 6.12.0033 10.71.2376 16.76.2368 11.84-.0009 22.34-.1208 34.51-.1275 9.98-.0058 18.62.0165 29.45.0157 47.56-.0033 96.18.5261 144.25.2446 1.23-.0075.73-.1548 1.1-.1484 3.56.0637 3.87.2625 5.13-.1538 4.49.082 5.9.3948 11.21.3725 2.86-.0117.6-.4966 5.67-.2466 4.51.226-.35.4917 12.87.2202.34-.0074 2.06-.303 4.75-.226 2.69.0761-.4.2878 6.03.3515 16.02.149 35.58-.1064 53.48-.0278 1.28.0049 12.23.1629 14.16.2358 3.8.1416 3.36.3612 8.9.415 4.36.0414 7.38-.2074 12.33-.1577.61.0061 1.75.262 5.52.228zm-808.989-15.7111c.403-.9712 1.15-2.6874 2.511-8.3755.144-.5509-1.372 2.1732-.478-.9937-1.098 3.0383-1.731 6.175-2.034 9.3691.001 0 .001.0001.001.0001zm835.839 9.8184c-4.75.0463-9.7.0923-13.93.1386 1.61.0559 3.09.1117 4.44.1677.17.007.33.014.5.021.17.0069.48.0139.72.0209.49.014.97.0281 1.42.0421.91.028 1.74.0561 2.49.0842.68-.079 1.3-.1581 1.84-.2372.14-.0198.27-.0396.4-.0594.23-.0198.58-.0395.84-.0593.53-.0396.96-.0791 1.28-.1186zm-575.734.4389h.013c-4.873-.1192-9.476-.2387-14.467-.3579.522.0878 1.046.1759 1.569.2637 3.846.1382 7.551.2763 11.362.4145.506-.1068 1.015-.2135 1.523-.3203zm38.394.9292c3.11-.1044 2.35-.2803 4.06-.4517v.001c.45-.0446 2.57-.0837 3.38-.0903-.3.1101-.69.2188-1.01.3281 7.36.2666 21.48-.6808 3.09-1.0625.28.1391.55.2774.82.4165-9.22-.0389-19.31.2627-10.34.8589zm-301.22-5.4295c-6.953 2.7223-9.262 3.6369-18.104 4.3384-.013.0018-.03.0037-.049.0057.019.0055.036.0111.049.0167 1.232.1231 2.443.1848 3.693.1819 1.48-.2833 2.935-.6554 4.359-1.1102.004-.0009.008-.0019.012-.0028.323.0691.648.1341.963.1982 3.15-.8425 6.204-2.0831 9.077-3.6279zm598.82 5.1004c2.22-.9095 1.48-.3809-4.65-.5859-2.12-.0712-.05-.2304-1.37-.2569-7.12-.1447-7.71.4647-6.11.7817 4.07.0216 8.03.0412 12.11.0611zm186.76.1889h.01c.18-.2218-2.56-.2815.53-.4917-2.34.0009-4.74.0026-7.22.0035.72.0206 1.46.0403 2.18.061-.64.0762-1.27.1533-1.91.2295-.88-.255-1.68-.1068-4.34-.0215.73-.2724 1.46-.545 2.19-.8173-3.06.0811-6.21.1625-9.45.2436-.04.0686-.08.1374-.12.206-1.18-.0877-2.19-.1764-3.3-.2641-.3.0819-.59.1631-.89.2451-1.33-.0621-2.67-.1241-4.03-.187-.42.1985 2.6.2843-2.75.2339 1.65.2036 3.28.4066 4.9.6103 7.35-.0166 16.81-.0339 24.2-.0513zm-242.99-.4687c8.94.0381 6.41-.1058 4.35-.5561-1.44.1854-2.9.3707-4.35.5561zm-460.322.4009c-2.81-.3072-5.399-.6113-7.777-.9077-.613-.0214-1.098-.0314-1.775-.0321-.779-.0007-1.504.008-2.16.0239-1.315.0318-2.355.0926-3.068.1656-1.393.1459-1.706.3408.169.4505 5.466.2632 9.429-.0314 14.611.2998zm-36.297.1011c4.391-4.6451-.067-.5833-1.262.2137-1.045 1.446-2.857 3.1153-5.965 5.5166 2.976-2.1677 6.496-4.9637 7.228-5.7296-.001-.0002-.001-.0004-.001-.0007zm140.361-.4463c2.622.0091 5.431.0949 7.585-.0093-.613-.2937-5.357-.0265-1.953-.4619-1.704-.0075-3.432-.0147-5.115-.023 1.072.1804-.37.3153-.511.4932-.002.0003-.004.0006-.006.001zm269.678-.4019c-5.09.3478-6.05.199-11.17-.042-.72.2832 5.38.7574 9.21.8618.65-.2732 1.3-.5466 1.96-.8198zm-1021.899.145c1.218.3609 10.445.408 14.738.3013-.525-.0535-1.052-.1078-1.575-.1621-4.199-.0464-8.762-.0928-13.163-.1392zm603.138 7.5506c.536-.3903 1.029-.76 1.495-1.1171-.524.3883-1.027.7603-1.495 1.1171zm-176.547-5.8631c2.101.3402-4.139.4545 3.432.3212v.001c4.951-.0878 6.034-.1112 10.917-.1377-1.738-.4371-11.604-.5933 1.96-.6835.175-.0004-.17.2596 1.96.2241.656-.0111 2.763-.2245 5.889-.2866 1.011-.0199 8.563-.0857-1.752-.0899.31-.3047-.25-.6131-.225-.9086-4.075-.0859-7.268.5107-11.753.496-6.367-.0231-9.49-.6264-10.737.1651 5.266.1944 14.531.1991 15.84-.2769 5.31-.0058 6.783.3842 2.55.5771-18.578-.245-4.994.5789-20.734.2676-.186-.1101-.834-.2285-.735-.332-4.828.3874 2.653.5414 3.388.6631zm37.656-.8418c-3.265-.2327-6.38-.4672-9.345-.7007.056.3792 1.482.7195 6.54.9331.937-.0778 1.88-.1555 2.805-.2324zm-262.049-.0996c-.449-.2062-1.645-.3951-2.517-.5913-.947.1739-23.388.3407-11.972.5112 1.657.0249 11.773-.3397 14.489.0801zm854.971-.5805c-2.63.1382-5.25.2767-7.88.415 4.05.0877 8.05.1777 12.14.2671-1.43-.2274-2.85-.4548-4.26-.6821zm-447.932-7.3533c.167.5076.042-.1046.05-.3396.043-.2486-.029-.0395.82 1.8309-1.23-2.828-.991-5.864-.173-8.7726.068-.9117.204-1.8492.388-2.7754.323-.6586.676-1.3115 1.047-1.9407-.353.3177-.681.6072-1.035.9682-1.266 5.0915-2.126 6.3589-1.097 11.0292zm156.357 8.9157c.951-.4247-6.72-.6772.831-.7451-1.435-.279-3.755-.4253-8.104-.4502-.669.1067-1.466.2126-2.203.3193-.101-.2855-1.307-.3916-3.897-.5951-.003.0003-.005.0006-.007.0009-6.976-.0206-6.512.0746-8.17.544 7.269-.265 7.526.1639 12.618.4189 3.418.1753 7.639.0959 8.932.5073zm-539.519-.977c-5.107-.3585-.52-.6928-9.591-.312.585.0911 1.173.1814 1.758.2724 2.613.0141 5.224.0272 7.833.0396zm564.855-.4785c-.594.6573-5.224 1.169-6.163.0996 4.762-.2178 2.391.388 6.163-.0996zm-176.791-.3928c6.131-6.6668 4.251-5.9542 1.613-3.408-.276.5123-.561 1.0263-.84 1.5226-1.112 1.1062-2.259 2.1848-3.431 3.2238.889-.427 1.775-.8715 2.658-1.3384zm336.03 1.1149c-6.94-.4694 7.45-.2611 2.63-.5542-3.85-.2342-8.97.2388-7.04.5352 1.34.0083 2.84.014 4.39.019zm-39.98-.1343c1.15-.5015-.5-.3553 5-.2651 1.59.0257 13.85-.1627 8.7.2529-4.39 0-9.04.0073-13.7.0122zm-323.417-32.89877c.131-.03427-.973-1.29482-3.14-1.35092-2.78-.29086-5.912 1.37054-6.393 1.87008 0-.00026 0-.00053 0-.0008-1.202 1.12335.143.09115 1.525-.5046 1.406-.59374 2.688-.82748.88.08243 1.403-.69367 2.771-.94176 3.988-.94685 2.993-.04001 3.675 1.7451 3.85 2.64878.187.93885.25 1.30155.785 1.02915-.002-1.41059-.432-2.21768-.749-2.63705-.326-.41591-.524-.50493-.588-.50988-.128.00097.113.40576-.158.31966zm-705.0986 33.06677c-.0043 0-.0087 0-.013 0 .5799-.0103 5.9302-.3308 5.2954-.4419-6.4463.0952-5.2905.3062-10.8145-.0405-.3618.1117-.6697.22-1.0534.3325 2.5897.0662 3.4427.2004 6.5855.1499zm296.2676.1582c2.329.0571 6.581-.1796 9.236-.1655-8.453-.9091-18.535-.0614-9.236.1655zm1086.298-.5478c-.01-.0003-.02-.0007-.02-.001v.0015c.01-.0002.01-.0004.02-.0005zm-905.755.0024c-.305.059-.477.1103-.539.1553v.0127c.165-.0553.341-.1112.539-.168zm222.305-16.0606c-2.358 3.2589 6.855-6.5075 7.275-11.147-.211.2492-.333.2564-.699.8768-.481 3.5297-6.12 9.8808-6.576 10.2702zm126.759 16.2261c-10.813.0083 3.267 1.2111 3.557.2515-.026-.0186-3.307-.2498-3.557-.2515zm-129.827 12.9125c1.08.7251.458.5442.484.63.054-.0139.68.7916 4.887 1.2934.493-.0494.989-.1189 1.492-.2079-2.398-.0579-4.786-.6034-6.863-1.7155zm61.376-11.3334c-2.767-.0377-5.474-.0807-7.393-.1322-.49-.0129-.947-.0263-1.369-.0403-.772-.014-1.474-.0286-2.063-.0438-1.187-.0303-1.987-.0633-2.487-.0991-6.436-.3541-9.081-1.6563-3.773-1.4226 1.044.1325 1.923.2086 2.95.2613.037.1279.316.2109.823.2539.27.1214 4.763-.0281 7.923-.0399.686.1945 3.976.2395 4.71.4048 1.261.3195-2.678.5441.679.8579zm555.172-.7974c-.21-.0836-.41-.1676-.62-.2504-2.04-.0944-4.1-.1884-6.16-.2827.34.1604.67.3209 1 .4814 1.93.0174 3.85.0348 5.77.0522 0-.0001 0-.0003.01-.0005zm-717.227.291c-1.104-.9204 2.67-.7509 11.577-.2856-3.822.0952-8.102.1904-11.577.2856zm373.358.1333c.269-.2615.535-.5221.816-.7836 4.433.2724 3.613.5718 1.485.9179-.773-.0447-1.53-.0896-2.301-.1343zm64.759.1114c-1.89.0545-.92-.1566-1.12-.1524-4.77.111-5.44.2078-11.25.0488-.71-.0554-1.41-.1137-2.12-.1708 2.68-.548 4.62-.2493 10.33-.5713-1.03.1879-2.05.3761-3.08.5649 3.17-.0397 6.36-.0789 9.51-.1186.37.0579.74.1153 1.11.1733-1.11.0745-2.25.1582-3.38.2261zm303.29-.7734c3.04-.0216 5.99-.0439 9.07-.0655.12.135.23.2708.34.4058-3.22-.1134-6.25-.2269-9.41-.3403zm-804.36.1093c-.249-.0478-.492-.096-.708-.145.021.0597.294.1063.708.145zm-540.3963.3086c-3.9531.0944-8.0674.0324-12.312.0522.08481-.0846.81063-.1422 1.98761-.1843.9142-.042 2.09775-.0684 3.47259-.0907 2.7175-.0446 6.1624-.0725 8.0427-.1751.605.0607.3983.3582-1.1909.3979zm748.4463-11.4975c.647-.6181 1.267-1.2235 1.896-1.8703 1.146-1.7736 2.224-3.6125 3.194-5.5367.152.0079.304.017.455.0241-4.797 8.1859-3.557 6.3593-5.964 10.4364.165-1.0257.293-2.0272.419-3.0535zm693.86 11.9565c-7.05-.0936-9.28-.2683-5.54-.6831 2.5.0952 4.98.1904 7.4.2856-.62.1325-1.24.265-1.86.3975zm-1024.699-.4551c-5.588-.155-5.683.4017-11.176.0908 2.944-.1026 5.88-.2064 8.795-.309.788.0725 1.595.1456 2.381.2182zm276.541-3.6458c-2.143 1.2971-6.576 2.6518-13.3 4.5469-1.691.0773-2.734-.0049-4.168-.1015-.802.2713-1.74.5217-2.546.736-.005 0-.01 0-.014 0-.01-.0001-.019-.0002-.028-.0003-.182-.0092-.807-.0215-1.421-.0363-.309-.0074-.624-.0155-.915-.0242-.073-.0022-.144-.0044-.214-.0066-.053-.0023-.064-.0046-.094-.0069-.053-.0046-.101-.0094-.146-.0143-.359-.0392-.43-.0871-.346-.1398.082-.0527.303-.1103.486-.169.031-.0294.332-.059.443-.0885.134-.0294.205-.0587.178-.0873.016-.0238-.646-.0317-.826-.0334-.304-.0017-.725.0028-1.146.0038-.841.002-1.652-.01-.95-.1135.495-.0745 1.236-.1243 1.959-.1606.091-.0046.181-.0089.27-.013.045-.0021.09-.0041.134-.0061.055-.002.2-.0039.297-.0058.419-.0076.795-.0144 1.114-.0208.64-.0128 1.05-.0235 1.177-.0336 3.14-.0322 6.23-.5979 6.205-.8495-1.731.3783-4.416.6011-6.205.5197-.169-.0263-.79-.0634-1.123-.1104-.354-.0469-.329-.1038.155-.1695.403-.0576.831-.0872.968-.0987 2.649.0043 7.217-.2458 10.141-1.3118-5.098 2.062 5.778-1.0812 6.573-2.4181 6.007-2.6383.925.7509-5.622 2.6736 4.087-.8435-1.799.7898-2.759 1.2395 4.555-.0975 17.564-7.4837 11.723-3.7zm125.735 4.4241c-4.361-.0263-11.23.2065-14.553-.1372-1.858-.2003 5.438-.3554.403-.6699 4.536.0307 5.676.1535 4.86.4292 1.135.0331 1.988.0654 2.951.0976.437-.0538.887-.1068 1.327-.1606.5.1134 1.006.2259 1.499.3393 1.021-.0223 2.065-.0447 3.107-.0678.122.057.331.1066.406.1694zm-564.149-.7954c1.264.0033 2.47.0066 3.712.0108-.136.0671-.299.137-.455.206-.112.0545-.224.109-.336.1636.715-.1948 6.62-.5186 9.117-.3106 1.255.1044-1.602.4749 3.719.5396-3.858-.0191-7.424-.0697-11.153-.1011.334.1101.656.2214.99.3315-.002.0002-.004.0003-.006.0005-1.24.0248-2.492.0509-3.729.0757-.619-.3055-1.229-.6105-1.859-.916zm717.308.7744c-4.323-.2161-5.752-.3283-3.723-.6777.005-.0002.009-.0003.014-.0005 1.603.1548 3.212.3095 4.825.4643-.369.0712-.736.1427-1.116.2139zm-469.235.0835c-8.909-1.3272 11.153-.5136 7.386-.0615-.253.0207-6.555-.0851-7.386.0615zm235.754-1.2634c1.783-1.7446 3.495-3.5793 5.12-5.4813-.251.5492-.51 1.0969-.772 1.6407-1.412 1.3375-2.86 2.6152-4.348 3.8406zm673.265 1.4802c-2.87.3643-9.11.4963-12.42.1001 1.7-.0464 3.39-.0928 5.07-.1392-3.18-.0455-6.36-.0956-9.64-.1387-.18-.5075 3.64-.213 9.19-.353.89-.0225 6.23-.6525 8.38-.1777.41.0976-5.79.164-1.48.4477-1.97.0224-3.34.0174-5.04.0298-.12.1209-.24.2419-.38.3628 2.08-.0438 4.05-.0881 6.32-.1318zm-618.81-.3189c-6.329.028-7.248-.1747-8.513-.5331 2.796.0405 6.302.0805 8.877.1211-.127.137-.237.2741-.364.412zm563.79.4351c-3.45.0586-1.97-.2331-3.36-.2886-5.16-.2086-8.49-.0001-13.56-.1308.34.0563.65.1089.97.1635-.01 0-.01 0-.02 0-24.08.2459-11.31-.4157 2.94-.3081.34-.1084.65-.217.99-.3246 6.24.1895 12.33.372 12.04.8886zm-773.825-.2876c-.267.0679 1.987.4993-2.237.2973-3.367-.6299 2.161-.3172 3.503-.5595-1.131-.0604-2.296-.1192-3.432-.1797 6.679-.178 8.256-.0282 5.448.4321-.091.0155-.901.001-1.676-.0089-.729-.0099-1.474-.0151-1.606.0187zm-46.521.3105c-.982-.9281 8.156-.5107 7.803-.2226-1.247.0115-2.221-.1457-3.556-.0762-1.35.0695-1.692.2863-4.247.2988zm164.062 11.4971c-.27-.0936-2.732-1.6875-2.285-1.745 1.505 1.0068 3.718 2.4207 5.632 3.162 1.911.7743 3.323 1.0876 2.69 1.1239-2.29-.4823-3.813-1.1381-6.038-2.5401.001-.0002.001-.0005.001-.0008zm752.084-11.4175c-.1.0259-6.58.1827-7.46.0371-.7-.1639-1.06-.3395-1.59-.5092 3.72.1573 10.83.0374 9.03.4721z" fill="#141414"/></svg>