<svg width="1384" height="4" viewBox="0 0 1384 4" fill="none" xmlns="http://www.w3.org/2000/svg">
<path d="M114.925 0.387177C111.798 0.206794 122.237 0.325038 115.305 0.0556502C116.75 0.0374492 118.205 0.0186775 119.65 0.000476744C120.017 0.100243 120.392 0.199767 120.759 0.299534C118.818 0.328913 116.876 0.358286 114.925 0.387665C114.925 0.387502 114.925 0.387339 114.925 0.387177ZM112.275 1.63663C114.054 1.35207 119.705 1.2762 113.6 1.01361C113.114 1.11127 112.617 1.20891 112.132 1.30656C110.012 1.23082 107.879 1.1551 105.76 1.07977C104.997 1.117 104.236 1.15427 103.474 1.19109C102.503 1.02139 101.54 0.851227 100.57 0.681109C101.432 0.705947 102.305 0.731218 103.167 0.756056C106.575 0.618246 109.607 0.580557 114.233 0.554893C113.827 0.514738 113.42 0.474937 113.014 0.434782C115.361 0.503081 117.708 0.571551 120.046 0.639849C118.015 0.706894 115.746 0.781454 113.864 0.843941C116.875 1.11003 122.186 0.961936 124.951 0.906437C128.715 0.830684 127.865 0.957206 130.658 0.90424C131.104 0.895961 131.155 0.79679 132.036 0.795114C136.484 0.787248 145.124 0.839813 140.071 1.07122C132.75 1.04142 126.505 1.22725 119.323 1.15935C121.223 1.42693 117.439 1.51798 112.275 1.63663ZM246.776 0.784606C244.557 0.914562 240.039 0.862118 236.977 0.771913C236.974 0.771913 236.97 0.771913 236.967 0.771913C236.293 0.752042 234.767 0.579338 236.967 0.586375C240.552 0.598435 242.286 0.870294 244.168 0.685735C245.01 0.720092 245.894 0.750663 246.776 0.784606ZM254.568 0.768493C256.768 0.835139 255.77 1.03999 253.016 0.984547C253.016 0.98471 253.016 0.984873 253.016 0.985035C251.867 0.961853 254.123 0.799938 250.002 0.964285C249.16 0.836426 248.331 0.720103 247.499 0.596383C248.509 0.594314 249.429 0.590959 250.487 0.589303C249.775 0.799466 252.37 0.702369 254.568 0.768493ZM143.788 0.955505C144.134 0.766437 142.686 0.767631 140.219 0.63643C142.547 0.642638 144.875 0.649263 147.193 0.655471C146.054 0.755609 144.927 0.855368 143.788 0.955505ZM89.0974 0.926215C89.0937 0.926215 89.0903 0.926215 89.0868 0.926215C88.3241 0.956019 87.5588 0.985932 86.806 1.01532C86.3505 0.947845 85.8995 0.880661 85.444 0.813184C82.7491 0.876521 80.0399 0.939853 77.3451 1.0036C77.6726 0.797485 82.5096 0.831023 85.1747 0.686969C89.1372 0.749067 91.0468 0.868711 91.3042 1.0434C90.5713 1.0045 89.84 0.965112 89.0974 0.926215ZM737.181 1.74789C738.082 1.69078 738.973 1.63363 739.874 1.57652C738.675 1.55045 737.487 1.53056 736.278 1.50035C733.118 1.7487 732.821 1.52902 728.681 1.54429C715.99 1.59148 719.357 1.97721 707.896 1.41222C717.098 1.4391 713.561 1.17362 719.109 0.969126C720.258 1.12478 714.761 1.47583 718.486 1.54869C724.905 1.38395 731.078 1.23053 738.2 1.12415C737.992 1.09724 737.785 1.07024 737.577 1.04334C736.448 1.06031 735.328 1.07739 734.198 1.09436C735.417 1.02233 736.608 0.950924 737.846 0.878065C736.281 1.04156 740.27 0.950207 739.736 1.13806C739.499 1.22168 737.736 1.33769 736.695 1.41759C739.38 1.46105 742.133 1.50085 744.847 1.54307C743.441 1.60969 742.036 1.67639 740.639 1.74301C739.491 1.74508 738.351 1.74656 737.202 1.74863C737.195 1.74838 737.188 1.74814 737.181 1.74789ZM1314.95 0.878503C1311.54 1.07307 1305.35 1.10526 1302.09 0.888757C1306.38 0.885445 1310.66 0.881815 1314.95 0.878503ZM91.5629 1.18743C91.1772 1.15436 90.8031 1.12164 90.4172 1.08856C92.1211 1.02731 93.8345 0.966473 95.5385 0.905219C95.8654 1.00081 96.1992 1.09641 96.5363 1.19158C94.8822 1.19034 93.2169 1.18867 91.5629 1.18743ZM200.564 1.08098C199.318 1.08677 199.207 1.08363 197.655 1.07C197.657 1.07008 197.659 1.07016 197.66 1.07024C197.045 1.06515 191.897 1.00932 192.471 0.935727C195.027 0.934485 197.753 0.935726 200.369 0.935726C200.448 0.984135 200.465 1.03216 200.564 1.08098ZM170.476 1.03802C170.473 1.03786 170.469 1.03769 170.466 1.03753C169.535 1.02635 168.654 1.00359 167.694 0.999446C171.15 0.883622 171.697 1.09142 174.837 1.03265C177.977 0.973453 179.917 0.858798 182.582 1.14348C181.591 1.18612 180.525 1.24712 179.504 1.29679C175.046 1.18297 173.846 1.29009 170.27 1.40226C170.34 1.28057 170.407 1.15971 170.476 1.03802ZM680.68 1.172C679.828 1.31274 678.877 1.17464 678.779 1.17298C678.781 1.17281 678.782 1.17265 678.784 1.17249C671.238 1.30283 679.766 1.09459 672.644 1.07264C673.704 1.03747 674.746 1.00032 675.796 0.964736C677.42 1.03261 679.095 1.10951 680.68 1.172ZM435.482 1.15884C435.413 1.11786 435.33 1.07678 435.26 1.0358C439.54 1.04532 440.632 0.883983 444.188 1.03091C441.286 1.07396 438.384 1.1167 435.482 1.15933C435.482 1.15916 435.482 1.159 435.482 1.15884ZM222.136 1.37906C217.391 1.4573 213.88 1.49178 209.323 1.36759C209.319 1.36743 209.316 1.36726 209.312 1.3671C209.049 1.35946 210.32 1.27371 209.978 1.25212C209.037 1.26494 208.066 1.28466 207.116 1.29997C206.988 1.2313 206.865 1.16266 206.736 1.09441C209.411 1.11386 212.087 1.1333 214.771 1.15276C214.375 1.1126 213.969 1.0728 213.573 1.03264C215.851 1.01195 218.121 0.99133 220.399 0.970635C219.607 1.08319 218.816 1.19578 218.034 1.30875C219.401 1.33234 220.77 1.35506 222.136 1.37906ZM506.735 1.6073C505.982 1.56259 507.376 1.4876 506.207 1.4491C505.038 1.41109 502.882 1.49452 503.388 1.3683C504.961 1.35133 506.615 1.33189 508.218 1.3141C503.057 1.08648 497.908 1.29245 497.828 1.01138C502.782 1.08424 506.855 1.05039 511.65 0.972562C511.452 1.19567 506.656 1.38858 509.675 1.59802C508.705 1.60092 507.686 1.60515 506.745 1.60681C506.742 1.60697 506.738 1.60713 506.735 1.6073ZM22.2321 3.98515C19.2997 3.96818 12.5802 4.05923 8.87488 3.92925C7.96313 3.89721 4.92627 3.48226 4.94165 3.42756C5.03064 3.24335 8.73987 3.21828 4.76746 3.09823C6.10364 3.09699 7.40063 3.09007 8.72705 3.08676C8.48926 2.96298 8.25256 2.83954 8.0249 2.71617C6.41016 2.7348 4.79321 2.75352 3.17822 2.77257C3.09924 2.73158 3.0199 2.69051 2.94067 2.64953C8.74646 2.6487 5.31934 2.49052 8.33105 2.34314C5.55762 2.26865 2.76379 2.19451 1.04492e-08 2.12001C1.59485 2.12912 3.47693 2.13586 4.88354 2.14662C5.07178 1.93676 1.71545 1.98679 1.14038 1.9479C-2.099 1.7281 14.3939 1.83903 15.7435 1.53361C13.109 1.49968 10.3442 1.46656 7.65002 1.43303C8.42285 1.39536 9.20581 1.35767 9.97827 1.32C16.0905 1.53065 22.9445 1.60528 30.0669 1.73648C30.7104 1.7278 31.3551 1.71888 31.9886 1.7106C31.8005 1.61584 31.6226 1.52144 31.4343 1.42668C32.4053 1.41551 33.3884 1.40441 34.3593 1.39324C31.4966 1.70534 35.4608 1.70108 40.2458 1.8915C37.7004 2.00118 34.5597 1.93469 34.7762 2.13905C43.5138 1.98182 53.7461 2.20402 62.2457 2.0265C64.3557 1.98263 64.3488 1.719 69.3097 1.74331C69.141 1.77229 69.1125 1.82461 69.0035 1.86269C77.5831 1.73643 82.7889 1.66095 91.7054 1.7897C91.1906 1.69494 90.6838 1.5998 90.1692 1.50504C88.2765 1.55224 86.3816 1.60018 84.4989 1.64737C83.2113 1.4909 85.1141 1.42185 79.4675 1.42351C74.8407 1.42475 77.5952 1.49383 76.3368 1.5402C74.6329 1.6035 73.1379 1.47898 71.3054 1.54972C69.8887 1.60395 71.4211 1.73305 67.7258 1.70035C69.2118 1.5331 70.7279 1.36041 72.224 1.1911C73.1255 1.22877 74.0201 1.26702 74.9219 1.3051C74.0101 1.34981 73.1144 1.39393 72.2029 1.43864C75.4127 1.35834 78.4452 1.2826 81.7642 1.1994C80.6841 1.44115 84.1146 1.35051 85.9772 1.32195C88.8787 1.27729 86.3927 1.44367 88.2949 1.41594C90.1969 1.38777 92.2483 1.20189 95.6863 1.24163C93.8436 1.34924 96.3501 1.44575 95.8657 1.54508C95.3802 1.64441 91.7441 1.66641 95.2374 1.7748C101.954 1.69243 94.6656 1.31414 99.2024 1.25286C104.651 1.17918 105.948 1.79581 104.324 1.92836C103.046 2.03268 98.6478 2.0117 97.3599 2.11561C105.236 2.30313 105.305 1.93294 106.652 1.86049C111.546 1.59682 108.259 2.30058 114.054 2.04603C113.945 2.17764 113.857 2.29601 113.748 2.42223C114.747 2.39822 115.411 2.36632 116.62 2.34728C113.057 2.09086 115.973 2.10185 117.47 2.10145C119.827 2.10062 116.186 1.97554 116.81 1.94325C118.494 1.85684 121.158 1.89608 119.523 1.7831C120.257 1.83568 121.051 1.88841 121.804 1.94057C124.559 1.87506 131.033 1.32575 124.871 1.43668C125.446 1.2326 127.439 1.33069 128.995 1.36174C130.55 1.39276 130.521 1.26278 131.888 1.28679C137.326 1.38283 133.769 1.60516 132.907 1.77944C140.089 1.6594 133.058 1.57997 143.408 1.49967C144.409 1.35768 139.626 1.20617 143.609 1.1242C144.342 1.37087 147.274 1.54808 152.99 1.63003C153.545 1.57332 154.099 1.5161 154.653 1.45939C157.774 1.68707 156.179 1.92383 161.955 1.6415C158.854 2.16102 160.986 1.82866 166.157 2.04017C167.208 2.08281 164.781 2.19059 166.247 2.24523C166.912 2.26988 168.526 2.18852 170.149 2.25134C170.941 2.28238 174.647 2.4827 177.213 2.38756C175.33 2.13587 180.206 1.92175 176.025 1.71352C183.753 1.76485 189.161 1.64401 180.502 1.98719C182.464 2.06336 184.427 2.1392 186.389 2.21496C187.756 2.15493 189.134 2.09538 190.512 2.03577C190.72 2.24263 190.511 2.30066 195.897 2.26427C193.56 2.3131 191.233 2.36273 188.886 2.41197C188.807 2.45374 188.48 2.49716 188.558 2.5377C191.433 2.45825 199.527 2.42405 201.488 2.369C203.45 2.31395 199.661 2.29888 200.226 2.24548C204.931 1.80512 204.558 2.1299 207.934 2.05432C209.916 2.00961 205.185 1.96107 206.245 1.94202C210.176 1.87223 211.999 2.10627 215.484 2.10925C214.246 1.97641 213.018 1.8415 211.81 1.70742C215.465 1.71445 219.541 1.71563 222.939 1.67299C224.273 1.65635 223.265 1.55755 223.483 1.55093C224.564 1.51698 228.962 1.46321 229.427 1.4628C232.933 1.46201 233.032 1.59885 236.439 1.60634C235.101 1.61793 233.844 1.62837 232.537 1.63955C231.943 1.86141 231.336 2.08325 230.742 2.30553C234.08 2.32167 237.42 2.33748 240.768 2.35362C238.321 2.27953 235.865 2.2058 233.419 2.13171C237.243 1.95247 241.067 1.77282 244.891 1.59316C246.882 1.70327 248.866 1.81336 250.857 1.92347C256.265 1.89442 255.176 1.44745 257.741 1.839C259.336 1.80589 260.93 1.77281 262.525 1.74012C262.297 1.79599 262.072 1.85197 261.844 1.90784C263.766 1.87348 265.687 1.83935 267.609 1.80457C265.588 1.60672 263.607 1.39852 261.606 1.20646C265.388 1.16346 265.461 1.33131 266.025 1.3732C267.521 1.48414 270.491 1.3345 271.679 1.43716C272.081 1.47241 268.375 1.5829 269.652 1.71034C269.901 1.73504 274.864 2.2035 278.031 2.09533C277.971 2.01047 277.727 1.90641 277.598 1.81409C281.856 1.76255 284.028 2.20553 283.463 2.32969C285.732 2.24277 289.048 2.2355 289.514 2.09972C290.673 2.09641 291.823 2.09327 292.982 2.08996C291.775 2.42064 296.609 2.36018 296.926 2.0758C294.935 2.06876 292.941 2.06135 290.95 2.05431C292.456 1.70576 286.404 1.49537 298.996 1.81824C301.403 1.99956 294.716 1.79354 296.678 1.92932C300.086 2.00835 303.285 1.94223 306.524 2.06847C310.555 2.22618 305.596 2.37787 314.987 2.17711C294.271 1.67415 317.829 1.83734 327.558 1.68128C330.233 2.17805 338.45 2.33539 349.764 2.1876C348.585 2.04935 345.025 2.12058 342.974 2.07506C340.924 2.02953 343.142 1.94751 340.588 1.88293C338.033 1.81837 332.605 1.73061 330.018 1.63295C332.209 1.5547 343.024 1.3697 335.873 1.59193C341.211 1.72892 343.718 1.8697 350.334 1.89538C352.315 1.67971 352.169 1.54542 358.618 1.5392C354.803 1.83889 362.131 2.04717 360.518 2.35678C355.945 2.28467 358.501 1.98375 355.856 1.83972C355.585 1.82532 351.324 1.90076 350.334 1.89538C354.634 2.1657 356.12 2.26632 353.475 2.58797C356.517 2.55982 358.409 2.60021 358.686 2.44662C359.32 2.51325 359.958 2.57994 360.582 2.64656C361.571 2.64491 362.462 2.63874 363.512 2.63997C362.067 2.4083 364.868 2.55092 366.859 2.44589C368.85 2.34074 366.178 2.15786 371.647 2.15538C369.824 2.10115 368.158 2.05462 366.394 2.00329C369.921 1.94368 373.458 1.8837 376.985 1.82409C374.508 1.68254 369.141 1.47228 369.287 1.28604C370.912 1.35635 376.476 1.23277 377.085 1.22769C379.443 1.20865 378.158 1.3261 378.337 1.329C382.041 1.38608 385.092 1.34609 386.499 1.52406C389.282 1.44376 391.382 1.48954 394.334 1.485C395.958 1.48251 395.642 1.35179 396.593 1.3766C402.914 1.54218 396.892 1.7111 409.084 1.38954C407.609 1.29848 406.152 1.20532 404.676 1.11343C406.053 1.07907 407.422 1.04453 408.799 1.01017C409.721 1.02673 410.634 1.04341 411.555 1.05997C411.536 1.25741 411.512 1.45527 411.492 1.65271C412.503 1.66348 413.517 1.67393 414.528 1.68469C412.794 1.70415 411.056 1.72358 409.322 1.74304C409.164 1.77778 409.016 1.81254 408.858 1.84728C411.433 1.9011 414 1.9554 416.576 2.00963C416.626 1.94094 416.675 1.87178 416.724 1.8031C422.529 1.89872 422.668 1.95686 428.186 1.7677C432.436 1.76977 435.897 1.48259 438.354 1.36171C439.236 1.4002 440.118 1.43918 441.01 1.47767C441.575 1.42054 442.145 1.36366 442.71 1.30654C443.829 1.38601 444.964 1.4655 446.083 1.54456C446.707 1.36417 447.031 1.30785 442.662 1.24453C444.159 1.02016 451.849 1.11914 454.98 1.19448C457.355 1.25165 454.719 1.43879 455.016 1.46156C456.008 1.53889 459.923 1.47216 460.745 1.48499C464.222 1.53839 466.659 1.52904 469.799 1.57044C470.411 1.57872 472.12 1.69732 472.265 1.70105C473.394 1.72133 476.182 1.77897 476.499 1.78063C492.852 1.86916 475.378 1.35461 490.585 1.40882C490.129 1.34097 489.71 1.27356 489.265 1.20571C490.413 1.20157 491.574 1.19764 492.723 1.1935C494.179 1.25021 492.417 1.35335 495.31 1.27016C495.122 1.35377 494.933 1.43743 494.734 1.52063C495.993 1.47551 497.205 1.43075 498.493 1.38563C500.514 1.67581 507.893 1.74171 507.368 2.08237C507.19 2.19828 501.959 2.31722 504.723 2.441C506.969 2.46536 505.449 2.32693 506.365 2.31966C512.983 2.26916 512.599 2.4632 515.303 2.41146C515.729 2.32829 516.177 2.2435 516.613 2.15951C517.633 2.18393 518.656 2.20834 519.685 2.23275C519.923 2.17687 520.171 2.12092 520.409 2.06504C519.448 2.06131 518.366 2.05753 517.484 2.05381C518.714 1.83735 530.005 1.74012 525.699 1.92466C523.945 1.99958 520.734 1.96775 522.763 2.22348C525.785 2.18663 529.213 2.14899 532.393 2.11215C532.492 2.16721 532.585 2.22237 532.684 2.27743C536.969 2.24179 533.072 2.02165 533.08 1.90367C534.06 1.90036 535.051 1.89746 536.031 1.89415C536.446 1.94749 536.841 2.00333 537.277 2.05503C537.317 1.97013 537.866 1.7728 540.788 1.84605C542.666 1.89373 539.708 2.10792 543.29 2.07822C543.022 1.94577 541.728 1.78446 545.719 1.74181C546.115 1.88004 546.663 2.00667 546.97 2.15194C551.933 2.01915 554.191 2.23261 560.016 2.07822C563.711 1.98051 568.773 1.63371 571.161 2.16805C573.864 2.18212 573.006 2.04905 573.806 2.01914C577.581 1.87756 580.388 2.13093 581.092 2.14584C585.578 2.24137 587.589 2.15366 591.244 2.27327C591.046 2.17433 590.938 2.08068 590.78 1.98422C587.431 2.13243 585.735 2.12547 581.039 2.09359C582.614 2.07373 584.189 2.0534 585.764 2.03354C585.506 1.95325 585.252 1.87295 585.004 1.79307C570.479 2.10935 573.868 1.60965 586.044 1.50036C587.094 1.64895 588.182 1.79714 589.222 1.94614C596.256 1.72095 599.566 1.91644 607.521 1.96323C608.467 1.96858 611.911 1.88298 613.392 1.87876C613.367 1.87819 613.342 1.87762 613.318 1.87705C614.239 1.73674 612.991 1.67216 612.843 1.54674C613.645 1.53102 614.448 1.51535 615.25 1.49963C617.042 1.59523 616.412 1.67375 619.939 1.65099C619.463 1.55578 618.994 1.46056 618.518 1.36536C622.382 1.36204 624.911 1.46548 628.507 1.42077C627.903 1.45679 627.306 1.49291 626.702 1.52892C634.528 1.62082 628.3 2.18055 634.214 1.90195C634.591 1.95078 634.957 2.00008 635.334 2.04891C632.897 2.06092 630.459 2.07255 628.032 2.08456C627.983 2.15366 627.929 2.22247 627.889 2.29158C630.495 2.27088 633.113 2.24954 635.719 2.22884C633.817 2.2752 631.904 2.32163 630.001 2.36799C633.023 2.4011 636.045 2.43424 639.066 2.46735C635.858 2.21323 640.017 2.18216 639.235 1.93051C644.585 2.13998 648.787 2.4161 657.08 2.23933C658.724 2.20412 657.831 2.02826 662.497 2.24226C661.368 1.96246 667.213 1.83116 666.462 1.56505C664.838 1.57788 663.153 1.58595 661.578 1.60167C663.371 1.69398 663.669 1.94792 660.945 2.02328C657.467 2.11931 652.395 1.94332 652.603 2.22517C651.216 2.21193 649.927 2.20412 648.58 2.19295C649.134 2.12303 649.677 2.05267 650.222 1.98275C646.389 2.09237 643.981 2.05672 642.139 1.88046C646.705 1.8399 651.262 1.79977 655.829 1.75962C655.156 1.74763 654.474 1.73555 653.801 1.72398C657.259 1.5439 653.693 1.37334 660.142 1.33484C660.103 1.41719 660.071 1.49961 660.031 1.58238C662.379 1.36215 668.808 1.36334 666.757 1.10999C668.699 1.18781 669.095 1.23703 670.194 1.10047C675.317 1.29297 678.606 1.53639 676.783 1.827C678.685 1.78023 680.588 1.73339 682.48 1.68662C681.38 1.60716 680.28 1.52806 679.18 1.4486C682.489 1.45357 685.822 1.45845 689.122 1.463C689.439 1.6981 682.752 1.53433 684.681 1.74448C685.067 1.78666 686.848 1.69631 687.316 1.72007C692.249 1.97712 684.505 1.79141 685.959 1.98837C693.31 2.04922 687.428 2.37925 697.553 2.10188C697.82 2.16976 698.108 2.239 698.355 2.30646C701.87 2.31054 701.585 2.15722 704.606 2.12825C706.498 2.11023 708.873 2.37945 710.963 2.19612C711.336 2.16232 707.82 1.83326 715.208 1.84775C720.941 1.85897 718.555 2.09151 721.654 2.1739C724.755 2.25628 731.849 1.93385 733.94 2.29938C732.315 2.25097 730.246 2.22485 728.443 2.18513C727.711 2.25632 726.997 2.32674 726.274 2.39752C730.395 2.30563 734.655 2.41393 737.429 2.24421C742.928 2.50377 749.077 2.2629 747.413 1.96981C745.603 2.01206 747.572 2.13987 745.058 2.05843C744.801 1.99012 744.529 1.92215 744.272 1.85385C748.552 1.86212 751.524 1.86021 749.572 2.06843C750.236 2.0734 750.893 2.07836 751.557 2.08333C751.676 1.93264 751.782 1.7814 751.9 1.63071C752.693 1.61374 753.489 1.5969 754.282 1.57993C755.163 1.61303 756.046 1.64651 756.937 1.68003C755.738 1.91847 753.696 1.92635 760.453 2.05964C760.473 1.97726 760.502 1.89521 760.522 1.81283C766.179 1.91756 766.328 2.11712 773.43 2.10969C767.981 2.39571 765 1.8887 765.02 2.46246C763.653 2.42479 762.275 2.38661 760.907 2.34894C760.699 2.43214 760.493 2.51547 760.295 2.59868C767.636 2.55479 779.829 2.00757 784.744 2.37042C785.339 2.32614 785.935 2.28765 786.539 2.24005C791.354 2.45904 793.434 1.96739 798.318 2.25055C798.822 2.28027 797.767 2.74218 804.126 2.72562C803.967 2.66559 803.885 2.56455 803.756 2.48882C805.133 2.52565 806.502 2.56419 807.869 2.60185C808.116 2.5464 808.376 2.49097 808.624 2.43511C806.276 2.41358 803.934 2.3917 801.586 2.37017C803.537 2.35114 805.501 2.33208 807.452 2.31305C804.906 2.22242 803.758 2.22146 805.292 2.07624C807.502 2.06755 809.714 2.05832 811.923 2.04963C812.151 2.01242 812.377 1.97478 812.604 1.93758C811.535 1.82664 810.454 1.71815 809.384 1.60556C815.14 1.69622 820.144 1.70114 824.563 1.91927C825.316 1.95611 822.653 2.10063 827.783 1.97029C827.862 2.04683 828 2.10899 828.089 2.17975C834.371 1.96531 836.434 2.02932 842.983 2.18414C838.743 2.03967 842.526 2.13363 843.606 2.05622C844.346 2.00289 841.458 2.01077 841.784 1.95491C842.111 1.89944 845.864 1.67546 842.656 1.64853C834.789 2.10762 832.646 1.55873 822.541 1.77938C824.096 1.72018 825.663 1.66085 827.218 1.60165C826.486 1.56153 825.83 1.52513 825.038 1.48252C830.674 1.57233 827.933 1.51398 830.249 1.44321C832.567 1.37243 836.78 1.31229 839.604 1.29283C840.494 1.28672 839.555 1.38969 841.563 1.39927C842.93 1.40589 846.666 1.25325 847.529 1.4332C848.093 1.55035 842.091 1.87292 850.39 1.87215C851.952 1.98699 847.973 1.95132 847.888 1.96516C847.164 2.10177 852.266 2.20448 854.624 2.10016C854.815 2.09116 852.953 1.98471 854.978 1.94294C859.783 1.84318 862.558 1.96526 865.669 2.13043C866.006 1.93669 870.05 1.70532 875.082 1.77693C875.34 1.72149 875.585 1.66556 875.843 1.60971C875.061 1.63905 874.28 1.668 873.499 1.69735C872.647 1.66257 871.744 1.63726 870.912 1.59628C875.973 1.54864 876.689 1.28163 879.116 1.18395C887.422 0.850234 882.388 1.55614 880.89 1.67782C879.81 1.62855 878.766 1.57357 877.696 1.52182C877.815 1.5893 877.935 1.65729 878.044 1.72518C890.478 1.72311 879.938 2.16319 886.249 2.28863C887.873 1.95664 892.508 1.92465 898.413 2.13531C899.067 2.13366 899.723 2.13323 900.377 2.13116C900.486 2.08276 900.484 2.00877 900.662 1.97687C907.775 1.92057 909.043 2.43183 909.716 2.48027C912.708 2.69508 915.038 2.39786 915.92 2.39531C919.635 2.38496 920.714 2.51693 924.251 2.46025C928.054 2.39899 925.454 2.29773 926.611 2.20708C927.539 2.1351 930.54 2.12228 931.779 2.04767C931.287 2.10869 930.739 2.16853 930.248 2.22979C934.191 2.31298 937.412 2.39407 941.89 2.41435C946.942 1.96784 951.241 2.72104 949.497 2.11016C945.257 2.06835 942.886 1.99874 940.617 1.84309C943.401 1.82322 946.186 1.80387 948.97 1.78401C949.782 1.85105 950.358 1.91639 951.319 1.98468C953.399 1.8423 958.222 1.9034 960.115 1.86164C968.982 1.66583 966.239 1.42298 974.332 1.83112C968.499 1.87089 968.508 2.06912 962.723 2.04181C963.971 2.18338 966.911 2.15405 965.009 2.32377C970.606 2.28197 968.796 2.13044 970.975 1.99591C972.853 1.87993 976.637 1.87344 976.423 1.72273C976.81 1.80559 977.109 1.88581 977.495 1.96857C981.12 1.96774 984.745 1.96768 988.371 1.96686C986.825 2.05336 985.281 2.14003 983.735 2.22612C984.903 2.25879 986.073 2.29134 987.241 2.32402C996.157 2.05494 1011.53 2.54808 1009.08 1.87213C1013.38 1.85061 1013.91 1.93539 1016.25 2.06328C1016.51 2.01197 1016.76 1.96928 1017.02 1.91217C1019.79 1.96589 1021.92 1.77322 1024.37 1.82331C1026.81 1.873 1027.42 2.05499 1027.78 1.74909C1029.36 1.83683 1030.94 1.90972 1032.51 1.99127C1033.46 1.92177 1034.41 1.85308 1035.35 1.784C1036.84 1.82042 1038.33 1.8567 1039.81 1.89312C1040.61 1.74711 1046.45 1.81005 1049.03 1.71198C1051.47 1.86938 1051.41 2.36497 1057.16 2.27616C1057.01 2.15325 1056.86 2.03069 1056.71 1.90777C1058.03 1.93343 1059.35 1.95901 1060.68 1.98467C1060.76 2.02479 1060.83 2.06491 1060.91 2.10503C1060.23 2.09261 1059.57 2.08026 1058.89 2.06743C1059.48 2.13532 1060.05 2.2029 1060.63 2.27079C1062.64 2.17021 1064.65 2.06962 1066.67 1.96905C1063.95 1.89289 1061.22 1.81669 1058.5 1.74054C1061.92 1.6503 1064.3 1.74031 1067.27 1.63972C1069.85 1.80942 1068.9 1.9072 1067.85 2.09135C1068.81 2.07563 1069.78 2.06045 1070.74 2.04473C1070.11 2.22891 1071.73 2.33865 1066.12 2.32376C1066.5 2.3763 1066.9 2.42638 1067.27 2.48098C1068.19 2.47271 1068.79 2.51711 1069.8 2.49685C1072.56 2.44138 1074.67 2.11787 1074.48 2.00444C1074.38 1.94503 1071.66 2.05866 1071.77 1.97466C1072.04 1.76983 1078.27 1.86179 1069.28 1.65607C1072.27 1.52567 1072.93 1.62402 1076.22 1.66169C1075.96 1.59343 1075.71 1.52561 1075.47 1.45735C1076.99 1.4888 1078.52 1.52014 1080.04 1.55159C1077.92 1.9022 1089.17 2.03389 1079.05 2.34061C1082.04 2.35634 1085.02 2.37215 1088 2.3887C1087.39 2.42471 1086.77 2.46035 1086.16 2.49636C1084.81 2.47732 1083.47 2.45859 1082.12 2.43997C1083.71 2.50577 1085.3 2.57118 1086.88 2.63698C1090.63 2.55543 1092.09 2.43 1093.81 2.27518C1089.45 2.1622 1090.87 2.31653 1087.48 2.3472C1087.6 2.24915 1087.44 2.15897 1087.74 2.05595C1089.49 2.25904 1095.22 2.11129 1096.54 2.10136C1100.58 2.07119 1097.42 2.27074 1100.12 2.27494C1102.82 2.27908 1106.01 2.16031 1108.22 2.35818C1108.18 2.24728 1108.01 2.13252 1107.85 2.03154C1112.06 1.99511 1111.22 2.12613 1111.65 2.14311C1118.61 2.42211 1122.38 2.18656 1130.34 2.158C1129.33 2.12364 1128.31 2.09263 1127.29 2.06034C1133.29 1.82486 1129.24 1.89697 1124.03 1.81915C1128.92 1.84274 1131.72 1.6422 1135.16 1.58258C1138.61 1.52308 1144.52 1.62607 1146.68 1.70636C1141.74 1.83552 1136.41 1.75034 1130.92 1.78594C1131.54 1.89893 1132.15 1.99455 1132.79 2.11869C1136.13 1.88156 1138.07 2.04011 1139.16 2.07157C1142.39 2.16384 1142.29 1.96031 1144.24 2.17923C1144.16 2.10392 1144.11 2.0406 1144.03 1.97026C1150.69 2.00172 1157.89 2.13486 1162.23 1.85674C1162.62 2.03763 1162.92 2.2119 1163.38 2.39651C1166.2 2.26034 1168.62 2.39978 1171 2.36794C1173.36 2.33607 1172.46 2.18988 1175.25 2.13358C1175.76 2.12323 1176.83 2.21473 1178.1 2.14725C1179.38 2.07942 1184.1 1.57505 1184.67 2.01566C1187.06 2.01774 1189.32 2.03385 1191.65 2.0413C1189.38 2.06613 1187.1 2.09019 1184.83 2.11502C1186.77 2.22181 1188.7 2.32829 1190.64 2.43508C1190.89 2.33986 1191.14 2.24293 1191.37 2.14896C1196.61 2.03305 1200.4 2.18872 1205.68 2.15189C1206.56 2.14568 1204.48 1.95743 1208.4 2.00541C1212.31 2.05343 1215.21 2.40478 1221.88 2.26907C1222.22 2.26203 1224.19 1.99294 1226.58 2.17923C1227.12 2.22145 1224.83 2.28392 1226.08 2.33938C1227.33 2.39485 1232.9 2.44046 1233.34 2.57252C1233.28 2.52575 1232.93 2.4773 1232.76 2.4297C1233.71 2.40735 1234.67 2.38499 1235.63 2.36305C1235.72 2.44542 1235.82 2.52791 1235.91 2.60987C1241.38 2.41821 1244.2 2.10556 1252.31 2.20901C1250.03 2.08938 1247.75 1.96928 1245.48 1.84965C1244.85 1.93369 1244.23 2.01829 1243.61 2.10232C1239.88 2.0688 1236.14 2.03551 1232.4 2.00199C1231.79 2.09762 1231.18 2.19297 1230.57 2.2886C1229.58 2.27618 1228.6 2.26415 1227.61 2.25173C1227.86 2.1826 1228.1 2.11384 1228.36 2.04471C1226.4 2.06168 1224.44 2.07901 1222.49 2.09598C1226.46 1.68793 1233.58 2.13069 1233.07 1.78935C1233.95 1.84231 1234.83 1.89564 1235.71 1.94901C1236.1 1.7835 1237.89 1.83114 1241.05 1.85722C1240.33 1.77567 1239.53 1.69523 1238.86 1.61285C1241.93 1.72792 1247.38 1.71674 1250.56 1.76103C1251.96 1.78049 1250.56 1.90048 1250.98 1.91459C1253.11 1.98828 1257.18 1.7789 1258.03 1.79545C1263.13 1.89399 1266.43 2.29095 1271.99 2.02933C1266.26 1.96475 1269.38 1.99202 1267.34 1.84672C1266.7 1.80116 1259.29 1.70613 1268.57 1.74834C1269.65 1.75362 1286.49 2.02788 1280.96 2.23806C1283.68 2.17099 1285.81 2.09345 1288.31 2.02225C1294.41 2.57614 1292.3 2.0558 1290.53 1.76933C1291.53 1.76809 1292.48 1.76518 1293.51 1.76518C1291.32 2.06614 1302.48 2.08482 1306.26 1.93289C1307.53 1.88239 1303.98 1.78606 1306.92 1.74052C1308.31 1.76163 1309.9 1.78895 1311.37 1.81254C1309.23 1.62213 1313.43 1.54875 1313.37 1.35504C1316.06 1.52765 1318.11 1.89352 1316.64 2.09182C1318.86 2.01153 1321.09 1.93133 1323.3 1.85062C1322.27 1.80467 1321.23 1.75913 1320.2 1.71318C1327.45 1.83488 1336.78 1.55794 1338.29 1.96487C1339.25 1.96197 1340.23 1.95947 1341.19 1.95657C1341.48 1.88785 1341.77 1.819 1342.07 1.75028C1346.42 1.80988 1350.75 1.86987 1355.1 1.92947C1351.23 1.97212 1350.31 2.06993 1346.25 1.99051C1347.81 2.06954 1349.41 2.14901 1350.94 2.22804C1357.06 2.01526 1357.89 1.87542 1367.09 1.93875C1367.51 1.94165 1374.46 2.12008 1374.7 2.13747C1375.79 2.21694 1374.14 2.3324 1374.62 2.37256C1375.97 2.48516 1384.16 2.76789 1384 2.81053C1382 3.33379 1354.45 3.34073 1347 3.36763C1269.72 3.64664 1194.15 3.27338 1117.35 3.33714C1116.57 3.33812 1116.91 3.41537 1116.57 3.41868C1114.48 3.43808 1112.43 3.31769 1111.66 3.31273C1110.01 3.30249 1110.92 3.41372 1109.71 3.4138C1097.25 3.41255 1085.49 3.34715 1073.01 3.36619C1072.2 3.36744 1073.03 3.27844 1071.6 3.29418C1070.87 3.30279 1068.56 3.43932 1066.9 3.44139C1061.09 3.44842 1056.22 3.40465 1050.09 3.40672C1046.75 3.40796 1041.72 3.39635 1037.98 3.39842C1036.32 3.3993 1034.6 3.46176 1032.97 3.46385C1030.65 3.46675 1031.12 3.34013 1030.77 3.33226C1029.2 3.29791 1028.98 3.43688 1027.5 3.43358C1024.73 3.42695 1024.58 3.33417 1021.08 3.34203C1018.57 3.34782 1012.83 3.42108 1009.67 3.44261C1002.28 3.33499 992.969 3.37772 986.074 3.41332C981.993 3.43442 981.614 3.30451 979.95 3.30493C974.086 3.30744 969.635 3.47336 964.127 3.47875C956.817 3.48576 950.339 3.37604 943.257 3.36816C942.109 3.36692 942.372 3.48595 941.246 3.489C937.075 3.50018 931.741 3.52184 928.026 3.50487C923.885 3.48622 922.358 3.31344 918.306 3.34863C917.118 3.35908 916.77 3.51057 914.779 3.53002C911.6 3.5606 908.113 3.42701 905.894 3.4121C902.852 3.39223 905.497 3.54657 901.396 3.52587C901.227 3.52497 900.613 3.41465 899.733 3.41992C897.167 3.43482 897.421 3.5217 893.666 3.51342C893.306 3.51228 888.328 3.40716 887.833 3.40673C884.92 3.40508 879.056 3.36828 877.332 3.39062C871.169 3.47011 876.021 3.63604 870.78 3.27588C868.472 3.36404 866.183 3.45339 863.737 3.53905C865.37 3.45916 858.743 3.34387 858.278 3.35132C854.426 3.41136 856.72 3.55149 851.837 3.52831C858.286 3.20459 845.536 3.48659 842.693 3.49487C829.001 3.53501 816.556 3.45423 802.795 3.4563C798.188 3.45715 792.015 3.52558 787.141 3.52393C786.005 3.52383 786.864 3.44721 785.864 3.44556C784.866 3.44443 785.973 3.53043 784.834 3.52588C777.751 3.49606 772.201 3.33378 765.712 3.53662C765.396 3.50729 765.406 3.48412 764.883 3.45191C759.572 3.63363 749.346 3.38925 745.502 3.35572C739.489 3.3036 737.954 3.42642 733.586 3.40162C727.81 3.36851 719.138 3.12855 723.011 3.52466C719.049 3.53708 715.234 3.54051 711.232 3.50367C710.787 3.49949 711.094 3.39881 710.915 3.39674C709.786 3.38229 709.418 3.47243 708.656 3.47657C706.588 3.48771 709.963 3.37977 707.014 3.40992C705.459 3.42607 704.575 3.50469 700.256 3.50636C674.22 3.51505 645.953 3.48689 619.263 3.47365C617.43 3.47282 618.636 3.57019 616.338 3.56398C608.353 3.54243 594.059 3.37857 587.174 3.4009C580.289 3.42326 581.842 3.56564 577.533 3.62526C576.701 3.63685 577.384 3.5557 576.63 3.55446C571.568 3.547 565.532 3.42043 561.431 3.40139C558.718 3.38863 558.935 3.51629 557.054 3.52541C554.25 3.53866 551.365 3.40968 549.869 3.40554C542.836 3.38736 538 3.49124 531.432 3.43826C531.69 3.46635 531.859 3.49236 532.077 3.52004C524.3 3.51549 516.533 3.51092 508.757 3.50637C509.123 3.53204 509.478 3.55793 509.844 3.58401C500.72 3.56992 501.761 3.29175 502.564 3.87916C501.9 3.89985 501.197 3.92384 500.563 3.94287C500.82 3.64028 495.301 3.41884 488.278 3.34183C487.762 3.33604 484.306 3.63107 484.682 3.28251C483.781 3.36778 483.244 3.42657 482.481 3.50149C480.995 3.39596 479.489 3.29168 478.004 3.18657C477.202 3.20229 476.388 3.21747 475.586 3.2332C475.467 3.3015 475.558 3.37242 475.3 3.43948C471.576 3.44983 463.936 3.36539 460.993 3.37406C453.681 3.396 446.237 3.58067 440.551 3.38114C437.781 3.40148 440.531 3.53555 436.411 3.51859C435.946 3.45071 435.508 3.38566 435.023 3.31571C431.656 3.61898 430.952 3.43449 426.338 3.37113C423.218 3.32808 421.174 3.4022 418.202 3.38773C417.449 3.38401 417.556 3.295 417.041 3.29789C415.315 3.30707 410.392 3.42959 409.174 3.4329C398.138 3.46518 388.658 3.45144 378.146 3.41874C377.017 3.41543 378.481 3.50327 377.312 3.49955C375.432 3.4937 376.538 3.35872 375.449 3.35209C372.409 3.33438 372.387 3.47672 368.147 3.48417C354.188 3.50858 338.139 3.40166 323.556 3.39214C323.1 3.39214 323.128 3.47553 322.632 3.47636C319.403 3.48044 316.135 3.36771 313.203 3.36895C308.339 3.3706 304.682 3.48776 299.877 3.48735C290.485 3.48694 282.094 3.42695 272.434 3.42363C264.528 3.42074 257.662 3.43186 248.993 3.43145C211.127 3.42979 172.488 3.69451 134.364 3.55377C133.394 3.55004 133.789 3.47636 133.493 3.47955C130.679 3.51143 130.428 3.61084 129.428 3.40265C125.844 3.44368 124.712 3.6001 120.384 3.58892C118.077 3.58306 119.8 3.34063 115.896 3.46564C112.372 3.57864 116.261 3.7115 105.781 3.57574C105.503 3.57201 104.137 3.42424 101.958 3.46271C99.7686 3.50079 102.303 3.60661 97.0325 3.63848C84.6587 3.71299 68.9965 3.58526 54.6115 3.62457C53.7098 3.62705 45.0273 3.70606 43.3132 3.74249C39.9963 3.81327 40.6895 3.92308 36.3812 3.95C33.0524 3.97069 30.3058 3.8463 26.3923 3.87114C25.9366 3.87416 25.173 4.00211 22.2321 3.98515ZM751.547 1.49986C752.359 1.37432 753.825 0.912238 758.737 1.05286C759.203 1.0661 756.69 1.38387 759.403 1.43443C756.748 1.46796 754.162 1.47882 751.547 1.50035C751.547 1.50018 751.547 1.50002 751.547 1.49986ZM0.939697 1.03877C4.6156 1.06195 8.30347 1.08492 11.9792 1.1081C9.44299 1.16398 6.9032 1.21976 4.37671 1.27606C3.22766 1.19701 2.08887 1.11782 0.939697 1.03877ZM458.496 1.2582C458.492 1.2582 458.489 1.2582 458.485 1.2582C462.349 1.19859 466.215 1.13886 470.079 1.07925C469.673 1.12313 469.266 1.1672 468.859 1.21108C465.808 1.2802 462.756 1.34923 459.715 1.41835C459.309 1.36496 458.902 1.31159 458.496 1.2582ZM427.969 1.72278C425.503 1.67062 426.106 1.58265 424.749 1.49696C424.749 1.49712 424.749 1.49728 424.749 1.49745C424.391 1.47514 422.722 1.45562 422.077 1.45228C422.315 1.50734 422.622 1.56169 422.88 1.61634C417.124 1.74964 405.867 1.27596 420.441 1.08511C420.223 1.15465 420.015 1.22382 419.797 1.29336C427.039 1.2739 435.113 1.42472 427.969 1.72278ZM809.78 1.29967C815.962 1.07199 817.944 1.02398 825.444 1.18004C824.385 1.24458 823.325 1.3091 822.266 1.37364C821.028 1.30782 819.798 1.24245 818.56 1.17663C818.556 1.17663 818.553 1.17663 818.549 1.17663C818.302 1.24576 818.053 1.31501 817.815 1.38414C815.141 1.35599 812.455 1.32782 809.78 1.29967ZM191.32 1.55825C189.597 1.10352 190.094 1.36784 195.015 1.2653C196.719 1.2297 195.059 1.15014 196.119 1.13689C201.843 1.06453 202.301 1.3692 201.023 1.52774C197.784 1.5385 194.511 1.54832 191.33 1.55825C191.327 1.55825 191.323 1.55825 191.32 1.55825ZM42.7906 1.65275C42.787 1.65275 42.7836 1.65275 42.78 1.65275C42.6316 1.54183 44.939 1.51199 42.3365 1.40691C44.3167 1.40732 46.2968 1.4082 48.2866 1.40862C47.7029 1.41895 47.1069 1.4288 46.5232 1.43913C47.0383 1.47722 47.5551 1.51579 48.0702 1.55387C48.7731 1.42638 49.4272 1.50049 51.5071 1.54313C50.9323 1.40694 50.3606 1.27065 49.786 1.13446C52.2028 1.17502 54.6285 1.21572 57.0453 1.25628C57.0752 1.2906 57.1052 1.32498 57.1351 1.3593C58.0461 1.31544 58.9481 1.27109 59.8594 1.22723C60.1071 1.2682 60.3457 1.30881 60.5931 1.34978C61.6927 1.31874 62.7933 1.28773 63.8929 1.25628C64.2274 1.35553 61.8047 1.39843 66.0997 1.37322C64.7822 1.47504 63.4677 1.57655 62.1401 1.67838C55.6906 1.6701 49.2401 1.66144 42.7906 1.65275ZM236.095 1.41836C228.992 1.43741 230.993 1.36547 232.637 1.1403C233.786 1.233 234.946 1.32566 236.095 1.41836ZM602.062 1.61876C604.123 1.46518 606.192 1.31313 608.302 1.16493C612.503 1.07923 616.706 1.35916 613.545 1.46887C609.741 1.60049 605.767 1.45318 602.062 1.61876ZM697.738 1.5504C692.598 1.47918 697.434 1.29669 698.593 1.19031C700.015 1.36128 701.997 1.3462 705.182 1.36608C702.192 1.37717 698.588 1.56249 697.738 1.55089C697.738 1.55072 697.738 1.55056 697.738 1.5504ZM519.353 1.44617C517.293 1.45076 515.245 1.49366 513.403 1.44153C513.958 1.29468 517.643 1.42828 515.008 1.21059C516.325 1.20686 517.644 1.20325 518.952 1.19911C518.121 1.28931 519.238 1.35672 519.348 1.44568C519.349 1.44585 519.351 1.44601 519.353 1.44617ZM304.919 1.24527C308.961 1.41914 309.728 1.34474 313.8 1.22428C314.373 1.36584 309.518 1.60296 306.477 1.65516C305.962 1.51856 305.444 1.38187 304.919 1.24527ZM1261.03 1.31769C1260.06 1.49813 1252.9 1.52167 1249.34 1.46832C1249.76 1.44156 1250.19 1.41444 1250.61 1.38727C1254.08 1.36409 1257.56 1.34088 1261.03 1.31769ZM706.697 1.37829C706.164 1.373 705.659 1.36906 705.182 1.36608C705.712 1.36411 706.224 1.36719 706.697 1.37829ZM921.912 2.16143C920.218 2.33155 925.252 2.38871 919.14 2.32207C919.14 2.32223 919.14 2.32239 919.14 2.32256C915.098 2.27868 914.206 2.26696 910.461 2.25371C911.809 2.03517 919.406 1.95705 908.935 1.91193C908.797 1.91173 909.072 2.04178 907.398 2.02399C906.882 2.01846 905.229 1.91173 902.716 1.88069C901.903 1.87075 895.798 1.83784 904.12 1.83577C903.872 1.68343 904.319 1.52923 904.299 1.38144C907.548 1.33849 910.044 1.6368 913.481 1.62948C918.583 1.61789 921.179 1.31624 922.16 1.71199C917.87 1.80922 910.503 1.81156 909.542 1.57357C905.391 1.57067 904.199 1.76566 907.546 1.86213C921.882 1.7396 911.482 2.15156 924.034 1.99591C924.183 1.94087 924.699 1.88164 924.62 1.82991C928.452 2.0236 922.516 2.10059 921.912 2.16143ZM891.935 1.74056C894.412 1.62423 896.88 1.50697 899.347 1.39023C899.347 1.57982 897.987 1.74996 894.083 1.85676C893.371 1.81788 892.647 1.77903 891.935 1.74056ZM1100.29 1.69074C1100.64 1.58766 1101.59 1.4932 1102.29 1.3951C1103.04 1.48203 1120.87 1.56542 1111.8 1.6507C1110.48 1.66312 1102.45 1.48085 1100.29 1.69074ZM276.853 1.40054C278.954 1.46967 281.046 1.53892 283.136 1.60805C279.918 1.6519 276.698 1.69691 273.48 1.74159C274.607 1.62793 275.726 1.5142 276.853 1.40054ZM636.252 1.79966C635.365 1.79579 638.312 1.65403 634.816 1.67637C637.422 1.58571 639.862 1.50898 642.408 1.4237C643.171 1.49076 643.942 1.55755 644.705 1.62462C645.299 1.58156 645.905 1.53877 646.5 1.49572C646.143 1.59341 645.826 1.68883 645.449 1.78818C641.159 1.57872 640.176 1.81622 636.252 1.79966ZM508.693 2.18173C507.922 1.96941 514.134 1.84314 508.023 1.80919C509.182 1.66969 511.046 1.59652 514.622 1.5841C515.197 1.63745 515.769 1.69041 516.344 1.74376C516.423 1.601 517.343 1.54794 519.353 1.44617C519.355 1.44633 519.356 1.4465 519.358 1.44666C524.795 1.43632 524.47 1.48392 525.778 1.71862C520.022 1.58615 519.85 1.80058 515.926 1.92808C513.232 2.01576 509.714 1.97605 508.693 2.18173ZM1081.29 1.69318C1085.36 1.51395 1081.7 1.34677 1088.92 1.53718C1088.46 1.58272 1087.99 1.62787 1087.53 1.6734C1085.45 1.68044 1083.37 1.68697 1081.29 1.69318ZM488.605 1.45399C489.07 1.78266 492.903 2.0385 493.557 1.50379C489.822 1.39492 491.646 1.6978 488.605 1.45399ZM695.985 2.06502C688.803 2.04969 690.161 1.67873 693.113 1.49327C693.569 1.56075 694.024 1.62835 694.47 1.69541C695.728 1.66478 696.986 1.63408 698.245 1.60386C697.492 1.75744 696.738 1.91144 695.985 2.06502ZM361.986 1.81506C367.474 1.58034 356.061 1.68452 359.895 1.53798C362.957 1.42084 366.991 1.65734 365.465 1.80554C364.405 1.80968 363.225 1.81258 361.996 1.81506C361.993 1.81506 361.989 1.81506 361.986 1.81506ZM393.747 1.74792C392.846 1.49714 394.146 1.57024 389.809 1.61536C388.571 1.6282 378.729 1.53401 382.861 1.74182C386.377 1.74182 390.092 1.74544 393.747 1.74792ZM779.006 1.69809C779.072 1.8073 771.494 2.04711 770.521 1.98714C770.521 1.9873 770.521 1.98746 770.521 1.98763C767.896 1.82411 775.889 1.80088 772.422 1.57651C780.1 1.77394 782.397 1.2964 781.862 1.92562C777.339 1.95322 779.48 1.82351 779.006 1.69809ZM1355.04 1.83182C1355.05 1.83182 1355.05 1.83182 1355.06 1.83182C1354.55 1.82668 1350.35 1.6664 1350.86 1.61088C1355.91 1.65849 1355.01 1.76399 1359.7 1.59062C1359.96 1.64646 1360.18 1.70062 1360.46 1.75687C1358.59 1.78999 1357.56 1.85707 1355.04 1.83182ZM1119.57 1.91094C1117.71 1.9395 1114.33 1.82114 1112.22 1.82818C1118.94 1.37365 1126.97 1.7975 1119.57 1.91094ZM112.259 1.63711C112.264 1.63695 112.269 1.63679 112.275 1.63663C112.273 1.63687 112.271 1.63711 112.269 1.63736C112.266 1.63728 112.262 1.6372 112.259 1.63711ZM976.001 1.63826C976.24 1.66777 976.375 1.6934 976.423 1.71589C976.423 1.71801 976.423 1.72012 976.423 1.72224C976.294 1.69461 976.157 1.66667 976.001 1.63826ZM794.754 1.66513C797.911 1.81744 787.395 2.05958 783.995 2.00178C784.232 1.93227 784.27 1.86924 784.824 1.78939C787.568 1.96942 794.229 1.63947 794.754 1.66513ZM555.011 1.72106C563.323 1.7252 552.505 2.32657 552.06 1.84678C552.076 1.83749 554.796 1.72187 555.011 1.72106ZM729.204 1.72812C727.086 1.91019 731.342 1.95854 724.537 1.92709C724.141 1.87993 723.745 1.83265 723.349 1.78549C725.3 1.76645 727.253 1.74716 729.204 1.72812ZM609.464 2.51056C619.925 2.40914 629.932 2.23022 623.117 1.72813C622.325 1.74426 621.522 1.75985 620.73 1.77598C620.611 2.02094 617.69 1.88722 613.413 1.87925C612.803 1.9765 610.432 1.99898 609.987 2.08163C609.126 2.24138 611.851 2.35369 609.464 2.51056ZM167.784 2.11194C167.952 2.07013 168.117 2.0281 168.285 1.9867C169.94 1.93951 171.598 1.89254 173.253 1.84535C172.986 1.92559 172.718 2.00582 172.451 2.08606C170.896 2.09475 169.349 2.10349 167.794 2.11218C167.791 2.1121 167.787 2.11202 167.784 2.11194ZM881.74 2.25738C882.69 1.79717 879.369 1.88193 872.633 2.11456C875.664 2.16217 878.708 2.20977 881.74 2.25738ZM441.353 2.32406C441.135 2.19332 440.921 2.06298 440.693 1.93224C437.117 2.06843 437.781 2.21816 439.495 2.3912C440.118 2.36887 440.729 2.3464 441.353 2.32406ZM389.835 2.37973C391.319 2.40701 390.562 2.30144 390.717 2.30356C394.472 2.35903 395.001 2.40746 399.608 2.32797C400.172 2.30024 400.727 2.27108 401.292 2.24253C399.162 1.96857 397.616 2.11788 393.109 1.9569C393.921 2.05087 394.73 2.14497 395.543 2.23936C393.037 2.21949 390.541 2.1999 388.035 2.18003C387.738 2.20901 387.44 2.23772 387.143 2.2667C388.034 2.30394 388.954 2.3458 389.835 2.37973ZM148.651 1.99305C146.213 1.98229 143.765 1.9711 141.328 1.96034C141.239 2.02781 141.153 2.09574 141.064 2.16321C143.589 2.10651 146.125 2.04975 148.651 1.99305ZM931.779 2.04767C931.973 2.02373 932.161 1.99965 932.328 1.97516C932.312 2.00501 932.101 2.02831 931.779 2.04767ZM1361.48 2.20192C1364.24 2.2491 1368.22 2.21812 1371.25 2.22804C1371.01 2.05877 1363.31 2.10556 1360.6 2.00295C1360.17 2.03333 1360.31 2.18206 1361.48 2.20192ZM686.049 2.05013C685.355 2.13457 684.663 2.21861 683.979 2.30305C682.305 2.29394 680.627 2.28432 678.943 2.27522C678.893 2.34435 678.844 2.41408 678.795 2.48321C686.214 2.3934 684.504 2.59275 688.176 2.78935C687.463 2.54309 686.762 2.29681 686.049 2.05013ZM71.1047 2.43151C76.4645 2.38473 78.3657 2.29736 75.3442 2.08998C73.4525 2.13757 71.5498 2.1852 69.6582 2.23279C70.1434 2.29901 70.6292 2.36529 71.1047 2.43151ZM1029.39 2.2039C1033.88 2.12641 1033.95 2.40474 1038.34 2.24931C1035.99 2.19799 1033.64 2.1461 1031.3 2.09478C1030.67 2.13106 1030.02 2.16761 1029.39 2.2039ZM809.416 2.96829C811.308 3.06511 814.845 2.60485 820.165 2.94461C821.433 2.8432 822.227 2.74635 823.317 2.64701C823.951 2.75506 824.671 2.86448 825.275 2.9717C825.279 2.9717 825.283 2.9717 825.286 2.9717C830.111 2.93527 826.983 2.79977 827.092 2.6851C827.143 2.63756 830.724 2.71702 829.605 2.61357C827.673 2.43597 820.454 2.5381 820.434 2.32159C822.97 2.39235 827.923 2.33322 826.458 2.18878C824.853 2.03025 820.186 2.29593 817.214 2.16437C821.473 2.51041 812.676 2.40352 811.675 2.13776C806.514 2.34184 811.258 2.4251 816.548 2.41558C813.319 2.61925 818.073 2.50921 818.855 2.67851C815.525 2.7807 804.096 2.69551 809.416 2.96829ZM565.892 2.59308C569.459 2.57995 575.033 2.69636 577.475 2.52448C578.898 2.42434 573.311 2.3468 577.164 2.18954C573.688 2.20487 572.895 2.2663 573.489 2.40413C572.697 2.42068 571.895 2.43682 571.103 2.45295C570.736 2.42606 570.36 2.39953 569.994 2.37263C569.578 2.42934 569.16 2.4856 568.753 2.5423C567.912 2.53114 567.061 2.51995 566.219 2.50837C566.12 2.53688 565.952 2.5617 565.892 2.59308ZM1158.18 2.19535C1157.19 2.197 1156.2 2.19865 1155.21 2.20072C1155.32 2.23428 1155.45 2.26924 1155.58 2.30374C1155.67 2.331 1155.76 2.35826 1155.85 2.38552C1155.27 2.28812 1150.56 2.12624 1148.57 2.23026C1147.57 2.28244 1149.84 2.46768 1145.61 2.50002C1148.68 2.49049 1151.52 2.46521 1154.5 2.44948C1154.23 2.50454 1153.98 2.56019 1153.71 2.61525C1153.71 2.61533 1153.71 2.61541 1153.72 2.61549C1154.71 2.62791 1155.71 2.64092 1156.7 2.65333C1157.19 2.50058 1157.68 2.3481 1158.18 2.19535ZM444.257 2.5826C447.635 2.47455 448.766 2.41844 447.171 2.24374C447.168 2.24366 447.164 2.24358 447.161 2.2435C445.903 2.3209 444.644 2.39827 443.386 2.47567C443.673 2.51127 443.96 2.54699 444.257 2.5826ZM960.88 2.6243C968.063 1.96072 951.887 2.3675 954.967 2.59354C955.106 2.60389 960.207 2.55102 960.88 2.6243ZM697.305 2.26911C695.333 2.27449 693.357 2.27936 691.376 2.28474C691.832 2.36629 692.298 2.44756 692.754 2.52911C694.27 2.44259 695.789 2.35563 697.305 2.26911ZM94.4403 2.73277C96.5155 2.91491 101.842 2.98091 104.445 2.78281C103.078 2.75963 101.71 2.73642 100.343 2.71323C102.927 2.69047 105.483 2.66542 108.088 2.6439C108.226 2.39014 105.225 2.53736 100.707 2.4674C100.008 2.45611 95.5356 2.14112 93.9915 2.37853C93.6808 2.42733 98.4382 2.46051 95.1318 2.6024C96.5776 2.61357 97.8254 2.61109 99.1919 2.61729C99.2906 2.67773 99.3893 2.73824 99.498 2.79868C97.8083 2.7768 96.1299 2.75465 94.4403 2.73277ZM586.662 2.57331C591.562 2.58731 592.167 2.48591 593.187 2.30672C590.908 2.327 588.629 2.34698 586.35 2.36726C586.459 2.4358 586.553 2.50436 586.662 2.57331ZM138.239 2.79086C140.922 2.82017 139.773 2.67431 140.853 2.64658C144.934 2.54228 147.718 2.64653 151.75 2.58116C151.482 2.60931 151.236 2.63562 150.979 2.66294C150.982 2.66294 150.986 2.66294 150.989 2.66294C170.08 2.78587 160.052 2.45508 148.629 2.50889C148.362 2.45466 148.105 2.40037 147.837 2.34655C142.726 2.44134 138.011 2.53256 138.239 2.79086ZM897.066 2.64701C897.284 2.68095 895.432 2.89667 898.909 2.79568C901.663 2.48072 897.147 2.63705 896.016 2.51591C896.957 2.48569 897.92 2.45629 898.851 2.42607C893.224 2.33707 892.402 2.41196 894.453 2.64212C894.6 2.65759 896.848 2.61317 897.066 2.64701ZM934.05 2.80227C934.822 2.33821 927.721 2.54688 927.978 2.69095C928.959 2.69669 929.721 2.61812 930.76 2.65286C931.81 2.68763 932.079 2.79603 934.05 2.80227ZM730.582 2.68877C730.79 2.69084 732.88 2.88587 732.672 2.7332C730.087 2.3718 724.876 2.60442 725.788 2.73027C727.511 2.72404 728.66 2.66982 730.582 2.68925C730.582 2.68909 730.582 2.68893 730.582 2.68877ZM62.119 2.84214C62.218 2.85509 67.433 2.93348 68.106 2.86069C68.6604 2.77874 68.9358 2.69091 69.3519 2.60606C66.479 2.68472 60.663 2.6248 62.1295 2.84214C62.1261 2.84214 62.1223 2.84214 62.119 2.84214Z" fill="white"/>
</svg>
