<svg width="440" height="92" viewBox="0 0 440 92" fill="none" xmlns="http://www.w3.org/2000/svg">
<g clip-path="url(#clip0_660_1291)">
<path d="M142.879 0.182625L148.222 26.6872H150.142L155.484 0.182625H171.09V41.8327H162.664V7.33466H160.267L152.908 41.8327H144.957L137.599 7.33466H135.7V41.8327H127.274V0.182625H142.879ZM192.344 8.93629C202.313 8.93629 208.087 14.8847 208.087 25.7495C208.087 36.6142 202.313 42.5626 192.344 42.5626C182.376 42.5626 176.601 36.6142 176.601 25.7495C176.601 14.8847 182.376 8.93629 192.344 8.93629ZM192.366 35.74C196.8 35.74 198.896 33.347 198.896 28.0823V23.4158C198.896 18.1511 196.8 15.7581 192.366 15.7581C187.933 15.7581 185.836 18.1511 185.836 23.4158V28.0823C185.836 33.347 187.933 35.74 192.366 35.74ZM211.536 35.5995L227.993 15.7492H211.957V9.43862H238.078V15.7951L221.885 35.5225H238.5V41.8331H211.536V35.5995ZM243.134 9.4382H255.352V41.8327H246.926V15.7488H243.134V9.4382ZM246.926 0.182625H255.352V6.49324H246.926V0.182625ZM261.25 0.182625H273.047V42.2534H264.621V6.49324H261.25V0.182625ZM278.946 0.182625H290.742V42.2534H282.316V6.49324H278.946V0.182625ZM309.426 8.84079C314.223 8.84079 317.38 11.2052 318.291 15.3285H320.234V9.43862H330.346V15.7492H326.975V35.5225H330.346V41.8331H325.583C322.629 41.8331 320.234 39.4418 320.234 36.4918V35.9432H318.291C317.38 40.0661 314.223 42.4309 309.426 42.4309C301.836 42.4309 296.493 36.0038 296.493 25.6359C296.493 15.2679 301.836 8.84079 309.426 8.84079ZM312.229 35.7863C316.562 35.7863 318.549 33.3824 318.549 28.0932V23.4053C318.549 18.1166 316.563 15.7122 312.229 15.7122C307.895 15.7122 305.909 18.1161 305.909 23.4053V28.0932C305.909 33.3819 307.895 35.7863 312.229 35.7863Z" fill="white"/>
<path d="M34.5508 0.182625L46.3647 58.2403H50.6124L62.4264 0.182625H96.9393V91.4762H77.9803V16.1695H74.2715L57.7157 91.4762H39.8247L23.2693 16.1695H18.9968V91.4762H0.0378418V0.182625H34.5508Z" fill="white"/>
<path d="M18.9968 16.1695H23.2382L39.6726 91.4762H18.9968V16.1695Z" fill="#50C9F0"/>
<path d="M34.4963 0.182625L46.3103 58.2403H50.5584L62.3719 0.182625H34.4963Z" fill="#F06C13"/>
<path d="M73.7389 16.1695H77.9802V91.4762H57.304L73.7389 16.1695Z" fill="#EED800"/>
<path d="M126.852 49.4054H157.187V56.1367H135.7V66.6544H152.131V73.3857H135.7V91.4762H126.852V49.4054Z" fill="white"/>
<path d="M160.493 87.6052C157.656 84.6716 156.238 80.534 156.238 75.1927C156.238 69.8513 157.656 65.7145 160.493 62.7805C163.329 59.8469 167.301 58.3799 172.406 58.3799C177.512 58.3799 181.473 59.8469 184.29 62.7805C187.106 65.7149 188.514 69.8513 188.514 75.1927C188.514 80.534 187.106 84.6716 184.29 87.6052C181.472 90.5397 177.512 92.0058 172.406 92.0058C167.301 92.0058 163.329 90.5397 160.493 87.6052ZM177.778 83.362C178.936 81.9854 179.516 79.8415 179.516 76.9285V73.4572C179.516 70.5451 178.936 68.3999 177.778 67.0234C176.619 65.6468 174.821 64.9585 172.384 64.9585C169.947 64.9585 168.138 65.6468 166.96 67.0234C165.781 68.3999 165.192 70.5451 165.192 73.4572V76.9285C165.192 79.8415 165.781 81.9858 166.96 83.362C168.138 84.7385 169.946 85.4268 172.384 85.4268C174.821 85.4268 176.619 84.7385 177.778 83.362Z" fill="white"/>
<path d="M195.594 88.9069C193.863 86.8947 192.998 83.9565 192.998 80.0923V59.0817H201.003V78.6261C201.003 81.054 201.476 82.8349 202.423 83.9674C203.37 85.1008 204.852 85.667 206.871 85.667C208.929 85.667 210.431 85.1008 211.379 83.9674C212.327 82.8349 212.8 81.054 212.8 78.6261V59.0817H221.226V91.4762H213.642V85.5863H212.495C210.926 89.8123 207.826 91.9255 203.2 91.9255C199.859 91.9255 197.324 90.92 195.594 88.9069Z" fill="white"/>
<path d="M227.124 59.0817H234.708V64.9716H235.855C236.619 62.8794 237.776 61.2992 239.326 60.2319C240.875 59.1658 242.816 58.6319 245.15 58.6319C248.491 58.6319 251.026 59.6383 252.756 61.6505C254.486 63.6636 255.352 66.601 255.352 70.4652V91.4757H246.926V71.9313C246.926 69.5034 246.454 67.7234 245.512 66.59C244.569 65.4575 243.075 64.8904 241.028 64.8904C239.02 64.8904 237.535 65.4575 236.573 66.59C235.61 67.7234 235.129 69.5034 235.129 71.9313V91.4757H227.124V59.0812V59.0817Z" fill="white"/>
<path d="M266.136 90.0167C264.244 88.6709 262.776 86.7424 261.73 84.2303C260.683 81.7195 260.16 78.7561 260.16 75.3399C260.16 71.9238 260.674 68.9616 261.7 66.4495C262.726 63.9387 264.184 62.0102 266.076 60.6635C267.966 59.3177 270.2 58.6446 272.776 58.6446C275.069 58.6446 276.991 59.157 278.54 60.1814C280.088 61.2062 281.205 62.6632 281.89 64.5513H282.982C282.818 61.7468 282.737 59.4098 282.737 57.5394V47.723H291.163V91.4766H283.58V85.5867H282.433C281.627 87.6359 280.401 89.2241 278.751 90.3482C277.101 91.4728 275.109 92.0357 272.776 92.0357C270.24 92.0357 268.027 91.3634 266.136 90.0167ZM281.045 83.4322C282.172 82.0439 282.737 79.9012 282.737 77.0038V73.3819C282.737 70.4845 282.172 68.3419 281.045 66.9531C279.916 65.5648 278.163 64.8706 275.786 64.8706C273.408 64.8706 271.655 65.5648 270.526 66.9531C269.398 68.3414 268.834 70.4841 268.834 73.3819V77.0038C268.834 79.9012 269.398 82.0439 270.526 83.4322C271.654 84.8206 273.407 85.5147 275.786 85.5147C278.164 85.5147 279.916 84.8206 281.045 83.4322Z" fill="white"/>
<path d="M301.612 89.8051C299.863 88.4954 298.502 86.6006 297.529 84.1196C296.555 81.6396 296.068 78.6929 296.068 75.2789C296.068 71.8648 296.555 68.919 297.529 66.4381C298.502 63.9581 299.863 62.0623 301.612 60.7527C303.361 59.443 305.407 58.788 307.753 58.788C309.979 58.788 311.816 59.3934 313.268 60.6038C314.718 61.815 315.702 63.5508 316.219 65.813H318.127V59.0816H329.081V65.3922H325.711V85.1655H329.081V91.4761H323.543C321.758 91.4761 320.409 91.0167 319.496 90.0975C318.583 89.1786 318.127 87.821 318.127 86.0229V84.7444H316.219C315.702 87.0065 314.718 88.7432 313.267 89.9536C311.816 91.1648 309.978 91.7694 307.753 91.7694C305.407 91.7694 303.36 91.1143 301.612 89.8047L301.612 89.8051ZM315.397 83.4284C316.375 82.1684 316.863 80.2361 316.863 77.6327V72.7525C316.863 70.1505 316.375 68.2181 315.397 66.9573C314.42 65.6973 312.872 65.0662 310.754 65.0662C308.637 65.0662 307.089 65.6973 306.111 66.9573C305.134 68.2186 304.646 70.1505 304.646 72.7525V77.6327C304.646 80.2361 305.134 82.1684 306.111 83.4284C307.089 84.6897 308.636 85.3195 310.754 85.3195C312.872 85.3195 314.42 84.6897 315.397 83.4284Z" fill="white"/>
<path d="M332.031 59.0816H355.203V64.9716H332.031V59.0816ZM339.277 90.1673C338.378 89.2956 337.929 88.0255 337.929 86.3599V49.8265H346.355V85.5867H355.203V91.4766H343.197C341.482 91.4766 340.174 91.0403 339.277 90.1673Z" fill="white"/>
<path d="M361.944 64.9716H357.73V59.0817H369.948V91.4762H361.944V64.9716ZM361.101 47.7226H370.37V54.4539H361.101V47.7226Z" fill="white"/>
<path d="M379.43 87.6052C376.593 84.6716 375.175 80.534 375.175 75.1927C375.175 69.8513 376.593 65.7145 379.43 62.7805C382.266 59.8469 386.238 58.3799 391.344 58.3799C396.45 58.3799 400.41 59.8469 403.227 62.7805C406.043 65.7149 407.451 69.8513 407.451 75.1927C407.451 80.534 406.043 84.6716 403.227 87.6052C400.41 90.5397 396.449 92.0058 391.344 92.0058C386.238 92.0058 382.266 90.5397 379.43 87.6052ZM396.859 83.362C398.018 81.9854 398.598 79.8415 398.598 76.9285V73.4572C398.598 70.5451 398.018 68.3999 396.859 67.0234C395.7 65.6468 393.902 64.9585 391.465 64.9585C389.028 64.9585 387.219 65.6468 386.041 67.0234C384.862 68.3999 384.273 70.5451 384.273 73.4572V76.9285C384.273 79.8415 384.862 81.9858 386.041 83.362C387.219 84.7385 389.028 85.4268 391.465 85.4268C393.903 85.4268 395.7 84.7385 396.859 83.362Z" fill="white"/>
<path d="M412.08 59.0817H419.663V64.9716H420.81C421.574 62.8794 422.731 61.2992 424.281 60.2319C425.83 59.1658 427.772 58.6319 430.106 58.6319C433.446 58.6319 435.981 59.6383 437.711 61.6505C439.441 63.6636 440.307 66.601 440.307 70.4652V91.4757H432.303V71.9313C432.303 69.5034 431.831 67.7234 430.889 66.59C429.946 65.4575 428.452 64.8904 426.404 64.8904C424.397 64.8904 422.911 65.4575 421.95 66.59C420.987 67.7234 420.506 69.5034 420.506 71.9313V91.4757H412.08V59.0812V59.0817Z" fill="white"/>
</g>
<defs>
<clipPath id="clip0_660_1291">
<rect width="440" height="92" fill="white"/>
</clipPath>
</defs>
</svg>
