<svg width="38" height="39" viewBox="0 0 38 39" fill="none" xmlns="http://www.w3.org/2000/svg">
<path d="M38 19.5459C37.8642 21.6407 37.9008 23.955 37.5273 26.208C36.4802 32.5257 32.6571 36.4984 26.3193 38.0651C21.4072 39.2796 16.4404 39.3536 11.5388 38.0345C5.16702 36.3198 1.39357 32.1991 0.45608 25.8074C-0.152373 21.6739 -0.136705 17.4766 0.411687 13.343C1.31 6.57629 5.42033 2.2565 12.2752 0.758733C17.451 -0.37416 22.6529 -0.2772 27.7399 1.31242C33.5606 3.12913 36.7726 7.15039 37.5952 12.9858C37.8903 15.0806 37.8642 17.2214 37.9974 19.5484L38 19.5459Z" fill="#F7EC36"/>
</svg>
