<svg width="26" height="15" xmlns="http://www.w3.org/2000/svg">
    <path d="M33.23 53.342c-1.067.956-1.455 3.123.468 4.39l7.67 5.212-3.72-8.44c-.78-1.99-2.91-2.426-4.418-1.162m6.602-4.104c-1.247.025-3.12 1.496-2.286 3.742l3.847 8.985 1.35-9.45c.314-2.35-1.48-3.433-2.91-3.277m3.512 2.916h.727s.388 0 .44.18c-.285.233-1.064.26-.96 1.498l1.222 8.132 3.82-9.01c.78-2.01-.86-3.69-2.313-3.742a2.907 2.907 0 0 0-.204-.01c-1.306 0-2.803.94-2.73 2.95m5.096 2.428l-3.612 8.34 7.668-5.24c1.767-1.243 1.482-3.228.493-4.21-.415-.46-1.177-.818-1.983-.818-.953 0-1.973.5-2.565 1.93m3.197 4.284l-7.2 4.982h8.865c1.82 0 2.988-1.858 2.468-3.563-.347-1.07-1.377-1.912-2.572-1.914-.502 0-1.035.15-1.56.498M33.025 63.85h8.736l-7.204-4.983c-1.664-1.06-3.535-.44-4.21 1.318-.573 2.012.856 3.664 2.677 3.664" fill="#FFF" fill-rule="evenodd"/>
</svg>
