<svg width="26px" height="15px" viewBox="30 49 26 15" version="1.1" xmlns="http://www.w3.org/2000/svg" xmlns:xlink="http://www.w3.org/1999/xlink">
    <!-- Generator: Sketch 42 (36781) - http://www.bohemiancoding.com/sketch -->
    <desc>Created with Sketch.</desc>
    <defs></defs>
    <g id="CNBC-logo---NOT-VERIFIED" stroke="none" stroke-width="1" fill="none" fill-rule="evenodd" transform="translate(30.000000, 49.000000)">
        <path d="M3.22968571,4.34150943 C2.16311429,5.29783019 1.77511429,7.46490566 3.69768571,8.73169811 L11.3676857,13.9440566 L7.64854286,5.50443396 C6.8694,3.51283019 4.7374,3.07839623 3.22968571,4.34150943" id="Fill-1" fill="#FFFFFF"></path>
        <path d="M9.83208571,0.238075472 C8.58522857,0.263264151 6.71322857,1.73383019 7.54637143,3.97958491 L11.3926571,12.965434 L12.7443714,3.51401887 C13.0572286,1.16581132 11.2629429,0.0815660377 9.83208571,0.238075472" id="Fill-3" fill="#FFFFFF"></path>
        <path d="M13.3446,3.15356604 L14.0720286,3.15356604 C14.0720286,3.15356604 14.4603143,3.15356604 14.5131714,3.33526415 C14.2271714,3.56677358 13.4480286,3.59564151 13.5514571,4.83243396 L14.7740286,12.9641321 L18.5940286,3.95479245 C19.3754571,1.94337736 17.7354571,0.263377358 16.2806,0.211867925 C16.2126,0.207056604 16.1443143,0.20309434 16.0737429,0.20309434 C14.7677429,0.20309434 13.2714571,1.143 13.3446,3.15356604" id="Fill-5" fill="#FFFFFF"></path>
        <path d="M18.4402571,5.58090566 L14.8271143,13.9192075 L22.4948286,8.67911321 C24.2622571,7.43722642 23.9774,5.45213208 22.9879714,4.47062264 C22.5731143,4.00873585 21.8114,3.65184906 21.0048286,3.65184906 C20.0516857,3.65184906 19.0316857,4.15250943 18.4402571,5.58090566" id="Fill-7" fill="#FFFFFF"></path>
        <path d="M21.6362571,9.86589623 L14.4354,14.8481604 L23.3016857,14.8481604 C25.1208286,14.8481604 26.2896857,12.9904245 25.7702571,11.2852358 C25.4219714,10.2137264 24.3922571,9.37259434 23.1971143,9.37117925 C22.6939714,9.37146226 22.1605429,9.52174528 21.6362571,9.86589623" id="Fill-9" fill="#FFFFFF"></path>
        <path d="M3.02317143,14.8480755 L11.7586,14.8480755 L4.55602857,9.86581132 C2.89202857,8.80675472 1.02088571,9.42628302 0.345457143,11.1838302 C-0.227114286,13.1955283 1.20231429,14.8480755 3.02317143,14.8480755" id="Fill-11" fill="#FFFFFF"></path>
    </g>
</svg>
