<svg width="26" height="15" viewBox="30 49 26 15" xmlns="http://www.w3.org/2000/svg"><g fill="#FFF" fill-rule="evenodd"><path d="M33.23 53.342c-1.067.956-1.455 3.123.468 4.39l7.67 5.212-3.72-8.44c-.779-1.991-2.91-2.426-4.418-1.162M39.832 49.238c-1.247.025-3.119 1.496-2.286 3.742l3.847 8.985 1.351-9.451c.313-2.348-1.481-3.432-2.912-3.276M43.345 52.154h.727s.388 0 .441.181c-.286.232-1.065.26-.962 1.497l1.223 8.132 3.82-9.01c.781-2.01-.859-3.69-2.313-3.742a2.907 2.907 0 0 0-.207-.009c-1.306 0-2.803.94-2.73 2.95M48.44 54.58l-3.613 8.34 7.668-5.24c1.767-1.243 1.482-3.228.493-4.21-.415-.461-1.177-.818-1.983-.818-.953 0-1.973.5-2.565 1.929M51.636 58.866l-7.2 4.982h8.866c1.819 0 2.988-1.858 2.468-3.563-.348-1.071-1.378-1.912-2.573-1.914-.503 0-1.036.15-1.56.495M33.023 63.848h8.736l-7.203-4.982c-1.664-1.06-3.535-.44-4.21 1.318-.573 2.012.856 3.664 2.677 3.664"/></g></svg>