<svg width="20px" height="18px" viewBox="0 0 20 18" version="1.1" xmlns="http://www.w3.org/2000/svg" xmlns:xlink="http://www.w3.org/1999/xlink">
    <!-- Generator: Sketch 42 (36781) - http://www.bohemiancoding.com/sketch -->
    <desc>Created with Sketch.</desc>
    <defs>
        <polygon id="path-1" points="6.50105828 0.0467497619 0.0429545733 0.0467497619 0.0429545733 16.5728096 6.50105828 16.5728096 6.50105828 0.0467497619"></polygon>
    </defs>
    <g id="Group-4" stroke="none" stroke-width="1" fill="none" fill-rule="evenodd">
        <g id="Group-3" transform="translate(12.872537, 0.012880)">
            <mask id="mask-2" fill="white">
                <use xlink:href="#path-1"></use>
            </mask>
            <g id="Clip-2"></g>
            <path d="M0.221786595,0.0655689262 C0.123438006,0.0167917512 0.0429545733,0.0661055944 0.0429545733,0.175108866 L0.0429545733,13.581259 L5.96456222,16.516357 C6.25966813,16.6626288 6.50105828,16.5146873 6.50105828,16.1876775 L6.50105828,3.2828947 C6.50105828,3.21855414 6.46442569,3.15975916 6.40637897,3.1310176 L0.221786595,0.0655689262 Z" id="Fill-1" fill="#D0D2D3" mask="url(#mask-2)"></path>
        </g>
        <path d="M6.45810371,10.3973975 L12.8114226,0.162896683 C12.8690482,0.0700530871 12.9966908,0.0339770591 13.0950394,0.0827542341 L19.2321117,3.12464914 C19.3085048,3.16251406 19.3357537,3.25720618 19.2910005,3.32935823 L12.9162074,13.5983847 L6.45810371,10.3973975 Z" id="Fill-4" fill="#A6A8AB"></path>
        <path d="M0.715316055,0.348643505 C0.321921699,0.153654064 0.188624774,0.297958176 0.4191274,0.669272931 L6.45809168,10.3973975 L12.9161954,13.5983847 L6.49983719,3.26239397 C6.47258832,3.21838718 6.43342934,3.18290745 6.38687166,3.15977109 L0.715316055,0.348643505 Z" id="Fill-6" fill="#808184"></path>
        <path d="M6.45810371,16.204827 C6.45810371,16.5318368 6.21665341,16.6797784 5.92160764,16.5335065 L0.357664043,13.7756879 C0.160966865,13.6781932 0,13.4200558 0,13.2019896 L0,0.390527475 C0,0.172461303 0.160966865,0.0738932461 0.357664043,0.171387966 L6.3784624,3.15562085 C6.42724571,3.17983055 6.45810371,3.22926365 6.45810371,3.28334788 L6.45810371,16.204827 Z" id="Fill-8" fill="#58595B"></path>
    </g>
</svg>
