<svg width="20" height="18" viewBox="0 0 20 18" xmlns="http://www.w3.org/2000/svg" xmlns:xlink="http://www.w3.org/1999/xlink"><defs><path id="a" d="M6.501.047H.043v16.526h6.458V.047z"/></defs><g fill="none" fill-rule="evenodd"><g transform="translate(12.873 .013)"><mask id="b" fill="#fff"><use xlink:href="#a"/></mask><path d="M.222.066c-.099-.05-.179 0-.179.11V13.58l5.922 2.935c.295.147.536-.001.536-.328V3.283a.17.17 0 0 0-.095-.152L.222.066z" fill="#D0D2D3" mask="url(#b)"/></g><path d="M6.458 10.397L12.811.163a.224.224 0 0 1 .284-.08l6.137 3.042a.144.144 0 0 1 .059.204L12.916 13.6l-6.458-3.202z" fill="#A6A8AB"/><path d="M.715.349C.322.154.19.298.42.669l6.04 9.728 6.457 3.201L6.5 3.262a.278.278 0 0 0-.113-.102L.715.349z" fill="#808184"/><path d="M6.458 16.205c0 .327-.241.475-.536.329L.358 13.776A.704.704 0 0 1 0 13.202V.391C0 .172.161.074.358.17l6.02 2.985c.05.024.08.073.08.127v12.922z" fill="#58595B"/></g></svg>