<svg width="20" height="18" xmlns="http://www.w3.org/2000/svg" xmlns:xlink="http://www.w3.org/1999/xlink">
    <defs>
        <path id="a" d="M6.5.047H.044v16.526H6.5V.047z"/>
    </defs>
    <g fill="none" fill-rule="evenodd">
        <g transform="translate(12.873 .013)">
            <mask id="b" fill="#fff">
                <use xlink:href="#a"/>
            </mask>
            <path d="M.222.066c-.1-.05-.18 0-.18.11V13.58l5.923 2.935c.295.147.536 0 .536-.328V3.283a.17.17 0 0 0-.093-.152L.222.068z" fill="#D0D2D3" mask="url(#b)"/>
        </g>
        <path d="M6.458 10.397L12.81.163a.224.224 0 0 1 .285-.08l6.137 3.042a.144.144 0 0 1 .06.204L12.915 13.6l-6.458-3.202z" fill="#A6A8AB"/>
        <path d="M.715.35C.322.153.19.297.42.67l6.04 9.727 6.457 3.2L6.5 3.263a.278.278 0 0 0-.113-.102L.715.35z" fill="#808184"/>
        <path d="M6.458 16.205c0 .327-.24.475-.536.33l-5.564-2.76A.704.704 0 0 1 0 13.203V.393C0 .17.16.072.358.17l6.02 2.985a.14.14 0 0 1 .08.127v12.922z" fill="#58595B"/>
    </g>
</svg>
