<svg width="325" height="6239" xmlns="http://www.w3.org/2000/svg"><g fill="none" fill-rule="evenodd"><g opacity=".15"><path fill="#FFF" d="M197.407.612L86.93.772v73.795h110.636V.612z"/><path fill="#FF4F5E" d="M150.986 46.303l-8.898 8.898-8.899-8.898 8.9-8.898z"/><path fill="#BF3B47" d="M159.885 37.402l-8.9 8.9-8.897-8.9 8.775-8.774.121-.121z"/><path fill="#FF727E" d="M142.089 37.402l-8.9 8.9-8.83-8.834-.066-.066 8.895-8.895.128.127z"/><g stroke="#0D10BF" stroke-linecap="round" stroke-linejoin="round" stroke-width="1.219"><path d="M197.407.61l.16 73.955H86.61V.77l37.627 36.82.123-.122-.067-.066 8.895-8.895.128.127 8.773 8.768 8.773-8.774.122-.121 8.901 8.895-.066.066.121.122z"/><path d="M197.407 74.565H86.77l.16-.16 37.307-36.815.123-.122 8.956-8.834 8.773 8.767 8.773-8.773 8.957 8.84.121.122z"/><path d="M197.407.61L159.94 37.59l-.121-.122.066-.066-8.9-8.895-.123.121-8.773 8.774-8.773-8.768-.128-.127-8.895 8.895.067.066-.123.122L86.931.77 86.77.61z"/></g><path stroke="#0D10BF" stroke-width="1.219" stroke-linecap="round" stroke-linejoin="round" d="M159.94 37.59l-17.851 17.613-17.852-17.613.123-.122-.067-.066 8.895-8.895.128.127 8.773 8.768 8.773-8.774.122-.121 8.901 8.895-.066.066z"/></g><g opacity=".25"><path fill="#FFF" d="M197.407 2877.612l-110.476.16v73.795h110.636v-73.955z"/><path fill="#FF4F5E" d="M150.986 2923.303l-8.898 8.898-8.899-8.898 8.9-8.898z"/><path fill="#BF3B47" d="M159.885 2914.402l-8.9 8.9-8.897-8.9 8.775-8.774.121-.121z"/><path fill="#FF727E" d="M142.089 2914.402l-8.9 8.9-8.83-8.834-.066-.066 8.895-8.895.128.127z"/><g stroke="#0D10BF" stroke-linecap="round" stroke-linejoin="round" stroke-width="1.219"><path d="M197.407 2877.61l.16 73.955H86.61v-73.795l37.627 36.82.123-.122-.067-.066 8.895-8.895.128.127 8.773 8.768 8.773-8.774.122-.121 8.901 8.895-.066.066.121.122z"/><path d="M197.407 2951.565H86.77l.16-.16 37.307-36.815.123-.122 8.956-8.834 8.773 8.767 8.773-8.773 8.957 8.84.121.122z"/><path d="M197.407 2877.61l-37.467 36.98-.121-.122.066-.066-8.9-8.895-.123.121-8.773 8.774-8.773-8.768-.128-.127-8.895 8.895.067.066-.123.122-37.306-36.82-.161-.16z"/></g><path stroke="#0D10BF" stroke-width="1.219" stroke-linecap="round" stroke-linejoin="round" d="M159.94 2914.59l-17.851 17.613-17.852-17.613.123-.122-.067-.066 8.895-8.895.128.127 8.773 8.768 8.773-8.774.122-.121 8.901 8.895-.066.066z"/></g><path fill="#FFB9BE" d="M111.407 2049.612l-110.476.16v73.795h110.636v-73.955z"/><path fill="#FF4F5E" d="M64.986 2095.303l-8.898 8.898-8.9-8.898 8.9-8.898z"/><path fill="#BF3B47" d="M73.885 2086.402l-8.9 8.9-8.896-8.9 8.774-8.774.121-.121z"/><path fill="#FF727E" d="M56.089 2086.402l-8.9 8.9-8.83-8.834-.066-.066 8.896-8.895.126.127z"/><g stroke="#FFF" stroke-linecap="round" stroke-linejoin="round" stroke-width="1.219"><path d="M111.407 2049.61l.16 73.955H.61v-73.795l37.627 36.82.122-.122-.066-.066 8.895-8.895.127.127 8.774 8.768 8.773-8.774.123-.121 8.9 8.895-.066.066.121.122z"/><path d="M111.407 2123.565H.77l.16-.16 37.307-36.815.122-.122 8.956-8.834 8.774 8.768 8.773-8.773 8.957 8.84.121.12z"/><path d="M111.407 2049.61l-37.467 36.98-.121-.122.066-.066-8.9-8.895-.123.121-8.773 8.774-8.774-8.768-.127-.127-8.895 8.895.066.066-.122.122-37.306-36.82-.16-.16z"/></g><path stroke="#FFF" stroke-width="1.219" stroke-linecap="round" stroke-linejoin="round" d="M73.94 2086.59l-17.851 17.613-17.852-17.613.122-.122-.066-.066 8.895-8.895.127.127 8.774 8.768 8.773-8.774.123-.121 8.9 8.895-.066.066z"/><g opacity=".02"><path fill="#FFB9BE" d="M111.407 6163.612l-110.476.16v73.795h110.636v-73.955z"/><path fill="#FF4F5E" d="M64.986 6209.303l-8.898 8.898-8.9-8.898 8.9-8.898z"/><path fill="#BF3B47" d="M73.885 6200.402l-8.9 8.9-8.896-8.9 8.774-8.774.121-.121z"/><path fill="#FF727E" d="M56.089 6200.402l-8.9 8.9-8.83-8.834-.066-.066 8.896-8.895.126.127z"/><g stroke="#FFF" stroke-linecap="round" stroke-linejoin="round" stroke-width="1.219"><path d="M111.407 6163.61l.16 73.955H.61v-73.795l37.627 36.82.122-.122-.066-.066 8.895-8.895.127.127 8.774 8.768 8.773-8.774.123-.121 8.9 8.895-.066.066.121.122z"/><path d="M111.407 6237.565H.77l.16-.16 37.307-36.815.122-.122 8.956-8.834 8.774 8.768 8.773-8.773 8.957 8.839.121.122z"/><path d="M111.407 6163.61l-37.467 36.98-.121-.122.066-.066-8.9-8.895-.123.121-8.773 8.774-8.774-8.768-.127-.127-8.895 8.895.066.066-.122.122-37.306-36.82-.16-.16z"/></g><path stroke="#FFF" stroke-width="1.219" stroke-linecap="round" stroke-linejoin="round" d="M73.94 6200.59l-17.851 17.613-17.852-17.613.122-.122-.066-.066 8.895-8.895.127.127 8.774 8.768 8.773-8.774.123-.121 8.9 8.895-.066.066z"/></g><path fill="#E7E8FE" d="M323.407 300.612l-110.476.16v73.795h110.636v-73.955z"/><path fill="#FF4F5E" d="M276.986 346.303l-8.898 8.898-8.9-8.898 8.9-8.898z"/><path fill="#BF3B47" d="M285.884 337.402l-8.9 8.9-8.896-8.9 8.775-8.774.121-.121z"/><path fill="#FF727E" d="M268.089 337.402l-8.9 8.9-8.83-8.834-.066-.066 8.896-8.895.126.127z"/><g stroke="#808BFC" stroke-linecap="round" stroke-linejoin="round" stroke-width="1.219"><path d="M323.407 300.61l.16 73.955H212.61V300.77l37.627 36.82.122-.122-.066-.066 8.895-8.895.127.127 8.774 8.768 8.773-8.774.122-.121 8.9 8.895-.065.066.121.122z"/><path d="M323.407 374.565H212.77l.16-.16 37.307-36.815.122-.122 8.956-8.834 8.774 8.767 8.773-8.773 8.957 8.84.121.122z"/><path d="M323.407 300.61l-37.467 36.98-.121-.122.066-.066-8.9-8.895-.123.121-8.773 8.774-8.774-8.768-.127-.127-8.895 8.895.066.066-.122.122-37.306-36.82-.16-.16z"/></g><path stroke="#808BFC" stroke-width="1.219" stroke-linecap="round" stroke-linejoin="round" d="M285.94 337.59l-17.851 17.614-17.852-17.614.122-.122-.066-.066 8.895-8.895.127.127 8.774 8.768 8.773-8.774.122-.121 8.9 8.895-.065.066z"/><g><path fill="#E7E8FE" d="M323.407 3403.612l-110.476.16v73.795h110.636v-73.955z"/><path fill="#FF4F5E" d="M276.986 3449.303l-8.898 8.898-8.9-8.898 8.9-8.898z"/><path fill="#BF3B47" d="M285.884 3440.402l-8.9 8.9-8.896-8.9 8.775-8.774.121-.121z"/><path fill="#FF727E" d="M268.089 3440.402l-8.9 8.9-8.83-8.834-.066-.066 8.896-8.895.126.127z"/><g stroke="#808BFC" stroke-linecap="round" stroke-linejoin="round" stroke-width="1.219"><path d="M323.407 3403.61l.16 73.955H212.61v-73.795l37.627 36.82.122-.122-.066-.066 8.895-8.895.127.127 8.774 8.768 8.773-8.774.122-.121 8.9 8.895-.065.066.121.122z"/><path d="M323.407 3477.565H212.77l.16-.16 37.307-36.815.122-.122 8.956-8.834 8.774 8.767 8.773-8.773 8.957 8.84.121.122z"/><path d="M323.407 3403.61l-37.467 36.98-.121-.122.066-.066-8.9-8.895-.123.121-8.773 8.774-8.774-8.768-.127-.127-8.895 8.895.066.066-.122.122-37.306-36.82-.16-.16z"/></g><path stroke="#808BFC" stroke-width="1.219" stroke-linecap="round" stroke-linejoin="round" d="M285.94 3440.59l-17.851 17.614-17.852-17.614.122-.122-.066-.066 8.895-8.895.127.127 8.774 8.768 8.773-8.774.122-.121 8.9 8.895-.065.066z"/></g><g><g fill="#112DCB"><path d="M219.108 1689.213h1.903v-1.902h-1.903zM219.108 1697.775h1.903v-1.902h-1.903zM219.108 1706.337h1.903v-1.903h-1.903zM219.108 1714.898h1.903v-1.903h-1.903zM219.108 1723.459h1.903v-1.902h-1.903zM219.108 1732.02h1.903v-1.902h-1.903zM219.108 1740.582h1.903v-1.903h-1.903zM219.108 1749.144h1.903v-1.903h-1.903zM219.108 1757.705h1.903v-1.902h-1.903zM201.987 1689.213h1.902v-1.902h-1.903zM210.547 1689.213h1.903v-1.902h-1.903zM201.987 1697.775h1.902v-1.902h-1.903zM210.547 1697.775h1.903v-1.902h-1.903zM201.987 1706.337h1.902v-1.903h-1.903zM210.547 1706.337h1.903v-1.903h-1.903zM201.987 1714.898h1.902v-1.903h-1.903zM210.547 1714.898h1.903v-1.903h-1.903zM201.987 1723.459h1.902v-1.902h-1.903zM210.547 1723.459h1.903v-1.902h-1.903zM201.987 1732.02h1.902v-1.902h-1.903zM210.547 1732.02h1.903v-1.902h-1.903zM201.987 1740.582h1.902v-1.903h-1.903zM210.547 1740.582h1.903v-1.903h-1.903zM201.987 1749.144h1.902v-1.903h-1.903zM210.547 1749.144h1.903v-1.903h-1.903zM201.987 1757.705h1.902v-1.902h-1.903zM210.547 1757.705h1.903v-1.902h-1.903zM184.864 1689.213h1.903v-1.902h-1.903zM193.424 1689.213h1.903v-1.902h-1.903zM184.864 1697.775h1.903v-1.902h-1.903zM193.424 1697.775h1.903v-1.902h-1.903zM184.864 1706.337h1.903v-1.903h-1.903zM193.424 1706.337h1.903v-1.903h-1.903zM184.864 1714.898h1.903v-1.903h-1.903zM193.424 1714.898h1.903v-1.903h-1.903zM184.864 1723.459h1.903v-1.902h-1.903zM193.424 1723.459h1.903v-1.902h-1.903zM184.864 1732.02h1.903v-1.902h-1.903zM193.424 1732.02h1.903v-1.902h-1.903zM184.864 1740.582h1.903v-1.903h-1.903zM193.424 1740.582h1.903v-1.903h-1.903zM184.864 1749.144h1.903v-1.903h-1.903zM193.424 1749.144h1.903v-1.903h-1.903zM184.864 1757.705h1.903v-1.902h-1.903zM193.424 1757.705h1.903v-1.902h-1.903zM167.74 1689.213h1.903v-1.902h-1.902zM176.303 1689.213h1.902v-1.902h-1.902zM167.74 1697.775h1.903v-1.902h-1.902zM176.303 1697.775h1.902v-1.902h-1.902zM167.74 1706.337h1.903v-1.903h-1.902zM176.303 1706.337h1.902v-1.903h-1.902zM167.74 1714.898h1.903v-1.903h-1.902zM176.303 1714.898h1.902v-1.903h-1.902zM167.74 1723.459h1.903v-1.902h-1.902zM176.303 1723.459h1.902v-1.902h-1.902zM167.74 1732.02h1.903v-1.902h-1.902zM176.303 1732.02h1.902v-1.902h-1.902zM167.74 1740.582h1.903v-1.903h-1.902zM176.303 1740.582h1.902v-1.903h-1.902zM167.74 1749.144h1.903v-1.903h-1.902zM176.303 1749.144h1.902v-1.903h-1.902zM167.74 1757.705h1.903v-1.902h-1.902zM176.303 1757.705h1.902v-1.902h-1.902zM150.618 1689.213h1.902v-1.902h-1.902zM159.18 1689.213h1.902v-1.902h-1.902zM150.618 1697.775h1.902v-1.902h-1.902zM159.18 1697.775h1.902v-1.902h-1.902zM150.618 1706.337h1.902v-1.903h-1.902zM159.18 1706.337h1.902v-1.903h-1.902zM150.618 1714.898h1.902v-1.903h-1.902zM159.18 1714.898h1.902v-1.903h-1.902zM150.618 1723.459h1.902v-1.902h-1.902zM159.18 1723.459h1.902v-1.902h-1.902zM150.618 1732.02h1.902v-1.902h-1.902zM159.18 1732.02h1.902v-1.902h-1.902zM150.618 1740.582h1.902v-1.903h-1.902zM159.18 1740.582h1.902v-1.903h-1.902zM150.618 1749.144h1.902v-1.903h-1.902zM159.18 1749.144h1.902v-1.903h-1.902zM150.618 1757.705h1.902v-1.902h-1.902zM159.18 1757.705h1.902v-1.902h-1.902zM133.496 1689.213h1.902v-1.902h-1.902zM142.056 1689.213h1.903v-1.902h-1.903zM133.496 1697.775h1.902v-1.902h-1.902zM142.056 1697.775h1.903v-1.902h-1.903zM133.496 1706.337h1.902v-1.903h-1.902zM142.056 1706.337h1.903v-1.903h-1.903zM133.496 1714.898h1.902v-1.903h-1.902zM142.056 1714.898h1.903v-1.903h-1.903zM133.496 1723.459h1.902v-1.902h-1.902zM142.056 1723.459h1.903v-1.902h-1.903zM133.496 1732.02h1.902v-1.902h-1.902zM142.056 1732.02h1.903v-1.902h-1.903zM133.496 1740.582h1.902v-1.903h-1.902zM142.056 1740.582h1.903v-1.903h-1.903zM133.496 1749.144h1.902v-1.903h-1.902zM142.056 1749.144h1.903v-1.903h-1.903zM133.496 1757.705h1.902v-1.902h-1.902zM142.056 1757.705h1.903v-1.902h-1.903zM116.373 1689.213h1.902v-1.902h-1.903zM124.934 1689.213h1.903v-1.902h-1.903zM116.373 1697.775h1.902v-1.902h-1.903zM124.934 1697.775h1.903v-1.902h-1.903zM116.373 1706.337h1.902v-1.903h-1.903zM124.934 1706.337h1.903v-1.903h-1.903zM116.373 1714.898h1.902v-1.903h-1.903zM124.934 1714.898h1.903v-1.903h-1.903zM116.373 1723.459h1.902v-1.902h-1.903zM124.934 1723.459h1.903v-1.902h-1.903zM116.373 1732.02h1.902v-1.902h-1.903zM124.934 1732.02h1.903v-1.902h-1.903zM116.373 1740.582h1.902v-1.903h-1.903zM124.934 1740.582h1.903v-1.903h-1.903zM116.373 1749.144h1.902v-1.903h-1.903zM124.934 1749.144h1.903v-1.903h-1.903zM116.373 1757.705h1.902v-1.902h-1.903zM124.934 1757.705h1.903v-1.902h-1.903z"/><path d="M113.923 1758.122H223.34v-72.735l-109.418.159v72.576zm110.637 1.219H112.704v-75.013l111.856-.161v75.174z"/></g><path fill="#FF4F5E" d="M177.368 1730.467l-8.898 8.898-8.899-8.898 8.899-8.898z"/><path fill="#BF3B47" d="M186.268 1721.566l-8.901 8.901-8.896-8.901 8.774-8.774.122-.121z"/><path fill="#FF727E" d="M168.471 1721.566l-8.9 8.901-8.829-8.835-.067-.066 8.896-8.895.127.127z"/><g fill="#0D10BF"><path d="M113.601 1758.12H223.34l-.156-71.892-36.433 35.96a.609.609 0 01-.858-.003l-.121-.122a.599.599 0 01-.164-.296l-8.24-8.234-8.465 8.464a.61.61 0 01-.861 0l-8.47-8.464-8.235 8.234a.613.613 0 01-.164.298l-.122.121a.61.61 0 01-.856.003l-36.593-35.806v71.736zm110.35 1.218H112.991a.61.61 0 01-.61-.61v-73.794a.61.61 0 011.036-.435l37.13 36.333 8.592-8.592a.608.608 0 01.43-.179h.002c.16 0 .316.065.43.18l8.47 8.463 8.464-8.464a.61.61 0 01.861 0l8.595 8.589 36.97-36.49a.61.61 0 011.037.433l.16 73.956a.61.61 0 01-.609.61z"/><path d="M114.636 1758.12h107.669l-45.057-44.469-8.346 8.346a.61.61 0 01-.861 0l-8.346-8.34-45.059 44.462zm109.154 1.218H113.153a.61.61 0 01-.43-1.04l.16-.16 46.387-45.774a.609.609 0 01.858.003l8.343 8.337 8.343-8.343a.61.61 0 01.859-.002l46.544 45.936a.608.608 0 01-.427 1.043z"/><path d="M114.635 1685.383l35.916 35.446 8.59-8.59a.607.607 0 01.862 0l8.468 8.465 8.465-8.464a.61.61 0 01.861 0l8.595 8.589 35.913-35.446h-107.67zm71.688 36.98a.605.605 0 01-.43-.178l-.122-.122a.599.599 0 01-.164-.296l-8.24-8.234-8.465 8.464a.61.61 0 01-.861 0l-8.47-8.464-8.234 8.234a.62.62 0 01-.165.298l-.122.121a.61.61 0 01-.858.002l-37.47-36.984a.61.61 0 01.43-1.04H223.79a.61.61 0 01.427 1.043l-37.467 36.98a.607.607 0 01-.427.177z"/><path d="M151.418 1721.685l17.053 16.826 17.054-16.826-8.158-8.153-8.465 8.465a.61.61 0 01-.861 0l-8.47-8.465-8.153 8.153zm17.053 18.291a.607.607 0 01-.427-.175l-17.852-17.614a.606.606 0 01-.12-.698.615.615 0 01.173-.354l8.895-8.895a.605.605 0 01.43-.179h.002c.16 0 .316.065.43.18l8.469 8.463 8.465-8.464a.61.61 0 01.861 0l8.901 8.895a.608.608 0 01.174.356.605.605 0 01-.122.696l-17.85 17.614a.61.61 0 01-.429.175z"/></g></g><g opacity=".05"><g fill="#112DCB"><path d="M219.108 5608.213h1.903v-1.902h-1.903zM219.108 5616.775h1.903v-1.902h-1.903zM219.108 5625.337h1.903v-1.903h-1.903zM219.108 5633.898h1.903v-1.903h-1.903zM219.108 5642.459h1.903v-1.902h-1.903zM219.108 5651.02h1.903v-1.902h-1.903zM219.108 5659.582h1.903v-1.903h-1.903zM219.108 5668.144h1.903v-1.903h-1.903zM219.108 5676.705h1.903v-1.902h-1.903zM201.987 5608.213h1.902v-1.902h-1.903zM210.547 5608.213h1.903v-1.902h-1.903zM201.987 5616.775h1.902v-1.902h-1.903zM210.547 5616.775h1.903v-1.902h-1.903zM201.987 5625.337h1.902v-1.903h-1.903zM210.547 5625.337h1.903v-1.903h-1.903zM201.987 5633.898h1.902v-1.903h-1.903zM210.547 5633.898h1.903v-1.903h-1.903zM201.987 5642.459h1.902v-1.902h-1.903zM210.547 5642.459h1.903v-1.902h-1.903zM201.987 5651.02h1.902v-1.902h-1.903zM210.547 5651.02h1.903v-1.902h-1.903zM201.987 5659.582h1.902v-1.903h-1.903zM210.547 5659.582h1.903v-1.903h-1.903zM201.987 5668.144h1.902v-1.903h-1.903zM210.547 5668.144h1.903v-1.903h-1.903zM201.987 5676.705h1.902v-1.902h-1.903zM210.547 5676.705h1.903v-1.902h-1.903zM184.864 5608.213h1.903v-1.902h-1.903zM193.424 5608.213h1.903v-1.902h-1.903zM184.864 5616.775h1.903v-1.902h-1.903zM193.424 5616.775h1.903v-1.902h-1.903zM184.864 5625.337h1.903v-1.903h-1.903zM193.424 5625.337h1.903v-1.903h-1.903zM184.864 5633.898h1.903v-1.903h-1.903zM193.424 5633.898h1.903v-1.903h-1.903zM184.864 5642.459h1.903v-1.902h-1.903zM193.424 5642.459h1.903v-1.902h-1.903zM184.864 5651.02h1.903v-1.902h-1.903zM193.424 5651.02h1.903v-1.902h-1.903zM184.864 5659.582h1.903v-1.903h-1.903zM193.424 5659.582h1.903v-1.903h-1.903zM184.864 5668.144h1.903v-1.903h-1.903zM193.424 5668.144h1.903v-1.903h-1.903zM184.864 5676.705h1.903v-1.902h-1.903zM193.424 5676.705h1.903v-1.902h-1.903zM167.74 5608.213h1.903v-1.902h-1.902zM176.303 5608.213h1.902v-1.902h-1.902zM167.74 5616.775h1.903v-1.902h-1.902zM176.303 5616.775h1.902v-1.902h-1.902zM167.74 5625.337h1.903v-1.903h-1.902zM176.303 5625.337h1.902v-1.903h-1.902zM167.74 5633.898h1.903v-1.903h-1.902zM176.303 5633.898h1.902v-1.903h-1.902zM167.74 5642.459h1.903v-1.902h-1.902zM176.303 5642.459h1.902v-1.902h-1.902zM167.74 5651.02h1.903v-1.902h-1.902zM176.303 5651.02h1.902v-1.902h-1.902zM167.74 5659.582h1.903v-1.903h-1.902zM176.303 5659.582h1.902v-1.903h-1.902zM167.74 5668.144h1.903v-1.903h-1.902zM176.303 5668.144h1.902v-1.903h-1.902zM167.74 5676.705h1.903v-1.902h-1.902zM176.303 5676.705h1.902v-1.902h-1.902zM150.618 5608.213h1.902v-1.902h-1.902zM159.18 5608.213h1.902v-1.902h-1.902zM150.618 5616.775h1.902v-1.902h-1.902zM159.18 5616.775h1.902v-1.902h-1.902zM150.618 5625.337h1.902v-1.903h-1.902zM159.18 5625.337h1.902v-1.903h-1.902zM150.618 5633.898h1.902v-1.903h-1.902zM159.18 5633.898h1.902v-1.903h-1.902zM150.618 5642.459h1.902v-1.902h-1.902zM159.18 5642.459h1.902v-1.902h-1.902zM150.618 5651.02h1.902v-1.902h-1.902zM159.18 5651.02h1.902v-1.902h-1.902zM150.618 5659.582h1.902v-1.903h-1.902zM159.18 5659.582h1.902v-1.903h-1.902zM150.618 5668.144h1.902v-1.903h-1.902zM159.18 5668.144h1.902v-1.903h-1.902zM150.618 5676.705h1.902v-1.902h-1.902zM159.18 5676.705h1.902v-1.902h-1.902zM133.496 5608.213h1.902v-1.902h-1.902zM142.056 5608.213h1.903v-1.902h-1.903zM133.496 5616.775h1.902v-1.902h-1.902zM142.056 5616.775h1.903v-1.902h-1.903zM133.496 5625.337h1.902v-1.903h-1.902zM142.056 5625.337h1.903v-1.903h-1.903zM133.496 5633.898h1.902v-1.903h-1.902zM142.056 5633.898h1.903v-1.903h-1.903zM133.496 5642.459h1.902v-1.902h-1.902zM142.056 5642.459h1.903v-1.902h-1.903zM133.496 5651.02h1.902v-1.902h-1.902zM142.056 5651.02h1.903v-1.902h-1.903zM133.496 5659.582h1.902v-1.903h-1.902zM142.056 5659.582h1.903v-1.903h-1.903zM133.496 5668.144h1.902v-1.903h-1.902zM142.056 5668.144h1.903v-1.903h-1.903zM133.496 5676.705h1.902v-1.902h-1.902zM142.056 5676.705h1.903v-1.902h-1.903zM116.373 5608.213h1.902v-1.902h-1.903zM124.934 5608.213h1.903v-1.902h-1.903zM116.373 5616.775h1.902v-1.902h-1.903zM124.934 5616.775h1.903v-1.902h-1.903zM116.373 5625.337h1.902v-1.903h-1.903zM124.934 5625.337h1.903v-1.903h-1.903zM116.373 5633.898h1.902v-1.903h-1.903zM124.934 5633.898h1.903v-1.903h-1.903zM116.373 5642.459h1.902v-1.902h-1.903zM124.934 5642.459h1.903v-1.902h-1.903zM116.373 5651.02h1.902v-1.902h-1.903zM124.934 5651.02h1.903v-1.902h-1.903zM116.373 5659.582h1.902v-1.903h-1.903zM124.934 5659.582h1.903v-1.903h-1.903zM116.373 5668.144h1.902v-1.903h-1.903zM124.934 5668.144h1.903v-1.903h-1.903zM116.373 5676.705h1.902v-1.902h-1.903zM124.934 5676.705h1.903v-1.902h-1.903z"/><path d="M113.923 5677.122H223.34v-72.735l-109.418.159v72.576zm110.637 1.219H112.704v-75.013l111.856-.161v75.174z"/></g><path fill="#FF4F5E" d="M177.368 5649.467l-8.898 8.898-8.899-8.898 8.899-8.898z"/><path fill="#BF3B47" d="M186.268 5640.566l-8.901 8.901-8.896-8.901 8.774-8.774.122-.121z"/><path fill="#FF727E" d="M168.471 5640.566l-8.9 8.901-8.829-8.835-.067-.066 8.896-8.895.127.127z"/><g fill="#0D10BF"><path d="M113.601 5677.12H223.34l-.156-71.892-36.433 35.96a.609.609 0 01-.858-.003l-.121-.122a.599.599 0 01-.164-.296l-8.24-8.234-8.465 8.464a.61.61 0 01-.861 0l-8.47-8.464-8.235 8.234a.613.613 0 01-.164.298l-.122.121a.61.61 0 01-.856.003l-36.593-35.806v71.736zm110.35 1.218H112.991a.61.61 0 01-.61-.61v-73.794a.61.61 0 011.036-.435l37.13 36.333 8.592-8.592a.608.608 0 01.43-.179h.002c.16 0 .316.065.43.18l8.47 8.463 8.464-8.464a.61.61 0 01.861 0l8.595 8.589 36.97-36.49a.61.61 0 011.037.433l.16 73.956a.61.61 0 01-.609.61z"/><path d="M114.636 5677.12h107.669l-45.057-44.469-8.346 8.346a.61.61 0 01-.861 0l-8.346-8.34-45.059 44.462zm109.154 1.218H113.153a.61.61 0 01-.43-1.04l.16-.16 46.387-45.774a.609.609 0 01.858.003l8.343 8.337 8.343-8.343a.61.61 0 01.859-.002l46.544 45.936a.608.608 0 01-.427 1.043z"/><path d="M114.635 5604.383l35.916 35.446 8.59-8.59a.607.607 0 01.862 0l8.468 8.465 8.465-8.464a.61.61 0 01.861 0l8.595 8.589 35.913-35.446h-107.67zm71.688 36.98a.605.605 0 01-.43-.178l-.122-.122a.599.599 0 01-.164-.296l-8.24-8.234-8.465 8.464a.61.61 0 01-.861 0l-8.47-8.464-8.234 8.234a.62.62 0 01-.165.298l-.122.121a.61.61 0 01-.858.002l-37.47-36.984a.61.61 0 01.43-1.04H223.79a.61.61 0 01.427 1.043l-37.467 36.98a.607.607 0 01-.427.177z"/><path d="M151.418 5640.685l17.053 16.826 17.054-16.826-8.158-8.153-8.465 8.465a.61.61 0 01-.861 0l-8.47-8.465-8.153 8.153zm17.053 18.291a.607.607 0 01-.427-.175l-17.852-17.614a.606.606 0 01-.12-.698.615.615 0 01.173-.354l8.895-8.895a.605.605 0 01.43-.179h.002c.16 0 .316.065.43.18l8.469 8.463 8.465-8.464a.61.61 0 01.861 0l8.901 8.895a.608.608 0 01.174.356.605.605 0 01-.122.696l-17.85 17.614a.61.61 0 01-.429.175z"/></g></g><g><path fill="#FFE6E8" d="M144.407 828.612l-110.476.16v73.795h110.636v-73.955z"/><path fill="#FF4F5E" d="M97.986 874.303l-8.898 8.898-8.9-8.898 8.9-8.898z"/><path fill="#BF3B47" d="M106.885 865.402l-8.9 8.9-8.896-8.9 8.774-8.774.121-.121z"/><path fill="#FF727E" d="M89.089 865.402l-8.9 8.9-8.83-8.834-.066-.066 8.896-8.895.126.127z"/><g stroke="#808BFC" stroke-linecap="round" stroke-linejoin="round" stroke-width="1.219"><path d="M144.407 828.61l.16 73.955H33.61V828.77l37.627 36.82.122-.122-.066-.066 8.895-8.895.127.127 8.774 8.768 8.773-8.774.122-.121 8.9 8.895-.065.066.121.122z"/><path d="M144.407 902.565H33.77l.16-.161 37.307-36.814.122-.122 8.956-8.834 8.774 8.768 8.773-8.773 8.957 8.839.121.122z"/><path d="M144.407 828.61l-37.467 36.98-.121-.122.066-.066-8.9-8.895-.123.121-8.773 8.774-8.774-8.768-.127-.127-8.895 8.895.066.066-.122.122-37.306-36.82-.16-.16z"/></g><path stroke="#808BFC" stroke-width="1.219" stroke-linecap="round" stroke-linejoin="round" d="M106.94 865.59L89.09 883.203 71.237 865.59l.122-.122-.066-.066 8.895-8.895.127.127 8.774 8.768 8.773-8.774.122-.121 8.9 8.895-.065.066z"/></g><g opacity=".1"><path fill="#FFE6E8" d="M144.407 4433.612l-110.476.16v73.795h110.636v-73.955z"/><path fill="#FF4F5E" d="M97.986 4479.303l-8.898 8.898-8.9-8.898 8.9-8.898z"/><path fill="#BF3B47" d="M106.885 4470.402l-8.9 8.9-8.896-8.9 8.774-8.774.121-.121z"/><path fill="#FF727E" d="M89.089 4470.402l-8.9 8.9-8.83-8.834-.066-.066 8.896-8.895.126.127z"/><g stroke="#808BFC" stroke-linecap="round" stroke-linejoin="round" stroke-width="1.219"><path d="M144.407 4433.61l.16 73.955H33.61v-73.795l37.627 36.82.122-.122-.066-.066 8.895-8.895.127.127 8.774 8.768 8.773-8.774.122-.121 8.9 8.895-.065.066.121.122z"/><path d="M144.407 4507.565H33.77l.16-.16 37.307-36.815.122-.122 8.956-8.834 8.774 8.768 8.773-8.773 8.957 8.839.121.122z"/><path d="M144.407 4433.61l-37.467 36.98-.121-.122.066-.066-8.9-8.895-.123.121-8.773 8.774-8.774-8.768-.127-.127-8.895 8.895.066.066-.122.122-37.306-36.82-.16-.16z"/></g><path stroke="#808BFC" stroke-width="1.219" stroke-linecap="round" stroke-linejoin="round" d="M106.94 4470.59l-17.851 17.613-17.852-17.613.122-.122-.066-.066 8.895-8.895.127.127 8.774 8.768 8.773-8.774.122-.121 8.9 8.895-.065.066z"/></g><g opacity=".25"><path fill="#FFB9BE" d="M267.407 606.612l-110.476.16v73.795h110.636v-73.955z"/><path fill="#FF4F5E" d="M220.986 652.303l-8.898 8.898-8.9-8.898 8.9-8.898z"/><path fill="#BF3B47" d="M229.885 643.402l-8.9 8.9-8.896-8.9 8.774-8.774.121-.121z"/><path fill="#FF727E" d="M212.089 643.402l-8.9 8.9-8.83-8.834-.066-.066 8.896-8.895.126.127z"/><g stroke="#FFF" stroke-linecap="round" stroke-linejoin="round" stroke-width="1.219"><path d="M267.407 606.61l.16 73.955H156.61V606.77l37.627 36.82.122-.122-.066-.066 8.895-8.895.127.127 8.774 8.768 8.773-8.774.123-.121 8.9 8.895-.066.066.121.122z"/><path d="M267.407 680.565H156.77l.16-.161 37.307-36.814.122-.122 8.956-8.834 8.774 8.768 8.773-8.773 8.957 8.839.121.122z"/><path d="M267.407 606.61l-37.467 36.98-.121-.122.066-.066-8.9-8.895-.123.121-8.773 8.774-8.774-8.768-.127-.127-8.895 8.895.066.066-.122.122-37.306-36.82-.16-.16z"/></g><path stroke="#FFF" stroke-width="1.219" stroke-linecap="round" stroke-linejoin="round" d="M229.94 643.59l-17.851 17.613-17.852-17.613.122-.122-.066-.066 8.895-8.895.127.127 8.774 8.768 8.773-8.774.123-.121 8.9 8.895-.066.066z"/></g><g opacity=".15"><path fill="#FFB9BE" d="M267.407 3867.612l-110.476.16v73.795h110.636v-73.955z"/><path fill="#FF4F5E" d="M220.986 3913.303l-8.898 8.898-8.9-8.898 8.9-8.898z"/><path fill="#BF3B47" d="M229.885 3904.402l-8.9 8.9-8.896-8.9 8.774-8.774.121-.121z"/><path fill="#FF727E" d="M212.089 3904.402l-8.9 8.9-8.83-8.834-.066-.066 8.896-8.895.126.127z"/><g stroke="#FFF" stroke-linecap="round" stroke-linejoin="round" stroke-width="1.219"><path d="M267.407 3867.61l.16 73.955H156.61v-73.795l37.627 36.82.122-.122-.066-.066 8.895-8.895.127.127 8.774 8.768 8.773-8.774.123-.121 8.9 8.895-.066.066.121.122z"/><path d="M267.407 3941.565H156.77l.16-.16 37.307-36.815.122-.122 8.956-8.834 8.774 8.768 8.773-8.773 8.957 8.84.121.12z"/><path d="M267.407 3867.61l-37.467 36.98-.121-.122.066-.066-8.9-8.895-.123.121-8.773 8.774-8.774-8.768-.127-.127-8.895 8.895.066.066-.122.122-37.306-36.82-.16-.16z"/></g><path stroke="#FFF" stroke-width="1.219" stroke-linecap="round" stroke-linejoin="round" d="M229.94 3904.59l-17.851 17.613-17.852-17.613.122-.122-.066-.066 8.895-8.895.127.127 8.774 8.768 8.773-8.774.123-.121 8.9 8.895-.066.066z"/></g><g opacity=".25"><path fill="#C4C7FB" d="M319.407 1364.612l-110.476.16v73.795h110.637v-73.955z"/><path fill="#FF4F5E" d="M272.986 1410.303l-8.898 8.898-8.899-8.898 8.899-8.898z"/><path fill="#BF3B47" d="M281.885 1401.402l-8.9 8.9-8.896-8.9 8.773-8.774.122-.121z"/><path fill="#FF727E" d="M264.09 1401.402l-8.902 8.9-8.829-8.833-.067-.067 8.896-8.895.128.126z"/><g stroke="#FFF" stroke-linecap="round" stroke-linejoin="round" stroke-width="1.219"><path d="M319.407 1364.61l.16 73.955H208.61v-73.795l37.627 36.82.123-.122-.067-.066 8.895-8.895.127.126 8.774 8.769 8.773-8.774.123-.121 8.9 8.895-.066.066.121.122z"/><path d="M319.407 1438.565H208.77l.16-.16 37.307-36.815.123-.122 8.955-8.834 8.774 8.767 8.773-8.773 8.957 8.84.121.122z"/><path d="M319.407 1364.61l-37.467 36.98-.121-.122.066-.066-8.9-8.895-.123.121-8.773 8.774-8.774-8.769-.127-.126-8.895 8.895.067.066-.123.122-37.306-36.82-.16-.16z"/></g><path stroke="#FFF" stroke-width="1.219" stroke-linecap="round" stroke-linejoin="round" d="M281.94 1401.59l-17.851 17.614-17.852-17.614.123-.122-.067-.066 8.895-8.895.127.127 8.774 8.768 8.773-8.774.123-.121 8.9 8.895-.066.066z"/></g><g opacity=".05"><path fill="#C4C7FB" d="M319.407 4969.612l-110.476.16v73.795h110.637v-73.955z"/><path fill="#FF4F5E" d="M272.986 5015.303l-8.898 8.898-8.899-8.898 8.899-8.898z"/><path fill="#BF3B47" d="M281.885 5006.402l-8.9 8.9-8.896-8.9 8.773-8.774.122-.121z"/><path fill="#FF727E" d="M264.09 5006.402l-8.902 8.9-8.829-8.833-.067-.067 8.896-8.895.128.126z"/><g stroke="#FFF" stroke-linecap="round" stroke-linejoin="round" stroke-width="1.219"><path d="M319.407 4969.61l.16 73.955H208.61v-73.795l37.627 36.82.123-.122-.067-.066 8.895-8.895.127.126 8.774 8.769 8.773-8.774.123-.121 8.9 8.895-.066.066.121.122z"/><path d="M319.407 5043.565H208.77l.16-.16 37.307-36.815.123-.122 8.955-8.834 8.774 8.767 8.773-8.773 8.957 8.84.121.122z"/><path d="M319.407 4969.61l-37.467 36.98-.121-.122.066-.066-8.9-8.895-.123.121-8.773 8.774-8.774-8.769-.127-.126-8.895 8.895.067.066-.123.122-37.306-36.82-.16-.16z"/></g><path stroke="#FFF" stroke-width="1.219" stroke-linecap="round" stroke-linejoin="round" d="M281.94 5006.59l-17.851 17.614-17.852-17.614.123-.122-.067-.066 8.895-8.895.127.127 8.774 8.768 8.773-8.774.123-.121 8.9 8.895-.066.066z"/></g><g opacity=".5"><path fill="#FFF" d="M323.407 2404.612l-110.476.16v73.795h110.636v-73.955z"/><path fill="#FF4F5E" d="M276.986 2450.303l-8.898 8.898-8.899-8.898 8.9-8.898z"/><path fill="#BF3B47" d="M285.885 2441.402l-8.901 8.9-8.896-8.9 8.775-8.774.121-.121z"/><path fill="#FF727E" d="M268.089 2441.402l-8.9 8.9-8.83-8.834-.066-.066 8.895-8.895.128.127z"/><g stroke="#0D10BF" stroke-linecap="round" stroke-linejoin="round" stroke-width="1.219"><path d="M323.407 2404.61l.16 73.955H212.61v-73.795l37.627 36.82.123-.122-.067-.066 8.895-8.895.128.127 8.773 8.768 8.773-8.774.122-.121 8.901 8.895-.066.066.121.122z"/><path d="M323.407 2478.565H212.77l.16-.16 37.307-36.815.123-.122 8.956-8.834 8.773 8.767 8.773-8.773 8.957 8.84.121.122z"/><path d="M323.407 2404.61l-37.467 36.98-.121-.122.066-.066-8.9-8.895-.123.121-8.773 8.774-8.773-8.768-.128-.127-8.895 8.895.067.066-.123.122-37.306-36.82-.161-.16z"/></g><path stroke="#0D10BF" stroke-width="1.219" stroke-linecap="round" stroke-linejoin="round" d="M285.94 2441.59l-17.851 17.613-17.852-17.613.123-.122-.067-.066 8.895-8.895.128.127 8.773 8.768 8.773-8.774.122-.121 8.901 8.895-.066.066z"/></g></g></svg>