<svg id="Layer_1" data-name="Layer 1" xmlns="http://www.w3.org/2000/svg" viewBox="0 0 700 700"><defs><pattern id="New_Pattern_Swatch_3" data-name="New Pattern Swatch 3" width="18" height="18" patternTransform="matrix(1.41 0 0 1.41 -.63 10)" patternUnits="userSpaceOnUse"><path class="cls-1" d="M0 0h18v18H0z"/><path class="cls-2" d="M0 0h2v2H0zm9 0h2v2H9zM0 9h2v2H0zm9 0h2v2H9z"/><path class="cls-1" d="M0 0h18v18H0z"/></pattern><style>.cls-1{fill:none}.cls-2{fill:#112dcb}.cls-4{fill:#c4c7fb}</style></defs><path d="M698.15 314.34c19.7 192.28-120.21 364.12-312.49 383.81a348.29 348.29 0 01-181.38-29.89 351.83 351.83 0 01-101.73-70.77A348.12 348.12 0 017.88 423.8a346 346 0 01-5.6-34.28c-.17-1.28-.3-2.55-.43-3.85A350.09 350.09 0 01260.53 11.59a353.24 353.24 0 0153.81-9.74 349.31 349.31 0 01133.42 12c125 36.43 223.31 141.21 246.87 275.23q2.21 12.45 3.52 25.26z" fill="url(#New_Pattern_Swatch_3)"/><path class="cls-4" d="M694 289.18c-15.8 5.25-35-.05-45.13-13.4-7.29-9.56-10.67-22.76-21.1-28.78-7.66-4.44-17.34-3.67-25.81-1.07-6.53 2-12.9 5.12-17.49 10.15-15.22 16.75.93 28.94 13.47 38.88 6.32 5 11.48 14.06 7.1 20.82-9.63 14.82-29.2-4.47-40.16-5.62-6.07-.62-13 2.57-14.45 8.5-1 4.07.77 8.32 3 11.91 10.91 17.92 34.23 28.26 54.61 21.76 7.5-2.4 19.06-4.56 20.35 3.23a11.1 11.1 0 01-1.28 6.05c-9.91 21.92-34.65 34.41-44.2 56.49-6.1 14.15-5.07 30.18-5.82 45.56a190.66 190.66 0 01-28.71 91.59c-5.7 9.1-12.29 18-15 28.36-1.11 4.32-1.54 8.88-3.51 12.86-5.33 10.73-19.16 13.36-31.07 14.7-3.33.38-7 .67-9.73-1.31a13.08 13.08 0 01-3.29-4.11c-18.78-31.66-23.35-64.45-27.44-100.3-.54-4.75-1.21-9.79-4.3-13.43-4.38-5.2-13.16-7-14.4-13.74a15.23 15.23 0 01.49-5.92c2.87-13.22 6.43-26.41 5-40.08-3.75-13.22-21.28-16.23-34.85-14.11-24.07 3.77-47.15 15.6-71.44 13.7-7.25-.58-15-2.75-19.4-8.54-5.78-7.56-3.92-18.27-1.79-27.57q7.26-31.71 14.54-63.43c1.6-7 3.26-14.1 7.14-20.09 3-4.58 7.11-8.26 11.2-11.87 16.05-14.17 34.7-28.94 56.06-27.48 5.06.35 10 1.62 15.08 1.94 7.49.45 14.94-1.21 22.27-2.86l50.64-11.45c5.31-1.21 10.84-2.5 15-6s6.55-9.83 3.78-14.51c-1.52-2.6-4.27-4.22-7-5.55a77 77 0 00-31.27-7.95c-4.37-.17-9.28.26-12.24 3.52-2.14 2.33-2.77 5.62-4.12 8.48a18.06 18.06 0 01-34.37-6.41c-.34-4.94 1.32-10.14-.61-14.71-3.78-9-17.9-7.35-24.63-.3s-9.38 17.12-15.4 24.77c-6.25 8-15.72 12.78-25.31 16-10.45 3.49-22.86 5.12-31.72-1.4s-8.62-23.7 2.09-26.26c-5.11 1.25-8.17-6.63-5.32-11s8.34-6.1 13.07-8.38 9.59-6.62 8.74-11.81c-.34-2.07-1.57-3.88-2.22-5.88-2-6.27 2-13.1 7.3-17.05s11.75-6 17.49-9.27c17.78-10.24 26.56-33.84 19.8-53.22-2.67-7.6-7.4-15.73-4.15-23.07 3-6.68 11-9.07 16.86-13.45s8.33-15.47 1.35-17.67c-2.58-.82-5.42.12-8.08-.38-5.64-1-8.26-8.35-6.33-13.77S394.16 36.09 399 33c14-8.85 31.83-9.3 46.21-17.57a19.65 19.65 0 012.33-1c124.77 36.43 222.91 141 246.46 274.75z"/><path class="cls-2" d="M693.75 288.46a41.75 41.75 0 01-36.65-5.7c-10.28-7.41-13.57-19.5-21-29.16a25.7 25.7 0 00-14-9.67c-6.37-1.61-13.18-.8-19.42 1-10.77 3.07-23.86 10.67-25.11 23.07-1.11 11 9.56 19.34 17.2 25.43 5.11 4.08 10.72 9.09 11.08 16.14a10.73 10.73 0 01-10.52 11c-9.67.18-18-7.37-26.77-10.33-8.51-2.86-20.36 2-19.1 12.38.71 5.87 4.85 11.34 8.71 15.6a51.92 51.92 0 0013.92 10.82c9.95 5.31 21.67 7.4 32.74 4.89 5.32-1.2 10.39-3.39 16-3.07 2.63.15 5.45 1 6.48 3.66 1.4 3.65-1.44 8.12-3.23 11.24-6.15 10.72-15.52 19-24.06 27.8s-16.46 18.26-20 30.2c-4.13 13.93-3 28.71-3.91 43a189.79 189.79 0 01-27.32 86.26c-3.8 6.23-8.08 12.19-11.49 18.67a57.69 57.69 0 00-3.94 9.18c-1.22 3.77-1.67 7.72-2.78 11.52-3.95 13.44-18.81 16.46-31 17.88-3.56.41-7.79 1-10.7-1.56-2.72-2.42-4.49-6.77-6.16-9.93a162.41 162.41 0 01-9.32-21.09 232.61 232.61 0 01-10.3-41.61c-1.2-7.42-2.18-14.86-3.08-22.31-.76-6.32-.69-13.62-3.58-19.43-2.47-4.95-7.43-7-11.65-10.19-2.67-2-4.64-4.4-4.57-7.91.1-4.16 1.67-8.5 2.55-12.56a129.56 129.56 0 003.36-22.41c.23-5.94.11-11.32-3.93-16-6.53-7.53-18.07-9.07-27.46-8.44-14.27 1-28.14 6.3-41.87 9.92s-30.35 7.39-44.19 2.15a18.41 18.41 0 01-12.28-16.5c-.56-7.13 1.44-14.26 3-21.14q5.68-24.8 11.37-49.6c1.68-7.35 3-15 5.66-22 2.82-7.49 7.95-12.91 13.84-18.13 10.82-9.6 22.34-19.41 36-24.64a47.91 47.91 0 0120.26-3.3c7.79.53 15.05 2.53 22.93 1.73 8.05-.82 16-3 23.83-4.76l24.17-5.46c7.61-1.73 15.4-3.12 22.9-5.31 5.38-1.58 10.77-4.22 13.43-9.44 6.71-13.18-10.79-19-20.35-21.72a69.25 69.25 0 00-21-2.92c-5.84.22-10.24 2.4-12.57 7.94-1.31 3.13-2.27 6.12-4.62 8.66a18.22 18.22 0 01-8.68 5.2 17.1 17.1 0 01-18.48-7.16 17.38 17.38 0 01-3-9.35c-.1-3.62.73-7.23.21-10.84a10.87 10.87 0 00-7.7-9.11c-10.24-3.12-19.2 4.19-24.12 12.4-3.39 5.67-5.83 11.93-9.81 17.25-4.31 5.75-10.33 9.88-16.76 12.94-11.48 5.47-29.81 11.16-40.67 1.45-6.81-6.08-7.7-21.36 2.76-24.19 1-.25.54-1.61-.4-1.44-3.39.59-5.33-2.95-5.45-5.89-.15-3.54 2.21-6.08 5-7.9 4.82-3.12 10.69-4.25 14.78-8.54 3.83-4 3.45-8 1.42-12.76-3.18-7.5 1.78-14.77 8-18.83 5.45-3.57 11.77-5.51 17.27-9a43.7 43.7 0 0011-10.13 48.18 48.18 0 0010-28.86 43.88 43.88 0 00-2.74-15.55c-2.34-6.23-6.41-13.54-4-20.32 2.12-6 8.45-8.68 13.46-11.68 3.87-2.34 7-5 8.52-9.41 1.15-3.21 1.49-7.47-1.05-10.14-4-4.25-10.71.07-14.75-4.25-4.86-5.2-2.22-12.67 2.22-17.07 4.83-4.8 11.27-8.13 17.59-10.49s12.68-3.88 19-5.78A121.9 121.9 0 00445.79 16c2.55-1.19 5.54.37 8.07 1.16q4.25 1.34 8.44 2.76 7.77 2.65 15.42 5.67a348.51 348.51 0 01212 246.49q2 8.59 3.49 17.28c.17.95 1.61.55 1.45-.4a350.73 350.73 0 00-241.61-273.6c-1.81-.56-4.21-1.81-6.09-1.43-2.57.52-5 2.51-7.42 3.55-6.63 2.91-13.69 4.64-20.63 6.64-6.38 1.88-12.78 3.88-18.57 7.24-5 2.87-10.32 6.55-13 11.85a12.84 12.84 0 00.27 12.2 9.07 9.07 0 004.28 3.86c3.11 1.29 6.49-.2 9.61.84 6.3 2.11 3.35 11 .29 14.55-3.58 4.21-9.5 6-13.82 9.34s-6.76 8-6.24 13.58c.61 6.54 4.17 12.31 5.92 18.54 3.28 11.66 1.1 24.53-5.06 34.87a43.05 43.05 0 01-12.36 13.41c-5.42 3.74-11.76 5.74-17.38 9.11-4.77 2.86-9 7-10.57 12.51a12.86 12.86 0 00.05 7.3c1.21 3.88 3.49 6.89 1 10.9-4.94 8.05-24.49 8.66-21.48 21.25.82 3.42 3.41 6.13 7.09 5.48l-.4-1.44c-8.66 2.34-10.54 12.75-7.72 20.22 4.05 10.72 16.61 12.94 26.75 11.53 12.43-1.72 26.17-7.35 34.8-16.7 8.45-9.14 10.74-25.26 22.76-30.78 4.66-2.15 11.23-2.94 15.46.58 6 5 1.89 13.94 3.38 20.46 2.5 11 14.35 17.59 24.89 13.56A19.24 19.24 0 00459.8 238c1.57-3.6 2.37-7.46 6.2-9.39 3.42-1.72 7.59-1.5 11.3-1.25a76.11 76.11 0 0123 5.17c3.58 1.41 8.14 3.09 10.91 5.9 3.07 3.1 3.26 7.4 1.36 11.19-3.49 6.94-11.83 8.71-18.74 10.28L469 265.52l-24.74 5.59c-8.16 1.84-16.4 3.67-24.81 2.78-7.35-.78-14.27-2.43-21.7-1.46a57.51 57.51 0 00-18.19 5.86c-12.38 6.22-23.36 15.57-33.43 25a42.14 42.14 0 00-11.52 17c-2.54 7.19-3.88 14.83-5.58 22.24q-5.7 24.8-11.37 49.59c-2.59 11.31-6.43 26.32 4.21 34.82 10.08 8.05 26 6.51 37.76 4.43 15.26-2.68 29.81-8.27 45-11.39 11.16-2.3 25.59-3.4 34.83 4.77a15.86 15.86 0 014.47 6.37c1.36 3.76.83 8.54.57 12.47-.58 8.56-2.55 16.94-4.41 25.28-1.18 5.31-2.62 10.42 1.6 14.7s10.37 5.79 13.24 11.19c1.74 3.28 2.17 7.07 2.61 10.71.45 3.83.88 7.66 1.35 11.49.9 7.22 1.88 14.43 3.09 21.6a224.87 224.87 0 0010.84 42 164.86 164.86 0 008.84 19.53c2.69 5 5.17 11.33 11.54 12.05 5.63.64 12.32-.87 17.78-2.2 5.21-1.27 10.42-3.25 14.55-6.77 5-4.29 6.52-10.08 7.84-16.31 1.58-7.49 4.84-14.15 8.84-20.63 7.82-12.69 15.56-25 21.28-38.85a192.22 192.22 0 0012.22-43.56c2.3-14.77 1.76-29.58 3-44.42.69-8 2.23-16 5.81-23.22A70.18 70.18 0 01595.13 401c8.15-9.24 17.69-17.2 25.22-27 4.15-5.42 15.35-21.14 3.13-24.2-4.45-1.11-9.47 0-13.77 1.26-6.2 1.76-12.13 2.93-18.62 2.32a49.91 49.91 0 01-33.25-17.76c-4.34-5.24-10.28-14.07-4.79-20.45 4-4.68 10.78-5.08 16.2-3 8.44 3.23 16.65 10.14 26.08 10a12 12 0 009.46-4.75c3.44-4.39 3-9.82.57-14.59-2.78-5.39-7.59-8.74-12.15-12.5s-9.56-8.08-12.35-13.55c-7.66-15 9.83-26.79 22.19-30.34 7.41-2.13 15.87-2.9 23 .59 5.9 2.89 9.75 8.3 13 13.85 3 5.21 5.6 10.71 9.28 15.5a39 39 0 0013.12 10.82 43.32 43.32 0 0032.74 2.77c.88-.36.49-1.81-.44-1.51z"/><path class="cls-4" d="M606.68 466.67c-2.93 1.93-5.74 4.26-7.34 7.39-4 7.81.71 17.45-1.3 26-.85 3.6-2.86 6.82-4 10.33s-1.38 7.76 1 10.55c3.21 3.68 9.38 2.9 13.33 0s6.49-7.23 9.78-10.84c3.94-4.32 9-7.58 12.71-12.09 8.17-9.87 8.75-23.77 8.95-36.58a5.93 5.93 0 00-.48-3c-.85-1.56-2.85-2-4.62-2.18a38 38 0 00-13.92 1.26s-7.52 4.79-14.11 9.16z"/><path class="cls-2" d="M606.3 466a23.28 23.28 0 00-7 6.61 16.88 16.88 0 00-2.36 8.67c-.18 6.61 2.05 13.34 0 19.84-1.81 5.83-6.54 11.91-3.76 18.26 2.28 5.2 8.58 5.63 13.2 3.57 5.83-2.61 8.88-8.85 13.16-13.24 4.77-4.88 10.55-8.61 14.24-14.48 3.31-5.29 5-11.42 5.78-17.55.43-3.13.66-6.28.8-9.43.07-1.61.11-3.22.14-4.82a15.27 15.27 0 00-.18-4.48c-.92-3.18-4.75-3.44-7.5-3.56a37.72 37.72 0 00-6.55.27 21.31 21.31 0 00-5.7 1.15 35.79 35.79 0 00-4.46 2.8q-4.93 3.17-9.83 6.39c-.8.53 0 1.83.76 1.3q6.65-4.41 13.39-8.67c1.89-1.19 4.6-1.36 6.77-1.58a38.56 38.56 0 014.68-.19 15.89 15.89 0 015 .59 3.16 3.16 0 012.21 3.22c.05 1.51 0 3.05-.08 4.56-.08 2.89-.2 5.78-.47 8.66-.53 5.86-1.62 11.82-4.15 17.18a30.63 30.63 0 01-4.87 7.39 77.45 77.45 0 01-6.9 6.41 54.07 54.07 0 00-6.43 6.41c-1.85 2.25-3.55 4.65-5.59 6.75-3.4 3.49-9.84 6.82-14.3 3.05-5.2-4.39-.88-12.1 1.14-16.89a23.46 23.46 0 001.9-9.39c0-3.45-.58-6.86-.8-10.29-.22-3.28-.13-6.71 1.3-9.73 1.52-3.23 4.34-5.54 7.25-7.48.76-.52.01-1.82-.79-1.3z"/><path class="cls-4" d="M322.9 148a8.75 8.75 0 00-.47 5c1 3.55 5.47 4.94 9.1 4.29s6.87-2.65 10.44-3.54 18.63-14.2 22.41-23.16c2.23-5.3 3.89-12.43-.64-16-3.2-2.52-8.12-1.59-11.28 1S326.45 137.18 322.9 148z"/><path class="cls-2" d="M322.18 147.75c-.88 2.77-1.13 5.84 1.1 8a9.23 9.23 0 006.33 2.35c3.25.05 6.26-1.45 9.21-2.6 1.74-.68 3.59-1 5.2-2a52.45 52.45 0 009.49-7.78 63.39 63.39 0 009.63-11.37c2.51-3.95 4.4-9 4.21-13.71-.22-5.36-4.41-9.13-9.82-8.25-3.47.56-6 2.83-8.52 5-3 2.55-5.91 5.17-8.76 7.86a140.35 140.35 0 00-11 11.45c-2.77 3.28-5.64 6.87-7 11-.31.92 1.14 1.31 1.45.4 1.1-3.27 3.29-6.19 5.43-8.85a113.58 113.58 0 018.64-9.44c4.71-4.67 9.65-9.11 14.76-13.34 3.39-2.82 9.25-4.3 12.16 0 2.69 4 .72 10.05-1.09 14a41.06 41.06 0 01-7.4 10.34 82.16 82.16 0 01-9.46 8.91 24 24 0 01-4.1 2.8 16 16 0 01-2.28.75c-1.61.53-3.16 1.23-4.75 1.84-2.87 1.11-5.9 1.95-8.91.87a5.65 5.65 0 01-3.08-2.41c-1-1.75-.49-3.76.08-5.55.22-.79-1.23-1.18-1.52-.27z"/><path class="cls-4" d="M255 485a10.83 10.83 0 00-5.35 1.31 14.13 14.13 0 00-6.65 10.9c-.08 3.51 1.42 6.14 1.62 9.51s11.5 14.12 20.48 14.79c5.31.4 12.74-.46 17.6-6.41 3.44-4.23 3.48-9 1.33-11.29S266 484.74 255 485z"/><path class="cls-2" d="M255 484.21c-5.36.16-9.47 3.37-11.58 8.22a12.49 12.49 0 00-1.07 6.54 28.16 28.16 0 00.8 3.84c.35 1.38.53 2.72.75 4.12a7.38 7.38 0 001.58 3.16 29.67 29.67 0 003.87 4.13 34.51 34.51 0 0011.44 7.1c8.31 2.91 19.64.07 24-8 1.86-3.43 2.13-7.56-.66-10.52-1.9-2-3.89-3.95-5.95-5.81a75.19 75.19 0 00-11.18-8.62c-3.57-2.19-7.68-4.2-12-4.16a.75.75 0 000 1.5c3.41 0 6.69 1.4 9.62 3a60.44 60.44 0 019.46 6.67c2.45 2 4.79 4.21 7 6.46 1.72 1.72 3.55 3.26 3.63 5.89.16 5-4 9.19-8.17 11.19a22.47 22.47 0 01-11.76 1.79c-4-.41-7.8-2.56-11-4.86a29 29 0 01-7.64-7.43c-.93-1.46-.85-3-1.22-4.65-.61-2.66-1.56-5.31-1-8.07a13.94 13.94 0 013.26-6.49 10.43 10.43 0 017.81-3.53c1.01 0 1.01-1.5.01-1.47z"/><path class="cls-4" d="M263.93 82.41c-2.54 1.31-5.29 3.35-5.2 6.2a6.94 6.94 0 001.35 3.48 22 22 0 0012.89 9.1c1.51.37 3.14.63 4.29 1.66 3.19 2.87.07 8.27 1.32 12.38 1.17 3.85 6.1 5.44 10 4.35s6.89-4 9.72-6.9c3.72-3.75 7.67-8 7.93-13.28.22-4.51-2.34-9.21-.6-13.38.56-1.35 1.57-2.65 1.35-4.09s-1.52-2.37-2.71-3.15c-4.91-3.24-10.55-6.62-16.3-5.37a119.63 119.63 0 00-24.04 9z"/><path class="cls-2" d="M263.55 81.76c-2.11 1.11-4.4 2.63-5.26 5-.94 2.57.51 5 2 7a22.89 22.89 0 0012.86 8.24c1.4.35 3 .6 4 1.79a5.2 5.2 0 01.87 3.75c-.12 2.4-.76 4.82-.29 7.23.87 4.39 5.75 6.36 9.81 5.79 5.45-.77 9.71-5.56 13.26-9.37 3.72-4 6.76-8.58 6.09-14.27-.35-2.92-1.43-5.9-1-8.87.35-2.5 2.9-4.89 1.42-7.48a7.23 7.23 0 00-2.33-2.24c-1.3-.89-2.65-1.73-4-2.52a24.44 24.44 0 00-8.17-3.22c-3.7-.6-7.17.61-10.67 1.7a116.42 116.42 0 00-18.52 7.47c-.86.44-.1 1.74.76 1.3a104 104 0 0123.62-8.9c5-1.15 9.93 1.51 14 4.08a21.31 21.31 0 013.14 2.16c1.33 1.21 1.14 2.47.4 4a11.5 11.5 0 00-1.18 7c.34 2.61 1.15 5.18 1.07 7.83a13.55 13.55 0 01-2.58 7 42.54 42.54 0 01-5.14 5.92 34.78 34.78 0 01-6 5.15c-3.54 2.21-9.64 3.07-12.07-1.31-2.16-3.88 1.28-8.67-1-12.53-1.35-2.28-4-2.53-6.29-3.19a21.13 21.13 0 01-7.35-3.89c-2.08-1.69-4.54-4.11-5.32-6.74-1-3.18 2.22-5.31 4.64-6.58.84-.45.08-1.75-.77-1.3z"/><path class="cls-4" d="M260.7 12.25c-6.65 8.79-12.44 18.46-18.44 27.68-12.16 18.7-28 37.63-50 41.56-20.11 3.59-42.45-6.14-60.49 3.45-7.06 3.76-12.41 10-18.94 14.65a41 41 0 01-12.4 6A347.76 347.76 0 01260.7 12.25z"/><path class="cls-2" d="M260.06 11.87C244.53 32.46 233.75 58 211.6 72.69A52.66 52.66 0 01195.44 80a63.44 63.44 0 01-19.09 1.38c-12.66-.68-25.88-3.45-38.34.19-7 2-12.47 6.36-17.85 11a84.64 84.64 0 01-9 7.16 40.83 40.83 0 01-10.93 5.05l.73 1.25A350.1 350.1 0 01156.49 60a346 346 0 0164.71-34 350.94 350.94 0 0139.7-13 .75.75 0 00-.4-1.44A348.06 348.06 0 00130.1 77.6a353.47 353.47 0 00-30.18 27.46.75.75 0 00.73 1.25c6.62-1.91 12.31-5.54 17.53-10s10-9.12 16.22-11.84c12.22-5.35 26.16-2.7 39-1.78a76.15 76.15 0 0019.49-.58A51.67 51.67 0 00209.16 76c10.39-6 18.76-15 25.94-24.47 9.44-12.49 16.83-26.37 26.25-38.87.58-.8-.72-1.55-1.29-.79z"/><path class="cls-4" d="M167.65 220.66c-3.69 8-14.74 9.82-23.19 7.18s-15.58-8.38-23.78-11.72c-16.34-6.59-36.5-2.23-48.65 10.53l37.68 8.78a6.62 6.62 0 013.44 1.57c3.1 3.33-2.58 7.66-7 8.76C75.28 253.43 43 270.86 34 301.38c-1.92 6.51-2.37 14.31 2.23 19.3 1.47 1.58 3.37 2.78 4.47 4.62 3 4.95-1.58 11.47-7 13.41a18 18 0 01-18-3.94c-4.58-4.42-6.5-11-11-15.52a18.8 18.8 0 00-2.51-2.09 347.66 347.66 0 0151.06-151.43c8.43 1.28 16.62 2.87 21.34 2.42a133.46 133.46 0 0033.85-7.76c3.19-1.18 6.58-2.51 9.88-1.74s5.62 3.22 7.85 5.62c7.34 7.87 15.09 16.63 15.85 27.36.3 4-.45 8.17.5 12.11 2.48 10.38 14.74 14.52 25.13 16.92z"/><path class="cls-2" d="M167 220.28c-2.76 5.81-9.3 8-15.37 7.94-7.57-.11-14.24-4.06-20.65-7.69s-12.91-6.8-20.34-7.8a47 47 0 00-20 1.7 44.94 44.94 0 00-19.14 11.69.76.76 0 00.33 1.26l29 6.75 7.49 1.75c1.73.4 4.62.73 5 2.91.24 1.55-1.26 3-2.35 3.82a13.59 13.59 0 01-4.8 2.38 183.92 183.92 0 00-20.73 6.67 124 124 0 00-19.54 9.82c-11.76 7.36-22.29 17.21-28.59 29.72-3.22 6.28-5.93 13.63-5.31 20.8a15.24 15.24 0 003.89 9.39c1.41 1.48 3.28 2.63 4.3 4.46a6.28 6.28 0 01.45 4.88c-2.29 7.84-12 9.59-18.77 7.06a18.54 18.54 0 01-8.9-7.6c-2.1-3.21-3.76-6.7-6.17-9.71a20.66 20.66 0 00-4.2-3.94l.37.65A346.63 346.63 0 0137 196.59q7.68-15.65 16.91-30.48l-.85.35c5.42.82 10.83 1.86 16.29 2.34 4.88.44 9.74-.32 14.55-1.11a133.7 133.7 0 0016.72-3.88c2.78-.84 5.52-1.77 8.24-2.78s5.81-2.26 8.82-1.75c2.52.42 4.56 2.05 6.33 3.8s3.43 3.62 5.09 5.48a62.26 62.26 0 018.9 12.15 29.87 29.87 0 013.36 15.13c-.11 4.71.05 9.3 2.78 13.31 5.11 7.5 15 10.3 23.35 12.23.94.22 1.34-1.22.4-1.44-7.7-1.79-16.76-4.23-21.87-10.74a14.73 14.73 0 01-2.66-5.34 30.94 30.94 0 01-.49-8.49 30.68 30.68 0 00-3-14.35 56.46 56.46 0 00-8.3-12c-1.64-1.9-3.34-3.75-5.06-5.59a22.58 22.58 0 00-5.23-4.47c-5-2.8-10.27-.25-15.19 1.49a133.19 133.19 0 01-16.52 4.64q-4.73 1-9.5 1.66a48.51 48.51 0 01-8.33.68c-6.11-.22-12.19-1.52-18.22-2.44a.8.8 0 00-.85.35 351.53 351.53 0 00-28 55.53 348 348 0 00-18.02 60.6 352.25 352.25 0 00-5.2 35.69.79.79 0 00.37.65c6.87 4.86 8.44 14.09 15.21 19 5.79 4.24 14.76 5.07 20.61.5 2.57-2 4.69-5.09 4.78-8.45a7.4 7.4 0 00-1.37-4.48c-1.22-1.71-3-2.86-4.38-4.41-5.46-6.09-3.13-15.64-.57-22.47 5.25-14 15.92-25.15 28.23-33.3 12.83-8.51 27.22-13.83 42-17.76 3-.79 6.55-2.64 8-5.55a3.82 3.82 0 000-3.6c-.92-1.63-2.7-2.21-4.41-2.62-10-2.4-20.13-4.69-30.19-7l-7.49-1.74.33 1.25a44.88 44.88 0 0138.4-12.9c7.63 1.12 14.14 4.65 20.76 8.39 6.22 3.52 12.76 7 20.08 7.06 6.51.05 13.54-2.47 16.5-8.69.4-.87-.9-1.63-1.31-.76z"/><path class="cls-4" d="M259.88 592.26c.95 13.7 1.28 29.19-8.26 39.07-12.74 13.23-38.83 11.48-45.48 28.6a27 27 0 00-1.57 7.67A351 351 0 01103 597c1.42-16.62 1.9-33.11-4.28-48.06-5.85-14.17-17-25.29-26.43-37.39s-17.47-26.83-15.28-42c.63-4.35 2.1-8.68 1.68-13.06-1.34-13.81-18.46-18.59-31.5-23.33a86.47 86.47 0 01-18.67-9.52A344.54 344.54 0 013 389.41a257.12 257.12 0 0126.11-6.32c11-2.06 24.84-2.12 30.32 7.62 5.87 10.44-1.34 27.41 9.05 33.39 3.5 2 7.79 1.73 11.82 1.4 13.64-1.14 53.4-16.71 67.05-17.86 5.16-.42 11-.68 14.87 2.72 5.17 4.51 4.42 13 8.67 18.39 2.34 3 5.95 4.65 9.59 5.7 23.39 6.73 52.48-7.7 71 8.15 3 2.57 5.49 6.16 5.22 10.09-.4 5.84-6.41 9.33-10.66 13.36-6.78 6.43-12.66 16-16.19 24.6-2.62 6.38-3.82 13.56-2 20.22a48.75 48.75 0 003.35 8.14c5.7 11.7 15.39 20.34 20.69 31.92 5.8 12.86 7.03 27.4 7.99 41.33z"/><path class="cls-2" d="M259.13 592.26c1 14.59 1.45 32.28-11.81 41.78-10 7.2-23 8.4-33.24 15.28a23.83 23.83 0 00-6.58 6.39 24.49 24.49 0 00-3.68 11.89l1.18-.6a350 350 0 01-93.44-62.83q-3.41-3.2-6.72-6.47c-.67-.67-.94-.82-.91-1.75s.14-1.77.21-2.65c.13-1.76.25-3.52.34-5.28a126.7 126.7 0 00-.26-19.77 70.4 70.4 0 00-4.3-18.55 75.29 75.29 0 00-8.64-15.61c-7.08-10-15.81-18.84-22.71-29S56 482.43 57.78 469.73c.81-5.74 2.85-11.41.89-17.15a20.43 20.43 0 00-7.5-9.59c-7.86-5.83-17.68-8.05-26.61-11.68A84.5 84.5 0 0115.5 427c-1.35-.74-2.67-1.52-4-2.33a9.31 9.31 0 01-2.16-1.39 6.55 6.55 0 01-.64-2.51q-2.13-10.22-3.61-20.54-.78-5.38-1.39-10.8l-.55.72a214.56 214.56 0 0128.55-6.75c6.78-1 14.61-1.38 20.9 1.86a14.66 14.66 0 016.86 7.27 28.31 28.31 0 011.82 9.78c.29 5.94-.49 12.84 2.58 18.21 3.63 6.37 11.4 6.43 17.85 5.57a101.59 101.59 0 0014.8-3.47c12.6-3.6 25-7.92 37.62-11.4a74.06 74.06 0 0114.27-2.91c4.07-.3 8.64-.48 12.21 1.81 3.3 2.11 4.55 5.94 5.59 9.5 1 3.33 1.88 6.81 4.07 9.58 2.51 3.2 6.35 4.95 10.18 6 7.46 2.11 15.34 2.1 23 1.66 14.63-.85 32-4.46 45 4.37 3.5 2.38 7.3 6 7.46 10.53.15 3.94-2.67 6.93-5.43 9.37a89 89 0 00-8.54 8 74.65 74.65 0 00-7.72 10.88c-4.4 7.49-8.27 16-8 24.83a31.71 31.71 0 003.53 12.83 77.8 77.8 0 006.82 11.58c4.94 7 10.65 13.55 14.35 21.34 4.14 8.71 6 18.36 7.1 27.88.52 4.56.86 9.13 1.17 13.71.07 1 1.57 1 1.5 0-.65-9.39-1.4-18.84-3.57-28A69.22 69.22 0 00246 539.73c-5.13-7.23-10.81-14-14.68-22-2.21-4.57-3.79-9.13-3.66-14.27a37.56 37.56 0 013.48-14.07c3.61-8.2 8.55-16.2 15-22.46 4.79-4.62 12.84-9.17 11-17.06-1.73-7.27-10-11.95-16.61-13.92-7.27-2.17-15-2-22.52-1.57-8.07.5-16.14 1.48-24.24 1.24a53.51 53.51 0 01-11.89-1.53c-4.2-1.07-8.58-2.85-11-6.62-3.86-5.91-3-14.66-9.64-18.72-3.33-2-7.46-2.19-11.25-2a49.13 49.13 0 00-7.26.88c-12.28 2.43-24.21 6.77-36.14 10.46-5.93 1.83-11.87 3.66-17.9 5.14-2.25.55-4.53 1.06-6.82 1.39-3.5.49-7.43.82-10.85-.21-7.2-2.18-7.84-10-8-16.38s.11-13.59-3.79-19.05-10.83-7.42-17.23-7.71c-8.29-.36-16.6 1.65-24.61 3.53q-7.39 1.74-14.62 3.89a.74.74 0 00-.55.72q1.2 10.53 3 21 .88 5.13 1.94 10.23c.22 1.07.23 2.86 1 3.65a22.53 22.53 0 004.36 2.71 94.43 94.43 0 0016.74 7.66c4.64 1.65 9.33 3.25 13.79 5.35 4.06 1.91 8.1 4.25 11.07 7.68 3.61 4.16 4.44 9.27 3.53 14.6-.55 3.21-1.36 6.37-1.61 9.63a39.17 39.17 0 00.37 8.72 54.65 54.65 0 006 17.15c5.77 10.91 14.2 20 21.87 29.54a110.66 110.66 0 0110.62 15.32 62.46 62.46 0 016.67 18.19 95 95 0 011.62 19.78c0 3.43-.2 6.85-.42 10.26-.12 1.68-.24 3.36-.38 5a2.7 2.7 0 000 1.44 9.74 9.74 0 001.86 1.88 352.63 352.63 0 0091.48 65q4.2 2.07 8.46 4a.76.76 0 001.13-.65 22.94 22.94 0 013.56-11.27 22.24 22.24 0 016.22-5.89c5.08-3.35 11-5.28 16.62-7.35s11.65-4.3 16.63-8a29.65 29.65 0 0011-16.71c2.24-8.5 1.83-17.48 1.23-26.17-.01-.86-1.51-.87-1.45.1z"/><path class="cls-2" d="M350.42 3a345.4 345.4 0 0196.5 13.73l.19.05A347.27 347.27 0 01691.69 289.6a358.76 358.76 0 013.48 25 346.7 346.7 0 01-309.81 380.57 354.63 354.63 0 01-35.79 1.83 342.9 342.9 0 01-144-31.47A347.34 347.34 0 0110.83 423.26a.52.52 0 000-.11 344.17 344.17 0 01-5.56-34c-.16-1.23-.28-2.46-.42-3.78a349.12 349.12 0 01-.33-68A345.07 345.07 0 0155.21 167a350 350 0 0146.89-59.75A346 346 0 01261.29 14.5 351.44 351.44 0 01350.42 3m0-3a355.45 355.45 0 00-89.89 11.59A348.53 348.53 0 00100 105.12a352.9 352.9 0 00-47.29 60.27A348.69 348.69 0 001.85 385.66c.13 1.3.26 2.57.43 3.85a346 346 0 005.6 34.28 348.16 348.16 0 0094.67 173.69 351.83 351.83 0 00101.73 70.77A347.83 347.83 0 00349.57 700a354.66 354.66 0 0036.09-1.85c192.28-19.69 332.19-191.53 312.49-383.81q-1.3-12.79-3.5-25.26c-23.56-134-121.89-238.8-246.87-275.23A348.12 348.12 0 00350.42 0z"/></svg>