<svg width="1135" height="15853" xmlns="http://www.w3.org/2000/svg" xmlns:xlink="http://www.w3.org/1999/xlink"><defs><path d="M39.7 1.699l-6.51 18.444a3.371 3.371 0 00-.139 1.727l2.96 16.279a1.937 1.937 0 01-.345 1.5c-.3.419-.772.712-1.32.787l-16.391 2.142a3.376 3.376 0 00-1.603.657L.776 55.053c-1.335 1.013-.862 3.12.772 3.466L81.844 75.59c1.649.35 2.937-1.413 2.101-2.876L43.234 1.383a1.927 1.927 0 00-1.692-.986c-.773 0-1.54.448-1.842 1.302" id="a"/><path d="M39.7 1.699l-6.51 18.444a3.371 3.371 0 00-.139 1.727l2.96 16.279a1.937 1.937 0 01-.345 1.5c-.3.419-.772.712-1.32.787l-16.391 2.142a3.376 3.376 0 00-1.603.657L.776 55.053c-1.335 1.013-.862 3.12.772 3.466L81.844 75.59c1.649.35 2.937-1.413 2.101-2.876L43.234 1.383a1.927 1.927 0 00-1.692-.986c-.773 0-1.54.448-1.842 1.302z" id="c"/><path d="M39.7 1.699l-6.51 18.444a3.371 3.371 0 00-.139 1.727l2.96 16.279a1.937 1.937 0 01-.345 1.5c-.3.419-.772.712-1.32.787l-16.391 2.142a3.376 3.376 0 00-1.603.657L.776 55.053c-1.335 1.013-.862 3.12.772 3.466L81.844 75.59c1.649.35 2.937-1.413 2.101-2.876L43.234 1.383a1.927 1.927 0 00-1.692-.986c-.773 0-1.54.448-1.842 1.302" id="e"/><path d="M39.7 1.699l-6.51 18.444a3.371 3.371 0 00-.139 1.727l2.96 16.279a1.937 1.937 0 01-.345 1.5c-.3.419-.772.712-1.32.787l-16.391 2.142a3.376 3.376 0 00-1.603.657L.776 55.053c-1.335 1.013-.862 3.12.772 3.466L81.844 75.59c1.649.35 2.937-1.413 2.101-2.876L43.234 1.383a1.927 1.927 0 00-1.692-.986c-.773 0-1.54.448-1.842 1.302z" id="g"/><path d="M39.7 1.699l-6.51 18.444a3.371 3.371 0 00-.139 1.727l2.96 16.279a1.937 1.937 0 01-.345 1.5c-.3.419-.772.712-1.32.787l-16.391 2.142a3.376 3.376 0 00-1.603.657L.776 55.053c-1.335 1.013-.862 3.12.772 3.466L81.844 75.59c1.649.35 2.937-1.413 2.101-2.876L43.234 1.383a1.927 1.927 0 00-1.692-.986c-.773 0-1.54.448-1.842 1.302z" id="i"/><path d="M39.7 1.699l-6.51 18.444a3.371 3.371 0 00-.139 1.727l2.96 16.279a1.937 1.937 0 01-.345 1.5c-.3.419-.772.712-1.32.787l-16.391 2.142a3.376 3.376 0 00-1.603.657L.776 55.053c-1.335 1.013-.862 3.12.772 3.466L81.844 75.59c1.649.35 2.937-1.413 2.101-2.876L43.234 1.383a1.927 1.927 0 00-1.692-.986c-.773 0-1.54.448-1.842 1.302z" id="k"/><path d="M39.7 1.699l-6.51 18.444a3.371 3.371 0 00-.139 1.727l2.96 16.279a1.937 1.937 0 01-.345 1.5c-.3.419-.772.712-1.32.787l-16.391 2.142a3.376 3.376 0 00-1.603.657L.776 55.053c-1.335 1.013-.862 3.12.772 3.466L81.844 75.59c1.649.35 2.937-1.413 2.101-2.876L43.234 1.383a1.927 1.927 0 00-1.692-.986c-.773 0-1.54.448-1.842 1.302z" id="m"/><path d="M39.7 1.699l-6.51 18.444a3.371 3.371 0 00-.139 1.727l2.96 16.279a1.937 1.937 0 01-.345 1.5c-.3.419-.772.712-1.32.787l-16.391 2.142a3.376 3.376 0 00-1.603.657L.776 55.053c-1.335 1.013-.862 3.12.772 3.466L81.844 75.59c1.649.35 2.937-1.413 2.101-2.876L43.234 1.383a1.927 1.927 0 00-1.692-.986c-.773 0-1.54.448-1.842 1.302z" id="o"/></defs><g fill="none" fill-rule="evenodd"><path d="M643 32c207-62 426-30 464.67 121.427 35.428 138.733-109 278-279 320s-332.79-15-450-55c-117.21-40-246.79-29-326 47-79.21 76-41 169 0 186s79.21 0 79-33c-.21-33-38.79-41-63.79-15s8.58 139 103.79 185c95.21 46 310 4 451-47s402-83 462 0 24.79 185-63.21 245-43.79 125-10.79 132 74.33-35.427 33-77c-41.331-41.574-288 148-492 57s-429-61-507 48-35 226 30 303 266 188 474 127 323-93 438.157-26c115.157 67 220.842 378-46.158 489-94.248 39.182-237.022 40.346-382.083 5.52-247.917-59.52-543.917-73.52-554.917 165.48s318 390 541 306 569 8 566 282c-1.5 137.068-267 280-543 182s-564 37-564 250 263.282 312.278 572 246c177-38 535 12 532 211s-199 400-532 274-572 65-572 220 239 323 572 203 529 62 532 179-88 464-532 329-572 107-572 198 37 410 572 286 532 188.784 532 307c0 118.215-104 366-532 166S2 5864 2 6012s138.67 336.427 574 235c435.33-101.427 529 79 532 220s-161 348-532 239S6 6757 4 6922s127 357 572 249 538 96 535 228-169 292-535 180S6 7589 4 7737s104 356 572 265 532 146 532 249-153 321-532 199S4 8557 4 8706s207 307 572 202 532 116 532 248-163 404-532 272S4 9531 4 9669s127 360 572 233 532 150 532 260-186 354-532 230-572 14-572 156 161 337 572 225 532 144 532 269-169 318-532 197-570 64-572 185 104 334 572 206 532 116 532 221-195 273-532 189-572 87-572 260 239 309 572 201 532 26 532 158-194 295-532 214-572 100-572 247 161 309 572 205 532 123 532 222-210 378-532 202-574 56-574 192 163 332 574 166 532 29 532 172-203 355-532 222-574 43-572 237 207 348 572 208 535 49 532 210-260 320-532 205-574 32-572 229 160 261 564 260.085" stroke="#B7B9FA" stroke-width="4" stroke-dasharray="4,8"/><g transform="rotate(44 479.22 1395.146)"><mask id="b" fill="#fff"><use xlink:href="#a"/></mask><path d="M.774 55.056l16.288-12.362L86.102 76.5 1.548 58.523c-1.635-.348-2.106-2.456-.774-3.467" fill="#F4F4F4" fill-rule="nonzero" mask="url(#b)"/></g><g transform="rotate(44 479.22 1395.146)"><mask id="d" fill="#fff"><use xlink:href="#c"/></mask><path d="M.774 55.056l16.288-12.362L86.102 76.5 1.548 58.523c-1.635-.348-2.106-2.456-.774-3.467z" stroke="#B7B9FA" stroke-width="1.5" stroke-linecap="round" stroke-linejoin="round" mask="url(#d)"/></g><g transform="rotate(44 479.22 1395.146)"><mask id="f" fill="#fff"><use xlink:href="#e"/></mask><path d="M39.697 1.7l-6.803 19.293 53.208 55.506-42.87-75.118C42.405-.07 40.254.122 39.698 1.7" fill="#F4F4F4" fill-rule="nonzero" mask="url(#f)"/></g><g transform="rotate(44 479.22 1395.146)"><mask id="h" fill="#fff"><use xlink:href="#g"/></mask><path d="M39.697 1.7l-6.803 19.293 53.208 55.506-42.87-75.118C42.405-.07 40.254.122 39.698 1.7z" stroke="#B7B9FA" stroke-width="1.5" stroke-linecap="round" stroke-linejoin="round" mask="url(#h)"/></g><g transform="rotate(44 479.22 1395.146)"><mask id="j" fill="#fff"><use xlink:href="#i"/></mask><path d="M86.102 76.5l-69.04-33.807 17.28-2.256a1.946 1.946 0 001.325-.785L86.102 76.5z" fill="#ECECEC" fill-rule="nonzero" mask="url(#j)"/></g><g transform="rotate(44 479.22 1395.146)"><mask id="l" fill="#fff"><use xlink:href="#k"/></mask><path d="M86.102 76.5l-69.04-33.807 17.28-2.256a1.946 1.946 0 001.325-.785L86.102 76.5z" stroke="#B7B9FA" stroke-width="1.5" stroke-linecap="round" stroke-linejoin="round" mask="url(#l)"/></g><g transform="rotate(44 479.22 1395.146)"><mask id="n" fill="#fff"><use xlink:href="#m"/></mask><path d="M86.102 76.5L32.894 20.992l3.117 17.159c.1.55-.04 1.085-.344 1.501L86.102 76.5z" fill="#ECECEC" fill-rule="nonzero" mask="url(#n)"/></g><g transform="rotate(44 479.22 1395.146)"><mask id="p" fill="#fff"><use xlink:href="#o"/></mask><path d="M86.102 76.5L32.894 20.992l3.117 17.159c.1.55-.04 1.085-.344 1.501L86.102 76.5z" stroke="#B7B9FA" stroke-width="1.5" stroke-linecap="round" stroke-linejoin="round" mask="url(#p)"/></g><path d="M1113.521 169.288c-.415 1.633-2.567 2.006-3.51.61l-45.9-68.06c-.936-1.383.188-3.227 1.852-3.028l19.413 2.318c.584.07 1.138.29 1.61.64l13.28 9.846a1.94 1.94 0 001.496.35c.507-.082.98-.377 1.29-.838l9.179-13.766c.325-.49.773-.884 1.299-1.146l17.496-8.745c1.494-.748 3.172.602 2.76 2.227l-20.265 79.592z" stroke="#B7B9FA" stroke-width="1.5" stroke-linecap="round" stroke-linejoin="round"/></g></svg>