<svg width="1154" height="4265" xmlns="http://www.w3.org/2000/svg" xmlns:xlink="http://www.w3.org/1999/xlink"><defs><path d="M39.7 1.699l-6.51 18.444a3.371 3.371 0 00-.139 1.727l2.96 16.279a1.937 1.937 0 01-.345 1.5c-.3.419-.772.712-1.32.787l-16.391 2.142a3.376 3.376 0 00-1.603.657L.776 55.053c-1.335 1.013-.862 3.12.772 3.466L81.844 75.59c1.649.35 2.937-1.413 2.101-2.876L43.234 1.383a1.927 1.927 0 00-1.692-.986A1.93 1.93 0 0039.7 1.699" id="a"/><path d="M39.7 1.699l-6.51 18.444a3.371 3.371 0 00-.139 1.727l2.96 16.279a1.937 1.937 0 01-.345 1.5c-.3.419-.772.712-1.32.787l-16.391 2.142a3.376 3.376 0 00-1.603.657L.776 55.053c-1.335 1.013-.862 3.12.772 3.466L81.844 75.59c1.649.35 2.937-1.413 2.101-2.876L43.234 1.383a1.927 1.927 0 00-1.692-.986A1.93 1.93 0 0039.7 1.699z" id="c"/><path d="M39.7 1.699l-6.51 18.444a3.371 3.371 0 00-.139 1.727l2.96 16.279a1.937 1.937 0 01-.345 1.5c-.3.419-.772.712-1.32.787l-16.391 2.142a3.376 3.376 0 00-1.603.657L.776 55.053c-1.335 1.013-.862 3.12.772 3.466L81.844 75.59c1.649.35 2.937-1.413 2.101-2.876L43.234 1.383a1.927 1.927 0 00-1.692-.986A1.93 1.93 0 0039.7 1.699" id="e"/><path d="M39.7 1.699l-6.51 18.444a3.371 3.371 0 00-.139 1.727l2.96 16.279a1.937 1.937 0 01-.345 1.5c-.3.419-.772.712-1.32.787l-16.391 2.142a3.376 3.376 0 00-1.603.657L.776 55.053c-1.335 1.013-.862 3.12.772 3.466L81.844 75.59c1.649.35 2.937-1.413 2.101-2.876L43.234 1.383a1.927 1.927 0 00-1.692-.986A1.93 1.93 0 0039.7 1.699z" id="g"/><path d="M39.7 1.699l-6.51 18.444a3.371 3.371 0 00-.139 1.727l2.96 16.279a1.937 1.937 0 01-.345 1.5c-.3.419-.772.712-1.32.787l-16.391 2.142a3.376 3.376 0 00-1.603.657L.776 55.053c-1.335 1.013-.862 3.12.772 3.466L81.844 75.59c1.649.35 2.937-1.413 2.101-2.876L43.234 1.383a1.927 1.927 0 00-1.692-.986A1.93 1.93 0 0039.7 1.699z" id="i"/><path d="M39.7 1.699l-6.51 18.444a3.371 3.371 0 00-.139 1.727l2.96 16.279a1.937 1.937 0 01-.345 1.5c-.3.419-.772.712-1.32.787l-16.391 2.142a3.376 3.376 0 00-1.603.657L.776 55.053c-1.335 1.013-.862 3.12.772 3.466L81.844 75.59c1.649.35 2.937-1.413 2.101-2.876L43.234 1.383a1.927 1.927 0 00-1.692-.986A1.93 1.93 0 0039.7 1.699z" id="k"/><path d="M39.7 1.699l-6.51 18.444a3.371 3.371 0 00-.139 1.727l2.96 16.279a1.937 1.937 0 01-.345 1.5c-.3.419-.772.712-1.32.787l-16.391 2.142a3.376 3.376 0 00-1.603.657L.776 55.053c-1.335 1.013-.862 3.12.772 3.466L81.844 75.59c1.649.35 2.937-1.413 2.101-2.876L43.234 1.383a1.927 1.927 0 00-1.692-.986A1.93 1.93 0 0039.7 1.699z" id="m"/><path d="M39.7 1.699l-6.51 18.444a3.371 3.371 0 00-.139 1.727l2.96 16.279a1.937 1.937 0 01-.345 1.5c-.3.419-.772.712-1.32.787l-16.391 2.142a3.376 3.376 0 00-1.603.657L.776 55.053c-1.335 1.013-.862 3.12.772 3.466L81.844 75.59c1.649.35 2.937-1.413 2.101-2.876L43.234 1.383a1.927 1.927 0 00-1.692-.986A1.93 1.93 0 0039.7 1.699z" id="o"/></defs><g fill="none" fill-rule="evenodd"><path d="M908 12c108.667-24.667 175-2 199 68 36 105-109 278-279 320s-332.79-15-450-55c-117.21-40-246.79-29-326 47-79.21 76-41 169 0 186s79.21 0 79-33c-.21-33-38.79-41-63.79-15S75.79 669 171 715c95.21 46 310 4 451-47s402-83 462 0 24.79 185-63.21 245S977 1038 1010 1045s76-22 33-77-288 148-492 57-429-61-507 48-35 226 30 303 266 188 474 127 323-93 438.157-26C1101.314 1544 1207 1855 940 1966c-94.248 39.182-237.023 40.347-382.083 5.52C310 1912 14 1898 3 2137s318 390 541 306 569 8 566 282c-1.5 137.069-267 280-543 182S23 2953 3 3157s263.157 291 572 246 539 137 539 304-75 280-233 337-430-30-528-186c-95.683-152.312 52-277 155-235 20.212 8.242 42.924 32.44 51 40 47 44 0 44 0 44s-46-2 0-44c8.304-7.582 23-29 48-40 125.329-55.145 244 90 156 235-37.559 61.887-111.369 120.13-199.115 159.881-83.823 37.973-282.605 129.251-398.306 245.73" stroke="#B7B9FA" stroke-width="4" stroke-dasharray="4,8"/><g transform="rotate(58 548.309 1029.284)"><mask id="b" fill="#fff"><use xlink:href="#a"/></mask><path d="M.774 55.056l16.288-12.362L86.102 76.5 1.548 58.523c-1.635-.348-2.106-2.456-.774-3.467" fill="#F4F4F4" fill-rule="nonzero" mask="url(#b)"/></g><g transform="rotate(58 548.309 1029.284)"><mask id="d" fill="#fff"><use xlink:href="#c"/></mask><path d="M.774 55.056l16.288-12.362L86.102 76.5 1.548 58.523c-1.635-.348-2.106-2.456-.774-3.467z" stroke="#B7B9FA" stroke-width="1.5" stroke-linecap="round" stroke-linejoin="round" mask="url(#d)"/></g><g transform="rotate(58 548.309 1029.284)"><mask id="f" fill="#fff"><use xlink:href="#e"/></mask><path d="M39.697 1.7l-6.803 19.293 53.208 55.506-42.87-75.118C42.405-.07 40.254.122 39.698 1.7" fill="#F4F4F4" fill-rule="nonzero" mask="url(#f)"/></g><g transform="rotate(58 548.309 1029.284)"><mask id="h" fill="#fff"><use xlink:href="#g"/></mask><path d="M39.697 1.7l-6.803 19.293 53.208 55.506-42.87-75.118C42.405-.07 40.254.122 39.698 1.7z" stroke="#B7B9FA" stroke-width="1.5" stroke-linecap="round" stroke-linejoin="round" mask="url(#h)"/></g><g transform="rotate(58 548.309 1029.284)"><mask id="j" fill="#fff"><use xlink:href="#i"/></mask><path d="M86.102 76.5l-69.04-33.807 17.28-2.256a1.946 1.946 0 001.325-.785L86.102 76.5z" fill="#ECECEC" fill-rule="nonzero" mask="url(#j)"/></g><g transform="rotate(58 548.309 1029.284)"><mask id="l" fill="#fff"><use xlink:href="#k"/></mask><path d="M86.102 76.5l-69.04-33.807 17.28-2.256a1.946 1.946 0 001.325-.785L86.102 76.5z" stroke="#B7B9FA" stroke-width="1.5" stroke-linecap="round" stroke-linejoin="round" mask="url(#l)"/></g><g transform="rotate(58 548.309 1029.284)"><mask id="n" fill="#fff"><use xlink:href="#m"/></mask><path d="M86.102 76.5L32.894 20.992l3.117 17.159c.1.55-.04 1.085-.344 1.501L86.102 76.5z" fill="#ECECEC" fill-rule="nonzero" mask="url(#n)"/></g><g transform="rotate(58 548.309 1029.284)"><mask id="p" fill="#fff"><use xlink:href="#o"/></mask><path d="M86.102 76.5L32.894 20.992l3.117 17.159c.1.55-.04 1.085-.344 1.501L86.102 76.5z" stroke="#B7B9FA" stroke-width="1.5" stroke-linecap="round" stroke-linejoin="round" mask="url(#p)"/></g><path d="M1113.45 128.577c-.798 1.484-2.976 1.326-3.552-.257l-28.072-77.142c-.574-1.57.963-3.087 2.529-2.491l18.276 6.945c.55.21 1.034.558 1.408 1.012l10.502 12.766c.353.424.852.67 1.367.702a1.937 1.937 0 001.455-.503l12.236-11.135a3.364 3.364 0 011.538-.799l19.093-4.252c1.63-.364 2.932 1.352 2.139 2.829l-38.919 72.325z" stroke="#B7B9FA" stroke-width="1.5" stroke-linecap="round" stroke-linejoin="round"/></g></svg>