<?xml version="1.0" encoding="UTF-8"?>
<svg width="1135px" height="15853px" viewBox="0 0 1135 15853" version="1.1"
	xmlns="http://www.w3.org/2000/svg"
	xmlns:xlink="http://www.w3.org/1999/xlink">
	<!-- Generator: Sketch 59.1 (86144) - https://sketch.com -->
	<title>DearInternet_Plane+Path-Extra-Extended-2</title>
	<desc>Created with Sketch.</desc>
	<defs>
		<path d="M39.7005,1.69875 L33.18975,20.1435 C32.994,20.697 32.946,21.2925 33.051,21.87 L33.051,21.87 L36.01125,38.14875 C36.10875,38.69625 35.97375,39.23625 35.66625,39.64875 L35.66625,39.64875 C35.3655,40.068 34.89375,40.36125 34.34625,40.43625 L34.34625,40.43625 L17.955,42.5775 C17.37225,42.65325 16.8195,42.8805 16.3515,43.23525 L16.3515,43.23525 L0.77625,55.053 C-0.55875,56.0655 -0.08625,58.17375 1.548,58.51875 L1.548,58.51875 L81.8445,75.591 C83.493,75.9405 84.78075,74.178 83.94525,72.71475 L83.94525,72.71475 L43.23375,1.383 C42.852,0.717 42.195,0.39675 41.54175,0.39675 L41.54175,0.39675 C40.76925,0.39675 40.00125,0.84525 39.7005,1.69875" id="path-1"></path>
		<path d="M39.7005,1.69875 L33.18975,20.1435 C32.994,20.697 32.946,21.2925 33.051,21.87 L33.051,21.87 L36.01125,38.14875 C36.10875,38.69625 35.97375,39.23625 35.66625,39.64875 L35.66625,39.64875 C35.3655,40.068 34.89375,40.36125 34.34625,40.43625 L34.34625,40.43625 L17.955,42.5775 C17.37225,42.65325 16.8195,42.8805 16.3515,43.23525 L16.3515,43.23525 L0.77625,55.053 C-0.55875,56.0655 -0.08625,58.17375 1.548,58.51875 L1.548,58.51875 L81.8445,75.591 C83.493,75.9405 84.78075,74.178 83.94525,72.71475 L83.94525,72.71475 L43.23375,1.383 C42.852,0.717 42.195,0.39675 41.54175,0.39675 L41.54175,0.39675 C40.76925,0.39675 40.00125,0.84525 39.7005,1.69875 L39.7005,1.69875 Z" id="path-3"></path>
		<path d="M39.7005,1.69875 L33.18975,20.1435 C32.994,20.697 32.946,21.2925 33.051,21.87 L33.051,21.87 L36.01125,38.14875 C36.10875,38.69625 35.97375,39.23625 35.66625,39.64875 L35.66625,39.64875 C35.3655,40.068 34.89375,40.36125 34.34625,40.43625 L34.34625,40.43625 L17.955,42.5775 C17.37225,42.65325 16.8195,42.8805 16.3515,43.23525 L16.3515,43.23525 L0.77625,55.053 C-0.55875,56.0655 -0.08625,58.17375 1.548,58.51875 L1.548,58.51875 L81.8445,75.591 C83.493,75.9405 84.78075,74.178 83.94525,72.71475 L83.94525,72.71475 L43.23375,1.383 C42.852,0.717 42.195,0.39675 41.54175,0.39675 L41.54175,0.39675 C40.76925,0.39675 40.00125,0.84525 39.7005,1.69875" id="path-5"></path>
		<path d="M39.7005,1.69875 L33.18975,20.1435 C32.994,20.697 32.946,21.2925 33.051,21.87 L33.051,21.87 L36.01125,38.14875 C36.10875,38.69625 35.97375,39.23625 35.66625,39.64875 L35.66625,39.64875 C35.3655,40.068 34.89375,40.36125 34.34625,40.43625 L34.34625,40.43625 L17.955,42.5775 C17.37225,42.65325 16.8195,42.8805 16.3515,43.23525 L16.3515,43.23525 L0.77625,55.053 C-0.55875,56.0655 -0.08625,58.17375 1.548,58.51875 L1.548,58.51875 L81.8445,75.591 C83.493,75.9405 84.78075,74.178 83.94525,72.71475 L83.94525,72.71475 L43.23375,1.383 C42.852,0.717 42.195,0.39675 41.54175,0.39675 L41.54175,0.39675 C40.76925,0.39675 40.00125,0.84525 39.7005,1.69875 L39.7005,1.69875 Z" id="path-7"></path>
		<path d="M39.7005,1.69875 L33.18975,20.1435 C32.994,20.697 32.946,21.2925 33.051,21.87 L33.051,21.87 L36.01125,38.14875 C36.10875,38.69625 35.97375,39.23625 35.66625,39.64875 L35.66625,39.64875 C35.3655,40.068 34.89375,40.36125 34.34625,40.43625 L34.34625,40.43625 L17.955,42.5775 C17.37225,42.65325 16.8195,42.8805 16.3515,43.23525 L16.3515,43.23525 L0.77625,55.053 C-0.55875,56.0655 -0.08625,58.17375 1.548,58.51875 L1.548,58.51875 L81.8445,75.591 C83.493,75.9405 84.78075,74.178 83.94525,72.71475 L83.94525,72.71475 L43.23375,1.383 C42.852,0.717 42.195,0.39675 41.54175,0.39675 L41.54175,0.39675 C40.76925,0.39675 40.00125,0.84525 39.7005,1.69875 L39.7005,1.69875 Z" id="path-9"></path>
		<path d="M39.7005,1.69875 L33.18975,20.1435 C32.994,20.697 32.946,21.2925 33.051,21.87 L33.051,21.87 L36.01125,38.14875 C36.10875,38.69625 35.97375,39.23625 35.66625,39.64875 L35.66625,39.64875 C35.3655,40.068 34.89375,40.36125 34.34625,40.43625 L34.34625,40.43625 L17.955,42.5775 C17.37225,42.65325 16.8195,42.8805 16.3515,43.23525 L16.3515,43.23525 L0.77625,55.053 C-0.55875,56.0655 -0.08625,58.17375 1.548,58.51875 L1.548,58.51875 L81.8445,75.591 C83.493,75.9405 84.78075,74.178 83.94525,72.71475 L83.94525,72.71475 L43.23375,1.383 C42.852,0.717 42.195,0.39675 41.54175,0.39675 L41.54175,0.39675 C40.76925,0.39675 40.00125,0.84525 39.7005,1.69875 L39.7005,1.69875 Z" id="path-11"></path>
		<path d="M39.7005,1.69875 L33.18975,20.1435 C32.994,20.697 32.946,21.2925 33.051,21.87 L33.051,21.87 L36.01125,38.14875 C36.10875,38.69625 35.97375,39.23625 35.66625,39.64875 L35.66625,39.64875 C35.3655,40.068 34.89375,40.36125 34.34625,40.43625 L34.34625,40.43625 L17.955,42.5775 C17.37225,42.65325 16.8195,42.8805 16.3515,43.23525 L16.3515,43.23525 L0.77625,55.053 C-0.55875,56.0655 -0.08625,58.17375 1.548,58.51875 L1.548,58.51875 L81.8445,75.591 C83.493,75.9405 84.78075,74.178 83.94525,72.71475 L83.94525,72.71475 L43.23375,1.383 C42.852,0.717 42.195,0.39675 41.54175,0.39675 L41.54175,0.39675 C40.76925,0.39675 40.00125,0.84525 39.7005,1.69875 L39.7005,1.69875 Z" id="path-13"></path>
		<path d="M39.7005,1.69875 L33.18975,20.1435 C32.994,20.697 32.946,21.2925 33.051,21.87 L33.051,21.87 L36.01125,38.14875 C36.10875,38.69625 35.97375,39.23625 35.66625,39.64875 L35.66625,39.64875 C35.3655,40.068 34.89375,40.36125 34.34625,40.43625 L34.34625,40.43625 L17.955,42.5775 C17.37225,42.65325 16.8195,42.8805 16.3515,43.23525 L16.3515,43.23525 L0.77625,55.053 C-0.55875,56.0655 -0.08625,58.17375 1.548,58.51875 L1.548,58.51875 L81.8445,75.591 C83.493,75.9405 84.78075,74.178 83.94525,72.71475 L83.94525,72.71475 L43.23375,1.383 C42.852,0.717 42.195,0.39675 41.54175,0.39675 L41.54175,0.39675 C40.76925,0.39675 40.00125,0.84525 39.7005,1.69875 L39.7005,1.69875 Z" id="path-15"></path>
	</defs>
	<g id="Page-1" stroke="none" stroke-width="1" fill="none" fill-rule="evenodd">
		<g id="DearInternet_Plane+Path-Extra-Extended-2" transform="translate(2.000000, 2.000000)">
			<path d="M641,30 C848,-32 1067,-7.10820292e-14 1105.66949,151.426671 C1141.09752,290.160049 996.669487,429.426671 826.669487,471.426671 C656.669487,513.426671 493.87924,456.426671 376.669487,416.426671 C259.459734,376.426671 129.87924,387.426671 50.6694869,463.426671 C-28.5402663,539.426671 9.66948692,632.426671 50.6694869,649.426671 C91.6694869,666.426671 129.87924,649.426671 129.669487,616.426671 C129.459734,583.426671 90.8792401,575.426671 65.8792401,601.426671 C40.8792401,627.426671 74.4597337,740.426671 169.669487,786.426671 C264.87924,832.426671 479.669487,790.426671 620.669487,739.426671 C761.669487,688.426671 1022.66949,656.426671 1082.66949,739.426671 C1142.66949,822.426671 1107.45973,924.426671 1019.45973,984.42667 C931.459734,1044.42667 975.669487,1109.42667 1008.66949,1116.42667 C1041.66949,1123.42667 1083,1081 1041.66949,1039.42667 C1000.33897,997.85334 753.669487,1187.42667 549.669487,1096.42667 C345.669487,1005.42667 120.669487,1035.42667 42.6694869,1144.42667 C-35.3305131,1253.42667 7.66948692,1370.42667 72.6694869,1447.42667 C137.669487,1524.42667 338.669487,1635.42667 546.669487,1574.42667 C754.669487,1513.42667 869.669487,1481.42667 984.826686,1548.42667 C1099.98388,1615.42667 1205.66949,1926.42667 938.669487,2037.42667 C844.421168,2076.60856 701.646516,2077.77334 556.58637,2042.94702 C308.669487,1983.42667 12.6694869,1969.42667 1.66948692,2208.42667 C-9.33051308,2447.42667 319.669487,2598.42667 542.669487,2514.42667 C765.669487,2430.42667 1111.66949,2522.42667 1108.66949,2796.42667 C1107.16874,2933.49526 841.669487,3076.42667 565.669487,2978.42667 C289.669487,2880.42667 1.66948692,3015.42667 1.66948692,3228.42667 C1.66948692,3441.42667 264.951131,3540.70519 573.669487,3474.42667 C750.669487,3436.42667 1108.66949,3486.42667 1105.66949,3685.42667 C1102.66949,3884.42667 906.669487,4085.42667 573.669487,3959.42667 C240.669487,3833.42667 1.66948692,4024.42667 1.66948692,4179.42667 C1.66948692,4334.42667 240.669487,4502.42667 573.669487,4382.42667 C906.669487,4262.42667 1102.66949,4444.42667 1105.66949,4561.42667 C1108.66949,4678.42667 1017.66949,5025.42667 573.669487,4890.42667 C129.669487,4755.42667 1.66948692,4997.42667 1.66948692,5088.42667 C1.66948692,5179.42667 38.6694869,5498.42667 573.669487,5374.42667 C1108.66949,5250.42667 1105.66949,5563.21125 1105.66949,5681.42667 C1105.66949,5799.6421 1001.66949,6047.42667 573.669487,5847.42667 C145.669487,5647.42667 -4.54747351e-13,5862 -4.54747351e-13,6010 C-4.54747351e-13,6158 138.669487,6346.42667 574,6245 C1009.33051,6143.57333 1103,6324 1106,6465 C1109,6606 945,6813 574,6704 C203,6595 4,6755 2,6920 C-4.54747351e-13,7085 129,7277 574,7169 C1019,7061 1112,7265 1109,7397 C1106,7529 940,7689 574,7577 C208,7465 4,7587 2,7735 C-4.54747351e-13,7883 106,8091 574,8000 C1042,7909 1106,8146 1106,8249 C1106,8352 953,8570 574,8448 C195,8326 2,8555 2,8704 C2,8853 209,9011 574,8906 C939,8801 1106,9022 1106,9154 C1106,9286 943,9558 574,9426 C205,9294 2,9529 2,9667 C2,9805 129,10027 574,9900 C1019,9773 1106,10050 1106,10160 C1106,10270 920,10514 574,10390 C228,10266 2,10404 2,10546 C2,10688 163,10883 574,10771 C985,10659 1106,10915 1106,11040 C1106,11165 937,11358 574,11237 C211,11116 4,11301 2,11422 C-4.54747351e-13,11543 106,11756 574,11628 C1042,11500 1106,11744 1106,11849 C1106,11954 911,12122 574,12038 C237,11954 2,12125 2,12298 C2,12471 241,12607 574,12499 C907,12391 1106,12525 1106,12657 C1106,12789 912,12952 574,12871 C236,12790 2,12971 2,13118 C2,13265 163,13427 574,13323 C985,13219 1106,13446 1106,13545 C1106,13644 896,13923 574,13747 C252,13571 -4.54747351e-13,13803 -4.54747351e-13,13939 C-4.54747351e-13,14075 163,14271 574,14105 C985,13939 1106,14134 1106,14277 C1106,14420 903,14632 574,14499 C245,14366 -4.54747351e-13,14542 2,14736 C4,14930 209,15084 574,14944 C939,14804 1109,14993 1106,15154 C1103,15315 846,15474 574,15359 C302,15244 -4.54747351e-13,15391 2,15588 C4,15785 162,15849 566,15848.0853" id="path" stroke="#B7B9FA" stroke-width="4" stroke-dasharray="4,8"></path>
			<g id="plane" transform="translate(1105.720764, 113.631815) rotate(44.000000) translate(-1105.720764, -113.631815) translate(1063.220764, 75.131815)">
				<g id="Group-25" transform="translate(0.000000, 0.353250)">
					<g id="Group-3">
						<g id="Fill-1-Clipped">
							<mask id="mask-2" fill="white">
								<use xlink:href="#path-1"></use>
							</mask>
							<g id="path-1"></g>
							<path d="M0.77385,55.05585 L17.06235,42.69435 L86.1021,76.49985 L1.54785,58.5231 C-0.08715,58.1751 -0.55815,56.06685 0.77385,55.05585" id="Fill-1" fill="#F4F4F4" fill-rule="nonzero" mask="url(#mask-2)"></path>
						</g>
					</g>
					<g id="Group-6">
						<g id="Stroke-4-Clipped">
							<mask id="mask-4" fill="white">
								<use xlink:href="#path-3"></use>
							</mask>
							<g id="path-3"></g>
							<path d="M0.77385,55.05585 L17.06235,42.69435 L86.1021,76.49985 L1.54785,58.5231 C-0.08715,58.1751 -0.55815,56.06685 0.77385,55.05585 Z" id="Stroke-4" stroke="#B7B9FA" stroke-width="1.5" stroke-linecap="round" stroke-linejoin="round" mask="url(#mask-4)"></path>
						</g>
					</g>
					<g id="Group-9">
						<g id="Fill-7-Clipped">
							<mask id="mask-6" fill="white">
								<use xlink:href="#path-5"></use>
							</mask>
							<g id="path-5"></g>
							<path d="M39.697275,1.699575 L32.894025,20.992575 L86.102025,76.499325 L43.232775,1.380825 C42.404025,-0.070425 40.253025,0.122325 39.697275,1.699575" id="Fill-7" fill="#F4F4F4" fill-rule="nonzero" mask="url(#mask-6)"></path>
						</g>
					</g>
					<g id="Group-12">
						<g id="Stroke-10-Clipped">
							<mask id="mask-8" fill="white">
								<use xlink:href="#path-7"></use>
							</mask>
							<g id="path-7"></g>
							<path d="M39.697275,1.699575 L32.894025,20.992575 L86.102025,76.499325 L43.232775,1.380825 C42.404025,-0.070425 40.253025,0.122325 39.697275,1.699575 Z" id="Stroke-10" stroke="#B7B9FA" stroke-width="1.5" stroke-linecap="round" stroke-linejoin="round" mask="url(#mask-8)"></path>
						</g>
					</g>
					<g id="Group-15">
						<g id="Fill-13-Clipped">
							<mask id="mask-10" fill="white">
								<use xlink:href="#path-9"></use>
							</mask>
							<g id="path-9"></g>
							<path d="M86.101725,76.4997 L17.062725,42.69345 L34.342725,40.43745 C34.896975,40.3647 35.363475,40.06845 35.667225,39.6522 L86.101725,76.4997 Z" id="Fill-13" fill="#ECECEC" fill-rule="nonzero" mask="url(#mask-10)"></path>
						</g>
					</g>
					<g id="Group-18">
						<g id="Stroke-16-Clipped">
							<mask id="mask-12" fill="white">
								<use xlink:href="#path-11"></use>
							</mask>
							<g id="path-11"></g>
							<path d="M86.101725,76.4997 L17.062725,42.69345 L34.342725,40.43745 C34.896975,40.3647 35.363475,40.06845 35.667225,39.6522 L86.101725,76.4997 Z" id="Stroke-16" stroke="#B7B9FA" stroke-width="1.5" stroke-linecap="round" stroke-linejoin="round" mask="url(#mask-12)"></path>
						</g>
					</g>
					<g id="Group-21">
						<g id="Fill-19-Clipped">
							<mask id="mask-14" fill="white">
								<use xlink:href="#path-13"></use>
							</mask>
							<g id="path-13"></g>
							<path d="M86.101725,76.4997 L32.893725,20.9922 L36.010725,38.1507 C36.111225,38.7012 35.970975,39.23595 35.667225,39.6522 L86.101725,76.4997 Z" id="Fill-19" fill="#ECECEC" fill-rule="nonzero" mask="url(#mask-14)"></path>
						</g>
					</g>
					<g id="Group-24">
						<g id="Stroke-22-Clipped">
							<mask id="mask-16" fill="white">
								<use xlink:href="#path-15"></use>
							</mask>
							<g id="path-15"></g>
							<path d="M86.101725,76.4997 L32.893725,20.9922 L36.010725,38.1507 C36.111225,38.7012 35.970975,39.23595 35.667225,39.6522 L86.101725,76.4997 Z" id="Stroke-22" stroke="#B7B9FA" stroke-width="1.5" stroke-linecap="round" stroke-linejoin="round" mask="url(#mask-16)"></path>
						</g>
					</g>
				</g>
				<path d="M83.9451,73.067775 C84.7806,74.531025 83.4921,76.294275 81.84435,75.944025 L1.5486,58.871775 C-0.0864,58.526775 -0.5589,56.419275 0.7761,55.406775 L16.35135,43.588275 C16.8201,43.233525 17.3721,43.007025 17.95485,42.930525 L34.3461,40.789275 C34.8936,40.714275 35.3661,40.421775 35.6661,40.001775 C35.9736,39.589275 36.1086,39.049275 36.0111,38.501775 L33.0516,22.223775 C32.94585,21.645525 32.99385,21.050775 33.1896,20.496525 L39.7011,2.051775 C40.2561,0.476775 42.4011,0.281775 43.2336,1.736775 L83.9451,73.067775 Z" id="Stroke-26" stroke="#B7B9FA" stroke-width="1.5" stroke-linecap="round" stroke-linejoin="round"></path>
			</g>
		</g>
	</g>
</svg>
