<svg width="1163" height="6197" xmlns="http://www.w3.org/2000/svg" xmlns:xlink="http://www.w3.org/1999/xlink"><defs><path d="M39.7 1.699l-6.51 18.444a3.371 3.371 0 00-.139 1.727l2.96 16.279a1.937 1.937 0 01-.345 1.5c-.3.419-.772.712-1.32.787l-16.391 2.142a3.376 3.376 0 00-1.603.657L.776 55.053c-1.335 1.013-.862 3.12.772 3.466L81.844 75.59c1.649.35 2.937-1.413 2.101-2.876L43.234 1.383a1.927 1.927 0 00-1.692-.986c-.773 0-1.54.448-1.842 1.302" id="a"/><path d="M39.7 1.699l-6.51 18.444a3.371 3.371 0 00-.139 1.727l2.96 16.279a1.937 1.937 0 01-.345 1.5c-.3.419-.772.712-1.32.787l-16.391 2.142a3.376 3.376 0 00-1.603.657L.776 55.053c-1.335 1.013-.862 3.12.772 3.466L81.844 75.59c1.649.35 2.937-1.413 2.101-2.876L43.234 1.383a1.927 1.927 0 00-1.692-.986c-.773 0-1.54.448-1.842 1.302z" id="c"/><path d="M39.7 1.699l-6.51 18.444a3.371 3.371 0 00-.139 1.727l2.96 16.279a1.937 1.937 0 01-.345 1.5c-.3.419-.772.712-1.32.787l-16.391 2.142a3.376 3.376 0 00-1.603.657L.776 55.053c-1.335 1.013-.862 3.12.772 3.466L81.844 75.59c1.649.35 2.937-1.413 2.101-2.876L43.234 1.383a1.927 1.927 0 00-1.692-.986c-.773 0-1.54.448-1.842 1.302" id="e"/><path d="M39.7 1.699l-6.51 18.444a3.371 3.371 0 00-.139 1.727l2.96 16.279a1.937 1.937 0 01-.345 1.5c-.3.419-.772.712-1.32.787l-16.391 2.142a3.376 3.376 0 00-1.603.657L.776 55.053c-1.335 1.013-.862 3.12.772 3.466L81.844 75.59c1.649.35 2.937-1.413 2.101-2.876L43.234 1.383a1.927 1.927 0 00-1.692-.986c-.773 0-1.54.448-1.842 1.302z" id="g"/><path d="M39.7 1.699l-6.51 18.444a3.371 3.371 0 00-.139 1.727l2.96 16.279a1.937 1.937 0 01-.345 1.5c-.3.419-.772.712-1.32.787l-16.391 2.142a3.376 3.376 0 00-1.603.657L.776 55.053c-1.335 1.013-.862 3.12.772 3.466L81.844 75.59c1.649.35 2.937-1.413 2.101-2.876L43.234 1.383a1.927 1.927 0 00-1.692-.986c-.773 0-1.54.448-1.842 1.302z" id="i"/><path d="M39.7 1.699l-6.51 18.444a3.371 3.371 0 00-.139 1.727l2.96 16.279a1.937 1.937 0 01-.345 1.5c-.3.419-.772.712-1.32.787l-16.391 2.142a3.376 3.376 0 00-1.603.657L.776 55.053c-1.335 1.013-.862 3.12.772 3.466L81.844 75.59c1.649.35 2.937-1.413 2.101-2.876L43.234 1.383a1.927 1.927 0 00-1.692-.986c-.773 0-1.54.448-1.842 1.302z" id="k"/><path d="M39.7 1.699l-6.51 18.444a3.371 3.371 0 00-.139 1.727l2.96 16.279a1.937 1.937 0 01-.345 1.5c-.3.419-.772.712-1.32.787l-16.391 2.142a3.376 3.376 0 00-1.603.657L.776 55.053c-1.335 1.013-.862 3.12.772 3.466L81.844 75.59c1.649.35 2.937-1.413 2.101-2.876L43.234 1.383a1.927 1.927 0 00-1.692-.986c-.773 0-1.54.448-1.842 1.302z" id="m"/><path d="M39.7 1.699l-6.51 18.444a3.371 3.371 0 00-.139 1.727l2.96 16.279a1.937 1.937 0 01-.345 1.5c-.3.419-.772.712-1.32.787l-16.391 2.142a3.376 3.376 0 00-1.603.657L.776 55.053c-1.335 1.013-.862 3.12.772 3.466L81.844 75.59c1.649.35 2.937-1.413 2.101-2.876L43.234 1.383a1.927 1.927 0 00-1.692-.986c-.773 0-1.54.448-1.842 1.302z" id="o"/></defs><g fill="none" fill-rule="evenodd"><path d="M912 12c108.667-24.667 175-2 199 68 36 105-109 278-279 320s-332.79-15-450-55c-117.21-40-246.79-29-326 47-79.21 76-41 169 0 186s79.21 0 79-33c-.21-33-38.79-41-63.79-15S79.79 669 175 715c95.21 46 310 4 451-47s402-83 462 0 24.79 185-63.21 245S981 1038 1014 1045s76-22 33-77-288 148-492 57-429-61-507 48-35 226 30 303 266 188 474 127 323-93 438.157-26C1105.314 1544 1211 1855 944 1966c-94.248 39.182-237.023 40.347-382.083 5.52C314 1912 18 1898 7 2137s318 390 541 306 569 8 566 282c-1.5 137.069-267 280-543 182S7 2944 7 3157s263.282 312.279 572 246c177-38 535 12 532 211s-199 400-532 274S7 3953 7 4108s239 323 572 203 529 62 532 179-88 464-532 329S7 4926 7 5017s37 410 572 286c356.667-82.667 534 19.667 532 307-69.333 244-246.667 299.333-532 166-428-200-572 34-572 92s-95 336 572 326" stroke="#B7B9FA" stroke-width="4" stroke-dasharray="4,8"/><g transform="rotate(68 533.17 877.177)"><mask id="b" fill="#fff"><use xlink:href="#a"/></mask><path d="M.774 55.056l16.288-12.362L86.102 76.5 1.548 58.523c-1.635-.348-2.106-2.456-.774-3.467" fill="#F4F4F4" fill-rule="nonzero" mask="url(#b)"/></g><g transform="rotate(68 533.17 877.177)"><mask id="d" fill="#fff"><use xlink:href="#c"/></mask><path d="M.774 55.056l16.288-12.362L86.102 76.5 1.548 58.523c-1.635-.348-2.106-2.456-.774-3.467z" stroke="#B7B9FA" stroke-width="1.5" stroke-linecap="round" stroke-linejoin="round" mask="url(#d)"/></g><g transform="rotate(68 533.17 877.177)"><mask id="f" fill="#fff"><use xlink:href="#e"/></mask><path d="M39.697 1.7l-6.803 19.293 53.208 55.506-42.87-75.118C42.405-.07 40.254.122 39.698 1.7" fill="#F4F4F4" fill-rule="nonzero" mask="url(#f)"/></g><g transform="rotate(68 533.17 877.177)"><mask id="h" fill="#fff"><use xlink:href="#g"/></mask><path d="M39.697 1.7l-6.803 19.293 53.208 55.506-42.87-75.118C42.405-.07 40.254.122 39.698 1.7z" stroke="#B7B9FA" stroke-width="1.5" stroke-linecap="round" stroke-linejoin="round" mask="url(#h)"/></g><g transform="rotate(68 533.17 877.177)"><mask id="j" fill="#fff"><use xlink:href="#i"/></mask><path d="M86.102 76.5l-69.04-33.807 17.28-2.256a1.946 1.946 0 001.325-.785L86.102 76.5z" fill="#ECECEC" fill-rule="nonzero" mask="url(#j)"/></g><g transform="rotate(68 533.17 877.177)"><mask id="l" fill="#fff"><use xlink:href="#k"/></mask><path d="M86.102 76.5l-69.04-33.807 17.28-2.256a1.946 1.946 0 001.325-.785L86.102 76.5z" stroke="#B7B9FA" stroke-width="1.5" stroke-linecap="round" stroke-linejoin="round" mask="url(#l)"/></g><g transform="rotate(68 533.17 877.177)"><mask id="n" fill="#fff"><use xlink:href="#m"/></mask><path d="M86.102 76.5L32.894 20.992l3.117 17.159c.1.55-.04 1.085-.344 1.501L86.102 76.5z" fill="#ECECEC" fill-rule="nonzero" mask="url(#n)"/></g><g transform="rotate(68 533.17 877.177)"><mask id="p" fill="#fff"><use xlink:href="#o"/></mask><path d="M86.102 76.5L32.894 20.992l3.117 17.159c.1.55-.04 1.085-.344 1.501L86.102 76.5z" stroke="#B7B9FA" stroke-width="1.5" stroke-linecap="round" stroke-linejoin="round" mask="url(#p)"/></g><path d="M1110.772 159.306c-1.044 1.323-3.161.789-3.454-.87l-14.25-80.844c-.293-1.646 1.484-2.873 2.923-2.015l16.793 10.014c.504.302.921.729 1.21 1.24l8.126 14.396c.274.48.723.808 1.224.929.498.13 1.05.053 1.52-.242l13.984-8.842a3.366 3.366 0 011.654-.519l19.54-.872c1.669-.076 2.653 1.84 1.616 3.157l-50.886 64.468z" stroke="#B7B9FA" stroke-width="1.5" stroke-linecap="round" stroke-linejoin="round"/></g></svg>