<svg width="1116" height="4318" xmlns="http://www.w3.org/2000/svg" xmlns:xlink="http://www.w3.org/1999/xlink"><defs><path d="M39.7 1.699l-6.51 18.444a3.371 3.371 0 00-.139 1.727l2.96 16.279a1.937 1.937 0 01-.345 1.5c-.3.419-.772.712-1.32.787l-16.391 2.142a3.376 3.376 0 00-1.603.657L.776 55.053c-1.335 1.013-.862 3.12.772 3.466L81.844 75.59c1.649.35 2.937-1.413 2.101-2.876L43.234 1.383a1.927 1.927 0 00-1.692-.986c-.773 0-1.54.448-1.842 1.302" id="a"/><path d="M39.7 1.699l-6.51 18.444a3.371 3.371 0 00-.139 1.727l2.96 16.279a1.937 1.937 0 01-.345 1.5c-.3.419-.772.712-1.32.787l-16.391 2.142a3.376 3.376 0 00-1.603.657L.776 55.053c-1.335 1.013-.862 3.12.772 3.466L81.844 75.59c1.649.35 2.937-1.413 2.101-2.876L43.234 1.383a1.927 1.927 0 00-1.692-.986c-.773 0-1.54.448-1.842 1.302z" id="c"/><path d="M39.7 1.699l-6.51 18.444a3.371 3.371 0 00-.139 1.727l2.96 16.279a1.937 1.937 0 01-.345 1.5c-.3.419-.772.712-1.32.787l-16.391 2.142a3.376 3.376 0 00-1.603.657L.776 55.053c-1.335 1.013-.862 3.12.772 3.466L81.844 75.59c1.649.35 2.937-1.413 2.101-2.876L43.234 1.383a1.927 1.927 0 00-1.692-.986c-.773 0-1.54.448-1.842 1.302" id="e"/><path d="M39.7 1.699l-6.51 18.444a3.371 3.371 0 00-.139 1.727l2.96 16.279a1.937 1.937 0 01-.345 1.5c-.3.419-.772.712-1.32.787l-16.391 2.142a3.376 3.376 0 00-1.603.657L.776 55.053c-1.335 1.013-.862 3.12.772 3.466L81.844 75.59c1.649.35 2.937-1.413 2.101-2.876L43.234 1.383a1.927 1.927 0 00-1.692-.986c-.773 0-1.54.448-1.842 1.302z" id="g"/><path d="M39.7 1.699l-6.51 18.444a3.371 3.371 0 00-.139 1.727l2.96 16.279a1.937 1.937 0 01-.345 1.5c-.3.419-.772.712-1.32.787l-16.391 2.142a3.376 3.376 0 00-1.603.657L.776 55.053c-1.335 1.013-.862 3.12.772 3.466L81.844 75.59c1.649.35 2.937-1.413 2.101-2.876L43.234 1.383a1.927 1.927 0 00-1.692-.986c-.773 0-1.54.448-1.842 1.302z" id="i"/><path d="M39.7 1.699l-6.51 18.444a3.371 3.371 0 00-.139 1.727l2.96 16.279a1.937 1.937 0 01-.345 1.5c-.3.419-.772.712-1.32.787l-16.391 2.142a3.376 3.376 0 00-1.603.657L.776 55.053c-1.335 1.013-.862 3.12.772 3.466L81.844 75.59c1.649.35 2.937-1.413 2.101-2.876L43.234 1.383a1.927 1.927 0 00-1.692-.986c-.773 0-1.54.448-1.842 1.302z" id="k"/><path d="M39.7 1.699l-6.51 18.444a3.371 3.371 0 00-.139 1.727l2.96 16.279a1.937 1.937 0 01-.345 1.5c-.3.419-.772.712-1.32.787l-16.391 2.142a3.376 3.376 0 00-1.603.657L.776 55.053c-1.335 1.013-.862 3.12.772 3.466L81.844 75.59c1.649.35 2.937-1.413 2.101-2.876L43.234 1.383a1.927 1.927 0 00-1.692-.986c-.773 0-1.54.448-1.842 1.302z" id="m"/><path d="M39.7 1.699l-6.51 18.444a3.371 3.371 0 00-.139 1.727l2.96 16.279a1.937 1.937 0 01-.345 1.5c-.3.419-.772.712-1.32.787l-16.391 2.142a3.376 3.376 0 00-1.603.657L.776 55.053c-1.335 1.013-.862 3.12.772 3.466L81.844 75.59c1.649.35 2.937-1.413 2.101-2.876L43.234 1.383a1.927 1.927 0 00-1.692-.986c-.773 0-1.54.448-1.842 1.302z" id="o"/></defs><g fill="none" fill-rule="evenodd"><path d="M908 64c108.667-24.667 175-2 199 68 36 105-109 278-279 320s-332.79-15-450-55c-117.21-40-246.79-29-326 47-79.21 76-41 169 0 186s79.21 0 79-33c-.21-33-38.79-41-63.79-15S75.79 721 171 767c95.21 46 310 4 451-47s402-83 462 0 24.79 185-63.21 245S977 1090 1010 1097s76-22 33-77-288 148-492 57-429-61-507 48-35 226 30 303 266 188 474 127 323-93 438.157-26C1101.314 1596 1207 1907 940 2018c-94.248 39.182-237.023 40.347-382.083 5.52C310 1964 14 1950 3 2189s318 390 541 306 569 8 566 282c-1.5 137.069-267 280-543 182S23 3005 3 3209s263.157 291 572 246 539 137 539 304-75 280-233 337-430-30-528-186c-95.683-152.312 52-277 155-235 20.212 8.242 42.924 32.44 51 40 47 44 0 44 0 44s-46-2 0-44c8.304-7.582 23-29 48-40 125.329-55.145 244 90 156 235-37.559 61.887-111.369 120.13-199.115 159.881-83.823 37.973-282.605 129.251-398.306 245.73" stroke="#B7B9FA" stroke-width="4" stroke-dasharray="4,8"/><g transform="rotate(-45 500.54 -999.415)"><mask id="b" fill="#fff"><use xlink:href="#a"/></mask><path d="M.774 55.056l16.288-12.362L86.102 76.5 1.548 58.523c-1.635-.348-2.106-2.456-.774-3.467" fill="#F4F4F4" mask="url(#b)"/></g><g transform="rotate(-45 500.54 -999.415)"><mask id="d" fill="#fff"><use xlink:href="#c"/></mask><path d="M.774 55.056l16.288-12.362L86.102 76.5 1.548 58.523c-1.635-.348-2.106-2.456-.774-3.467z" stroke="#B7B9FA" stroke-width="1.5" stroke-linecap="round" stroke-linejoin="round" mask="url(#d)"/></g><g transform="rotate(-45 500.54 -999.415)"><mask id="f" fill="#fff"><use xlink:href="#e"/></mask><path d="M39.697 1.7l-6.803 19.293 53.208 55.506-42.87-75.118C42.405-.07 40.254.122 39.698 1.7" fill="#F4F4F4" mask="url(#f)"/></g><g transform="rotate(-45 500.54 -999.415)"><mask id="h" fill="#fff"><use xlink:href="#g"/></mask><path d="M39.697 1.7l-6.803 19.293 53.208 55.506-42.87-75.118C42.405-.07 40.254.122 39.698 1.7z" stroke="#B7B9FA" stroke-width="1.5" stroke-linecap="round" stroke-linejoin="round" mask="url(#h)"/></g><g transform="rotate(-45 500.54 -999.415)"><mask id="j" fill="#fff"><use xlink:href="#i"/></mask><path d="M86.102 76.5l-69.04-33.807 17.28-2.256a1.946 1.946 0 001.325-.785L86.102 76.5z" fill="#ECECEC" mask="url(#j)"/></g><g transform="rotate(-45 500.54 -999.415)"><mask id="l" fill="#fff"><use xlink:href="#k"/></mask><path d="M86.102 76.5l-69.04-33.807 17.28-2.256a1.946 1.946 0 001.325-.785L86.102 76.5z" stroke="#B7B9FA" stroke-width="1.5" stroke-linecap="round" stroke-linejoin="round" mask="url(#l)"/></g><g transform="rotate(-45 500.54 -999.415)"><mask id="n" fill="#fff"><use xlink:href="#m"/></mask><path d="M86.102 76.5L32.894 20.992l3.117 17.159c.1.55-.04 1.085-.344 1.501L86.102 76.5z" fill="#ECECEC" mask="url(#n)"/></g><g transform="rotate(-45 500.54 -999.415)"><mask id="p" fill="#fff"><use xlink:href="#o"/></mask><path d="M86.102 76.5L32.894 20.992l3.117 17.159c.1.55-.04 1.085-.344 1.501L86.102 76.5z" stroke="#B7B9FA" stroke-width="1.5" stroke-linecap="round" stroke-linejoin="round" mask="url(#p)"/></g><path d="M964.073 53.272c1.625.444 1.961 2.602.548 3.519l-68.85 44.706c-1.4.912-3.224-.244-2.996-1.904l2.657-19.37c.08-.583.31-1.133.669-1.6l10.076-13.104a1.94 1.94 0 00.376-1.49 1.937 1.937 0 00-.816-1.305l-13.603-9.417a3.366 3.366 0 01-1.124-1.32l-8.438-17.646c-.721-1.506.657-3.16 2.275-2.72l79.226 21.65z" stroke="#B7B9FA" stroke-width="1.5" stroke-linecap="round" stroke-linejoin="round"/></g></svg>