<svg width="1116" height="4265" xmlns="http://www.w3.org/2000/svg"><path d="M908 12c108.667-24.667 175-2 199 68 36 105-109 278-279 320s-332.79-15-450-55c-117.21-40-246.79-29-326 47-79.21 76-41 169 0 186s79.21 0 79-33c-.21-33-38.79-41-63.79-15S75.79 669 171 715c95.21 46 310 4 451-47s402-83 462 0 24.79 185-63.21 245S977 1038 1010 1045s76-22 33-77-288 148-492 57-429-61-507 48-35 226 30 303 266 188 474 127 323-93 438.157-26C1101.314 1544 1207 1855 940 1966c-94.248 39.182-237.023 40.347-382.083 5.52C310 1912 14 1898 3 2137s318 390 541 306 569 8 566 282c-1.5 137.069-267 280-543 182S23 2953 3 3157s263.157 291 572 246 539 137 539 304-75 280-233 337-430-30-528-186c-95.683-152.312 52-277 155-235 20.212 8.242 42.924 32.44 51 40 47 44 0 44 0 44s-46-2 0-44c8.304-7.582 23-29 48-40 125.329-55.145 244 90 156 235-37.559 61.887-111.369 120.13-199.115 159.881-83.823 37.973-282.605 129.251-398.306 245.73" stroke="#B7B9FA" stroke-width="4" fill="none" fill-rule="evenodd" stroke-dasharray="4,8"/></svg>