<svg id="Layer_1" data-name="Layer 1" xmlns="http://www.w3.org/2000/svg" viewBox="0 0 196.54 102.74"><defs><style>.cls-1{fill:#112dcb}</style></defs><path class="cls-1" d="M0 47.06c16.47 0 24.83-7.15 32.92-14.06s16.31-13.94 32.59-13.94S90.09 26.15 98.11 33 114.56 47.06 131 47.06s24.86-7.15 33-14.06 16.3-13.94 32.59-13.94v-.5c-16.47 0-24.83 7.15-32.92 14.06S147.31 46.56 131 46.56s-24.58-7.09-32.6-13.94S82 18.56 65.51 18.56s-24.83 7.15-32.92 14.06S16.29 46.56 0 46.56z"/><path class="cls-1" d="M0 28.5c16.47 0 24.83-7.15 32.92-14.06S49.23.5 65.51.5s24.58 7.09 32.6 13.94S114.56 28.5 131 28.5s24.86-7.15 33-14.06S180.25.5 196.54.5V0c-16.47 0-24.83 7.15-32.92 14.06S147.31 28 131 28s-24.58-7.09-32.6-13.94S82 0 65.51 0 40.68 7.15 32.59 14.06 16.29 28 0 28zm0 37.12c16.47 0 24.83-7.15 32.92-14.06s16.31-13.94 32.59-13.94 24.58 7.09 32.6 13.94S114.56 65.62 131 65.62s24.86-7.15 33-14.06 16.3-13.94 32.59-13.94v-.5c-16.47 0-24.83 7.15-32.92 14.06S147.31 65.12 131 65.12 106.45 58 98.43 51.18 82 37.12 65.51 37.12s-24.83 7.15-32.92 14.06S16.29 65.12 0 65.12z"/><path class="cls-1" d="M0 84.18c16.47 0 24.83-7.15 32.92-14.06s16.31-13.94 32.59-13.94 24.58 7.09 32.6 13.94S114.56 84.18 131 84.18s24.86-7.18 33-14.06 16.3-13.94 32.59-13.94v-.5c-16.47 0-24.83 7.15-32.92 14.06S147.31 83.68 131 83.68s-24.58-7.09-32.6-13.94S82 55.68 65.51 55.68s-24.83 7.15-32.92 14.06S16.29 83.68 0 83.68z"/><path class="cls-1" d="M0 102.74c16.47 0 24.83-7.15 32.92-14.06s16.31-13.94 32.59-13.94 24.58 7.09 32.6 13.94 16.45 14.06 32.92 14.06 24.83-7.15 32.97-14.06 16.3-13.94 32.59-13.94v-.5c-16.47 0-24.83 7.15-32.92 14.06s-16.36 13.94-32.67 13.94-24.58-7.09-32.6-13.94S82 74.24 65.51 74.24 40.68 81.39 32.59 88.3 16.29 102.24 0 102.24z"/></svg>