<svg id="Layer_1" data-name="Layer 1" xmlns="http://www.w3.org/2000/svg" viewBox="0 0 161.4 161.4"><defs><style>.cls-1{fill:#112dcb}.cls-4{fill:#fff}.cls-8{fill:#112dca}</style></defs><path class="cls-1" transform="rotate(-45 15.162 82.45)" d="M12.92 80.22h4.47v4.47h-4.47z"/><path class="cls-1" d="M21.48 79.29l-3.16 3.16-3.16-3.16 3.12-3.12.04-.04 3.16 3.16zm-6.32 0L12 82.45l-3.14-3.14-.02-.02L12 76.13l.04.05 3.12 3.11z"/><path class="cls-1" transform="rotate(-45 146.173 82.453)" d="M143.94 80.22h4.47v4.47h-4.47z"/><path class="cls-1" d="M152.5 79.29l-3.17 3.16-3.16-3.16 3.12-3.12.04-.04 3.17 3.16zm-6.33 0l-3.16 3.16-3.13-3.14-.03-.02 3.16-3.16.05.05 3.11 3.11z"/><path d="M92.27 80.58l.06.06.06-.06zm-5.56-5.64l-.08.08 5.63 5.55zm40.45 5.64a46.69 46.69 0 00-.88-8.82 46.2 46.2 0 00-8.81-19.34c-.68-.88-1.4-1.74-2.14-2.57l-.14-.16a48.19 48.19 0 00-4.78-4.59 46.38 46.38 0 00-22.47-10.18c-1.47-.23-3-.39-4.47-.48-.91 0-1.84-.08-2.77-.08s-1.84 0-2.74.08a46.13 46.13 0 00-14.71 3.31 46.47 46.47 0 00-17 11.94l-.15.16a46.28 46.28 0 00-11.74 27.59c-.07 1-.12 2.08-.12 3.14v1.22a46.44 46.44 0 0081.08 30c.48-.53.94-1.07 1.4-1.63a46.24 46.24 0 0010.15-24.22c.17-1.52.26-3 .28-4.61v-.75zm-66.6-23.13h55.19L103.3 69.82 92.49 80.49l10.82-10.59 12.44-12.17v46.12H46.41V57.43zm9.3 23.13l.06.06L80.7 91.27l.43.43 11.2-11.06.06-.06h-.13l-5.59-5.59-5.58 5.59-.43-.43L75.62 75l-.07-.08L70 80.53h-.14z" fill="none" opacity=".75"/><path class="cls-1" d="M81.1 127.47H80a46.87 46.87 0 01-46.2-45.65v-1.23c0-1.1 0-2.25.13-3.41a46.35 46.35 0 0111.82-27.86 47.09 47.09 0 0117.33-12.21h.08c.71-.29 1.46-.57 2.28-.85l.66-.26 1.15-.36.91-.26 1.36-.38 1-.23 1.1-.23c1.15-.22 2.27-.4 3.35-.53l1-.12h.25l.75-.07 1.15-.07h4.74l.88.05.85.06c.66 0 1.32.12 2 .2l.58.08.9.13a46.81 46.81 0 0122.68 10.27 47.9 47.9 0 015 4.8c.73.82 1.46 1.69 2.16 2.59a46.73 46.73 0 019.78 28.67v.53c0 1.57-.11 3.11-.27 4.63a46.69 46.69 0 01-10.25 24.45c-.46.57-.93 1.12-1.41 1.66a46.8 46.8 0 01-34.45 15.62zm-.69-.87h.69a46 46 0 0033.9-15.34c.47-.53.93-1.06 1.38-1.62a45.83 45.83 0 0010.06-24c.16-1.5.25-3 .27-4.48v-.59a46.47 46.47 0 00-.88-9 46.06 46.06 0 00-8.72-19.16c-.69-.89-1.4-1.75-2.12-2.55a46 46 0 00-27.12-14.75L87 35l-.57-.07c-.64-.08-1.29-.15-2-.2l-.83-.06h-5.35c-.46 0-.83.05-1.2.09s-.53 0-.77.06h-.21l-1 .11c-1.06.13-2.17.31-3.29.53l-1.08.22-1 .23-1.33.34-.9.26-1 .32-.72.25c-.85.29-1.61.57-2.33.87h-.08A46.26 46.26 0 0046.4 49.9a45.48 45.48 0 00-11.6 27.33c-.08 1.14-.13 2.27-.13 3.35v1.21a46 46 0 0045.42 44.8h.3zm35.78-22.31H46V57l69.8.1.42-.41v.41h.62l-.62.63zm-32.84-.88h32V58.77l-22.52 22-.4.4-11.3 11.14-12.27-12.1.85-.06 5.84-5.83 5.58 5.59 5.58-5.59L92.37 80l22.32-22-67.84-.1v45.54h31.22c1 0 2.12-.07 3.16 0zM70.5 80.6l10.63 10.49 10.58-10.45h-.06l-5-4.94-5.51 5.5-5.59-5.58z"/><path class="cls-1" d="M80.7 127.48H80c-7.76-.39-15-8.39-19.2-21.38-.21-.65-.42-1.31-.61-2l-.74-.67h18.6c1 0 2.12-.07 3.16 0h20v.57c-.21.72-.42 1.42-.65 2.11-.45 1.4-1 2.74-1.46 4a40.16 40.16 0 01-6.31 10.84c-3.5 4.13-7.52 6.39-11.63 6.55zm-19.53-23.19c.16.51.31 1 .48 1.51 4.12 12.65 11 20.42 18.47 20.79h.97c3.91-.15 7.72-2.31 11-6.24a39 39 0 006.17-10.61c.51-1.24 1-2.56 1.44-3.94.17-.5.32-1 .48-1.52h-22.1zm19.96-11.98l-12.27-12.1.85-.06 5.84-5.83 5.58 5.59 5.58-5.58 5.82 5.81h.91l-.8.81zM70.5 80.6l10.63 10.49 10.58-10.45h-.06l-5-5-5.58 5.58-5.59-5.58zM101.3 58l-41-.06-.3-.57.15-.16c.2-.72.42-1.43.65-2.13s.5-1.48.76-2.2c2.58-7 6.08-12.43 10.12-15.71A15.4 15.4 0 0177.86 34a11.86 11.86 0 012.48-.33h.73a12.33 12.33 0 012.51.33l.87.24c4.23 1.33 8.2 4.91 11.48 10.37A49.3 49.3 0 0199.5 52c.36 1 .73 2 1.09 3.06.23.73.46 1.47.67 2.23v.2zm-20.6-.9h19.59c-.17-.58-.35-1.16-.53-1.73a63.37 63.37 0 00-1.08-3 46.23 46.23 0 00-3.5-7.26c-3.16-5.27-7-8.72-11-10-.28-.09-.54-.16-.82-.23a11.18 11.18 0 00-2.36-.32h-.67a11 11 0 00-2.31.31 14.47 14.47 0 00-5.81 3c-3.88 3.13-7.28 8.46-9.81 15.32q-.39 1.05-.75 2.16c-.18.55-.35 1.1-.52 1.67z"/><path class="cls-1" d="M92.79 80.8l-.61-.62 11.39-11.24.18 1.14L92.79 80.8zM80.7 57.79c-1.14 0-2.28 0-3.4-.06A79.54 79.54 0 0153 53.24 50.84 50.84 0 0145.86 50l-.48-.27.37-.4a47.12 47.12 0 0117.33-12.22h.08a46.93 46.93 0 0147.53 7.45 48 48 0 015 4.8l.36.4-.48.27c-8.9 4.91-21.57 7.76-34.87 7.76zm-33.93-8.3a49.36 49.36 0 006.54 2.93 78.39 78.39 0 0024 4.43c1.11 0 2.24.06 3.37.06 12.89 0 25.22-2.7 33.94-7.42a47 47 0 00-4.51-4.3 46.14 46.14 0 00-46.72-7.28h-.08a46.27 46.27 0 00-16.54 11.58zm34.33 77.98H80a47 47 0 01-34.28-15.62l-.36-.4.48-.27a50.2 50.2 0 016.28-2.92 66 66 0 019-2.74 83.29 83.29 0 0110.46-1.69c2.05-.21 4.17-.34 6.29-.4h.18c1 0 2.12-.07 3.16 0h2.32l2.29.09a85.09 85.09 0 0114.41 2 66.21 66.21 0 019.94 3.1 50.57 50.57 0 015.34 2.55l.48.27-.36.4a46.75 46.75 0 01-34.45 15.63zm-34.34-15.8a46.08 46.08 0 0033.35 14.92h1a46 46 0 0033.54-14.93 48.63 48.63 0 00-4.77-2.24 64.36 64.36 0 00-9.8-3.06 85.63 85.63 0 00-14.27-2q-1.14-.06-2.28-.09a.54.54 0 00-.18 0h-5.4c-2.13.06-4.22.19-6.25.4a82 82 0 00-10.36 1.68 65.47 65.47 0 00-8.87 2.69 51.12 51.12 0 00-5.71 2.63z"/><path class="cls-1" d="M92.27 81.02H70.01l-.02-.88h22.25l.03.88zm-45.86 0H34.24v-.88H46.3l.11.88zm69.34-.88h11.41v.87h-11.41zm-35.49 46.9v-23.19l.88-.04v23.23h-.88zm0-69.56V34.12h.88v23.23l-.88.13z"/><path class="cls-1" d="M80.26 80.1h.87v11.17h-.87z"/><path class="cls-4" d="M81.21 103.81h2.13-5.27 2.63zm11.18-23.23l-.06.06-11.2 11.06-.43-.42-10.78-10.64-.06-.06h.13l.01-.01-.04-.04 5.59-5.59.07.08 5.08 5.08.43.43 5.58-5.59 5.59 5.59-.04.04.01.01h.12z"/><path class="cls-4" d="M115.95 57.43v46.42h-.2V57.73L103.31 69.9 92.49 80.49l10.81-10.67 12.45-12.29-14.89-.02-20.16-.03-20.14-.03-14.15-.02h69.54z"/><path class="cls-1" d="M81.13 92.23L69 80.27l.73-.06 5.81-5.8L81.13 80l5.58-5.59 5.8 5.8h.78l-.63.63zM70.41 80.6l10.72 10.57L91.8 80.64l-.06-.06-5.07-5.07-5.58 5.59-5.59-5.59z"/><path class="cls-1" d="M116.12 104.23H45.93V57.06h.85v46.41h31.29c1 0 2.12-.06 3.15 0h34.89zM92.75 80.75l-.53-.53 23.91-23.58v1.25L92.75 80.75z"/><path transform="rotate(-135 81.131 86.111)" fill="#ff6871" d="M77.18 82.16h7.9v7.9h-7.9z"/><path fill="#cc5159" d="M81.13 80.53l-.06.05-.37.38-5.15 5.15-5.54-5.53-.01-.01-.04-.04 5.59-5.59.07.08 5.08 5.08.43.43z"/><path fill="#ff888f" d="M92.3 80.53l-.04.04-.02.01-5.53 5.53-5.58-5.58 5.58-5.59 5.59 5.59z"/><path class="cls-8" d="M46.41 104.22h-.15a.38.38 0 01-.23-.35V57.43a.36.36 0 01.23-.34.37.37 0 01.41.08l23.46 23.14a.49.49 0 01.14.3.44.44 0 01-.08.3l-23.52 23.21a.35.35 0 01-.26.1zm.37-45.89V103l22.61-22.36z"/><path class="cls-8" d="M46.41 104.22h-.11a.38.38 0 01-.37-.37L46 57.43a.37.37 0 01.38-.37.37.37 0 01.37.37v46.42a.36.36 0 01-.34.37zm36.93 0h-5.27a.37.37 0 01-.38-.36.39.39 0 01.36-.39c1 0 2.14-.06 3.17 0h2.13a.38.38 0 010 .75zm-2.21-12.15a.35.35 0 01-.26-.1L69.66 80.91a.39.39 0 01-.11-.27.37.37 0 01.06-.21.34.34 0 01.08-.17l5.59-5.58a.39.39 0 01.27-.11.36.36 0 01.26.11L81.13 80l5.32-5.32a.39.39 0 01.53 0l5.58 5.58a.39.39 0 01.11.22.42.42 0 010 .16.39.39 0 01-.11.27L81.39 92a.37.37 0 01-.26.07zM70.41 80.6l10.72 10.57L91.84 80.6l-5.13-5.13-5.32 5.32a.37.37 0 01-.53 0l-5.32-5.32z"/><path class="cls-8" d="M115.75 104.12a.35.35 0 01-.26-.1L92.07 80.91a.39.39 0 01-.11-.27.36.36 0 01.11-.26l.15-.16 23.27-22.76a.37.37 0 01.41-.08.39.39 0 01.22.35v46a.38.38 0 01-.23.35.32.32 0 01-.14.04zM92.86 80.64l22.52 22.21V58.62z"/><path class="cls-8" d="M116 104.22h-.2a.36.36 0 01-.37-.37V57.73a.39.39 0 01.11-.27l.2-.2a.38.38 0 01.63.27v46.32a.36.36 0 01-.37.37z"/><path class="cls-8" d="M115.75 104.22H46.41a.38.38 0 01-.35-.23.37.37 0 01.09-.41l23.51-23.2a.37.37 0 01.53 0l10.94 10.79 10.94-10.79a.36.36 0 01.52 0l23.41 23.1a.39.39 0 01.11.27v.1a.36.36 0 01-.36.37zm-34.52-.78h33.71L92.33 81.17 81.39 92a.37.37 0 01-.52 0l-11-10.8-22.6 22.3h30.8c1 0 2.12-.06 3.15 0z"/><path class="cls-8" d="M83.34 104.22h-5.27a.37.37 0 01-.38-.36.39.39 0 01.36-.39c1 0 2.14-.06 3.17 0h2.13a.38.38 0 010 .75zm-2.21-12.15a.35.35 0 01-.26-.1L69.66 80.91a.39.39 0 01-.11-.27.34.34 0 01.12-.27.23.23 0 01.11-.11l5.58-5.51a.39.39 0 01.53 0L81.13 80l5.24-5.24a.37.37 0 01.53 0l5.7 5.62a.36.36 0 01.11.26.39.39 0 01-.11.27L81.39 92a.37.37 0 01-.26.07zM70.46 80.64l10.67 10.53L91.8 80.64l-5.16-5.09-5.25 5.24a.37.37 0 01-.53 0l-5.24-5.24zm45.39 23.58h-.1a.36.36 0 01-.37-.37v-.1a.38.38 0 01.23-.35.41.41 0 01.41.08l.09.1a.39.39 0 01.09.41.38.38 0 01-.35.23z"/><path class="cls-8" d="M92.39 81h-.12a.36.36 0 01-.26-.11.45.45 0 01-.11-.19l-5.19-5.19-5.32 5.32a.37.37 0 01-.53 0l-5.32-5.32-5.19 5.19a.21.21 0 010 .11.41.41 0 01-.35.19h-.13a.36.36 0 01-.26-.11L46.15 57.7a.37.37 0 01-.09-.41.38.38 0 01.35-.23l69.34.1a.38.38 0 01.35.23.39.39 0 01-.09.41l-23.35 23a.39.39 0 01-.27.2zM47.32 57.81l22.56 22.26 5.4-5.39a.39.39 0 01.27-.11.36.36 0 01.26.11L81.13 80l5.32-5.32a.39.39 0 01.53 0l5.39 5.39 22.47-22.16z"/><path class="cls-8" d="M69.92 81a.38.38 0 01-.26-.11.43.43 0 01-.11-.44.35.35 0 01.31-.26H70a.38.38 0 01.35.23.39.39 0 01-.1.42l-.06.06a.42.42 0 01-.27.1zm22.44 0a.4.4 0 01-.3-.09.42.42 0 01-.1-.43.35.35 0 01.31-.26h.12a.38.38 0 01.35.23.37.37 0 01-.08.4.46.46 0 01-.3.15zm23.39-23.09l-69.34-.1a.38.38 0 110-.75h69.44a.38.38 0 01.35.23.39.39 0 01-.09.41l-.09.1a.4.4 0 01-.27.11z"/><path class="cls-8" d="M81.13 92.07a.35.35 0 01-.26-.1L69.66 80.91a.39.39 0 01-.11-.27.37.37 0 01.06-.21.34.34 0 01.08-.17l5.59-5.58a.39.39 0 01.27-.11.36.36 0 01.26.11L81.13 80l5.32-5.32a.39.39 0 01.53 0l5.58 5.58a.39.39 0 01.11.22.42.42 0 010 .16.39.39 0 01-.11.27L81.39 92a.37.37 0 01-.26.07zM70.41 80.6l10.72 10.57L91.84 80.6l-5.13-5.13-5.32 5.32a.37.37 0 01-.53 0l-5.32-5.32z"/><path class="cls-1" d="M80.7 161.4a80.7 80.7 0 1180.7-80.7 80.79 80.79 0 01-80.7 80.7zM80.7 2a78.7 78.7 0 1078.7 78.7A78.8 78.8 0 0080.7 2z"/><path class="cls-1" d="M80.7 132.55a51.85 51.85 0 1151.85-51.85 51.91 51.91 0 01-51.85 51.85zm0-101.7a49.85 49.85 0 1049.85 49.85A49.9 49.9 0 0080.7 30.85zM34 44.37L26.46 38l.93-1.09L34 42.49l3.1-3.63.92.78zm6.42-7.73a4.05 4.05 0 01-2.34-.31 6.05 6.05 0 01-2.15-1.68 6.25 6.25 0 01-1.31-2.41 3.94 3.94 0 01.09-2.36 4.62 4.62 0 011.46-2 4.69 4.69 0 012.27-1.11 4 4 0 012.33.31 6.09 6.09 0 012.15 1.69 5.93 5.93 0 011.3 2.4 4 4 0 01-.08 2.36 4.68 4.68 0 01-1.47 2 4.63 4.63 0 01-2.25 1.11zM43 32.4a4.43 4.43 0 00-1.22-2.72A4.41 4.41 0 0039.34 28a3.13 3.13 0 00-3.51 3 4.37 4.37 0 001.22 2.71 4.37 4.37 0 002.47 1.66 2.74 2.74 0 002.39-.7A2.8 2.8 0 0043 32.4zM49.56 19l1.27-.73L51.94 29l-1 .6-8.65-6.4 1.3-.74 7 5.25zm8.21 7.08l-3.36-9.26 6-2.18.39 1.09-4.69 1.7 1.06 2.92 4.43-1.61.4 1.11-4.43 1.6 1.11 3.06 4.69-1.7.4 1.09z"/><path class="cls-1" d="M73.13 22l-.8-9.81 1.43-.19.71 8.62 4.76-.39.1 1.19zm8.6-.51l.65-9.83 6.39.42-.08 1.16-5-.33-.2 3.1 4.7.31-.08 1.17-4.7-.31-.22 3.25 5 .33-.08 1.15zm11.66 1.43l2-8.43-3.24-.75.27-1.17 7.91 1.83-.33 1.17-3.25-.75-2 8.42zm9.47 2.92l3.34-8-3.07-1.28.47-1.11 7.49 3.14-.47 1.1-3.08-1.29-3.34 8zm6.45 3l5.18-8.38 5.44 3.37-.61 1-4.24-2.63-1.63 2.64 4 2.48-.62 1-4-2.48-1.71 2.76 4.24 2.63-.61 1zm13.61 10.22l-1.2-1.06.82-3.48a1.65 1.65 0 000-1 2.13 2.13 0 00-.63-.82l-1.22-1.07-2.69 3.1-1.07-.94 6.5-7.41 3.15 2.77a3.69 3.69 0 011.42 2.19 2.63 2.63 0 01-.75 2.16 2.75 2.75 0 01-1.7 1 3 3 0 01-2-.5 2.1 2.1 0 01.18 1.61zm.46-6.55a2.58 2.58 0 001.5.75 1.61 1.61 0 001.26-.65 1.57 1.57 0 00.47-1.32 2.51 2.51 0 00-.94-1.38l-2-1.73-2.28 2.61zm2.06 9.15a4.68 4.68 0 01-.33-1.85l1.15-.26a4.79 4.79 0 00.29 1.69 5.89 5.89 0 00.9 1.52 3 3 0 001.4 1.06 1.31 1.31 0 001.28-.27 1 1 0 00.39-1 6.7 6.7 0 00-.67-1.76 10.72 10.72 0 01-.77-1.86 2.93 2.93 0 01-.07-1.46 2.24 2.24 0 01.82-1.22 2.65 2.65 0 011.47-.61 3 3 0 011.62.36 4.76 4.76 0 011.51 1.27 5.87 5.87 0 011 1.71 3.7 3.7 0 01.25 1.73l-1.14.28a5.18 5.18 0 00-.24-1.61 4.24 4.24 0 00-.75-1.36 2.84 2.84 0 00-1.4-1 1.42 1.42 0 00-1.33.3 1.11 1.11 0 00-.45 1.05 5.61 5.61 0 00.59 1.72 15.06 15.06 0 01.81 1.91 3.1 3.1 0 01.12 1.46 2 2 0 01-.77 1.21 2.55 2.55 0 01-1.44.6 2.93 2.93 0 01-1.59-.39 5.19 5.19 0 01-1.54-1.33 7.13 7.13 0 01-1.11-1.89zm-108.72 69.6l7.76-3.82-1.47-3 1.08-.53 3.58 7.28-1.08.53-1.47-3-7.76 3.81zm5.66 8.93a4.1 4.1 0 01.48-2.31 6 6 0 011.82-2 6.13 6.13 0 012.5-1.14 4.07 4.07 0 012.35.25 5.22 5.22 0 012.87 3.94 3.94 3.94 0 01-.48 2.31 6 6 0 01-1.83 2 6.14 6.14 0 01-2.49 1.13 4 4 0 01-2.35-.25 4.67 4.67 0 01-1.94-1.61 4.6 4.6 0 01-.93-2.32zm4.05 2.9a4.47 4.47 0 002.8-1 4.44 4.44 0 001.83-2.34 2.84 2.84 0 00-.56-2.46 2.78 2.78 0 00-2.15-1.29 4.46 4.46 0 00-2.79 1 4.42 4.42 0 00-1.83 2.35 2.77 2.77 0 00.53 2.44 2.84 2.84 0 002.17 1.3zm10.93 13.72l5.22-6.9-2.65-2 .73-1 6.47 4.9-.72 1-2.67-2-5.22 6.89zm18.2-.41l1.27.65-4.46 8.78-1.27-.64 2-3.94-4.91-2.49-2 3.93-1.27-.64 4.46-8.78 1.27.64-1.93 3.8 4.91 2.49zm1.82 11.32l2.84-9.43 6.13 1.85-.35 1.11-4.78-1.44-.9 3 4.51 1.36-.34 1.13-4.49-1.39-.94 3.09 4.78 1.44-.33 1.11zm18.44 3.71l.57-9.84 1.44.08-.57 9.84zm12.39-10.09l1.35-.11.77 9.82-1.1.09-6.2-7 .58 7.41-1.35.1-.76-9.82 1.08-.08 6.21 7zm9.68 8.15l-2.18-8.37-3.21.88-.31-1.17 7.86-2 .3 1.16-3.23.84 2.18 8.37zm8.63-2.69l-4-9 5.86-2.58.47 1.06-4.57 2 1.25 2.84 4.31-1.9.47 1.08-4.31 1.89 1.31 3 4.57-2 .46 1.06zm16.67-9.19l-1.34.88-3.13-1.72a1.74 1.74 0 00-.94-.23 2.21 2.21 0 00-1 .39l-1.35.89 2.23 3.4-1.19.78-5.41-8.23 3.5-2.3a3.77 3.77 0 012.48-.77A2.63 2.63 0 01119 132a2.72 2.72 0 01.49 1.9 3 3 0 01-1 1.76 2.15 2.15 0 011.6.25zm-6.19-2.19a2.47 2.47 0 001.11-1.24 1.91 1.91 0 00-1.43-2.2 2.55 2.55 0 00-1.58.55l-2.19 1.47 1.91 2.9zm7.88-12.53l1-.93 6.82 7.11-.8.76-9.21-1.47 5.15 5.37-1 .94-6.84-7.11.79-.76 9.23 1.47zm11.23 2.11l-7.94-5.83L132 114l.94.69-3 4 2.5 1.83 2.79-3.79 1 .7-2.79 3.79 2.62 1.93 3-4 .93.69zm7.46-11.52l-7.71-3.92-1.5 3-1.08-.55 3.69-7.23 1.07.55-1.52 3 7.71 3.93z"/></svg>