<svg width="70" height="70" xmlns="http://www.w3.org/2000/svg"><g fill="none" fill-rule="evenodd"><path d="M69.908 34.958c-.014 19.324-15.669 34.94-34.998 34.908C15.614 69.834.023 54.201.037 34.901.05 15.577 15.706-.038 35.035 0 54.33.025 69.923 15.658 69.908 34.958zm-49.054-9.48a4.1 4.1 0 104.135 4.066 4.065 4.065 0 00-4.135-4.067zm28.23 0a4.1 4.1 0 104.074 4.128 4.065 4.065 0 00-4.073-4.129zM11.88 39.306c.864 0 1.252-.099 2.013-.53 1.625-.92 1.84-2.697.48-3.962-1.427-1.325-4.334-1.204-5.646.236-.742.812-.883 1.7-.331 2.642.746 1.273 1.956 1.655 3.484 1.614zm46.217-5.377c-.67-.086-1.394.149-2.079.549-1.583.924-1.794 2.676-.47 3.921 1.417 1.337 4.31 1.24 5.648-.187.769-.821.915-1.736.335-2.699-.742-1.23-1.93-1.62-3.434-1.584zm-46.7-12.803c.143-.03.284-.068.423-.114 3.286-1.282 6.572-2.566 9.859-3.852.46-.155.772-.585.775-1.07.042-.987-.819-1.5-1.882-1.084-3.134 1.22-6.266 2.45-9.395 3.686a2.238 2.238 0 00-.504.238c-.45.295-.634.865-.44 1.368.164.52.575.77 1.164.828zm46.407 0c.647-.05 1.073-.328 1.234-.921.168-.617-.14-1.19-.801-1.452a1575.721 1575.721 0 00-9.719-3.803 1.17 1.17 0 00-.753-.097c-.548.15-.916.466-.965 1.059-.055.65.265 1.057.858 1.29 3.22 1.259 6.439 2.52 9.657 3.783.16.055.324.102.49.14z" fill="#F1B846" fill-rule="nonzero"/><path d="M35.137 45.471c-3.22-.011-6.005.931-7.952 3.67-.77 1.082-1.23 2.3-1.533 3.592-.15.637.073.721.624.658 3.478-.4 6.972-.462 10.468-.423 2.37.014 4.736.147 7.093.398.859.097.884.062.704-.8-.91-4.323-4.255-6.97-8.982-7.102-.14.004-.282.007-.422.007z" fill="#010100"/><path d="M20.854 25.477a4.1 4.1 0 11-4.067 4.134 4.063 4.063 0 014.067-4.134zm28.231 0a4.1 4.1 0 11-4.129 4.072 4.065 4.065 0 014.129-4.072z" fill="#020100"/><path d="M11.88 39.307c-1.528.04-2.738-.34-3.484-1.614-.552-.942-.411-1.831.33-2.642 1.313-1.44 4.226-1.56 5.647-.236 1.36 1.268 1.145 3.041-.48 3.962-.76.431-1.15.529-2.013.53zm46.217-5.377c1.504-.036 2.692.353 3.434 1.584.58.963.434 1.878-.335 2.699-1.338 1.428-4.226 1.524-5.648.187-1.324-1.25-1.113-2.997.47-3.921.685-.394 1.409-.635 2.08-.55z" fill="#E49C9B"/><path d="M11.397 21.127c-.589-.058-1-.307-1.165-.828a1.142 1.142 0 01.44-1.368c.157-.1.327-.18.504-.238a7913.88 7913.88 0 019.394-3.686c1.064-.422 1.924.09 1.882 1.083a1.135 1.135 0 01-.775 1.07 3236.22 3236.22 0 01-9.859 3.853 3.707 3.707 0 01-.42.114zm46.407 0a5.06 5.06 0 01-.493-.141l-9.657-3.783c-.593-.233-.913-.64-.858-1.29.05-.593.422-.909.965-1.06a1.17 1.17 0 01.753.098c3.244 1.263 6.484 2.53 9.718 3.803.664.261.97.835.802 1.452-.16.593-.583.87-1.23.92z" fill="#040301"/></g></svg>