<svg width="16" height="16" viewBox="0 0 16 16" fill="none" xmlns="http://www.w3.org/2000/svg">
<path d="M8.01168 1.25485e-05C12.42 0.00645118 15.9796 3.58665 15.9683 8.00613C15.9587 12.4166 12.3898 15.9772 7.98662 15.971C3.57826 15.963 0.0200316 12.3828 0.0312766 7.96331C0.03963 3.55349 3.60847 -0.00771381 8.01168 1.25485e-05Z" fill="#F1B846"/>
<path fill-rule="evenodd" clip-rule="evenodd" d="M8.03786 11.2549H10.951C10.9884 11.2549 11.026 11.2549 11.0637 11.2549C11.2749 11.261 11.404 11.3715 11.3985 11.5415C11.393 11.706 11.2697 11.8107 11.0637 11.8113C10.2965 11.8136 9.52937 11.8113 8.7622 11.8113H5.09218C5.05452 11.8113 5.01717 11.8113 4.97951 11.8113C4.768 11.8052 4.63923 11.6947 4.6447 11.5247C4.65017 11.3603 4.77347 11.2552 4.97951 11.2549C5.99917 11.2536 7.01862 11.2536 8.03786 11.2549Z" fill="#0B0903"/>
<path fill-rule="evenodd" clip-rule="evenodd" d="M4.77273 7.71525C4.25521 7.71613 3.83493 7.29819 3.83399 6.7817C3.83304 6.26521 4.25178 5.84573 4.7693 5.84473C5.28683 5.84372 5.7072 6.26157 5.70827 6.77806C5.71104 7.02684 5.61348 7.26629 5.43753 7.44255C5.26159 7.61881 5.02203 7.71707 4.77273 7.71525Z" fill="#020100"/>
<path fill-rule="evenodd" clip-rule="evenodd" d="M11.2012 7.71523C10.6839 7.71222 10.2669 7.29144 10.2695 6.77517C10.2722 6.2589 10.6935 5.84244 11.2109 5.84474C11.7282 5.84704 12.1458 6.26723 12.1438 6.78351C12.1451 7.03258 12.046 7.27171 11.8686 7.44699C11.6913 7.62227 11.4508 7.71895 11.2012 7.71523Z" fill="#020100"/>
<path fill-rule="evenodd" clip-rule="evenodd" d="M5.69565 4.17127C5.89782 4.1642 6.01597 4.25802 6.02949 4.41095C6.04366 4.57352 5.94965 4.69015 5.76969 4.71746C5.24591 4.79649 4.72148 4.87135 4.19706 4.94782C3.9482 4.98412 3.69935 5.01979 3.4505 5.05673C3.24864 5.08693 3.1144 5.00758 3.08671 4.8389C3.05903 4.67023 3.15464 4.54782 3.36003 4.51762C3.97879 4.42123 4.59883 4.33384 5.21822 4.24292L5.69565 4.17127Z" fill="#040301"/>
<path fill-rule="evenodd" clip-rule="evenodd" d="M10.1238 4.17123L11.5831 4.3852L12.3454 4.49829C12.3982 4.50601 12.4516 4.51275 12.5035 4.52464C12.6699 4.56319 12.7565 4.68271 12.7324 4.83661C12.7082 4.9905 12.5737 5.0885 12.4021 5.06344C11.8036 4.97572 11.2058 4.88544 10.6076 4.79677C10.4119 4.76753 10.2145 4.74665 10.0198 4.71066C9.8543 4.67854 9.76931 4.5542 9.79024 4.39709C9.80955 4.25315 9.92577 4.1648 10.1238 4.17123Z" fill="#040301"/>
<path fill-rule="evenodd" clip-rule="evenodd" d="M2.70231 8.99846C2.36235 9.0081 2.09064 8.91974 1.92033 8.6399C1.78641 8.42047 1.81893 8.21195 1.99406 8.02368C2.29699 7.69757 2.95985 7.6738 3.28468 7.97741C3.58858 8.26239 3.54223 8.66079 3.18102 8.87251C3.02424 8.96376 2.85876 9.01902 2.70231 8.99846Z" fill="#E49C9B"/>
<path fill-rule="evenodd" clip-rule="evenodd" d="M13.2989 8.99564C13.0824 9.01858 12.8663 8.94848 12.7046 8.80286C12.3985 8.5317 12.4181 8.15034 12.7581 7.92479C13.0723 7.7166 13.4161 7.71242 13.7535 7.86054C14.0178 7.97716 14.1585 8.21138 14.1363 8.43628C14.115 8.64897 13.8932 8.88608 13.6466 8.95965C13.534 8.99348 13.416 9.00569 13.2989 8.99564Z" fill="#E49C9B"/>
</svg>
