<svg width="16" height="14" xmlns="http://www.w3.org/2000/svg">
    <path d="M12.57 8.57v2.86c0 .707-.25 1.313-.753 1.816A2.478 2.478 0 0 1 10 14H2.57c-.707 0-1.313-.25-1.816-.754A2.474 2.474 0 0 1 0 11.43V4c0-.708.25-1.314.754-1.817a2.478 2.478 0 0 1 1.817-.754h6.29c.087 0 .156.02.21.08.053.05.08.12.08.2v.57c0 .083-.027.15-.08.205a.279.279 0 0 1-.206.08H2.57c-.39 0-.728.14-1.007.42-.28.28-.42.616-.42 1.01v7.43c0 .39.14.727.42 1.007.28.28.616.42 1.008.42H10c.393 0 .73-.14 1.01-.42.28-.28.42-.617.42-1.01v-2.85a.274.274 0 0 1 .284-.285h.572c.083 0 .152.026.205.08.06.054.08.122.08.205zM16 .858V5.43a.549.549 0 0 1-.17.4.549.549 0 0 1-.4.17.55.55 0 0 1-.403-.17l-1.572-1.57-5.82 5.82a.286.286 0 0 1-.416 0L6.202 9.062a.28.28 0 0 1-.09-.205.28.28 0 0 1 .09-.205l5.822-5.822-1.572-1.57a.554.554 0 0 1-.17-.403c0-.155.057-.29.17-.402a.55.55 0 0 1 .402-.17h4.572c.15 0 .284.057.4.17.11.113.17.247.17.402z" fill="#ffffff" fill-rule="evenodd"/>
</svg>
