<svg width="16" height="16" xmlns="http://www.w3.org/2000/svg" xmlns:xlink="http://www.w3.org/1999/xlink">
    <defs>
        <path id="a" d="M0 0h15.995v15.995H0z"/>
    </defs>
    <g fill="none" fill-rule="evenodd">
        <mask id="b" fill="#fff">
            <use xlink:href="#a"/>
        </mask>
        <path d="M13.227 3.728a.96.96 0 1 1-1.92 0 .96.96 0 0 1 1.92 0m-5.23 6.935a2.667 2.667 0 1 0 0-5.333 2.667 2.667 0 0 0 0 5.333m0-6.773a4.107 4.107 0 1 1 0 8.215 4.107 4.107 0 0 1 0-8.215m0-2.45c-2.134 0-2.388.01-3.231.047-.78.036-1.203.166-1.485.276a2.476 2.476 0 0 0-.92.598 2.47 2.47 0 0 0-.597.92c-.11.281-.241.705-.276 1.485-.038.843-.047 1.096-.047 3.231s.009 2.388.047 3.232c.035.78.166 1.203.276 1.484.145.374.318.641.598.92.28.281.546.453.919.6.282.108.705.238 1.485.274.843.038 1.096.046 3.232.046 2.135 0 2.388-.008 3.232-.046.779-.036 1.203-.166 1.484-.275.374-.146.64-.318.92-.599.28-.279.453-.546.599-.92.109-.28.239-.705.275-1.484.038-.844.046-1.097.046-3.232 0-2.135-.008-2.388-.046-3.23-.036-.78-.166-1.205-.275-1.487a2.49 2.49 0 0 0-.6-.919 2.472 2.472 0 0 0-.92-.598c-.28-.11-.704-.24-1.483-.276-.844-.038-1.097-.047-3.232-.047m0-1.44c2.172 0 2.444.01 3.297.048.852.038 1.433.174 1.942.371.525.205.97.478 1.416.923.445.445.719.89.923 1.416.197.51.333 1.091.372 1.942.038.853.048 1.125.048 3.297s-.01 2.445-.048 3.297c-.04.852-.175 1.433-.372 1.942a3.92 3.92 0 0 1-.923 1.416 3.92 3.92 0 0 1-1.416.923c-.51.198-1.09.333-1.942.372-.853.04-1.125.048-3.297.048s-2.444-.009-3.297-.048c-.851-.039-1.433-.174-1.942-.372a3.912 3.912 0 0 1-1.416-.923 3.92 3.92 0 0 1-.923-1.416c-.197-.509-.333-1.09-.371-1.942-.04-.852-.05-1.125-.05-3.297S.01 5.553.05 4.7c.038-.85.174-1.433.37-1.942.205-.526.479-.97.924-1.416.445-.445.89-.718 1.416-.923C3.268.222 3.849.086 4.7.05 5.553.01 5.825 0 7.997 0" fill="#FFF" mask="url(#b)"/>
    </g>
</svg>
