<svg width="16" height="16" viewBox="0 0 16 16" fill="none" xmlns="http://www.w3.org/2000/svg">
<path d="M14 6.60649C13.8813 6.61694 13.76 6.62478 13.636 6.62478C12.2512 6.62478 11.0351 5.91952 10.3282 4.85381V10.8798C10.3282 13.3404 8.31293 15.3334 5.83077 15.3334C3.34862 15.3334 1.33334 13.3377 1.33334 10.8798C1.33334 8.42187 3.34862 6.42626 5.83077 6.42626C5.92574 6.42626 6.01542 6.4341 6.10774 6.43932V8.63344C6.01542 8.623 5.92574 8.60471 5.83077 8.60471C4.562 8.60471 3.5359 9.62341 3.5359 10.8772C3.5359 12.131 4.56464 13.1497 5.83077 13.1497C7.09691 13.1497 8.21797 12.1597 8.21797 10.9033C8.21797 10.8537 8.23908 0.666687 8.23908 0.666687H10.3572C10.5577 2.54214 12.085 4.02317 13.9974 4.159V6.59866L14 6.60649Z" fill="white"/>
</svg>
