<svg width="32" height="32" xmlns="http://www.w3.org/2000/svg"><path d="M10.238 28.718c11.698 0 18.099-9.701 18.099-18.1 0-.272 0-.545-.013-.818A12.96 12.96 0 0 0 31.5 6.5c-1.141.509-2.37.844-3.66 1.005a6.4 6.4 0 0 0 2.804-3.523A12.653 12.653 0 0 1 26.6 5.52a6.349 6.349 0 0 0-4.64-2.01 6.369 6.369 0 0 0-6.363 6.364c0 .497.062.98.161 1.452-5.284-.26-9.973-2.804-13.112-6.65a6.362 6.362 0 0 0-.856 3.201 6.378 6.378 0 0 0 2.828 5.297 6.434 6.434 0 0 1-2.878-.794v.087a6.374 6.374 0 0 0 5.099 6.24 6.202 6.202 0 0 1-1.675.223c-.41 0-.806-.037-1.19-.112a6.36 6.36 0 0 0 5.941 4.417 12.758 12.758 0 0 1-7.902 2.729c-.508 0-1.017-.025-1.513-.087a18.094 18.094 0 0 0 9.738 2.84" fill="#000" fill-rule="evenodd"/></svg>