<?xml version="1.0" encoding="UTF-8" standalone="no"?>
<!-- Generator: Adobe Illustrator 22.1.0, SVG Export Plug-In . SVG Version: 6.00 Build 0)  -->

<svg
   version="1.1"
   id="icon-mozfest"
   viewBox="0 0 106.28794 106.09397"
   xml:space="preserve"
   xmlns="http://www.w3.org/2000/svg"
   xmlns:svg="http://www.w3.org/2000/svg">
<path
   d="m 74.393971,62.093971 -3,-5.3 -2.1,-3.6 1.1,-1.8 4.1,-7.1 5.1,8.9 z m -39.3,4.7 h 7.7 2.6 l 5.1,8.9 h -10.3 z m 5.3,-36.5 h 10.3 l -0.7,1.2 -4.5,7.7 h -10.3 z m 5.1,12.2 0.7,1.3 4.4,7.6 h -7.7 -2.6 l -5.1,-8.9 z m 12,0.3 -4.1,7.1 -5.1,-8.9 5.2,-8.9 5.1,8.9 z m 14.2,-0.2 -5.2,8.9 h -10.3 l 5.2,-8.9 z m -36.6,21 5.2,-8.9 h 10.3 l -4.3,7.5 -0.9,1.4 h -2.6 z m 18.2,10.6 -5.1,-8.9 5.2,-8.9 3.4,6 1.7,2.9 z m 18.3,-10.5 -10.3,-0.1 -2.2,-3.8 -3,-5.2 h 10.3 l 3.2,5.5 z m 3.8,-24.3 h -14 l -7,-12.2 h -15.9 c 0,0 -8,13.7 -8,13.7 0,0 7,12.2 7,12.2 l -7.1,12.1 7.9,13.8 h 15.9 l 7,-12.1 h 14.1 l 8,-13.8 z m -22.4,-21.2 c -19.2,0 -34.8,15.5 -34.9,34.8 -0.1,19.3 15.5,34.8 34.8,34.9 19.2,0 34.8,-15.5 34.9,-34.8 0,-9.2 -3.6,-18.1 -10.2,-24.7 -6.5,-6.5 -15.4,-10.2 -24.6,-10.2 z m 0,72.8 c -21,0 -38,-17 -38,-38 0,-21 17,-38 38,-38 10.1,0 19.7,4 26.9,11.1 7.2,7.1 11.2,16.8 11.1,26.9 0,21 -17,38 -38,38 z m -6.5,11.499999 c 3.8,0.5 7.7,0.6 11.6,0.2 l 0.1,-0.2 c 4.4,-9.399999 15.3,-13.799999 25,-9.999999 l 0.2,0.1 c 3.1,-2.4 5.9,-5.1 8.4,-8.1 v -0.2 c -3.5,-9.7 1.1,-20.5 10.599999,-24.7 l 0.2,-0.1 c 0.5,-3.8 0.6,-7.7 0.2,-11.6 l -0.2,-0.1 c -9.499999,-4.3 -13.899999,-15.3 -9.999999,-24.9 l 0.1,-0.2 c -2.3,-3.1 -5,-5.9 -8,-8.3 l -0.2,0.1 c -2.1,0.8 -4.4,1.2 -6.7,1.2 -7.9,0 -15,-4.7 -18.1,-11.8999997 l -0.1,-0.2 c -3.8,-0.5 -7.7,-0.6 -11.6,-0.2 l -0.1,0.2 c -3.2,6.9999997 -10.2,11.3999997 -17.9,11.3999997 -2.5,0 -4.9,-0.5 -7.2,-1.4 l -0.2,-0.1 c -3.1,2.3 -5.9,5 -8.3,8 l 0.1,0.2 c 3.6,9.8 -1.1,20.6 -10.6999997,24.7 l -0.1,0.1 c -0.5,3.9 -0.6,7.8 -0.2,11.7 l 0.2,0.1 c 9.3999997,4.4 13.7999997,15.3 9.9999997,25 l -0.1,0.2 c 2.4,3.1 5.1,5.8 8.1,8.3 h 0.2 c 2.1,-0.8 4.4,-1.2 6.7,-1.2 7.8,0 14.9,4.7 18.1,11.799999 z m 6.6,3.6 c -2.7,0 -5.3,-0.2 -7.9,-0.6 l -0.9,-0.1 -0.8,-1.9 c -2.6,-5.999999 -8.5,-9.899999 -15.1,-9.899999 -1.9,0 -3.8,0.3 -5.5,1 l -1.9,0.7 -0.7,-0.6 c -3.8,-3 -7.1,-6.4 -10,-10.2 l -0.5999997,-0.7 0.8999997,-1.8 c 3.2,-8.1 -0.4,-17.2 -8.2999997,-20.9 l -1.79999999,-0.8 -0.1,-0.9 c -0.6,-4.8 -0.5,-9.6 0.2,-14.3 l 0.1,-0.9 1.89999999,-0.8 c 7.9999997,-3.4 11.8999997,-12.4 8.8999997,-20.6 l -0.7,-1.9 0.6,-0.7 c 3,-3.8 6.4,-7.1 10.3,-10 l 0.7,-0.4999997 1.9,0.7999997 c 1.9,0.8 3.9,1.2 6,1.2 6.4,0 12.2,-3.5999997 14.9,-9.3999997 l 0.8,-1.79999999 0.9,-0.1 c 4.7,-0.6 9.5,-0.5 14.2,0.2 l 0.9,0.1 0.8,1.89999999 c 2.6,6 8.5,9.8999997 15.1,9.8999997 1.9,0 3.8,-0.3 5.5,-1 l 1.9,-0.7 0.7,0.6 c 3.8,2.9 7.1,6.4 10,10.2 l 0.5,0.7 -0.8,1.9 c -3.2,8 0.4,17.2 8.299999,20.8 l 1.8,0.8 0.1,0.9 c 0.6,4.8 0.5,9.6 -0.2,14.3 l -0.1,0.9 -1.9,0.8 c -7.999999,3.4 -11.899999,12.5 -8.899999,20.6 l 0.7,1.9 -0.6,0.7 c -2.9,3.8 -6.4,7.1 -10.2,10 l -0.7,0.5 -1.9,-0.8 c -1.9,-0.8 -3.9,-1.2 -6,-1.2 -6.4,0 -12.2,3.7 -14.9,9.399999 l -0.8,1.7 -0.9,0.1 c -2.2,0.4 -4.3,0.5 -6.4,0.5 z" />
</svg>
