<?xml version="1.0" encoding="UTF-8" standalone="no"?>
<svg
   id="icon-tito"
   viewBox="0 0 110 106"
   version="1.1"
   xmlns="http://www.w3.org/2000/svg"
   xmlns:svg="http://www.w3.org/2000/svg">
  <!-- Team Tito Limited 2013–2024 https://ti.to -->
  <title
     id="title1">Page 1</title>
  <desc
     id="desc1">Created with Sketch.</desc>
  <defs
     id="defs1" />
  <path
     d="M 55,0 C 24.62444,0 0,23.729002 0,52.999998 0,82.27236 24.62444,106 55,106 85.37556,106 110,82.27236 110,52.999998 110.00141,23.729002 85.37556,0 55,0 Z M 25.28939,52.999998 c 0,-16.56463 13.93569,-29.993568 31.1254,-29.993568 17.18971,0 31.1254,13.428938 31.1254,29.993568 0,1.306083 -0.0962,2.58899 -0.26315,3.851446 -2.5636,-19.040462 -20.91768,-21.149555 -26.79472,-21.149555 -6.32271,0 -8.3119,0.85209 -11.84888,2.982997 v 20.45016 c 0,0 3.09556,-2.045016 7.2508,-2.045016 4.15666,0 12.73312,2.301324 12.73312,12.18557 0,9.8597 -6.94096,13.68388 -13.58482,13.68388 C 39.26186,82.95848 25.28939,69.11745 25.28939,52.999998 Z"
     id="Fill-5"
     />
</svg>
