<svg width="1440" height="460" xmlns="http://www.w3.org/2000/svg" xmlns:xlink="http://www.w3.org/1999/xlink"><defs><path d="M39.7 1.699l-6.51 18.444a3.371 3.371 0 00-.139 1.727l2.96 16.279a1.937 1.937 0 01-.345 1.5c-.3.419-.772.712-1.32.787l-16.391 2.142a3.376 3.376 0 00-1.603.657L.776 55.053c-1.335 1.013-.862 3.12.772 3.466L81.844 75.59c1.649.35 2.937-1.413 2.101-2.876L43.234 1.383a1.927 1.927 0 00-1.692-.986A1.93 1.93 0 0039.7 1.699" id="c"/><path d="M39.7 1.699l-6.51 18.444a3.371 3.371 0 00-.139 1.727l2.96 16.279a1.937 1.937 0 01-.345 1.5c-.3.419-.772.712-1.32.787l-16.391 2.142a3.376 3.376 0 00-1.603.657L.776 55.053c-1.335 1.013-.862 3.12.772 3.466L81.844 75.59c1.649.35 2.937-1.413 2.101-2.876L43.234 1.383a1.927 1.927 0 00-1.692-.986A1.93 1.93 0 0039.7 1.699z" id="e"/><path d="M39.7 1.699l-6.51 18.444a3.371 3.371 0 00-.139 1.727l2.96 16.279a1.937 1.937 0 01-.345 1.5c-.3.419-.772.712-1.32.787l-16.391 2.142a3.376 3.376 0 00-1.603.657L.776 55.053c-1.335 1.013-.862 3.12.772 3.466L81.844 75.59c1.649.35 2.937-1.413 2.101-2.876L43.234 1.383a1.927 1.927 0 00-1.692-.986A1.93 1.93 0 0039.7 1.699" id="g"/><path d="M39.7 1.699l-6.51 18.444a3.371 3.371 0 00-.139 1.727l2.96 16.279a1.937 1.937 0 01-.345 1.5c-.3.419-.772.712-1.32.787l-16.391 2.142a3.376 3.376 0 00-1.603.657L.776 55.053c-1.335 1.013-.862 3.12.772 3.466L81.844 75.59c1.649.35 2.937-1.413 2.101-2.876L43.234 1.383a1.927 1.927 0 00-1.692-.986A1.93 1.93 0 0039.7 1.699z" id="i"/><path d="M39.7 1.699l-6.51 18.444a3.371 3.371 0 00-.139 1.727l2.96 16.279a1.937 1.937 0 01-.345 1.5c-.3.419-.772.712-1.32.787l-16.391 2.142a3.376 3.376 0 00-1.603.657L.776 55.053c-1.335 1.013-.862 3.12.772 3.466L81.844 75.59c1.649.35 2.937-1.413 2.101-2.876L43.234 1.383a1.927 1.927 0 00-1.692-.986A1.93 1.93 0 0039.7 1.699z" id="k"/><path d="M39.7 1.699l-6.51 18.444a3.371 3.371 0 00-.139 1.727l2.96 16.279a1.937 1.937 0 01-.345 1.5c-.3.419-.772.712-1.32.787l-16.391 2.142a3.376 3.376 0 00-1.603.657L.776 55.053c-1.335 1.013-.862 3.12.772 3.466L81.844 75.59c1.649.35 2.937-1.413 2.101-2.876L43.234 1.383a1.927 1.927 0 00-1.692-.986A1.93 1.93 0 0039.7 1.699z" id="m"/><path d="M39.7 1.699l-6.51 18.444a3.371 3.371 0 00-.139 1.727l2.96 16.279a1.937 1.937 0 01-.345 1.5c-.3.419-.772.712-1.32.787l-16.391 2.142a3.376 3.376 0 00-1.603.657L.776 55.053c-1.335 1.013-.862 3.12.772 3.466L81.844 75.59c1.649.35 2.937-1.413 2.101-2.876L43.234 1.383a1.927 1.927 0 00-1.692-.986A1.93 1.93 0 0039.7 1.699z" id="o"/><path d="M39.7 1.699l-6.51 18.444a3.371 3.371 0 00-.139 1.727l2.96 16.279a1.937 1.937 0 01-.345 1.5c-.3.419-.772.712-1.32.787l-16.391 2.142a3.376 3.376 0 00-1.603.657L.776 55.053c-1.335 1.013-.862 3.12.772 3.466L81.844 75.59c1.649.35 2.937-1.413 2.101-2.876L43.234 1.383a1.927 1.927 0 00-1.692-.986A1.93 1.93 0 0039.7 1.699z" id="q"/><linearGradient x1="86.658%" y1="38.348%" x2="9.237%" y2="59.29%" id="a"><stop stop-color="#D3D5FC" stop-opacity="0" offset="0%"/><stop stop-color="#D3D5FC" offset="100%"/></linearGradient><linearGradient x1="89.957%" y1="54.811%" x2="28.182%" y2="55.103%" id="b"><stop stop-color="#D3D5FC" offset="0%"/><stop stop-color="#FFE6E8" offset="100%"/></linearGradient></defs><g fill="none" fill-rule="evenodd"><path d="M1440 223.973c-169.813 0-219.081 81.434-295.251 147.443" stroke="url(#a)" stroke-width="4" stroke-dasharray="4,8" transform="translate(0 2.027)"/><path d="M1130.593 383.208c-24.445 19.5-52.239 37.01-87.593 49.765-158 57-430-30-528-186-95.683-152.313 52-277 155-235 20.212 8.242 42.924 32.439 51 40 47 44 0 44 0 44s-46-2 0-44c8.304-7.582 23-29 48-40 125.329-55.145 244 90 156 235-37.559 61.887-111.369 120.13-199.115 159.88C669.801 432.262 527 482.974 398 433.974c-188.851-71.734-169-210-398-210" stroke="url(#b)" stroke-width="4" transform="translate(0 2.027)"/><g transform="rotate(-73 815.75 -499.455)"><mask id="d" fill="#fff"><use xlink:href="#c"/></mask><path d="M.774 55.056l16.288-12.362L86.102 76.5 1.548 58.523c-1.635-.348-2.106-2.456-.774-3.467" fill="#F4F4F4" mask="url(#d)"/></g><g transform="rotate(-73 815.75 -499.455)"><mask id="f" fill="#fff"><use xlink:href="#e"/></mask><path d="M.774 55.056l16.288-12.362L86.102 76.5 1.548 58.523c-1.635-.348-2.106-2.456-.774-3.467z" stroke="#B7B9FA" stroke-width="1.5" stroke-linecap="round" stroke-linejoin="round" mask="url(#f)"/></g><g transform="rotate(-73 815.75 -499.455)"><mask id="h" fill="#fff"><use xlink:href="#g"/></mask><path d="M39.697 1.7l-6.803 19.293 53.208 55.506-42.87-75.118C42.405-.07 40.254.122 39.698 1.7" fill="#F4F4F4" mask="url(#h)"/></g><g transform="rotate(-73 815.75 -499.455)"><mask id="j" fill="#fff"><use xlink:href="#i"/></mask><path d="M39.697 1.7l-6.803 19.293 53.208 55.506-42.87-75.118C42.405-.07 40.254.122 39.698 1.7z" stroke="#B7B9FA" stroke-width="1.5" stroke-linecap="round" stroke-linejoin="round" mask="url(#j)"/></g><g transform="rotate(-73 815.75 -499.455)"><mask id="l" fill="#fff"><use xlink:href="#k"/></mask><path d="M86.102 76.5l-69.04-33.807 17.28-2.256a1.946 1.946 0 001.325-.785L86.102 76.5z" fill="#ECECEC" mask="url(#l)"/></g><g transform="rotate(-73 815.75 -499.455)"><mask id="n" fill="#fff"><use xlink:href="#m"/></mask><path d="M86.102 76.5l-69.04-33.807 17.28-2.256a1.946 1.946 0 001.325-.785L86.102 76.5z" stroke="#B7B9FA" stroke-width="1.5" stroke-linecap="round" stroke-linejoin="round" mask="url(#n)"/></g><g transform="rotate(-73 815.75 -499.455)"><mask id="p" fill="#fff"><use xlink:href="#o"/></mask><path d="M86.102 76.5L32.894 20.992l3.117 17.159c.1.55-.04 1.085-.344 1.501L86.102 76.5z" fill="#ECECEC" mask="url(#p)"/></g><g transform="rotate(-73 815.75 -499.455)"><mask id="r" fill="#fff"><use xlink:href="#q"/></mask><path d="M86.102 76.5L32.894 20.992l3.117 17.159c.1.55-.04 1.085-.344 1.501L86.102 76.5z" stroke="#B7B9FA" stroke-width="1.5" stroke-linecap="round" stroke-linejoin="round" mask="url(#r)"/></g><path d="M1148.958 367.66c1.644-.372 2.953 1.376 2.137 2.849l-39.803 71.796c-.808 1.462-2.961 1.298-3.54-.275l-6.748-18.35a3.386 3.386 0 01-.16-1.725l2.745-16.301a1.94 1.94 0 00-.367-1.493 1.937 1.937 0 00-1.334-.768l-16.432-1.93a3.366 3.366 0 01-1.611-.636l-15.735-11.62c-1.344-.991-.904-3.1.731-3.47l80.117-18.078z" stroke="#B7B9FA" stroke-width="1.5" stroke-linecap="round" stroke-linejoin="round"/></g></svg>