<svg width="325" height="6239" xmlns="http://www.w3.org/2000/svg"><g fill="none" fill-rule="evenodd"><path fill="#FFF" d="M310.407 1244.612l-110.476.16v73.795h110.636v-73.955z"/><path fill="#FF4F5E" d="M263.986 1290.303l-8.898 8.898-8.899-8.898 8.9-8.898z"/><path fill="#BF3B47" d="M272.885 1281.402l-8.901 8.9-8.896-8.9 8.775-8.774.121-.121z"/><path fill="#FF727E" d="M255.089 1281.402l-8.9 8.9-8.83-8.833-.066-.067 8.895-8.895.128.127z"/><g stroke="#0D10BF" stroke-linecap="round" stroke-linejoin="round" stroke-width="1.219"><path d="M310.407 1244.61l.16 73.955H199.61v-73.795l37.627 36.82.123-.122-.067-.066 8.895-8.895.128.127 8.773 8.768 8.773-8.774.122-.121 8.901 8.895-.066.066.121.122z"/><path d="M310.407 1318.565H199.77l.16-.16 37.307-36.815.123-.122 8.956-8.834 8.773 8.767 8.773-8.773 8.957 8.84.121.122z"/><path d="M310.407 1244.61l-37.467 36.98-.121-.122.066-.066-8.9-8.895-.123.121-8.773 8.774-8.773-8.768-.128-.127-8.895 8.895.067.066-.123.122-37.306-36.82-.161-.16z"/></g><path stroke="#0D10BF" stroke-width="1.219" stroke-linecap="round" stroke-linejoin="round" d="M272.94 1281.59l-17.851 17.613-17.852-17.613.123-.122-.067-.066 8.895-8.895.128.127 8.773 8.768 8.773-8.774.122-.121 8.901 8.895-.066.066z"/><g opacity=".05"><path fill="#FFF" d="M321.407 5389.612l-110.476.16v73.795h110.636v-73.955z"/><path fill="#FF4F5E" d="M274.986 5435.303l-8.898 8.898-8.899-8.898 8.9-8.898z"/><path fill="#BF3B47" d="M283.885 5426.402l-8.901 8.9-8.896-8.9 8.775-8.774.121-.121z"/><path fill="#FF727E" d="M266.089 5426.402l-8.9 8.9-8.83-8.833-.066-.067 8.895-8.895.128.127z"/><g stroke="#0D10BF" stroke-linecap="round" stroke-linejoin="round" stroke-width="1.219"><path d="M321.407 5389.61l.16 73.955H210.61v-73.795l37.627 36.82.123-.122-.067-.066 8.895-8.895.128.127 8.773 8.768 8.773-8.774.122-.121 8.901 8.895-.066.066.121.122z"/><path d="M321.407 5463.565H210.77l.16-.16 37.307-36.815.123-.122 8.956-8.834 8.773 8.767 8.773-8.773 8.957 8.84.121.122z"/><path d="M321.407 5389.61l-37.467 36.98-.121-.122.066-.066-8.9-8.895-.123.121-8.773 8.774-8.773-8.768-.128-.127-8.895 8.895.067.066-.123.122-37.306-36.82-.161-.16z"/></g><path stroke="#0D10BF" stroke-width="1.219" stroke-linecap="round" stroke-linejoin="round" d="M283.94 5426.59l-17.851 17.613-17.852-17.613.123-.122-.067-.066 8.895-8.895.128.127 8.773 8.768 8.773-8.774.122-.121 8.901 8.895-.066.066z"/></g><path fill="#C4C7FB" d="M111.407 857.612l-110.476.16v73.795h110.637v-73.955z"/><path fill="#FF4F5E" d="M64.986 903.303l-8.898 8.898-8.899-8.898 8.899-8.898z"/><path fill="#BF3B47" d="M73.885 894.402l-8.9 8.9-8.896-8.9 8.773-8.774.123-.121z"/><path fill="#FF727E" d="M56.089 894.402l-8.901 8.9-8.829-8.834-.067-.066 8.896-8.895.128.127z"/><g stroke="#FFF" stroke-linecap="round" stroke-linejoin="round" stroke-width="1.219"><path d="M111.407 857.61l.16 73.955H.61V857.77l37.627 36.82.123-.122-.067-.066 8.895-8.895.127.126 8.774 8.769 8.773-8.774.123-.121 8.9 8.895-.066.066.121.122z"/><path d="M111.407 931.565H.77l.16-.16 37.307-36.815.123-.122 8.955-8.834 8.774 8.767 8.773-8.773 8.957 8.84.121.122z"/><path d="M111.407 857.61L73.94 894.59l-.121-.122.066-.066-8.9-8.895-.123.121-8.773 8.774-8.774-8.769-.127-.126-8.895 8.895.067.066-.123.122L.931 857.77l-.16-.16z"/></g><path stroke="#FFF" stroke-width="1.219" stroke-linecap="round" stroke-linejoin="round" d="M73.94 894.59L56.09 912.204 38.237 894.59l.123-.122-.067-.066 8.895-8.895.127.127 8.774 8.768 8.773-8.774.123-.121 8.9 8.895-.066.066z"/><g opacity=".05"><path fill="#C4C7FB" d="M111.407 4800.612l-110.476.16v73.795h110.637v-73.955z"/><path fill="#FF4F5E" d="M64.986 4846.303l-8.898 8.898-8.899-8.898 8.899-8.898z"/><path fill="#BF3B47" d="M73.885 4837.402l-8.9 8.9-8.896-8.9 8.773-8.774.123-.121z"/><path fill="#FF727E" d="M56.089 4837.402l-8.901 8.9-8.829-8.833-.067-.067 8.896-8.895.128.126z"/><g stroke="#FFF" stroke-linecap="round" stroke-linejoin="round" stroke-width="1.219"><path d="M111.407 4800.61l.16 73.955H.61v-73.795l37.627 36.82.123-.122-.067-.066 8.895-8.895.127.126 8.774 8.769 8.773-8.774.123-.121 8.9 8.895-.066.066.121.122z"/><path d="M111.407 4874.565H.77l.16-.16 37.307-36.815.123-.122 8.955-8.834 8.774 8.767 8.773-8.773 8.957 8.84.121.122z"/><path d="M111.407 4800.61l-37.467 36.98-.121-.122.066-.066-8.9-8.895-.123.121-8.773 8.774-8.774-8.769-.127-.126-8.895 8.895.067.066-.123.122-37.306-36.82-.16-.16z"/></g><path stroke="#FFF" stroke-width="1.219" stroke-linecap="round" stroke-linejoin="round" d="M73.94 4837.59l-17.851 17.614-17.852-17.614.123-.122-.067-.066 8.895-8.895.127.127 8.774 8.768 8.773-8.774.123-.121 8.9 8.895-.066.066z"/></g><g><path fill="#FFB9BE" d="M193.407 117.612l-110.476.16v73.795h110.636v-73.955z"/><path fill="#FF4F5E" d="M146.986 163.303l-8.898 8.898-8.9-8.898 8.9-8.898z"/><path fill="#BF3B47" d="M155.885 154.402l-8.9 8.9-8.896-8.9 8.774-8.774.121-.121z"/><path fill="#FF727E" d="M138.089 154.402l-8.9 8.9-8.83-8.834-.066-.066 8.896-8.895.126.127z"/><g stroke="#FFF" stroke-linecap="round" stroke-linejoin="round" stroke-width="1.219"><path d="M193.407 117.61l.16 73.955H82.61V117.77l37.627 36.82.122-.122-.066-.066 8.895-8.895.127.127 8.774 8.768 8.773-8.774.123-.121 8.9 8.895-.066.066.121.122z"/><path d="M193.407 191.565H82.77l.16-.16 37.307-36.815.123-.122 8.955-8.834 8.774 8.768 8.773-8.773 8.957 8.839.121.122z"/><path d="M193.407 117.61l-37.467 36.98-.121-.122.066-.066-8.9-8.895-.123.121-8.773 8.774-8.774-8.768-.127-.127-8.895 8.895.066.066-.122.122-37.306-36.82-.16-.16z"/></g><path stroke="#FFF" stroke-width="1.219" stroke-linecap="round" stroke-linejoin="round" d="M155.94 154.59l-17.851 17.613-17.852-17.613.122-.122-.066-.066 8.895-8.895.127.127 8.774 8.768 8.773-8.774.123-.121 8.9 8.895-.066.066z"/></g><g opacity=".1"><path fill="#FFB9BE" d="M193.407 4241.612l-110.476.16v73.795h110.636v-73.955z"/><path fill="#FF4F5E" d="M146.986 4287.303l-8.898 8.898-8.9-8.898 8.9-8.898z"/><path fill="#BF3B47" d="M155.885 4278.402l-8.9 8.9-8.896-8.9 8.774-8.774.121-.121z"/><path fill="#FF727E" d="M138.089 4278.402l-8.9 8.9-8.83-8.834-.066-.066 8.896-8.895.126.127z"/><g stroke="#FFF" stroke-linecap="round" stroke-linejoin="round" stroke-width="1.219"><path d="M193.407 4241.61l.16 73.955H82.61v-73.795l37.627 36.82.122-.122-.066-.066 8.895-8.895.127.127 8.774 8.768 8.773-8.774.123-.121 8.9 8.895-.066.066.121.122z"/><path d="M193.407 4315.565H82.77l.16-.16 37.307-36.815.123-.122 8.955-8.834 8.774 8.768 8.773-8.773 8.957 8.839.121.122z"/><path d="M193.407 4241.61l-37.467 36.98-.121-.122.066-.066-8.9-8.895-.123.121-8.773 8.774-8.774-8.768-.127-.127-8.895 8.895.066.066-.122.122-37.306-36.82-.16-.16z"/></g><path stroke="#FFF" stroke-width="1.219" stroke-linecap="round" stroke-linejoin="round" d="M155.94 4278.59l-17.851 17.613-17.852-17.613.122-.122-.066-.066 8.895-8.895.127.127 8.774 8.768 8.773-8.774.123-.121 8.9 8.895-.066.066z"/></g><g><path fill="#E7E8FE" d="M200.407 2623.612l-110.476.16v73.795h110.636v-73.955z"/><path fill="#FF4F5E" d="M153.986 2669.303l-8.898 8.898-8.9-8.898 8.9-8.898z"/><path fill="#BF3B47" d="M162.884 2660.402l-8.9 8.9-8.896-8.9 8.775-8.774.121-.121z"/><path fill="#FF727E" d="M145.089 2660.402l-8.9 8.9-8.83-8.834-.066-.066 8.896-8.895.126.127z"/><g stroke="#808BFC" stroke-linecap="round" stroke-linejoin="round" stroke-width="1.219"><path d="M200.407 2623.61l.16 73.955H89.61v-73.795l37.627 36.82.122-.122-.066-.066 8.895-8.895.127.127 8.774 8.768 8.773-8.774.122-.121 8.9 8.895-.065.066.121.122z"/><path d="M200.407 2697.565H89.77l.16-.16 37.307-36.815.122-.122 8.956-8.834 8.774 8.767 8.773-8.773 8.957 8.84.121.122z"/><path d="M200.407 2623.61l-37.467 36.98-.121-.122.066-.066-8.9-8.895-.123.121-8.773 8.774-8.774-8.768-.127-.127-8.895 8.895.066.066-.122.122-37.306-36.82-.16-.16z"/></g><path stroke="#808BFC" stroke-width="1.219" stroke-linecap="round" stroke-linejoin="round" d="M162.94 2660.59l-17.851 17.614-17.852-17.614.122-.122-.066-.066 8.895-8.895.127.127 8.774 8.768 8.773-8.774.122-.121 8.9 8.895-.065.066z"/></g><g opacity=".25"><path fill="#E7E8FE" d="M323.407 2094.612l-110.476.16v73.795h110.636v-73.955z"/><path fill="#FF4F5E" d="M276.986 2140.303l-8.898 8.898-8.9-8.898 8.9-8.898z"/><path fill="#BF3B47" d="M285.884 2131.402l-8.9 8.9-8.896-8.9 8.775-8.774.121-.121z"/><path fill="#FF727E" d="M268.089 2131.402l-8.9 8.9-8.83-8.834-.066-.066 8.896-8.895.126.127z"/><g stroke="#808BFC" stroke-linecap="round" stroke-linejoin="round" stroke-width="1.219"><path d="M323.407 2094.61l.16 73.955H212.61v-73.795l37.627 36.82.122-.122-.066-.066 8.895-8.895.127.127 8.774 8.768 8.773-8.774.122-.121 8.9 8.895-.065.066.121.122z"/><path d="M323.407 2168.565H212.77l.16-.16 37.307-36.815.122-.122 8.956-8.834 8.774 8.767 8.773-8.773 8.957 8.84.121.122z"/><path d="M323.407 2094.61l-37.467 36.98-.121-.122.066-.066-8.9-8.895-.123.121-8.773 8.774-8.774-8.768-.127-.127-8.895 8.895.066.066-.122.122-37.306-36.82-.16-.16z"/></g><path stroke="#808BFC" stroke-width="1.219" stroke-linecap="round" stroke-linejoin="round" d="M285.94 2131.59l-17.851 17.614-17.852-17.614.122-.122-.066-.066 8.895-8.895.127.127 8.774 8.768 8.773-8.774.122-.121 8.9 8.895-.065.066z"/></g><g opacity=".25"><g fill="#112DCB"><path d="M249.108 448.213h1.903v-1.902h-1.903zM249.108 456.774h1.903v-1.902h-1.903zM249.108 465.337h1.903v-1.903h-1.903zM249.108 473.898h1.903v-1.903h-1.903zM249.108 482.459h1.903v-1.902h-1.903zM249.108 491.02h1.903v-1.902h-1.903zM249.108 499.582h1.903v-1.903h-1.903zM249.108 508.144h1.903v-1.903h-1.903zM249.108 516.705h1.903v-1.902h-1.903zM231.987 448.213h1.902v-1.902h-1.903zM240.547 448.213h1.903v-1.902h-1.903zM231.987 456.774h1.902v-1.902h-1.903zM240.547 456.774h1.903v-1.902h-1.903zM231.987 465.337h1.902v-1.903h-1.903zM240.547 465.337h1.903v-1.903h-1.903zM231.987 473.898h1.902v-1.903h-1.903zM240.547 473.898h1.903v-1.903h-1.903zM231.987 482.459h1.902v-1.902h-1.903zM240.547 482.459h1.903v-1.902h-1.903zM231.987 491.02h1.902v-1.902h-1.903zM240.547 491.02h1.903v-1.902h-1.903zM231.987 499.582h1.902v-1.903h-1.903zM240.547 499.582h1.903v-1.903h-1.903zM231.987 508.144h1.902v-1.903h-1.903zM240.547 508.144h1.903v-1.903h-1.903zM231.987 516.705h1.902v-1.902h-1.903zM240.547 516.705h1.903v-1.902h-1.903zM214.864 448.213h1.903v-1.902h-1.903zM223.424 448.213h1.903v-1.902h-1.903zM214.864 456.774h1.903v-1.902h-1.903zM223.424 456.774h1.903v-1.902h-1.903zM214.864 465.337h1.903v-1.903h-1.903zM223.424 465.337h1.903v-1.903h-1.903zM214.864 473.898h1.903v-1.903h-1.903zM223.424 473.898h1.903v-1.903h-1.903zM214.864 482.459h1.903v-1.902h-1.903zM223.424 482.459h1.903v-1.902h-1.903zM214.864 491.02h1.903v-1.902h-1.903zM223.424 491.02h1.903v-1.902h-1.903zM214.864 499.582h1.903v-1.903h-1.903zM223.424 499.582h1.903v-1.903h-1.903zM214.864 508.144h1.903v-1.903h-1.903zM223.424 508.144h1.903v-1.903h-1.903zM214.864 516.705h1.903v-1.902h-1.903zM223.424 516.705h1.903v-1.902h-1.903zM197.74 448.213h1.903v-1.902h-1.902zM206.303 448.213h1.902v-1.902h-1.902zM197.74 456.774h1.903v-1.902h-1.902zM206.303 456.774h1.902v-1.902h-1.902zM197.74 465.337h1.903v-1.903h-1.902zM206.303 465.337h1.902v-1.903h-1.902zM197.74 473.898h1.903v-1.903h-1.902zM206.303 473.898h1.902v-1.903h-1.902zM197.74 482.459h1.903v-1.902h-1.902zM206.303 482.459h1.902v-1.902h-1.902zM197.74 491.02h1.903v-1.902h-1.902zM206.303 491.02h1.902v-1.902h-1.902zM197.74 499.582h1.903v-1.903h-1.902zM206.303 499.582h1.902v-1.903h-1.902zM197.74 508.144h1.903v-1.903h-1.902zM206.303 508.144h1.902v-1.903h-1.902zM197.74 516.705h1.903v-1.902h-1.902zM206.303 516.705h1.902v-1.902h-1.902zM180.618 448.213h1.902v-1.902h-1.902zM189.18 448.213h1.902v-1.902h-1.902zM180.618 456.774h1.902v-1.902h-1.902zM189.18 456.774h1.902v-1.902h-1.902zM180.618 465.337h1.902v-1.903h-1.902zM189.18 465.337h1.902v-1.903h-1.902zM180.618 473.898h1.902v-1.903h-1.902zM189.18 473.898h1.902v-1.903h-1.902zM180.618 482.459h1.902v-1.902h-1.902zM189.18 482.459h1.902v-1.902h-1.902zM180.618 491.02h1.902v-1.902h-1.902zM189.18 491.02h1.902v-1.902h-1.902zM180.618 499.582h1.902v-1.903h-1.902zM189.18 499.582h1.902v-1.903h-1.902zM180.618 508.144h1.902v-1.903h-1.902zM189.18 508.144h1.902v-1.903h-1.902zM180.618 516.705h1.902v-1.902h-1.902zM189.18 516.705h1.902v-1.902h-1.902zM163.496 448.213h1.902v-1.902h-1.902zM172.056 448.213h1.903v-1.902h-1.903zM163.496 456.774h1.902v-1.902h-1.902zM172.056 456.774h1.903v-1.902h-1.903zM163.496 465.337h1.902v-1.903h-1.902zM172.056 465.337h1.903v-1.903h-1.903zM163.496 473.898h1.902v-1.903h-1.902zM172.056 473.898h1.903v-1.903h-1.903zM163.496 482.459h1.902v-1.902h-1.902zM172.056 482.459h1.903v-1.902h-1.903zM163.496 491.02h1.902v-1.902h-1.902zM172.056 491.02h1.903v-1.902h-1.903zM163.496 499.582h1.902v-1.903h-1.902zM172.056 499.582h1.903v-1.903h-1.903zM163.496 508.144h1.902v-1.903h-1.902zM172.056 508.144h1.903v-1.903h-1.903zM163.496 516.705h1.902v-1.902h-1.902zM172.056 516.705h1.903v-1.902h-1.903zM146.373 448.213h1.902v-1.902h-1.903zM154.934 448.213h1.903v-1.902h-1.903zM146.373 456.774h1.902v-1.902h-1.903zM154.934 456.774h1.903v-1.902h-1.903zM146.373 465.337h1.902v-1.903h-1.903zM154.934 465.337h1.903v-1.903h-1.903zM146.373 473.898h1.902v-1.903h-1.903zM154.934 473.898h1.903v-1.903h-1.903zM146.373 482.459h1.902v-1.902h-1.903zM154.934 482.459h1.903v-1.902h-1.903zM146.373 491.02h1.902v-1.902h-1.903zM154.934 491.02h1.903v-1.902h-1.903zM146.373 499.582h1.902v-1.903h-1.903zM154.934 499.582h1.903v-1.903h-1.903zM146.373 508.144h1.902v-1.903h-1.903zM154.934 508.144h1.903v-1.903h-1.903zM146.373 516.705h1.902v-1.902h-1.903zM154.934 516.705h1.903v-1.902h-1.903z"/><path d="M143.923 517.122H253.34v-72.735l-109.418.159v72.576zm110.637 1.219H142.704v-75.013l111.856-.161v75.174z"/></g><path fill="#FF4F5E" d="M207.368 489.467l-8.898 8.898-8.899-8.898 8.899-8.898z"/><path fill="#BF3B47" d="M216.268 480.566l-8.901 8.901-8.896-8.901 8.774-8.773.122-.122z"/><path fill="#FF727E" d="M198.471 480.566l-8.9 8.901-8.829-8.835-.067-.066 8.896-8.895.127.127z"/><g fill="#0D10BF"><path d="M143.601 517.12H253.34l-.156-71.892-36.433 35.96a.609.609 0 01-.858-.003l-.121-.122a.599.599 0 01-.164-.296l-8.24-8.234-8.465 8.464a.61.61 0 01-.861 0l-8.47-8.464-8.235 8.234a.613.613 0 01-.164.298l-.122.121a.61.61 0 01-.856.003L143.6 445.383v71.736zm110.35 1.218H142.991a.61.61 0 01-.61-.61v-73.794a.61.61 0 011.036-.435l37.13 36.333 8.592-8.592a.608.608 0 01.43-.179h.002c.16 0 .316.065.43.18l8.47 8.463 8.464-8.464a.61.61 0 01.861 0l8.595 8.589 36.97-36.49a.61.61 0 011.037.433l.16 73.956a.61.61 0 01-.609.61z"/><path d="M144.636 517.12h107.669l-45.057-44.469-8.346 8.346a.61.61 0 01-.861 0l-8.346-8.34-45.059 44.462zm109.154 1.218H143.153a.61.61 0 01-.43-1.04l.16-.16 46.387-45.774a.609.609 0 01.858.003l8.343 8.337 8.343-8.343a.61.61 0 01.859-.002l46.544 45.936a.608.608 0 01-.427 1.043z"/><path d="M144.635 444.383l35.916 35.446 8.59-8.59a.607.607 0 01.862 0l8.468 8.465 8.465-8.464a.61.61 0 01.861 0l8.595 8.589 35.913-35.446h-107.67zm71.688 36.98a.605.605 0 01-.43-.178l-.122-.122a.599.599 0 01-.164-.296l-8.24-8.234-8.465 8.464a.61.61 0 01-.861 0l-8.47-8.464-8.234 8.234a.62.62 0 01-.165.298l-.122.121a.61.61 0 01-.858.002l-37.47-36.984a.61.61 0 01.43-1.04H253.79a.61.61 0 01.427 1.043l-37.467 36.98a.607.607 0 01-.427.177z"/><path d="M181.418 480.685l17.053 16.826 17.054-16.826-8.158-8.153-8.465 8.465a.61.61 0 01-.861 0l-8.47-8.465-8.153 8.153zm17.053 18.291a.607.607 0 01-.427-.175l-17.852-17.614a.606.606 0 01-.12-.698.615.615 0 01.173-.354l8.895-8.895a.605.605 0 01.43-.179h.002c.16 0 .316.065.43.18l8.469 8.463 8.465-8.464a.61.61 0 01.861 0l8.901 8.895a.608.608 0 01.174.356.605.605 0 01-.122.696l-17.85 17.614a.61.61 0 01-.429.175z"/></g></g><g opacity=".2"><g fill="#112DCB"><path d="M107.108 3716.213h1.903v-1.902h-1.903zM107.108 3724.774h1.903v-1.901h-1.903zM107.108 3733.336h1.903v-1.902h-1.903zM107.108 3741.898h1.903v-1.903h-1.903zM107.108 3750.459h1.903v-1.902h-1.903zM107.108 3759.02h1.903v-1.902h-1.903zM107.108 3767.581h1.903v-1.902h-1.903zM107.108 3776.143h1.903v-1.902h-1.903zM107.108 3784.705h1.903v-1.902h-1.903zM89.987 3716.213h1.902v-1.902h-1.902zM98.547 3716.213h1.903v-1.902h-1.903zM89.987 3724.774h1.902v-1.901h-1.902zM98.547 3724.774h1.903v-1.901h-1.903zM89.987 3733.336h1.902v-1.902h-1.902zM98.547 3733.336h1.903v-1.902h-1.903zM89.987 3741.898h1.902v-1.903h-1.902zM98.547 3741.898h1.903v-1.903h-1.903zM89.987 3750.459h1.902v-1.902h-1.902zM98.547 3750.459h1.903v-1.902h-1.903zM89.987 3759.02h1.902v-1.902h-1.902zM98.547 3759.02h1.903v-1.902h-1.903zM89.987 3767.581h1.902v-1.902h-1.902zM98.547 3767.581h1.903v-1.902h-1.903zM89.987 3776.143h1.902v-1.902h-1.902zM98.547 3776.143h1.903v-1.902h-1.903zM89.987 3784.705h1.902v-1.902h-1.902zM98.547 3784.705h1.903v-1.902h-1.903zM72.864 3716.213h1.903v-1.902h-1.903zM81.424 3716.213h1.903v-1.902h-1.903zM72.864 3724.774h1.903v-1.901h-1.903zM81.424 3724.774h1.903v-1.901h-1.903zM72.864 3733.336h1.903v-1.902h-1.903zM81.424 3733.336h1.903v-1.902h-1.903zM72.864 3741.898h1.903v-1.903h-1.903zM81.424 3741.898h1.903v-1.903h-1.903zM72.864 3750.459h1.903v-1.902h-1.903zM81.424 3750.459h1.903v-1.902h-1.903zM72.864 3759.02h1.903v-1.902h-1.903zM81.424 3759.02h1.903v-1.902h-1.903zM72.864 3767.581h1.903v-1.902h-1.903zM81.424 3767.581h1.903v-1.902h-1.903zM72.864 3776.143h1.903v-1.902h-1.903zM81.424 3776.143h1.903v-1.902h-1.903zM72.864 3784.705h1.903v-1.902h-1.903zM81.424 3784.705h1.903v-1.902h-1.903zM55.74 3716.213h1.903v-1.902H55.74zM64.303 3716.213h1.902v-1.902h-1.902zM55.74 3724.774h1.903v-1.901H55.74zM64.303 3724.774h1.902v-1.901h-1.902zM55.74 3733.336h1.903v-1.902H55.74zM64.303 3733.336h1.902v-1.902h-1.902zM55.74 3741.898h1.903v-1.903H55.74zM64.303 3741.898h1.902v-1.903h-1.902zM55.74 3750.459h1.903v-1.902H55.74zM64.303 3750.459h1.902v-1.902h-1.902zM55.74 3759.02h1.903v-1.902H55.74zM64.303 3759.02h1.902v-1.902h-1.902zM55.74 3767.581h1.903v-1.902H55.74zM64.303 3767.581h1.902v-1.902h-1.902zM55.74 3776.143h1.903v-1.902H55.74zM64.303 3776.143h1.902v-1.902h-1.902zM55.74 3784.705h1.903v-1.902H55.74zM64.303 3784.705h1.902v-1.902h-1.902zM38.618 3716.213h1.902v-1.902h-1.902zM47.18 3716.213h1.902v-1.902H47.18zM38.618 3724.774h1.902v-1.901h-1.902zM47.18 3724.774h1.902v-1.901H47.18zM38.618 3733.336h1.902v-1.902h-1.902zM47.18 3733.336h1.902v-1.902H47.18zM38.618 3741.898h1.902v-1.903h-1.902zM47.18 3741.898h1.902v-1.903H47.18zM38.618 3750.459h1.902v-1.902h-1.902zM47.18 3750.459h1.902v-1.902H47.18zM38.618 3759.02h1.902v-1.902h-1.902zM47.18 3759.02h1.902v-1.902H47.18zM38.618 3767.581h1.902v-1.902h-1.902zM47.18 3767.581h1.902v-1.902H47.18zM38.618 3776.143h1.902v-1.902h-1.902zM47.18 3776.143h1.902v-1.902H47.18zM38.618 3784.705h1.902v-1.902h-1.902zM47.18 3784.705h1.902v-1.902H47.18zM21.496 3716.213h1.902v-1.902h-1.902zM30.056 3716.213h1.903v-1.902h-1.903zM21.496 3724.774h1.902v-1.901h-1.902zM30.056 3724.774h1.903v-1.901h-1.903zM21.496 3733.336h1.902v-1.902h-1.902zM30.056 3733.336h1.903v-1.902h-1.903zM21.496 3741.898h1.902v-1.903h-1.902zM30.056 3741.898h1.903v-1.903h-1.903zM21.496 3750.459h1.902v-1.902h-1.902zM30.056 3750.459h1.903v-1.902h-1.903zM21.496 3759.02h1.902v-1.902h-1.902zM30.056 3759.02h1.903v-1.902h-1.903zM21.496 3767.581h1.902v-1.902h-1.902zM30.056 3767.581h1.903v-1.902h-1.903zM21.496 3776.143h1.902v-1.902h-1.902zM30.056 3776.143h1.903v-1.902h-1.903zM21.496 3784.705h1.902v-1.902h-1.902zM30.056 3784.705h1.903v-1.902h-1.903zM4.372 3716.213h1.903v-1.902H4.372zM12.934 3716.213h1.902v-1.902h-1.902zM4.372 3724.774h1.903v-1.901H4.372zM12.934 3724.774h1.902v-1.901h-1.902zM4.372 3733.336h1.903v-1.902H4.372zM12.934 3733.336h1.902v-1.902h-1.902zM4.372 3741.898h1.903v-1.903H4.372zM12.934 3741.898h1.902v-1.903h-1.902zM4.372 3750.459h1.903v-1.902H4.372zM12.934 3750.459h1.902v-1.902h-1.902zM4.372 3759.02h1.903v-1.902H4.372zM12.934 3759.02h1.902v-1.902h-1.902zM4.372 3767.581h1.903v-1.902H4.372zM12.934 3767.581h1.902v-1.902h-1.902zM4.372 3776.143h1.903v-1.902H4.372zM12.934 3776.143h1.902v-1.902h-1.902zM4.372 3784.705h1.903v-1.902H4.372zM12.934 3784.705h1.902v-1.902h-1.902z"/><path d="M1.923 3785.122H111.34v-72.735l-109.418.159v72.576zm110.637 1.219H.704v-75.013l111.856-.161v75.174z"/></g><path fill="#FF4F5E" d="M65.368 3757.467l-8.898 8.898-8.899-8.898 8.899-8.898z"/><path fill="#BF3B47" d="M74.268 3748.566l-8.901 8.901-8.896-8.901 8.774-8.774.122-.121z"/><path fill="#FF727E" d="M56.471 3748.566l-8.9 8.901-8.829-8.835-.067-.066 8.896-8.895.127.127z"/><g fill="#0D10BF"><path d="M1.601 3785.12H111.34l-.156-71.892-36.433 35.96a.609.609 0 01-.858-.003l-.121-.122a.599.599 0 01-.164-.296l-8.24-8.234-8.465 8.464a.61.61 0 01-.861 0l-8.47-8.464-8.235 8.234a.613.613 0 01-.164.298l-.122.121a.61.61 0 01-.856.003L1.6 3713.383v71.736zm110.35 1.218H.991a.61.61 0 01-.61-.61v-73.794a.61.61 0 011.036-.435l37.13 36.333 8.592-8.592a.608.608 0 01.43-.179h.002c.16 0 .316.065.43.18l8.47 8.463 8.464-8.464a.61.61 0 01.861 0l8.595 8.589 36.97-36.49a.61.61 0 011.037.433l.16 73.956a.61.61 0 01-.609.61z"/><path d="M2.636 3785.12h107.669l-45.057-44.469-8.346 8.346a.61.61 0 01-.861 0l-8.346-8.34-45.059 44.462zm109.154 1.218H1.153a.61.61 0 01-.43-1.04l.16-.16 46.387-45.774a.609.609 0 01.858.003l8.343 8.337 8.343-8.343a.61.61 0 01.859-.002l46.544 45.936a.608.608 0 01-.427 1.043z"/><path d="M2.635 3712.383l35.916 35.446 8.59-8.59a.607.607 0 01.862 0l8.468 8.465 8.465-8.464a.61.61 0 01.861 0l8.595 8.589 35.913-35.446H2.635zm71.688 36.98a.605.605 0 01-.43-.178l-.122-.122a.599.599 0 01-.164-.296l-8.24-8.234-8.465 8.464a.61.61 0 01-.861 0l-8.47-8.464-8.234 8.234a.62.62 0 01-.165.298l-.122.121a.61.61 0 01-.858.002l-37.47-36.984a.61.61 0 01.43-1.04H111.79a.61.61 0 01.427 1.043l-37.467 36.98a.607.607 0 01-.427.177z"/><path d="M39.418 3748.685l17.053 16.826 17.054-16.826-8.158-8.153-8.465 8.465a.61.61 0 01-.861 0l-8.47-8.465-8.153 8.153zm17.053 18.291a.607.607 0 01-.427-.175l-17.852-17.614a.606.606 0 01-.12-.698.615.615 0 01.173-.354l8.895-8.895a.605.605 0 01.43-.179h.002c.16 0 .316.065.43.18l8.469 8.463 8.465-8.464a.61.61 0 01.861 0l8.901 8.895a.608.608 0 01.174.356.605.605 0 01-.122.696l-17.85 17.614a.61.61 0 01-.429.175z"/></g></g><g opacity=".5"><path fill="#FFE6E8" d="M154.407 1658.612l-110.476.16v73.795h110.636v-73.955z"/><path fill="#FF4F5E" d="M107.986 1704.303l-8.898 8.898-8.9-8.898 8.9-8.898z"/><path fill="#BF3B47" d="M116.885 1695.402l-8.9 8.9-8.896-8.9 8.774-8.774.121-.121z"/><path fill="#FF727E" d="M99.089 1695.402l-8.9 8.9-8.83-8.834-.066-.066 8.896-8.895.126.127z"/><g stroke="#808BFC" stroke-linecap="round" stroke-linejoin="round" stroke-width="1.219"><path d="M154.407 1658.61l.16 73.955H43.61v-73.795l37.627 36.82.122-.122-.066-.066 8.895-8.895.127.127 8.774 8.768 8.773-8.774.122-.121 8.9 8.895-.065.066.121.122z"/><path d="M154.407 1732.565H43.77l.16-.16 37.307-36.815.122-.122 8.956-8.834 8.774 8.768 8.773-8.773 8.957 8.84.121.12z"/><path d="M154.407 1658.61l-37.467 36.98-.121-.122.066-.066-8.9-8.895-.123.121-8.773 8.774-8.774-8.768-.127-.127-8.895 8.895.066.066-.122.122-37.306-36.82-.16-.16z"/></g><path stroke="#808BFC" stroke-width="1.219" stroke-linecap="round" stroke-linejoin="round" d="M116.94 1695.59l-17.851 17.613-17.852-17.613.122-.122-.066-.066 8.895-8.895.127.127 8.774 8.768 8.773-8.774.122-.121 8.9 8.895-.065.066z"/></g><g opacity=".02"><path fill="#FFE6E8" d="M154.407 5916.612l-110.476.16v73.795h110.636v-73.955z"/><path fill="#FF4F5E" d="M107.986 5962.303l-8.898 8.898-8.9-8.898 8.9-8.898z"/><path fill="#BF3B47" d="M116.885 5953.402l-8.9 8.9-8.896-8.9 8.774-8.774.121-.121z"/><path fill="#FF727E" d="M99.089 5953.402l-8.9 8.9-8.83-8.834-.066-.066 8.896-8.895.126.127z"/><g stroke="#808BFC" stroke-linecap="round" stroke-linejoin="round" stroke-width="1.219"><path d="M154.407 5916.61l.16 73.955H43.61v-73.795l37.627 36.82.122-.122-.066-.066 8.895-8.895.127.127 8.774 8.768 8.773-8.774.122-.121 8.9 8.895-.065.066.121.122z"/><path d="M154.407 5990.565H43.77l.16-.16 37.307-36.815.122-.122 8.956-8.834 8.774 8.768 8.773-8.773 8.957 8.839.121.122z"/><path d="M154.407 5916.61l-37.467 36.98-.121-.122.066-.066-8.9-8.895-.123.121-8.773 8.774-8.774-8.768-.127-.127-8.895 8.895.066.066-.122.122-37.306-36.82-.16-.16z"/></g><path stroke="#808BFC" stroke-width="1.219" stroke-linecap="round" stroke-linejoin="round" d="M116.94 5953.59l-17.851 17.613-17.852-17.613.122-.122-.066-.066 8.895-8.895.127.127 8.774 8.768 8.773-8.774.122-.121 8.9 8.895-.065.066z"/></g><g opacity=".25"><path fill="#FFE6E8" d="M310.407 3202.612l-110.476.16v73.795h110.636v-73.955z"/><path fill="#FF4F5E" d="M263.986 3248.303l-8.898 8.898-8.9-8.898 8.9-8.898z"/><path fill="#BF3B47" d="M272.885 3239.402l-8.9 8.9-8.896-8.9 8.774-8.774.121-.121z"/><path fill="#FF727E" d="M255.089 3239.402l-8.9 8.9-8.83-8.834-.066-.066 8.896-8.895.126.127z"/><g stroke="#808BFC" stroke-linecap="round" stroke-linejoin="round" stroke-width="1.219"><path d="M310.407 3202.61l.16 73.955H199.61v-73.795l37.627 36.82.122-.122-.066-.066 8.895-8.895.127.127 8.774 8.768 8.773-8.774.122-.121 8.9 8.895-.065.066.121.122z"/><path d="M310.407 3276.565H199.77l.16-.16 37.307-36.815.122-.122 8.956-8.834 8.774 8.768 8.773-8.773 8.957 8.84.121.12z"/><path d="M310.407 3202.61l-37.467 36.98-.121-.122.066-.066-8.9-8.895-.123.121-8.773 8.774-8.774-8.768-.127-.127-8.895 8.895.066.066-.122.122-37.306-36.82-.16-.16z"/></g><path stroke="#808BFC" stroke-width="1.219" stroke-linecap="round" stroke-linejoin="round" d="M272.94 3239.59l-17.851 17.613-17.852-17.613.122-.122-.066-.066 8.895-8.895.127.127 8.774 8.768 8.773-8.774.122-.121 8.9 8.895-.065.066z"/></g></g></svg>