<svg id="Layer_1" data-name="Layer 1" xmlns="http://www.w3.org/2000/svg" viewBox="0 0 700 702"><defs><pattern id="New_Pattern_Swatch_3" data-name="New Pattern Swatch 3" width="18" height="18" patternTransform="matrix(1.34 0 0 1.34 -772.52 34.22)" patternUnits="userSpaceOnUse"><path class="cls-1" d="M0 0h18v18H0z"/><path d="M0 0h2v2H0zm9 0h2v2H9zM0 9h2v2H0zm9 0h2v2H9z" fill="#112dcb"/><path class="cls-1" d="M0 0h18v18H0z"/></pattern><style>.cls-1,.cls-6{fill:none}.cls-6{stroke:#7f8bfc;stroke-miterlimit:10;stroke-width:1.5px}</style></defs><path d="M700 352.91a350.26 350.26 0 01-527.39 301 351.14 351.14 0 01-83.47-68.27q-5.42-6-10.54-12.3a346.81 346.81 0 01-76.48-182A343.69 343.69 0 010 356.77v-3.86A347.07 347.07 0 0173 139.5q7.73-9.94 16.13-19.31a351.09 351.09 0 01392.38-90.9 349.84 349.84 0 01217.58 298.19q.91 12.59.91 25.43z" fill="url(#New_Pattern_Swatch_3)" opacity=".5"/><path d="M700 351.09A350.1 350.1 0 0189.14 583.82q-5.43-6-10.55-12.3a346.78 346.78 0 01-76.48-182v0A343.52 343.52 0 010 355v-3.86a347.31 347.31 0 0173-213.46q7.74-9.94 16.13-19.31a351.1 351.1 0 01392.39-90.9h0a350.77 350.77 0 01129.33 90.9 347.21 347.21 0 0188.22 207.3q.93 12.59.93 25.42z" stroke-width="3" stroke="#7f8bfc" stroke-miterlimit="10" fill="none"/><path class="cls-6" d="M525 351.1c0 192.79-78.34 349.09-175 349.09-32.37 0-62.69-17.53-88.7-48.1-18-21.12-33.89-48.48-47-80.56-20.76-50.76-34.48-113.37-38.24-182q-1-17.06-1-34.58v-3.86c0-23.28 1.14-46 3.32-68.05 5.35-54 16.92-103.46 33.18-145.37a358.49 358.49 0 0126.59-55c23.73-39.41 52.75-66.53 84.64-76.49A91.57 91.57 0 01350 2c23.26 0 45.46 9.06 65.75 25.48 60.32 48.85 103.9 162.82 108.79 298.19q.46 12.59.46 25.43z"/><path class="cls-6" d="M610.86 118.37a379.41 379.41 0 01-53.36 24.21c-51.65 19-114.15 31.08-182 33.52q-12.62.43-25.49.45c-103.67 0-196.8-22.47-260.88-58.18a351.1 351.1 0 01392.39-90.9 350.77 350.77 0 01129.34 90.9zm.01 465.45a350.28 350.28 0 01-521.73 0 366.58 366.58 0 0139.85-19c50.9-20.69 113.66-34.38 182.44-38.14q17.1-.95 34.67-1h3.88c23.34 0 46.16 1.14 68.22 3.31C472.33 534.29 522 545.83 564 562a371.2 371.2 0 0146.87 21.82zM0 351.1h699.99M350 2v698.19"/></svg>