<svg id="Layer_1" data-name="Layer 1" xmlns="http://www.w3.org/2000/svg" viewBox="0 0 252 205"><defs><style>.cls-1{fill:#ffebed;stroke:#ffebed;stroke-miterlimit:10;stroke-width:2px}</style></defs><path class="cls-1" transform="rotate(180 34.965 34.84)" d="M23.63 23.51h22.66v22.66H23.63z"/><path class="cls-1" transform="rotate(180 12.33 57.445)" d="M1 46.11h22.66v22.66H1z"/><path class="cls-1" transform="rotate(180 12.33 80.115)" d="M1 68.79h22.66v22.66H1z"/><path class="cls-1" transform="rotate(180 34.77 102.785)" d="M23.44 91.46H46.1v22.66H23.44z"/><path class="cls-1" transform="rotate(180 57.445 125.46)" d="M46.12 114.13h22.66v22.66H46.12z"/><path class="cls-1" transform="rotate(180 80.345 147.675)" d="M69.02 136.34h22.66V159H69.02z"/><path class="cls-1" transform="rotate(180 103.02 170.69)" d="M91.69 159.36h22.66v22.66H91.69z"/><path class="cls-1" transform="rotate(180 149.335 170.69)" d="M138.01 159.36h22.66v22.66h-22.66z"/><path class="cls-1" transform="rotate(180 126.03 192.675)" d="M114.7 181.34h22.66V204H114.7z"/><path class="cls-1" transform="rotate(180 57.675 12.33)" d="M46.35 1h22.66v22.66H46.35z"/><path class="cls-1" transform="rotate(180 80.345 12.33)" d="M69.02 1h22.66v22.66H69.02z"/><path class="cls-1" transform="rotate(180 103.355 34.87)" d="M92.03 23.54h22.66V46.2H92.03z"/><path class="cls-1" d="M205.71 23.51h22.66v22.66h-22.66z"/><path class="cls-1" d="M228.34 46.11H251v22.66h-22.66zm0 22.68H251v22.66h-22.66zM205.9 91.46h22.66v22.66H205.9zm-22.67 22.67h22.66v22.66h-22.66zm-22.9 22.21h22.66V159h-22.66zM160.32 1h22.66v22.66h-22.66zM183 1h22.66v22.66H183zm-45.68 22.54h22.66V46.2h-22.66zM114.7 46.21h22.66v22.66H114.7z"/></svg>