<svg id="Layer_1" data-name="Layer 1" xmlns="http://www.w3.org/2000/svg" viewBox="0 0 196.54 102.74"><defs><style>.cls-1{fill:#112dcb}</style></defs><path class="cls-1" d="M196.54 47.06c-16.47 0-24.83-7.15-32.92-14.06S147.31 19.06 131 19.06 106.45 26.15 98.43 33 82 47.06 65.51 47.06 40.68 39.91 32.59 33 16.29 19.06 0 19.06v-.5c16.47 0 24.83 7.15 32.92 14.06s16.31 13.94 32.59 13.94 24.58-7.09 32.6-13.94S114.56 18.56 131 18.56s24.86 7.15 33 14.06 16.3 13.94 32.59 13.94z"/><path class="cls-1" d="M196.54 28.5c-16.47 0-24.83-7.15-32.92-14.06S147.31.5 131 .5s-24.58 7.09-32.6 13.94S82 28.5 65.51 28.5s-24.83-7.15-32.92-14.06S16.29.5 0 .5V0c16.47 0 24.83 7.15 32.92 14.06S49.23 28 65.51 28s24.58-7.09 32.6-13.94S114.56 0 131 0s24.86 7.15 33 14.06S180.25 28 196.54 28zm0 37.12c-16.47 0-24.83-7.15-32.92-14.06S147.31 37.62 131 37.62s-24.58 7.09-32.6 13.94S82 65.62 65.51 65.62s-24.83-7.15-32.92-14.06S16.29 37.62 0 37.62v-.5c16.47 0 24.83 7.15 32.92 14.06s16.31 13.94 32.59 13.94S90.09 58 98.11 51.18 114.56 37.12 131 37.12s24.86 7.15 33 14.06 16.3 13.94 32.59 13.94z"/><path class="cls-1" d="M196.54 84.18c-16.47 0-24.83-7.15-32.92-14.06S147.31 56.18 131 56.18s-24.58 7.09-32.6 13.94S82 84.18 65.51 84.18 40.68 77 32.59 70.12 16.29 56.18 0 56.18v-.5c16.47 0 24.83 7.15 32.92 14.06s16.31 13.94 32.59 13.94 24.58-7.09 32.6-13.94S114.56 55.68 131 55.68s24.86 7.15 33 14.06 16.3 13.94 32.59 13.94z"/><path class="cls-1" d="M196.54 102.74c-16.47 0-24.83-7.15-32.92-14.06S147.31 74.74 131 74.74s-24.58 7.09-32.6 13.94-16.4 14.06-32.89 14.06-24.83-7.15-32.92-14.06S16.29 74.74 0 74.74v-.5c16.47 0 24.83 7.15 32.92 14.06s16.31 13.94 32.59 13.94 24.58-7.09 32.6-13.94S114.56 74.24 131 74.24s24.86 7.15 33 14.06 16.3 13.94 32.59 13.94z"/></svg>