<svg id="Layer_1" data-name="Layer 1" xmlns="http://www.w3.org/2000/svg" viewBox="0 0 110 110"><defs><style>.cls-1{fill:#b6d806;}</style></defs><title>green</title><path class="cls-1" d="M100.6,59c.12-1.35.18-2.7.18-4.07A45.88,45.88,0,0,0,54.95,9.17h0a45.53,45.53,0,0,0-32.4,13.44,46,46,0,0,0-8,10.67H11.75A9,9,0,0,0,9.3,50.94c-.12,1.35-.19,2.72-.19,4.09a45.83,45.83,0,0,0,45.83,45.8h0a45.53,45.53,0,0,0,32.4-13.44,46,46,0,0,0,8-10.67h2.92A9,9,0,0,0,100.6,59Zm-2-.3-.36,0H82.63c.07-1.31.12-2.64.12-4A68.06,68.06,0,0,0,79.7,34.29H93.56A43.56,43.56,0,0,1,98.78,55C98.78,56.24,98.72,57.49,98.61,58.74ZM27.84,51.28h9.05v.29c0,.42.45,10.22,16.24,21.16v3H31a66.12,66.12,0,0,1-3.29-21C27.75,53.57,27.79,52.42,27.84,51.28Zm52.79,7.43H69a27.59,27.59,0,0,0,1.28-2.65,11.17,11.17,0,0,0,1.35-5.33,11,11,0,0,0-3-7.65,10.16,10.16,0,0,0-7.39-3.19h0a10.15,10.15,0,0,0-5.91,1.94V34.31H77.63a66.37,66.37,0,0,1,3.12,20.45C80.75,56.08,80.71,57.41,80.63,58.72Zm-25.49,17V72.81c6.07-4.08,10.44-8.39,13.26-13.09H80.57a64.37,64.37,0,0,1-3.1,16ZM43.35,51.28a3.78,3.78,0,0,0,3.74,3.34h0a3.79,3.79,0,0,0,0-7.57h0a3.78,3.78,0,0,0-3.73,3.23H38.92a9,9,0,0,1,2.46-5.79,8.18,8.18,0,0,1,5.94-2.58h0a8.17,8.17,0,0,1,6.17,2.83l.75.85.75-.85a8.17,8.17,0,0,1,6.17-2.84h0a8.18,8.18,0,0,1,5.94,2.57,9,9,0,0,1,2.49,6.26,9.17,9.17,0,0,1-1.13,4.41l0,.1a24.52,24.52,0,0,1-1.73,3.46H62a3.79,3.79,0,0,0-3.71-3.06h0a3.79,3.79,0,0,0,0,7.57h0A3.75,3.75,0,0,0,62,59.72h4.05c-2,3-5.49,7-11.87,11.32C41.74,62.38,39.42,54.53,39,52.21l-.06-.73c0-.07,0-.13,0-.2Zm2-.44a1.79,1.79,0,0,1,1.78-1.79h0a1.79,1.79,0,0,1,0,3.57h0A1.79,1.79,0,0,1,45.31,50.84ZM60,59.44a1.79,1.79,0,0,1-1.78,1.79h0a1.79,1.79,0,0,1,0-3.57h0A1.79,1.79,0,0,1,60,59.44ZM55.25,33.31v-22c9.45.57,17.65,9.3,22.06,22Zm-2,0h-8.5v0H31.21c4.41-12.7,12.59-21.42,22-22Zm-37,1H28.79a66.64,66.64,0,0,0-2.9,16H11.75l-.37,0A43.41,43.41,0,0,1,16.28,34.33Zm14.58,0H53.25v7.56a10.15,10.15,0,0,0-5.93-1.95h0a10.17,10.17,0,0,0-7.39,3.19,11,11,0,0,0-3,7.17h-9A64.82,64.82,0,0,1,30.86,34.32ZM53.14,76.69v21.5c-9.27-.62-17.33-9.1-21.77-21.49Zm2,0H65.25v0H77.1c-4.46,12.46-12.6,21-21.95,21.48Zm38.48-1H79.54a66.21,66.21,0,0,0,3-16H98.52A43.41,43.41,0,0,1,93.62,75.67ZM93,33.28H79.38c-3.24-9.63-8.58-17.18-15-21.1A44,44,0,0,1,93,33.28ZM23.94,24A43.57,43.57,0,0,1,43.29,12.74c-6.07,4-11.08,11.35-14.17,20.54H16.87A44,44,0,0,1,23.94,24ZM3.75,42.28a8,8,0,0,1,8-8h2.31A45.39,45.39,0,0,0,9.4,49.93,8,8,0,0,1,3.75,42.28Zm7.54,9,.46,0H25.84c-.05,1.14-.09,2.29-.09,3.46a67.84,67.84,0,0,0,3.22,21H16.3A43.61,43.61,0,0,1,11.12,55C11.12,53.76,11.18,52.51,11.29,51.26Zm5.58,25.46H29.3c3.36,9.67,8.85,17.19,15.46,20.93A43.54,43.54,0,0,1,24,86,44,44,0,0,1,16.87,76.72ZM86,86a43.51,43.51,0,0,1-23.1,12.14c7-3.55,12.83-11.3,16.33-21.39H93A44.05,44.05,0,0,1,86,86ZM98.25,75.72H95.84A45.39,45.39,0,0,0,100.5,60a8,8,0,0,1-2.25,15.67Z"/></svg>