<svg data-name="Layer 1" xmlns="http://www.w3.org/2000/svg" viewBox="0 0 110 110">
    <path d="M100.6 59c.12-1.35.18-2.7.18-4.07A45.88 45.88 0 0 0 54.95 9.17a45.53 45.53 0 0 0-32.4 13.44 46 46 0 0 0-8 10.67h-2.8A9 9 0 0 0 9.3 50.94c-.12 1.35-.19 2.72-.19 4.09a45.83 45.83 0 0 0 45.83 45.8 45.53 45.53 0 0 0 32.4-13.44 46 46 0 0 0 8-10.67h2.92A9 9 0 0 0 100.6 59zm-2-.3H82.63c.07-1.31.12-2.64.12-4a68.06 68.06 0 0 0-3.05-20.41h13.86A43.56 43.56 0 0 1 98.78 55c0 1.24-.06 2.49-.17 3.74zm-70.76-7.42h9.05v.29c0 .42.45 10.22 16.24 21.16v3H31a66.12 66.12 0 0 1-3.29-21c.04-1.16.08-2.31.13-3.45zm52.79 7.43H69a27.59 27.59 0 0 0 1.28-2.65 11.17 11.17 0 0 0 1.35-5.33 11 11 0 0 0-3-7.65 10.16 10.16 0 0 0-7.39-3.19 10.15 10.15 0 0 0-5.91 1.94v-7.52h22.3a66.37 66.37 0 0 1 3.12 20.45c0 1.32-.04 2.65-.12 3.96zm-25.49 17v-2.9c6.07-4.08 10.44-8.39 13.26-13.09h12.17a64.37 64.37 0 0 1-3.1 16zM43.35 51.28a3.78 3.78 0 0 0 3.74 3.34 3.79 3.79 0 0 0 0-7.57 3.78 3.78 0 0 0-3.73 3.23h-4.44a9 9 0 0 1 2.46-5.79 8.18 8.18 0 0 1 5.94-2.58 8.17 8.17 0 0 1 6.17 2.83l.75.85.75-.85a8.17 8.17 0 0 1 6.17-2.84 8.18 8.18 0 0 1 5.94 2.57 9 9 0 0 1 2.49 6.26 9.17 9.17 0 0 1-1.13 4.41v.1a24.52 24.52 0 0 1-1.73 3.46H62a3.79 3.79 0 0 0-3.71-3.06 3.79 3.79 0 0 0 0 7.57A3.75 3.75 0 0 0 62 59.72h4.05c-2 3-5.49 7-11.87 11.32C41.74 62.38 39.42 54.53 39 52.21l-.06-.73v-.2zm2-.44a1.79 1.79 0 0 1 1.78-1.79 1.79 1.79 0 0 1 0 3.57 1.79 1.79 0 0 1-1.82-1.78zM60 59.44a1.79 1.79 0 0 1-1.78 1.79 1.79 1.79 0 0 1 0-3.57A1.79 1.79 0 0 1 60 59.44zm-4.75-26.13v-22c9.45.57 17.65 9.3 22.06 22zm-2 0H31.21c4.41-12.7 12.59-21.42 22-22zm-37 1h12.54a66.64 66.64 0 0 0-2.9 16H11.38a43.41 43.41 0 0 1 4.9-15.98zm14.58 0h22.42v7.56a10.15 10.15 0 0 0-5.93-1.95 10.17 10.17 0 0 0-7.39 3.19 11 11 0 0 0-3 7.17h-9a64.82 64.82 0 0 1 2.93-15.96zm22.31 42.38v21.5c-9.27-.62-17.33-9.1-21.77-21.49zm2 0H77.1c-4.46 12.46-12.6 21-21.95 21.48zm38.48-1H79.54a66.21 66.21 0 0 0 3-16h15.98a43.41 43.41 0 0 1-4.9 15.98zM93 33.28H79.38c-3.24-9.63-8.58-17.18-15-21.1A44 44 0 0 1 93 33.28zM23.94 24a43.57 43.57 0 0 1 19.35-11.26c-6.07 4-11.08 11.35-14.17 20.54H16.87A44 44 0 0 1 23.94 24zM3.75 42.28a8 8 0 0 1 8-8h2.31A45.39 45.39 0 0 0 9.4 49.93a8 8 0 0 1-5.65-7.65zm7.54 9h14.55a78.67 78.67 0 0 0-.09 3.46 67.84 67.84 0 0 0 3.22 21H16.3A43.61 43.61 0 0 1 11.12 55c0-1.24.06-2.49.17-3.74zm5.58 25.46H29.3c3.36 9.67 8.85 17.19 15.46 20.93A43.54 43.54 0 0 1 24 86a44 44 0 0 1-7.13-9.28zM86 86a43.51 43.51 0 0 1-23.1 12.14c7-3.55 12.83-11.3 16.33-21.39H93A44.05 44.05 0 0 1 86 86zm12.25-10.28h-2.41A45.39 45.39 0 0 0 100.5 60a8 8 0 0 1-2.25 15.67z" fill="#b6d806"/>
</svg>
