<svg id="Layer_1" data-name="Layer 1" xmlns="http://www.w3.org/2000/svg" viewBox="0 0 110 110">
    <defs>
        <style>
            .cls-1{fill:#b6d806}
        </style>
    </defs>
    <path class="cls-1" d="M26.36 31.59a3.25 3.25 0 0 0 2.64 1.7 3.25 3.25 0 0 0 2.67-1.7c.61-.81 1-1.3 1.87-1.3s1.26.49 1.87 1.3a3.25 3.25 0 0 0 2.67 1.7 3.25 3.25 0 0 0 2.67-1.7c.61-.81 1-1.3 1.87-1.3s1.26.49 1.87 1.3a2.95 2.95 0 0 0 5.34 0c.61-.81 1-1.3 1.87-1.3s1.26.5 1.87 1.3a3.26 3.26 0 0 0 2.67 1.7v-1c-.84 0-1.26-.49-1.87-1.3a2.95 2.95 0 0 0-5.34 0c-.61.81-1 1.3-1.87 1.3s-1.26-.5-1.87-1.3A2.94 2.94 0 0 0 40 31c-.61.81-1 1.3-1.87 1.3s-1.26-.49-1.87-1.3a3.25 3.25 0 0 0-2.67-1.7A3.25 3.25 0 0 0 30.9 31c-.61.81-1 1.3-1.87 1.3s-1.26-.49-1.87-1.3a3.25 3.25 0 0 0-2.67-1.7v1c.85-.01 1.26.48 1.87 1.29z"/>
    <path class="cls-1" d="M97 83.52a30.5 30.5 0 0 0 3.42-14.11v-2.09c0-.34 0-.68-.08-1s-.05-.41-.08-.61-.07-.61-.12-.91-.08-.43-.11-.65-.09-.57-.15-.85-.1-.44-.15-.66-.12-.54-.19-.81-.12-.44-.18-.67-.14-.52-.22-.78-.14-.44-.22-.67-.16-.5-.25-.75-.17-.44-.25-.66-.18-.48-.28-.72-.19-.44-.29-.65-.2-.46-.31-.69l-.32-.65-.34-.66-.35-.64-.37-.64-.46-.65-.39-.61-.42-.61-.41-.58-.45-.6-.43-.55-.48-.58-.47-.47-.52-.57-.47-.49-.55-.55-.48-.46-.63-.58-.5-.43-.61-.51-.51-.4-.65-.49-.52-.37-.68-.46-.53-.35-.71-.44-.54-.31-.74-.41-.54-.28-.78-.38-.54-.24-.81-.35-.53-.21-.81-.33-.53-.18-.89-.29-.51-.15-.93-.25-.5-.11-1-.22-.46-.08-1-.18-.4-.05-1.12-.14h-.28c-.42 0-.84-.07-1.26-.09A30.8 30.8 0 1 0 14 56.48l-3.7 12 12.22-2.8a30.65 30.65 0 0 0 16.36 5.65 30.64 30.64 0 0 0 5 15v.08c.23.35.47.68.71 1l.13.18c.23.31.46.61.7.91l.19.24c.23.28.46.55.69.82l.25.29.69.75.3.32.69.68.35.33.69.63.4.34.69.57.44.35.69.52.49.35.7.47.52.34.7.43.56.32.7.38.6.31.7.34.64.29.7.3.67.26.7.26.71.24.7.23.74.21.69.19.78.18.68.15.82.15.67.12.87.11.64.08 1 .08h2.1a30.83 30.83 0 0 0 7.25-.86q1.16-.28 2.29-.65a30.73 30.73 0 0 0 8.32-4.2l6.11 1.4 6.11 1.4L96 85.3q.53-.87 1-1.78zM38.81 69.35a28.57 28.57 0 0 1-15.14-5.28 2 2 0 0 0-1.61-.32l-8.84 2 2.68-8.71a2 2 0 0 0-.2-1.63 28.8 28.8 0 1 1 53.41-16.8 30.68 30.68 0 0 0-13.36 3.29 3 3 0 0 1-1.35-1.22 2.95 2.95 0 0 0-5.34 0c-.61.81-1 1.3-1.87 1.3s-1.26-.5-1.87-1.3a2.94 2.94 0 0 0-5.33 0c-.61.81-1 1.3-1.87 1.3s-1.26-.49-1.87-1.3A3.25 3.25 0 0 0 33.57 39a3.25 3.25 0 0 0-2.67 1.7c-.61.81-1 1.3-1.87 1.3s-1.26-.49-1.87-1.3a3.25 3.25 0 0 0-2.67-1.7v1c.84 0 1.26.49 1.87 1.3A3.25 3.25 0 0 0 29 43a3.25 3.25 0 0 0 2.67-1.7c.61-.81 1-1.3 1.87-1.3s1.26.49 1.87 1.3A3.25 3.25 0 0 0 38.1 43a3.25 3.25 0 0 0 2.67-1.7c.61-.81 1-1.3 1.87-1.3s1.26.49 1.87 1.3a2.95 2.95 0 0 0 5.34 0c.61-.81 1-1.3 1.87-1.3s1.26.5 1.87 1.3a5.71 5.71 0 0 0 1.09 1.18 30.91 30.91 0 0 0-9 7.49c-.19.24-.38.48-.56.72l.18-.24v-.06a2.94 2.94 0 0 0-5.33 0c-.61.81-1 1.3-1.87 1.3s-1.26-.49-1.87-1.3a3.25 3.25 0 0 0-2.67-1.7 3.25 3.25 0 0 0-2.67 1.7c-.61.81-1 1.3-1.87 1.3s-1.26-.49-1.87-1.3a3.25 3.25 0 0 0-2.67-1.7v1c.84 0 1.26.49 1.87 1.3A3.25 3.25 0 0 0 29 52.68 3.25 3.25 0 0 0 31.7 51c.61-.81 1-1.3 1.87-1.3s1.26.49 1.87 1.3a3.25 3.25 0 0 0 2.67 1.7 3.25 3.25 0 0 0 2.66-1.7c.61-.81 1-1.3 1.87-1.3s1.26.49 1.87 1.3l.21.28c-.26.35-.51.7-.75 1.06q-.4.6-.78 1.22-.37.62-.72 1.26a30.68 30.68 0 0 0-3.66 14.53zm2.13-2.68v-.19c0-.31.08-.62.12-.93s0-.34.06-.5.11-.61.16-.92.05-.33.09-.49.14-.61.21-.92c0-.15.07-.31.11-.47s.17-.6.25-.9.08-.31.13-.46c.09-.3.2-.6.3-.9 0-.14.09-.29.14-.43.11-.31.23-.61.36-.91l.15-.39c.13-.31.27-.61.41-.92l.16-.35c.15-.31.31-.62.47-.92l.16-.31c.17-.32.35-.63.53-.93l.15-.26c.19-.32.39-.63.6-.94l.14-.22c.21-.32.43-.63.66-.94l.13-.18c.24-.32.48-.63.73-.94l.11-.14c.26-.32.52-.62.79-.93l.1-.11q.42-.47.87-.92l.07-.07q.46-.46.94-.91.49-.45 1-.89a28.69 28.69 0 0 1 18-6.72 28.6 28.6 0 0 1-3.94 14.48 9.51 9.51 0 0 0-2.59-.37 9.72 9.72 0 0 0-7.07 3.06 10.55 10.55 0 0 0-2.91 7.35v.81a6.31 6.31 0 0 0 .07.67 28.62 28.62 0 0 1-11.93 2.8c.14-.98.19-1.89.28-2.79zm12.76-.79v-.76a9.55 9.55 0 0 1 2.63-6.66 8.73 8.73 0 0 1 6.34-2.75 8.72 8.72 0 0 1 6.59 3l.37.42.37-.42a8.72 8.72 0 0 1 6.59-3 9.21 9.21 0 0 1 9 9.4v1.19c-.28 1.95-2.25 10.49-15.89 19.86-13.33-9.09-15.58-17.39-15.95-19.66zm43.07 28.71l-4.42-1-4.42-1a2 2 0 0 0-1.61.32q-.92.65-1.88 1.23a28.57 28.57 0 0 1-14.82 4.1h-1.96l-.92-.07-.59-.17-.82-.1-.63-.11-.76-.14-.64-.14-.72-.17-.65-.18-.69-.2-.66-.21-.65-.22-.67-.25-.6-.28-.66-.24-.58-.26-.67-.33-.54-.28-.67-.37-.5-.29-.68-.41-.46-.3-.68-.46-.42-.3-.69-.51-.38-.25-.73-.6-.32-.27-.68-.63-.26-.25-.72-.7-.19-.2c-.25-.26-.5-.52-.74-.79l-.09-.14c-.26-.3-.52-.6-.77-.9a28.69 28.69 0 0 1-6.33-16.09 30.67 30.67 0 0 0 12.32-2.8c1.14 3.71 4.73 10.84 16.07 18.56l.34.14h.07l.28-.19c16.16-11 16.59-20.81 16.6-21.23v-.8a10.21 10.21 0 0 0-10-10.4 9.81 9.81 0 0 0-7 3 10 10 0 0 0-2.48-1.83 30.64 30.64 0 0 0 4-15.2 28.68 28.68 0 0 1 5.32.79h.21l1 .27.36.1.88.29.44.15.82.32.47.18.77.34.49.22.73.36.5.26.69.39.5.29.66.41.5.32.63.43.49.35.59.45.48.38.57.47.47.41.54.49.46.44.51.51.44.47.48.53.43.49.45.54.41.52.42.56.39.55.39.57.37.57.36.58.34.6.33.6.32.62.3.6.29.65.27.61c.09.22.18.45.27.67s.16.41.23.62.16.46.24.7.14.41.2.62.14.48.21.73.12.41.17.62.12.5.18.76.1.41.14.61.1.53.14.79.07.4.1.61.07.56.11.84.05.38.07.57.05.64.07 1v1.94a29 29 0 0 1-.27 3.91 28.55 28.55 0 0 1-2.91 9.24q-.45.87-1 1.7a2 2 0 0 0-.2 1.63z"/>
</svg>
