<svg width="24" height="24" xmlns="http://www.w3.org/2000/svg"><g fill="#EA0B12"><path d="M7.515 12A4.49 4.49 0 0012 16.486a4.49 4.49 0 004.484-4.484A4.49 4.49 0 0012 7.516a4.49 4.49 0 00-4.485 4.485z"/><path d="M22.327 6.081a.197.197 0 00-.002-.198A11.991 11.991 0 0012 .001a11.948 11.948 0 00-9.38 4.517.196.196 0 00-.018.221l3.379 5.851a.197.197 0 00.36-.049 5.843 5.843 0 016.184-4.36h9.63a.197.197 0 00.172-.1z"/><path d="M13.773 17.7a.196.196 0 00-.208-.069 5.834 5.834 0 01-1.565.213 5.873 5.873 0 01-5.3-3.382L1.882 6.116a.196.196 0 00-.17-.099H1.71a.197.197 0 00-.17.1 12.006 12.006 0 001.398 13.75 11.998 11.998 0 007.3 4.003c.07 0 .136-.037.171-.098l3.38-5.853a.197.197 0 00-.016-.22z"/><path d="M22.99 7.493h-6.764a.197.197 0 00-.138.337A5.798 5.798 0 0117.843 12a5.802 5.802 0 01-1.052 3.343l-4.827 8.361a.197.197 0 00.17.295h.002a11.927 11.927 0 008.394-3.558A11.925 11.925 0 0024 12c0-1.512-.278-2.987-.826-4.383a.197.197 0 00-.183-.125z"/></g></svg>