<svg width="180" height="100" xmlns="http://www.w3.org/2000/svg" xmlns:xlink="http://www.w3.org/1999/xlink"><defs><path id="a" d="M0 0h180v100H0z"/></defs><g fill="none" fill-rule="evenodd"><mask id="b" fill="#fff"><use xlink:href="#a"/></mask><path d="M102.328 78.022c10.727-4.76 18.234-15.526 18.234-28.022 0-12.496-7.507-23.262-18.234-28.022 21.603 4.418 40.08 19.208 49.518 28.022-9.439 8.814-27.915 23.603-49.518 28.022zM42.015 38.587c8.858-6.354 21.462-13.657 35.597-16.581C66.918 26.78 59.44 37.527 59.44 50c0 12.496 7.506 23.261 18.234 28.022-21.619-4.421-40.106-19.229-49.535-28.037a139.613 139.613 0 0113.877-11.398zm132.152 4.648C172.645 41.469 136.361 0 90.001 0 43.64 0 7.355 41.47 5.833 43.234L0 50l5.833 6.765C7.355 58.531 43.64 100 90.001 100c46.36 0 82.644-41.47 84.166-43.235L180 50l-5.833-6.765z" fill="#FFDCDC" mask="url(#b)"/></g></svg>