<svg id="Layer_1" data-name="Layer 1" xmlns="http://www.w3.org/2000/svg" viewBox="0 0 68 68"><defs><style>.cls-1{fill:#ff4f5e;}.cls-2{fill:#fff;}</style></defs><rect class="cls-1" width="68" height="68"/><path class="cls-2" d="M57.9,42.6h3.9V49H49.5V32.4c0-5.1-1.7-7-5-7-4,0-5.6,2.9-5.6,6.9V42.5h3.9v6.4H30.5V32.4c0-5.1-1.7-7-5-7-4,0-5.6,2.9-5.6,6.9V42.5h5.6v6.4H7.5V42.5h3.9V26H7.5V19.6H19.8V24a9.78,9.78,0,0,1,8.9-5c4.2,0,8.1,2,9.5,6.3A9.74,9.74,0,0,1,47.7,19c5.3,0,10.1,3.2,10.1,10.1V42.6Z"/></svg>