<svg xmlns="http://www.w3.org/2000/svg" viewBox="0 0 352.86 130.98"><defs><style>.cls-1{fill:#fff}</style></defs><g id="Layer_2" data-name="Layer 2"><g id="Layer_1-2" data-name="Layer 1"><path d="M0 .01h130.97v130.97H0zM140.51 0h212.35v60.72H140.51z"/><path class="cls-1" d="M343.33 43.59a4 4 0 0 1-1.12.18c-1.24 0-1.83-.53-1.83-2.06V30.16c0-6.07-4.83-9-10.54-9-4.36 0-6.71.53-11.37 2.42l-1 6.11 6.07.65.86-3a8.25 8.25 0 0 1 4.06-.77c4.3 0 4.36 3.24 4.36 5.95v.88a34.75 34.75 0 0 0-4.36-.24c-6.07 0-12.37 1.53-12.37 8.07 0 5.54 4.36 7.6 8.19 7.6a9.62 9.62 0 0 0 8.54-5.3c.35 3.24 2.3 5.3 5.83 5.3a10.26 10.26 0 0 0 4.77-1.24zM327 43.41a2.78 2.78 0 0 1-3.12-3.06c0-2.89 2.36-3.65 5.07-3.65a28 28 0 0 1 3.83.35c-.17 4.42-3.05 6.36-5.78 6.36zM316.82 7.72l-11.49 40.52h-7.48l11.49-40.52zm-15.43 0L289.9 48.24h-7.48L293.9 7.72zm-31.89 14h8v9.54h-8zm0 17h8v9.54h-8zm-11.57-.35l6 .59-1.65 9.31h-23.21l-.77-4 14.61-16.79h-8.3l-1.18 4.12L238 31l.94-9.31h23.32l.59 4-14.77 16.78h8.6zm-38.07-17.2c-9.54 0-14.25 6.42-14.25 14.2 0 8.48 5.65 13.49 13.84 13.49C227.92 48.83 234 43.47 234 35c0-7.43-4.6-13.85-14.15-13.85zM219.68 43c-4.12 0-6.24-3.53-6.24-8.13 0-5 2.41-7.89 6.3-7.89 3.59 0 6.48 2.41 6.48 7.77-.01 5.07-2.6 8.25-6.54 8.25zm-20.92-.53h3.53v5.77h-11.13v-15c0-4.59-1.53-6.36-4.54-6.36-3.65 0-5.12 2.59-5.12 6.3v9.25h3.5v5.77h-11.1v-15c0-4.59-1.53-6.36-4.54-6.36-3.65 0-5.12 2.59-5.12 6.3v9.25h5.07v5.77h-16.2v-5.69h3.53v-15h-3.53v-5.79h11.13v4a8.8 8.8 0 0 1 8.07-4.54c3.83 0 7.36 1.83 8.66 5.71a8.9 8.9 0 0 1 8.66-5.71c4.77 0 9.13 2.89 9.13 9.19z"/><path d="M140.51 70.26h189.81v60.72H140.51z"/><path class="cls-1" d="M58.94 114.88a49.54 49.54 0 0 0 11.6.17l.09-.17a19.61 19.61 0 0 1 25-10l.17.09a51.23 51.23 0 0 0 8.36-8.14v-.17A19.56 19.56 0 0 1 114.79 72l.17-.09a49.54 49.54 0 0 0 .17-11.6l-.13-.11a19.41 19.41 0 0 1-10-24.94l.09-.17A49 49 0 0 0 97 26.78l-.17.09a19.34 19.34 0 0 1-6.67 1.21 19.75 19.75 0 0 1-18.1-11.86L72 16a49.54 49.54 0 0 0-11.6-.17l-.09.17a19.55 19.55 0 0 1-17.86 11.39A19.47 19.47 0 0 1 35.26 26l-.17-.09a45.48 45.48 0 0 0-8.31 8l.09.17a19.63 19.63 0 0 1-10.66 24.74l-.21.08a49.88 49.88 0 0 0-.17 11.65l.17.09a19.59 19.59 0 0 1 10 25l-.09.17A50.4 50.4 0 0 0 34 104.1h.17a18.37 18.37 0 0 1 6.67-1.21 19.71 19.71 0 0 1 18.06 11.82v.17zm6.54 3.64a53.79 53.79 0 0 1-7.92-.61l-.91-.13-.78-1.86A16.45 16.45 0 0 0 40.8 106a16.08 16.08 0 0 0-5.54 1l-1.86.69-.69-.56A54.28 54.28 0 0 1 22.75 97l-.56-.69.81-1.91a16.35 16.35 0 0 0-8.3-20.86l-1.82-.82-.09-.91A54.42 54.42 0 0 1 13 57.52l.13-.91 1.87-.78a16.26 16.26 0 0 0 8.87-20.56l-.69-1.86.56-.74A53 53 0 0 1 34 22.71l.74-.52 1.86.78a15.79 15.79 0 0 0 6 1.17 16.3 16.3 0 0 0 14.83-9.44l.82-1.82.91-.09a52.62 52.62 0 0 1 14.28.21l.91.13.78 1.87a16.38 16.38 0 0 0 15.07 9.87 16.08 16.08 0 0 0 5.54-1l1.86-.69.69.56a53 53 0 0 1 10 10.22l.52.74-.81 1.86a16.3 16.3 0 0 0 8.27 20.82l1.82.82.09.91a52.62 52.62 0 0 1-.22 14.29l-.13.91-1.86.78a16.31 16.31 0 0 0-8.87 20.61l.69 1.86-.56.69a53 53 0 0 1-10.22 10l-.74.52-1.87-.77a15.63 15.63 0 0 0-6-1.17 16.34 16.34 0 0 0-14.89 9.44l-.8 1.73-.91.09a51.08 51.08 0 0 1-6.32.39z"/><path class="cls-1" d="M65.43 30.63A34.81 34.81 0 1 0 90 40.85a34.8 34.8 0 0 0-24.57-10.22zm0 72.82a38 38 0 0 1 0-76 38.56 38.56 0 0 1 26.89 11.11 37.36 37.36 0 0 1 11.13 26.88 38.06 38.06 0 0 1-38 38z"/><path class="cls-1" d="M86.83 74.47l-3-5.3-2.08-3.63 1.06-1.82 4.11-7.08L92 65.57l-5.18 8.9zM47.5 79.22h10.29l5.12 8.93H52.62l-5.12-8.93zm5.26-36.47h10.29l-.7 1.2-4.48 7.7H47.58l5.18-8.9zm5.1 12.18l.74 1.3 4.4 7.63H52.69l-5.12-8.93h10.29zm12.05.24l-4.11 7.07-5.12-8.93 5.18-8.9L71 53.34l-1.06 1.82zM84.08 55l-5.17 8.9H68.62l5.16-8.9h10.29zM47.51 76l5.18-8.9H63l-4.35 7.49L57.8 76H47.51zm18.22 10.6l-5.12-8.93 5.18-8.9 3.43 6 1.68 2.94-5.17 8.9zM84 76.09H73.71l-2.16-3.77-3-5.16h10.29l3.17 5.53 1.99 3.4zm3.8-24.32h-14l-7-12.19H50.88s-8 13.7-8 13.74 7 12.2 7 12.2l-7.07 12.1 7.94 13.79h15.93l7-12.11h14.07l8-13.77-7.94-13.76zM166 76.7a12.92 12.92 0 0 1 3.15.33 6.39 6.39 0 0 1 2.55 1.41l1 5.94-2.76.36-1.08-4.68a9.16 9.16 0 0 0-3.3-.48q-5.22 0-5.22 7.08v5.28h7v2.82h-7v21.06h6.48v2.76H152v-2.76h5V94.76h-4v-2.82h4v-5.16q0-4.8 2.76-7.44A8.8 8.8 0 0 1 166 76.7z"/><path class="cls-1" d="M191.23 111.14a9.5 9.5 0 0 1-3.36 5.7 11.13 11.13 0 0 1-7.44 2.34 11.65 11.65 0 0 1-8.94-3.6q-3.36-3.6-3.36-10a15.71 15.71 0 0 1 3.24-10.23 10.63 10.63 0 0 1 8.7-4q5.46 0 8.19 3.57a13 13 0 0 1 2.74 8.18 17.27 17.27 0 0 1-.3 3h-19.09q.12 4.8 2.46 7.47a8.31 8.31 0 0 0 6.6 2.67q6.3 0 7.8-5.76zm-3.72-7.8a9.42 9.42 0 0 0-1.51-6.09q-1.86-2.91-6.06-2.91-4 0-5.91 2.7a13.51 13.51 0 0 0-2.31 6.3zM214.42 111a6.92 6.92 0 0 1-3.15 5.94 13.15 13.15 0 0 1-7.77 2.22 19.4 19.4 0 0 1-5.55-.81 14.44 14.44 0 0 1-4.17-1.83l.72-5.64 2.7.24-.24 3.6a13.46 13.46 0 0 0 6.42 1.5 11.85 11.85 0 0 0 5.31-1.17 3.87 3.87 0 0 0 2.37-3.69 3.66 3.66 0 0 0-1.71-3.42 12.52 12.52 0 0 0-4.23-1.47q-2.52-.45-5-1a9.54 9.54 0 0 1-4.2-2A5.56 5.56 0 0 1 194.2 99q0-4.08 2.94-5.85a12.22 12.22 0 0 1 6.42-1.77 16.9 16.9 0 0 1 5.19.78 19.14 19.14 0 0 1 3.93 1.68l.6 6.12-2.76.36-.72-4.5a15.33 15.33 0 0 0-2.64-1.08 11 11 0 0 0-3.18-.42 9 9 0 0 0-4.56 1 3.53 3.53 0 0 0-1.74 3.3 3.36 3.36 0 0 0 1.68 3.21 13.11 13.11 0 0 0 4.2 1.35q2.52.42 5 1a9.49 9.49 0 0 1 4.17 2.1 6 6 0 0 1 1.69 4.72zM235.89 111.68q-1.2 7.5-8.1 7.5-3.9 0-5.85-2.28a9.09 9.09 0 0 1-2-6.12v-16h-4.38v-2.84H220V83.3h3.3v8.64h10.62v2.82h-10.63v15.66a7.4 7.4 0 0 0 1.08 4.23 4.24 4.24 0 0 0 3.78 1.59 5 5 0 0 0 3.12-1.05q1.38-1 2-4.35zM250 118.58h-13.2v-2.76h5V94.76h-5v-2.82h8.34v23.88H250zm-8.6-34.08v-4.74h3.72v4.74zM277.72 94.76h-3.42l-9.78 23.82h-2.58l-10.2-23.82h-3.24v-2.82h11.94v2.82h-5.16l8 19.2h.36l7.36-19.2h-4.86v-2.82h11.58zM280.82 94a10.55 10.55 0 0 1 4-2 18.45 18.45 0 0 1 4.77-.63q9.24 0 9.24 8.94v13q0 3.06 2.34 3.06a4.15 4.15 0 0 0 2-.42l.06 2.4a5.69 5.69 0 0 1-3.12.84q-4.56 0-4.56-5.4v-.12a12.41 12.41 0 0 1-3.55 3.83 9.36 9.36 0 0 1-5.55 1.68 10.63 10.63 0 0 1-5.37-1.59q-2.73-1.59-2.73-5.85 0-5 4-6.63a22.82 22.82 0 0 1 8.46-1.59q1.26 0 2.49.09l2.31.15v-2.82a7.55 7.55 0 0 0-1.41-4.83q-1.41-1.77-5.07-1.77a11.91 11.91 0 0 0-5.4 1.2l-1.08 4.8-2.76-.36zm14.76 14.76v-2.46q-1.14-.12-2.46-.21t-2.76-.09a16.88 16.88 0 0 0-5.91 1q-2.67 1-2.67 4.35 0 2.88 1.86 3.87a7.64 7.64 0 0 0 3.6 1 8.74 8.74 0 0 0 5.58-2.07 7.1 7.1 0 0 0 2.76-5.35zM317.83 118.58h-13.14v-2.76h4.92V80.06h-5V77.3h8.28v38.52h4.92z"/></g></g></svg>