<svg viewBox="0 0 136.97 176.21" xmlns="http://www.w3.org/2000/svg"><path d="m69.68 6c-1.59 0-2.99.84-3.75 2.24l-54.73 101.87c-.73 1.35-.69 2.88.1 4.2s2.12 2.07 3.65 2.07h109.47c1.53 0 2.86-.75 3.65-2.07s.82-2.85.1-4.2l-54.74-101.87c-.75-1.4-2.15-2.24-3.75-2.24z" fill="#f6d561"/><path d="m62.31 95.09c0-4.79 3.45-8.48 8.11-8.48s8.11 3.69 8.11 8.48-3.45 8.45-8.11 8.45-8.11-3.69-8.11-8.45zm1.83-42.46-.45-12.15h13.47l-.45 12.15-1.87 27.96h-8.82l-1.87-27.96z"/><path d="m124.42 122.38h-109.47c-3.64 0-6.93-1.87-8.8-4.99s-1.96-6.9-.23-10.11l54.74-101.88c1.79-3.33 5.25-5.4 9.03-5.4s7.24 2.07 9.03 5.4l54.74 101.87c1.72 3.21 1.64 6.99-.23 10.11s-5.16 4.99-8.8 4.99zm-54.74-116.38c-1.59 0-2.99.84-3.75 2.24l-54.73 101.87c-.73 1.35-.69 2.88.1 4.2s2.12 2.07 3.65 2.07h109.47c1.53 0 2.86-.75 3.65-2.07s.82-2.85.1-4.2l-54.74-101.87c-.75-1.4-2.15-2.24-3.75-2.24z"/><path d="m3.81 138.24-1.75-1.01 1.66-2.53-2.99.16v-2l3.01.18-1.66-2.55 1.75-1.01 1.4 2.9 1.38-2.9 1.75 1.04-1.66 2.53 3.01-.18v2l-3.01-.16 1.66 2.53-1.75 1.01-1.4-2.92-1.4 2.92z"/><path d="m12.18 146.02v-16.21h7.04c1.78 0 3.15.44 4.12 1.33s1.45 2.13 1.45 3.73-.48 2.84-1.45 3.74-2.34 1.35-4.12 1.35h-4.09v6.07h-2.94zm2.94-8.39h3.63c2.12 0 3.17-.92 3.17-2.76s-1.06-2.74-3.17-2.74h-3.63z"/><path d="m26.67 146.02v-11.25h2.81v1.98c.55-1.33 1.73-2.07 3.54-2.21l.87-.07.18 2.44-1.66.16c-1.89.18-2.83 1.15-2.83 2.9v6.05h-2.92z"/><path d="m35.5 132.36v-2.81h3.22v2.81zm.18 13.66v-11.25h2.88v11.25z"/><path d="m44.86 146.02-4.88-11.25h3.06l3.13 7.87 3.24-7.87h2.88l-4.95 11.25z"/><path d="m57.15 146.25c-.81 0-1.54-.16-2.17-.47-.64-.31-1.13-.74-1.5-1.28-.36-.54-.54-1.14-.54-1.82 0-.83.21-1.48.64-1.97.43-.48 1.13-.83 2.09-1.05.97-.21 2.26-.32 3.89-.32h.8v-.48c0-.77-.17-1.32-.51-1.66s-.91-.51-1.7-.51c-.63 0-1.27.1-1.93.29s-1.33.49-2 .89l-.83-1.96c.4-.28.87-.52 1.41-.72s1.12-.37 1.73-.48c.61-.12 1.18-.17 1.71-.17 1.64 0 2.86.38 3.66 1.14s1.2 1.94 1.2 3.53v6.81h-2.69v-1.79c-.26.63-.67 1.12-1.24 1.48s-1.24.54-2.02.54zm.6-1.98c.75 0 1.38-.26 1.88-.78s.75-1.18.75-1.98v-.51h-.78c-1.44 0-2.44.11-3 .33s-.84.62-.84 1.21c0 .51.18.92.53 1.24s.84.48 1.47.48z"/><path d="m71.22 146.25c-1.18 0-2.21-.24-3.08-.72s-1.55-1.17-2.02-2.06-.71-1.93-.71-3.13.24-2.23.71-3.09 1.15-1.53 2.02-2 1.9-.7 3.08-.7c.72 0 1.43.11 2.14.34s1.29.55 1.75.97l-.85 2c-.4-.35-.85-.62-1.34-.8-.5-.18-.98-.28-1.44-.28-1 0-1.77.31-2.31.93s-.82 1.51-.82 2.66.27 2.03.82 2.68c.54.65 1.31.98 2.31.98.44 0 .92-.09 1.43-.28.51-.18.96-.46 1.36-.83l.85 2.02c-.46.4-1.05.72-1.76.95-.71.24-1.42.36-2.13.36z"/><path d="m76.69 132.36v-2.81h3.22v2.81zm.18 13.66v-11.25h2.88v11.25z"/><path d="m87.07 146.25c-.98 0-1.84-.24-2.59-.71-.74-.47-1.32-1.15-1.74-2.04s-.62-1.92-.62-3.12.21-2.25.62-3.12.99-1.54 1.74-2.01c.74-.48 1.61-.71 2.59-.71.8 0 1.52.18 2.16.53s1.13.82 1.45 1.4v-6.67h2.88v16.21h-2.81v-1.86c-.31.64-.79 1.15-1.45 1.53s-1.4.56-2.23.56zm.8-2.19c.86 0 1.55-.31 2.07-.93s.78-1.54.78-2.75-.26-2.14-.78-2.75-1.21-.91-2.07-.91-1.55.3-2.07.91-.78 1.52-.78 2.75.26 2.13.78 2.75 1.21.93 2.07.93z"/><path d="m100.25 146.25c-.81 0-1.54-.16-2.17-.47-.64-.31-1.13-.74-1.5-1.28-.36-.54-.54-1.14-.54-1.82 0-.83.21-1.48.64-1.97.43-.48 1.13-.83 2.09-1.05.97-.21 2.26-.32 3.89-.32h.8v-.48c0-.77-.17-1.32-.51-1.66s-.91-.51-1.7-.51c-.63 0-1.27.1-1.93.29s-1.33.49-2 .89l-.83-1.96c.4-.28.87-.52 1.41-.72s1.12-.37 1.73-.48c.61-.12 1.18-.17 1.71-.17 1.64 0 2.86.38 3.66 1.14s1.2 1.94 1.2 3.53v6.81h-2.69v-1.79c-.26.63-.67 1.12-1.24 1.48s-1.24.54-2.02.54zm.6-1.98c.75 0 1.38-.26 1.88-.78s.75-1.18.75-1.98v-.51h-.78c-1.44 0-2.44.11-3 .33s-.84.62-.84 1.21c0 .51.18.92.53 1.24s.84.48 1.47.48z"/><path d="m113.45 146.25c-.98 0-1.84-.24-2.59-.71-.74-.47-1.32-1.15-1.74-2.04s-.62-1.92-.62-3.12.21-2.25.62-3.12.99-1.54 1.74-2.01c.74-.48 1.61-.71 2.59-.71.8 0 1.52.18 2.16.53s1.13.82 1.45 1.4v-6.67h2.88v16.21h-2.81v-1.86c-.31.64-.79 1.15-1.45 1.53s-1.4.56-2.23.56zm.8-2.19c.86 0 1.55-.31 2.07-.93s.78-1.54.78-2.75-.26-2.14-.78-2.75-1.21-.91-2.07-.91-1.55.3-2.07.91-.78 1.52-.78 2.75.26 2.13.78 2.75 1.21.93 2.07.93z"/><path d="m128.47 146.25c-1.27 0-2.37-.24-3.29-.71s-1.63-1.15-2.13-2.02-.75-1.91-.75-3.11.24-2.18.72-3.06c.48-.87 1.15-1.56 2-2.06s1.82-.75 2.91-.75c1.59 0 2.86.51 3.78 1.52.93 1.01 1.39 2.39 1.39 4.14v.85h-8.05c.21 2.01 1.37 3.01 3.45 3.01.63 0 1.26-.1 1.89-.29s1.2-.5 1.73-.91l.8 1.93c-.54.44-1.21.8-2.02 1.06s-1.62.39-2.44.39zm-.41-9.75c-.84 0-1.53.26-2.05.78s-.84 1.23-.94 2.12h5.66c-.06-.94-.32-1.65-.77-2.15s-1.08-.75-1.9-.75z"/><path d="m6.7 170.02v-11.25h2.81v1.75c.38-.64.9-1.13 1.55-1.47s1.38-.51 2.2-.51c2.65 0 3.98 1.54 3.98 4.62v6.85h-2.88v-6.72c0-.87-.17-1.51-.5-1.91s-.84-.6-1.53-.6c-.84 0-1.51.26-2.01.79s-.75 1.23-.75 2.1v6.33h-2.88z"/><path d="m23.85 170.25c-.81 0-1.54-.16-2.17-.47-.64-.31-1.13-.74-1.5-1.28-.36-.54-.54-1.14-.54-1.82 0-.83.21-1.48.64-1.97.43-.48 1.13-.83 2.09-1.05.97-.21 2.26-.32 3.89-.32h.8v-.48c0-.77-.17-1.32-.51-1.66s-.91-.51-1.7-.51c-.63 0-1.27.1-1.93.29s-1.33.49-2 .89l-.83-1.96c.4-.28.87-.52 1.41-.72s1.12-.37 1.73-.48c.61-.12 1.18-.17 1.71-.17 1.64 0 2.86.38 3.66 1.14s1.2 1.94 1.2 3.53v6.81h-2.69v-1.79c-.26.63-.67 1.12-1.24 1.48s-1.24.54-2.02.54zm-1.82-13.66-1.43-.09c.08-1.06.36-1.89.85-2.5s1.13-.91 1.91-.91c.35 0 .67.07.96.22.28.15.61.36.98.63.34.25.61.42.8.52s.4.15.6.15c.78 0 1.25-.54 1.4-1.61l1.43.09c-.06 1.06-.34 1.89-.83 2.5s-1.13.91-1.91.91c-.32 0-.62-.06-.91-.18-.28-.12-.63-.34-1.05-.67-.57-.44-1.03-.67-1.38-.67-.77 0-1.24.54-1.43 1.61zm2.42 11.68c.75 0 1.38-.26 1.88-.78s.75-1.18.75-1.98v-.51h-.78c-1.44 0-2.44.11-3 .33s-.84.62-.84 1.21c0 .51.18.92.53 1.24s.84.48 1.47.48z"/><path d="m37.86 170.25c-1.17 0-2.18-.24-3.04-.71s-1.53-1.15-2-2.04-.71-1.92-.71-3.12.24-2.23.71-3.11 1.14-1.55 2-2.02 1.87-.71 3.04-.71 2.18.24 3.04.71c.86.48 1.53 1.15 2 2.02s.71 1.91.71 3.11-.24 2.23-.71 3.12c-.48.88-1.14 1.56-2 2.04s-1.87.71-3.04.71zm0-2.19c.86 0 1.55-.31 2.07-.93s.78-1.54.78-2.75-.26-2.14-.78-2.75-1.21-.91-2.07-.91-1.55.3-2.07.91-.78 1.52-.78 2.75.26 2.13.78 2.75 1.21.93 2.07.93z"/><path d="m52 156.36v-2.81h3.22v2.81zm.18 13.66v-11.25h2.88v11.25z"/><path d="m58.05 170.02v-11.25h2.81v1.75c.38-.64.9-1.13 1.55-1.47s1.38-.51 2.2-.51c2.65 0 3.98 1.54 3.98 4.62v6.85h-2.88v-6.72c0-.87-.17-1.51-.5-1.91s-.84-.6-1.53-.6c-.84 0-1.51.26-2.01.79s-.75 1.23-.75 2.1v6.33h-2.88z"/><path d="m76.71 170.25c-1.18 0-2.21-.24-3.08-.72s-1.55-1.17-2.02-2.06-.71-1.93-.71-3.13.24-2.23.71-3.09 1.15-1.53 2.02-2 1.9-.7 3.08-.7c.72 0 1.43.11 2.14.34s1.29.55 1.75.97l-.85 2c-.4-.35-.85-.62-1.34-.8-.5-.18-.98-.28-1.44-.28-1 0-1.77.31-2.31.93s-.82 1.51-.82 2.66.27 2.03.82 2.68c.54.65 1.31.98 2.31.98.44 0 .92-.09 1.43-.28.51-.18.96-.46 1.36-.83l.85 2.02c-.46.4-1.05.72-1.76.95-.71.24-1.42.36-2.13.36z"/><path d="m86.28 170.25c-1.33 0-2.32-.36-2.96-1.09s-.95-1.8-.95-3.21v-12.14h2.88v12.01c0 1.38.58 2.07 1.75 2.07.17 0 .34 0 .51-.02.17-.01.33-.05.48-.09l-.05 2.28c-.55.14-1.1.21-1.66.21z"/><path d="m93.77 170.25c-2.76 0-4.14-1.55-4.14-4.65v-6.83h2.88v6.88c0 .8.16 1.39.48 1.77s.83.57 1.54.57c.77 0 1.39-.26 1.89-.79.49-.53.74-1.23.74-2.1v-6.33h2.88v11.25h-2.81v-1.68c-.75 1.27-1.9 1.91-3.45 1.91z"/><path d="m103.02 170.02v-11.25h2.88v11.25zm.46-12.74 2.37-4.67h2.83l-3.27 4.67z"/><path d="m113.21 170.25c-.98 0-1.84-.24-2.59-.71-.74-.47-1.32-1.15-1.74-2.04s-.62-1.92-.62-3.12.21-2.25.62-3.12.99-1.54 1.74-2.01c.74-.48 1.61-.71 2.59-.71.8 0 1.52.18 2.16.53s1.13.82 1.45 1.4v-6.67h2.88v16.21h-2.81v-1.86c-.31.64-.79 1.15-1.45 1.53s-1.4.56-2.23.56zm.8-2.19c.86 0 1.55-.31 2.07-.93s.78-1.54.78-2.75-.26-2.14-.78-2.75-1.21-.91-2.07-.91-1.55.3-2.07.91-.78 1.52-.78 2.75.26 2.13.78 2.75 1.21.93 2.07.93z"/><path d="m126.39 170.25c-.81 0-1.54-.16-2.17-.47-.64-.31-1.13-.74-1.5-1.28-.36-.54-.54-1.14-.54-1.82 0-.83.21-1.48.64-1.97.43-.48 1.13-.83 2.09-1.05.97-.21 2.26-.32 3.89-.32h.8v-.48c0-.77-.17-1.32-.51-1.66s-.91-.51-1.7-.51c-.63 0-1.27.1-1.93.29s-1.33.49-2 .89l-.83-1.96c.4-.28.87-.52 1.41-.72s1.12-.37 1.73-.48c.61-.12 1.18-.17 1.71-.17 1.64 0 2.86.38 3.66 1.14s1.2 1.94 1.2 3.53v6.81h-2.69v-1.79c-.26.63-.67 1.12-1.24 1.48s-1.24.54-2.02.54zm.6-1.98c.75 0 1.38-.26 1.88-.78s.75-1.18.75-1.98v-.51h-.78c-1.44 0-2.44.11-3 .33s-.84.62-.84 1.21c0 .51.18.92.53 1.24s.84.48 1.47.48z"/></svg>