<svg xmlns="http://www.w3.org/2000/svg" width="118" height="117">
    <path fill="#B6D806" d="M21.8 28.3c.8 1 1.7 2.2 3.5 2.2s2.7-1.2 3.5-2.2 1.3-1.7 2.4-1.7 1.6.6 2.4 1.7c.8 1 1.7 2.2 3.5 2.2s2.7-1.2 3.5-2.2 1.3-1.7 2.4-1.7c1.1 0 1.6.6 2.4 1.7.8 1 1.7 2.2 3.5 2.2s2.7-1.2 3.5-2.2 1.3-1.7 2.4-1.7 1.6.6 2.4 1.7c.8 1 1.7 2.2 3.5 2.2v-1.3c-1.1 0-1.6-.6-2.4-1.7-.8-1-1.7-2.2-3.5-2.2s-2.7 1.2-3.5 2.2-1.3 1.7-2.4 1.7c-1.1 0-1.6-.6-2.4-1.7-.8-1-1.7-2.2-3.5-2.2s-2.7 1.2-3.5 2.2-1.3 1.7-2.4 1.7c-1.1 0-1.6-.6-2.4-1.7-.8-1-1.7-2.2-3.5-2.2s-2.7 1.2-3.5 2.2-1.3 1.7-2.4 1.7-1.6-.6-2.4-1.7c-.8-1-1.7-2.2-3.5-2.2v1.3c1.1 0 1.6.7 2.4 1.7zM118 77c0-21.5-16.9-39-38.1-40C78.4 16.3 61.1 0 40 0 17.9 0 0 17.9 0 40c0 7.6 2.1 14.6 5.7 20.6L.9 76.3l15.9-3.6c6.1 4.3 13.4 7 21.3 7.4 1.5 20.7 18.8 37 39.9 37 8.6 0 16.7-2.7 23.2-7.4l15.9 3.6-4.8-15.6c3.6-6.1 5.7-13.2 5.7-20.7zM77.4 40c0 4.7-.9 9.1-2.4 13.2-1.5.4-2.8 1.3-3.9 2.4-2.1 2.2-3.3 5.5-3.3 9.4-6.7 7.5-16.4 12.3-27.2 12.4v-.5c0-20.4 16.5-37.1 36.8-37.4v.5zm7.9 43.7c.5.1.9.2 1.5.3 1.6.3 3.3.6 4.8 2.4 1.7 2 2.8 5.1 3.5 9.1-.3 1.3-8.2 3-16.8 3H78c-8.6 0-16.5-1.7-16.8-3 .7-4 1.9-7.1 3.5-9.1 1.5-1.8 3.1-2.1 4.8-2.4l1.5-.3c3.1-.9 5-2.8 5-5.2 0-1.2-.1-2.5-1-3.2-2.8-1.9-4.3-5-4.5-9.5-.1-3.5.8-6.4 2.6-8.3 1.3-1.3 3-2 5.1-2h.2c2 0 3.7.7 5 2 1.8 1.9 2.7 4.8 2.6 8.3-.2 4.6-1.6 7.7-4.5 9.6-.9.6-1 1.9-.9 3.2-.3 2.3 1.6 4.2 4.7 5.1zm-67-13.2c-.4-.3-1-.5-1.5-.5-.2 0-.4 0-.6.1L4.7 72.7l3.5-11.3c.2-.7.1-1.5-.3-2.1C4.5 53.5 2.6 46.9 2.6 40 2.6 19.4 19.4 2.6 40 2.6c19.6 0 35.7 15.2 37.3 34.4-6.4.1-12.5 1.7-17.8 4.5-.4-.3-.8-.8-1.3-1.4-.8-1-1.7-2.2-3.5-2.2s-2.7 1.2-3.5 2.2-1.3 1.7-2.4 1.7c-1.1 0-1.6-.6-2.4-1.7-.8-1-1.7-2.2-3.5-2.2s-2.7 1.2-3.5 2.2-1.3 1.7-2.4 1.7c-1.1 0-1.6-.6-2.4-1.7-.8-1-1.7-2.2-3.5-2.2s-2.7 1.2-3.5 2.2-1.3 1.7-2.4 1.7-1.6-.6-2.4-1.7c-.8-1-1.7-2.2-3.5-2.2v1.3c1.1 0 1.6.6 2.4 1.7.8 1 1.7 2.2 3.5 2.2s2.7-1.2 3.5-2.2 1.3-1.7 2.4-1.7c1.1 0 1.6.6 2.4 1.7.8 1 1.7 2.2 3.5 2.2s2.7-1.2 3.5-2.2 1.3-1.7 2.4-1.7c1.1 0 1.6.6 2.4 1.7.8 1 1.7 2.2 3.5 2.2s2.7-1.2 3.5-2.2 1.3-1.7 2.4-1.7 1.6.6 2.4 1.7c.3.4.7.9 1.1 1.2-4.7 2.6-8.7 6.2-12 10.4-.8-1-1.6-2-3.3-2-1.8 0-2.7 1.2-3.5 2.2s-1.3 1.7-2.4 1.7c-1.1 0-1.6-.6-2.4-1.7-.8-1-1.7-2.2-3.5-2.2s-2.7 1.2-3.5 2.2-1.3 1.7-2.4 1.7-1.6-.6-2.4-1.7c-.8-1-1.7-2.2-3.5-2.2v1.3c1.1 0 1.6.6 2.4 1.7.8 1 1.7 2.2 3.5 2.2s2.7-1.2 3.5-2.2 1.3-1.7 2.4-1.7c1.1 0 1.6.6 2.4 1.7.8 1 1.7 2.2 3.5 2.2s2.7-1.2 3.5-2.2 1.3-1.7 2.4-1.7c1.1 0 1.6.6 2.4 1.7l.1.1C40.8 60.2 38 68.3 38 77v.4c-7.1-.4-13.9-2.7-19.7-6.9zm95 39.2l-11.5-2.6c-.2 0-.4-.1-.6-.1-.5 0-1.1.2-1.5.5-6.4 4.5-13.9 6.9-21.7 6.9-19.6 0-35.7-15.2-37.3-34.4 10.7-.2 20.3-4.6 27.4-11.5.6 4 2.3 6.9 5.1 8.8 0 .2.1.6.1 1.3 0 1.1-1.2 2.1-3.1 2.6l-1.2.3c-1.8.3-4.2.8-6.3 3.3-1.9 2.4-3.3 5.9-4.1 10.3v.1c-.1.5 0 1.3.8 2.2 3.3 3.6 18.5 3.7 18.7 3.7h.3c.2 0 15.4-.1 18.6-3.7.7-.8.8-1.6.7-2.2-.8-4.5-2.1-8-4.1-10.3-2.1-2.5-4.5-3-6.3-3.3-.4-.1-.9-.2-1.2-.3-1.9-.5-3.1-1.5-3.1-2.7 0-.6 0-1 .1-1.2 3.4-2.3 5.2-6.1 5.4-11.4.2-4.2-1-7.8-3.3-10.2-1.8-1.9-4.2-2.8-6.9-2.8l-.1 1.3V53H78c1.4-4 2.1-8.3 2.1-12.8v-.4c19.6.9 35.3 17.2 35.3 37.2 0 6.8-1.9 13.5-5.4 19.3-.4.6-.5 1.4-.3 2.1l3.6 11.3zm-19-59.8l-1.1-2.2-1.2 2.2c-.6 1.3-1.1 1.7-2.3 2.3l-2.2 1.1 2.2 1.1c1.3.6 1.7 1.1 2.3 2.3l1.1 2.2 1.1-2.2c.6-1.3 1.1-1.7 2.3-2.3l2.2-1.1-2.2-1.1c-1.1-.6-1.6-1.1-2.2-2.3zM51.1 88l-.9-1.8-.9 1.8c-.5 1-.9 1.4-1.9 1.9l-1.8.9 1.8.9c1 .5 1.4.9 1.9 1.9l.9 1.8.9-1.8c.5-1 .9-1.4 1.9-1.9l1.8-.9-1.8-.9c-1-.5-1.3-.9-1.9-1.9zm3.8-6.3l-.6-1.2-.6 1.2c-.4.7-.6.9-1.3 1.3l-1.2.6 1.2.6c.7.4.9.6 1.3 1.3l.6 1.2.6-1.2c.4-.7.6-.9 1.3-1.3l1.2-.6-1.2-.6c-.7-.3-.9-.6-1.3-1.3zm41.7-20h-2v1.7h-1.8v2.1h1.8v1.8h2v-1.8h1.8v-2.1h-1.8v-1.7z"/>
</svg>
