<svg xmlns="http://www.w3.org/2000/svg" width="115" height="110.8">
    <path d="M115 48v-6.5l-3.3-.9c-.3-1.1-.7-2.1-1.3-3.1l1.7-3-4.6-4.6-3 1.7c-.9-.5-1.9-.9-2.9-1.2l-1-3.4H94l-1 3.4c-1 .3-2 .7-3 1.2l-3.2-1.8-4.6 4.6 1.8 3.2c-.5.9-.9 1.9-1.2 2.9l-3.4 1v1.7h-21V30.3c3.4-.5 6-3.4 6-6.9 0-3.8-3.1-7-7-7s-7 3.1-7 7c0 3.5 2.6 6.4 6 6.9v12.8H18.7c-1.4 0-2.6 1.2-2.6 2.6v29.5h-1.6l-1 3.4c-1 .3-2 .7-3 1.2l-3-1.8-4.6 4.6 1.8 3.2c-.5.9-.9 1.9-1.2 2.9l-3.4 1v6.5l3.4 1c.3 1 .7 1.9 1.2 2.8l-1.8 3.2 4.6 4.6 3.1-1.7c1 .5 2 1 3 1.3l1 3.4H21l.9-3.3c1-.3 2.1-.7 3-1.2l3 1.7 4.6-4.6-1.6-2.9c.5-1 1-2 1.3-3.1l3.3-1v-1.7h60.1c1.4 0 2.6-1.2 2.6-2.6V62.5h2.1l1-3.3c1-.3 2.1-.7 3-1.2l3 1.7 4.6-4.6-1.6-2.9c.5-1 1-2 1.3-3.1L115 48zM52.4 23.4c0-2.7 2.2-5 5-5s5 2.2 5 5-2.2 5-5 5-5-2.3-5-5zM18.7 94.6h3.4c-.7 1.8-2.3 3-4.3 3-2.5 0-4.6-2.1-4.6-4.6 0-2 1.2-3.6 3-4.3V92c-.1 1.4 1.1 2.6 2.5 2.6zm14.9.2l-3 .9-.1.6c-.3 1.3-.8 2.5-1.5 3.6l-.3.5 1.5 2.6-2.5 2.5L25 104l-.5.3c-1.1.6-2.3 1.1-3.5 1.4l-.6.1-.9 3H16l-.9-3-.6-.1c-1.2-.3-2.4-.8-3.6-1.5l-.5-.3-2.8 1.5-2.5-2.5 1.6-2.8-.3-.5c-.6-1.1-1.1-2.2-1.4-3.4v-.6l-3-.9v-3.5l3.1-.9.1-.6c.3-1.2.8-2.4 1.4-3.4l.3-.5L5.3 83l2.5-2.5 2.8 1.6.5-.3c1.1-.7 2.3-1.1 3.5-1.4l.6-.1.9-3h.1v10.5c-2.3.7-4 2.8-4 5.3 0 3.1 2.5 5.6 5.6 5.6 2.5 0 4.7-1.7 5.4-4h10.4v.1zM96.3 92c0 .3-.3.6-.6.6h-77c-.3 0-.6-.3-.6-.6V45.7c0-.3.3-.6.6-.6h77c.3 0 .6.3.6.6V92zm-.6-48.9h-2.8c.7-1.8 2.3-3 4.3-3 2.5 0 4.6 2.1 4.6 4.6 0 2.2-1.5 3.9-3.5 4.4v-3.4c0-1.4-1.1-2.6-2.6-2.6zm14.3 4.2l-.1.6c-.3 1.3-.8 2.5-1.5 3.6l-.3.5 1.5 2.6-2.5 2.5-2.7-1.5-.5.3c-1.1.6-2.3 1.1-3.5 1.4l-.6.1-.9 3h-.6V50.2c2.6-.5 4.5-2.8 4.5-5.5 0-3.1-2.5-5.6-5.6-5.6-2.5 0-4.7 1.7-5.4 4H81.4v-.2l3.1-.9.1-.6c.3-1.2.8-2.4 1.4-3.4l.3-.5-1.6-2.9 2.5-2.5 2.8 1.6.5-.3c1.1-.7 2.3-1.1 3.5-1.4l.6-.1.9-3H99l.9 3 .6.1c1.2.3 2.4.8 3.5 1.4l.5.3 2.7-1.5 2.5 2.5-1.5 2.7.3.5c.7 1.1 1.2 2.4 1.5 3.6l.1.6 3 .8v3.5l-3.1.9zM41.3 65.7c3.1 0 5.6-2.5 5.6-5.6 0-3.1-2.5-5.6-5.6-5.6-3.1 0-5.6 2.5-5.6 5.6-.1 3 2.5 5.6 5.6 5.6zm0-10.3c2.6 0 4.7 2.1 4.7 4.6s-2.1 4.7-4.7 4.7-4.6-2.1-4.6-4.7 2-4.6 4.6-4.6zm31.9-1c-3.1 0-5.6 2.5-5.6 5.6 0 3.1 2.5 5.6 5.6 5.6 3.1 0 5.6-2.5 5.6-5.6 0-3.1-2.5-5.6-5.6-5.6zm0 10.3c-2.6 0-4.6-2.1-4.6-4.7s2.1-4.6 4.6-4.6c2.6 0 4.7 2.1 4.7 4.6s-2.2 4.7-4.7 4.7zm2.7 8H38.7c-.8 0-1.5.7-1.5 1.5V86c0 .8.7 1.5 1.5 1.5h37.2c.8 0 1.5-.7 1.5-1.5V74.2c0-.8-.7-1.5-1.5-1.5zm.5 1.5v5.4h-8.7v-5.9h8.2c.3 0 .5.2.5.5zm-19.5 6.4v5.9H48v-5.9h8.9zm-8.9-1v-5.9h8.8v5.9H48zm9.8 1h8.8v5.9h-8.8v-5.9zm0-1v-5.9h8.8v5.9h-8.8zm-19.1-5.9H47v5.9h-8.8v-5.4c0-.3.2-.5.5-.5zM38.2 86v-5.4H47v5.9h-8.3c-.3 0-.5-.2-.5-.5zm37.7.5h-8.2v-5.9h8.7V86c0 .3-.2.5-.5.5zm-18-74h-1v-2.4h1v2.4zm0-3.5h-1V0h1v9zm7.6 7.1l-.7-.7 1.7-1.6.7.7-1.7 1.6zm2.5-2.4l-.7-.7 6.4-6.2.7.7-6.4 6.2zm-18.7 2.4l-1.7-1.6.7-.7 1.7 1.6-.7.7zm-2.5-2.4l-6.4-6.2.6-.7 6.4 6.2-.6.7z" fill="#b5d334"/>
</svg>
