<svg xmlns="http://www.w3.org/2000/svg" width="110" height="73.4">
    <path d="M12.4 60.8h85.2v-55H12.4v55zm1-53.9h83.2v53H13.4v-53zm90.2 57.9V2.9c0-1.6-1.3-2.9-2.9-2.9H9.4c-1.7 0-3 1.3-3 2.9v61.9H0v4c0 2.5 2.2 4.6 4.8 4.6h100.4c2.7 0 4.8-2.1 4.8-4.6v-4h-6.4zM8.4 2.9c0-.5.5-.9 1-.9h91.3c.5 0 .9.4.9.9v61.9H8.4V2.9zm36.9 63.9h19.4v.6c0 .6-.6 1.1-1.4 1.1H46.7c-.8 0-1.4-.5-1.4-1.1v-.6zm62.7 2c0 1.4-1.3 2.6-2.8 2.6H4.8c-1.5 0-2.8-1.1-2.8-2.6v-2h42.3v.6c0 1.2 1.1 2.1 2.4 2.1h16.6c1.3 0 2.4-.9 2.4-2.1v-.6H108v2zM73.2 31.3l-.5-.9 2.9-1.7v-3.4h1v3.9l-3.4 2.1zm-8.4 14.3l-.5-.9 2.9-1.7v-3.4h1v3.9l-3.4 2.1zm15.6-24.7l-9.2-5.3-9.2 5.3v9.5l-8.3 4.8v10.7l9.2 5.3 8.2-4.8 8.2 4.8 9.2-5.3V35.1l-8.2-4.7v-9.5zM63.9 22l7.2-4.2 7.2 4.2v8.3L71 34.5l-7.2-4.2V22zm6.2 22.7l-7.2 4.2-7.2-4.2v-8.4l7.2-4.2 7.2 4.2v8.4zm16.5 0l-7.2 4.2-7.2-4.2v-8.3l7.3-4.2 7.2 4.2v8.3zm-5.8 0l2.9-1.7v-3.4h1v3.9l-3.4 2-.5-.8zm-49-24.6h17.6v2H31.8v-2zm-1.9 2h-8.4v-2h8.4v2zm11.6 6.1h-20v-2h20v2zm1.9-2h5.9v2h-5.9v-2zm-15.8 8.2h-6.2v-2h6.2v2zm1.9-2h19.8v2H29.5v-2zm6.3 8.1H21.5v-2h14.3v2zm1.9-2h11.6v2H37.7v-2zm-16.2 6.1h7.4v2h-7.4v-2zm9.3 0h18.5v2H30.8v-2z" fill="#b5d334"/>
</svg>
