<svg xmlns="http://www.w3.org/2000/svg" width="48" height="43">
    <linearGradient id="a" gradientUnits="userSpaceOnUse" x1="50%" y1="-27.814%" x2="50%" y2="163.25%">
        <stop offset="0" stop-color="#3dfefd"/>
        <stop offset=".99" stop-color="#b7d43f"/>
    </linearGradient>
    <path fill="url(#a)" d="M40.6 23.4v1c-1.4 0-2.2-.9-2.8-1.8-.6-.8-1.1-1.4-2-1.4s-1.3.5-2 1.4c-.6.8-1.3 1.8-2.8 1.8-1.4 0-2.2-.9-2.8-1.8-.6-.8-1.1-1.4-2-1.4-.9 0-1.3.5-2 1.4-.6.8-1.3 1.8-2.8 1.8-1.4 0-2.2-.9-2.8-1.8-.6-.8-1.1-1.4-2-1.4-.9 0-1.3.5-2 1.4-.6.8-1.3 1.8-2.8 1.8s-2.2-.9-2.8-1.8c-.6-.8-1.1-1.4-2-1.4v-1c1.4 0 2.2.9 2.8 1.8.6.8 1.1 1.4 2 1.4.9 0 1.3-.5 2-1.4.6-.8 1.3-1.8 2.8-1.8s2.2.9 2.8 1.8c.6.8 1.1 1.4 2 1.4.9 0 1.3-.5 2-1.4.6-.8 1.3-1.8 2.8-1.8 1.4 0 2.2.9 2.8 1.8.6.8 1.1 1.4 2 1.4.9 0 1.3-.5 2-1.4.6-.8 1.3-1.8 2.8-1.8s2.2.9 2.8 1.8c.7.9 1.1 1.4 2 1.4zm7.4-21V43l-10.3-7.3H2.4c-1.3 0-2.4-1.1-2.4-2.4V2.4C0 1.1 1.1 0 2.4 0h43.2C46.9 0 48 1.1 48 2.4zm-1 0c0-.7-.6-1.4-1.4-1.4H2.4C1.6 1 1 1.7 1 2.4v30.9c0 .7.6 1.4 1.3 1.4H38l9 6.3V2.4zM38.6 13c-.6-.8-1.3-1.8-2.8-1.8s-2.1 1-2.8 1.8c-.6.8-1.1 1.4-2 1.4-.9 0-1.3-.5-2-1.4-.6-.8-1.3-1.8-2.8-1.8-1.4 0-2.2.9-2.8 1.8-.6.8-1.1 1.4-2 1.4-.9 0-1.3-.5-2-1.4-.6-.8-1.3-1.8-2.8-1.8s-2.2.9-2.8 1.8c-.6.8-1.1 1.4-2 1.4-.9 0-1.3-.5-2-1.4-.6-.8-1.3-1.8-2.8-1.8v1c.9 0 1.3.5 2 1.4.6.8 1.3 1.8 2.8 1.8s2.2-.9 2.8-1.8c.6-.8 1.1-1.4 2-1.4.9 0 1.3.5 2 1.4.6.8 1.3 1.8 2.8 1.8 1.4 0 2.2-.9 2.8-1.8.6-.8 1.1-1.4 2-1.4.9 0 1.3.5 2 1.4.6.8 1.3 1.8 2.8 1.8 1.4 0 2.2-.9 2.8-1.8.6-.8 1.1-1.4 2-1.4s1.3.5 2 1.4c.6.8 1.3 1.8 2.8 1.8v-1c-.9 0-1.3-.6-2-1.4z"/>
</svg>
