<?xml version="1.0" encoding="utf-8"?>
<!-- Generator: Adobe Illustrator 22.0.1, SVG Export Plug-In . SVG Version: 6.00 Build 0)  -->
<svg version="1.1" id="Layer_1" xmlns="http://www.w3.org/2000/svg" xmlns:xlink="http://www.w3.org/1999/xlink" x="0px" y="0px"
	 width="48px" height="43px" viewBox="0 0 48 43" enable-background="new 0 0 48 43" xml:space="preserve">
<linearGradient id="SVGID_1_" gradientUnits="userSpaceOnUse" x1="50%" y1="-27.814%" x2="50%" y2="163.25%">
	<stop  offset="0" style="stop-color:#3DFEFD"/>
	<stop  offset="0.9898" style="stop-color:#B7D43F"/>
</linearGradient>
<path fill="url(#SVGID_1_)" d="M40.6,23.4v1c-1.4,0-2.2-0.9-2.8-1.8c-0.6-0.8-1.1-1.4-2-1.4s-1.3,0.5-2,1.4
	c-0.6,0.8-1.3,1.8-2.8,1.8c-1.4,0-2.2-0.9-2.8-1.8c-0.6-0.8-1.1-1.4-2-1.4c-0.9,0-1.3,0.5-2,1.4c-0.6,0.8-1.3,1.8-2.8,1.8
	c-1.4,0-2.2-0.9-2.8-1.8c-0.6-0.8-1.1-1.4-2-1.4c-0.9,0-1.3,0.5-2,1.4c-0.6,0.8-1.3,1.8-2.8,1.8s-2.2-0.9-2.8-1.8
	c-0.6-0.8-1.1-1.4-2-1.4v-1c1.4,0,2.2,0.9,2.8,1.8c0.6,0.8,1.1,1.4,2,1.4c0.9,0,1.3-0.5,2-1.4c0.6-0.8,1.3-1.8,2.8-1.8
	s2.2,0.9,2.8,1.8c0.6,0.8,1.1,1.4,2,1.4c0.9,0,1.3-0.5,2-1.4c0.6-0.8,1.3-1.8,2.8-1.8c1.4,0,2.2,0.9,2.8,1.8c0.6,0.8,1.1,1.4,2,1.4
	c0.9,0,1.3-0.5,2-1.4c0.6-0.8,1.3-1.8,2.8-1.8s2.2,0.9,2.8,1.8C39.3,22.9,39.7,23.4,40.6,23.4z M48,2.4V43l-10.3-7.3H2.4
	c-1.3,0-2.4-1.1-2.4-2.4V2.4C0,1.1,1.1,0,2.4,0h43.2C46.9,0,48,1.1,48,2.4z M47,2.4C47,1.7,46.4,1,45.6,1H2.4C1.6,1,1,1.7,1,2.4
	v30.9c0,0.7,0.6,1.4,1.3,1.4h35.7L47,41V2.4z M38.6,13c-0.6-0.8-1.3-1.8-2.8-1.8S33.7,12.2,33,13c-0.6,0.8-1.1,1.4-2,1.4
	c-0.9,0-1.3-0.5-2-1.4c-0.6-0.8-1.3-1.8-2.8-1.8c-1.4,0-2.2,0.9-2.8,1.8c-0.6,0.8-1.1,1.4-2,1.4c-0.9,0-1.3-0.5-2-1.4
	c-0.6-0.8-1.3-1.8-2.8-1.8s-2.2,0.9-2.8,1.8c-0.6,0.8-1.1,1.4-2,1.4c-0.9,0-1.3-0.5-2-1.4c-0.6-0.8-1.3-1.8-2.8-1.8v1
	c0.9,0,1.3,0.5,2,1.4c0.6,0.8,1.3,1.8,2.8,1.8s2.2-0.9,2.8-1.8c0.6-0.8,1.1-1.4,2-1.4c0.9,0,1.3,0.5,2,1.4c0.6,0.8,1.3,1.8,2.8,1.8
	c1.4,0,2.2-0.9,2.8-1.8c0.6-0.8,1.1-1.4,2-1.4c0.9,0,1.3,0.5,2,1.4c0.6,0.8,1.3,1.8,2.8,1.8c1.4,0,2.2-0.9,2.8-1.8
	c0.6-0.8,1.1-1.4,2-1.4s1.3,0.5,2,1.4c0.6,0.8,1.3,1.8,2.8,1.8v-1C39.7,14.4,39.3,13.8,38.6,13z"/>
</svg>
