<svg xmlns="http://www.w3.org/2000/svg" width="130" height="128.762">
    <path fill="#B6D806" d="M22.62 74.277a42.685 42.685 0 0 0 2.79 8.075l-.983.455a43.706 43.706 0 0 1-2.861-8.281l1.054-.249zm7.772 16.286a43.04 43.04 0 0 1-4.524-7.249l-.972.48a44.127 44.127 0 0 0 4.64 7.432l.856-.663zm4.087 4.561l1.913-1.913-.766-.766-1.918 1.919a42.894 42.894 0 0 1-2.649-2.961l-.842.683a44.354 44.354 0 0 0 2.725 3.045l-3.445 3.445.766.766 3.45-3.451c.861.838 1.748 1.65 2.674 2.414l.69-.835a43.699 43.699 0 0 1-2.598-2.346zm47.879 8.186l.455.984a43.765 43.765 0 0 1-8.278 2.867l-.139-.582a188.45 188.45 0 0 1-9.247 6.705l-.604.412-.183-.122-.183.122-.604-.412a188.394 188.394 0 0 1-9.512-6.91l-.175.716a43.765 43.765 0 0 1-8.259-2.921l.461-.981a42.833 42.833 0 0 0 7.269 2.636c-6.173-4.842-11.299-9.548-15.558-14.023l-.643.643-.766-.766.664-.663C29.472 82.9 24.746 75.573 21.799 69.6c.148 1.222.338 2.436.589 3.633l-1.06.222a44.142 44.142 0 0 1-.873-6.754c-3.318-7.671-3.525-12.519-3.537-12.99l-.032-1.291.055.008c-.015-.322-.024-.65-.024-.984-.005-7.733 2.88-15.008 8.12-20.484a28.551 28.551 0 0 1 2.562-2.36l-5.105-5.104.766-.766 5.195 5.195c4.705-3.553 10.341-5.478 16.266-5.482h.017c1.685 0 3.354.17 4.993.485a42.58 42.58 0 0 1 4.515-1.344l.249 1.055c-.924.218-1.84.476-2.75.757 4.727 1.296 9.102 3.879 12.618 7.529 3.511-3.645 7.878-6.225 12.598-7.523a40.268 40.268 0 0 0-2.328-.661l.259-1.052c1.386.341 2.753.762 4.1 1.241a26.399 26.399 0 0 1 4.996-.486h.017c5.894.004 11.502 1.91 16.191 5.427l5.198-5.198.766.766-5.105 5.105a28.627 28.627 0 0 1 2.633 2.418c5.242 5.476 8.125 12.751 8.12 20.485 0 .334-.01.662-.024.983l.055-.008-.032 1.291c-.012.472-.221 5.342-3.562 13.046a44.234 44.234 0 0 1-.927 6.985l-1.059-.23c.277-1.276.49-2.57.648-3.874-2.957 5.983-7.696 13.32-15.3 21.443l.597.597-.766.766-.577-.577c-4.244 4.454-9.347 9.134-15.486 13.95a42.77 42.77 0 0 0 6.983-2.509zm6.921-13.023l-3.972-3.972.766-.766 3.949 3.949c15.734-16.949 18.866-30.405 19.474-34.533l-.069.01.106-1.358c.054-.693.107-1.431.107-2.172v-.001c.004-7.172-2.666-13.915-7.518-18.985-4.841-5.058-11.276-7.845-18.121-7.849h-.015c-7.101 0-13.957 3.145-18.813 8.63l-.812.916-.812-.916c-4.855-5.485-11.713-8.63-18.813-8.63h-.015c-6.844.004-13.279 2.792-18.12 7.849-4.853 5.07-7.523 11.813-7.519 18.985 0 .741.053 1.479.107 2.172l.106 1.358-.069-.01c.606 4.118 3.73 17.546 19.412 34.465l3.882-3.882.766.766-3.907 3.906c6.19 6.557 14.256 13.615 24.794 20.849l.186-.126.186.126c10.507-7.208 18.552-14.243 24.734-20.781zm14.399-6.224l-.969-.485a42.977 42.977 0 0 1-4.575 7.219l.854.668a44.077 44.077 0 0 0 4.69-7.402zM90.566 98.319a43.006 43.006 0 0 1-7.246 4.53l.481.971a44.23 44.23 0 0 0 7.428-4.643l-.663-.858zm12.611-15.706l.982.461a43.85 43.85 0 0 0 2.914-8.263l-1.052-.256a42.75 42.75 0 0 1-2.844 8.058zm-58.051 20.106a43.106 43.106 0 0 1-7.216-4.579l-.669.853a44.13 44.13 0 0 0 7.399 4.695l.486-.969zm18.909-81.217l-.007-1.084a44.223 44.223 0 0 0-8.711.928l.221 1.061a43.136 43.136 0 0 1 8.497-.905zm1.07.005c2.86.05 5.716.384 8.486.991l.232-1.058a44.293 44.293 0 0 0-8.7-1.017l-.018 1.084zM2.245 76.505l-1.065.208c.141.718.291 1.43.453 2.137l1.056-.242a60.28 60.28 0 0 1-.444-2.103zM4.159 87.21c.259.683.528 1.359.807 2.03l1.001-.417c-.275-.66-.54-1.325-.795-1.997l-1.013.384zm-1.713-5.185c.2.703.411 1.4.633 2.091l1.032-.331a66.127 66.127 0 0 1-.623-2.057l-1.042.297zm-1.263-21.56l-1.082-.067a63.342 63.342 0 0 0-.096 2.184l1.084.029c.019-.717.05-1.432.094-2.146zm-.099 5.371L0 65.861c.017.727.048 1.455.09 2.184l1.082-.063a59.572 59.572 0 0 1-.088-2.146zm.654-10.71l-1.073-.158a70.068 70.068 0 0 0-.282 2.167l1.077.122a62.65 62.65 0 0 1 .278-2.131zm2.544-13.89l1.012.389c.258-.669.527-1.333.809-1.993l-.997-.425a58.558 58.558 0 0 0-.824 2.029zM1.693 73.217a61.308 61.308 0 0 1-.252-2.022l-1.077.116c.074.684.159 1.37.256 2.058l.016.111 1.073-.153-.016-.11zm10.37-46.368l.88.632c.417-.582.845-1.156 1.282-1.723l-.857-.662c-.445.577-.88 1.161-1.305 1.753zM54.828 1.814L54.665.743c-.722.11-1.438.231-2.151.364l.199 1.066c.7-.131 1.406-.251 2.115-.359zM18.881 109.943c.516.514 1.04 1.019 1.573 1.515l.739-.793a63.95 63.95 0 0 1-1.547-1.491l-.765.769zm-3.7-4.013c.471.556.95 1.103 1.439 1.642l.802-.728a65.79 65.79 0 0 1-1.414-1.614l-.827.7zM9.067 31.418l.931.556a64.57 64.57 0 0 1 1.132-1.827l-.912-.586a67.638 67.638 0 0 0-1.151 1.857zm-2.6 4.806l.974.474c.314-.644.639-1.283.975-1.915l-.957-.508a59.384 59.384 0 0 0-.992 1.949zm2.406 60.821c.369.628.749 1.248 1.139 1.86l.914-.582a62.824 62.824 0 0 1-1.12-1.827l-.933.549zm117.374-50.416c-.2-.703-.413-1.4-.636-2.091l-1.031.333c.219.679.428 1.364.625 2.055l1.042-.297zM11.838 101.621c.422.594.853 1.179 1.294 1.757l.861-.657a61.84 61.84 0 0 1-1.271-1.727l-.884.627zm5.841-79.976l-.8-.73a65.753 65.753 0 0 0-1.446 1.636l.823.704c.466-.544.94-1.081 1.423-1.61zM60.171 1.228L60.097.146c-.724.049-1.45.111-2.178.184l.11 1.078a67.451 67.451 0 0 1 2.142-.18zm5.366-.135l.019-1.084a63.603 63.603 0 0 0-2.184-.001l.017 1.084a64.079 64.079 0 0 1 2.148.001zM4.208 44.665l-1.029-.34a63.233 63.233 0 0 0-.649 2.092l1.041.303c.201-.69.412-1.375.637-2.055zm17.255-26.823l-.734-.796c-.535.493-1.061.996-1.579 1.507l.762.771a67.815 67.815 0 0 1 1.551-1.482zM2.749 49.841l-1.054-.249c-.168.71-.324 1.423-.468 2.14l1.063.214c.142-.706.295-1.407.459-2.105zM44.398 4.312l-.341-1.029a62.84 62.84 0 0 0-2.063.722l.375 1.017a60.003 60.003 0 0 1 2.029-.71zm-18.843 10.06l-.667-.855c-.574.447-1.14.903-1.699 1.368l.694.833a67.362 67.362 0 0 1 1.672-1.346zM49.562 2.843l-.254-1.054c-.71.171-1.415.352-2.116.545l.288 1.045c.689-.19 1.383-.369 2.082-.536zM34.537 8.54l-.511-.956c-.641.343-1.276.696-1.904 1.06l.544.938a64.245 64.245 0 0 1 1.871-1.042zm4.839-2.325l-.428-.996a64.99 64.99 0 0 0-1.993.895l.461.981a67.635 67.635 0 0 1 1.96-.88zM71.008.337A64.646 64.646 0 0 0 68.832.15l-.074 1.082c.716.049 1.43.111 2.141.184l.109-1.079zm53.519 41.108c-.26-.682-.53-1.358-.812-2.029l-.999.42c.277.659.543 1.324.799 1.995l1.012-.386zM22.905 113.63c.558.468 1.123.928 1.696 1.378l.669-.853a61.944 61.944 0 0 1-1.667-1.355l-.698.83zm86.86-94.89a62.478 62.478 0 0 0-1.576-1.512l-.737.795A63.9 63.9 0 0 1 109 19.51l.765-.77zM96.807 8.778a68.683 68.683 0 0 0-1.907-1.07l-.514.954c.631.341 1.255.692 1.875 1.054l.546-.938zm8.924 6.282a68.86 68.86 0 0 0-1.697-1.375l-.669.853c.564.441 1.121.892 1.67 1.353l.696-.831zm-4.33-3.329a66.735 66.735 0 0 0-1.808-1.227l-.595.907c.6.393 1.193.795 1.78 1.207l.623-.887zm-9.426-5.508a61.65 61.65 0 0 0-1.992-.907l-.431.994c.657.286 1.31.583 1.958.891l.465-.978zm-10.229-3.84a64.691 64.691 0 0 0-2.119-.557l-.258 1.053c.698.17 1.393.353 2.083.547l.294-1.043zM76.418 1.13a64.103 64.103 0 0 0-2.161-.374l-.165 1.071c.711.11 1.419.232 2.123.367l.203-1.064zm10.526 2.956a58.727 58.727 0 0 0-2.064-.734l-.345 1.027c.68.23 1.356.47 2.028.723l.381-1.016zM6.306 92.231c.316.658.642 1.31.979 1.955l.961-.501a64.967 64.967 0 0 1-.962-1.922l-.978.468zm121.253-31.34c.039.718.068 1.433.084 2.148l1.084-.024a61.673 61.673 0 0 0-.086-2.184l-1.082.06zm-20.38 50.105l.734.797a66.044 66.044 0 0 0 1.581-1.504l-.76-.773c-.509.502-1.028.995-1.555 1.48zm3.793-3.798l.798.732c.492-.536.976-1.081 1.45-1.634l-.823-.705c-.466.544-.941 1.08-1.425 1.607zm3.459-4.106l.857.664c.446-.576.882-1.16 1.307-1.751l-.878-.633c-.42.581-.847 1.154-1.286 1.72zm-3.205-81.256c.48.529.954 1.066 1.417 1.612l.825-.702a66.138 66.138 0 0 0-1.44-1.639l-.802.729zm-12.518 95.722l.588.91a64.289 64.289 0 0 0 1.812-1.216l-.62-.889c-.585.408-1.179.807-1.78 1.195zm-14.486 6.927l.339 1.03a65.338 65.338 0 0 0 2.065-.719l-.375-1.017c-.67.246-1.347.482-2.029.706zm9.867-4.212l.508.957a64.212 64.212 0 0 0 1.907-1.056l-.542-.939a62.96 62.96 0 0 1-1.873 1.038zm8.993-5.815l.665.856a65.972 65.972 0 0 0 1.702-1.365l-.692-.834c-.551.457-1.109.905-1.675 1.343zm11.584-88.504c.434.567.859 1.142 1.274 1.724l.883-.629a62.028 62.028 0 0 0-1.297-1.755l-.86.66zm-25.42 96.637l.425.996a66.41 66.41 0 0 0 1.995-.892l-.459-.982c-.648.303-1.302.595-1.961.878zm37.725-48.844l1.071.159a67.46 67.46 0 0 0 .286-2.166l-1.077-.124a64.933 64.933 0 0 1-.28 2.131zm-1.021 5.284l1.054.251a66.19 66.19 0 0 0 .471-2.14l-1.063-.215a60.968 60.968 0 0 1-.462 2.104zm-1.469 5.174l1.029.34c.229-.692.447-1.389.652-2.09l-1.039-.306c-.204.69-.418 1.375-.642 2.056zm3.892-26.641a60.128 60.128 0 0 0-.27-2.177l-.032-.216-1.073.153.033.222c.101.712.188 1.423.265 2.132l1.077-.114zM117.74 30.345c.383.601.758 1.21 1.122 1.826l.933-.551a58.443 58.443 0 0 0-1.143-1.857l-.912.582zm9.794 38.063l1.082.069a65.77 65.77 0 0 0 .101-2.183l-1.084-.032a61.154 61.154 0 0 1-.099 2.146zm-7.279 25.669l.957.51a64.77 64.77 0 0 0 .996-1.947l-.974-.477a61.503 61.503 0 0 1-.979 1.914zm.172-59.098c.332.633.654 1.274.966 1.92l.976-.471a64.671 64.671 0 0 0-.981-1.952l-.961.503zm2.15 54.253l.997.426c.287-.67.562-1.346.827-2.026l-1.01-.393c-.26.67-.531 1.334-.814 1.993zm-5.043 9.477l.91.587c.395-.611.78-1.23 1.155-1.855l-.929-.557a64.034 64.034 0 0 1-1.136 1.825zm-59.929 29.704c.722.076 1.448.14 2.176.19l.076-1.08a66.132 66.132 0 0 1-2.14-.187l-.112 1.077zm5.471-.746l-.021 1.084a62.716 62.716 0 0 0 2.187.005l-.017-1.084c-.72.009-1.435.008-2.149-.005zm5.369-.126l.07 1.082a64.601 64.601 0 0 0 2.179-.18l-.108-1.078c-.715.071-1.429.13-2.141.176zm5.341-.577l.161 1.072c.722-.109 1.44-.229 2.153-.361l-.197-1.066c-.702.131-1.408.249-2.117.355zm5.27-1.018l.25 1.054a63.078 63.078 0 0 0 2.118-.541l-.286-1.046a62.81 62.81 0 0 1-2.082.533zm-47.236-6.02c.629.369 1.264.728 1.905 1.075l.516-.952a62.481 62.481 0 0 1-1.873-1.057l-.548.934zm-4.589-2.96c.596.42 1.197.83 1.806 1.23l.595-.906a65.327 65.327 0 0 1-1.777-1.21l-.624.886zm9.415 5.524a62.67 62.67 0 0 0 1.991.91l.434-.993a66.378 66.378 0 0 1-1.957-.895l-.468.978zm15.55 5.121c.716.138 1.436.264 2.158.377l.169-1.071a62.26 62.26 0 0 1-2.122-.371l-.205 1.065zm-5.326-1.263c.702.199 1.408.385 2.117.56l.26-1.052a64.416 64.416 0 0 1-2.083-.551l-.294 1.043zM25.066 11.442a3.537 3.537 0 0 1 1.041-2.519 3.539 3.539 0 0 1 2.518-1.044h.002c.95 0 1.844.37 2.516 1.041a3.543 3.543 0 0 1 1.045 2.517A3.565 3.565 0 0 1 28.629 15h-.002a3.564 3.564 0 0 1-3.561-3.558zm1.084-.001c0 .661.258 1.283.727 1.751a2.46 2.46 0 0 0 1.749.724h.002a2.458 2.458 0 0 0 1.75-.727 2.462 2.462 0 0 0 .725-1.751c0-.662-.258-1.284-.727-1.751a2.458 2.458 0 0 0-1.749-.724h-.002a2.46 2.46 0 0 0-1.751.727 2.46 2.46 0 0 0-.724 1.751zM130 51.058a3.564 3.564 0 0 1-3.559 3.563h-.002a3.564 3.564 0 0 1-3.56-3.558 3.537 3.537 0 0 1 1.041-2.519 3.54 3.54 0 0 1 2.518-1.045h.002c.95 0 1.844.37 2.516 1.041A3.542 3.542 0 0 1 130 51.058zm-1.084.001c0-.661-.258-1.283-.727-1.751a2.46 2.46 0 0 0-1.749-.724h-.002a2.46 2.46 0 0 0-1.751.727c-.467.468-.724 1.091-.724 1.752s.258 1.283.727 1.751a2.46 2.46 0 0 0 1.749.724h.002a2.48 2.48 0 0 0 2.475-2.479zM46.32 124.41a3.565 3.565 0 0 1-3.558 3.563h-.002a3.564 3.564 0 0 1-3.56-3.558 3.565 3.565 0 0 1 3.558-3.563h.002a3.564 3.564 0 0 1 3.56 3.558zm-1.084.001a2.48 2.48 0 0 0-2.476-2.475h-.002c-1.365.001-2.475 1.113-2.474 2.478s1.112 2.475 2.476 2.475h.002a2.458 2.458 0 0 0 1.75-.727 2.46 2.46 0 0 0 .724-1.751zm44.533-59.962c0 13.993-11.384 25.376-25.376 25.376S39.017 78.441 39.017 64.449 50.4 39.073 64.392 39.073s25.377 11.383 25.377 25.376zm-38.5-.542c.039-4.923.969-8.898 2.26-12.056h-8.601a23.046 23.046 0 0 0-3.717 12.056h10.058zm1.083 0H63.85V51.851h-9.136c-1.365 3.158-2.322 7.125-2.362 12.056zm21.068-13.14a24.593 24.593 0 0 0-3.117-4.773c-2.129-2.541-4.263-4.016-5.37-4.684v9.457h8.487zm-8.486 1.084v12.056h11.494c-.067-4.951-1.106-8.936-2.494-12.056h-9zm-1.088-10.583c-1.675.942-5.806 3.725-8.634 9.5h8.639v-9.5h-.005zm-11.47 23.723c.099 4.892 1.089 8.856 2.488 12.002h8.986V64.991H52.376zm3.015 13.085c2.843 5.658 6.867 8.461 8.459 9.391v-9.391h-8.459zm9.543 9.326c1.713-.983 5.72-3.747 8.523-9.326h-8.523v9.326zm9.037-10.409c1.395-3.141 2.383-7.095 2.457-12.002H64.934v12.002h9.037zm1.186 0h8.733a23.05 23.05 0 0 0 3.684-12.002H77.51c-.073 4.902-1.035 8.861-2.353 12.002zm-8.188-35.601c2.149 1.6 5.331 4.576 7.641 9.375h3.608v1.084h-3.116c1.383 3.227 2.347 7.211 2.41 12.056h10.061c-.271-11.678-9.193-21.247-20.604-22.515zm-21.282 9.375h8.311c1.128-2.447 2.455-4.354 3.686-5.778a22.282 22.282 0 0 1 3.875-3.559c-6.505.798-12.173 4.295-15.872 9.337zM61.972 87.53c-2.13-1.52-5.425-4.484-7.798-9.454h-3.607v-1.084h3.118c-1.359-3.199-2.313-7.162-2.406-12.002H41.211c.273 11.734 9.276 21.344 20.761 22.54zm21.166-9.454h-8.463c-1.115 2.359-2.411 4.213-3.616 5.607a22.48 22.48 0 0 1-4.282 3.853c6.719-.689 12.579-4.271 16.361-9.46zM43.183 42.653l-6.131-6.13-.766.766 6.131 6.13.766-.766zM30.157 29.627l-.766.766 6.13 6.131.766-.766-6.13-6.131zm14.01 15.543l.766-.766-.984-.984-.766.766.984.984zm48.197-7.936l-.766-.766-6.132 6.131.766.766 6.132-6.131zm-6.897 6.898l-.767-.766-.979.979.766.766.98-.979zm13.795-13.796l-.766-.766-6.132 6.132.766.766 6.132-6.132zm-69.766 69.771l-.766-.766-6.131 6.13.766.766 6.131-6.13zm13.793-15.325l.766.766.984-.984-.766-.766-.984.984zm52.42 10.402a44.134 44.134 0 0 0 2.592-2.864l-.836-.689a43.153 43.153 0 0 1-2.522 2.787l-1.973-1.973-.766.766 1.97 1.97a43.258 43.258 0 0 1-2.77 2.475l.684.84a43.835 43.835 0 0 0 2.853-2.549l3.394 3.394.766-.766-3.392-3.391zm3.391 4.923l6.131 6.13.766-.766-6.131-6.13-.766.766zM83.556 84.564l.984.985.766-.766-.984-.985-.766.766z"/>
</svg>
