<svg id="Layer_1" xmlns="http://www.w3.org/2000/svg" width="130" height="133.125">
  <path fill="#B6D806" d="M31.68 37.355l-.841-.7c1.885-2.268 4.005-4.357 6.302-6.21l.686.852c-2.239 1.806-4.307 3.845-6.147 6.058zm6.997-6.725c2.286-1.752 4.755-3.281 7.337-4.543l-.481-.983c-2.647 1.294-5.178 2.861-7.523 4.657l.667.869zm53.854-.448c-2.316-1.833-4.823-3.439-7.451-4.774l-.496.976c2.563 1.302 5.009 2.868 7.267 4.656l.68-.858zm6.211 7.692l.852-.686c-1.849-2.297-3.937-4.419-6.204-6.307l-.701.841c2.213 1.841 4.249 3.911 6.053 6.152zM75.49 22.993c2.79.694 5.524 1.674 8.122 2.912l.471-.988c-2.665-1.27-5.467-2.274-8.328-2.986l-.265 1.062zm-9.619-1.272c2.888.058 5.772.403 8.568 1.024l.237-1.068c-2.866-.637-5.822-.99-8.783-1.05l-.022 1.094zm-10.718 1.116l-.248-1.066c-2.872.668-5.69 1.63-8.373 2.86l.455.995c2.617-1.199 5.365-2.137 8.166-2.789zm9.637-1.124l-.004-1.095c-2.962.014-5.923.321-8.799.915l.221 1.072c2.806-.579 5.693-.879 8.582-.892zm58.628 71.843l-.983-.482c-.318.651-.649 1.295-.989 1.933l.966.515c.346-.648.681-1.304 1.006-1.966zM30.219 11.374l-.596-.917c-.617.401-1.225.811-1.826 1.23l.626.898c.59-.413 1.19-.816 1.796-1.211zm-4.412 3.14l-.673-.864c-.579.452-1.152.912-1.715 1.382l.701.841c.553-.462 1.116-.915 1.687-1.359zm9.072-5.89l-.517-.965c-.648.346-1.289.703-1.923 1.07l.549.947c.623-.361 1.254-.711 1.891-1.052zm-13.204 9.393l-.742-.804c-.541.498-1.072 1.006-1.595 1.522l.77.779c.515-.507 1.037-1.006 1.567-1.497zM39.766 6.276l-.432-1.006c-.677.291-1.349.592-2.012.904l.466.991c.653-.306 1.312-.603 1.978-.889zm81.215 25.656c-.374-.633-.759-1.258-1.154-1.876l-.921.589c.387.607.765 1.222 1.133 1.844l.942-.557zM11.034 99.296c-.387-.608-.764-1.223-1.131-1.845l-.943.554c.373.634.757 1.26 1.15 1.878l.924-.587zM8.499 35.127l-.966-.513c-.345.649-.68 1.306-1.001 1.969l.983.479c.317-.652.645-1.297.984-1.935zm9.353-13.269l-.808-.737c-.496.543-.983 1.093-1.46 1.652l.831.711c.471-.55.95-1.091 1.437-1.626zM6.369 93.143c.32.665.649 1.323.989 1.974l.97-.506c-.333-.64-.658-1.287-.971-1.941l-.988.473zm117.21-56.354c-.32-.664-.651-1.321-.991-1.971l-.97.508c.336.64.66 1.286.976 1.939l.985-.476zM14.366 26.012l-.866-.669c-.45.583-.889 1.173-1.318 1.771l.889.638c.422-.587.854-1.167 1.295-1.74zm30.47-21.658l-.344-1.039c-.7.231-1.395.475-2.083.729l.378 1.027c.678-.25 1.36-.489 2.049-.717zM11.24 30.445l-.921-.592c-.398.618-.786 1.243-1.163 1.876l.941.561c.37-.622.752-1.238 1.143-1.845zm76.563-26.32c-.689-.259-1.384-.507-2.084-.742l-.348 1.037c.687.232 1.369.475 2.048.73l.384-1.025zM71.71.339C70.981.264 70.248.201 69.512.15l-.075 1.092c.724.05 1.444.112 2.162.185L71.71.339zm5.465.801c-.724-.138-1.451-.264-2.182-.377l-.167 1.082c.718.111 1.433.235 2.144.371l.205-1.076zm5.38 1.266c-.71-.199-1.424-.387-2.14-.562l-.261 1.063c.705.172 1.406.356 2.103.553l.298-1.054zm27.522 17.295l.772-.777c-.522-.518-1.053-1.027-1.591-1.527l-.744.803c.53.491 1.05.992 1.563 1.501zm-7.672-7.854c-.602-.423-1.211-.836-1.825-1.239l-.601.916c.606.397 1.204.803 1.798 1.219l.628-.896zm-9.52-5.562c-.665-.317-1.335-.622-2.011-.916l-.436 1.004c.664.289 1.323.589 1.977.9l.47-.988zm4.879 2.58c-.637-.372-1.278-.733-1.926-1.082l-.519.963c.637.344 1.268.698 1.894 1.064l.551-.945zm16.827 14.106c-.477-.561-.961-1.112-1.455-1.655l-.81.736c.485.534.963 1.077 1.431 1.628l.834-.709zM50.052 2.87l-.257-1.064c-.717.173-1.429.356-2.136.55l.291 1.054c.694-.191 1.395-.371 2.102-.54zM3.607 47.182c.202-.697.416-1.388.642-2.076l-1.039-.343c-.231.7-.449 1.404-.655 2.113l1.052.306zm117.175 51.224l-.938-.562c-.372.621-.755 1.235-1.147 1.843l.919.593c.399-.618.788-1.243 1.166-1.874zM55.371 1.831L55.206.75c-.729.111-1.452.234-2.173.368l.201 1.076c.708-.132 1.421-.253 2.137-.363zm62.607 25.486c-.426-.599-.864-1.19-1.31-1.773l-.868.666c.438.572.867 1.153 1.287 1.742l.891-.635zM66.185 1.103l.019-1.094c-.732-.012-1.468-.012-2.205-.001l.017 1.094c.727-.011 1.448-.012 2.169.001zm-5.421.137L60.691.148c-.732.049-1.465.111-2.201.185l.111 1.089c.723-.073 1.444-.134 2.163-.182zM2.777 50.333l-1.064-.251c-.17.717-.327 1.437-.472 2.161l1.073.216c.142-.713.297-1.421.463-2.126zm124.935 2.33l1.073-.211c-.142-.724-.296-1.443-.461-2.157l-1.067.246c.163.703.315 1.41.455 2.122zm-32.69 68.8l.513.966c.649-.345 1.291-.701 1.926-1.067l-.547-.948c-.625.361-1.254.71-1.892 1.049zm32.475-74.372c-.202-.71-.417-1.413-.642-2.112l-1.041.337c.221.686.432 1.378.632 2.076l1.051-.301zm-37.368 76.712l.43 1.007c.679-.29 1.35-.59 2.015-.901l-.464-.992c-.655.307-1.315.602-1.981.886zm-5.073 1.914l.342 1.04c.701-.231 1.396-.473 2.085-.726l-.378-1.027c-.677.249-1.361.486-2.049.713zm-10.539 2.504l.162 1.083c.729-.11 1.455-.231 2.174-.364l-.199-1.076c-.708.13-1.421.249-2.137.357zm5.321-1.03l.252 1.064c.719-.17 1.432-.353 2.139-.546l-.289-1.056c-.695.191-1.396.37-2.102.538zm43.953-37.076l1.007.431c.29-.677.568-1.359.835-2.046l-1.02-.397c-.263.675-.537 1.346-.822 2.012zm4.498-34.02c.102.719.19 1.437.267 2.154l1.088-.115c-.077-.729-.168-1.46-.273-2.199l-.032-.218-1.084.155.034.223zm-.061 18.382l1.082.16c.108-.726.204-1.455.289-2.187l-1.088-.125c-.083.72-.177 1.437-.283 2.152zm.569-5.393l1.092.069c.046-.733.08-1.467.102-2.205l-1.094-.032c-.022.725-.054 1.448-.1 2.168zm-1.6 10.729l1.064.253c.17-.716.329-1.437.476-2.161l-1.073-.217c-.145.713-.3 1.421-.467 2.125zm-1.484 5.225l1.039.343c.231-.699.451-1.403.658-2.11l-1.05-.309c-.204.696-.42 1.388-.647 2.076zm3.193-21.376l1.094-.025c-.016-.733-.045-1.468-.087-2.205l-1.092.061c.04.724.069 1.448.085 2.169zm-59.783 65.141l.071 1.092c.732-.048 1.465-.108 2.201-.182l-.109-1.089c-.724.073-1.444.132-2.163.179zm-32.115-5.102c.665.318 1.335.624 2.01.919l.438-1.002c-.665-.291-1.322-.592-1.976-.904l-.472.987zM2.47 82.835c.202.71.415 1.414.639 2.112l1.042-.335c-.221-.687-.43-1.379-.627-2.077l-1.054.3zm29.665 38.277c.635.373 1.276.735 1.924 1.085l.522-.962c-.637-.345-1.268-.701-1.892-1.067l-.554.944zM1.71 73.941c-.096-.682-.182-1.363-.254-2.042l-1.088.118c.075.691.16 1.384.259 2.078l.016.112 1.084-.155-.017-.111zm4.317 15.761c-.278-.666-.545-1.339-.803-2.017l-1.024.388c.262.69.533 1.373.815 2.05l1.012-.421zM1.094 66.487L0 66.512c.017.734.048 1.469.091 2.206l1.092-.064c-.043-.724-.071-1.446-.089-2.167zm.66-10.817L.67 55.511c-.106.727-.201 1.456-.283 2.189l1.088.122c.08-.72.173-1.438.279-2.152zm-.559 5.393l-1.092-.067c-.045.733-.078 1.468-.097 2.206l1.094.029c.019-.725.05-1.447.095-2.168zm1.071 16.199l-1.075.209c.142.725.294 1.444.457 2.158l1.067-.245c-.162-.702-.311-1.409-.449-2.122zm50.447 51.612c.724.139 1.45.266 2.179.381l.171-1.082c-.718-.113-1.432-.238-2.143-.375l-.207 1.076zm-10.625-3.004c.689.26 1.383.509 2.082.745l.351-1.037c-.686-.232-1.369-.477-2.046-.733l-.387 1.025zm5.246 1.728c.709.201 1.421.389 2.138.566l.263-1.062c-.705-.174-1.405-.36-2.103-.556l-.298 1.052zm10.841 2.086c.729.077 1.462.141 2.197.192l.077-1.091c-.722-.051-1.443-.114-2.161-.189l-.113 1.088zm67.583-87.828c-.263-.689-.535-1.372-.82-2.049l-1.009.424c.28.665.548 1.337.807 2.015l1.022-.39zM2.648 43.177c-.68-.679-1.054-1.581-1.055-2.541-.001-1.983 1.611-3.597 3.594-3.598h.002c1.981 0 3.594 1.612 3.595 3.593.001.961-.373 1.864-1.052 2.544-.679.679-1.582 1.054-2.543 1.054h-.002c-.958 0-1.86-.374-2.539-1.052zm.04-2.542c0 .669.261 1.296.734 1.768.471.472 1.1.732 1.767.732h.002c.668-.001 1.296-.261 1.769-.734.471-.472.731-1.101.731-1.769 0-.668-.261-1.296-.734-1.768-.472-.472-1.1-.732-1.767-.732h-.002c-.668.001-1.295.261-1.768.734s-.732 1.101-.732 1.769zm99.317-25.718c-.001-1.983 1.611-3.597 3.594-3.598h.002c1.981 0 3.594 1.612 3.595 3.593.001.961-.373 1.864-1.052 2.544-.679.679-1.582 1.054-2.543 1.054h-.002c-.96 0-1.862-.374-2.54-1.052-.679-.678-1.053-1.581-1.054-2.541zm1.094-.001c0 .669.261 1.296.734 1.768.471.472 1.1.732 1.767.732h.002c.668-.001 1.296-.261 1.769-.734.471-.472.731-1.101.731-1.769 0-.668-.261-1.296-.734-1.768-.472-.472-1.1-.732-1.767-.732h-.002c-.668.001-1.295.261-1.768.734-.472.473-.732 1.102-.732 1.769zM68.35 129.527c.001 1.983-1.611 3.597-3.593 3.598h-.002c-.96 0-1.862-.374-2.54-1.052-.68-.679-1.054-1.581-1.055-2.542-.001-1.983 1.611-3.597 3.593-3.598h.002c1.981.001 3.594 1.613 3.595 3.594zm-1.094.001c-.001-1.379-1.123-2.5-2.501-2.5h-.002c-.668.001-1.295.261-1.768.734-.471.473-.731 1.101-.731 1.769 0 .669.261 1.296.734 1.768.471.472 1.1.732 1.767.732h.002c1.379-.001 2.5-1.124 2.499-2.503zm-48.91-84.592h92.817v59.911H18.346V44.936zm1.095 58.816h90.628V46.03H19.441v57.722zm98.229 5.427h7.009v4.359c0 2.747-2.35 4.981-5.24 4.981H101.95c-.551.381-1.108.756-1.672 1.122l-.594-.919 1.594-.203H29.88l-.556.848c-.42-.276-.831-.562-1.244-.848H10.071c-2.89 0-5.24-2.234-5.24-4.981v-4.359h7.009V41.744c0-1.756 1.429-3.186 3.186-3.186h99.458c1.757 0 3.186 1.429 3.186 3.186v61.212l.079.057c-.026.036-.053.07-.079.106v6.06zm-103.642 0h101.453V41.744c0-.55-.448-.997-.997-.997H15.026c-.549 0-.997.447-.997.997v67.435zm40.132 2.188v.702c0 .64.699 1.18 1.526 1.18h18.137c.827 0 1.526-.54 1.526-1.18v-.702H54.16zm22.284 0v.702c0 1.254-1.176 2.274-2.621 2.274H55.686c-1.445 0-2.621-1.02-2.621-2.274v-.702H7.02v2.17c0 1.54 1.369 2.792 3.051 2.792h109.368c1.682 0 3.051-1.253 3.051-2.792v-2.17H76.444zm11.868-40.824v-4.289h-1.094v3.657l-3.211 1.853.547.948 3.758-2.169zm-9.068 15.546V81.8H78.15v3.657l-3.211 1.853.547.948 3.758-2.169zm13.205-14.375l8.896 5.136v11.628l-10.071 5.814-8.982-5.186-8.982 5.186-10.07-5.814V76.85l9.069-5.236v-10.31l10.07-5.814 10.07 5.814v10.41zm-17.95-.046l7.841 4.527 7.921-4.573v-9.054l-7.881-4.55-7.881 4.55v9.1zm6.693 6.446l-7.881-4.55-7.882 4.55v9.101l7.882 4.55 7.881-4.55v-9.101zm17.965 0l-7.842-4.527-7.921 4.573v9.054l7.881 4.55 7.882-4.55v-9.1zm-5.706 10.145l3.757-2.17V81.8h-1.094v3.657l-3.209 1.853.546.949zM37.365 60.437h-9.143v2.189h9.143v-2.189zm2.073 2.189h19.15v-2.189h-19.15v2.189zm10.623 4.497H28.223v2.189h21.839v-2.189zm2.073 2.188h6.454v-2.189h-6.454v2.189zm-15.113 6.708h21.567V73.83H37.021v2.189zm-2.073-2.188h-6.726v2.189h6.726v-2.189zm8.895 6.661h-15.62v2.189h15.62v-2.189zm2.073 2.189h12.672v-2.189H45.916v2.189zm-7.514 6.686h20.186v-2.189H38.402v2.189zm-10.179 0h8.106v-2.189h-8.106v2.189z"/>
</svg>
