<svg xmlns="http://www.w3.org/2000/svg" width="122" height="132">
    <path fill="#B6D806" d="M49.699 12.662c8.635 0 10.62 1.985 10.62 10.62a.68.68 0 1 0 1.362 0c0-8.635 1.985-10.62 10.62-10.62a.68.68 0 1 0 0-1.362c-8.635 0-10.62-1.985-10.62-10.62a.68.68 0 0 0-1.362.001c0 8.635-1.985 10.62-10.62 10.62a.68.68 0 1 0 0 1.361zM61 7.007c.782 2.661 2.314 4.193 4.975 4.975-2.661.782-4.193 2.314-4.975 4.975-.782-2.661-2.314-4.193-4.975-4.975 2.66-.782 4.193-2.315 4.975-4.975zm-42.492 15.7c6.797 0 8.359 1.562 8.359 8.359a.68.68 0 1 0 1.362 0c0-6.797 1.562-8.359 8.36-8.359a.68.68 0 1 0 0-1.362c-6.798 0-8.36-1.562-8.36-8.36a.68.68 0 1 0-1.362 0c0 6.798-1.562 8.36-8.359 8.36a.68.68 0 1 0 0 1.362zm9.04-4.278c.637 1.828 1.769 2.96 3.597 3.597-1.828.637-2.96 1.769-3.597 3.597-.637-1.828-1.769-2.96-3.597-3.597 1.828-.637 2.96-1.769 3.597-3.597zm58.198 4.55c6.797 0 8.359 1.562 8.359 8.36a.68.68 0 1 0 1.362 0c0-6.798 1.562-8.36 8.36-8.36a.68.68 0 1 0 0-1.362c-6.798 0-8.36-1.562-8.36-8.36a.68.68 0 1 0-1.362 0c0 6.798-1.562 8.36-8.359 8.36a.68.68 0 1 0 0 1.362zm9.04-4.278c.637 1.828 1.769 2.96 3.597 3.597-1.828.637-2.96 1.769-3.597 3.597-.637-1.828-1.769-2.96-3.597-3.597 1.828-.637 2.96-1.769 3.597-3.597zM.743 44.264c5.388 0 6.552 1.163 6.552 6.552a.68.68 0 1 0 1.362 0c0-5.388 1.163-6.552 6.552-6.552a.68.68 0 1 0 0-1.362c-5.388 0-6.552-1.163-6.552-6.552a.68.68 0 1 0-1.362 0c0 5.388-1.163 6.552-6.552 6.552a.68.68 0 1 0 0 1.362zm7.233-3.15c.492 1.187 1.282 1.977 2.469 2.469-1.187.492-1.977 1.282-2.469 2.469-.492-1.187-1.282-1.977-2.469-2.469 1.186-.491 1.977-1.282 2.469-2.469zm98.185 2.47a.68.68 0 0 0 .681.681c5.388 0 6.552 1.163 6.552 6.552a.68.68 0 1 0 1.362 0c0-5.388 1.163-6.552 6.552-6.552a.68.68 0 1 0 0-1.362c-5.388 0-6.552-1.163-6.552-6.552a.68.68 0 1 0-1.362 0c0 5.388-1.163 6.552-6.552 6.552a.68.68 0 0 0-.681.681zm7.913-2.47c.492 1.187 1.282 1.977 2.469 2.469-1.187.492-1.977 1.282-2.469 2.469-.492-1.187-1.282-1.977-2.469-2.469 1.187-.491 1.977-1.282 2.469-2.469zm-99.81-9.852a2.505 2.505 0 1 1 5.01 0 2.505 2.505 0 0 1-5.01 0zm24.893-16.611a3.14 3.14 0 1 1 6.281 0 3.14 3.14 0 0 1-6.281 0zm37.284 0a3.14 3.14 0 1 1 6.281 0 3.14 3.14 0 0 1-6.281 0zm28.386 14.106a2.505 2.505 0 1 1 0 5.01 2.505 2.505 0 0 1 0-5.01zM55.406 81.885c.066.258.1.782.098 1.629 0 1.22-1.154 2.35-3.057 3.052-.706-1.865-1.564-3.459-2.596-4.721-2.094-2.559-4.575-3.032-6.387-3.377-.441-.084-.861-.162-1.249-.271-1.906-.533-3.09-1.528-3.09-2.687-.001-.554.019-.943.06-1.163 3.458-2.361 5.247-6.148 5.468-11.563.174-4.255-1.007-7.921-3.325-10.32-1.828-1.893-4.234-2.871-6.948-2.864-.032-.003-.194-.003-.227-.003h-.068c-2.739 0-5.142.985-6.949 2.853-2.319 2.395-3.506 6.063-3.344 10.33.207 5.42 2.016 9.219 5.468 11.564.042.222.062.627.061 1.254 0 1.07-1.184 2.065-3.09 2.597-.388.108-.808.187-1.249.271-1.812.345-4.293.818-6.387 3.377-1.967 2.404-3.353 5.925-4.119 10.466l-.012.09c-.055.554.035 1.387.777 2.21 3.338 3.7 18.697 3.787 18.852 3.788h.259c.056 0 2.091-.014 4.82-.201a38.772 38.772 0 0 0-1.197 5.087l-.013.09c-.06.605.039 1.516.854 2.42 3.867 4.286 21.894 4.39 22.08 4.391h.301c.181-.001 18.209-.105 22.076-4.391.816-.904.915-1.815.842-2.51a38.743 38.743 0 0 0-1.195-5.08c2.68.181 4.671.195 4.726.195h.26c.155-.001 15.514-.088 18.852-3.788.742-.822.832-1.655.765-2.3-.766-4.54-2.151-8.062-4.119-10.466-2.094-2.559-4.575-3.032-6.387-3.377-.441-.084-.861-.162-1.249-.271-1.907-.533-3.091-1.528-3.091-2.685-.001-.554.019-.945.061-1.165 3.457-2.361 5.247-6.148 5.467-11.563.174-4.255-1.007-7.92-3.324-10.319-1.828-1.893-4.276-2.866-6.938-2.864-.035-.003-.203-.003-.237-.003h-.068c-2.739 0-5.141.986-6.949 2.853-2.319 2.395-3.506 6.064-3.343 10.33.207 5.42 2.016 9.219 5.468 11.564.042.222.062.627.061 1.254 0 1.07-1.184 2.065-3.09 2.597-.388.108-.808.187-1.249.271-1.812.345-4.293.818-6.387 3.377-1.028 1.256-1.883 2.841-2.586 4.694-1.857-.705-2.977-1.834-2.977-3.128-.001-.755.031-1.265.098-1.522 4.067-2.736 6.171-7.16 6.43-13.514.202-4.956-1.167-9.219-3.857-12.003-2.109-2.184-4.905-3.344-8.052-3.307-.03-.002-.214-.002-.244-.002h-.08c-3.165 0-5.94 1.138-8.027 3.294-2.691 2.779-4.068 7.046-3.879 12.015.244 6.353 2.367 10.79 6.431 13.515zM34.344 95.676h-.243c-8.599-.025-16.464-1.668-16.924-3.003.689-4.023 1.874-7.086 3.526-9.104 1.467-1.794 3.156-2.115 4.789-2.427a17.86 17.86 0 0 0 1.472-.323c3.181-.888 5.081-2.839 5.081-5.304.003-1.272-.071-2.57-1.038-3.276-2.849-1.858-4.319-4.986-4.493-9.561-.134-3.518.781-6.477 2.578-8.332 1.301-1.343 2.98-2.024 5-2.024h.054l.027-.005c.037.003.102.021.136.005 2.022-.039 3.746.672 5.061 2.035 1.796 1.859 2.706 4.813 2.563 8.318-.188 4.603-1.656 7.73-4.555 9.607-.905.663-.979 1.961-.977 3.318 0 2.38 1.899 4.331 5.081 5.219.458.128.953.225 1.472.323 1.633.311 3.322.633 4.789 2.427.797.974 1.477 2.208 2.051 3.648-2.061.4-4.737 1.047-7.01 3.824-.987 1.207-1.841 2.671-2.574 4.355-1.863.162-3.83.274-5.866.28zm39.913-12.107c1.467-1.794 3.156-2.115 4.789-2.427a17.86 17.86 0 0 0 1.472-.323c3.181-.888 5.081-2.839 5.081-5.304.003-1.272-.071-2.57-1.038-3.276-2.849-1.858-4.319-4.986-4.493-9.561-.135-3.517.781-6.476 2.577-8.331 1.313-1.355 3.012-1.981 5.054-2.024l.018-.006c.041.003.112.003.145.006 2.016-.039 3.746.672 5.062 2.036 1.796 1.859 2.705 4.813 2.562 8.317-.188 4.602-1.656 7.73-4.554 9.607-.906.664-.979 1.963-.977 3.318 0 2.379 1.899 4.331 5.081 5.219.458.128.953.225 1.472.323 1.633.311 3.322.633 4.789 2.427 1.663 2.034 2.855 5.127 3.53 9.089-.406 1.337-8.298 2.992-16.929 3.018h-.244a70.673 70.673 0 0 1-5.768-.264c-.735-1.69-1.591-3.159-2.581-4.37-2.301-2.813-5.017-3.44-7.088-3.84.573-1.441 1.248-2.667 2.04-3.634zm-19.446-25.32c1.598-1.65 3.707-2.478 6.192-2.466.017 0 .128.003.142.001 2.457-.008 4.552.818 6.154 2.478 2.167 2.244 3.266 5.795 3.095 10-.225 5.521-1.996 9.278-5.478 11.531-.976.716-1.055 2.181-1.052 3.72 0 2.693 2.175 4.908 5.819 5.926.534.15 1.112.261 1.717.377 1.971.376 4.01.764 5.799 2.95 1.992 2.436 3.416 6.127 4.22 10.88.003.035.013.126-.166.324-2.026 2.245-12.953 3.47-20.058 3.492h-.293c-7.11-.022-18.036-1.247-20.062-3.492-.145-.161-.166-.251-.168-.299.818-4.813 2.238-8.482 4.222-10.906 1.789-2.186 3.827-2.574 5.799-2.95.606-.116 1.183-.227 1.717-.377 3.643-1.018 5.818-3.233 5.818-6.025.003-1.439-.076-2.905-1.114-3.663-3.434-2.24-5.206-5.997-5.415-11.485-.162-4.218.943-7.776 3.112-10.016zm66.731.312c0 .136-.014.269-.04.397a2.176 2.176 0 0 1-.094.31c-.007.018-.01.038-.018.056a2.016 2.016 0 0 1-1.044 1.072l-.015.008a2.02 2.02 0 0 1-.338.109c-.017.004-.032.012-.049.015a2.002 2.002 0 0 1-.413.043 1.98 1.98 0 0 1-.682-.127c-.009-.003-.019-.005-.028-.009a1.996 1.996 0 0 1-.584-.349 1.98 1.98 0 0 1-.29-.303l-.006-.008a2.054 2.054 0 0 1-.204-.329c-.008-.015-.017-.029-.024-.044a1.99 1.99 0 0 1-.117-.333c-.007-.026-.018-.05-.024-.076a2.01 2.01 0 1 1 3.97-.432zM1.058 59.743a1.995 1.995 0 0 1-.391-1.182 2.01 2.01 0 0 1 4.02 0 2.004 2.004 0 0 1-1.494 1.935 2.004 2.004 0 0 1-.516.075 2.04 2.04 0 0 1-.452-.055c-.039-.009-.076-.024-.114-.035a2.122 2.122 0 0 1-.311-.119l-.098-.053a2.03 2.03 0 0 1-.294-.2c-.019-.016-.038-.03-.057-.047a2.113 2.113 0 0 1-.293-.319c.001 0 .001 0 0 0zM122 70.961c.01 16.293-6.325 31.616-17.84 43.145C92.646 125.635 77.332 131.99 61.038 132H61c-16.281.001-31.587-6.334-43.107-17.84C6.364 102.645.01 87.331 0 71.037a61.578 61.578 0 0 1 .764-9.705 3.347 3.347 0 0 0 1.913.601c.264 0 .519-.038.766-.096a58.866 58.866 0 0 0-.72 9.198c.009 15.567 6.08 30.198 17.094 41.198 11.005 10.991 25.63 17.044 41.183 17.044h.037c15.566-.01 30.197-6.081 41.197-17.094 11-11.014 17.053-25.653 17.043-41.219a58.9 58.9 0 0 0-.727-9.193c.313.096.638.163.982.163.631 0 1.215-.185 1.721-.488.493 3.135.745 6.323.747 9.515z"/>
</svg>
