<svg id="Layer_1" xmlns="http://www.w3.org/2000/svg" width="130" height="138.048">
  <path fill="#B6D806" d="M23.564 63.596l1.051.224c-.589 2.75-.905 5.583-.94 8.419l-1.075-.013c.037-2.908.361-5.811.964-8.63zm.242-1.06l1.044.252c.66-2.745 1.602-5.435 2.797-7.995l-.973-.454c-1.226 2.623-2.191 5.382-2.868 8.197zm0 20.468c.677 2.814 1.643 5.573 2.87 8.198l.972-.455c-1.196-2.56-2.138-5.25-2.799-7.994l-1.043.251zm-.241-1.061l1.05-.225c-.588-2.747-.905-5.58-.941-8.419l-1.075.014c.037 2.911.362 5.814.966 8.63zm84.199-.298l1.051.223c.599-2.821.919-5.725.95-8.632l-1.074-.012c-.031 2.836-.343 5.669-.927 8.421zm-3.017 9.034l.975.453c1.221-2.629 2.181-5.389 2.854-8.204l-1.044-.249c-.657 2.745-1.593 5.437-2.785 8zM9.472 102.065c.333.641.675 1.275 1.026 1.903l.938-.526c-.347-.617-.683-1.241-1.009-1.871l-.955.494zM9.853 45.1l-.963-.475c-.32.649-.628 1.304-.926 1.965l.98.441c.291-.65.595-1.293.909-1.931zM3.439 72.768c0-.673.01-1.343.033-2.012l-1.074-.035c-.022.68-.033 1.362-.033 2.046v.119h1.074v-.118zM5.34 92.079c.219.69.449 1.374.69 2.054l1.011-.36c-.237-.668-.463-1.341-.678-2.019l-1.023.325zm1.854 5.087c.277.666.564 1.327.861 1.981l.978-.445c-.293-.644-.574-1.293-.847-1.949l-.992.413zm-2.223-10.55l-1.047.237c.159.706.329 1.407.512 2.105l1.039-.272c-.179-.686-.347-1.376-.504-2.07zm7.436-46.193l-.919-.555c-.373.619-.737 1.245-1.089 1.877l.938.524c.346-.623.703-1.238 1.07-1.846zm18.533 85.556c.602.4 1.211.789 1.827 1.169l.564-.915c-.605-.373-1.205-.755-1.797-1.149l-.594.895zm14.557 7.18c.685.234 1.374.457 2.069.668l.313-1.027c-.682-.208-1.361-.428-2.033-.658l-.349 1.017zm-18.941-10.363c.567.449 1.14.888 1.721 1.318l.64-.863c-.572-.423-1.135-.856-1.693-1.297l-.668.842zm-14.398-16.04c.385.611.78 1.214 1.186 1.811l.888-.604c-.398-.586-.786-1.179-1.165-1.779l-.909.572zm28.285 24.426c.662.292 1.329.573 2.002.842l.401-.997c-.662-.265-1.319-.541-1.968-.829l-.435.984zm-25.208-19.976c.435.576.88 1.144 1.333 1.704l.835-.677c-.447-.551-.883-1.109-1.312-1.676l-.856.649zm3.441 4.175c.483.538.974 1.066 1.474 1.587l.774-.745c-.492-.511-.975-1.032-1.449-1.56l-.799.718zm3.782 3.873c.526.495 1.061.98 1.603 1.458l.709-.807c-.534-.469-1.059-.947-1.576-1.434l-.736.783zm13.121 9.529c.635.348 1.275.684 1.922 1.01l.483-.959c-.635-.321-1.264-.652-1.888-.993l-.517.942zm70.135-106.116c-.567-.449-1.141-.887-1.723-1.316l-.638.866c.573.421 1.137.852 1.695 1.293l.666-.843zm17.126 20.698c-.333-.64-.677-1.274-1.03-1.901l-.936.528c.347.616.685 1.24 1.013 1.869l.953-.496zm-4.773-5.889c.4.585.789 1.178 1.168 1.778l.909-.575c-.387-.61-.783-1.212-1.189-1.808l-.888.605zm-4.458-7.41c-.483-.537-.976-1.065-1.477-1.585l-.772.746c.493.511.976 1.03 1.452 1.557l.797-.718zM101.325 19.49c-.602-.399-1.212-.787-1.829-1.166l-.562.916c.606.372 1.205.754 1.799 1.146l.592-.896zm-4.644-2.794c-.635-.346-1.276-.681-1.923-1.006l-.483.96c.637.319 1.267.649 1.892.989l.514-.943zm32.151 52.636l1.072-.058c-.039-.724-.089-1.444-.152-2.161l-1.07.093c.061.706.111 1.414.15 2.126zM91.813 14.305c-.663-.29-1.33-.57-2.003-.839l-.399.998c.662.264 1.319.539 1.969.825l.433-.984zm36.509 49.728l1.064-.148c-.1-.717-.212-1.431-.336-2.141l-1.058.185c.123.697.233 1.399.33 2.104zm-3.197-15.774c-.278-.666-.565-1.326-.863-1.979l-.978.446c.294.643.577 1.293.851 1.948l.99-.415zm2.24 10.538l1.047-.237c-.159-.706-.332-1.408-.516-2.105l-1.039.275c.18.684.35 1.373.508 2.067zm-.377-5.461c-.22-.689-.452-1.373-.695-2.052l-1.011.361c.238.667.466 1.34.682 2.018l1.024-.327zM49.692 12.213l-.283-1.037c-.697.19-1.391.391-2.079.604l.317 1.026c.677-.208 1.359-.405 2.045-.593zM4.376 56.81l1.041.269c.177-.689.366-1.373.567-2.053l-1.03-.304c-.206.69-.396 1.387-.578 2.088zm3.329-6.829l-1.001-.39c-.262.674-.514 1.353-.754 2.038l1.013.356c.236-.673.484-1.341.742-2.004zm47.179-38.942l-.194-1.057c-.712.13-1.421.271-2.125.423l.229 1.05c.692-.15 1.388-.289 2.09-.416zM2.454 76.135c.037.724.086 1.445.148 2.161l1.07-.091c-.06-.705-.109-1.413-.146-2.125l-1.072.055zm1.408-10.687l-1.068-.125c-.083.716-.154 1.434-.213 2.156l1.07.088c.059-.71.128-1.416.211-2.119zm-.611-3.341l1.06.177c.118-.702.248-1.4.389-2.093l-1.053-.215c-.144.706-.276 1.417-.396 2.131zm78.301-51.293c-.701-.174-1.404-.335-2.112-.485l-.222 1.051c.696.147 1.388.306 2.076.476l.258-1.042zm5.203 1.525c-.684-.233-1.374-.455-2.07-.665l-.311 1.028c.683.207 1.361.424 2.034.654l.347-1.017zm-26.601-2.03l-.102-1.069c-.72.069-1.437.15-2.152.242l.138 1.065c.702-.09 1.407-.17 2.116-.238zm16.09-.57c-.711-.113-1.426-.214-2.144-.303l-.132 1.066c.706.088 1.41.187 2.109.297l.167-1.06zm-10.776.289l-.013-1.074c-.724.008-1.445.028-2.163.06l.048 1.073c.707-.031 1.417-.051 2.128-.059zm5.399-.909c-.719-.052-1.438-.093-2.162-.121l-.042 1.073c.711.028 1.421.067 2.127.119l.077-1.071zM109.819 26.2c-.527-.494-1.062-.979-1.606-1.455l-.707.808c.534.468 1.061.945 1.579 1.431l.734-.784zm7.127 83.451l.869.632c.425-.584.841-1.176 1.246-1.775l-.89-.602c-.398.589-.806 1.17-1.225 1.745zm2.95-4.438l.919.558c.376-.619.74-1.244 1.093-1.876l-.938-.525c-.347.621-.705 1.235-1.074 1.843zm-9.917 12.482l.751.769c.517-.505 1.026-1.017 1.525-1.538l-.776-.744c-.491.513-.991 1.017-1.5 1.513zm12.481-17.155l.963.476c.321-.648.631-1.302.93-1.962l-.98-.443c-.293.649-.599 1.292-.913 1.929zm-8.828 13.281l.812.704c.474-.547.938-1.101 1.391-1.662l-.835-.677c-.447.553-.902 1.097-1.368 1.635zM127.64 85.46l1.053.216c.145-.706.278-1.416.4-2.129l-1.06-.18c-.119.702-.25 1.399-.393 2.093zm-76.943 49.234c.7.174 1.404.337 2.111.488l.225-1.051c-.697-.148-1.388-.308-2.075-.479l-.261 1.042zm79.302-62.17h-1.074l.001.244c0 .712-.012 1.423-.036 2.129l1.074.037c.024-.719.036-1.441.036-2.173l-.001-.237zm-1.509 7.682l1.066.126c.085-.715.158-1.434.218-2.156l-1.07-.089c-.06.709-.131 1.415-.214 2.119zm-2.141 10.417l1.03.304c.205-.691.398-1.386.58-2.086l-1.041-.27c-.178.689-.369 1.373-.569 2.052zm-20.332 30.624l.682.83c.558-.459 1.107-.927 1.648-1.404l-.709-.806c-.533.469-1.073.929-1.621 1.38zm18.6-25.584l1.001.392c.264-.674.517-1.352.759-2.036l-1.013-.358c-.238.673-.487 1.34-.747 2.002zm-52.524 39.573l.101 1.07c.721-.068 1.438-.147 2.153-.238l-.136-1.066c-.703.09-1.408.168-2.118.234zm-5.314.273l.01 1.074c.724-.007 1.445-.026 2.163-.057l-.046-1.073c-.706.03-1.416.049-2.127.056zm15.781-2.157l.281 1.038c.698-.189 1.392-.389 2.08-.6l-.315-1.027c-.677.207-1.359.403-2.046.589zm19.21-8.902l.611.883c.594-.41 1.18-.83 1.759-1.258l-.64-.863c-.568.421-1.146.834-1.73 1.238zm-40.392 11.958c.719.053 1.438.095 2.162.124l.044-1.073c-.711-.029-1.421-.07-2.127-.122l-.079 1.071zm-5.375-.63c.709.114 1.425.216 2.143.307l.134-1.066c-.706-.089-1.409-.189-2.108-.302l-.169 1.061zm36.546-6.06l.451.975c.655-.303 1.303-.617 1.945-.942l-.485-.959c-.631.319-1.269.628-1.911.926zm-4.913 2.03l.367 1.009c.681-.248 1.354-.506 2.023-.775l-.401-.997c-.658.265-1.321.52-1.989.763zm9.633-4.467l.533.933c.627-.359 1.247-.727 1.86-1.105l-.564-.914c-.602.371-1.212.733-1.829 1.086zM6.024 79.95c.667.666 1.034 1.552 1.036 2.495.001.943-.366 1.83-1.032 2.496-.666.667-1.553 1.035-2.496 1.036H3.53c-1.945 0-3.528-1.582-3.529-3.527-.001-1.946 1.581-3.531 3.528-3.532h.002c.942 0 1.827.366 2.493 1.032zm-.039 2.496c0-.656-.256-1.273-.721-1.736-.463-.463-1.08-.718-1.734-.718h-.002c-1.353.001-2.455 1.103-2.454 2.457 0 .656.256 1.272.721 1.736.464.463 1.08.718 1.734.718h.002c.656-.001 1.273-.256 1.736-.72.463-.465.718-1.081.718-1.737zm107.428-51.285c.666-.667 1.553-1.035 2.496-1.036h.002c.942 0 1.828.367 2.494 1.032.667.666 1.034 1.552 1.036 2.495.001 1.946-1.581 3.531-3.528 3.532h-.002c-.942 0-1.828-.367-2.494-1.032-.667-.666-1.034-1.552-1.036-2.495-.002-.943.366-1.829 1.032-2.496zm.042 2.496c0 .656.256 1.273.721 1.736.463.463 1.08.718 1.734.718h.002c1.353-.001 2.455-1.103 2.454-2.457 0-.656-.256-1.272-.721-1.736-.464-.463-1.08-.718-1.734-.718h-.002c-.656.001-1.273.256-1.736.72-.463.464-.718 1.081-.718 1.737zM82.033 134.515c.001 1.947-1.581 3.531-3.527 3.533h-.002c-1.945 0-3.528-1.582-3.529-3.527-.001-1.947 1.581-3.531 3.527-3.533h.001c1.944 0 3.528 1.582 3.53 3.527zm-1.075.001c-.001-1.353-1.103-2.454-2.456-2.454h-.001c-1.353.001-2.454 1.103-2.453 2.457.001 1.353 1.103 2.454 2.455 2.454h.002c1.354 0 2.454-1.103 2.453-2.457zm41.023-80.908l-12.698 12.697c.294 1.979.46 3.983.481 5.989l-1.074.011c-.017-1.684-.16-3.363-.377-5.03l-8.3 8.3V98.5c1.636-2.145 3.076-4.449 4.274-6.862l.962.477c-1.287 2.594-2.841 5.069-4.618 7.357l-.618-.48v18.446H32.351V99.079l-.574.448c-1.78-2.284-3.338-4.756-4.631-7.348l.962-.48c1.192 2.391 2.623 4.673 4.243 6.799V47.037c-1.62 2.129-3.051 4.409-4.24 6.797l-.962-.479c1.291-2.589 2.848-5.062 4.63-7.35l.572.446V43.52c-2.109.664-4.351 1.029-6.68 1.029-12.309 0-22.274-9.975-22.274-22.274C3.397 9.975 13.362 0 25.671 0 37.97 0 47.936 9.975 47.936 22.274c0 2.015-.274 3.966-.776 5.823h38.627l14.227 14.446v4.004l.619-.481c1.779 2.292 3.332 4.767 4.617 7.357l-.962.478c-1.197-2.411-2.638-4.715-4.274-6.864v14.081l5.19-5.19c-.152-.359-.294-.722-.458-1.075l.974-.453c.108.233.203.471.306.706l8.727-8.727c1.286-1.286 3.809.067 5.61 1.866 1.609 1.611 3 3.982 1.618 5.363zM87.042 41.211l8.649.006-8.643-8.776-.006 8.77zM25.671 42.4c4.209 0 8.242-1.289 11.662-3.727.367-.262.804-.399 1.247-.399.16 0 .321.018.48.054l5.204 1.193-1.578-5.129c-.18-.586-.102-1.222.217-1.747 1.887-3.109 2.884-6.695 2.884-10.371 0-11.097-9.024-20.126-20.116-20.126-11.097 0-20.126 9.028-20.126 20.126S14.574 42.4 25.671 42.4zm72.193 35.325l-.84.84-10.651 3.6 1.829-5.796-10.281.017v-2.149l10.96-.018.909-2.88.093-.093 7.981-7.981V43.423l-.088-.089-12.853-.008.008-13.033-.046-.047H46.453c-.472 1.226-1.039 2.405-1.713 3.514l2.673 8.687-8.832-2.024c-1.267.903-2.637 1.667-4.081 2.292v47.157l.472-.001.002 1.074-.474.001v24.342h63.365V90.873l-.579.001-.002-1.074.581-.001V77.725zm-1.499-1.357c-.372-.794-1.362-1.467-2.353-1.601l-.44-.06-.024-.443c-.051-.925-.908-1.808-1.687-2.169-.225-.104-.753-.287-1.154-.091l-1.738 5.505 1.976 1.976 5.406-1.827c.208-.415.221-.847.014-1.29zm23.237-27.364c-1.615-1.615-3.491-2.468-4.091-1.866l-9.147 9.147c-.148.31-.524.705-.679.679L91.73 70.92c.191.048.386.109.583.201.949.439 1.992 1.431 2.251 2.659 1.198.292 2.303 1.127 2.774 2.133.095.203.162.409.204.616l23.68-23.68c.73-.73-.263-2.487-1.62-3.845zM35.939 29.24c-.436-.578-.981-1.297-2.068-1.297-1.086 0-1.629.719-2.066 1.297-.421.557-.684.871-1.211.871s-.791-.315-1.212-.871c-.436-.578-.98-1.297-2.067-1.297-1.088 0-1.632.72-2.069 1.298-.421.556-.685.871-1.212.871s-.791-.315-1.212-.871c-.436-.578-.981-1.298-2.069-1.298s-1.634.719-2.071 1.297c-.422.557-.686.871-1.215.871s-.793-.315-1.215-.871c-.437-.578-.983-1.297-2.071-1.297v1.074c.529 0 .793.315 1.215.871.437.578.983 1.297 2.071 1.297s1.634-.719 2.071-1.297c.422-.557.686-.871 1.215-.871.528 0 .791.315 1.213.871.436.578.981 1.297 2.068 1.297s1.631-.719 2.068-1.297c.422-.557.685-.871 1.213-.871.527 0 .79.315 1.21.871.437.578.982 1.298 2.069 1.298s1.63-.72 2.068-1.298c.42-.556.683-.871 1.209-.871.527 0 .791.315 1.212.871.436.578.981 1.297 2.068 1.297v-1.074c-.527 0-.791-.315-1.212-.871zm0-14.018c-.436-.578-.981-1.297-2.068-1.297-1.086 0-1.629.719-2.066 1.297-.421.557-.684.871-1.211.871s-.791-.315-1.212-.871c-.436-.578-.98-1.297-2.067-1.297-1.088 0-1.632.72-2.069 1.298-.421.556-.685.871-1.212.871s-.791-.315-1.212-.871c-.436-.578-.981-1.298-2.069-1.298s-1.634.719-2.071 1.297c-.422.557-.686.871-1.215.871s-.793-.315-1.215-.871c-.437-.578-.983-1.297-2.071-1.297v1.074c.529 0 .793.315 1.215.871.437.578.983 1.297 2.071 1.297s1.634-.719 2.071-1.297c.422-.557.686-.871 1.215-.871.528 0 .791.315 1.213.871.436.578.981 1.297 2.068 1.297s1.631-.719 2.068-1.297c.422-.557.685-.871 1.213-.871.527 0 .79.315 1.21.871.437.578.982 1.298 2.069 1.298s1.63-.72 2.068-1.298c.42-.556.683-.871 1.209-.871.527 0 .791.315 1.212.871.436.578.981 1.297 2.068 1.297v-1.074c-.527.001-.791-.314-1.212-.871zm0 7.009c-.436-.578-.981-1.297-2.068-1.297-1.086 0-1.629.719-2.066 1.297-.421.557-.684.871-1.211.871s-.791-.315-1.212-.871c-.436-.578-.98-1.297-2.067-1.297-1.088 0-1.632.72-2.069 1.298-.421.556-.685.871-1.212.871s-.791-.315-1.212-.871c-.436-.578-.981-1.298-2.069-1.298s-1.634.719-2.071 1.297c-.422.557-.686.871-1.215.871s-.793-.315-1.215-.871c-.437-.578-.983-1.297-2.071-1.297v1.074c.529 0 .793.315 1.215.871.437.578.983 1.297 2.071 1.297s1.634-.719 2.071-1.297c.422-.557.686-.871 1.215-.871.528 0 .791.315 1.213.871.436.578.981 1.297 2.068 1.297s1.631-.719 2.068-1.297c.422-.557.685-.871 1.213-.871.527 0 .79.315 1.21.871.437.578.982 1.298 2.069 1.298s1.63-.72 2.068-1.298c.42-.556.683-.871 1.209-.871.527 0 .791.315 1.212.871.436.578.981 1.297 2.068 1.297v-1.074c-.527.001-.791-.314-1.212-.871zm22.644 28.404v-2.149l-15.464.026.004 2.149 15.46-.026zm30.444-2.199l-28.295.048v2.149l28.3-.048-.005-2.149zm-13.254 6.468v2.149l13.259-.022-.004-2.149-13.255.022zm-2.149 2.152v-2.149l-30.505.051.004 2.149 30.501-.051zm-7.52 6.459v-2.149l-22.984.039.004 2.149 22.98-.039zm2.148-2.153v2.149l20.779-.035-.004-2.149-20.775.035zm-7.52 6.459v2.149l28.3-.048-.004-2.149-28.296.048zm-2.149 2.152v-2.149l-15.464.026.004 2.149 15.46-.026zm17.19 6.418v-2.149l-32.653.055.004 2.149 32.649-.055zm16.138 13.414l.002 1.074 2.149-.003-.002-1.074-2.149.003zm-3.221 1.078l-.002-1.074-2.149.003.002 1.074 2.149-.003zm-5.371.007l-.002-1.074-2.149.003.002 1.074 2.149-.003zm-7.521.009l2.149-.003-.002-1.074-2.149.003.002 1.074zm-10.743.012l2.149-.003-.002-1.074-2.149.003.002 1.074zm-26.86-1.043l.002 1.074 2.149-.003-.002-1.074-2.149.003zm32.232 1.037l2.149-.003-.002-1.074-2.149.003.002 1.074zm-24.712-1.046l-2.149.003.002 1.074 2.149-.003-.002-1.074zm5.372-.006l-2.149.003.002 1.074 2.149-.003-.002-1.074zm8.596 1.064l2.149-.003-.002-1.074-2.149.003.002 1.074zm-4.323 13.441v2.149l33.671-.057-.004-2.149-33.667.057zm-12.236 2.169l10.088-.017v-2.149l-10.092.017.004 2.149zm11.913-15.069l-3.16 1.279c.638.337 1.112.841 1.357 1.476.336.868.207 1.849-.377 2.757-.537.837-1.407 1.521-2.45 1.923-1.041.404-2.144.483-3.106.226-1.038-.277-1.798-.911-2.133-1.783-.122-.316-.184-.645-.183-.981 0-.589.188-1.198.56-1.776.537-.837 1.407-1.521 2.45-1.923.144-.056.291-.091.438-.134l-.01-.009s1.92-.918 4.417-2.112c-2.286-1.099-4.055-1.95-4.324-2.079-.147-.044-.295-.079-.44-.135-1.822-.709-3.001-2.248-3-3.727 0-.325.058-.646.179-.957.668-1.72 3.021-2.415 5.244-1.55 1.04.404 1.909 1.088 2.447 1.926.579.905.712 1.882.373 2.757-.245.634-.72 1.137-1.358 1.473l3.066 1.245c2.55-1.219 5.283-2.525 7.1-3.394 2.364-1.13 4.575.778 4.575.778l-9.075 3.671 9.149 3.715s-2.213 1.906-4.576.773c-1.827-.875-4.591-2.202-7.163-3.439zm-3-5.32c.058-.15.087-.312.088-.477 0-.333-.115-.687-.339-1.039-.38-.595-1.015-1.087-1.786-1.387-1.49-.579-3.076-.227-3.463.767-.378.997.548 2.321 2.038 2.903.771.3 1.571.363 2.255.182.603-.162 1.032-.498 1.207-.949zm-1.292 7.621c-.684-.182-1.482-.12-2.254.179-.771.299-1.407.79-1.788 1.385-.34.529-.426 1.07-.254 1.516.174.452.603.788 1.207.95.684.182 1.482.12 2.253-.179.771-.299 1.407-.79 1.788-1.385.225-.351.34-.706.341-1.036 0-.167-.03-.329-.087-.479-.173-.452-.602-.789-1.206-.951zm4.336-2.76c.315 0 .571-.255.571-.57 0-.315-.255-.571-.57-.571-.315 0-.571.255-.571.57-.001.315.255.571.57.571z"/>
</svg>
