<svg data-name="Layer 1" xmlns="http://www.w3.org/2000/svg" viewBox="0 0 200 200">
    <path d="M197.81 60.16s-1.95-13.75-7.93-19.8c-7.59-7.95-16.09-8-20-8.45-27.92-2-69.8-2-69.8-2H100s-41.88 0-69.8 2c-3.9.47-12.4.5-20 8.45-6 6.05-7.93 19.8-7.93 19.8a301.72 301.72 0 0 0-2 32.29v15.14a301.72 301.72 0 0 0 2 32.29s1.95 13.75 7.93 19.8c7.59 7.95 17.56 7.7 22 8.53 16 1.53 67.83 2 67.83 2s41.92-.06 69.84-2.08c3.9-.47 12.4-.5 20-8.45 6-6.05 7.93-19.8 7.93-19.8a302.16 302.16 0 0 0 2-32.29V92.45a302.15 302.15 0 0 0-1.99-32.29zM79.45 125.93V69.87L133.35 98z" fill="#999999"/>
</svg>
