<svg xmlns="http://www.w3.org/2000/svg" viewBox="0 0 257.7 104.2">
    <path d="M58.1 6.3h-4.6L8.2 72.1v4.3h44.4V98h5.5V76.4h14.4v-5.1H58.1v-65zm-5.4 65H15.1L52.7 17v54.3zm186.9 0v-65h-4.5l-45.4 65.8v4.3h44.4V98h5.5V76.4H254v-5.1h-14.4zm-5.4 0h-37.6L234.2 17v54.3zM130.4 4.9c-26.6 0-48.3 21.7-48.3 48.3s21.7 48.3 48.3 48.3 48.3-21.7 48.3-48.3c0-26.7-21.6-48.3-48.3-48.3zm0 91.6c-23.9 0-43.3-19.4-43.3-43.3.1-24 19.4-43.3 43.3-43.3s43.3 19.4 43.3 43.3-19.4 43.3-43.3 43.3z" fill="#d8d5c8"/>
    <path d="M126.2 93.9c-23.8 0-43.3-19.4-43.3-43.3s19.5-43.3 43.3-43.3 43.3 19.5 43.3 43.3-19.3 43.3-43.3 43.3z" fill="#ffed00"/>
    <path d="M111.74 9.8c-.169.06-.34.117-.508.179.023-.026.046-.056.07-.079.1 0 .3-.1.4-.1h.038zM91.302 76.2c.3.5.7.9 1 1.3.004-.004.006-.012.01-.016a42.68 42.68 0 0 1-.995-1.293c-.005.005-.01.004-.015.009zm-6.1-11.5l.6 1.5c.009.002.015-.002.024-.001a44.2 44.2 0 0 1-.56-1.529c-.021.011-.043.019-.064.03zm34.4-56.9l.001.005c.111-.017.224-.028.336-.044-.113.013-.218.019-.337.039zm-25.8 71.5c.099.099.199.203.298.304-.095-.104-.184-.214-.277-.319-.007.006-.014.008-.021.015zm69.1-51.6c0 .005-.004.011-.005.016.051.081.105.16.155.242-.05-.086-.107-.172-.15-.258zm-30-19.9c-.6-.1-1.1-.2-1.7-.2v.001c.568.066 1.134.136 1.695.224 0-.009.005-.016.005-.025zm23 11.3c-.2-.2-.4-.4-.7-.6h-.033c.249.225.489.46.733.69v-.09zm-6.1-4.8c-.4-.3-.9-.6-1.3-.8v.036c.421.255.833.525 1.245.794l.055-.03zm2 1.4c-.015.005-.027.016-.041.022.113.083.228.161.34.245-.1-.088-.199-.167-.299-.267zm-39.2 76l.002-.007-.217-.073c.071.026.148.053.215.08zm-17.6-11.1l.02-.021c-.149-.154-.298-.308-.444-.465.141.156.283.309.424.486zm45.7-70.8c.1 0 .2.1.3.1 0 0-.2-.1-.3-.1zm-40.9 75.1c.4.3.9.7 1.3 1v-.067a42.056 42.056 0 0 1-1.276-.946l-.024.013zm21.2 8.7l-.075-.034c-.274-.034-.548-.066-.82-.105M161.502 25.6c-.204-.272-.421-.583-.657-.885.222.295.43.6.644.901.004-.005.01-.01.013-.016zm-77.6 31.2c0-.4-.3-.7-.6-.8.1.5.1 1 .2 1.5.2-.1.4-.4.4-.7zm0-5.8c0-.5-.4-.9-.9-.9v1.8c.5 0 .9-.4.9-.9zm0-5.7c0-.3-.2-.6-.5-.8-.1.5-.2 1.1-.2 1.6.3-.1.7-.4.7-.8zm2.9 14.4a.9.9 0 1 0-1.8 0 .9.9 0 0 0 1.8 0zm0-5.8a.9.9 0 1 0-1.8 0 .9.9 0 0 0 1.8 0zm0-5.7a.9.9 0 1 0-1.8 0 .9.9 0 0 0 1.8 0zm0-5.8a.9.9 0 1 0-1.8 0 .9.9 0 0 0 1.8 0zm0-5.8c0-.5-.4-.9-.9-.9-.1 0-.2 0-.3.1-.1.4-.3.8-.4 1.2.1.3.3.5.7.5.5 0 .9-.4.9-.9zm2.8 31.7a.9.9 0 1 0-1.8 0 .9.9 0 0 0 1.8 0zm0-5.7a.9.9 0 1 0-1.8 0 .9.9 0 0 0 1.8 0zm0-5.8a.9.9 0 1 0-1.8 0 .9.9 0 0 0 1.8 0zm0-5.8a.9.9 0 1 0-1.8 0 .9.9 0 0 0 1.8 0zm0-5.7a.9.9 0 1 0-1.8 0 .9.9 0 0 0 1.8 0zm0-5.8a.9.9 0 1 0-1.8 0 .9.9 0 0 0 1.8 0zm0-5.8a.9.9 0 1 0-1.8 0 .9.9 0 0 0 1.8 0zm0-5.7c0-.1 0-.2-.1-.3-.3.4-.5.8-.7 1.2.5-.1.8-.5.8-.9zm2.9 43.2a.9.9 0 1 0-1.8 0 .9.9 0 0 0 1.8 0zm0-5.8a.9.9 0 1 0-1.8 0 .9.9 0 0 0 1.8 0zm0-5.7a.9.9 0 1 0-1.8 0 .9.9 0 0 0 1.8 0zm0-5.8a.9.9 0 1 0-1.8 0 .9.9 0 0 0 1.8 0zm0-5.7a.9.9 0 1 0-1.8 0 .9.9 0 0 0 1.8 0zm0-5.8a.9.9 0 1 0-1.8 0 .9.9 0 0 0 1.8 0zm0-5.8a.9.9 0 1 0-1.8 0 .9.9 0 0 0 1.8 0zm0-5.7a.9.9 0 1 0-1.8 0 .9.9 0 0 0 1.8 0zm0-5.8c0-.4-.3-.7-.6-.8-.3.4-.7.9-1 1.3.2.2.4.4.7.4.5 0 .9-.4.9-.9zm2.9 49a.9.9 0 1 0-1.8 0 .9.9 0 0 0 1.8 0zm0-5.8a.9.9 0 1 0-1.8 0 .9.9 0 0 0 1.8 0zm0-5.7a.9.9 0 1 0-1.8 0 .9.9 0 0 0 1.8 0zm0-5.8a.9.9 0 1 0-1.8 0 .9.9 0 0 0 1.8 0zm0-5.8a.9.9 0 1 0-1.8 0 .9.9 0 0 0 1.8 0zm0-5.7a.9.9 0 1 0-1.8 0 .9.9 0 0 0 1.8 0zm0-5.8a.9.9 0 1 0-1.8 0 .9.9 0 0 0 1.8 0zm0-5.8a.9.9 0 1 0-1.8 0 .9.9 0 0 0 1.8 0zm0-5.7a.9.9 0 1 0-1.8 0 .9.9 0 0 0 1.8 0zm2.9 54.7c0-.5-.4-.9-.9-.9-.3 0-.6.2-.7.4.4.4.8.8 1.3 1.1.1-.1.3-.3.3-.6zm0-5.7a.9.9 0 1 0-1.8 0 .9.9 0 0 0 1.8 0zm0-5.8a.9.9 0 1 0-1.8 0 .9.9 0 0 0 1.8 0zm0-5.8a.9.9 0 1 0-1.8 0 .9.9 0 0 0 1.8 0zm0-5.7a.9.9 0 1 0-1.8 0 .9.9 0 0 0 1.8 0zm0-5.8a.9.9 0 1 0-1.8 0 .9.9 0 0 0 1.8 0zm0-5.7a.9.9 0 1 0-1.8 0 .9.9 0 0 0 1.8 0zm0-5.8a.9.9 0 1 0-1.8 0 .9.9 0 0 0 1.8 0zm0-5.8a.9.9 0 1 0-1.8 0 .9.9 0 0 0 1.8 0zm0-5.7a.9.9 0 1 0-1.8 0 .9.9 0 0 0 1.8 0zm0-5.8a.9.9 0 1 0-1.8 0 .9.9 0 0 0 1.8 0zm2.9 54.8a.9.9 0 1 0-1.8 0 .9.9 0 0 0 1.8 0zm0-5.8a.9.9 0 1 0-1.8 0 .9.9 0 0 0 1.8 0zm0-5.8a.9.9 0 1 0-1.8 0 .9.9 0 0 0 1.8 0zm0-5.7a.9.9 0 1 0-1.8 0 .9.9 0 0 0 1.8 0zm0-5.8a.9.9 0 1 0-1.8 0 .9.9 0 0 0 1.8 0zm0-5.8a.9.9 0 1 0-1.8 0 .9.9 0 0 0 1.8 0zm0-5.7a.9.9 0 1 0-1.8 0 .9.9 0 0 0 1.8 0zm0-5.8a.9.9 0 1 0-1.8 0 .9.9 0 0 0 1.8 0zm0-5.8a.9.9 0 1 0-1.8 0 .9.9 0 0 0 1.8 0zm0-5.7a.9.9 0 1 0-1.8 0 .9.9 0 0 0 1.8 0zm0-5.8a.9.9 0 1 0-1.8 0 .9.9 0 0 0 1.8 0zm2.8 60.5a.9.9 0 1 0-1.8 0 .9.9 0 0 0 1.8 0zm0-5.7a.9.9 0 1 0-1.8 0 .9.9 0 0 0 1.8 0zm0-5.8a.9.9 0 1 0-1.8 0 .9.9 0 0 0 1.8 0zm0-5.8a.9.9 0 1 0-1.8 0 .9.9 0 0 0 1.8 0zm0-5.7a.9.9 0 1 0-1.8 0 .9.9 0 0 0 1.8 0zm0-5.8a.9.9 0 1 0-1.8 0 .9.9 0 0 0 1.8 0zm0-5.7a.9.9 0 1 0-1.8 0 .9.9 0 0 0 1.8 0zm0-5.8a.9.9 0 1 0-1.8 0 .9.9 0 0 0 1.8 0zm0-5.8a.9.9 0 1 0-1.8 0 .9.9 0 0 0 1.8 0zm0-5.7a.9.9 0 1 0-1.8 0 .9.9 0 0 0 1.8 0zm0-5.8a.9.9 0 1 0-1.8 0 .9.9 0 0 0 1.8 0zm0-5.8a.9.9 0 1 0-1.8 0 .9.9 0 0 0 1.8 0zm0-5.8c-.4.3-.9.5-1.3.8.1.1.3.1.5.1.4.1.8-.3.8-.8v-.1zm2.9 72.1a.9.9 0 1 0-1.8 0 .9.9 0 0 0 1.8 0zm0-5.7a.9.9 0 1 0-1.8 0 .9.9 0 0 0 1.8 0zm0-5.8a.9.9 0 1 0-1.8 0 .9.9 0 0 0 1.8 0zm0-5.8a.9.9 0 1 0-1.8 0 .9.9 0 0 0 1.8 0zm0-5.7a.9.9 0 1 0-1.8 0 .9.9 0 0 0 1.8 0zm0-5.8a.9.9 0 1 0-1.8 0 .9.9 0 0 0 1.8 0zm0-5.8a.9.9 0 1 0-1.8 0 .9.9 0 0 0 1.8 0zm0-5.7a.9.9 0 1 0-1.8 0 .9.9 0 0 0 1.8 0zm0-5.8a.9.9 0 1 0-1.8 0 .9.9 0 0 0 1.8 0zm0-5.8a.9.9 0 1 0-1.8 0 .9.9 0 0 0 1.8 0zm0-5.7a.9.9 0 1 0-1.8 0 .9.9 0 0 0 1.8 0zm0-5.8a.9.9 0 1 0-1.8 0 .9.9 0 0 0 1.8 0zm0-5.7a.9.9 0 1 0-1.8 0 .9.9 0 0 0 1.8 0zm2.9 72a.9.9 0 1 0-1.8 0 .9.9 0 0 0 1.8 0zm0-5.8a.9.9 0 1 0-1.8 0 .9.9 0 0 0 1.8 0zm0-5.7a.9.9 0 1 0-1.8 0 .9.9 0 0 0 1.8 0zm0-5.8a.9.9 0 1 0-1.8 0 .9.9 0 0 0 1.8 0zm0-5.8a.9.9 0 1 0-1.8 0 .9.9 0 0 0 1.8 0zm0-5.7a.9.9 0 1 0-1.8 0 .9.9 0 0 0 1.8 0zm0-5.8a.9.9 0 1 0-1.8 0 .9.9 0 0 0 1.8 0zm0-5.7a.9.9 0 1 0-1.8 0 .9.9 0 0 0 1.8 0zm0-5.8a.9.9 0 1 0-1.8 0 .9.9 0 0 0 1.8 0zm0-5.8a.9.9 0 1 0-1.8 0 .9.9 0 0 0 1.8 0zm0-5.7a.9.9 0 1 0-1.8 0 .9.9 0 0 0 1.8 0zm0-5.8a.9.9 0 1 0-1.8 0 .9.9 0 0 0 1.8 0zm0-5.8a.9.9 0 1 0-1.8 0 .9.9 0 0 0 1.8 0zm0-5.7a.9.9 0 1 0-1.8 0 .9.9 0 0 0 1.8 0zm2.9 72a.9.9 0 1 0-1.8 0 .9.9 0 0 0 1.8 0zm0-5.7a.9.9 0 1 0-1.8 0 .9.9 0 0 0 1.8 0zm0-5.8a.9.9 0 1 0-1.8 0 .9.9 0 0 0 1.8 0zm0-5.8a.9.9 0 1 0-1.8 0 .9.9 0 0 0 1.8 0zm0-5.7a.9.9 0 1 0-1.8 0 .9.9 0 0 0 1.8 0zm0-5.8a.9.9 0 1 0-1.8 0 .9.9 0 0 0 1.8 0zm0-5.8a.9.9 0 1 0-1.8 0 .9.9 0 0 0 1.8 0zm0-5.7a.9.9 0 1 0-1.8 0 .9.9 0 0 0 1.8 0zm0-5.8a.9.9 0 1 0-1.8 0 .9.9 0 0 0 1.8 0zm0-5.8a.9.9 0 1 0-1.8 0 .9.9 0 0 0 1.8 0zm0-5.7a.9.9 0 1 0-1.8 0 .9.9 0 0 0 1.8 0zm0-5.8a.9.9 0 1 0-1.8 0 .9.9 0 0 0 1.8 0zm0-5.7a.9.9 0 1 0-1.8 0 .9.9 0 0 0 1.8 0zm2.9 72a.9.9 0 1 0-1.8 0 .9.9 0 0 0 1.8 0zm0-5.8a.9.9 0 1 0-1.8 0 .9.9 0 0 0 1.8 0zm0-5.7a.9.9 0 1 0-1.8 0 .9.9 0 0 0 1.8 0zm0-5.8a.9.9 0 1 0-1.8 0 .9.9 0 0 0 1.8 0zm0-5.8a.9.9 0 1 0-1.8 0 .9.9 0 0 0 1.8 0zm0-5.7a.9.9 0 1 0-1.8 0 .9.9 0 0 0 1.8 0zm0-5.8a.9.9 0 1 0-1.8 0 .9.9 0 0 0 1.8 0zm0-5.7a.9.9 0 1 0-1.8 0 .9.9 0 0 0 1.8 0zm0-5.8a.9.9 0 1 0-1.8 0 .9.9 0 0 0 1.8 0zm0-5.8a.9.9 0 1 0-1.8 0 .9.9 0 0 0 1.8 0zm0-5.7a.9.9 0 1 0-1.8 0 .9.9 0 0 0 1.8 0zm0-5.8a.9.9 0 1 0-1.8 0 .9.9 0 0 0 1.8 0zm0-5.8a.9.9 0 1 0-1.8 0 .9.9 0 0 0 1.8 0zm0-5.7a.9.9 0 1 0-1.8 0 .9.9 0 0 0 1.8 0zm2.9 77.8a.9.9 0 1 0-1.8 0 .9.9 0 0 0 1.8 0zm0-5.8a.9.9 0 1 0-1.8 0 .9.9 0 0 0 1.8 0zm0-5.7a.9.9 0 1 0-1.8 0 .9.9 0 0 0 1.8 0zm0-5.8a.9.9 0 1 0-1.8 0 .9.9 0 0 0 1.8 0zm0-5.8a.9.9 0 1 0-1.8 0 .9.9 0 0 0 1.8 0zm0-5.7a.9.9 0 1 0-1.8 0 .9.9 0 0 0 1.8 0zm0-5.8a.9.9 0 1 0-1.8 0 .9.9 0 0 0 1.8 0zm0-5.8a.9.9 0 1 0-1.8 0 .9.9 0 0 0 1.8 0zm0-5.7a.9.9 0 1 0-1.8 0 .9.9 0 0 0 1.8 0zm0-5.8a.9.9 0 1 0-1.8 0 .9.9 0 0 0 1.8 0zm0-5.8a.9.9 0 1 0-1.8 0 .9.9 0 0 0 1.8 0zm0-5.7a.9.9 0 1 0-1.8 0 .9.9 0 0 0 1.8 0zm0-5.8a.9.9 0 1 0-1.8 0 .9.9 0 0 0 1.8 0zm0-5.7a.9.9 0 1 0-1.8 0 .9.9 0 0 0 1.8 0zm0-5.8a.9.9 0 1 0-1.8 0 .9.9 0 0 0 1.8 0zm2.8 77.8a.9.9 0 1 0-1.8 0 .9.9 0 0 0 1.8 0zm0-5.8a.9.9 0 1 0-1.8 0 .9.9 0 0 0 1.8 0zm0-5.7a.9.9 0 1 0-1.8 0 .9.9 0 0 0 1.8 0zm0-5.8a.9.9 0 1 0-1.8 0 .9.9 0 0 0 1.8 0zm0-5.8a.9.9 0 1 0-1.8 0 .9.9 0 0 0 1.8 0zm0-5.7a.9.9 0 1 0-1.8 0 .9.9 0 0 0 1.8 0zm0-5.8a.9.9 0 1 0-1.8 0 .9.9 0 0 0 1.8 0zm0-5.7a.9.9 0 1 0-1.8 0 .9.9 0 0 0 1.8 0zm0-5.8a.9.9 0 1 0-1.8 0 .9.9 0 0 0 1.8 0zm0-5.8a.9.9 0 1 0-1.8 0 .9.9 0 0 0 1.8 0zm0-5.7a.9.9 0 1 0-1.8 0 .9.9 0 0 0 1.8 0zm0-5.8a.9.9 0 1 0-1.8 0 .9.9 0 0 0 1.8 0zm0-5.8a.9.9 0 1 0-1.8 0 .9.9 0 0 0 1.8 0zm0-5.7a.9.9 0 1 0-1.8 0 .9.9 0 0 0 1.8 0zm2.9 77.8a.9.9 0 1 0-1.8 0 .9.9 0 0 0 1.8 0zm0-5.8a.9.9 0 1 0-1.8 0 .9.9 0 0 0 1.8 0zm0-5.7a.9.9 0 1 0-1.8 0 .9.9 0 0 0 1.8 0zm0-5.8a.9.9 0 1 0-1.8 0 .9.9 0 0 0 1.8 0zm0-5.8a.9.9 0 1 0-1.8 0 .9.9 0 0 0 1.8 0zm0-5.7a.9.9 0 1 0-1.8 0 .9.9 0 0 0 1.8 0zm0-5.8a.9.9 0 1 0-1.8 0 .9.9 0 0 0 1.8 0zm0-5.8a.9.9 0 1 0-1.8 0 .9.9 0 0 0 1.8 0zm0-5.7a.9.9 0 1 0-1.8 0 .9.9 0 0 0 1.8 0zm0-5.8a.9.9 0 1 0-1.8 0 .9.9 0 0 0 1.8 0zm0-5.8a.9.9 0 1 0-1.8 0 .9.9 0 0 0 1.8 0zm0-5.7a.9.9 0 1 0-1.8 0 .9.9 0 0 0 1.8 0zm0-5.8a.9.9 0 1 0-1.8 0 .9.9 0 0 0 1.8 0zm0-5.7a.9.9 0 1 0-1.8 0 .9.9 0 0 0 1.8 0zm0-5.8a.9.9 0 1 0-1.8 0 .9.9 0 0 0 1.8 0zm2.9 77.8c0-.1 0-.2-.1-.3-.1-.3-.2-.4-.5-.5-.1 0-.2-.1-.3-.1-.5 0-.9.4-.9.9s.4.9.9.9c.1 0 .2 0 .3-.1.2-.1.4-.3.5-.5 0-.1.1-.2.1-.3zm0-5.8c0-.1 0-.2-.1-.3-.1-.2-.2-.4-.5-.5-.1 0-.2-.1-.3-.1-.5 0-.9.4-.9.9s.4.9.9.9c.1 0 .2 0 .3-.1.2-.1.4-.3.5-.5 0-.1.1-.2.1-.3zm0-5.7c0-.1 0-.2-.1-.3-.1-.3-.2-.4-.5-.5-.1 0-.2-.1-.3-.1-.5 0-.9.4-.9.9s.4.9.9.9c.1 0 .2 0 .3-.1.2-.1.4-.3.5-.5 0-.1.1-.2.1-.3zm0-5.8c0-.1 0-.2-.1-.3-.1-.2-.2-.4-.5-.5-.1 0-.2-.1-.3-.1-.5 0-.9.4-.9.9s.4.9.9.9c.1 0 .2 0 .3-.1.2-.1.4-.3.5-.5 0-.1.1-.2.1-.3zm0-5.8c0-.1 0-.2-.1-.3-.1-.2-.2-.4-.5-.5-.1 0-.2-.1-.3-.1-.5 0-.9.4-.9.9s.4.9.9.9c.1 0 .2 0 .3-.1.2-.1.4-.3.5-.5 0-.1.1-.2.1-.3zm0-5.7c0-.1 0-.2-.1-.3-.1-.3-.2-.4-.5-.5-.1 0-.2-.1-.3-.1-.5 0-.9.4-.9.9s.4.9.9.9c.1 0 .2 0 .3-.1.2-.1.4-.3.5-.5 0-.1.1-.2.1-.3zm0-5.8c0-.1 0-.2-.1-.3-.1-.2-.2-.4-.5-.5-.1 0-.2-.1-.3-.1-.5 0-.9.4-.9.9s.4.9.9.9c.1 0 .2 0 .3-.1.2-.1.4-.3.5-.5 0-.1.1-.2.1-.3zm0-5.8c0-.1 0-.2-.1-.3-.1-.2-.2-.4-.5-.5-.1 0-.2-.1-.3-.1-.5 0-.9.4-.9.9s.4.9.9.9c.1 0 .2 0 .3-.1.2-.1.4-.3.5-.5 0-.1.1-.2.1-.3zm0-5.7c0-.1 0-.2-.1-.3-.1-.3-.2-.4-.5-.5-.1 0-.2-.1-.3-.1-.5 0-.9.4-.9.9s.4.9.9.9c.1 0 .2 0 .3-.1.2-.1.4-.3.5-.5 0-.1.1-.2.1-.3zm0-5.8c0-.1 0-.2-.1-.3-.1-.2-.2-.4-.5-.5-.1 0-.2-.1-.3-.1-.5 0-.9.4-.9.9s.4.9.9.9c.1 0 .2 0 .3-.1.2-.1.4-.3.5-.5 0-.1.1-.2.1-.3zm0-5.7c0-.1 0-.2-.1-.3-.1-.3-.2-.5-.5-.5-.1 0-.2-.1-.3-.1-.5 0-.9.4-.9.9s.4.9.9.9c.1 0 .2 0 .3-.1.2-.1.4-.3.5-.5 0-.1.1-.2.1-.3zm0-5.8c0-.1 0-.2-.1-.3-.1-.3-.2-.4-.5-.5-.1 0-.2-.1-.3-.1-.5 0-.9.4-.9.9s.4.9.9.9c.1 0 .2 0 .3-.1.2-.1.4-.3.5-.5 0-.1.1-.2.1-.3zm0-5.8c0-.1 0-.2-.1-.3-.1-.2-.2-.4-.5-.5-.1 0-.2-.1-.3-.1-.5 0-.9.4-.9.9s.4.9.9.9c.1 0 .2 0 .3-.1.2-.1.4-.3.5-.5 0-.1.1-.2.1-.3zm0-5.7c0-.1 0-.2-.1-.3-.1-.3-.2-.5-.5-.5-.1 0-.2-.1-.3-.1-.5 0-.9.4-.9.9s.4.9.9.9c.1 0 .2 0 .3-.1.2-.1.4-.3.5-.5 0-.1.1-.2.1-.3zm0-5.8c0-.1 0-.2-.1-.3l-.1-.1h-1.4c-.1.1-.2.3-.2.5 0 .4.4.8.9.8.1 0 .2 0 .3-.1.2-.1.4-.3.5-.5 0-.1.1-.2.1-.3zm2.9 83.6a.9.9 0 1 0-1.8 0 .9.9 0 0 0 1.8 0zm0-5.8a.9.9 0 1 0-1.8 0 .9.9 0 0 0 1.8 0zm0-5.7a.9.9 0 1 0-1.8 0 .9.9 0 0 0 1.8 0zm0-5.8a.9.9 0 1 0-1.8 0 .9.9 0 0 0 1.8 0zm0-5.8a.9.9 0 1 0-1.8 0 .9.9 0 0 0 1.8 0zm0-5.7a.9.9 0 1 0-1.8 0 .9.9 0 0 0 1.8 0zm0-5.8a.9.9 0 1 0-1.8 0 .9.9 0 0 0 1.8 0zm0-5.8a.9.9 0 1 0-1.8 0 .9.9 0 0 0 1.8 0zm0-5.7a.9.9 0 1 0-1.8 0 .9.9 0 0 0 1.8 0zm0-5.8a.9.9 0 1 0-1.8 0 .9.9 0 0 0 1.8 0zm0-5.8a.9.9 0 1 0-1.8 0 .9.9 0 0 0 1.8 0zm0-5.7a.9.9 0 1 0-1.8 0 .9.9 0 0 0 1.8 0zm0-5.8a.9.9 0 1 0-1.8 0 .9.9 0 0 0 1.8 0zm0-5.7a.9.9 0 1 0-1.8 0 .9.9 0 0 0 1.8 0zm0-5.8a.9.9 0 1 0-1.8 0 .9.9 0 0 0 1.8 0zm2.9 77.8a.9.9 0 1 0-1.8 0 .9.9 0 0 0 1.8 0zm0-5.8a.9.9 0 1 0-1.8 0 .9.9 0 0 0 1.8 0zm0-5.7a.9.9 0 1 0-1.8 0 .9.9 0 0 0 1.8 0zm0-5.8a.9.9 0 1 0-1.8 0 .9.9 0 0 0 1.8 0zm0-5.8a.9.9 0 1 0-1.8 0 .9.9 0 0 0 1.8 0zm0-5.7a.9.9 0 1 0-1.8 0 .9.9 0 0 0 1.8 0zm0-5.8a.9.9 0 1 0-1.8 0 .9.9 0 0 0 1.8 0zm0-5.7a.9.9 0 1 0-1.8 0 .9.9 0 0 0 1.8 0zm0-5.8a.9.9 0 1 0-1.8 0 .9.9 0 0 0 1.8 0zm0-5.8a.9.9 0 1 0-1.8 0 .9.9 0 0 0 1.8 0zm0-5.7a.9.9 0 1 0-1.8 0 .9.9 0 0 0 1.8 0zm0-5.8a.9.9 0 1 0-1.8 0 .9.9 0 0 0 1.8 0zm0-5.8a.9.9 0 1 0-1.8 0 .9.9 0 0 0 1.8 0zm0-5.7a.9.9 0 1 0-1.8 0 .9.9 0 0 0 1.8 0zm2.9 77.8a.9.9 0 1 0-1.8 0 .9.9 0 0 0 1.8 0zm0-5.8a.9.9 0 1 0-1.8 0 .9.9 0 0 0 1.8 0zm0-5.7a.9.9 0 1 0-1.8 0 .9.9 0 0 0 1.8 0zm0-5.8a.9.9 0 1 0-1.8 0 .9.9 0 0 0 1.8 0zm0-5.8a.9.9 0 1 0-1.8 0 .9.9 0 0 0 1.8 0zm0-5.7a.9.9 0 1 0-1.8 0 .9.9 0 0 0 1.8 0zm0-5.8a.9.9 0 1 0-1.8 0 .9.9 0 0 0 1.8 0zm0-5.8a.9.9 0 1 0-1.8 0 .9.9 0 0 0 1.8 0zm0-5.7a.9.9 0 1 0-1.8 0 .9.9 0 0 0 1.8 0zm0-5.8a.9.9 0 1 0-1.8 0 .9.9 0 0 0 1.8 0zm0-5.8a.9.9 0 1 0-1.8 0 .9.9 0 0 0 1.8 0zm0-5.7a.9.9 0 1 0-1.8 0 .9.9 0 0 0 1.8 0zm0-5.8a.9.9 0 1 0-1.8 0 .9.9 0 0 0 1.8 0zm0-5.7a.9.9 0 1 0-1.8 0 .9.9 0 0 0 1.8 0zm0-5.8a.9.9 0 1 0-1.8 0 .9.9 0 0 0 1.8 0zm2.8 77.8a.9.9 0 1 0-1.8 0 .9.9 0 0 0 1.8 0zm0-5.8a.9.9 0 1 0-1.8 0 .9.9 0 0 0 1.8 0zm0-5.7a.9.9 0 1 0-1.8 0 .9.9 0 0 0 1.8 0zm0-5.8a.9.9 0 1 0-1.8 0 .9.9 0 0 0 1.8 0zm0-5.8a.9.9 0 1 0-1.8 0 .9.9 0 0 0 1.8 0zm0-5.7a.9.9 0 1 0-1.8 0 .9.9 0 0 0 1.8 0zm0-5.8a.9.9 0 1 0-1.8 0 .9.9 0 0 0 1.8 0zm0-5.7a.9.9 0 1 0-1.8 0 .9.9 0 0 0 1.8 0zm0-5.8a.9.9 0 1 0-1.8 0 .9.9 0 0 0 1.8 0zm0-5.8a.9.9 0 1 0-1.8 0 .9.9 0 0 0 1.8 0zm0-5.7a.9.9 0 1 0-1.8 0 .9.9 0 0 0 1.8 0zm0-5.8a.9.9 0 1 0-1.8 0 .9.9 0 0 0 1.8 0zm0-5.8a.9.9 0 1 0-1.8 0 .9.9 0 0 0 1.8 0zm0-5.7a.9.9 0 1 0-1.8 0 .9.9 0 0 0 1.8 0zm2.9 72a.9.9 0 1 0-1.8 0 .9.9 0 0 0 1.8 0zm0-5.7a.9.9 0 1 0-1.8 0 .9.9 0 0 0 1.8 0zm0-5.8a.9.9 0 1 0-1.8 0 .9.9 0 0 0 1.8 0zm0-5.8a.9.9 0 1 0-1.8 0 .9.9 0 0 0 1.8 0zm0-5.7a.9.9 0 1 0-1.8 0 .9.9 0 0 0 1.8 0zm0-5.8a.9.9 0 1 0-1.8 0 .9.9 0 0 0 1.8 0zm0-5.8a.9.9 0 1 0-1.8 0 .9.9 0 0 0 1.8 0zm0-5.7a.9.9 0 1 0-1.8 0 .9.9 0 0 0 1.8 0zm0-5.8a.9.9 0 1 0-1.8 0 .9.9 0 0 0 1.8 0zm0-5.8a.9.9 0 1 0-1.8 0 .9.9 0 0 0 1.8 0zm0-5.7a.9.9 0 1 0-1.8 0 .9.9 0 0 0 1.8 0zm0-5.8a.9.9 0 1 0-1.8 0 .9.9 0 0 0 1.8 0zm0-5.7a.9.9 0 1 0-1.8 0 .9.9 0 0 0 1.8 0zm0-5.8c0-.3-.2-.6-.4-.7-.1 0-.2-.1-.3-.1h-.1c-.6-.1-1 .3-1 .8s.4.9.9.9.9-.4.9-.9zm2.9 77.8a.9.9 0 1 0-1.8 0 .9.9 0 0 0 1.8 0zm0-5.8a.9.9 0 1 0-1.8 0 .9.9 0 0 0 1.8 0zm0-5.7a.9.9 0 1 0-1.8 0 .9.9 0 0 0 1.8 0zm0-5.8a.9.9 0 1 0-1.8 0 .9.9 0 0 0 1.8 0zm0-5.8a.9.9 0 1 0-1.8 0 .9.9 0 0 0 1.8 0zm0-5.7a.9.9 0 1 0-1.8 0 .9.9 0 0 0 1.8 0zm0-5.8a.9.9 0 1 0-1.8 0 .9.9 0 0 0 1.8 0zm0-5.7a.9.9 0 1 0-1.8 0 .9.9 0 0 0 1.8 0zm0-5.8a.9.9 0 1 0-1.8 0 .9.9 0 0 0 1.8 0zm0-5.8a.9.9 0 1 0-1.8 0 .9.9 0 0 0 1.8 0zm0-5.7a.9.9 0 1 0-1.8 0 .9.9 0 0 0 1.8 0zm0-5.8a.9.9 0 1 0-1.8 0 .9.9 0 0 0 1.8 0zm0-5.8a.9.9 0 1 0-1.8 0 .9.9 0 0 0 1.8 0zm0-5.7a.9.9 0 1 0-1.8 0 .9.9 0 0 0 1.8 0zm2.9 72a.9.9 0 1 0-1.8 0 .9.9 0 0 0 1.8 0zm0-5.7a.9.9 0 1 0-1.8 0 .9.9 0 0 0 1.8 0zm0-5.8a.9.9 0 1 0-1.8 0 .9.9 0 0 0 1.8 0zm0-5.8a.9.9 0 1 0-1.8 0 .9.9 0 0 0 1.8 0zm0-5.7a.9.9 0 1 0-1.8 0 .9.9 0 0 0 1.8 0zm0-5.8a.9.9 0 1 0-1.8 0 .9.9 0 0 0 1.8 0zm0-5.8a.9.9 0 1 0-1.8 0 .9.9 0 0 0 1.8 0zm0-5.7a.9.9 0 1 0-1.8 0 .9.9 0 0 0 1.8 0zm0-5.8a.9.9 0 1 0-1.8 0 .9.9 0 0 0 1.8 0zm0-5.8a.9.9 0 1 0-1.8 0 .9.9 0 0 0 1.8 0zm0-5.7a.9.9 0 1 0-1.8 0 .9.9 0 0 0 1.8 0zm0-5.8a.9.9 0 1 0-1.8 0 .9.9 0 0 0 1.8 0zm0-5.7a.9.9 0 1 0-1.8 0 .9.9 0 0 0 1.8 0zm2.9 66.2a.9.9 0 1 0-1.8 0 .9.9 0 0 0 1.8 0zm0-5.7a.9.9 0 1 0-1.8 0 .9.9 0 0 0 1.8 0zm0-5.8a.9.9 0 1 0-1.8 0 .9.9 0 0 0 1.8 0zm0-5.8a.9.9 0 1 0-1.8 0 .9.9 0 0 0 1.8 0zm0-5.7a.9.9 0 1 0-1.8 0 .9.9 0 0 0 1.8 0zm0-5.8a.9.9 0 1 0-1.8 0 .9.9 0 0 0 1.8 0zm0-5.7a.9.9 0 1 0-1.8 0 .9.9 0 0 0 1.8 0zm0-5.8a.9.9 0 1 0-1.8 0 .9.9 0 0 0 1.8 0zm0-5.8a.9.9 0 1 0-1.8 0 .9.9 0 0 0 1.8 0zm0-5.7a.9.9 0 1 0-1.8 0 .9.9 0 0 0 1.8 0zm0-5.8a.9.9 0 1 0-1.8 0 .9.9 0 0 0 1.8 0zm0-5.8a.9.9 0 1 0-1.8 0 .9.9 0 0 0 1.8 0zm2.8 60.6a.9.9 0 1 0-1.8 0 .9.9 0 0 0 1.8 0zm0-5.8a.9.9 0 1 0-1.8 0 .9.9 0 0 0 1.8 0zm0-5.8a.9.9 0 1 0-1.8 0 .9.9 0 0 0 1.8 0zm0-5.7a.9.9 0 1 0-1.8 0 .9.9 0 0 0 1.8 0zm0-5.8a.9.9 0 1 0-1.8 0 .9.9 0 0 0 1.8 0zm0-5.8a.9.9 0 1 0-1.8 0 .9.9 0 0 0 1.8 0zm0-5.7a.9.9 0 1 0-1.8 0 .9.9 0 0 0 1.8 0zm0-5.8a.9.9 0 1 0-1.8 0 .9.9 0 0 0 1.8 0zm0-5.8a.9.9 0 1 0-1.8 0 .9.9 0 0 0 1.8 0zm0-5.7a.9.9 0 1 0-1.8 0 .9.9 0 0 0 1.8 0zm0-5.8a.9.9 0 1 0-1.8 0 .9.9 0 0 0 1.8 0zm2.9 54.8a.9.9 0 1 0-1.8 0 .9.9 0 0 0 1.8 0zm0-5.8a.9.9 0 1 0-1.8 0 .9.9 0 0 0 1.8 0zm0-5.8a.9.9 0 1 0-1.8 0 .9.9 0 0 0 1.8 0zm0-5.7a.9.9 0 1 0-1.8 0 .9.9 0 0 0 1.8 0zm0-5.8a.9.9 0 1 0-1.8 0 .9.9 0 0 0 1.8 0zm0-5.7a.9.9 0 1 0-1.8 0 .9.9 0 0 0 1.8 0zm0-5.8a.9.9 0 1 0-1.8 0 .9.9 0 0 0 1.8 0zm0-5.8a.9.9 0 1 0-1.8 0 .9.9 0 0 0 1.8 0zm0-5.7a.9.9 0 1 0-1.8 0 .9.9 0 0 0 1.8 0zm0-5.8a.9.9 0 1 0-1.8 0 .9.9 0 0 0 1.8 0zm2.9 49a.9.9 0 1 0-1.8 0 .9.9 0 0 0 1.8 0zm0-5.8a.9.9 0 1 0-1.8 0 .9.9 0 0 0 1.8 0zm0-5.7a.9.9 0 1 0-1.8 0 .9.9 0 0 0 1.8 0zm0-5.8a.9.9 0 1 0-1.8 0 .9.9 0 0 0 1.8 0zm0-5.8a.9.9 0 1 0-1.8 0 .9.9 0 0 0 1.8 0zm0-5.7a.9.9 0 1 0-1.8 0 .9.9 0 0 0 1.8 0zm0-5.8a.9.9 0 1 0-1.8 0 .9.9 0 0 0 1.8 0zm0-5.8a.9.9 0 1 0-1.8 0 .9.9 0 0 0 1.8 0zm0-5.7a.9.9 0 1 0-1.8 0 .9.9 0 0 0 1.8 0zm2.9 43.2a.9.9 0 1 0-1.8 0 .9.9 0 0 0 1.8 0zm0-5.8a.9.9 0 1 0-1.8 0 .9.9 0 0 0 1.8 0zm0-5.7a.9.9 0 1 0-1.8 0 .9.9 0 0 0 1.8 0zm0-5.8a.9.9 0 1 0-1.8 0 .9.9 0 0 0 1.8 0zm0-5.7a.9.9 0 1 0-1.8 0 .9.9 0 0 0 1.8 0zm0-5.8a.9.9 0 1 0-1.8 0 .9.9 0 0 0 1.8 0zm0-5.8a.9.9 0 1 0-1.8 0 .9.9 0 0 0 1.8 0zm0-5.7a.9.9 0 1 0-1.8 0 .9.9 0 0 0 1.8 0zm2.9 37.4a.9.9 0 1 0-1.8 0 .9.9 0 0 0 1.8 0zm0-5.7a.9.9 0 1 0-1.8 0 .9.9 0 0 0 1.8 0zm0-5.8a.9.9 0 1 0-1.8 0 .9.9 0 0 0 1.8 0zm0-5.8a.9.9 0 1 0-1.8 0 .9.9 0 0 0 1.8 0zm0-5.7a.9.9 0 1 0-1.8 0 .9.9 0 0 0 1.8 0zm0-5.8a.9.9 0 1 0-1.8 0 .9.9 0 0 0 1.8 0zm0-5.8a.9.9 0 1 0-1.8 0 .9.9 0 0 0 1.8 0zm2.9 26a.9.9 0 1 0-1.8 0 .9.9 0 0 0 1.8 0zm0-5.8a.9.9 0 1 0-1.8 0 .9.9 0 0 0 1.8 0zm0-5.7a.9.9 0 1 0-1.8 0 .9.9 0 0 0 1.8 0zm0-5.8a.9.9 0 1 0-1.8 0 .9.9 0 0 0 1.8 0zM94.578 80.114a17.01 17.01 0 0 0-.478-.51c.156.173.319.34.478.51zm8.524-44.414a.9.9 0 1 0 0 1.8.9.9 0 0 0 0-1.8zm0 5.8a.9.9 0 1 0 0 1.8.9.9 0 0 0 0-1.8zm0-11.5a.9.9 0 1 0 0 1.8.9.9 0 0 0 0-1.8zm0 17.3a.9.9 0 1 0 0 1.8.9.9 0 0 0 0-1.8zm0-23.1a.9.9 0 1 0 0 1.8.9.9 0 0 0 0-1.8zm0 28.8a.9.9 0 1 0 0 1.8.9.9 0 0 0 0-1.8zm0 28.8a.9.9 0 1 0 0 1.8.9.9 0 0 0 0-1.8zm0-11.5a.9.9 0 1 0 0 1.8.9.9 0 0 0 0-1.8zm0-5.8a.9.9 0 1 0 0 1.8.9.9 0 0 0 0-1.8zm0-5.7a.9.9 0 1 0 0 1.8.9.9 0 0 0 0-1.8zm0-40.4a.9.9 0 1 0 0 1.8.9.9 0 0 0 0-1.8zm0 57.7a.9.9 0 1 0 0 1.8.9.9 0 0 0 0-1.8zm2.9-31.7a.9.9 0 1 0 0 1.8.9.9 0 0 0 0-1.8zm0 5.7a.9.9 0 1 0 0 1.8.9.9 0 0 0 0-1.8zm0-17.3a.9.9 0 1 0 0 1.8.9.9 0 0 0 0-1.8zm0 23.1a.9.9 0 1 0 0 1.8.9.9 0 0 0 0-1.8zm0-17.3a.9.9 0 1 0 0 1.8.9.9 0 0 0 0-1.8zm0-11.5a.9.9 0 1 0 0 1.8.9.9 0 0 0 0-1.8zm-11.5 0a.9.9 0 1 0 0 1.8.9.9 0 0 0 0-1.8zm11.5 51.9a.9.9 0 1 0 0 1.8.9.9 0 0 0 0-1.8zm0-5.8a.9.9 0 1 0 0 1.8.9.9 0 0 0 0-1.8zm0-11.5a.9.9 0 1 0 0 1.8.9.9 0 0 0 0-1.8zm-2.8-47.3c.4.1.8-.3.8-.8v-.1c-.4.3-.9.5-1.3.8.1.1.3.1.5.1zm2.8 53a.9.9 0 1 0 0 1.8.9.9 0 0 0 0-1.8zm-8.6-25.9a.9.9 0 1 0 0 1.8.9.9 0 0 0 0-1.8zm0 11.5a.9.9 0 1 0 0 1.8.9.9 0 0 0 0-1.8zm0-5.7a.9.9 0 1 0 0 1.8.9.9 0 0 0 0-1.8zm0-17.3a.9.9 0 1 0 0 1.8.9.9 0 0 0 0-1.8zm2.9-8.7a.9.9 0 1 0 0 1.8.9.9 0 0 0 0-1.8zm-2.9 43.2a.9.9 0 1 0 0 1.8.9.9 0 0 0 0-1.8zm0 11.6a.9.9 0 1 0 0 1.8.9.9 0 0 0 0-1.8zm0-17.3a.9.9 0 1 0 0 1.8.9.9 0 0 0 0-1.8zm0 23c-.3 0-.6.2-.7.4.4.4.8.8 1.3 1.1.1-.1.3-.3.3-.6 0-.5-.4-.9-.9-.9zm0-57.6a.9.9 0 1 0 0 1.8.9.9 0 0 0 0-1.8zm0 46.1a.9.9 0 1 0 0 1.8.9.9 0 0 0 0-1.8zm0-34.6a.9.9 0 1 0 0 1.8.9.9 0 0 0 0-1.8zm2.9 8.7a.9.9 0 1 0 0 1.8.9.9 0 0 0 0-1.8zm0-5.8a.9.9 0 1 0 0 1.8.9.9 0 0 0 0-1.8zm0-5.8a.9.9 0 1 0 0 1.8.9.9 0 0 0 0-1.8zm0 17.3a.9.9 0 1 0 0 1.8.9.9 0 0 0 0-1.8zm0 28.9a.9.9 0 1 0 0 1.8.9.9 0 0 0 0-1.8zm0-51.9a.9.9 0 1 0 0 1.8.9.9 0 0 0 0-1.8zm0 40.3a.9.9 0 1 0 0 1.8.9.9 0 0 0 0-1.8zm0-11.5a.9.9 0 1 0 0 1.8.9.9 0 0 0 0-1.8zm0 17.3a.9.9 0 1 0 0 1.8.9.9 0 0 0 0-1.8zm0-11.5a.9.9 0 1 0 0 1.8.9.9 0 0 0 0-1.8zm5.7 23a.9.9 0 1 0 0 1.8.9.9 0 0 0 0-1.8zm8.7-2.9a.9.9 0 1 0 0 1.8.9.9 0 0 0 0-1.8zm-8.7-60.5a.9.9 0 1 0 0 1.8.9.9 0 0 0 0-1.8zm8.7 49a.9.9 0 1 0 0 1.8.9.9 0 0 0 0-1.8zm0-11.5a.9.9 0 1 0 0 1.8.9.9 0 0 0 0-1.8zm0 28.8a.9.9 0 1 0 0 1.8.9.9 0 0 0 0-1.8zm0-23.1a.9.9 0 1 0 0 1.8.9.9 0 0 0 0-1.8zm-2.9-25.9a.9.9 0 1 0 0 1.8.9.9 0 0 0 0-1.8zm0-5.8a.9.9 0 1 0 0 1.8.9.9 0 0 0 0-1.8zm0-11.5a.9.9 0 1 0 0 1.8.9.9 0 0 0 0-1.8zm0 5.8a.9.9 0 1 0 0 1.8.9.9 0 0 0 0-1.8zm0-11.5a.9.9 0 1 0 0 1.8.9.9 0 0 0 0-1.8zm5.8 69.1a.9.9 0 1 0 0 1.8.9.9 0 0 0 0-1.8zm-2.9-66.3a.9.9 0 1 0 0 1.8.9.9 0 0 0 0-1.8zm0 5.8a.9.9 0 1 0 0 1.8.9.9 0 0 0 0-1.8zm0-11.5a.9.9 0 1 0 0 1.8.9.9 0 0 0 0-1.8zm2.9 77.8a.9.9 0 1 0 0 1.8.9.9 0 0 0 0-1.8zm-5.8-46.1a.9.9 0 1 0 0 1.8.9.9 0 0 0 0-1.8zm2.9 8.6a.9.9 0 1 0 0 1.8.9.9 0 0 0 0-1.8zm0-5.7a.9.9 0 1 0 0 1.8.9.9 0 0 0 0-1.8zm0-5.8a.9.9 0 1 0 0 1.8.9.9 0 0 0 0-1.8zm0-5.8a.9.9 0 1 0 0 1.8.9.9 0 0 0 0-1.8zm0-5.7a.9.9 0 1 0 0 1.8.9.9 0 0 0 0-1.8zm0 46.1a.9.9 0 1 0 0 1.8.9.9 0 0 0 0-1.8zm-5.8-17.3a.9.9 0 1 0 0 1.8.9.9 0 0 0 0-1.8zm0 5.7a.9.9 0 1 0 0 1.8.9.9 0 0 0 0-1.8zm0-11.5a.9.9 0 1 0 0 1.8.9.9 0 0 0 0-1.8zm0-5.7a.9.9 0 1 0 0 1.8.9.9 0 0 0 0-1.8zm0-5.8a.9.9 0 1 0 0 1.8.9.9 0 0 0 0-1.8zm-2.9-25.9a.9.9 0 1 0 0 1.8.9.9 0 0 0 0-1.8zm2.9 54.7a.9.9 0 1 0 0 1.8.9.9 0 0 0 0-1.8zm0-34.6a.9.9 0 1 0 0 1.8.9.9 0 0 0 0-1.8zm0 51.9a.9.9 0 1 0 0 1.8.9.9 0 0 0 0-1.8zm0-11.5a.9.9 0 1 0 0 1.8.9.9 0 0 0 0-1.8zm0 5.7a.9.9 0 1 0 0 1.8.9.9 0 0 0 0-1.8zm0-63.4a.9.9 0 1 0 0 1.8.9.9 0 0 0 0-1.8zm2.9 60.6a.9.9 0 1 0 0 1.8.9.9 0 0 0 0-1.8zm-2.9-49a.9.9 0 1 0 0 1.8.9.9 0 0 0 0-1.8zm2.9 37.4a.9.9 0 1 0 0 1.8.9.9 0 0 0 0-1.8zm5.8 11.6a.9.9 0 1 0 0 1.8.9.9 0 0 0 0-1.8zm-5.8-23.1a.9.9 0 1 0 0 1.8.9.9 0 0 0 0-1.8zm0 17.3a.9.9 0 1 0 0 1.8.9.9 0 0 0 0-1.8zm0-23.1a.9.9 0 1 0 0 1.8.9.9 0 0 0 0-1.8zm-2.9-25.9a.9.9 0 1 0 0 1.8.9.9 0 0 0 0-1.8zm2.9 60.5a.9.9 0 1 0 0 1.8.9.9 0 0 0 0-1.8zm-2.9-72a.9.9 0 1 0 0 1.8.9.9 0 0 0 0-1.8zm2.9 49a.9.9 0 1 0 0 1.8.9.9 0 0 0 0-1.8zm-25.1 3.7c0-.5-.4-.9-.9-.9-.179 0-.357.082-.536.171.177.514.364 1.024.56 1.529.582.083.876-.308.876-.8zm71.2 7.8a.9.9 0 1 0 0 1.8.9.9 0 0 0 0-1.8zm10.7-27.9a.96.96 0 0 0 .675.889 41.46 41.46 0 0 0-.214-1.667c-.276.112-.461.397-.461.778zm-2.9-8.7c0 .5.4.9.9.9.263 0 .522-.159.717-.399-.154-.464-.305-.929-.474-1.386a1.183 1.183 0 0 0-.243-.016c-.5.001-.9.401-.9.901zm-2.1-7.7c-.157-.314-.366-.628-.549-.942-.05-.082-.104-.161-.155-.242-.009.095-.095.194-.095.384-.001.3.399.7.799.8zm-5.7 32.8a.9.9 0 1 0 0 1.8.9.9 0 0 0 0-1.8zm0-11.6a.9.9 0 1 0 0 1.8.9.9 0 0 0 0-1.8zm0-5.7a.9.9 0 1 0 0 1.8.9.9 0 0 0 0-1.8zm0 23a.9.9 0 1 0 0 1.8.9.9 0 0 0 0-1.8zm2-42.3c0 .5.4.9.9.9.292 0 .58-.189.688-.383-.214-.301-.423-.606-.644-.901-.111-.142-.216-.287-.343-.415-.301.099-.601.399-.601.799zm-2 30.8a.9.9 0 1 0 0 1.8.9.9 0 0 0 0-1.8zm0-17.3a.9.9 0 1 0 0 1.8.9.9 0 0 0 0-1.8zm-37.5-29.9c.5 0 .9-.4.9-.9v-.2c-.481.08-.908.106-1.363.16-.112.016-.225.027-.336.044.003.498.4.896.799.896zm36.6 13.5c0 .5.4.9.9.9a.895.895 0 0 0 .898-.892c-.266-.305-.533-.61-.807-.908h-.091c-.5 0-.9.4-.9.9zm-45.2-10.6c.5 0 .9-.4.9-.9s-.4-.9-.9-.9h-.062c-.169.06-.34.117-.508.179-.174.196-.33.456-.33.721 0 .5.4.9.9.9zm-17.3 11.5c.5 0 .9-.4.9-.9s-.4-.9-.9-.9h-.129c-.263.285-.516.578-.771.87v.031c0 .499.4.899.9.899zm2.9-2.9c.5 0 .9-.4.9-.9s-.4-.9-.9-.9h-.091c-.274.246-.541.501-.809.754v.046c0 .6.4 1 .9 1zm2.9-2.9c.5 0 .9-.4.9-.9 0-.288-.187-.573-.466-.772-.447.327-.886.664-1.32 1.007.109.381.402.665.886.665zm53.8 2c0 .5.4.9.9.9s.9-.4.9-.9v-.109c-.244-.231-.484-.465-.733-.69h-.167c-.5-.001-.9.299-.9.799zm-22.1-10.6a.893.893 0 0 0 .895-.875 43.126 43.126 0 0 0-1.695-.224V7.8c-.1.5.3.9.8.9zm19.3 7.8c0 .5.4.9.9.9.4 0 .8-.3.8-.7-.3-.225-.601-.465-.901-.732-.112-.084-.227-.162-.34-.245-.275.113-.459.397-.459.777zm-2-2c.178 0 .285-.082.445-.17-.412-.269-.824-.539-1.245-.794v.064c-.1.5.3.9.8.9zm5.7 9.7a.9.9 0 1 0 0 1.8.9.9 0 0 0 0-1.8zm8.7 8.6a.9.9 0 1 0 0 1.8.9.9 0 0 0 0-1.8zm-8.7-2.8a.9.9 0 1 0 0 1.8.9.9 0 0 0 0-1.8zm8.7 14.4a.9.9 0 1 0 0 1.8.9.9 0 0 0 0-1.8zm0 5.7a.9.9 0 1 0 0 1.8.9.9 0 0 0 0-1.8zm0 5.8a.9.9 0 1 0 0 1.8.9.9 0 0 0 0-1.8zm2.9-2.9a.9.9 0 1 0 0 1.8.9.9 0 0 0 0-1.8zm0-11.5a.9.9 0 1 0 0 1.8.9.9 0 0 0 0-1.8zm2.887 8.604c-.59.104-.887.499-.887.896 0 .488.384.876.867.893.013-.431.033-.86.033-1.293 0-.166-.011-.33-.013-.496zm-2.887-2.804a.9.9 0 1 0 0 1.8.9.9 0 0 0 0-1.8zm-2.9 14.4a.9.9 0 1 0 0 1.8.9.9 0 0 0 0-1.8zm2.9-2.9a.9.9 0 1 0 0 1.8.9.9 0 0 0 0-1.8zm-5.8-28.8a.9.9 0 1 0 0 1.8.9.9 0 0 0 0-1.8zm0 28.8a.9.9 0 1 0 0 1.8.9.9 0 0 0 0-1.8zm0-5.8a.9.9 0 1 0 0 1.8.9.9 0 0 0 0-1.8zm0 11.5a.9.9 0 1 0 0 1.8.9.9 0 0 0 0-1.8zm-2.9-37.4a.9.9 0 1 0 0 1.8.9.9 0 0 0 0-1.8zm2.9 43.2a.9.9 0 1 0 0 1.8.9.9 0 0 0 0-1.8zm-2.9-37.5a.9.9 0 1 0 0 1.8.9.9 0 0 0 0-1.8zm2.9 14.5a.9.9 0 1 0 0 1.8.9.9 0 0 0 0-1.8zm0-11.6a.9.9 0 1 0 0 1.8.9.9 0 0 0 0-1.8zm2.9 31.7a.9.9 0 1 0 0 1.8.9.9 0 0 0 0-1.8zm-2.9-25.9a.9.9 0 1 0 0 1.8.9.9 0 0 0 0-1.8zm-69.2 0a.9.9 0 1 0 0 1.8.9.9 0 0 0 0-1.8zm0 5.8a.9.9 0 1 0 0 1.8.9.9 0 0 0 0-1.8zm0 17.2a.9.9 0 1 0 0 1.8.9.9 0 0 0 0-1.8zm-2.9-2.8a.9.9 0 1 0 0 1.8.9.9 0 0 0 0-1.8zm2.9-8.7a.9.9 0 1 0 0 1.8.9.9 0 0 0 0-1.8zm0 5.8a.9.9 0 1 0 0 1.8.9.9 0 0 0 0-1.8zm-2.8-29.9c.5-.1.8-.5.8-.9 0-.1 0-.2-.1-.3-.3.4-.5.8-.7 1.2zm-.1 3.9a.9.9 0 1 0 0 1.8.9.9 0 0 0 0-1.8zm0 17.3a.9.9 0 1 0 0 1.8.9.9 0 0 0 0-1.8zm0 5.8a.9.9 0 1 0 0 1.8.9.9 0 0 0 0-1.8zm0-11.5a.9.9 0 1 0 0 1.8.9.9 0 0 0 0-1.8zm0-5.8a.9.9 0 1 0 0 1.8.9.9 0 0 0 0-1.8zm2.9 31.7a.9.9 0 1 0 0 1.8.9.9 0 0 0 0-1.8zm2.9-20.2a.9.9 0 1 0 0 1.8.9.9 0 0 0 0-1.8zm0 11.6a.9.9 0 1 0 0 1.8.9.9 0 0 0 0-1.8zm0-5.8a.9.9 0 1 0 0 1.8.9.9 0 0 0 0-1.8zm0-17.3a.9.9 0 1 0 0 1.8.9.9 0 0 0 0-1.8zm0 5.8a.9.9 0 1 0 0 1.8.9.9 0 0 0 0-1.8zm0-11.6a.9.9 0 1 0 0 1.8.9.9 0 0 0 0-1.8zm-2.9-2.8a.9.9 0 1 0 0 1.8.9.9 0 0 0 0-1.8zm2.9 37.4a.9.9 0 1 0 0 1.8.9.9 0 0 0 0-1.8zm-2.9 8.7c-.095 0-.19.005-.285.091.323.438.657.867.995 1.293a.759.759 0 0 0 .19-.484c0-.5-.4-.9-.9-.9zm2.9-2.9a.9.9 0 1 0 0 1.8.9.9 0 0 0 0-1.8zm-2.9-37.5a.9.9 0 1 0 0 1.8.9.9 0 0 0 0-1.8zm69.1 40.4c-.4 0-.8.4-.8.9 0 .181.084.362.174.542.332-.417.662-.837.979-1.267l.047-.076c-.1-.099-.2-.099-.4-.099zm-20.1 14.4c-.5 0-.9.4-.9.9 0 .083.013.179.07.319a42.38 42.38 0 0 0 1.619-.564c-.031-.376-.405-.655-.789-.655zm10.7-4.9c0 .075.014.151.057.226.436-.312.867-.631 1.292-.959a.744.744 0 0 0-.448-.167c-.501 0-.901.4-.901.9zm3.7-3.7c-.5 0-.9.4-.9.9 0 .281.096.473.271.66.437-.375.868-.756 1.29-1.148-.122-.317-.388-.412-.661-.412zm2.9-2.9c-.5 0-.9.4-.9.9 0 .299.199.597.398.698.394-.41.783-.825 1.16-1.25-.186-.254-.379-.348-.658-.348zm-26.456 14.573c.29-.035.581-.07.869-.111a.813.813 0 0 0-.313-.062c-.27 0-.448.084-.556.173zM100.302 84.7c-.19 0-.294.092-.476.187.419.323.845.638 1.276.946V85.7c0-.6-.3-1-.8-1zm-5.8-5.7a.9.9 0 0 0-.679.285c.094.105.183.215.277.319.159.162.319.334.478.51.146.157.295.311.444.465.193-.193.38-.39.38-.679 0-.5-.4-.9-.9-.9zm25.605 14.461c.272.039.546.071.82.105-.175-.086-.35-.166-.525-.166a.82.82 0 0 0-.295.061zm-8.305-2.961c-.4 0-.7.3-.8.6.433.173.933.346 1.386.52l.217.073c.004-.098.098-.195.098-.293a.898.898 0 0 0-.901-.9zM85.902 53a.9.9 0 1 0 0 1.8.9.9 0 0 0 0-1.8zm2.8 14.4a.9.9 0 1 0 0 1.8.9.9 0 0 0 0-1.8zm-2.8-20.1a.9.9 0 1 0 0 1.8.9.9 0 0 0 0-1.8zm0-5.8a.9.9 0 1 0 0 1.8.9.9 0 0 0 0-1.8zm0-5.8c-.1 0-.2 0-.3.1-.1.4-.3.8-.4 1.2.1.3.3.5.7.5.5 0 .9-.4.9-.9s-.4-.9-.9-.9zm0 23.1a.9.9 0 1 0 0 1.8.9.9 0 0 0 0-1.8zm82.7-2a.85.85 0 0 0 .35.663c.081-.509.147-1.023.211-1.538-.371.2-.561.49-.561.875zm-85.3-.8c.1.5.1 1 .2 1.5.2-.1.4-.4.4-.7 0-.4-.3-.7-.6-.8zm82.4 9.4a.89.89 0 0 0 .849.89 42.33 42.33 0 0 0 .564-1.53c-.171-.084-.342-.16-.513-.16-.5 0-.9.4-.9.8zm-82.7-15.3v1.8c.5 0 .9-.4.9-.9s-.4-.9-.9-.9zm.4-5.6c-.1.5-.2 1.1-.2 1.6.3-.1.7-.4.7-.8 0-.3-.2-.6-.5-.8zm80.3-5.9a.9.9 0 1 0 0 1.8.9.9 0 0 0 0-1.8zm-23.1-11.5a.9.9 0 1 0 0 1.8.9.9 0 0 0 0-1.8zm0 5.7a.9.9 0 1 0 0 1.8.9.9 0 0 0 0-1.8zm0-11.5a.9.9 0 1 0 0 1.8.9.9 0 0 0 0-1.8zm0 17.3a.9.9 0 1 0 0 1.8.9.9 0 0 0 0-1.8zm0-23a.9.9 0 1 0 0 1.8.9.9 0 0 0 0-1.8zm0 40.3a.9.9 0 1 0 0 1.8.9.9 0 0 0 0-1.8zm0 5.8a.9.9 0 1 0 0 1.8.9.9 0 0 0 0-1.8zm2.9-37.5a.9.9 0 1 0 0 1.8.9.9 0 0 0 0-1.8zm-2.9 20.2a.9.9 0 1 0 0 1.8.9.9 0 0 0 0-1.8zm0 28.8a.9.9 0 1 0 0 1.8.9.9 0 0 0 0-1.8zm.5-63.2c-.1 0-.2-.1-.3-.1h-.1c-.6-.1-1 .3-1 .8s.4.9.9.9.9-.4.9-.9c0-.3-.2-.6-.4-.7zm-.5 40.1a.9.9 0 1 0 0 1.8.9.9 0 0 0 0-1.8zm2.9 2.9a.9.9 0 1 0 0 1.8.9.9 0 0 0 0-1.8zm0 34.6a.9.9 0 1 0 0 1.8.9.9 0 0 0 0-1.8zm0-46.1a.9.9 0 1 0 0 1.8.9.9 0 0 0 0-1.8zm-8.6 2.9a.9.9 0 1 0 0 1.8.9.9 0 0 0 0-1.8zm8.6-8.7a.9.9 0 1 0 0 1.8.9.9 0 0 0 0-1.8zm0 11.6a.9.9 0 1 0 0 1.8.9.9 0 0 0 0-1.8zm0 28.8a.9.9 0 1 0 0 1.8.9.9 0 0 0 0-1.8zm0 5.7a.9.9 0 1 0 0 1.8.9.9 0 0 0 0-1.8zm0-23a.9.9 0 1 0 0 1.8.9.9 0 0 0 0-1.8zm0 11.5a.9.9 0 1 0 0 1.8.9.9 0 0 0 0-1.8zm0-5.8a.9.9 0 1 0 0 1.8.9.9 0 0 0 0-1.8zm-2.9 2.9a.9.9 0 1 0 0 1.8.9.9 0 0 0 0-1.8zm-2.9 20.2a.9.9 0 1 0 0 1.8.9.9 0 0 0 0-1.8zm0-5.8a.9.9 0 1 0 0 1.8.9.9 0 0 0 0-1.8zm0-11.5a.9.9 0 1 0 0 1.8.9.9 0 0 0 0-1.8zm-2.8-60.5a.9.9 0 1 0 0 1.8.9.9 0 0 0 0-1.8zm2.8 66.3a.9.9 0 1 0 0 1.8.9.9 0 0 0 0-1.8zm-2.8-60.5a.9.9 0 1 0 0 1.8.9.9 0 0 0 0-1.8zm2.8 48.9a.9.9 0 1 0 0 1.8.9.9 0 0 0 0-1.8zm-2.8-25.9a.9.9 0 1 0 0 1.8.9.9 0 0 0 0-1.8zm0-5.8a.9.9 0 1 0 0 1.8.9.9 0 0 0 0-1.8zm0-5.7a.9.9 0 1 0 0 1.8.9.9 0 0 0 0-1.8zm0-5.8a.9.9 0 1 0 0 1.8.9.9 0 0 0 0-1.8zm5.7 57.7a.9.9 0 1 0 0 1.8.9.9 0 0 0 0-1.8zm-2.9-60.6a.9.9 0 1 0 0 1.8.9.9 0 0 0 0-1.8zm0 5.8a.9.9 0 1 0 0 1.8.9.9 0 0 0 0-1.8zm0 5.8a.9.9 0 1 0 0 1.8.9.9 0 0 0 0-1.8zm0-17.3a.9.9 0 1 0 0 1.8.9.9 0 0 0 0-1.8zm2.9 72a.9.9 0 1 0 0 1.8.9.9 0 0 0 0-1.8zm-2.9-31.7a.9.9 0 1 0 0 1.8.9.9 0 0 0 0-1.8zm0 5.8a.9.9 0 1 0 0 1.8.9.9 0 0 0 0-1.8zm0-11.5a.9.9 0 1 0 0 1.8.9.9 0 0 0 0-1.8zm0-5.8a.9.9 0 1 0 0 1.8.9.9 0 0 0 0-1.8zm0-5.8a.9.9 0 1 0 0 1.8.9.9 0 0 0 0-1.8zm5.8-5.7a.9.9 0 1 0 0 1.8.9.9 0 0 0 0-1.8zm8.6 8.6a.9.9 0 1 0 0 1.8.9.9 0 0 0 0-1.8zm0 17.3a.9.9 0 1 0 0 1.8.9.9 0 0 0 0-1.8zm0 5.8a.9.9 0 1 0 0 1.8.9.9 0 0 0 0-1.8zm0-11.6a.9.9 0 1 0 0 1.8.9.9 0 0 0 0-1.8zm0-5.7a.9.9 0 1 0 0 1.8.9.9 0 0 0 0-1.8zm0 23a.9.9 0 1 0 0 1.8.9.9 0 0 0 0-1.8zm-34.5 5.8a.9.9 0 1 0 0 1.8.9.9 0 0 0 0-1.8zm31.7-49a.9.9 0 1 0 0 1.8.9.9 0 0 0 0-1.8zm2.8 54.8a.9.9 0 1 0 0 1.8.9.9 0 0 0 0-1.8zm-2.8-60.6a.9.9 0 1 0 0 1.8.9.9 0 0 0 0-1.8zm2.8 54.8a.9.9 0 1 0 0 1.8.9.9 0 0 0 0-1.8zm2.9 2.9a.9.9 0 1 0 0 1.8.9.9 0 0 0 0-1.8zm0-28.8a.9.9 0 1 0 0 1.8.9.9 0 0 0 0-1.8zm0 11.5a.9.9 0 1 0 0 1.8.9.9 0 0 0 0-1.8zm-11.5-40.4a.9.9 0 1 0 0 1.8.9.9 0 0 0 0-1.8zm11.5 17.3a.9.9 0 1 0 0 1.8.9.9 0 0 0 0-1.8zm-2.9-2.9a.9.9 0 1 0 0 1.8.9.9 0 0 0 0-1.8zm2.9 8.7a.9.9 0 1 0 0 1.8.9.9 0 0 0 0-1.8zm-2.9-20.2a.9.9 0 1 0 0 1.8.9.9 0 0 0 0-1.8zm2.9 43.2a.9.9 0 1 0 0 1.8.9.9 0 0 0 0-1.8zm-2.9-37.4a.9.9 0 1 0 0 1.8.9.9 0 0 0 0-1.8zm-2.8 8.6a.9.9 0 1 0 0 1.8.9.9 0 0 0 0-1.8zm5.7 34.6a.9.9 0 1 0 0 1.8.9.9 0 0 0 0-1.8zm0-17.3a.9.9 0 1 0 0 1.8.9.9 0 0 0 0-1.8zm-8.6 2.9a.9.9 0 1 0 0 1.8.9.9 0 0 0 0-1.8zm0-5.8a.9.9 0 1 0 0 1.8.9.9 0 0 0 0-1.8zm0 11.6a.9.9 0 1 0 0 1.8.9.9 0 0 0 0-1.8zm0-17.3a.9.9 0 1 0 0 1.8.9.9 0 0 0 0-1.8zm0-5.8a.9.9 0 1 0 0 1.8.9.9 0 0 0 0-1.8zm0-5.8a.9.9 0 1 0 0 1.8.9.9 0 0 0 0-1.8zm0 51.9a.9.9 0 1 0 0 1.8.9.9 0 0 0 0-1.8zm-2.9-72a.9.9 0 1 0 0 1.8.9.9 0 0 0 0-1.8zm2.9 54.7a.9.9 0 1 0 0 1.8.9.9 0 0 0 0-1.8zm0 11.6a.9.9 0 1 0 0 1.8.9.9 0 0 0 0-1.8zm0-5.8a.9.9 0 1 0 0 1.8.9.9 0 0 0 0-1.8zm0-51.9a.9.9 0 1 0 0 1.8.9.9 0 0 0 0-1.8zm2.9 37.5a.9.9 0 1 0 0 1.8.9.9 0 0 0 0-1.8zm0 5.7a.9.9 0 1 0 0 1.8.9.9 0 0 0 0-1.8zm0-17.2a.9.9 0 1 0 0 1.8.9.9 0 0 0 0-1.8zm0 5.7a.9.9 0 1 0 0 1.8.9.9 0 0 0 0-1.8zm0 17.3a.9.9 0 1 0 0 1.8.9.9 0 0 0 0-1.8zm-2.9-43.2a.9.9 0 1 0 0 1.8.9.9 0 0 0 0-1.8zm2.9 14.4a.9.9 0 1 0 0 1.8.9.9 0 0 0 0-1.8zm-2.9-25.9a.9.9 0 1 0 0 1.8.9.9 0 0 0 0-1.8zm2.9 60.5a.9.9 0 1 0 0 1.8.9.9 0 0 0 0-1.8zm0 5.7a.9.9 0 1 0 0 1.8.9.9 0 0 0 0-1.8zm0-51.8a.9.9 0 1 0 0 1.8.9.9 0 0 0 0-1.8zm-26 31.7a.9.9 0 1 0 0 1.8.9.9 0 0 0 0-1.8zm0 11.5a.9.9 0 1 0 0 1.8.9.9 0 0 0 0-1.8zm0-5.8a.9.9 0 1 0 0 1.8.9.9 0 0 0 0-1.8zm0-11.5a.9.9 0 1 0 0 1.8.9.9 0 0 0 0-1.8zm0-5.8a.9.9 0 1 0 0 1.8.9.9 0 0 0 0-1.8zm-2.9-37.4a.9.9 0 1 0 0 1.8.9.9 0 0 0 0-1.8zm0 5.7a.9.9 0 1 0 0 1.8.9.9 0 0 0 0-1.8zm2.9 60.6a.9.9 0 1 0 0 1.8.9.9 0 0 0 0-1.8zm0-34.6a.9.9 0 1 0 0 1.8.9.9 0 0 0 0-1.8zm0 46.1a.9.9 0 1 0 0 1.8.9.9 0 0 0 0-1.8zm0-5.8a.9.9 0 1 0 0 1.8.9.9 0 0 0 0-1.8zm3.2-8.5c-.1 0-.2-.1-.3-.1-.5 0-.9.4-.9.9s.4.9.9.9c.1 0 .2 0 .3-.1.2-.1.4-.3.5-.5 0-.1.1-.2.1-.3s0-.2-.1-.3c-.1-.3-.2-.4-.5-.5zm0 11.5c-.1 0-.2-.1-.3-.1-.5 0-.9.4-.9.9s.4.9.9.9c.1 0 .2 0 .3-.1.2-.1.4-.3.5-.5 0-.1.1-.2.1-.3s0-.2-.1-.3c-.1-.3-.2-.4-.5-.5zm0-5.8c-.1 0-.2-.1-.3-.1-.5 0-.9.4-.9.9s.4.9.9.9c.1 0 .2 0 .3-.1.2-.1.4-.3.5-.5 0-.1.1-.2.1-.3s0-.2-.1-.3c-.1-.2-.2-.4-.5-.5zm-6.1-57.7a.9.9 0 1 0 0 1.8.9.9 0 0 0 0-1.8zm6.1 34.7c-.1 0-.2-.1-.3-.1-.5 0-.9.4-.9.9s.4.9.9.9c.1 0 .2 0 .3-.1.2-.1.4-.3.5-.5 0-.1.1-.2.1-.3s0-.2-.1-.3c-.1-.3-.2-.4-.5-.5zm0 11.5c-.1 0-.2-.1-.3-.1-.5 0-.9.4-.9.9s.4.9.9.9c.1 0 .2 0 .3-.1.2-.1.4-.3.5-.5 0-.1.1-.2.1-.3s0-.2-.1-.3c-.1-.2-.2-.4-.5-.5zm-3.2-60.6a.9.9 0 1 0 0 1.8.9.9 0 0 0 0-1.8zm0 23a.9.9 0 1 0 0 1.8.9.9 0 0 0 0-1.8zm0 5.8a.9.9 0 1 0 0 1.8.9.9 0 0 0 0-1.8zm0-11.5a.9.9 0 1 0 0 1.8.9.9 0 0 0 0-1.8zm0-5.8a.9.9 0 1 0 0 1.8.9.9 0 0 0 0-1.8zm0-5.7a.9.9 0 1 0 0 1.8.9.9 0 0 0 0-1.8zm3.2 49c-.1 0-.2-.1-.3-.1-.5 0-.9.4-.9.9s.4.9.9.9c.1 0 .2 0 .3-.1.2-.1.4-.3.5-.5 0-.1.1-.2.1-.3s0-.2-.1-.3c-.1-.2-.2-.4-.5-.5zm-8.9-37.5a.9.9 0 1 0 0 1.8.9.9 0 0 0 0-1.8zm0 5.7a.9.9 0 1 0 0 1.8.9.9 0 0 0 0-1.8zm0 5.8a.9.9 0 1 0 0 1.8.9.9 0 0 0 0-1.8zm0-23a.9.9 0 1 0 0 1.8.9.9 0 0 0 0-1.8zm0 5.7a.9.9 0 1 0 0 1.8.9.9 0 0 0 0-1.8zm0 46.1a.9.9 0 1 0 0 1.8.9.9 0 0 0 0-1.8zm0-57.6a.9.9 0 1 0 0 1.8.9.9 0 0 0 0-1.8zm2.8 20.2a.9.9 0 1 0 0 1.8.9.9 0 0 0 0-1.8zm-2.8 14.4a.9.9 0 1 0 0 1.8.9.9 0 0 0 0-1.8zm0 5.7a.9.9 0 1 0 0 1.8.9.9 0 0 0 0-1.8zm0 5.8a.9.9 0 1 0 0 1.8.9.9 0 0 0 0-1.8zm0 5.8a.9.9 0 1 0 0 1.8.9.9 0 0 0 0-1.8zm2.8-8.7a.9.9 0 1 0 0 1.8.9.9 0 0 0 0-1.8zm0-5.7a.9.9 0 1 0 0 1.8.9.9 0 0 0 0-1.8zm0-11.6a.9.9 0 1 0 0 1.8.9.9 0 0 0 0-1.8zm0 5.8a.9.9 0 1 0 0 1.8.9.9 0 0 0 0-1.8zm0 17.3a.9.9 0 1 0 0 1.8.9.9 0 0 0 0-1.8zm0 5.7a.9.9 0 1 0 0 1.8.9.9 0 0 0 0-1.8zm0 17.3a.9.9 0 1 0 0 1.8.9.9 0 0 0 0-1.8zm0-5.7a.9.9 0 1 0 0 1.8.9.9 0 0 0 0-1.8zm0-5.8a.9.9 0 1 0 0 1.8.9.9 0 0 0 0-1.8zm0 17.3a.9.9 0 1 0 0 1.8.9.9 0 0 0 0-1.8zm11.6-69.2a.9.9 0 1 0 0 1.8.9.9 0 0 0 0-1.8zm0 11.6a.9.9 0 1 0 0 1.8.9.9 0 0 0 0-1.8zm0 17.3a.9.9 0 1 0 0 1.8.9.9 0 0 0 0-1.8zm0-5.8a.9.9 0 1 0 0 1.8.9.9 0 0 0 0-1.8zm0-5.8a.9.9 0 1 0 0 1.8.9.9 0 0 0 0-1.8zm0 23.1a.9.9 0 1 0 0 1.8.9.9 0 0 0 0-1.8zm0-5.8a.9.9 0 1 0 0 1.8.9.9 0 0 0 0-1.8zm0 28.8a.9.9 0 1 0 0 1.8.9.9 0 0 0 0-1.8zm0 5.8a.9.9 0 1 0 0 1.8.9.9 0 0 0 0-1.8zm0-11.5a.9.9 0 1 0 0 1.8.9.9 0 0 0 0-1.8zm0-11.6a.9.9 0 1 0 0 1.8.9.9 0 0 0 0-1.8zm0 5.8a.9.9 0 1 0 0 1.8.9.9 0 0 0 0-1.8zm2.9-8.6a.9.9 0 1 0 0 1.8.9.9 0 0 0 0-1.8zm0 17.3a.9.9 0 1 0 0 1.8.9.9 0 0 0 0-1.8zm0-11.6a.9.9 0 1 0 0 1.8.9.9 0 0 0 0-1.8zm0 5.8a.9.9 0 1 0 0 1.8.9.9 0 0 0 0-1.8zm-2.9-49a.9.9 0 1 0 0 1.8.9.9 0 0 0 0-1.8zm-2.9-14.4a.9.9 0 1 0 0 1.8.9.9 0 0 0 0-1.8zm5.8 46.1a.9.9 0 1 0 0 1.8.9.9 0 0 0 0-1.8zm0 28.8a.9.9 0 1 0 0 1.8.9.9 0 0 0 0-1.8zm-2.9-72a.9.9 0 1 0 0 1.8.9.9 0 0 0 0-1.8zm2.9 37.4a.9.9 0 1 0 0 1.8.9.9 0 0 0 0-1.8zm0 40.4a.9.9 0 1 0 0 1.8.9.9 0 0 0 0-1.8zm-5.8-17.3a.9.9 0 1 0 0 1.8.9.9 0 0 0 0-1.8zm-2.6-54.7c-.1 0-.2-.1-.3-.1-.5 0-.9.4-.9.9s.4.9.9.9c.1 0 .2 0 .3-.1.2-.1.4-.3.5-.5 0-.1.1-.2.1-.3s0-.2-.1-.3c-.1-.2-.2-.4-.5-.5zm2.6 60.5a.9.9 0 1 0 0 1.8.9.9 0 0 0 0-1.8zm-2.6-66.2c-.1 0-.2-.1-.3-.1-.5 0-.9.4-.9.9s.4.9.9.9c.1 0 .2 0 .3-.1.2-.1.4-.3.5-.5 0-.1.1-.2.1-.3s0-.2-.1-.3c-.1-.3-.2-.5-.5-.5zm2.6 71.9a.9.9 0 1 0 0 1.8.9.9 0 0 0 0-1.8zm0 5.8a.9.9 0 1 0 0 1.8.9.9 0 0 0 0-1.8zm-2.2-83.1h-1.4c-.1.1-.2.3-.2.5 0 .4.4.8.9.8.1 0 .2 0 .3-.1.2-.1.4-.3.5-.5 0-.1.1-.2.1-.3s0-.2-.1-.3l-.1-.1zm-.4 34.2c-.1 0-.2-.1-.3-.1-.5 0-.9.4-.9.9s.4.9.9.9c.1 0 .2 0 .3-.1.2-.1.4-.3.5-.5 0-.1.1-.2.1-.3s0-.2-.1-.3c-.1-.3-.2-.4-.5-.5zm2.6-26a.9.9 0 1 0 0 1.8.9.9 0 0 0 0-1.8zm-2.6 31.7c-.1 0-.2-.1-.3-.1-.5 0-.9.4-.9.9s.4.9.9.9c.1 0 .2 0 .3-.1.2-.1.4-.3.5-.5 0-.1.1-.2.1-.3s0-.2-.1-.3c-.1-.2-.2-.4-.5-.5zm0-17.2c-.1 0-.2-.1-.3-.1-.5 0-.9.4-.9.9s.4.9.9.9c.1 0 .2 0 .3-.1.2-.1.4-.3.5-.5 0-.1.1-.2.1-.3s0-.2-.1-.3c-.1-.3-.2-.5-.5-.5zm0 5.7c-.1 0-.2-.1-.3-.1-.5 0-.9.4-.9.9s.4.9.9.9c.1 0 .2 0 .3-.1.2-.1.4-.3.5-.5 0-.1.1-.2.1-.3s0-.2-.1-.3c-.1-.2-.2-.4-.5-.5zm0-11.5c-.1 0-.2-.1-.3-.1-.5 0-.9.4-.9.9s.4.9.9.9c.1 0 .2 0 .3-.1.2-.1.4-.3.5-.5 0-.1.1-.2.1-.3s0-.2-.1-.3c-.1-.3-.2-.4-.5-.5zm2.6 8.5a.9.9 0 1 0 0 1.8.9.9 0 0 0 0-1.8zm0 11.6a.9.9 0 1 0 0 1.8.9.9 0 0 0 0-1.8zm0-5.8a.9.9 0 1 0 0 1.8.9.9 0 0 0 0-1.8zm-2.6 14.5c-.1 0-.2-.1-.3-.1-.5 0-.9.4-.9.9s.4.9.9.9c.1 0 .2 0 .3-.1.2-.1.4-.3.5-.5 0-.1.1-.2.1-.3s0-.2-.1-.3c-.1-.2-.2-.4-.5-.5zm2.6-31.8a.9.9 0 1 0 0 1.8.9.9 0 0 0 0-1.8zm0 5.8a.9.9 0 1 0 0 1.8.9.9 0 0 0 0-1.8zm0 34.6a.9.9 0 1 0 0 1.8.9.9 0 0 0 0-1.8zm0-5.8a.9.9 0 1 0 0 1.8.9.9 0 0 0 0-1.8zm0 11.5a.9.9 0 1 0 0 1.8.9.9 0 0 0 0-1.8zm0-17.3a.9.9 0 1 0 0 1.8.9.9 0 0 0 0-1.8zm-37.2-25.8c-.3.4-.7.9-1 1.3.2.2.4.4.7.4.5 0 .9-.4.9-.9 0-.4-.3-.7-.6-.8z" fill="#fffb00"/>
    <path d="M153.6 59.6a6.7 6.7 0 1 1 0 13.4 6.7 6.7 0 0 1 0-13.4zm-54.7 0a6.7 6.7 0 1 1 0 13.4 6.7 6.7 0 0 1 0-13.4z" opacity=".35" fill="#f8b83e"/>
    <path d="M126.2 2.3C99.6 2.3 78 24 78 50.6s21.7 48.3 48.3 48.3 48.3-21.7 48.3-48.3c-.1-26.6-21.7-48.3-48.4-48.3zm0 91.6C102.3 93.9 83 74.5 83 50.6s19.3-43.3 43.2-43.3 43.3 19.4 43.3 43.3-19.4 43.3-43.3 43.3zm-72-91.1h-4.6L4.2 68.6v4.3h44.4v21.6h5.5V72.9h14.5v-5.1H54.2v-65zm-5.5 65H11.1l37.6-54.3v54.3zm187 0v-65h-4.5l-45.4 65.8v4.3h44.4v21.6h5.5V72.9h14.4v-5.1h-14.4zm-5.5 0h-37.6l37.6-54.3v54.3zm-81.6-19.7c0 2.209-1.746 4-3.9 4s-3.9-1.791-3.9-4 1.746-4 3.9-4 3.9 1.791 3.9 4zm-36.9 0c0 2.209-1.746 4-3.9 4s-3.9-1.791-3.9-4 1.746-4 3.9-4 3.9 1.791 3.9 4zm-2.2-16.3c-3.2.3-6.2 1.6-8.6 3.6-1.5-1.7-.4-.3-1.6-1.8 2.8-2.4 6.4-3.9 10-4.2.2 2.2.1.6.2 2.4zm33.8-2.4c3.6.3 7.2 1.8 10 4.2-1.2 1.5-.1.1-1.6 1.8-2.4-2-5.4-3.3-8.6-3.6.1-1.8 0-.2.2-2.4zm-5.6 40.2l-2.8 2.8c-2.1-2.5-5.2-4.1-8.7-4.1s-6.6 1.6-8.7 4.1l-2.8-2.8c2.8-3.3 6.9-5.3 11.5-5.3s8.7 2.1 11.5 5.3z"/>
</svg>
