<?xml version="1.0" encoding="utf-8"?>
<!-- Generator: Adobe Illustrator 21.1.0, SVG Export Plug-In . SVG Version: 6.00 Build 0)  -->
<svg version="1.1" id="Layer_1" xmlns="http://www.w3.org/2000/svg" xmlns:xlink="http://www.w3.org/1999/xlink" x="0px" y="0px"
	 viewBox="0 0 257.7 104.2" style="enable-background:new 0 0 257.7 104.2;" xml:space="preserve">
<style type="text/css">
	.st0{fill:#D8D5C8;}
	.st1{fill:#FFED00;}
	.st2{fill:#FFFB00;}
	.st3{opacity:0.35;fill:#F8B83E;}
</style>
<path class="st0" d="M58.1,6.3h-4.6L8.2,72.1v4.3h44.4V98h5.5V76.4h14.4v-5.1H58.1V6.3L58.1,6.3z M52.7,71.3H15.1L52.7,17V71.3z
	 M239.6,71.3v-65h-4.5l-45.4,65.8v4.3h44.4V98h5.5V76.4H254v-5.1H239.6L239.6,71.3z M234.2,71.3h-37.6L234.2,17V71.3L234.2,71.3z
	 M130.4,4.9c-26.6,0-48.3,21.7-48.3,48.3s21.7,48.3,48.3,48.3s48.3-21.7,48.3-48.3C178.7,26.5,157.1,4.9,130.4,4.9z M130.4,96.5
	c-23.9,0-43.3-19.4-43.3-43.3c0.1-24,19.4-43.3,43.3-43.3s43.3,19.4,43.3,43.3S154.3,96.5,130.4,96.5z"/>
<path class="st1" d="M126.2,93.9c-23.8,0-43.3-19.4-43.3-43.3s19.5-43.3,43.3-43.3s43.3,19.5,43.3,43.3S150.2,93.9,126.2,93.9z"/>
<path class="st2" d="M111.74,9.8c-0.169,0.06-0.34,0.117-0.508,0.179c0.023-0.026,0.046-0.056,0.07-0.079c0.1,0,0.3-0.1,0.4-0.1
	C111.702,9.8,111.74,9.8,111.74,9.8z M91.302,76.2c0.3,0.5,0.7,0.9,1,1.3c0.004-0.004,0.006-0.012,0.01-0.016
	c-0.339-0.426-0.673-0.855-0.995-1.293C91.312,76.196,91.307,76.195,91.302,76.2z M85.202,64.7l0.6,1.5
	c0.009,0.002,0.015-0.002,0.024-0.001c-0.196-0.505-0.382-1.015-0.56-1.529C85.245,64.681,85.223,64.689,85.202,64.7z M119.602,7.8
	c0,0.002,0.001,0.003,0.001,0.005c0.111-0.017,0.224-0.028,0.336-0.044C119.826,7.774,119.721,7.78,119.602,7.8z M93.802,79.3
	c0.099,0.099,0.199,0.203,0.298,0.304c-0.095-0.104-0.184-0.214-0.277-0.319C93.816,79.291,93.809,79.293,93.802,79.3z
	 M162.902,27.7c0,0.005-0.004,0.011-0.005,0.016c0.051,0.081,0.105,0.16,0.155,0.242C163.002,27.872,162.945,27.786,162.902,27.7z
	 M132.902,7.8c-0.6-0.1-1.1-0.2-1.7-0.2v0.001c0.568,0.066,1.134,0.136,1.695,0.224C132.897,7.816,132.902,7.809,132.902,7.8
	L132.902,7.8z M155.902,19.1c-0.2-0.2-0.4-0.4-0.7-0.6h-0.033c0.249,0.225,0.489,0.46,0.733,0.69V19.1z M149.802,14.3
	c-0.4-0.3-0.9-0.6-1.3-0.8v0.036c0.421,0.255,0.833,0.525,1.245,0.794C149.767,14.319,149.78,14.311,149.802,14.3L149.802,14.3z
	 M151.802,15.7c-0.015,0.005-0.027,0.016-0.041,0.022c0.113,0.083,0.228,0.161,0.34,0.245C152.001,15.879,151.902,15.8,151.802,15.7
	z M112.602,91.7c0-0.002,0.002-0.005,0.002-0.007c-0.072-0.024-0.144-0.049-0.217-0.073C112.458,91.646,112.535,91.673,112.602,91.7
	z M95.002,80.6c0.007-0.007,0.013-0.014,0.02-0.021c-0.149-0.154-0.298-0.308-0.444-0.465C94.719,80.27,94.861,80.423,95.002,80.6z
	 M140.702,9.8c0.1,0,0.2,0.1,0.3,0.1C141.002,9.9,140.802,9.8,140.702,9.8z M99.802,84.9c0.4,0.3,0.9,0.7,1.3,1v-0.067
	c-0.431-0.308-0.857-0.622-1.276-0.946C99.817,84.892,99.812,84.895,99.802,84.9z M121.002,93.6
	c-0.025-0.012-0.05-0.022-0.075-0.034c-0.274-0.034-0.548-0.066-0.82-0.105 M161.502,25.6c-0.204-0.272-0.421-0.583-0.657-0.885
	c0.222,0.295,0.43,0.6,0.644,0.901C161.493,25.611,161.499,25.606,161.502,25.6z M83.902,56.8c0-0.4-0.3-0.7-0.6-0.8
	c0.1,0.5,0.1,1,0.2,1.5C83.702,57.4,83.902,57.1,83.902,56.8z M83.902,51c0-0.5-0.4-0.9-0.9-0.9v0.5v1.3
	C83.502,51.9,83.902,51.5,83.902,51z M83.902,45.3c0-0.3-0.2-0.6-0.5-0.8c-0.1,0.5-0.2,1.1-0.2,1.6
	C83.502,46,83.902,45.7,83.902,45.3z M86.802,59.7c0-0.497-0.403-0.9-0.9-0.9s-0.9,0.403-0.9,0.9s0.403,0.9,0.9,0.9
	S86.802,60.197,86.802,59.7z M86.802,53.9c0-0.497-0.403-0.9-0.9-0.9s-0.9,0.403-0.9,0.9s0.403,0.9,0.9,0.9
	S86.802,54.397,86.802,53.9z M86.802,48.2c0-0.497-0.403-0.9-0.9-0.9s-0.9,0.403-0.9,0.9s0.403,0.9,0.9,0.9
	S86.802,48.697,86.802,48.2z M86.802,42.4c0-0.497-0.403-0.9-0.9-0.9s-0.9,0.403-0.9,0.9s0.403,0.9,0.9,0.9
	S86.802,42.897,86.802,42.4z M86.802,36.6c0-0.5-0.4-0.9-0.9-0.9c-0.1,0-0.2,0-0.3,0.1c-0.1,0.4-0.3,0.8-0.4,1.2
	c0.1,0.3,0.3,0.5,0.7,0.5C86.402,37.5,86.802,37.1,86.802,36.6z M89.602,68.3c0-0.497-0.403-0.9-0.9-0.9s-0.9,0.403-0.9,0.9
	s0.403,0.9,0.9,0.9S89.602,68.797,89.602,68.3z M89.602,62.6c0-0.497-0.403-0.9-0.9-0.9s-0.9,0.403-0.9,0.9s0.403,0.9,0.9,0.9
	S89.602,63.097,89.602,62.6z M89.602,56.8c0-0.497-0.403-0.9-0.9-0.9s-0.9,0.403-0.9,0.9s0.403,0.9,0.9,0.9
	S89.602,57.297,89.602,56.8z M89.602,51c0-0.497-0.403-0.9-0.9-0.9s-0.9,0.403-0.9,0.9s0.403,0.9,0.9,0.9S89.602,51.497,89.602,51z
	 M89.602,45.3c0-0.497-0.403-0.9-0.9-0.9s-0.9,0.403-0.9,0.9s0.403,0.9,0.9,0.9S89.602,45.797,89.602,45.3z M89.602,39.5
	c0-0.497-0.403-0.9-0.9-0.9s-0.9,0.403-0.9,0.9s0.403,0.9,0.9,0.9S89.602,39.997,89.602,39.5z M89.602,33.7
	c0-0.497-0.403-0.9-0.9-0.9s-0.9,0.403-0.9,0.9s0.403,0.9,0.9,0.9S89.602,34.197,89.602,33.7z M89.602,28c0-0.1,0-0.2-0.1-0.3
	c-0.3,0.4-0.5,0.8-0.7,1.2C89.302,28.8,89.602,28.4,89.602,28z M92.502,71.2c0-0.497-0.403-0.9-0.9-0.9s-0.9,0.403-0.9,0.9
	s0.403,0.9,0.9,0.9S92.502,71.697,92.502,71.2z M92.502,65.4c0-0.497-0.403-0.9-0.9-0.9s-0.9,0.403-0.9,0.9s0.403,0.9,0.9,0.9
	S92.502,65.897,92.502,65.4z M92.502,59.7c0-0.497-0.403-0.9-0.9-0.9s-0.9,0.403-0.9,0.9s0.403,0.9,0.9,0.9
	S92.502,60.197,92.502,59.7z M92.502,53.9c0-0.497-0.403-0.9-0.9-0.9s-0.9,0.403-0.9,0.9s0.403,0.9,0.9,0.9
	S92.502,54.397,92.502,53.9z M92.502,48.2c0-0.497-0.403-0.9-0.9-0.9s-0.9,0.403-0.9,0.9s0.403,0.9,0.9,0.9
	S92.502,48.697,92.502,48.2z M92.502,42.4c0-0.497-0.403-0.9-0.9-0.9s-0.9,0.403-0.9,0.9s0.403,0.9,0.9,0.9
	S92.502,42.897,92.502,42.4z M92.502,36.6c0-0.497-0.403-0.9-0.9-0.9s-0.9,0.403-0.9,0.9s0.403,0.9,0.9,0.9
	S92.502,37.097,92.502,36.6z M92.502,30.9c0-0.497-0.403-0.9-0.9-0.9s-0.9,0.403-0.9,0.9s0.403,0.9,0.9,0.9
	S92.502,31.397,92.502,30.9z M92.502,25.1c0-0.4-0.3-0.7-0.6-0.8c-0.3,0.4-0.7,0.9-1,1.3c0.2,0.2,0.4,0.4,0.7,0.4
	C92.102,26,92.502,25.6,92.502,25.1z M95.402,74.1c0-0.497-0.403-0.9-0.9-0.9s-0.9,0.403-0.9,0.9s0.403,0.9,0.9,0.9
	S95.402,74.597,95.402,74.1z M95.402,68.3c0-0.497-0.403-0.9-0.9-0.9s-0.9,0.403-0.9,0.9s0.403,0.9,0.9,0.9
	S95.402,68.797,95.402,68.3z M95.402,62.6c0-0.497-0.403-0.9-0.9-0.9s-0.9,0.403-0.9,0.9s0.403,0.9,0.9,0.9
	S95.402,63.097,95.402,62.6z M95.402,56.8c0-0.497-0.403-0.9-0.9-0.9s-0.9,0.403-0.9,0.9s0.403,0.9,0.9,0.9
	S95.402,57.297,95.402,56.8z M95.402,51c0-0.497-0.403-0.9-0.9-0.9s-0.9,0.403-0.9,0.9s0.403,0.9,0.9,0.9S95.402,51.497,95.402,51z
	 M95.402,45.3c0-0.497-0.403-0.9-0.9-0.9s-0.9,0.403-0.9,0.9s0.403,0.9,0.9,0.9S95.402,45.797,95.402,45.3z M95.402,39.5
	c0-0.497-0.403-0.9-0.9-0.9s-0.9,0.403-0.9,0.9s0.403,0.9,0.9,0.9S95.402,39.997,95.402,39.5z M95.402,33.7
	c0-0.497-0.403-0.9-0.9-0.9s-0.9,0.403-0.9,0.9s0.403,0.9,0.9,0.9S95.402,34.197,95.402,33.7z M95.402,28c0-0.497-0.403-0.9-0.9-0.9
	s-0.9,0.403-0.9,0.9s0.403,0.9,0.9,0.9S95.402,28.497,95.402,28z M98.302,82.7c0-0.5-0.4-0.9-0.9-0.9c-0.3,0-0.6,0.2-0.7,0.4
	c0.4,0.4,0.8,0.8,1.3,1.1C98.102,83.2,98.302,83,98.302,82.7z M98.302,77c0-0.497-0.403-0.9-0.9-0.9s-0.9,0.403-0.9,0.9
	s0.403,0.9,0.9,0.9S98.302,77.497,98.302,77z M98.302,71.2c0-0.497-0.403-0.9-0.9-0.9s-0.9,0.403-0.9,0.9s0.403,0.9,0.9,0.9
	S98.302,71.697,98.302,71.2z M98.302,65.4c0-0.497-0.403-0.9-0.9-0.9s-0.9,0.403-0.9,0.9s0.403,0.9,0.9,0.9
	S98.302,65.897,98.302,65.4z M98.302,59.7c0-0.497-0.403-0.9-0.9-0.9s-0.9,0.403-0.9,0.9s0.403,0.9,0.9,0.9
	S98.302,60.197,98.302,59.7z M98.302,53.9c0-0.497-0.403-0.9-0.9-0.9s-0.9,0.403-0.9,0.9s0.403,0.9,0.9,0.9
	S98.302,54.397,98.302,53.9z M98.302,48.2c0-0.497-0.403-0.9-0.9-0.9s-0.9,0.403-0.9,0.9s0.403,0.9,0.9,0.9
	S98.302,48.697,98.302,48.2z M98.302,42.4c0-0.497-0.403-0.9-0.9-0.9s-0.9,0.403-0.9,0.9s0.403,0.9,0.9,0.9
	S98.302,42.897,98.302,42.4z M98.302,36.6c0-0.497-0.403-0.9-0.9-0.9s-0.9,0.403-0.9,0.9s0.403,0.9,0.9,0.9
	S98.302,37.097,98.302,36.6z M98.302,30.9c0-0.497-0.403-0.9-0.9-0.9s-0.9,0.403-0.9,0.9s0.403,0.9,0.9,0.9
	S98.302,31.397,98.302,30.9z M98.302,25.1c0-0.497-0.403-0.9-0.9-0.9s-0.9,0.403-0.9,0.9s0.403,0.9,0.9,0.9
	S98.302,25.597,98.302,25.1z M101.202,79.9c0-0.497-0.403-0.9-0.9-0.9s-0.9,0.403-0.9,0.9s0.403,0.9,0.9,0.9
	S101.202,80.397,101.202,79.9z M101.202,74.1c0-0.497-0.403-0.9-0.9-0.9s-0.9,0.403-0.9,0.9s0.403,0.9,0.9,0.9
	S101.202,74.597,101.202,74.1z M101.202,68.3c0-0.497-0.403-0.9-0.9-0.9s-0.9,0.403-0.9,0.9s0.403,0.9,0.9,0.9
	S101.202,68.797,101.202,68.3z M101.202,62.6c0-0.497-0.403-0.9-0.9-0.9s-0.9,0.403-0.9,0.9s0.403,0.9,0.9,0.9
	S101.202,63.097,101.202,62.6z M101.202,56.8c0-0.497-0.403-0.9-0.9-0.9s-0.9,0.403-0.9,0.9s0.403,0.9,0.9,0.9
	S101.202,57.297,101.202,56.8z M101.202,51c0-0.497-0.403-0.9-0.9-0.9s-0.9,0.403-0.9,0.9s0.403,0.9,0.9,0.9
	S101.202,51.497,101.202,51z M101.202,45.3c0-0.497-0.403-0.9-0.9-0.9s-0.9,0.403-0.9,0.9s0.403,0.9,0.9,0.9
	S101.202,45.797,101.202,45.3z M101.202,39.5c0-0.497-0.403-0.9-0.9-0.9s-0.9,0.403-0.9,0.9s0.403,0.9,0.9,0.9
	S101.202,39.997,101.202,39.5z M101.202,33.7c0-0.497-0.403-0.9-0.9-0.9s-0.9,0.403-0.9,0.9s0.403,0.9,0.9,0.9
	S101.202,34.197,101.202,33.7z M101.202,28c0-0.497-0.403-0.9-0.9-0.9s-0.9,0.403-0.9,0.9s0.403,0.9,0.9,0.9
	S101.202,28.497,101.202,28z M101.202,22.2c0-0.497-0.403-0.9-0.9-0.9s-0.9,0.403-0.9,0.9s0.403,0.9,0.9,0.9
	S101.202,22.697,101.202,22.2z M104.002,82.7c0-0.497-0.403-0.9-0.9-0.9s-0.9,0.403-0.9,0.9s0.403,0.9,0.9,0.9
	S104.002,83.197,104.002,82.7z M104.002,77c0-0.497-0.403-0.9-0.9-0.9s-0.9,0.403-0.9,0.9s0.403,0.9,0.9,0.9
	S104.002,77.497,104.002,77z M104.002,71.2c0-0.497-0.403-0.9-0.9-0.9s-0.9,0.403-0.9,0.9s0.403,0.9,0.9,0.9
	S104.002,71.697,104.002,71.2z M104.002,65.4c0-0.497-0.403-0.9-0.9-0.9s-0.9,0.403-0.9,0.9s0.403,0.9,0.9,0.9
	S104.002,65.897,104.002,65.4z M104.002,59.7c0-0.497-0.403-0.9-0.9-0.9s-0.9,0.403-0.9,0.9s0.403,0.9,0.9,0.9
	S104.002,60.197,104.002,59.7z M104.002,53.9c0-0.497-0.403-0.9-0.9-0.9s-0.9,0.403-0.9,0.9s0.403,0.9,0.9,0.9
	S104.002,54.397,104.002,53.9z M104.002,48.2c0-0.497-0.403-0.9-0.9-0.9s-0.9,0.403-0.9,0.9s0.403,0.9,0.9,0.9
	S104.002,48.697,104.002,48.2z M104.002,42.4c0-0.497-0.403-0.9-0.9-0.9s-0.9,0.403-0.9,0.9s0.403,0.9,0.9,0.9
	S104.002,42.897,104.002,42.4z M104.002,36.6c0-0.497-0.403-0.9-0.9-0.9s-0.9,0.403-0.9,0.9s0.403,0.9,0.9,0.9
	S104.002,37.097,104.002,36.6z M104.002,30.9c0-0.497-0.403-0.9-0.9-0.9s-0.9,0.403-0.9,0.9s0.403,0.9,0.9,0.9
	S104.002,31.397,104.002,30.9z M104.002,25.1c0-0.497-0.403-0.9-0.9-0.9s-0.9,0.403-0.9,0.9s0.403,0.9,0.9,0.9
	S104.002,25.597,104.002,25.1z M104.002,19.3c0-0.497-0.403-0.9-0.9-0.9s-0.9,0.403-0.9,0.9s0.403,0.9,0.9,0.9
	S104.002,19.797,104.002,19.3z M104.002,13.5c-0.4,0.3-0.9,0.5-1.3,0.8c0.1,0.1,0.3,0.1,0.5,0.1c0.4,0.1,0.8-0.3,0.8-0.8V13.5z
	 M106.902,85.6c0-0.497-0.403-0.9-0.9-0.9s-0.9,0.403-0.9,0.9s0.403,0.9,0.9,0.9S106.902,86.097,106.902,85.6z M106.902,79.9
	c0-0.497-0.403-0.9-0.9-0.9s-0.9,0.403-0.9,0.9s0.403,0.9,0.9,0.9S106.902,80.397,106.902,79.9z M106.902,74.1
	c0-0.497-0.403-0.9-0.9-0.9s-0.9,0.403-0.9,0.9s0.403,0.9,0.9,0.9S106.902,74.597,106.902,74.1z M106.902,68.3
	c0-0.497-0.403-0.9-0.9-0.9s-0.9,0.403-0.9,0.9s0.403,0.9,0.9,0.9S106.902,68.797,106.902,68.3z M106.902,62.6
	c0-0.497-0.403-0.9-0.9-0.9s-0.9,0.403-0.9,0.9s0.403,0.9,0.9,0.9S106.902,63.097,106.902,62.6z M106.902,56.8
	c0-0.497-0.403-0.9-0.9-0.9s-0.9,0.403-0.9,0.9s0.403,0.9,0.9,0.9S106.902,57.297,106.902,56.8z M106.902,51
	c0-0.497-0.403-0.9-0.9-0.9s-0.9,0.403-0.9,0.9s0.403,0.9,0.9,0.9S106.902,51.497,106.902,51z M106.902,45.3
	c0-0.497-0.403-0.9-0.9-0.9s-0.9,0.403-0.9,0.9s0.403,0.9,0.9,0.9S106.902,45.797,106.902,45.3z M106.902,39.5
	c0-0.497-0.403-0.9-0.9-0.9s-0.9,0.403-0.9,0.9s0.403,0.9,0.9,0.9S106.902,39.997,106.902,39.5z M106.902,33.7
	c0-0.497-0.403-0.9-0.9-0.9s-0.9,0.403-0.9,0.9s0.403,0.9,0.9,0.9S106.902,34.197,106.902,33.7z M106.902,28
	c0-0.497-0.403-0.9-0.9-0.9s-0.9,0.403-0.9,0.9s0.403,0.9,0.9,0.9S106.902,28.497,106.902,28z M106.902,22.2
	c0-0.497-0.403-0.9-0.9-0.9s-0.9,0.403-0.9,0.9s0.403,0.9,0.9,0.9S106.902,22.697,106.902,22.2z M106.902,16.5
	c0-0.497-0.403-0.9-0.9-0.9s-0.9,0.403-0.9,0.9s0.403,0.9,0.9,0.9S106.902,16.997,106.902,16.5z M109.802,88.5
	c0-0.497-0.403-0.9-0.9-0.9s-0.9,0.403-0.9,0.9s0.403,0.9,0.9,0.9S109.802,88.997,109.802,88.5z M109.802,82.7
	c0-0.497-0.403-0.9-0.9-0.9s-0.9,0.403-0.9,0.9s0.403,0.9,0.9,0.9S109.802,83.197,109.802,82.7z M109.802,77
	c0-0.497-0.403-0.9-0.9-0.9s-0.9,0.403-0.9,0.9s0.403,0.9,0.9,0.9S109.802,77.497,109.802,77z M109.802,71.2
	c0-0.497-0.403-0.9-0.9-0.9s-0.9,0.403-0.9,0.9s0.403,0.9,0.9,0.9S109.802,71.697,109.802,71.2z M109.802,65.4
	c0-0.497-0.403-0.9-0.9-0.9s-0.9,0.403-0.9,0.9s0.403,0.9,0.9,0.9S109.802,65.897,109.802,65.4z M109.802,59.7
	c0-0.497-0.403-0.9-0.9-0.9s-0.9,0.403-0.9,0.9s0.403,0.9,0.9,0.9S109.802,60.197,109.802,59.7z M109.802,53.9
	c0-0.497-0.403-0.9-0.9-0.9s-0.9,0.403-0.9,0.9s0.403,0.9,0.9,0.9S109.802,54.397,109.802,53.9z M109.802,48.2
	c0-0.497-0.403-0.9-0.9-0.9s-0.9,0.403-0.9,0.9s0.403,0.9,0.9,0.9S109.802,48.697,109.802,48.2z M109.802,42.4
	c0-0.497-0.403-0.9-0.9-0.9s-0.9,0.403-0.9,0.9s0.403,0.9,0.9,0.9S109.802,42.897,109.802,42.4z M109.802,36.6
	c0-0.497-0.403-0.9-0.9-0.9s-0.9,0.403-0.9,0.9s0.403,0.9,0.9,0.9S109.802,37.097,109.802,36.6z M109.802,30.9
	c0-0.497-0.403-0.9-0.9-0.9s-0.9,0.403-0.9,0.9s0.403,0.9,0.9,0.9S109.802,31.397,109.802,30.9z M109.802,25.1
	c0-0.497-0.403-0.9-0.9-0.9s-0.9,0.403-0.9,0.9s0.403,0.9,0.9,0.9S109.802,25.597,109.802,25.1z M109.802,19.3
	c0-0.497-0.403-0.9-0.9-0.9s-0.9,0.403-0.9,0.9s0.403,0.9,0.9,0.9S109.802,19.797,109.802,19.3z M109.802,13.6
	c0-0.497-0.403-0.9-0.9-0.9s-0.9,0.403-0.9,0.9s0.403,0.9,0.9,0.9S109.802,14.097,109.802,13.6z M112.702,85.6
	c0-0.497-0.403-0.9-0.9-0.9s-0.9,0.403-0.9,0.9s0.403,0.9,0.9,0.9S112.702,86.097,112.702,85.6z M112.702,79.9
	c0-0.497-0.403-0.9-0.9-0.9s-0.9,0.403-0.9,0.9s0.403,0.9,0.9,0.9S112.702,80.397,112.702,79.9z M112.702,74.1
	c0-0.497-0.403-0.9-0.9-0.9s-0.9,0.403-0.9,0.9s0.403,0.9,0.9,0.9S112.702,74.597,112.702,74.1z M112.702,68.3
	c0-0.497-0.403-0.9-0.9-0.9s-0.9,0.403-0.9,0.9s0.403,0.9,0.9,0.9S112.702,68.797,112.702,68.3z M112.702,62.6
	c0-0.497-0.403-0.9-0.9-0.9s-0.9,0.403-0.9,0.9s0.403,0.9,0.9,0.9S112.702,63.097,112.702,62.6z M112.702,56.8
	c0-0.497-0.403-0.9-0.9-0.9s-0.9,0.403-0.9,0.9s0.403,0.9,0.9,0.9S112.702,57.297,112.702,56.8z M112.702,51
	c0-0.497-0.403-0.9-0.9-0.9s-0.9,0.403-0.9,0.9s0.403,0.9,0.9,0.9S112.702,51.497,112.702,51z M112.702,45.3
	c0-0.497-0.403-0.9-0.9-0.9s-0.9,0.403-0.9,0.9s0.403,0.9,0.9,0.9S112.702,45.797,112.702,45.3z M112.702,39.5
	c0-0.497-0.403-0.9-0.9-0.9s-0.9,0.403-0.9,0.9s0.403,0.9,0.9,0.9S112.702,39.997,112.702,39.5z M112.702,33.7
	c0-0.497-0.403-0.9-0.9-0.9s-0.9,0.403-0.9,0.9s0.403,0.9,0.9,0.9S112.702,34.197,112.702,33.7z M112.702,28
	c0-0.497-0.403-0.9-0.9-0.9s-0.9,0.403-0.9,0.9s0.403,0.9,0.9,0.9S112.702,28.497,112.702,28z M112.702,22.2
	c0-0.497-0.403-0.9-0.9-0.9s-0.9,0.403-0.9,0.9s0.403,0.9,0.9,0.9S112.702,22.697,112.702,22.2z M112.702,16.5
	c0-0.497-0.403-0.9-0.9-0.9s-0.9,0.403-0.9,0.9s0.403,0.9,0.9,0.9S112.702,16.997,112.702,16.5z M115.602,88.5
	c0-0.497-0.403-0.9-0.9-0.9s-0.9,0.403-0.9,0.9s0.403,0.9,0.9,0.9S115.602,88.997,115.602,88.5z M115.602,82.7
	c0-0.497-0.403-0.9-0.9-0.9s-0.9,0.403-0.9,0.9s0.403,0.9,0.9,0.9S115.602,83.197,115.602,82.7z M115.602,77
	c0-0.497-0.403-0.9-0.9-0.9s-0.9,0.403-0.9,0.9s0.403,0.9,0.9,0.9S115.602,77.497,115.602,77z M115.602,71.2
	c0-0.497-0.403-0.9-0.9-0.9s-0.9,0.403-0.9,0.9s0.403,0.9,0.9,0.9S115.602,71.697,115.602,71.2z M115.602,65.4
	c0-0.497-0.403-0.9-0.9-0.9s-0.9,0.403-0.9,0.9s0.403,0.9,0.9,0.9S115.602,65.897,115.602,65.4z M115.602,59.7
	c0-0.497-0.403-0.9-0.9-0.9s-0.9,0.403-0.9,0.9s0.403,0.9,0.9,0.9S115.602,60.197,115.602,59.7z M115.602,53.9
	c0-0.497-0.403-0.9-0.9-0.9s-0.9,0.403-0.9,0.9s0.403,0.9,0.9,0.9S115.602,54.397,115.602,53.9z M115.602,48.2
	c0-0.497-0.403-0.9-0.9-0.9s-0.9,0.403-0.9,0.9s0.403,0.9,0.9,0.9S115.602,48.697,115.602,48.2z M115.602,42.4
	c0-0.497-0.403-0.9-0.9-0.9s-0.9,0.403-0.9,0.9s0.403,0.9,0.9,0.9S115.602,42.897,115.602,42.4z M115.602,36.6
	c0-0.497-0.403-0.9-0.9-0.9s-0.9,0.403-0.9,0.9s0.403,0.9,0.9,0.9S115.602,37.097,115.602,36.6z M115.602,30.9
	c0-0.497-0.403-0.9-0.9-0.9s-0.9,0.403-0.9,0.9s0.403,0.9,0.9,0.9S115.602,31.397,115.602,30.9z M115.602,25.1
	c0-0.497-0.403-0.9-0.9-0.9s-0.9,0.403-0.9,0.9s0.403,0.9,0.9,0.9S115.602,25.597,115.602,25.1z M115.602,19.3
	c0-0.497-0.403-0.9-0.9-0.9s-0.9,0.403-0.9,0.9s0.403,0.9,0.9,0.9S115.602,19.797,115.602,19.3z M115.602,13.6
	c0-0.497-0.403-0.9-0.9-0.9s-0.9,0.403-0.9,0.9s0.403,0.9,0.9,0.9S115.602,14.097,115.602,13.6z M118.502,91.4
	c0-0.497-0.403-0.9-0.9-0.9s-0.9,0.403-0.9,0.9s0.403,0.9,0.9,0.9S118.502,91.897,118.502,91.4z M118.502,85.6
	c0-0.497-0.403-0.9-0.9-0.9s-0.9,0.403-0.9,0.9s0.403,0.9,0.9,0.9S118.502,86.097,118.502,85.6z M118.502,79.9
	c0-0.497-0.403-0.9-0.9-0.9s-0.9,0.403-0.9,0.9s0.403,0.9,0.9,0.9S118.502,80.397,118.502,79.9z M118.502,74.1
	c0-0.497-0.403-0.9-0.9-0.9s-0.9,0.403-0.9,0.9s0.403,0.9,0.9,0.9S118.502,74.597,118.502,74.1z M118.502,68.3
	c0-0.497-0.403-0.9-0.9-0.9s-0.9,0.403-0.9,0.9s0.403,0.9,0.9,0.9S118.502,68.797,118.502,68.3z M118.502,62.6
	c0-0.497-0.403-0.9-0.9-0.9s-0.9,0.403-0.9,0.9s0.403,0.9,0.9,0.9S118.502,63.097,118.502,62.6z M118.502,56.8
	c0-0.497-0.403-0.9-0.9-0.9s-0.9,0.403-0.9,0.9s0.403,0.9,0.9,0.9S118.502,57.297,118.502,56.8z M118.502,51
	c0-0.497-0.403-0.9-0.9-0.9s-0.9,0.403-0.9,0.9s0.403,0.9,0.9,0.9S118.502,51.497,118.502,51z M118.502,45.3
	c0-0.497-0.403-0.9-0.9-0.9s-0.9,0.403-0.9,0.9s0.403,0.9,0.9,0.9S118.502,45.797,118.502,45.3z M118.502,39.5
	c0-0.497-0.403-0.9-0.9-0.9s-0.9,0.403-0.9,0.9s0.403,0.9,0.9,0.9S118.502,39.997,118.502,39.5z M118.502,33.7
	c0-0.497-0.403-0.9-0.9-0.9s-0.9,0.403-0.9,0.9s0.403,0.9,0.9,0.9S118.502,34.197,118.502,33.7z M118.502,28
	c0-0.497-0.403-0.9-0.9-0.9s-0.9,0.403-0.9,0.9s0.403,0.9,0.9,0.9S118.502,28.497,118.502,28z M118.502,22.2
	c0-0.497-0.403-0.9-0.9-0.9s-0.9,0.403-0.9,0.9s0.403,0.9,0.9,0.9S118.502,22.697,118.502,22.2z M118.502,16.5
	c0-0.497-0.403-0.9-0.9-0.9s-0.9,0.403-0.9,0.9s0.403,0.9,0.9,0.9S118.502,16.997,118.502,16.5z M118.502,10.7
	c0-0.497-0.403-0.9-0.9-0.9s-0.9,0.403-0.9,0.9s0.403,0.9,0.9,0.9S118.502,11.197,118.502,10.7z M121.302,88.5
	c0-0.497-0.403-0.9-0.9-0.9s-0.9,0.403-0.9,0.9s0.403,0.9,0.9,0.9S121.302,88.997,121.302,88.5z M121.302,82.7
	c0-0.497-0.403-0.9-0.9-0.9s-0.9,0.403-0.9,0.9s0.403,0.9,0.9,0.9S121.302,83.197,121.302,82.7z M121.302,77
	c0-0.497-0.403-0.9-0.9-0.9s-0.9,0.403-0.9,0.9s0.403,0.9,0.9,0.9S121.302,77.497,121.302,77z M121.302,71.2
	c0-0.497-0.403-0.9-0.9-0.9s-0.9,0.403-0.9,0.9s0.403,0.9,0.9,0.9S121.302,71.697,121.302,71.2z M121.302,65.4
	c0-0.497-0.403-0.9-0.9-0.9s-0.9,0.403-0.9,0.9s0.403,0.9,0.9,0.9S121.302,65.897,121.302,65.4z M121.302,59.7
	c0-0.497-0.403-0.9-0.9-0.9s-0.9,0.403-0.9,0.9s0.403,0.9,0.9,0.9S121.302,60.197,121.302,59.7z M121.302,53.9
	c0-0.497-0.403-0.9-0.9-0.9s-0.9,0.403-0.9,0.9s0.403,0.9,0.9,0.9S121.302,54.397,121.302,53.9z M121.302,48.2
	c0-0.497-0.403-0.9-0.9-0.9s-0.9,0.403-0.9,0.9s0.403,0.9,0.9,0.9S121.302,48.697,121.302,48.2z M121.302,42.4
	c0-0.497-0.403-0.9-0.9-0.9s-0.9,0.403-0.9,0.9s0.403,0.9,0.9,0.9S121.302,42.897,121.302,42.4z M121.302,36.6
	c0-0.497-0.403-0.9-0.9-0.9s-0.9,0.403-0.9,0.9s0.403,0.9,0.9,0.9S121.302,37.097,121.302,36.6z M121.302,30.9
	c0-0.497-0.403-0.9-0.9-0.9s-0.9,0.403-0.9,0.9s0.403,0.9,0.9,0.9S121.302,31.397,121.302,30.9z M121.302,25.1
	c0-0.497-0.403-0.9-0.9-0.9s-0.9,0.403-0.9,0.9s0.403,0.9,0.9,0.9S121.302,25.597,121.302,25.1z M121.302,19.3
	c0-0.497-0.403-0.9-0.9-0.9s-0.9,0.403-0.9,0.9s0.403,0.9,0.9,0.9S121.302,19.797,121.302,19.3z M121.302,13.6
	c0-0.497-0.403-0.9-0.9-0.9s-0.9,0.403-0.9,0.9s0.403,0.9,0.9,0.9S121.302,14.097,121.302,13.6z M124.202,91.4
	c0-0.497-0.403-0.9-0.9-0.9s-0.9,0.403-0.9,0.9s0.403,0.9,0.9,0.9S124.202,91.897,124.202,91.4z M124.202,85.6
	c0-0.497-0.403-0.9-0.9-0.9s-0.9,0.403-0.9,0.9s0.403,0.9,0.9,0.9S124.202,86.097,124.202,85.6z M124.202,79.9
	c0-0.497-0.403-0.9-0.9-0.9s-0.9,0.403-0.9,0.9s0.403,0.9,0.9,0.9S124.202,80.397,124.202,79.9z M124.202,74.1
	c0-0.497-0.403-0.9-0.9-0.9s-0.9,0.403-0.9,0.9s0.403,0.9,0.9,0.9S124.202,74.597,124.202,74.1z M124.202,68.3
	c0-0.497-0.403-0.9-0.9-0.9s-0.9,0.403-0.9,0.9s0.403,0.9,0.9,0.9S124.202,68.797,124.202,68.3z M124.202,62.6
	c0-0.497-0.403-0.9-0.9-0.9s-0.9,0.403-0.9,0.9s0.403,0.9,0.9,0.9S124.202,63.097,124.202,62.6z M124.202,56.8
	c0-0.497-0.403-0.9-0.9-0.9s-0.9,0.403-0.9,0.9s0.403,0.9,0.9,0.9S124.202,57.297,124.202,56.8z M124.202,51
	c0-0.497-0.403-0.9-0.9-0.9s-0.9,0.403-0.9,0.9s0.403,0.9,0.9,0.9S124.202,51.497,124.202,51z M124.202,45.3
	c0-0.497-0.403-0.9-0.9-0.9s-0.9,0.403-0.9,0.9s0.403,0.9,0.9,0.9S124.202,45.797,124.202,45.3z M124.202,39.5
	c0-0.497-0.403-0.9-0.9-0.9s-0.9,0.403-0.9,0.9s0.403,0.9,0.9,0.9S124.202,39.997,124.202,39.5z M124.202,33.7
	c0-0.497-0.403-0.9-0.9-0.9s-0.9,0.403-0.9,0.9s0.403,0.9,0.9,0.9S124.202,34.197,124.202,33.7z M124.202,28
	c0-0.497-0.403-0.9-0.9-0.9s-0.9,0.403-0.9,0.9s0.403,0.9,0.9,0.9S124.202,28.497,124.202,28z M124.202,22.2
	c0-0.497-0.403-0.9-0.9-0.9s-0.9,0.403-0.9,0.9s0.403,0.9,0.9,0.9S124.202,22.697,124.202,22.2z M124.202,16.5
	c0-0.497-0.403-0.9-0.9-0.9s-0.9,0.403-0.9,0.9s0.403,0.9,0.9,0.9S124.202,16.997,124.202,16.5z M124.202,10.7
	c0-0.497-0.403-0.9-0.9-0.9s-0.9,0.403-0.9,0.9s0.403,0.9,0.9,0.9S124.202,11.197,124.202,10.7z M127.102,88.5c0-0.1,0-0.2-0.1-0.3
	c-0.1-0.3-0.2-0.4-0.5-0.5c-0.1,0-0.2-0.1-0.3-0.1c-0.5,0-0.9,0.4-0.9,0.9s0.4,0.9,0.9,0.9c0.1,0,0.2,0,0.3-0.1
	c0.2-0.1,0.4-0.3,0.5-0.5C127.002,88.7,127.102,88.6,127.102,88.5z M127.102,82.7c0-0.1,0-0.2-0.1-0.3c-0.1-0.2-0.2-0.4-0.5-0.5
	c-0.1,0-0.2-0.1-0.3-0.1c-0.5,0-0.9,0.4-0.9,0.9s0.4,0.9,0.9,0.9c0.1,0,0.2,0,0.3-0.1c0.2-0.1,0.4-0.3,0.5-0.5
	C127.002,82.9,127.102,82.8,127.102,82.7z M127.102,77c0-0.1,0-0.2-0.1-0.3c-0.1-0.3-0.2-0.4-0.5-0.5c-0.1,0-0.2-0.1-0.3-0.1
	c-0.5,0-0.9,0.4-0.9,0.9s0.4,0.9,0.9,0.9c0.1,0,0.2,0,0.3-0.1c0.2-0.1,0.4-0.3,0.5-0.5C127.002,77.2,127.102,77.1,127.102,77z
	 M127.102,71.2c0-0.1,0-0.2-0.1-0.3c-0.1-0.2-0.2-0.4-0.5-0.5c-0.1,0-0.2-0.1-0.3-0.1c-0.5,0-0.9,0.4-0.9,0.9s0.4,0.9,0.9,0.9
	c0.1,0,0.2,0,0.3-0.1c0.2-0.1,0.4-0.3,0.5-0.5C127.002,71.4,127.102,71.3,127.102,71.2z M127.102,65.4c0-0.1,0-0.2-0.1-0.3
	c-0.1-0.2-0.2-0.4-0.5-0.5c-0.1,0-0.2-0.1-0.3-0.1c-0.5,0-0.9,0.4-0.9,0.9s0.4,0.9,0.9,0.9c0.1,0,0.2,0,0.3-0.1
	c0.2-0.1,0.4-0.3,0.5-0.5C127.002,65.6,127.102,65.5,127.102,65.4z M127.102,59.7c0-0.1,0-0.2-0.1-0.3c-0.1-0.3-0.2-0.4-0.5-0.5
	c-0.1,0-0.2-0.1-0.3-0.1c-0.5,0-0.9,0.4-0.9,0.9s0.4,0.9,0.9,0.9c0.1,0,0.2,0,0.3-0.1c0.2-0.1,0.4-0.3,0.5-0.5
	C127.002,59.9,127.102,59.8,127.102,59.7z M127.102,53.9c0-0.1,0-0.2-0.1-0.3c-0.1-0.2-0.2-0.4-0.5-0.5c-0.1,0-0.2-0.1-0.3-0.1
	c-0.5,0-0.9,0.4-0.9,0.9s0.4,0.9,0.9,0.9c0.1,0,0.2,0,0.3-0.1c0.2-0.1,0.4-0.3,0.5-0.5C127.002,54.1,127.102,54,127.102,53.9z
	 M127.102,48.1c0-0.1,0-0.2-0.1-0.3c-0.1-0.2-0.2-0.4-0.5-0.5c-0.1,0-0.2-0.1-0.3-0.1c-0.5,0-0.9,0.4-0.9,0.9s0.4,0.9,0.9,0.9
	c0.1,0,0.2,0,0.3-0.1c0.2-0.1,0.4-0.3,0.5-0.5C127.002,48.3,127.102,48.2,127.102,48.1z M127.102,42.4c0-0.1,0-0.2-0.1-0.3
	c-0.1-0.3-0.2-0.4-0.5-0.5c-0.1,0-0.2-0.1-0.3-0.1c-0.5,0-0.9,0.4-0.9,0.9s0.4,0.9,0.9,0.9c0.1,0,0.2,0,0.3-0.1
	c0.2-0.1,0.4-0.3,0.5-0.5C127.002,42.6,127.102,42.5,127.102,42.4z M127.102,36.6c0-0.1,0-0.2-0.1-0.3c-0.1-0.2-0.2-0.4-0.5-0.5
	c-0.1,0-0.2-0.1-0.3-0.1c-0.5,0-0.9,0.4-0.9,0.9s0.4,0.9,0.9,0.9c0.1,0,0.2,0,0.3-0.1c0.2-0.1,0.4-0.3,0.5-0.5
	C127.002,36.8,127.102,36.7,127.102,36.6z M127.102,30.9c0-0.1,0-0.2-0.1-0.3c-0.1-0.3-0.2-0.5-0.5-0.5c-0.1,0-0.2-0.1-0.3-0.1
	c-0.5,0-0.9,0.4-0.9,0.9s0.4,0.9,0.9,0.9c0.1,0,0.2,0,0.3-0.1c0.2-0.1,0.4-0.3,0.5-0.5C127.002,31.1,127.102,31,127.102,30.9z
	 M127.102,25.1c0-0.1,0-0.2-0.1-0.3c-0.1-0.3-0.2-0.4-0.5-0.5c-0.1,0-0.2-0.1-0.3-0.1c-0.5,0-0.9,0.4-0.9,0.9s0.4,0.9,0.9,0.9
	c0.1,0,0.2,0,0.3-0.1c0.2-0.1,0.4-0.3,0.5-0.5C127.002,25.3,127.102,25.2,127.102,25.1z M127.102,19.3c0-0.1,0-0.2-0.1-0.3
	c-0.1-0.2-0.2-0.4-0.5-0.5c-0.1,0-0.2-0.1-0.3-0.1c-0.5,0-0.9,0.4-0.9,0.9s0.4,0.9,0.9,0.9c0.1,0,0.2,0,0.3-0.1
	c0.2-0.1,0.4-0.3,0.5-0.5C127.002,19.5,127.102,19.4,127.102,19.3z M127.102,13.6c0-0.1,0-0.2-0.1-0.3c-0.1-0.3-0.2-0.5-0.5-0.5
	c-0.1,0-0.2-0.1-0.3-0.1c-0.5,0-0.9,0.4-0.9,0.9s0.4,0.9,0.9,0.9c0.1,0,0.2,0,0.3-0.1c0.2-0.1,0.4-0.3,0.5-0.5
	C127.002,13.8,127.102,13.7,127.102,13.6z M127.102,7.8c0-0.1,0-0.2-0.1-0.3l-0.1-0.1h-0.7h-0.7c-0.1,0.1-0.2,0.3-0.2,0.5
	c0,0.4,0.4,0.8,0.9,0.8c0.1,0,0.2,0,0.3-0.1c0.2-0.1,0.4-0.3,0.5-0.5C127.002,8,127.102,7.9,127.102,7.8L127.102,7.8z M130.002,91.4
	c0-0.497-0.403-0.9-0.9-0.9s-0.9,0.403-0.9,0.9s0.403,0.9,0.9,0.9S130.002,91.897,130.002,91.4z M130.002,85.6
	c0-0.497-0.403-0.9-0.9-0.9s-0.9,0.403-0.9,0.9s0.403,0.9,0.9,0.9S130.002,86.097,130.002,85.6z M130.002,79.9
	c0-0.497-0.403-0.9-0.9-0.9s-0.9,0.403-0.9,0.9s0.403,0.9,0.9,0.9S130.002,80.397,130.002,79.9z M130.002,74.1
	c0-0.497-0.403-0.9-0.9-0.9s-0.9,0.403-0.9,0.9s0.403,0.9,0.9,0.9S130.002,74.597,130.002,74.1z M130.002,68.3
	c0-0.497-0.403-0.9-0.9-0.9s-0.9,0.403-0.9,0.9s0.403,0.9,0.9,0.9S130.002,68.797,130.002,68.3z M130.002,62.6
	c0-0.497-0.403-0.9-0.9-0.9s-0.9,0.403-0.9,0.9s0.403,0.9,0.9,0.9S130.002,63.097,130.002,62.6z M130.002,56.8
	c0-0.497-0.403-0.9-0.9-0.9s-0.9,0.403-0.9,0.9s0.403,0.9,0.9,0.9S130.002,57.297,130.002,56.8z M130.002,51
	c0-0.497-0.403-0.9-0.9-0.9s-0.9,0.403-0.9,0.9s0.403,0.9,0.9,0.9S130.002,51.497,130.002,51z M130.002,45.3
	c0-0.497-0.403-0.9-0.9-0.9s-0.9,0.403-0.9,0.9s0.403,0.9,0.9,0.9S130.002,45.797,130.002,45.3z M130.002,39.5
	c0-0.497-0.403-0.9-0.9-0.9s-0.9,0.403-0.9,0.9s0.403,0.9,0.9,0.9S130.002,39.997,130.002,39.5z M130.002,33.7
	c0-0.497-0.403-0.9-0.9-0.9s-0.9,0.403-0.9,0.9s0.403,0.9,0.9,0.9S130.002,34.197,130.002,33.7z M130.002,28
	c0-0.497-0.403-0.9-0.9-0.9s-0.9,0.403-0.9,0.9s0.403,0.9,0.9,0.9S130.002,28.497,130.002,28z M130.002,22.2
	c0-0.497-0.403-0.9-0.9-0.9s-0.9,0.403-0.9,0.9s0.403,0.9,0.9,0.9S130.002,22.697,130.002,22.2z M130.002,16.5
	c0-0.497-0.403-0.9-0.9-0.9s-0.9,0.403-0.9,0.9s0.403,0.9,0.9,0.9S130.002,16.997,130.002,16.5z M130.002,10.7
	c0-0.497-0.403-0.9-0.9-0.9s-0.9,0.403-0.9,0.9s0.403,0.9,0.9,0.9S130.002,11.197,130.002,10.7z M132.902,88.5
	c0-0.497-0.403-0.9-0.9-0.9s-0.9,0.403-0.9,0.9s0.403,0.9,0.9,0.9S132.902,88.997,132.902,88.5z M132.902,82.7
	c0-0.497-0.403-0.9-0.9-0.9s-0.9,0.403-0.9,0.9s0.403,0.9,0.9,0.9S132.902,83.197,132.902,82.7z M132.902,77
	c0-0.497-0.403-0.9-0.9-0.9s-0.9,0.403-0.9,0.9s0.403,0.9,0.9,0.9S132.902,77.497,132.902,77z M132.902,71.2
	c0-0.497-0.403-0.9-0.9-0.9s-0.9,0.403-0.9,0.9s0.403,0.9,0.9,0.9S132.902,71.697,132.902,71.2z M132.902,65.4
	c0-0.497-0.403-0.9-0.9-0.9s-0.9,0.403-0.9,0.9s0.403,0.9,0.9,0.9S132.902,65.897,132.902,65.4z M132.902,59.7
	c0-0.497-0.403-0.9-0.9-0.9s-0.9,0.403-0.9,0.9s0.403,0.9,0.9,0.9S132.902,60.197,132.902,59.7z M132.902,53.9
	c0-0.497-0.403-0.9-0.9-0.9s-0.9,0.403-0.9,0.9s0.403,0.9,0.9,0.9S132.902,54.397,132.902,53.9z M132.902,48.2
	c0-0.497-0.403-0.9-0.9-0.9s-0.9,0.403-0.9,0.9s0.403,0.9,0.9,0.9S132.902,48.697,132.902,48.2z M132.902,42.4
	c0-0.497-0.403-0.9-0.9-0.9s-0.9,0.403-0.9,0.9s0.403,0.9,0.9,0.9S132.902,42.897,132.902,42.4z M132.902,36.6
	c0-0.497-0.403-0.9-0.9-0.9s-0.9,0.403-0.9,0.9s0.403,0.9,0.9,0.9S132.902,37.097,132.902,36.6z M132.902,30.9
	c0-0.497-0.403-0.9-0.9-0.9s-0.9,0.403-0.9,0.9s0.403,0.9,0.9,0.9S132.902,31.397,132.902,30.9z M132.902,25.1
	c0-0.497-0.403-0.9-0.9-0.9s-0.9,0.403-0.9,0.9s0.403,0.9,0.9,0.9S132.902,25.597,132.902,25.1z M132.902,19.3
	c0-0.497-0.403-0.9-0.9-0.9s-0.9,0.403-0.9,0.9s0.403,0.9,0.9,0.9S132.902,19.797,132.902,19.3z M132.902,13.6
	c0-0.497-0.403-0.9-0.9-0.9s-0.9,0.403-0.9,0.9s0.403,0.9,0.9,0.9S132.902,14.097,132.902,13.6z M135.802,91.4
	c0-0.497-0.403-0.9-0.9-0.9s-0.9,0.403-0.9,0.9s0.403,0.9,0.9,0.9S135.802,91.897,135.802,91.4z M135.802,85.6
	c0-0.497-0.403-0.9-0.9-0.9s-0.9,0.403-0.9,0.9s0.403,0.9,0.9,0.9S135.802,86.097,135.802,85.6z M135.802,79.9
	c0-0.497-0.403-0.9-0.9-0.9s-0.9,0.403-0.9,0.9s0.403,0.9,0.9,0.9S135.802,80.397,135.802,79.9z M135.802,74.1
	c0-0.497-0.403-0.9-0.9-0.9s-0.9,0.403-0.9,0.9s0.403,0.9,0.9,0.9S135.802,74.597,135.802,74.1z M135.802,68.3
	c0-0.497-0.403-0.9-0.9-0.9s-0.9,0.403-0.9,0.9s0.403,0.9,0.9,0.9S135.802,68.797,135.802,68.3z M135.802,62.6
	c0-0.497-0.403-0.9-0.9-0.9s-0.9,0.403-0.9,0.9s0.403,0.9,0.9,0.9S135.802,63.097,135.802,62.6z M135.802,56.8
	c0-0.497-0.403-0.9-0.9-0.9s-0.9,0.403-0.9,0.9s0.403,0.9,0.9,0.9S135.802,57.297,135.802,56.8z M135.802,51
	c0-0.497-0.403-0.9-0.9-0.9s-0.9,0.403-0.9,0.9s0.403,0.9,0.9,0.9S135.802,51.497,135.802,51z M135.802,45.3
	c0-0.497-0.403-0.9-0.9-0.9s-0.9,0.403-0.9,0.9s0.403,0.9,0.9,0.9S135.802,45.797,135.802,45.3z M135.802,39.5
	c0-0.497-0.403-0.9-0.9-0.9s-0.9,0.403-0.9,0.9s0.403,0.9,0.9,0.9S135.802,39.997,135.802,39.5z M135.802,33.7
	c0-0.497-0.403-0.9-0.9-0.9s-0.9,0.403-0.9,0.9s0.403,0.9,0.9,0.9S135.802,34.197,135.802,33.7z M135.802,28
	c0-0.497-0.403-0.9-0.9-0.9s-0.9,0.403-0.9,0.9s0.403,0.9,0.9,0.9S135.802,28.497,135.802,28z M135.802,22.2
	c0-0.497-0.403-0.9-0.9-0.9s-0.9,0.403-0.9,0.9s0.403,0.9,0.9,0.9S135.802,22.697,135.802,22.2z M135.802,16.5
	c0-0.497-0.403-0.9-0.9-0.9s-0.9,0.403-0.9,0.9s0.403,0.9,0.9,0.9S135.802,16.997,135.802,16.5z M135.802,10.7
	c0-0.497-0.403-0.9-0.9-0.9s-0.9,0.403-0.9,0.9s0.403,0.9,0.9,0.9S135.802,11.197,135.802,10.7z M138.602,88.5
	c0-0.497-0.403-0.9-0.9-0.9s-0.9,0.403-0.9,0.9s0.403,0.9,0.9,0.9S138.602,88.997,138.602,88.5z M138.602,82.7
	c0-0.497-0.403-0.9-0.9-0.9s-0.9,0.403-0.9,0.9s0.403,0.9,0.9,0.9S138.602,83.197,138.602,82.7z M138.602,77
	c0-0.497-0.403-0.9-0.9-0.9s-0.9,0.403-0.9,0.9s0.403,0.9,0.9,0.9S138.602,77.497,138.602,77z M138.602,71.2
	c0-0.497-0.403-0.9-0.9-0.9s-0.9,0.403-0.9,0.9s0.403,0.9,0.9,0.9S138.602,71.697,138.602,71.2z M138.602,65.4
	c0-0.497-0.403-0.9-0.9-0.9s-0.9,0.403-0.9,0.9s0.403,0.9,0.9,0.9S138.602,65.897,138.602,65.4z M138.602,59.7
	c0-0.497-0.403-0.9-0.9-0.9s-0.9,0.403-0.9,0.9s0.403,0.9,0.9,0.9S138.602,60.197,138.602,59.7z M138.602,53.9
	c0-0.497-0.403-0.9-0.9-0.9s-0.9,0.403-0.9,0.9s0.403,0.9,0.9,0.9S138.602,54.397,138.602,53.9z M138.602,48.2
	c0-0.497-0.403-0.9-0.9-0.9s-0.9,0.403-0.9,0.9s0.403,0.9,0.9,0.9S138.602,48.697,138.602,48.2z M138.602,42.4
	c0-0.497-0.403-0.9-0.9-0.9s-0.9,0.403-0.9,0.9s0.403,0.9,0.9,0.9S138.602,42.897,138.602,42.4z M138.602,36.6
	c0-0.497-0.403-0.9-0.9-0.9s-0.9,0.403-0.9,0.9s0.403,0.9,0.9,0.9S138.602,37.097,138.602,36.6z M138.602,30.9
	c0-0.497-0.403-0.9-0.9-0.9s-0.9,0.403-0.9,0.9s0.403,0.9,0.9,0.9S138.602,31.397,138.602,30.9z M138.602,25.1
	c0-0.497-0.403-0.9-0.9-0.9s-0.9,0.403-0.9,0.9s0.403,0.9,0.9,0.9S138.602,25.597,138.602,25.1z M138.602,19.3
	c0-0.497-0.403-0.9-0.9-0.9s-0.9,0.403-0.9,0.9s0.403,0.9,0.9,0.9S138.602,19.797,138.602,19.3z M138.602,13.6
	c0-0.497-0.403-0.9-0.9-0.9s-0.9,0.403-0.9,0.9s0.403,0.9,0.9,0.9S138.602,14.097,138.602,13.6z M141.502,85.6
	c0-0.497-0.403-0.9-0.9-0.9s-0.9,0.403-0.9,0.9s0.403,0.9,0.9,0.9S141.502,86.097,141.502,85.6z M141.502,79.9
	c0-0.497-0.403-0.9-0.9-0.9s-0.9,0.403-0.9,0.9s0.403,0.9,0.9,0.9S141.502,80.397,141.502,79.9z M141.502,74.1
	c0-0.497-0.403-0.9-0.9-0.9s-0.9,0.403-0.9,0.9s0.403,0.9,0.9,0.9S141.502,74.597,141.502,74.1z M141.502,68.3
	c0-0.497-0.403-0.9-0.9-0.9s-0.9,0.403-0.9,0.9s0.403,0.9,0.9,0.9S141.502,68.797,141.502,68.3z M141.502,62.6
	c0-0.497-0.403-0.9-0.9-0.9s-0.9,0.403-0.9,0.9s0.403,0.9,0.9,0.9S141.502,63.097,141.502,62.6z M141.502,56.8
	c0-0.497-0.403-0.9-0.9-0.9s-0.9,0.403-0.9,0.9s0.403,0.9,0.9,0.9S141.502,57.297,141.502,56.8z M141.502,51
	c0-0.497-0.403-0.9-0.9-0.9s-0.9,0.403-0.9,0.9s0.403,0.9,0.9,0.9S141.502,51.497,141.502,51z M141.502,45.3
	c0-0.497-0.403-0.9-0.9-0.9s-0.9,0.403-0.9,0.9s0.403,0.9,0.9,0.9S141.502,45.797,141.502,45.3z M141.502,39.5
	c0-0.497-0.403-0.9-0.9-0.9s-0.9,0.403-0.9,0.9s0.403,0.9,0.9,0.9S141.502,39.997,141.502,39.5z M141.502,33.7
	c0-0.497-0.403-0.9-0.9-0.9s-0.9,0.403-0.9,0.9s0.403,0.9,0.9,0.9S141.502,34.197,141.502,33.7z M141.502,28
	c0-0.497-0.403-0.9-0.9-0.9s-0.9,0.403-0.9,0.9s0.403,0.9,0.9,0.9S141.502,28.497,141.502,28z M141.502,22.2
	c0-0.497-0.403-0.9-0.9-0.9s-0.9,0.403-0.9,0.9s0.403,0.9,0.9,0.9S141.502,22.697,141.502,22.2z M141.502,16.5
	c0-0.497-0.403-0.9-0.9-0.9s-0.9,0.403-0.9,0.9s0.403,0.9,0.9,0.9S141.502,16.997,141.502,16.5z M141.502,10.7
	c0-0.3-0.2-0.6-0.4-0.7c-0.1,0-0.2-0.1-0.3-0.1h-0.1c-0.6-0.1-1,0.3-1,0.8s0.4,0.9,0.9,0.9S141.502,11.2,141.502,10.7L141.502,10.7z
	 M144.402,88.5c0-0.497-0.403-0.9-0.9-0.9s-0.9,0.403-0.9,0.9s0.403,0.9,0.9,0.9S144.402,88.997,144.402,88.5z M144.402,82.7
	c0-0.497-0.403-0.9-0.9-0.9s-0.9,0.403-0.9,0.9s0.403,0.9,0.9,0.9S144.402,83.197,144.402,82.7z M144.402,77
	c0-0.497-0.403-0.9-0.9-0.9s-0.9,0.403-0.9,0.9s0.403,0.9,0.9,0.9S144.402,77.497,144.402,77z M144.402,71.2
	c0-0.497-0.403-0.9-0.9-0.9s-0.9,0.403-0.9,0.9s0.403,0.9,0.9,0.9S144.402,71.697,144.402,71.2z M144.402,65.4
	c0-0.497-0.403-0.9-0.9-0.9s-0.9,0.403-0.9,0.9s0.403,0.9,0.9,0.9S144.402,65.897,144.402,65.4z M144.402,59.7
	c0-0.497-0.403-0.9-0.9-0.9s-0.9,0.403-0.9,0.9s0.403,0.9,0.9,0.9S144.402,60.197,144.402,59.7z M144.402,53.9
	c0-0.497-0.403-0.9-0.9-0.9s-0.9,0.403-0.9,0.9s0.403,0.9,0.9,0.9S144.402,54.397,144.402,53.9z M144.402,48.2
	c0-0.497-0.403-0.9-0.9-0.9s-0.9,0.403-0.9,0.9s0.403,0.9,0.9,0.9S144.402,48.697,144.402,48.2z M144.402,42.4
	c0-0.497-0.403-0.9-0.9-0.9s-0.9,0.403-0.9,0.9s0.403,0.9,0.9,0.9S144.402,42.897,144.402,42.4z M144.402,36.6
	c0-0.497-0.403-0.9-0.9-0.9s-0.9,0.403-0.9,0.9s0.403,0.9,0.9,0.9S144.402,37.097,144.402,36.6z M144.402,30.9
	c0-0.497-0.403-0.9-0.9-0.9s-0.9,0.403-0.9,0.9s0.403,0.9,0.9,0.9S144.402,31.397,144.402,30.9z M144.402,25.1
	c0-0.497-0.403-0.9-0.9-0.9s-0.9,0.403-0.9,0.9s0.403,0.9,0.9,0.9S144.402,25.597,144.402,25.1z M144.402,19.3
	c0-0.497-0.403-0.9-0.9-0.9s-0.9,0.403-0.9,0.9s0.403,0.9,0.9,0.9S144.402,19.797,144.402,19.3z M144.402,13.6
	c0-0.497-0.403-0.9-0.9-0.9s-0.9,0.403-0.9,0.9s0.403,0.9,0.9,0.9S144.402,14.097,144.402,13.6z M147.302,85.6
	c0-0.497-0.403-0.9-0.9-0.9s-0.9,0.403-0.9,0.9s0.403,0.9,0.9,0.9S147.302,86.097,147.302,85.6z M147.302,79.9
	c0-0.497-0.403-0.9-0.9-0.9s-0.9,0.403-0.9,0.9s0.403,0.9,0.9,0.9S147.302,80.397,147.302,79.9z M147.302,74.1
	c0-0.497-0.403-0.9-0.9-0.9s-0.9,0.403-0.9,0.9s0.403,0.9,0.9,0.9S147.302,74.597,147.302,74.1z M147.302,68.3
	c0-0.497-0.403-0.9-0.9-0.9s-0.9,0.403-0.9,0.9s0.403,0.9,0.9,0.9S147.302,68.797,147.302,68.3z M147.302,62.6
	c0-0.497-0.403-0.9-0.9-0.9s-0.9,0.403-0.9,0.9s0.403,0.9,0.9,0.9S147.302,63.097,147.302,62.6z M147.302,56.8
	c0-0.497-0.403-0.9-0.9-0.9s-0.9,0.403-0.9,0.9s0.403,0.9,0.9,0.9S147.302,57.297,147.302,56.8z M147.302,51
	c0-0.497-0.403-0.9-0.9-0.9s-0.9,0.403-0.9,0.9s0.403,0.9,0.9,0.9S147.302,51.497,147.302,51z M147.302,45.3
	c0-0.497-0.403-0.9-0.9-0.9s-0.9,0.403-0.9,0.9s0.403,0.9,0.9,0.9S147.302,45.797,147.302,45.3z M147.302,39.5
	c0-0.497-0.403-0.9-0.9-0.9s-0.9,0.403-0.9,0.9s0.403,0.9,0.9,0.9S147.302,39.997,147.302,39.5z M147.302,33.7
	c0-0.497-0.403-0.9-0.9-0.9s-0.9,0.403-0.9,0.9s0.403,0.9,0.9,0.9S147.302,34.197,147.302,33.7z M147.302,28
	c0-0.497-0.403-0.9-0.9-0.9s-0.9,0.403-0.9,0.9s0.403,0.9,0.9,0.9S147.302,28.497,147.302,28z M147.302,22.2
	c0-0.497-0.403-0.9-0.9-0.9s-0.9,0.403-0.9,0.9s0.403,0.9,0.9,0.9S147.302,22.697,147.302,22.2z M147.302,16.5
	c0-0.497-0.403-0.9-0.9-0.9s-0.9,0.403-0.9,0.9s0.403,0.9,0.9,0.9S147.302,16.997,147.302,16.5z M150.202,82.7
	c0-0.497-0.403-0.9-0.9-0.9s-0.9,0.403-0.9,0.9s0.403,0.9,0.9,0.9S150.202,83.197,150.202,82.7z M150.202,77
	c0-0.497-0.403-0.9-0.9-0.9s-0.9,0.403-0.9,0.9s0.403,0.9,0.9,0.9S150.202,77.497,150.202,77z M150.202,71.2
	c0-0.497-0.403-0.9-0.9-0.9s-0.9,0.403-0.9,0.9s0.403,0.9,0.9,0.9S150.202,71.697,150.202,71.2z M150.202,65.4
	c0-0.497-0.403-0.9-0.9-0.9s-0.9,0.403-0.9,0.9s0.403,0.9,0.9,0.9S150.202,65.897,150.202,65.4z M150.202,59.7
	c0-0.497-0.403-0.9-0.9-0.9s-0.9,0.403-0.9,0.9s0.403,0.9,0.9,0.9S150.202,60.197,150.202,59.7z M150.202,53.9
	c0-0.497-0.403-0.9-0.9-0.9s-0.9,0.403-0.9,0.9s0.403,0.9,0.9,0.9S150.202,54.397,150.202,53.9z M150.202,48.2
	c0-0.497-0.403-0.9-0.9-0.9s-0.9,0.403-0.9,0.9s0.403,0.9,0.9,0.9S150.202,48.697,150.202,48.2z M150.202,42.4
	c0-0.497-0.403-0.9-0.9-0.9s-0.9,0.403-0.9,0.9s0.403,0.9,0.9,0.9S150.202,42.897,150.202,42.4z M150.202,36.6
	c0-0.497-0.403-0.9-0.9-0.9s-0.9,0.403-0.9,0.9s0.403,0.9,0.9,0.9S150.202,37.097,150.202,36.6z M150.202,30.9
	c0-0.497-0.403-0.9-0.9-0.9s-0.9,0.403-0.9,0.9s0.403,0.9,0.9,0.9S150.202,31.397,150.202,30.9z M150.202,25.1
	c0-0.497-0.403-0.9-0.9-0.9s-0.9,0.403-0.9,0.9s0.403,0.9,0.9,0.9S150.202,25.597,150.202,25.1z M150.202,19.3
	c0-0.497-0.403-0.9-0.9-0.9s-0.9,0.403-0.9,0.9s0.403,0.9,0.9,0.9S150.202,19.797,150.202,19.3z M153.002,79.9
	c0-0.497-0.403-0.9-0.9-0.9s-0.9,0.403-0.9,0.9s0.403,0.9,0.9,0.9S153.002,80.397,153.002,79.9z M153.002,74.1
	c0-0.497-0.403-0.9-0.9-0.9s-0.9,0.403-0.9,0.9s0.403,0.9,0.9,0.9S153.002,74.597,153.002,74.1z M153.002,68.3
	c0-0.497-0.403-0.9-0.9-0.9s-0.9,0.403-0.9,0.9s0.403,0.9,0.9,0.9S153.002,68.797,153.002,68.3z M153.002,62.6
	c0-0.497-0.403-0.9-0.9-0.9s-0.9,0.403-0.9,0.9s0.403,0.9,0.9,0.9S153.002,63.097,153.002,62.6z M153.002,56.8
	c0-0.497-0.403-0.9-0.9-0.9s-0.9,0.403-0.9,0.9s0.403,0.9,0.9,0.9S153.002,57.297,153.002,56.8z M153.002,51
	c0-0.497-0.403-0.9-0.9-0.9s-0.9,0.403-0.9,0.9s0.403,0.9,0.9,0.9S153.002,51.497,153.002,51z M153.002,45.3
	c0-0.497-0.403-0.9-0.9-0.9s-0.9,0.403-0.9,0.9s0.403,0.9,0.9,0.9S153.002,45.797,153.002,45.3z M153.002,39.5
	c0-0.497-0.403-0.9-0.9-0.9s-0.9,0.403-0.9,0.9s0.403,0.9,0.9,0.9S153.002,39.997,153.002,39.5z M153.002,33.7
	c0-0.497-0.403-0.9-0.9-0.9s-0.9,0.403-0.9,0.9s0.403,0.9,0.9,0.9S153.002,34.197,153.002,33.7z M153.002,28
	c0-0.497-0.403-0.9-0.9-0.9s-0.9,0.403-0.9,0.9s0.403,0.9,0.9,0.9S153.002,28.497,153.002,28z M153.002,22.2
	c0-0.497-0.403-0.9-0.9-0.9s-0.9,0.403-0.9,0.9s0.403,0.9,0.9,0.9S153.002,22.697,153.002,22.2z M155.902,77
	c0-0.497-0.403-0.9-0.9-0.9s-0.9,0.403-0.9,0.9s0.403,0.9,0.9,0.9S155.902,77.497,155.902,77z M155.902,71.2
	c0-0.497-0.403-0.9-0.9-0.9s-0.9,0.403-0.9,0.9s0.403,0.9,0.9,0.9S155.902,71.697,155.902,71.2z M155.902,65.4
	c0-0.497-0.403-0.9-0.9-0.9s-0.9,0.403-0.9,0.9s0.403,0.9,0.9,0.9S155.902,65.897,155.902,65.4z M155.902,59.7
	c0-0.497-0.403-0.9-0.9-0.9s-0.9,0.403-0.9,0.9s0.403,0.9,0.9,0.9S155.902,60.197,155.902,59.7z M155.902,53.9
	c0-0.497-0.403-0.9-0.9-0.9s-0.9,0.403-0.9,0.9s0.403,0.9,0.9,0.9S155.902,54.397,155.902,53.9z M155.902,48.2
	c0-0.497-0.403-0.9-0.9-0.9s-0.9,0.403-0.9,0.9s0.403,0.9,0.9,0.9S155.902,48.697,155.902,48.2z M155.902,42.4
	c0-0.497-0.403-0.9-0.9-0.9s-0.9,0.403-0.9,0.9s0.403,0.9,0.9,0.9S155.902,42.897,155.902,42.4z M155.902,36.6
	c0-0.497-0.403-0.9-0.9-0.9s-0.9,0.403-0.9,0.9s0.403,0.9,0.9,0.9S155.902,37.097,155.902,36.6z M155.902,30.9
	c0-0.497-0.403-0.9-0.9-0.9s-0.9,0.403-0.9,0.9s0.403,0.9,0.9,0.9S155.902,31.397,155.902,30.9z M155.902,25.1
	c0-0.497-0.403-0.9-0.9-0.9s-0.9,0.403-0.9,0.9s0.403,0.9,0.9,0.9S155.902,25.597,155.902,25.1z M158.802,74.1
	c0-0.497-0.403-0.9-0.9-0.9s-0.9,0.403-0.9,0.9s0.403,0.9,0.9,0.9S158.802,74.597,158.802,74.1z M158.802,68.3
	c0-0.497-0.403-0.9-0.9-0.9s-0.9,0.403-0.9,0.9s0.403,0.9,0.9,0.9S158.802,68.797,158.802,68.3z M158.802,62.6
	c0-0.497-0.403-0.9-0.9-0.9s-0.9,0.403-0.9,0.9s0.403,0.9,0.9,0.9S158.802,63.097,158.802,62.6z M158.802,56.8
	c0-0.497-0.403-0.9-0.9-0.9s-0.9,0.403-0.9,0.9s0.403,0.9,0.9,0.9S158.802,57.297,158.802,56.8z M158.802,51
	c0-0.497-0.403-0.9-0.9-0.9s-0.9,0.403-0.9,0.9s0.403,0.9,0.9,0.9S158.802,51.497,158.802,51z M158.802,45.3
	c0-0.497-0.403-0.9-0.9-0.9s-0.9,0.403-0.9,0.9s0.403,0.9,0.9,0.9S158.802,45.797,158.802,45.3z M158.802,39.5
	c0-0.497-0.403-0.9-0.9-0.9s-0.9,0.403-0.9,0.9s0.403,0.9,0.9,0.9S158.802,39.997,158.802,39.5z M158.802,33.7
	c0-0.497-0.403-0.9-0.9-0.9s-0.9,0.403-0.9,0.9s0.403,0.9,0.9,0.9S158.802,34.197,158.802,33.7z M158.802,28
	c0-0.497-0.403-0.9-0.9-0.9s-0.9,0.403-0.9,0.9s0.403,0.9,0.9,0.9S158.802,28.497,158.802,28z M161.702,71.2
	c0-0.497-0.403-0.9-0.9-0.9s-0.9,0.403-0.9,0.9s0.403,0.9,0.9,0.9S161.702,71.697,161.702,71.2z M161.702,65.4
	c0-0.497-0.403-0.9-0.9-0.9s-0.9,0.403-0.9,0.9s0.403,0.9,0.9,0.9S161.702,65.897,161.702,65.4z M161.702,59.7
	c0-0.497-0.403-0.9-0.9-0.9s-0.9,0.403-0.9,0.9s0.403,0.9,0.9,0.9S161.702,60.197,161.702,59.7z M161.702,53.9
	c0-0.497-0.403-0.9-0.9-0.9s-0.9,0.403-0.9,0.9s0.403,0.9,0.9,0.9S161.702,54.397,161.702,53.9z M161.702,48.2
	c0-0.497-0.403-0.9-0.9-0.9s-0.9,0.403-0.9,0.9s0.403,0.9,0.9,0.9S161.702,48.697,161.702,48.2z M161.702,42.4
	c0-0.497-0.403-0.9-0.9-0.9s-0.9,0.403-0.9,0.9s0.403,0.9,0.9,0.9S161.702,42.897,161.702,42.4z M161.702,36.6
	c0-0.497-0.403-0.9-0.9-0.9s-0.9,0.403-0.9,0.9s0.403,0.9,0.9,0.9S161.702,37.097,161.702,36.6z M161.702,30.9
	c0-0.497-0.403-0.9-0.9-0.9s-0.9,0.403-0.9,0.9s0.403,0.9,0.9,0.9S161.702,31.397,161.702,30.9z M164.602,68.3
	c0-0.497-0.403-0.9-0.9-0.9s-0.9,0.403-0.9,0.9s0.403,0.9,0.9,0.9S164.602,68.797,164.602,68.3z M164.602,62.6
	c0-0.497-0.403-0.9-0.9-0.9s-0.9,0.403-0.9,0.9s0.403,0.9,0.9,0.9S164.602,63.097,164.602,62.6z M164.602,56.8
	c0-0.497-0.403-0.9-0.9-0.9s-0.9,0.403-0.9,0.9s0.403,0.9,0.9,0.9S164.602,57.297,164.602,56.8z M164.602,51
	c0-0.497-0.403-0.9-0.9-0.9s-0.9,0.403-0.9,0.9s0.403,0.9,0.9,0.9S164.602,51.497,164.602,51z M164.602,45.3
	c0-0.497-0.403-0.9-0.9-0.9s-0.9,0.403-0.9,0.9s0.403,0.9,0.9,0.9S164.602,45.797,164.602,45.3z M164.602,39.5
	c0-0.497-0.403-0.9-0.9-0.9s-0.9,0.403-0.9,0.9s0.403,0.9,0.9,0.9S164.602,39.997,164.602,39.5z M164.602,33.7
	c0-0.497-0.403-0.9-0.9-0.9s-0.9,0.403-0.9,0.9s0.403,0.9,0.9,0.9S164.602,34.197,164.602,33.7z M167.502,59.7
	c0-0.497-0.403-0.9-0.9-0.9s-0.9,0.403-0.9,0.9s0.403,0.9,0.9,0.9S167.502,60.197,167.502,59.7z M167.502,53.9
	c0-0.497-0.403-0.9-0.9-0.9s-0.9,0.403-0.9,0.9s0.403,0.9,0.9,0.9S167.502,54.397,167.502,53.9z M167.502,48.2
	c0-0.497-0.403-0.9-0.9-0.9s-0.9,0.403-0.9,0.9s0.403,0.9,0.9,0.9S167.502,48.697,167.502,48.2z M167.502,42.4
	c0-0.497-0.403-0.9-0.9-0.9s-0.9,0.403-0.9,0.9s0.403,0.9,0.9,0.9S167.502,42.897,167.502,42.4z M94.578,80.114
	c-0.159-0.176-0.319-0.348-0.478-0.51C94.256,79.777,94.419,79.944,94.578,80.114z M103.102,35.7c-0.497,0-0.9,0.403-0.9,0.9
	s0.403,0.9,0.9,0.9s0.9-0.403,0.9-0.9S103.599,35.7,103.102,35.7z M103.102,41.5c-0.497,0-0.9,0.403-0.9,0.9s0.403,0.9,0.9,0.9
	s0.9-0.403,0.9-0.9S103.599,41.5,103.102,41.5z M103.102,30c-0.497,0-0.9,0.403-0.9,0.9s0.403,0.9,0.9,0.9s0.9-0.403,0.9-0.9
	S103.599,30,103.102,30z M103.102,47.3c-0.497,0-0.9,0.403-0.9,0.9s0.403,0.9,0.9,0.9s0.9-0.403,0.9-0.9S103.599,47.3,103.102,47.3z
	 M103.102,24.2c-0.497,0-0.9,0.403-0.9,0.9s0.403,0.9,0.9,0.9s0.9-0.403,0.9-0.9S103.599,24.2,103.102,24.2z M103.102,53
	c-0.497,0-0.9,0.403-0.9,0.9s0.403,0.9,0.9,0.9s0.9-0.403,0.9-0.9S103.599,53,103.102,53z M103.102,81.8c-0.497,0-0.9,0.403-0.9,0.9
	s0.403,0.9,0.9,0.9s0.9-0.403,0.9-0.9S103.599,81.8,103.102,81.8z M103.102,70.3c-0.497,0-0.9,0.403-0.9,0.9s0.403,0.9,0.9,0.9
	s0.9-0.403,0.9-0.9S103.599,70.3,103.102,70.3z M103.102,64.5c-0.497,0-0.9,0.403-0.9,0.9s0.403,0.9,0.9,0.9s0.9-0.403,0.9-0.9
	S103.599,64.5,103.102,64.5z M103.102,58.8c-0.497,0-0.9,0.403-0.9,0.9s0.403,0.9,0.9,0.9s0.9-0.403,0.9-0.9
	S103.599,58.8,103.102,58.8z M103.102,18.4c-0.497,0-0.9,0.403-0.9,0.9s0.403,0.9,0.9,0.9s0.9-0.403,0.9-0.9
	S103.599,18.4,103.102,18.4z M103.102,76.1c-0.497,0-0.9,0.403-0.9,0.9s0.403,0.9,0.9,0.9s0.9-0.403,0.9-0.9
	S103.599,76.1,103.102,76.1z M106.002,44.4c-0.497,0-0.9,0.403-0.9,0.9s0.403,0.9,0.9,0.9s0.9-0.403,0.9-0.9
	S106.499,44.4,106.002,44.4z M106.002,50.1c-0.497,0-0.9,0.403-0.9,0.9s0.403,0.9,0.9,0.9s0.9-0.403,0.9-0.9
	S106.499,50.1,106.002,50.1z M106.002,32.8c-0.497,0-0.9,0.403-0.9,0.9s0.403,0.9,0.9,0.9s0.9-0.403,0.9-0.9
	S106.499,32.8,106.002,32.8z M106.002,55.9c-0.497,0-0.9,0.403-0.9,0.9s0.403,0.9,0.9,0.9s0.9-0.403,0.9-0.9
	S106.499,55.9,106.002,55.9z M106.002,38.6c-0.497,0-0.9,0.403-0.9,0.9s0.403,0.9,0.9,0.9s0.9-0.403,0.9-0.9
	S106.499,38.6,106.002,38.6z M106.002,27.1c-0.497,0-0.9,0.403-0.9,0.9s0.403,0.9,0.9,0.9s0.9-0.403,0.9-0.9
	S106.499,27.1,106.002,27.1z M94.502,27.1c-0.497,0-0.9,0.403-0.9,0.9s0.403,0.9,0.9,0.9s0.9-0.403,0.9-0.9S94.999,27.1,94.502,27.1
	z M106.002,79c-0.497,0-0.9,0.403-0.9,0.9s0.403,0.9,0.9,0.9s0.9-0.403,0.9-0.9S106.499,79,106.002,79z M106.002,73.2
	c-0.497,0-0.9,0.403-0.9,0.9s0.403,0.9,0.9,0.9s0.9-0.403,0.9-0.9S106.499,73.2,106.002,73.2z M106.002,61.7
	c-0.497,0-0.9,0.403-0.9,0.9s0.403,0.9,0.9,0.9s0.9-0.403,0.9-0.9S106.499,61.7,106.002,61.7z M103.202,14.4
	c0.4,0.1,0.8-0.3,0.8-0.8v-0.1c-0.4,0.3-0.9,0.5-1.3,0.8C102.802,14.4,103.002,14.4,103.202,14.4z M106.002,67.4
	c-0.497,0-0.9,0.403-0.9,0.9s0.403,0.9,0.9,0.9s0.9-0.403,0.9-0.9S106.499,67.4,106.002,67.4z M97.402,41.5
	c-0.497,0-0.9,0.403-0.9,0.9s0.403,0.9,0.9,0.9s0.9-0.403,0.9-0.9S97.899,41.5,97.402,41.5z M97.402,53c-0.497,0-0.9,0.403-0.9,0.9
	s0.403,0.9,0.9,0.9s0.9-0.403,0.9-0.9S97.899,53,97.402,53z M97.402,47.3c-0.497,0-0.9,0.403-0.9,0.9s0.403,0.9,0.9,0.9
	s0.9-0.403,0.9-0.9S97.899,47.3,97.402,47.3z M97.402,30c-0.497,0-0.9,0.403-0.9,0.9s0.403,0.9,0.9,0.9s0.9-0.403,0.9-0.9
	S97.899,30,97.402,30z M100.302,21.3c-0.497,0-0.9,0.403-0.9,0.9s0.403,0.9,0.9,0.9s0.9-0.403,0.9-0.9S100.799,21.3,100.302,21.3z
	 M97.402,64.5c-0.497,0-0.9,0.403-0.9,0.9s0.403,0.9,0.9,0.9s0.9-0.403,0.9-0.9S97.899,64.5,97.402,64.5z M97.402,76.1
	c-0.497,0-0.9,0.403-0.9,0.9s0.403,0.9,0.9,0.9s0.9-0.403,0.9-0.9S97.899,76.1,97.402,76.1z M97.402,58.8
	c-0.497,0-0.9,0.403-0.9,0.9s0.403,0.9,0.9,0.9s0.9-0.403,0.9-0.9S97.899,58.8,97.402,58.8z M97.402,81.8c-0.3,0-0.6,0.2-0.7,0.4
	c0.4,0.4,0.8,0.8,1.3,1.1c0.1-0.1,0.3-0.3,0.3-0.6C98.302,82.2,97.902,81.8,97.402,81.8z M97.402,24.2c-0.497,0-0.9,0.403-0.9,0.9
	s0.403,0.9,0.9,0.9s0.9-0.403,0.9-0.9S97.899,24.2,97.402,24.2z M97.402,70.3c-0.497,0-0.9,0.403-0.9,0.9s0.403,0.9,0.9,0.9
	s0.9-0.403,0.9-0.9S97.899,70.3,97.402,70.3z M97.402,35.7c-0.497,0-0.9,0.403-0.9,0.9s0.403,0.9,0.9,0.9s0.9-0.403,0.9-0.9
	S97.899,35.7,97.402,35.7z M100.302,44.4c-0.497,0-0.9,0.403-0.9,0.9s0.403,0.9,0.9,0.9s0.9-0.403,0.9-0.9
	S100.799,44.4,100.302,44.4z M100.302,38.6c-0.497,0-0.9,0.403-0.9,0.9s0.403,0.9,0.9,0.9s0.9-0.403,0.9-0.9
	S100.799,38.6,100.302,38.6z M100.302,32.8c-0.497,0-0.9,0.403-0.9,0.9s0.403,0.9,0.9,0.9s0.9-0.403,0.9-0.9
	S100.799,32.8,100.302,32.8z M100.302,50.1c-0.497,0-0.9,0.403-0.9,0.9s0.403,0.9,0.9,0.9s0.9-0.403,0.9-0.9
	S100.799,50.1,100.302,50.1z M100.302,79c-0.497,0-0.9,0.403-0.9,0.9s0.403,0.9,0.9,0.9s0.9-0.403,0.9-0.9S100.799,79,100.302,79z
	 M100.302,27.1c-0.497,0-0.9,0.403-0.9,0.9s0.403,0.9,0.9,0.9s0.9-0.403,0.9-0.9S100.799,27.1,100.302,27.1z M100.302,67.4
	c-0.497,0-0.9,0.403-0.9,0.9s0.403,0.9,0.9,0.9s0.9-0.403,0.9-0.9S100.799,67.4,100.302,67.4z M100.302,55.9
	c-0.497,0-0.9,0.403-0.9,0.9s0.403,0.9,0.9,0.9s0.9-0.403,0.9-0.9S100.799,55.9,100.302,55.9z M100.302,73.2
	c-0.497,0-0.9,0.403-0.9,0.9s0.403,0.9,0.9,0.9s0.9-0.403,0.9-0.9S100.799,73.2,100.302,73.2z M100.302,61.7
	c-0.497,0-0.9,0.403-0.9,0.9s0.403,0.9,0.9,0.9s0.9-0.403,0.9-0.9S100.799,61.7,100.302,61.7z M106.002,84.7
	c-0.497,0-0.9,0.403-0.9,0.9s0.403,0.9,0.9,0.9s0.9-0.403,0.9-0.9S106.499,84.7,106.002,84.7z M114.702,81.8
	c-0.497,0-0.9,0.403-0.9,0.9s0.403,0.9,0.9,0.9s0.9-0.403,0.9-0.9S115.199,81.8,114.702,81.8z M106.002,21.3
	c-0.497,0-0.9,0.403-0.9,0.9s0.403,0.9,0.9,0.9s0.9-0.403,0.9-0.9S106.499,21.3,106.002,21.3z M114.702,70.3
	c-0.497,0-0.9,0.403-0.9,0.9s0.403,0.9,0.9,0.9s0.9-0.403,0.9-0.9S115.199,70.3,114.702,70.3z M114.702,58.8
	c-0.497,0-0.9,0.403-0.9,0.9s0.403,0.9,0.9,0.9s0.9-0.403,0.9-0.9S115.199,58.8,114.702,58.8z M114.702,87.6
	c-0.497,0-0.9,0.403-0.9,0.9s0.403,0.9,0.9,0.9s0.9-0.403,0.9-0.9S115.199,87.6,114.702,87.6z M114.702,64.5
	c-0.497,0-0.9,0.403-0.9,0.9s0.403,0.9,0.9,0.9s0.9-0.403,0.9-0.9S115.199,64.5,114.702,64.5z M111.802,38.6
	c-0.497,0-0.9,0.403-0.9,0.9s0.403,0.9,0.9,0.9s0.9-0.403,0.9-0.9S112.299,38.6,111.802,38.6z M111.802,32.8
	c-0.497,0-0.9,0.403-0.9,0.9s0.403,0.9,0.9,0.9s0.9-0.403,0.9-0.9S112.299,32.8,111.802,32.8z M111.802,21.3
	c-0.497,0-0.9,0.403-0.9,0.9s0.403,0.9,0.9,0.9s0.9-0.403,0.9-0.9S112.299,21.3,111.802,21.3z M111.802,27.1
	c-0.497,0-0.9,0.403-0.9,0.9s0.403,0.9,0.9,0.9s0.9-0.403,0.9-0.9S112.299,27.1,111.802,27.1z M111.802,15.6
	c-0.497,0-0.9,0.403-0.9,0.9s0.403,0.9,0.9,0.9s0.9-0.403,0.9-0.9S112.299,15.6,111.802,15.6z M117.602,84.7
	c-0.497,0-0.9,0.403-0.9,0.9s0.403,0.9,0.9,0.9s0.9-0.403,0.9-0.9S118.099,84.7,117.602,84.7z M114.702,18.4
	c-0.497,0-0.9,0.403-0.9,0.9s0.403,0.9,0.9,0.9s0.9-0.403,0.9-0.9S115.199,18.4,114.702,18.4z M114.702,24.2
	c-0.497,0-0.9,0.403-0.9,0.9s0.403,0.9,0.9,0.9s0.9-0.403,0.9-0.9S115.199,24.2,114.702,24.2z M114.702,12.7
	c-0.497,0-0.9,0.403-0.9,0.9s0.403,0.9,0.9,0.9s0.9-0.403,0.9-0.9S115.199,12.7,114.702,12.7z M117.602,90.5
	c-0.497,0-0.9,0.403-0.9,0.9s0.403,0.9,0.9,0.9s0.9-0.403,0.9-0.9S118.099,90.5,117.602,90.5z M111.802,44.4
	c-0.497,0-0.9,0.403-0.9,0.9s0.403,0.9,0.9,0.9s0.9-0.403,0.9-0.9S112.299,44.4,111.802,44.4z M114.702,53
	c-0.497,0-0.9,0.403-0.9,0.9s0.403,0.9,0.9,0.9s0.9-0.403,0.9-0.9S115.199,53,114.702,53z M114.702,47.3c-0.497,0-0.9,0.403-0.9,0.9
	s0.403,0.9,0.9,0.9s0.9-0.403,0.9-0.9S115.199,47.3,114.702,47.3z M114.702,41.5c-0.497,0-0.9,0.403-0.9,0.9s0.403,0.9,0.9,0.9
	s0.9-0.403,0.9-0.9S115.199,41.5,114.702,41.5z M114.702,35.7c-0.497,0-0.9,0.403-0.9,0.9s0.403,0.9,0.9,0.9s0.9-0.403,0.9-0.9
	S115.199,35.7,114.702,35.7z M114.702,30c-0.497,0-0.9,0.403-0.9,0.9s0.403,0.9,0.9,0.9s0.9-0.403,0.9-0.9S115.199,30,114.702,30z
	 M114.702,76.1c-0.497,0-0.9,0.403-0.9,0.9s0.403,0.9,0.9,0.9s0.9-0.403,0.9-0.9S115.199,76.1,114.702,76.1z M108.902,58.8
	c-0.497,0-0.9,0.403-0.9,0.9s0.403,0.9,0.9,0.9s0.9-0.403,0.9-0.9S109.399,58.8,108.902,58.8z M108.902,64.5
	c-0.497,0-0.9,0.403-0.9,0.9s0.403,0.9,0.9,0.9s0.9-0.403,0.9-0.9S109.399,64.5,108.902,64.5z M108.902,53
	c-0.497,0-0.9,0.403-0.9,0.9s0.403,0.9,0.9,0.9s0.9-0.403,0.9-0.9S109.399,53,108.902,53z M108.902,47.3c-0.497,0-0.9,0.403-0.9,0.9
	s0.403,0.9,0.9,0.9s0.9-0.403,0.9-0.9S109.399,47.3,108.902,47.3z M108.902,41.5c-0.497,0-0.9,0.403-0.9,0.9s0.403,0.9,0.9,0.9
	s0.9-0.403,0.9-0.9S109.399,41.5,108.902,41.5z M106.002,15.6c-0.497,0-0.9,0.403-0.9,0.9s0.403,0.9,0.9,0.9s0.9-0.403,0.9-0.9
	S106.499,15.6,106.002,15.6z M108.902,70.3c-0.497,0-0.9,0.403-0.9,0.9s0.403,0.9,0.9,0.9s0.9-0.403,0.9-0.9
	S109.399,70.3,108.902,70.3z M108.902,35.7c-0.497,0-0.9,0.403-0.9,0.9s0.403,0.9,0.9,0.9s0.9-0.403,0.9-0.9
	S109.399,35.7,108.902,35.7z M108.902,87.6c-0.497,0-0.9,0.403-0.9,0.9s0.403,0.9,0.9,0.9s0.9-0.403,0.9-0.9
	S109.399,87.6,108.902,87.6z M108.902,76.1c-0.497,0-0.9,0.403-0.9,0.9s0.403,0.9,0.9,0.9s0.9-0.403,0.9-0.9
	S109.399,76.1,108.902,76.1z M108.902,81.8c-0.497,0-0.9,0.403-0.9,0.9s0.403,0.9,0.9,0.9s0.9-0.403,0.9-0.9
	S109.399,81.8,108.902,81.8z M108.902,18.4c-0.497,0-0.9,0.403-0.9,0.9s0.403,0.9,0.9,0.9s0.9-0.403,0.9-0.9
	S109.399,18.4,108.902,18.4z M111.802,79c-0.497,0-0.9,0.403-0.9,0.9s0.403,0.9,0.9,0.9s0.9-0.403,0.9-0.9S112.299,79,111.802,79z
	 M108.902,30c-0.497,0-0.9,0.403-0.9,0.9s0.403,0.9,0.9,0.9s0.9-0.403,0.9-0.9S109.399,30,108.902,30z M111.802,67.4
	c-0.497,0-0.9,0.403-0.9,0.9s0.403,0.9,0.9,0.9s0.9-0.403,0.9-0.9S112.299,67.4,111.802,67.4z M117.602,79
	c-0.497,0-0.9,0.403-0.9,0.9s0.403,0.9,0.9,0.9s0.9-0.403,0.9-0.9S118.099,79,117.602,79z M111.802,55.9c-0.497,0-0.9,0.403-0.9,0.9
	s0.403,0.9,0.9,0.9s0.9-0.403,0.9-0.9S112.299,55.9,111.802,55.9z M111.802,73.2c-0.497,0-0.9,0.403-0.9,0.9s0.403,0.9,0.9,0.9
	s0.9-0.403,0.9-0.9S112.299,73.2,111.802,73.2z M111.802,50.1c-0.497,0-0.9,0.403-0.9,0.9s0.403,0.9,0.9,0.9s0.9-0.403,0.9-0.9
	S112.299,50.1,111.802,50.1z M108.902,24.2c-0.497,0-0.9,0.403-0.9,0.9s0.403,0.9,0.9,0.9s0.9-0.403,0.9-0.9
	S109.399,24.2,108.902,24.2z M111.802,84.7c-0.497,0-0.9,0.403-0.9,0.9s0.403,0.9,0.9,0.9s0.9-0.403,0.9-0.9
	S112.299,84.7,111.802,84.7z M108.902,12.7c-0.497,0-0.9,0.403-0.9,0.9s0.403,0.9,0.9,0.9s0.9-0.403,0.9-0.9
	S109.399,12.7,108.902,12.7z M111.802,61.7c-0.497,0-0.9,0.403-0.9,0.9s0.403,0.9,0.9,0.9s0.9-0.403,0.9-0.9
	S112.299,61.7,111.802,61.7z M86.702,65.4c0-0.5-0.4-0.9-0.9-0.9c-0.179,0-0.357,0.082-0.536,0.171
	c0.177,0.514,0.364,1.024,0.56,1.529C86.408,66.283,86.702,65.892,86.702,65.4z M157.902,73.2c-0.497,0-0.9,0.403-0.9,0.9
	s0.403,0.9,0.9,0.9s0.9-0.403,0.9-0.9S158.399,73.2,157.902,73.2z M168.602,45.3c0,0.391,0.288,0.778,0.675,0.889
	c-0.057-0.56-0.135-1.114-0.214-1.667C168.787,44.634,168.602,44.919,168.602,45.3z M165.702,36.6c0,0.5,0.4,0.9,0.9,0.9
	c0.263,0,0.522-0.159,0.717-0.399c-0.154-0.464-0.305-0.929-0.474-1.386c-0.064-0.014-0.14-0.016-0.243-0.016
	C166.102,35.7,165.702,36.1,165.702,36.6z M163.602,28.9c-0.157-0.314-0.366-0.628-0.549-0.942c-0.05-0.082-0.104-0.161-0.155-0.242
	c-0.009,0.095-0.095,0.194-0.095,0.384C162.802,28.4,163.202,28.8,163.602,28.9z M157.902,61.7c-0.497,0-0.9,0.403-0.9,0.9
	s0.403,0.9,0.9,0.9s0.9-0.403,0.9-0.9S158.399,61.7,157.902,61.7z M157.902,50.1c-0.497,0-0.9,0.403-0.9,0.9s0.403,0.9,0.9,0.9
	s0.9-0.403,0.9-0.9S158.399,50.1,157.902,50.1z M157.902,44.4c-0.497,0-0.9,0.403-0.9,0.9s0.403,0.9,0.9,0.9s0.9-0.403,0.9-0.9
	S158.399,44.4,157.902,44.4z M157.902,67.4c-0.497,0-0.9,0.403-0.9,0.9s0.403,0.9,0.9,0.9s0.9-0.403,0.9-0.9
	S158.399,67.4,157.902,67.4z M159.902,25.1c0,0.5,0.4,0.9,0.9,0.9c0.292,0,0.58-0.189,0.688-0.383
	c-0.214-0.301-0.423-0.606-0.644-0.901c-0.111-0.142-0.216-0.287-0.343-0.415C160.202,24.4,159.902,24.7,159.902,25.1z
	 M157.902,55.9c-0.497,0-0.9,0.403-0.9,0.9s0.403,0.9,0.9,0.9s0.9-0.403,0.9-0.9S158.399,55.9,157.902,55.9z M157.902,38.6
	c-0.497,0-0.9,0.403-0.9,0.9s0.403,0.9,0.9,0.9s0.9-0.403,0.9-0.9S158.399,38.6,157.902,38.6z M120.402,8.7c0.5,0,0.9-0.4,0.9-0.9
	V7.6c-0.481,0.08-0.908,0.106-1.363,0.16c-0.112,0.016-0.225,0.027-0.336,0.044C119.606,8.302,120.003,8.7,120.402,8.7z
	 M157.002,22.2c0,0.5,0.4,0.9,0.9,0.9c0.497,0,0.894-0.396,0.898-0.892c-0.266-0.305-0.533-0.61-0.807-0.908h-0.091
	C157.402,21.3,157.002,21.7,157.002,22.2L157.002,22.2z M111.802,11.6c0.5,0,0.9-0.4,0.9-0.9s-0.4-0.9-0.9-0.9h-0.062
	c-0.169,0.06-0.34,0.117-0.508,0.179c-0.174,0.196-0.33,0.456-0.33,0.721C110.902,11.2,111.302,11.6,111.802,11.6z M94.502,23.1
	c0.5,0,0.9-0.4,0.9-0.9s-0.4-0.9-0.9-0.9h-0.129c-0.263,0.285-0.516,0.578-0.771,0.87v0.031C93.602,22.7,94.002,23.1,94.502,23.1z
	 M97.402,20.2c0.5,0,0.9-0.4,0.9-0.9s-0.4-0.9-0.9-0.9h-0.091c-0.274,0.246-0.541,0.501-0.809,0.754V19.2
	C96.502,19.8,96.902,20.2,97.402,20.2z M100.302,17.3c0.5,0,0.9-0.4,0.9-0.9c0-0.288-0.187-0.573-0.466-0.772
	c-0.447,0.327-0.886,0.664-1.32,1.007C99.525,17.016,99.818,17.3,100.302,17.3z M154.102,19.3c0,0.5,0.4,0.9,0.9,0.9
	s0.9-0.4,0.9-0.9v-0.109c-0.244-0.231-0.484-0.465-0.733-0.69h-0.167C154.502,18.5,154.102,18.8,154.102,19.3L154.102,19.3z
	 M132.002,8.7c0.491,0,0.882-0.388,0.895-0.875c-0.561-0.088-1.128-0.158-1.695-0.224V7.8C131.102,8.3,131.502,8.7,132.002,8.7z
	 M151.302,16.5c0,0.5,0.4,0.9,0.9,0.9c0.4,0,0.8-0.3,0.8-0.7c-0.3-0.225-0.601-0.465-0.901-0.732
	c-0.112-0.084-0.227-0.162-0.34-0.245C151.486,15.836,151.302,16.12,151.302,16.5z M149.302,14.5c0.178,0,0.285-0.082,0.445-0.17
	c-0.412-0.269-0.824-0.539-1.245-0.794V13.6C148.402,14.1,148.802,14.5,149.302,14.5L149.302,14.5z M155.002,24.2
	c-0.497,0-0.9,0.403-0.9,0.9s0.403,0.9,0.9,0.9s0.9-0.403,0.9-0.9S155.499,24.2,155.002,24.2z M163.702,32.8
	c-0.497,0-0.9,0.403-0.9,0.9s0.403,0.9,0.9,0.9s0.9-0.403,0.9-0.9S164.199,32.8,163.702,32.8z M155.002,30
	c-0.497,0-0.9,0.403-0.9,0.9s0.403,0.9,0.9,0.9s0.9-0.403,0.9-0.9S155.499,30,155.002,30z M163.702,44.4c-0.497,0-0.9,0.403-0.9,0.9
	s0.403,0.9,0.9,0.9s0.9-0.403,0.9-0.9S164.199,44.4,163.702,44.4z M163.702,50.1c-0.497,0-0.9,0.403-0.9,0.9s0.403,0.9,0.9,0.9
	s0.9-0.403,0.9-0.9S164.199,50.1,163.702,50.1z M163.702,55.9c-0.497,0-0.9,0.403-0.9,0.9s0.403,0.9,0.9,0.9s0.9-0.403,0.9-0.9
	S164.199,55.9,163.702,55.9z M166.602,53c-0.497,0-0.9,0.403-0.9,0.9s0.403,0.9,0.9,0.9s0.9-0.403,0.9-0.9S167.099,53,166.602,53z
	 M166.602,41.5c-0.497,0-0.9,0.403-0.9,0.9s0.403,0.9,0.9,0.9s0.9-0.403,0.9-0.9S167.099,41.5,166.602,41.5z M169.489,50.104
	c-0.59,0.104-0.887,0.499-0.887,0.896c0,0.488,0.384,0.876,0.867,0.893c0.013-0.431,0.033-0.86,0.033-1.293
	C169.502,50.434,169.491,50.27,169.489,50.104L169.489,50.104z M166.602,47.3c-0.497,0-0.9,0.403-0.9,0.9s0.403,0.9,0.9,0.9
	s0.9-0.403,0.9-0.9S167.099,47.3,166.602,47.3z M163.702,61.7c-0.497,0-0.9,0.403-0.9,0.9s0.403,0.9,0.9,0.9s0.9-0.403,0.9-0.9
	S164.199,61.7,163.702,61.7z M166.602,58.8c-0.497,0-0.9,0.403-0.9,0.9s0.403,0.9,0.9,0.9s0.9-0.403,0.9-0.9
	S167.099,58.8,166.602,58.8z M160.802,30c-0.497,0-0.9,0.403-0.9,0.9s0.403,0.9,0.9,0.9s0.9-0.403,0.9-0.9S161.299,30,160.802,30z
	 M160.802,58.8c-0.497,0-0.9,0.403-0.9,0.9s0.403,0.9,0.9,0.9s0.9-0.403,0.9-0.9S161.299,58.8,160.802,58.8z M160.802,53
	c-0.497,0-0.9,0.403-0.9,0.9s0.403,0.9,0.9,0.9s0.9-0.403,0.9-0.9S161.299,53,160.802,53z M160.802,64.5c-0.497,0-0.9,0.403-0.9,0.9
	s0.403,0.9,0.9,0.9s0.9-0.403,0.9-0.9S161.299,64.5,160.802,64.5z M157.902,27.1c-0.497,0-0.9,0.403-0.9,0.9s0.403,0.9,0.9,0.9
	s0.9-0.403,0.9-0.9S158.399,27.1,157.902,27.1z M160.802,70.3c-0.497,0-0.9,0.403-0.9,0.9s0.403,0.9,0.9,0.9s0.9-0.403,0.9-0.9
	S161.299,70.3,160.802,70.3z M157.902,32.8c-0.497,0-0.9,0.403-0.9,0.9s0.403,0.9,0.9,0.9s0.9-0.403,0.9-0.9
	S158.399,32.8,157.902,32.8z M160.802,47.3c-0.497,0-0.9,0.403-0.9,0.9s0.403,0.9,0.9,0.9s0.9-0.403,0.9-0.9
	S161.299,47.3,160.802,47.3z M160.802,35.7c-0.497,0-0.9,0.403-0.9,0.9s0.403,0.9,0.9,0.9s0.9-0.403,0.9-0.9
	S161.299,35.7,160.802,35.7z M163.702,67.4c-0.497,0-0.9,0.403-0.9,0.9s0.403,0.9,0.9,0.9s0.9-0.403,0.9-0.9
	S164.199,67.4,163.702,67.4z M160.802,41.5c-0.497,0-0.9,0.403-0.9,0.9s0.403,0.9,0.9,0.9s0.9-0.403,0.9-0.9
	S161.299,41.5,160.802,41.5z M91.602,41.5c-0.497,0-0.9,0.403-0.9,0.9s0.403,0.9,0.9,0.9s0.9-0.403,0.9-0.9S92.099,41.5,91.602,41.5
	z M91.602,47.3c-0.497,0-0.9,0.403-0.9,0.9s0.403,0.9,0.9,0.9s0.9-0.403,0.9-0.9S92.099,47.3,91.602,47.3z M91.602,64.5
	c-0.497,0-0.9,0.403-0.9,0.9s0.403,0.9,0.9,0.9s0.9-0.403,0.9-0.9S92.099,64.5,91.602,64.5z M88.702,61.7
	c-0.497,0-0.9,0.403-0.9,0.9s0.403,0.9,0.9,0.9s0.9-0.403,0.9-0.9S89.199,61.7,88.702,61.7z M91.602,53c-0.497,0-0.9,0.403-0.9,0.9
	s0.403,0.9,0.9,0.9s0.9-0.403,0.9-0.9S92.099,53,91.602,53z M91.602,58.8c-0.497,0-0.9,0.403-0.9,0.9s0.403,0.9,0.9,0.9
	s0.9-0.403,0.9-0.9S92.099,58.8,91.602,58.8z M88.802,28.9c0.5-0.1,0.8-0.5,0.8-0.9c0-0.1,0-0.2-0.1-0.3
	C89.202,28.1,89.002,28.5,88.802,28.9z M88.702,32.8c-0.497,0-0.9,0.403-0.9,0.9s0.403,0.9,0.9,0.9s0.9-0.403,0.9-0.9
	S89.199,32.8,88.702,32.8z M88.702,50.1c-0.497,0-0.9,0.403-0.9,0.9s0.403,0.9,0.9,0.9s0.9-0.403,0.9-0.9S89.199,50.1,88.702,50.1z
	 M88.702,55.9c-0.497,0-0.9,0.403-0.9,0.9s0.403,0.9,0.9,0.9s0.9-0.403,0.9-0.9S89.199,55.9,88.702,55.9z M88.702,44.4
	c-0.497,0-0.9,0.403-0.9,0.9s0.403,0.9,0.9,0.9s0.9-0.403,0.9-0.9S89.199,44.4,88.702,44.4z M88.702,38.6
	c-0.497,0-0.9,0.403-0.9,0.9s0.403,0.9,0.9,0.9s0.9-0.403,0.9-0.9S89.199,38.6,88.702,38.6z M91.602,70.3
	c-0.497,0-0.9,0.403-0.9,0.9s0.403,0.9,0.9,0.9s0.9-0.403,0.9-0.9S92.099,70.3,91.602,70.3z M94.502,50.1
	c-0.497,0-0.9,0.403-0.9,0.9s0.403,0.9,0.9,0.9s0.9-0.403,0.9-0.9S94.999,50.1,94.502,50.1z M94.502,61.7
	c-0.497,0-0.9,0.403-0.9,0.9s0.403,0.9,0.9,0.9s0.9-0.403,0.9-0.9S94.999,61.7,94.502,61.7z M94.502,55.9
	c-0.497,0-0.9,0.403-0.9,0.9s0.403,0.9,0.9,0.9s0.9-0.403,0.9-0.9S94.999,55.9,94.502,55.9z M94.502,38.6
	c-0.497,0-0.9,0.403-0.9,0.9s0.403,0.9,0.9,0.9s0.9-0.403,0.9-0.9S94.999,38.6,94.502,38.6z M94.502,44.4
	c-0.497,0-0.9,0.403-0.9,0.9s0.403,0.9,0.9,0.9s0.9-0.403,0.9-0.9S94.999,44.4,94.502,44.4z M94.502,32.8
	c-0.497,0-0.9,0.403-0.9,0.9s0.403,0.9,0.9,0.9s0.9-0.403,0.9-0.9S94.999,32.8,94.502,32.8z M91.602,30c-0.497,0-0.9,0.403-0.9,0.9
	s0.403,0.9,0.9,0.9s0.9-0.403,0.9-0.9S92.099,30,91.602,30z M94.502,67.4c-0.497,0-0.9,0.403-0.9,0.9s0.403,0.9,0.9,0.9
	s0.9-0.403,0.9-0.9S94.999,67.4,94.502,67.4z M91.602,76.1c-0.095,0-0.19,0.005-0.285,0.091c0.323,0.438,0.657,0.867,0.995,1.293
	c0.096-0.103,0.19-0.292,0.19-0.484C92.502,76.5,92.102,76.1,91.602,76.1z M94.502,73.2c-0.497,0-0.9,0.403-0.9,0.9
	s0.403,0.9,0.9,0.9s0.9-0.403,0.9-0.9S94.999,73.2,94.502,73.2z M91.602,35.7c-0.497,0-0.9,0.403-0.9,0.9s0.403,0.9,0.9,0.9
	s0.9-0.403,0.9-0.9S92.099,35.7,91.602,35.7z M160.702,76.1c-0.4,0-0.8,0.4-0.8,0.9c0,0.181,0.084,0.362,0.174,0.542
	c0.332-0.417,0.662-0.837,0.979-1.267c0.015-0.026,0.032-0.05,0.047-0.076C161.002,76.1,160.902,76.1,160.702,76.1z M140.602,90.5
	c-0.5,0-0.9,0.4-0.9,0.9c0,0.083,0.013,0.179,0.07,0.319c0.544-0.179,1.085-0.364,1.619-0.564
	C141.36,90.779,140.986,90.5,140.602,90.5L140.602,90.5z M151.302,85.6c0,0.075,0.014,0.151,0.057,0.226
	c0.436-0.312,0.867-0.631,1.292-0.959c-0.108-0.087-0.273-0.167-0.448-0.167C151.702,84.7,151.302,85.1,151.302,85.6L151.302,85.6z
	 M155.002,81.9c-0.5,0-0.9,0.4-0.9,0.9c0,0.281,0.096,0.473,0.271,0.66c0.437-0.375,0.868-0.756,1.29-1.148
	C155.541,81.995,155.275,81.9,155.002,81.9z M157.902,79c-0.5,0-0.9,0.4-0.9,0.9c0,0.299,0.199,0.597,0.398,0.698
	c0.394-0.41,0.783-0.825,1.16-1.25C158.374,79.094,158.181,79,157.902,79z M131.446,93.573c0.29-0.035,0.581-0.07,0.869-0.111
	c-0.105-0.048-0.235-0.062-0.313-0.062C131.732,93.4,131.554,93.484,131.446,93.573z M100.302,84.7c-0.19,0-0.294,0.092-0.476,0.187
	c0.419,0.323,0.845,0.638,1.276,0.946V85.7C101.102,85.1,100.802,84.7,100.302,84.7z M94.502,79c-0.29,0-0.486,0.098-0.679,0.285
	c0.094,0.105,0.183,0.215,0.277,0.319c0.159,0.162,0.319,0.334,0.478,0.51c0.146,0.157,0.295,0.311,0.444,0.465
	c0.193-0.193,0.38-0.39,0.38-0.679C95.402,79.4,95.002,79,94.502,79z M120.107,93.461c0.272,0.039,0.546,0.071,0.82,0.105
	c-0.175-0.086-0.35-0.166-0.525-0.166C120.324,93.4,120.232,93.414,120.107,93.461z M111.802,90.5c-0.4,0-0.7,0.3-0.8,0.6
	c0.433,0.173,0.933,0.346,1.386,0.52c0.072,0.024,0.144,0.049,0.217,0.073c0.004-0.098,0.098-0.195,0.098-0.293
	C112.702,90.9,112.302,90.5,111.802,90.5z M85.902,53c-0.497,0-0.9,0.403-0.9,0.9s0.403,0.9,0.9,0.9s0.9-0.403,0.9-0.9
	S86.399,53,85.902,53z M88.702,67.4c-0.497,0-0.9,0.403-0.9,0.9s0.403,0.9,0.9,0.9s0.9-0.403,0.9-0.9S89.199,67.4,88.702,67.4z
	 M85.902,47.3c-0.497,0-0.9,0.403-0.9,0.9s0.403,0.9,0.9,0.9s0.9-0.403,0.9-0.9S86.399,47.3,85.902,47.3z M85.902,41.5
	c-0.497,0-0.9,0.403-0.9,0.9s0.403,0.9,0.9,0.9s0.9-0.403,0.9-0.9S86.399,41.5,85.902,41.5z M85.902,35.7c-0.1,0-0.2,0-0.3,0.1
	c-0.1,0.4-0.3,0.8-0.4,1.2c0.1,0.3,0.3,0.5,0.7,0.5c0.5,0,0.9-0.4,0.9-0.9S86.402,35.7,85.902,35.7z M85.902,58.8
	c-0.497,0-0.9,0.403-0.9,0.9s0.403,0.9,0.9,0.9s0.9-0.403,0.9-0.9S86.399,58.8,85.902,58.8z M168.602,56.8
	c0,0.275,0.169,0.542,0.35,0.663c0.081-0.509,0.147-1.023,0.211-1.538C168.792,56.125,168.602,56.415,168.602,56.8z M83.302,56
	c0.1,0.5,0.1,1,0.2,1.5c0.2-0.1,0.4-0.4,0.4-0.7C83.902,56.4,83.602,56.1,83.302,56z M165.702,65.4c0,0.482,0.374,0.862,0.849,0.89
	c0.197-0.506,0.386-1.015,0.564-1.53c-0.171-0.084-0.342-0.16-0.513-0.16C166.102,64.6,165.702,65,165.702,65.4z M83.002,50.1v0.5
	v1.3c0.5,0,0.9-0.4,0.9-0.9S83.502,50.1,83.002,50.1z M83.402,44.5c-0.1,0.5-0.2,1.1-0.2,1.6c0.3-0.1,0.7-0.4,0.7-0.8
	C83.902,45,83.702,44.7,83.402,44.5z M163.702,38.6c-0.497,0-0.9,0.403-0.9,0.9s0.403,0.9,0.9,0.9s0.9-0.403,0.9-0.9
	S164.199,38.6,163.702,38.6z M140.602,27.1c-0.497,0-0.9,0.403-0.9,0.9s0.403,0.9,0.9,0.9s0.9-0.403,0.9-0.9
	S141.099,27.1,140.602,27.1z M140.602,32.8c-0.497,0-0.9,0.403-0.9,0.9s0.403,0.9,0.9,0.9s0.9-0.403,0.9-0.9
	S141.099,32.8,140.602,32.8z M140.602,21.3c-0.497,0-0.9,0.403-0.9,0.9s0.403,0.9,0.9,0.9s0.9-0.403,0.9-0.9
	S141.099,21.3,140.602,21.3z M140.602,38.6c-0.497,0-0.9,0.403-0.9,0.9s0.403,0.9,0.9,0.9s0.9-0.403,0.9-0.9
	S141.099,38.6,140.602,38.6z M140.602,15.6c-0.497,0-0.9,0.403-0.9,0.9s0.403,0.9,0.9,0.9s0.9-0.403,0.9-0.9
	S141.099,15.6,140.602,15.6z M140.602,55.9c-0.497,0-0.9,0.403-0.9,0.9s0.403,0.9,0.9,0.9s0.9-0.403,0.9-0.9
	S141.099,55.9,140.602,55.9z M140.602,61.7c-0.497,0-0.9,0.403-0.9,0.9s0.403,0.9,0.9,0.9s0.9-0.403,0.9-0.9
	S141.099,61.7,140.602,61.7z M143.502,24.2c-0.497,0-0.9,0.403-0.9,0.9s0.403,0.9,0.9,0.9s0.9-0.403,0.9-0.9
	S143.999,24.2,143.502,24.2z M140.602,44.4c-0.497,0-0.9,0.403-0.9,0.9s0.403,0.9,0.9,0.9s0.9-0.403,0.9-0.9
	S141.099,44.4,140.602,44.4z M140.602,73.2c-0.497,0-0.9,0.403-0.9,0.9s0.403,0.9,0.9,0.9s0.9-0.403,0.9-0.9
	S141.099,73.2,140.602,73.2z M141.102,10c-0.1,0-0.2-0.1-0.3-0.1h-0.1c-0.6-0.1-1,0.3-1,0.8s0.4,0.9,0.9,0.9s0.9-0.4,0.9-0.9
	C141.502,10.4,141.302,10.1,141.102,10L141.102,10z M140.602,50.1c-0.497,0-0.9,0.403-0.9,0.9s0.403,0.9,0.9,0.9s0.9-0.403,0.9-0.9
	S141.099,50.1,140.602,50.1z M143.502,53c-0.497,0-0.9,0.403-0.9,0.9s0.403,0.9,0.9,0.9s0.9-0.403,0.9-0.9S143.999,53,143.502,53z
	 M143.502,87.6c-0.497,0-0.9,0.403-0.9,0.9s0.403,0.9,0.9,0.9s0.9-0.403,0.9-0.9S143.999,87.6,143.502,87.6z M143.502,41.5
	c-0.497,0-0.9,0.403-0.9,0.9s0.403,0.9,0.9,0.9s0.9-0.403,0.9-0.9S143.999,41.5,143.502,41.5z M134.902,44.4
	c-0.497,0-0.9,0.403-0.9,0.9s0.403,0.9,0.9,0.9s0.9-0.403,0.9-0.9S135.399,44.4,134.902,44.4z M143.502,35.7
	c-0.497,0-0.9,0.403-0.9,0.9s0.403,0.9,0.9,0.9s0.9-0.403,0.9-0.9S143.999,35.7,143.502,35.7z M143.502,47.3
	c-0.497,0-0.9,0.403-0.9,0.9s0.403,0.9,0.9,0.9s0.9-0.403,0.9-0.9S143.999,47.3,143.502,47.3z M143.502,76.1
	c-0.497,0-0.9,0.403-0.9,0.9s0.403,0.9,0.9,0.9s0.9-0.403,0.9-0.9S143.999,76.1,143.502,76.1z M143.502,81.8
	c-0.497,0-0.9,0.403-0.9,0.9s0.403,0.9,0.9,0.9s0.9-0.403,0.9-0.9S143.999,81.8,143.502,81.8z M143.502,58.8
	c-0.497,0-0.9,0.403-0.9,0.9s0.403,0.9,0.9,0.9s0.9-0.403,0.9-0.9S143.999,58.8,143.502,58.8z M143.502,70.3
	c-0.497,0-0.9,0.403-0.9,0.9s0.403,0.9,0.9,0.9s0.9-0.403,0.9-0.9S143.999,70.3,143.502,70.3z M143.502,64.5
	c-0.497,0-0.9,0.403-0.9,0.9s0.403,0.9,0.9,0.9s0.9-0.403,0.9-0.9S143.999,64.5,143.502,64.5z M140.602,67.4
	c-0.497,0-0.9,0.403-0.9,0.9s0.403,0.9,0.9,0.9s0.9-0.403,0.9-0.9S141.099,67.4,140.602,67.4z M137.702,87.6
	c-0.497,0-0.9,0.403-0.9,0.9s0.403,0.9,0.9,0.9s0.9-0.403,0.9-0.9S138.199,87.6,137.702,87.6z M137.702,81.8
	c-0.497,0-0.9,0.403-0.9,0.9s0.403,0.9,0.9,0.9s0.9-0.403,0.9-0.9S138.199,81.8,137.702,81.8z M137.702,70.3
	c-0.497,0-0.9,0.403-0.9,0.9s0.403,0.9,0.9,0.9s0.9-0.403,0.9-0.9S138.199,70.3,137.702,70.3z M134.902,9.8
	c-0.497,0-0.9,0.403-0.9,0.9s0.403,0.9,0.9,0.9s0.9-0.403,0.9-0.9S135.399,9.8,134.902,9.8z M137.702,76.1
	c-0.497,0-0.9,0.403-0.9,0.9s0.403,0.9,0.9,0.9s0.9-0.403,0.9-0.9S138.199,76.1,137.702,76.1z M134.902,15.6
	c-0.497,0-0.9,0.403-0.9,0.9s0.403,0.9,0.9,0.9s0.9-0.403,0.9-0.9S135.399,15.6,134.902,15.6z M137.702,64.5
	c-0.497,0-0.9,0.403-0.9,0.9s0.403,0.9,0.9,0.9s0.9-0.403,0.9-0.9S138.199,64.5,137.702,64.5z M134.902,38.6
	c-0.497,0-0.9,0.403-0.9,0.9s0.403,0.9,0.9,0.9s0.9-0.403,0.9-0.9S135.399,38.6,134.902,38.6z M134.902,32.8
	c-0.497,0-0.9,0.403-0.9,0.9s0.403,0.9,0.9,0.9s0.9-0.403,0.9-0.9S135.399,32.8,134.902,32.8z M134.902,27.1
	c-0.497,0-0.9,0.403-0.9,0.9s0.403,0.9,0.9,0.9s0.9-0.403,0.9-0.9S135.399,27.1,134.902,27.1z M134.902,21.3
	c-0.497,0-0.9,0.403-0.9,0.9s0.403,0.9,0.9,0.9s0.9-0.403,0.9-0.9S135.399,21.3,134.902,21.3z M140.602,79
	c-0.497,0-0.9,0.403-0.9,0.9s0.403,0.9,0.9,0.9s0.9-0.403,0.9-0.9S141.099,79,140.602,79z M137.702,18.4c-0.497,0-0.9,0.403-0.9,0.9
	s0.403,0.9,0.9,0.9s0.9-0.403,0.9-0.9S138.199,18.4,137.702,18.4z M137.702,24.2c-0.497,0-0.9,0.403-0.9,0.9s0.403,0.9,0.9,0.9
	s0.9-0.403,0.9-0.9S138.199,24.2,137.702,24.2z M137.702,30c-0.497,0-0.9,0.403-0.9,0.9s0.403,0.9,0.9,0.9s0.9-0.403,0.9-0.9
	S138.199,30,137.702,30z M137.702,12.7c-0.497,0-0.9,0.403-0.9,0.9s0.403,0.9,0.9,0.9s0.9-0.403,0.9-0.9S138.199,12.7,137.702,12.7z
	 M140.602,84.7c-0.497,0-0.9,0.403-0.9,0.9s0.403,0.9,0.9,0.9s0.9-0.403,0.9-0.9S141.099,84.7,140.602,84.7z M137.702,53
	c-0.497,0-0.9,0.403-0.9,0.9s0.403,0.9,0.9,0.9s0.9-0.403,0.9-0.9S138.199,53,137.702,53z M137.702,58.8c-0.497,0-0.9,0.403-0.9,0.9
	s0.403,0.9,0.9,0.9s0.9-0.403,0.9-0.9S138.199,58.8,137.702,58.8z M137.702,47.3c-0.497,0-0.9,0.403-0.9,0.9s0.403,0.9,0.9,0.9
	s0.9-0.403,0.9-0.9S138.199,47.3,137.702,47.3z M137.702,41.5c-0.497,0-0.9,0.403-0.9,0.9s0.403,0.9,0.9,0.9s0.9-0.403,0.9-0.9
	S138.199,41.5,137.702,41.5z M137.702,35.7c-0.497,0-0.9,0.403-0.9,0.9s0.403,0.9,0.9,0.9s0.9-0.403,0.9-0.9
	S138.199,35.7,137.702,35.7z M143.502,30c-0.497,0-0.9,0.403-0.9,0.9s0.403,0.9,0.9,0.9s0.9-0.403,0.9-0.9S143.999,30,143.502,30z
	 M152.102,38.6c-0.497,0-0.9,0.403-0.9,0.9s0.403,0.9,0.9,0.9s0.9-0.403,0.9-0.9S152.599,38.6,152.102,38.6z M152.102,55.9
	c-0.497,0-0.9,0.403-0.9,0.9s0.403,0.9,0.9,0.9s0.9-0.403,0.9-0.9S152.599,55.9,152.102,55.9z M152.102,61.7
	c-0.497,0-0.9,0.403-0.9,0.9s0.403,0.9,0.9,0.9s0.9-0.403,0.9-0.9S152.599,61.7,152.102,61.7z M152.102,50.1
	c-0.497,0-0.9,0.403-0.9,0.9s0.403,0.9,0.9,0.9s0.9-0.403,0.9-0.9S152.599,50.1,152.102,50.1z M152.102,44.4
	c-0.497,0-0.9,0.403-0.9,0.9s0.403,0.9,0.9,0.9s0.9-0.403,0.9-0.9S152.599,44.4,152.102,44.4z M152.102,67.4
	c-0.497,0-0.9,0.403-0.9,0.9s0.403,0.9,0.9,0.9s0.9-0.403,0.9-0.9S152.599,67.4,152.102,67.4z M117.602,73.2
	c-0.497,0-0.9,0.403-0.9,0.9s0.403,0.9,0.9,0.9s0.9-0.403,0.9-0.9S118.099,73.2,117.602,73.2z M149.302,24.2
	c-0.497,0-0.9,0.403-0.9,0.9s0.403,0.9,0.9,0.9s0.9-0.403,0.9-0.9S149.799,24.2,149.302,24.2z M152.102,79
	c-0.497,0-0.9,0.403-0.9,0.9s0.403,0.9,0.9,0.9s0.9-0.403,0.9-0.9S152.599,79,152.102,79z M149.302,18.4c-0.497,0-0.9,0.403-0.9,0.9
	s0.403,0.9,0.9,0.9s0.9-0.403,0.9-0.9S149.799,18.4,149.302,18.4z M152.102,73.2c-0.497,0-0.9,0.403-0.9,0.9s0.403,0.9,0.9,0.9
	s0.9-0.403,0.9-0.9S152.599,73.2,152.102,73.2z M155.002,76.1c-0.497,0-0.9,0.403-0.9,0.9s0.403,0.9,0.9,0.9s0.9-0.403,0.9-0.9
	S155.499,76.1,155.002,76.1z M155.002,47.3c-0.497,0-0.9,0.403-0.9,0.9s0.403,0.9,0.9,0.9s0.9-0.403,0.9-0.9
	S155.499,47.3,155.002,47.3z M155.002,58.8c-0.497,0-0.9,0.403-0.9,0.9s0.403,0.9,0.9,0.9s0.9-0.403,0.9-0.9
	S155.499,58.8,155.002,58.8z M143.502,18.4c-0.497,0-0.9,0.403-0.9,0.9s0.403,0.9,0.9,0.9s0.9-0.403,0.9-0.9
	S143.999,18.4,143.502,18.4z M155.002,35.7c-0.497,0-0.9,0.403-0.9,0.9s0.403,0.9,0.9,0.9s0.9-0.403,0.9-0.9
	S155.499,35.7,155.002,35.7z M152.102,32.8c-0.497,0-0.9,0.403-0.9,0.9s0.403,0.9,0.9,0.9s0.9-0.403,0.9-0.9
	S152.599,32.8,152.102,32.8z M155.002,41.5c-0.497,0-0.9,0.403-0.9,0.9s0.403,0.9,0.9,0.9s0.9-0.403,0.9-0.9
	S155.499,41.5,155.002,41.5z M152.102,21.3c-0.497,0-0.9,0.403-0.9,0.9s0.403,0.9,0.9,0.9s0.9-0.403,0.9-0.9
	S152.599,21.3,152.102,21.3z M155.002,64.5c-0.497,0-0.9,0.403-0.9,0.9s0.403,0.9,0.9,0.9s0.9-0.403,0.9-0.9
	S155.499,64.5,155.002,64.5z M152.102,27.1c-0.497,0-0.9,0.403-0.9,0.9s0.403,0.9,0.9,0.9s0.9-0.403,0.9-0.9
	S152.599,27.1,152.102,27.1z M149.302,35.7c-0.497,0-0.9,0.403-0.9,0.9s0.403,0.9,0.9,0.9s0.9-0.403,0.9-0.9
	S149.799,35.7,149.302,35.7z M155.002,70.3c-0.497,0-0.9,0.403-0.9,0.9s0.403,0.9,0.9,0.9s0.9-0.403,0.9-0.9
	S155.499,70.3,155.002,70.3z M155.002,53c-0.497,0-0.9,0.403-0.9,0.9s0.403,0.9,0.9,0.9s0.9-0.403,0.9-0.9S155.499,53,155.002,53z
	 M146.402,55.9c-0.497,0-0.9,0.403-0.9,0.9s0.403,0.9,0.9,0.9s0.9-0.403,0.9-0.9S146.899,55.9,146.402,55.9z M146.402,50.1
	c-0.497,0-0.9,0.403-0.9,0.9s0.403,0.9,0.9,0.9s0.9-0.403,0.9-0.9S146.899,50.1,146.402,50.1z M146.402,61.7
	c-0.497,0-0.9,0.403-0.9,0.9s0.403,0.9,0.9,0.9s0.9-0.403,0.9-0.9S146.899,61.7,146.402,61.7z M146.402,44.4
	c-0.497,0-0.9,0.403-0.9,0.9s0.403,0.9,0.9,0.9s0.9-0.403,0.9-0.9S146.899,44.4,146.402,44.4z M146.402,38.6
	c-0.497,0-0.9,0.403-0.9,0.9s0.403,0.9,0.9,0.9s0.9-0.403,0.9-0.9S146.899,38.6,146.402,38.6z M146.402,32.8
	c-0.497,0-0.9,0.403-0.9,0.9s0.403,0.9,0.9,0.9s0.9-0.403,0.9-0.9S146.899,32.8,146.402,32.8z M146.402,84.7
	c-0.497,0-0.9,0.403-0.9,0.9s0.403,0.9,0.9,0.9s0.9-0.403,0.9-0.9S146.899,84.7,146.402,84.7z M143.502,12.7
	c-0.497,0-0.9,0.403-0.9,0.9s0.403,0.9,0.9,0.9s0.9-0.403,0.9-0.9S143.999,12.7,143.502,12.7z M146.402,67.4
	c-0.497,0-0.9,0.403-0.9,0.9s0.403,0.9,0.9,0.9s0.9-0.403,0.9-0.9S146.899,67.4,146.402,67.4z M146.402,79
	c-0.497,0-0.9,0.403-0.9,0.9s0.403,0.9,0.9,0.9s0.9-0.403,0.9-0.9S146.899,79,146.402,79z M146.402,73.2c-0.497,0-0.9,0.403-0.9,0.9
	s0.403,0.9,0.9,0.9s0.9-0.403,0.9-0.9S146.899,73.2,146.402,73.2z M146.402,21.3c-0.497,0-0.9,0.403-0.9,0.9s0.403,0.9,0.9,0.9
	s0.9-0.403,0.9-0.9S146.899,21.3,146.402,21.3z M149.302,58.8c-0.497,0-0.9,0.403-0.9,0.9s0.403,0.9,0.9,0.9s0.9-0.403,0.9-0.9
	S149.799,58.8,149.302,58.8z M149.302,64.5c-0.497,0-0.9,0.403-0.9,0.9s0.403,0.9,0.9,0.9s0.9-0.403,0.9-0.9
	S149.799,64.5,149.302,64.5z M149.302,47.3c-0.497,0-0.9,0.403-0.9,0.9s0.403,0.9,0.9,0.9s0.9-0.403,0.9-0.9
	S149.799,47.3,149.302,47.3z M149.302,53c-0.497,0-0.9,0.403-0.9,0.9s0.403,0.9,0.9,0.9s0.9-0.403,0.9-0.9S149.799,53,149.302,53z
	 M149.302,70.3c-0.497,0-0.9,0.403-0.9,0.9s0.403,0.9,0.9,0.9s0.9-0.403,0.9-0.9S149.799,70.3,149.302,70.3z M146.402,27.1
	c-0.497,0-0.9,0.403-0.9,0.9s0.403,0.9,0.9,0.9s0.9-0.403,0.9-0.9S146.899,27.1,146.402,27.1z M149.302,41.5
	c-0.497,0-0.9,0.403-0.9,0.9s0.403,0.9,0.9,0.9s0.9-0.403,0.9-0.9S149.799,41.5,149.302,41.5z M146.402,15.6
	c-0.497,0-0.9,0.403-0.9,0.9s0.403,0.9,0.9,0.9s0.9-0.403,0.9-0.9S146.899,15.6,146.402,15.6z M149.302,76.1
	c-0.497,0-0.9,0.403-0.9,0.9s0.403,0.9,0.9,0.9s0.9-0.403,0.9-0.9S149.799,76.1,149.302,76.1z M149.302,81.8
	c-0.497,0-0.9,0.403-0.9,0.9s0.403,0.9,0.9,0.9s0.9-0.403,0.9-0.9S149.799,81.8,149.302,81.8z M149.302,30
	c-0.497,0-0.9,0.403-0.9,0.9s0.403,0.9,0.9,0.9s0.9-0.403,0.9-0.9S149.799,30,149.302,30z M123.302,61.7c-0.497,0-0.9,0.403-0.9,0.9
	s0.403,0.9,0.9,0.9s0.9-0.403,0.9-0.9S123.799,61.7,123.302,61.7z M123.302,73.2c-0.497,0-0.9,0.403-0.9,0.9s0.403,0.9,0.9,0.9
	s0.9-0.403,0.9-0.9S123.799,73.2,123.302,73.2z M123.302,67.4c-0.497,0-0.9,0.403-0.9,0.9s0.403,0.9,0.9,0.9s0.9-0.403,0.9-0.9
	S123.799,67.4,123.302,67.4z M123.302,55.9c-0.497,0-0.9,0.403-0.9,0.9s0.403,0.9,0.9,0.9s0.9-0.403,0.9-0.9
	S123.799,55.9,123.302,55.9z M123.302,50.1c-0.497,0-0.9,0.403-0.9,0.9s0.403,0.9,0.9,0.9s0.9-0.403,0.9-0.9
	S123.799,50.1,123.302,50.1z M120.402,12.7c-0.497,0-0.9,0.403-0.9,0.9s0.403,0.9,0.9,0.9s0.9-0.403,0.9-0.9
	S120.899,12.7,120.402,12.7z M120.402,18.4c-0.497,0-0.9,0.403-0.9,0.9s0.403,0.9,0.9,0.9s0.9-0.403,0.9-0.9
	S120.899,18.4,120.402,18.4z M123.302,79c-0.497,0-0.9,0.403-0.9,0.9s0.403,0.9,0.9,0.9s0.9-0.403,0.9-0.9S123.799,79,123.302,79z
	 M123.302,44.4c-0.497,0-0.9,0.403-0.9,0.9s0.403,0.9,0.9,0.9s0.9-0.403,0.9-0.9S123.799,44.4,123.302,44.4z M123.302,90.5
	c-0.497,0-0.9,0.403-0.9,0.9s0.403,0.9,0.9,0.9s0.9-0.403,0.9-0.9S123.799,90.5,123.302,90.5z M123.302,84.7
	c-0.497,0-0.9,0.403-0.9,0.9s0.403,0.9,0.9,0.9s0.9-0.403,0.9-0.9S123.799,84.7,123.302,84.7z M126.502,76.2c-0.1,0-0.2-0.1-0.3-0.1
	c-0.5,0-0.9,0.4-0.9,0.9s0.4,0.9,0.9,0.9c0.1,0,0.2,0,0.3-0.1c0.2-0.1,0.4-0.3,0.5-0.5c0-0.1,0.1-0.2,0.1-0.3s0-0.2-0.1-0.3
	C126.902,76.4,126.802,76.3,126.502,76.2z M126.502,87.7c-0.1,0-0.2-0.1-0.3-0.1c-0.5,0-0.9,0.4-0.9,0.9s0.4,0.9,0.9,0.9
	c0.1,0,0.2,0,0.3-0.1c0.2-0.1,0.4-0.3,0.5-0.5c0-0.1,0.1-0.2,0.1-0.3s0-0.2-0.1-0.3C126.902,87.9,126.802,87.8,126.502,87.7z
	 M126.502,81.9c-0.1,0-0.2-0.1-0.3-0.1c-0.5,0-0.9,0.4-0.9,0.9s0.4,0.9,0.9,0.9c0.1,0,0.2,0,0.3-0.1c0.2-0.1,0.4-0.3,0.5-0.5
	c0-0.1,0.1-0.2,0.1-0.3s0-0.2-0.1-0.3C126.902,82.2,126.802,82,126.502,81.9z M120.402,24.2c-0.497,0-0.9,0.403-0.9,0.9
	s0.403,0.9,0.9,0.9s0.9-0.403,0.9-0.9S120.899,24.2,120.402,24.2z M126.502,58.9c-0.1,0-0.2-0.1-0.3-0.1c-0.5,0-0.9,0.4-0.9,0.9
	s0.4,0.9,0.9,0.9c0.1,0,0.2,0,0.3-0.1c0.2-0.1,0.4-0.3,0.5-0.5c0-0.1,0.1-0.2,0.1-0.3s0-0.2-0.1-0.3
	C126.902,59.1,126.802,59,126.502,58.9z M126.502,70.4c-0.1,0-0.2-0.1-0.3-0.1c-0.5,0-0.9,0.4-0.9,0.9s0.4,0.9,0.9,0.9
	c0.1,0,0.2,0,0.3-0.1c0.2-0.1,0.4-0.3,0.5-0.5c0-0.1,0.1-0.2,0.1-0.3s0-0.2-0.1-0.3C126.902,70.7,126.802,70.5,126.502,70.4z
	 M123.302,9.8c-0.497,0-0.9,0.403-0.9,0.9s0.403,0.9,0.9,0.9s0.9-0.403,0.9-0.9S123.799,9.8,123.302,9.8z M123.302,32.8
	c-0.497,0-0.9,0.403-0.9,0.9s0.403,0.9,0.9,0.9s0.9-0.403,0.9-0.9S123.799,32.8,123.302,32.8z M123.302,38.6
	c-0.497,0-0.9,0.403-0.9,0.9s0.403,0.9,0.9,0.9s0.9-0.403,0.9-0.9S123.799,38.6,123.302,38.6z M123.302,27.1
	c-0.497,0-0.9,0.403-0.9,0.9s0.403,0.9,0.9,0.9s0.9-0.403,0.9-0.9S123.799,27.1,123.302,27.1z M123.302,21.3
	c-0.497,0-0.9,0.403-0.9,0.9s0.403,0.9,0.9,0.9s0.9-0.403,0.9-0.9S123.799,21.3,123.302,21.3z M123.302,15.6
	c-0.497,0-0.9,0.403-0.9,0.9s0.403,0.9,0.9,0.9s0.9-0.403,0.9-0.9S123.799,15.6,123.302,15.6z M126.502,64.6c-0.1,0-0.2-0.1-0.3-0.1
	c-0.5,0-0.9,0.4-0.9,0.9s0.4,0.9,0.9,0.9c0.1,0,0.2,0,0.3-0.1c0.2-0.1,0.4-0.3,0.5-0.5c0-0.1,0.1-0.2,0.1-0.3s0-0.2-0.1-0.3
	C126.902,64.9,126.802,64.7,126.502,64.6z M117.602,27.1c-0.497,0-0.9,0.403-0.9,0.9s0.403,0.9,0.9,0.9s0.9-0.403,0.9-0.9
	S118.099,27.1,117.602,27.1z M117.602,32.8c-0.497,0-0.9,0.403-0.9,0.9s0.403,0.9,0.9,0.9s0.9-0.403,0.9-0.9
	S118.099,32.8,117.602,32.8z M117.602,38.6c-0.497,0-0.9,0.403-0.9,0.9s0.403,0.9,0.9,0.9s0.9-0.403,0.9-0.9
	S118.099,38.6,117.602,38.6z M117.602,15.6c-0.497,0-0.9,0.403-0.9,0.9s0.403,0.9,0.9,0.9s0.9-0.403,0.9-0.9
	S118.099,15.6,117.602,15.6z M117.602,21.3c-0.497,0-0.9,0.403-0.9,0.9s0.403,0.9,0.9,0.9s0.9-0.403,0.9-0.9
	S118.099,21.3,117.602,21.3z M117.602,67.4c-0.497,0-0.9,0.403-0.9,0.9s0.403,0.9,0.9,0.9s0.9-0.403,0.9-0.9
	S118.099,67.4,117.602,67.4z M117.602,9.8c-0.497,0-0.9,0.403-0.9,0.9s0.403,0.9,0.9,0.9s0.9-0.403,0.9-0.9S118.099,9.8,117.602,9.8
	z M120.402,30c-0.497,0-0.9,0.403-0.9,0.9s0.403,0.9,0.9,0.9s0.9-0.403,0.9-0.9S120.899,30,120.402,30z M117.602,44.4
	c-0.497,0-0.9,0.403-0.9,0.9s0.403,0.9,0.9,0.9s0.9-0.403,0.9-0.9S118.099,44.4,117.602,44.4z M117.602,50.1
	c-0.497,0-0.9,0.403-0.9,0.9s0.403,0.9,0.9,0.9s0.9-0.403,0.9-0.9S118.099,50.1,117.602,50.1z M117.602,55.9
	c-0.497,0-0.9,0.403-0.9,0.9s0.403,0.9,0.9,0.9s0.9-0.403,0.9-0.9S118.099,55.9,117.602,55.9z M117.602,61.7
	c-0.497,0-0.9,0.403-0.9,0.9s0.403,0.9,0.9,0.9s0.9-0.403,0.9-0.9S118.099,61.7,117.602,61.7z M120.402,53
	c-0.497,0-0.9,0.403-0.9,0.9s0.403,0.9,0.9,0.9s0.9-0.403,0.9-0.9S120.899,53,120.402,53z M120.402,47.3c-0.497,0-0.9,0.403-0.9,0.9
	s0.403,0.9,0.9,0.9s0.9-0.403,0.9-0.9S120.899,47.3,120.402,47.3z M120.402,35.7c-0.497,0-0.9,0.403-0.9,0.9s0.403,0.9,0.9,0.9
	s0.9-0.403,0.9-0.9S120.899,35.7,120.402,35.7z M120.402,41.5c-0.497,0-0.9,0.403-0.9,0.9s0.403,0.9,0.9,0.9s0.9-0.403,0.9-0.9
	S120.899,41.5,120.402,41.5z M120.402,58.8c-0.497,0-0.9,0.403-0.9,0.9s0.403,0.9,0.9,0.9s0.9-0.403,0.9-0.9
	S120.899,58.8,120.402,58.8z M120.402,64.5c-0.497,0-0.9,0.403-0.9,0.9s0.403,0.9,0.9,0.9s0.9-0.403,0.9-0.9
	S120.899,64.5,120.402,64.5z M120.402,81.8c-0.497,0-0.9,0.403-0.9,0.9s0.403,0.9,0.9,0.9s0.9-0.403,0.9-0.9
	S120.899,81.8,120.402,81.8z M120.402,76.1c-0.497,0-0.9,0.403-0.9,0.9s0.403,0.9,0.9,0.9s0.9-0.403,0.9-0.9
	S120.899,76.1,120.402,76.1z M120.402,70.3c-0.497,0-0.9,0.403-0.9,0.9s0.403,0.9,0.9,0.9s0.9-0.403,0.9-0.9
	S120.899,70.3,120.402,70.3z M120.402,87.6c-0.497,0-0.9,0.403-0.9,0.9s0.403,0.9,0.9,0.9s0.9-0.403,0.9-0.9
	S120.899,87.6,120.402,87.6z M132.002,18.4c-0.497,0-0.9,0.403-0.9,0.9s0.403,0.9,0.9,0.9s0.9-0.403,0.9-0.9
	S132.499,18.4,132.002,18.4z M132.002,30c-0.497,0-0.9,0.403-0.9,0.9s0.403,0.9,0.9,0.9s0.9-0.403,0.9-0.9S132.499,30,132.002,30z
	 M132.002,47.3c-0.497,0-0.9,0.403-0.9,0.9s0.403,0.9,0.9,0.9s0.9-0.403,0.9-0.9S132.499,47.3,132.002,47.3z M132.002,41.5
	c-0.497,0-0.9,0.403-0.9,0.9s0.403,0.9,0.9,0.9s0.9-0.403,0.9-0.9S132.499,41.5,132.002,41.5z M132.002,35.7
	c-0.497,0-0.9,0.403-0.9,0.9s0.403,0.9,0.9,0.9s0.9-0.403,0.9-0.9S132.499,35.7,132.002,35.7z M132.002,58.8
	c-0.497,0-0.9,0.403-0.9,0.9s0.403,0.9,0.9,0.9s0.9-0.403,0.9-0.9S132.499,58.8,132.002,58.8z M132.002,53
	c-0.497,0-0.9,0.403-0.9,0.9s0.403,0.9,0.9,0.9s0.9-0.403,0.9-0.9S132.499,53,132.002,53z M132.002,81.8c-0.497,0-0.9,0.403-0.9,0.9
	s0.403,0.9,0.9,0.9s0.9-0.403,0.9-0.9S132.499,81.8,132.002,81.8z M132.002,87.6c-0.497,0-0.9,0.403-0.9,0.9s0.403,0.9,0.9,0.9
	s0.9-0.403,0.9-0.9S132.499,87.6,132.002,87.6z M132.002,76.1c-0.497,0-0.9,0.403-0.9,0.9s0.403,0.9,0.9,0.9s0.9-0.403,0.9-0.9
	S132.499,76.1,132.002,76.1z M132.002,64.5c-0.497,0-0.9,0.403-0.9,0.9s0.403,0.9,0.9,0.9s0.9-0.403,0.9-0.9
	S132.499,64.5,132.002,64.5z M132.002,70.3c-0.497,0-0.9,0.403-0.9,0.9s0.403,0.9,0.9,0.9s0.9-0.403,0.9-0.9
	S132.499,70.3,132.002,70.3z M134.902,61.7c-0.497,0-0.9,0.403-0.9,0.9s0.403,0.9,0.9,0.9s0.9-0.403,0.9-0.9
	S135.399,61.7,134.902,61.7z M134.902,79c-0.497,0-0.9,0.403-0.9,0.9s0.403,0.9,0.9,0.9s0.9-0.403,0.9-0.9S135.399,79,134.902,79z
	 M134.902,67.4c-0.497,0-0.9,0.403-0.9,0.9s0.403,0.9,0.9,0.9s0.9-0.403,0.9-0.9S135.399,67.4,134.902,67.4z M134.902,73.2
	c-0.497,0-0.9,0.403-0.9,0.9s0.403,0.9,0.9,0.9s0.9-0.403,0.9-0.9S135.399,73.2,134.902,73.2z M132.002,24.2
	c-0.497,0-0.9,0.403-0.9,0.9s0.403,0.9,0.9,0.9s0.9-0.403,0.9-0.9S132.499,24.2,132.002,24.2z M129.102,9.8
	c-0.497,0-0.9,0.403-0.9,0.9s0.403,0.9,0.9,0.9s0.9-0.403,0.9-0.9S129.599,9.8,129.102,9.8z M134.902,55.9
	c-0.497,0-0.9,0.403-0.9,0.9s0.403,0.9,0.9,0.9s0.9-0.403,0.9-0.9S135.399,55.9,134.902,55.9z M134.902,84.7
	c-0.497,0-0.9,0.403-0.9,0.9s0.403,0.9,0.9,0.9s0.9-0.403,0.9-0.9S135.399,84.7,134.902,84.7z M132.002,12.7
	c-0.497,0-0.9,0.403-0.9,0.9s0.403,0.9,0.9,0.9s0.9-0.403,0.9-0.9S132.499,12.7,132.002,12.7z M134.902,50.1
	c-0.497,0-0.9,0.403-0.9,0.9s0.403,0.9,0.9,0.9s0.9-0.403,0.9-0.9S135.399,50.1,134.902,50.1z M134.902,90.5
	c-0.497,0-0.9,0.403-0.9,0.9s0.403,0.9,0.9,0.9s0.9-0.403,0.9-0.9S135.399,90.5,134.902,90.5z M129.102,73.2
	c-0.497,0-0.9,0.403-0.9,0.9s0.403,0.9,0.9,0.9s0.9-0.403,0.9-0.9S129.599,73.2,129.102,73.2z M126.502,18.5c-0.1,0-0.2-0.1-0.3-0.1
	c-0.5,0-0.9,0.4-0.9,0.9s0.4,0.9,0.9,0.9c0.1,0,0.2,0,0.3-0.1c0.2-0.1,0.4-0.3,0.5-0.5c0-0.1,0.1-0.2,0.1-0.3s0-0.2-0.1-0.3
	C126.902,18.8,126.802,18.6,126.502,18.5z M129.102,79c-0.497,0-0.9,0.403-0.9,0.9s0.403,0.9,0.9,0.9s0.9-0.403,0.9-0.9
	S129.599,79,129.102,79z M126.502,12.8c-0.1,0-0.2-0.1-0.3-0.1c-0.5,0-0.9,0.4-0.9,0.9s0.4,0.9,0.9,0.9c0.1,0,0.2,0,0.3-0.1
	c0.2-0.1,0.4-0.3,0.5-0.5c0-0.1,0.1-0.2,0.1-0.3s0-0.2-0.1-0.3C126.902,13,126.802,12.8,126.502,12.8z M129.102,84.7
	c-0.497,0-0.9,0.403-0.9,0.9s0.403,0.9,0.9,0.9s0.9-0.403,0.9-0.9S129.599,84.7,129.102,84.7z M129.102,90.5
	c-0.497,0-0.9,0.403-0.9,0.9s0.403,0.9,0.9,0.9s0.9-0.403,0.9-0.9S129.599,90.5,129.102,90.5z M126.902,7.4h-0.7h-0.7
	c-0.1,0.1-0.2,0.3-0.2,0.5c0,0.4,0.4,0.8,0.9,0.8c0.1,0,0.2,0,0.3-0.1c0.2-0.1,0.4-0.3,0.5-0.5c0-0.1,0.1-0.2,0.1-0.3s0-0.2-0.1-0.3
	L126.902,7.4L126.902,7.4z M126.502,41.6c-0.1,0-0.2-0.1-0.3-0.1c-0.5,0-0.9,0.4-0.9,0.9s0.4,0.9,0.9,0.9c0.1,0,0.2,0,0.3-0.1
	c0.2-0.1,0.4-0.3,0.5-0.5c0-0.1,0.1-0.2,0.1-0.3s0-0.2-0.1-0.3C126.902,41.8,126.802,41.7,126.502,41.6z M129.102,15.6
	c-0.497,0-0.9,0.403-0.9,0.9s0.403,0.9,0.9,0.9s0.9-0.403,0.9-0.9S129.599,15.6,129.102,15.6z M126.502,47.3c-0.1,0-0.2-0.1-0.3-0.1
	c-0.5,0-0.9,0.4-0.9,0.9s0.4,0.9,0.9,0.9c0.1,0,0.2,0,0.3-0.1c0.2-0.1,0.4-0.3,0.5-0.5c0-0.1,0.1-0.2,0.1-0.3s0-0.2-0.1-0.3
	C126.902,47.6,126.802,47.4,126.502,47.3z M126.502,30.1c-0.1,0-0.2-0.1-0.3-0.1c-0.5,0-0.9,0.4-0.9,0.9s0.4,0.9,0.9,0.9
	c0.1,0,0.2,0,0.3-0.1c0.2-0.1,0.4-0.3,0.5-0.5c0-0.1,0.1-0.2,0.1-0.3s0-0.2-0.1-0.3C126.902,30.3,126.802,30.1,126.502,30.1z
	 M126.502,35.8c-0.1,0-0.2-0.1-0.3-0.1c-0.5,0-0.9,0.4-0.9,0.9s0.4,0.9,0.9,0.9c0.1,0,0.2,0,0.3-0.1c0.2-0.1,0.4-0.3,0.5-0.5
	c0-0.1,0.1-0.2,0.1-0.3s0-0.2-0.1-0.3C126.902,36.1,126.802,35.9,126.502,35.8z M126.502,24.3c-0.1,0-0.2-0.1-0.3-0.1
	c-0.5,0-0.9,0.4-0.9,0.9s0.4,0.9,0.9,0.9c0.1,0,0.2,0,0.3-0.1c0.2-0.1,0.4-0.3,0.5-0.5c0-0.1,0.1-0.2,0.1-0.3s0-0.2-0.1-0.3
	C126.902,24.5,126.802,24.4,126.502,24.3z M129.102,32.8c-0.497,0-0.9,0.403-0.9,0.9s0.403,0.9,0.9,0.9s0.9-0.403,0.9-0.9
	S129.599,32.8,129.102,32.8z M129.102,44.4c-0.497,0-0.9,0.403-0.9,0.9s0.403,0.9,0.9,0.9s0.9-0.403,0.9-0.9
	S129.599,44.4,129.102,44.4z M129.102,38.6c-0.497,0-0.9,0.403-0.9,0.9s0.403,0.9,0.9,0.9s0.9-0.403,0.9-0.9
	S129.599,38.6,129.102,38.6z M126.502,53.1c-0.1,0-0.2-0.1-0.3-0.1c-0.5,0-0.9,0.4-0.9,0.9s0.4,0.9,0.9,0.9c0.1,0,0.2,0,0.3-0.1
	c0.2-0.1,0.4-0.3,0.5-0.5c0-0.1,0.1-0.2,0.1-0.3s0-0.2-0.1-0.3C126.902,53.4,126.802,53.2,126.502,53.1z M129.102,21.3
	c-0.497,0-0.9,0.403-0.9,0.9s0.403,0.9,0.9,0.9s0.9-0.403,0.9-0.9S129.599,21.3,129.102,21.3z M129.102,27.1
	c-0.497,0-0.9,0.403-0.9,0.9s0.403,0.9,0.9,0.9s0.9-0.403,0.9-0.9S129.599,27.1,129.102,27.1z M129.102,61.7
	c-0.497,0-0.9,0.403-0.9,0.9s0.403,0.9,0.9,0.9s0.9-0.403,0.9-0.9S129.599,61.7,129.102,61.7z M129.102,55.9
	c-0.497,0-0.9,0.403-0.9,0.9s0.403,0.9,0.9,0.9s0.9-0.403,0.9-0.9S129.599,55.9,129.102,55.9z M129.102,67.4
	c-0.497,0-0.9,0.403-0.9,0.9s0.403,0.9,0.9,0.9s0.9-0.403,0.9-0.9S129.599,67.4,129.102,67.4z M129.102,50.1
	c-0.497,0-0.9,0.403-0.9,0.9s0.403,0.9,0.9,0.9s0.9-0.403,0.9-0.9S129.599,50.1,129.102,50.1z M91.902,24.3c-0.3,0.4-0.7,0.9-1,1.3
	c0.2,0.2,0.4,0.4,0.7,0.4c0.5,0,0.9-0.4,0.9-0.9C92.502,24.7,92.202,24.4,91.902,24.3z"/>
<path class="st3" d="M153.6,59.6c3.7,0,6.7,3,6.7,6.7s-3,6.7-6.7,6.7s-6.7-3-6.7-6.7S149.9,59.6,153.6,59.6z M98.9,59.6
	c3.7,0,6.7,3,6.7,6.7s-3,6.7-6.7,6.7s-6.7-3-6.7-6.7S95.2,59.6,98.9,59.6z"/>
<path d="M126.2,2.3C99.6,2.3,78,24,78,50.6s21.7,48.3,48.3,48.3s48.3-21.7,48.3-48.3C174.5,24,152.9,2.3,126.2,2.3z M126.2,93.9
	C102.3,93.9,83,74.5,83,50.6s19.3-43.3,43.2-43.3s43.3,19.4,43.3,43.3S150.1,93.9,126.2,93.9z M54.2,2.8h-4.6L4.2,68.6v4.3h44.4
	v21.6h5.5V72.9h14.5v-5.1H54.2V2.8z M48.7,67.8H11.1l37.6-54.3C48.7,13.5,48.7,67.8,48.7,67.8z M235.7,67.8v-65h-4.5l-45.4,65.8v4.3
	h44.4v21.6h5.5V72.9h14.4v-5.1H235.7L235.7,67.8z M230.2,67.8h-37.6l37.6-54.3L230.2,67.8L230.2,67.8z M148.6,48.1
	c0,2.209-1.746,4-3.9,4s-3.9-1.791-3.9-4s1.746-4,3.9-4S148.6,45.891,148.6,48.1z M111.7,48.1c0,2.209-1.746,4-3.9,4
	s-3.9-1.791-3.9-4s1.746-4,3.9-4S111.7,45.891,111.7,48.1z M109.5,31.8c-3.2,0.3-6.2,1.6-8.6,3.6c-1.5-1.7-0.4-0.3-1.6-1.8
	c2.8-2.4,6.4-3.9,10-4.2C109.5,31.6,109.4,30,109.5,31.8z M143.3,29.4c3.6,0.3,7.2,1.8,10,4.2c-1.2,1.5-0.1,0.1-1.6,1.8
	c-2.4-2-5.4-3.3-8.6-3.6C143.2,30,143.1,31.6,143.3,29.4L143.3,29.4z M137.7,69.6l-2.8,2.8c-2.1-2.5-5.2-4.1-8.7-4.1
	s-6.6,1.6-8.7,4.1l-2.8-2.8c2.8-3.3,6.9-5.3,11.5-5.3C130.8,64.3,134.9,66.4,137.7,69.6z"/>
</svg>
