<svg width="178" height="157" viewBox="0 0 178 157" xmlns="http://www.w3.org/2000/svg" xmlns:xlink="http://www.w3.org/1999/xlink"><title>Page 1</title><defs><path id="a" d="M0 163.75h177.793V7.807H0z"/></defs><g fill="none" fill-rule="evenodd"><path fill="#B6D806" d="M103.289 80.039h7.272v-3.635h-7.272zM117.834 80.039h7.273v-3.635h-7.273zM132.38 80.039h7.272v-3.635h-7.272zM146.925 80.039h7.273v-3.635h-7.273z"/><g><path d="M171.943 82.365a4.162 4.162 0 0 1 0-8.306 4.162 4.162 0 0 1 0 8.306zm-38.182 70.774a4.129 4.129 0 0 1-2.945 1.218 4.163 4.163 0 0 1 0-8.306 4.163 4.163 0 0 1 2.945 7.088zm-83.345 0a4.129 4.129 0 0 1-2.946 1.218 4.163 4.163 0 0 1 0-8.306 4.163 4.163 0 0 1 2.946 7.088zM5.579 82.383a4.163 4.163 0 0 1 0-8.306 4.163 4.163 0 0 1 0 8.306zm38.964-79.08a4.128 4.128 0 0 1 2.946-1.217 4.162 4.162 0 0 1 0 8.306 4.145 4.145 0 0 1-2.946-7.089zm83.346 0a4.128 4.128 0 0 1 2.945-1.217 4.163 4.163 0 0 1 0 8.306 4.163 4.163 0 0 1-2.945-7.089zm2.018 49.655l-39.346-22.72 35.473-20.483.182.218-2.527 4.363 3.145 1.817 2.418-4.198.655.145v40.858zm-.818 91.566l-2.164-3.89-3.146 1.818 2.4 4.162-35.618-20.41 39.382-22.72v40.84c-.29.045-.575.112-.854.2zM10.216 81.856l36.036 20.883v41.621l-.309.091L9.998 82.22l.218-.364zM46.27 12.064v41.62L10.216 74.587l-.218-.272 35.945-62.341.327.09zm40.655 18.175L48.07 52.649V12.136h.382l2.346 4.072 3.145-1.818-2.254-3.907c.109-.11.2-.237.29-.364l34.946 20.12zm-75.673 49.8h4.764v-3.635h-4.764c0-.11 0-.237-.109-.346l35.11-20.265v44.856l-35.11-20.265c.036-.11.073-.236.11-.345zm118.655 21.337L88.743 125.15 48.07 101.685V54.74l40.673-23.446 41.164 23.773v46.31zM53.125 8.011h71.982v.09L88.743 29.148 52.98 8.556c.055-.164.11-.327.164-.51l-.018-.035zm-1.309 138.13l2.127-3.634-3.145-1.818-2.146 3.635h-.582v-40.53l38.855 22.41-34.927 20.138-.182-.2zm73.291 2.254H53.143c0-.163-.09-.345-.164-.509l35.764-20.592 36.364 21.01v.091zm42.145-66.412l.237.291-35.764 61.868V102.34l35.527-20.356zm-.909-5.834c0 .11 0 .218-.09.31h-4.783v3.634h4.764c0 .11 0 .218.091.309l-34.545 19.993V56.12l34.563 20.03zm.91-1.563l-35.528-20.574V12.209l35.764 62.014-.237.363zm8.872-.582a5.928 5.928 0 0 0-4.218-1.817 5.943 5.943 0 0 0-1.273.146l-35.709-61.796A5.96 5.96 0 0 0 130.835.25a5.963 5.963 0 0 0-5.728 4.162H53.143A5.89 5.89 0 0 0 47.47.25a5.98 5.98 0 0 0-6 5.961v.018a5.907 5.907 0 0 0 1.382 3.781L6.925 72.387a6.007 6.007 0 0 0-1.273-.145 5.98 5.98 0 0 0 0 11.94 5.943 5.943 0 0 0 1.273-.145l35.964 62.395a5.906 5.906 0 0 0-1.419 3.78 5.98 5.98 0 0 0 5.982 5.98h.018a5.89 5.89 0 0 0 5.655-4.162h71.982a5.963 5.963 0 0 0 5.654 4.162 5.98 5.98 0 0 0 4.219-10.196l-.128-.109 35.71-61.795c.417.094.844.142 1.272.145a5.98 5.98 0 0 0 4.218-10.196l.073-.037z" fill="#B6D806"/><path d="M88.743 69.915a8.308 8.308 0 0 1 8.306 8.31 8.308 8.308 0 0 1-8.306 8.302 8.308 8.308 0 0 1-8.305-8.31 8.307 8.307 0 0 1 8.305-8.302m-11.945 8.306c.01 6.59 5.352 11.931 11.945 11.941 6.597-.002 11.944-5.35 11.941-11.945-.002-6.592-5.347-11.935-11.94-11.937-6.594.01-11.936 5.35-11.946 11.941M94.581 64.716l3.635-6.297 3.15 1.817-3.635 6.297zM101.858 52.108l3.635-6.297 3.15 1.817-3.636 6.297zM109.135 39.53l3.635-6.296 3.15 1.817-3.636 6.297zM116.411 26.923l3.636-6.297 3.15 1.817-3.636 6.297zM61.718 35.065l3.15-1.817 3.635 6.296-3.15 1.818zM54.43 22.469l3.15-1.818 3.636 6.296-3.15 1.818zM76.257 60.247l3.15-1.817 3.635 6.297-3.15 1.817zM68.99 47.647l3.15-1.818 3.636 6.297-3.149 1.817z" fill="#B6D806"/><mask id="b" fill="#fff"><use xlink:href="#a"/></mask><path fill="#B6D806" mask="url(#b)" d="M23.289 80.039h7.272v-3.635H23.29zM37.834 80.039h7.273v-3.635h-7.273zM66.925 80.039h7.273v-3.635h-7.273zM52.38 80.039h7.272v-3.635H52.38zM54.445 134.323l3.636-6.297 3.15 1.817-3.636 6.297zM68.997 109.147l3.635-6.297 3.15 1.817-3.636 6.297zM61.713 121.73l3.635-6.296 3.15 1.817-3.635 6.296zM76.264 96.555l3.636-6.297 3.149 1.817-3.635 6.297zM109.13 117.286l3.149-1.817 3.635 6.297-3.15 1.817zM94.58 92.1l3.15-1.816 3.635 6.296-3.15 1.818zM101.86 104.691l3.149-1.817 3.636 6.296-3.15 1.817zM116.41 129.872l3.15-1.818 3.636 6.296-3.15 1.818z"/></g></g></svg>