<svg width="178" height="178" viewBox="0 0 178 178" xmlns="http://www.w3.org/2000/svg"><title>thank-you</title><g fill-rule="nonzero" fill="#B6D806"><ellipse cx="89" cy="2.192" rx="2.167" ry="2.167"/><circle cx="89" cy="175.808" r="2.167"/><path d="M91.19 165.365h-4.38v-8.757h4.38v8.757zm0-17.515h-4.38v-8.757h4.38v8.757zm0-17.515h-4.38v-8.757h4.38v8.757zm0-70.06h-4.38v-8.757h4.38v8.758zm0-17.514h-4.38v-8.758h4.38v8.758zm0-17.515h-4.38v-8.758h4.38v8.758zM158.228 22.947l-3.087-3.087-2.693 2.67-2.671-2.67-3.11 3.087 2.694 2.693-2.693 2.67 3.109 3.11 2.67-2.693 2.694 2.693 3.087-3.11-2.671-2.67zM31.53 149.645l-3.088-3.087-2.693 2.693-2.67-2.693-3.088 3.087 2.671 2.693-2.67 2.671 3.086 3.11 2.671-2.694 2.693 2.693 3.087-3.109-2.67-2.67zM31.53 22.947l-3.088-3.087-2.693 2.67-2.67-2.67-3.088 3.087 2.671 2.693-2.67 2.67 3.086 3.11 2.671-2.693 2.693 2.693 3.087-3.11-2.67-2.67zM158.228 149.645l-3.087-3.087-2.693 2.693-2.671-2.693-3.11 3.087 2.694 2.693-2.693 2.671 3.109 3.11 2.67-2.694 2.694 2.693 3.087-3.109-2.671-2.67zM47.245 129.295L59.63 116.91l1.548 1.548-12.385 12.385zM33.298 143.238l12.385-12.385 1.548 1.548-12.385 12.385zM116.91 59.63l12.385-12.386 1.548 1.548-12.385 12.385zM130.835 45.717l12.385-12.385 1.548 1.548-12.385 12.385zM33.447 34.863l1.548-1.548L47.38 45.7l-1.548 1.548zM47.359 48.787l1.548-1.548 12.385 12.385-1.548 1.548zM117.025 118.453l1.548-1.548 12.385 12.385-1.548 1.548zM130.975 132.415l1.548-1.548 12.385 12.385-1.548 1.548z"/><ellipse cx="175.808" cy="89" rx="2.167" ry="2.167"/><ellipse cx="2.192" cy="89" rx="2.167" ry="2.167"/><path d="M163.701 91.19h-8.757v-4.38h8.757v4.38zm-17.515 0h-8.757v-4.38h8.757v4.38zm-17.515 0h-8.757v-4.38h8.757v4.38zm-70.06 0h-8.757v-4.38h8.758v4.38zm-17.514 0h-8.758v-4.38h8.758v4.38zm-17.515 0h-8.758v-4.38h8.758v4.38zM107.237 72.405l9.677-9.677-1.642-1.533-9.699 9.699c.628.482 1.183.985 1.664 1.51zM89 107.741a2.19 2.19 0 0 1-1.949-1.182 29.644 29.644 0 0 0-15.566-15.501 2.19 2.19 0 0 1 0-3.897c6.963-3 12.51-8.555 15.5-15.523a2.19 2.19 0 0 1 1.95-1.182 2.19 2.19 0 0 1 1.948 1.182 29.644 29.644 0 0 0 15.632 15.501 2.19 2.19 0 0 1 0 3.897 29.644 29.644 0 0 0-15.566 15.479A2.19 2.19 0 0 1 89 107.697v.044zM77.09 89A30.87 30.87 0 0 1 89 101.02 30.87 30.87 0 0 1 100.91 89 30.87 30.87 0 0 1 89 77.177 30.826 30.826 0 0 1 77.09 89zM116.455 30.741a3.744 3.744 0 0 1-1.993-1.992l-.985-1.905-.963 1.905a3.722 3.722 0 0 1-1.993 1.992l-1.904.963 1.904.986a3.744 3.744 0 0 1 1.993 1.992l.985 1.905.963-1.905a3.7 3.7 0 0 1 1.993-1.992l1.904-.986-1.904-.963zM67.26 30.741a3.744 3.744 0 0 1-1.993-1.992l-.985-1.905-.963 1.905a3.7 3.7 0 0 1-1.993 1.992l-1.904.985 1.904.985a3.744 3.744 0 0 1 1.993 1.993l.985 1.905.963-1.905a3.744 3.744 0 0 1 1.993-1.993l1.904-.963-1.904-1.007zM116.455 145.31a3.722 3.722 0 0 1-1.993-1.992l-.985-1.905-.963 1.905a3.744 3.744 0 0 1-1.993 1.992l-1.904.986 1.904.963a3.722 3.722 0 0 1 1.993 1.992l.985 1.905.963-1.905a3.722 3.722 0 0 1 1.993-1.992l1.904-.985-1.904-.964zM149.799 108.923a3.744 3.744 0 0 1-1.993-1.992l-.985-1.905-.963 1.905a3.722 3.722 0 0 1-1.993 1.992l-1.904.985 1.904.986a3.744 3.744 0 0 1 1.993 1.992l.985 1.905.963-1.905a3.722 3.722 0 0 1 1.993-1.992l1.904-.986-1.904-.985zM32.755 108.923a3.744 3.744 0 0 1-1.992-1.992l-.985-1.905-.964 1.905a3.744 3.744 0 0 1-1.992 1.992l-1.905.964 1.905.985a3.722 3.722 0 0 1 1.992 1.992l.986 1.905.985-1.905a3.744 3.744 0 0 1 1.992-1.992l1.905-.985-1.927-.964zM149.799 62.487a3.744 3.744 0 0 1-1.993-1.993l-.985-1.904-.898 1.948a3.7 3.7 0 0 1-1.992 1.993l-1.905.985 1.905.985a3.744 3.744 0 0 1 1.992 1.992l.986 1.905.963-1.905a3.722 3.722 0 0 1 1.992-1.992l1.905-.985-1.97-1.03zM32.755 62.487a3.744 3.744 0 0 1-1.992-1.993l-.985-1.904-.986 1.948a3.744 3.744 0 0 1-1.992 1.993l-1.905.963 1.905.985a3.722 3.722 0 0 1 1.992 1.992l.986 1.905.985-1.905a3.722 3.722 0 0 1 1.992-1.992l1.905-.985-1.905-1.007zM67.238 145.31a3.722 3.722 0 0 1-1.993-1.992l-.985-1.905-.963 1.905a3.722 3.722 0 0 1-1.992 1.992l-1.905.986 1.905.963a3.722 3.722 0 0 1 1.992 1.992l.985 1.905.963-1.905a3.744 3.744 0 0 1 1.993-1.992l1.904-.985-1.904-.964zM72.645 70.982l-9.786-9.787-1.554 1.555 9.786 9.786a26.025 26.025 0 0 1 1.554-1.554zM71.003 105.552l-9.83 9.72 1.555 1.555 9.808-9.809c-.54-.437-1.05-.926-1.533-1.466zM107.325 105.661a26.025 26.025 0 0 1-1.554 1.555l9.72 9.72 1.555-1.554-9.721-9.72z"/></g></svg>