<svg width="12px" height="7px" viewBox="0 0 12 7" version="1.1" xmlns="http://www.w3.org/2000/svg" xmlns:xlink="http://www.w3.org/1999/xlink">
    <!-- Generator: Sketch 46.2 (44496) - http://www.bohemiancoding.com/sketch -->
    <desc>Created with Sketch.</desc>
    <defs></defs>
    <g id="Comps---V1" stroke="none" stroke-width="1" fill="none" fill-rule="evenodd">
        <g id="MOBILE---About-this-Project-Copy-2" transform="translate(-285.000000, -273.000000)" fill="#000000">
            <g id="Top-Menu" transform="translate(0.000000, 247.000000)">
                <path d="M296.997768,27.0714286 C296.997768,27.1681552 296.960566,27.2537199 296.886161,27.328125 L291.685268,32.5290179 C291.610863,32.603423 291.525298,32.640625 291.428571,32.640625 C291.331845,32.640625 291.24628,32.603423 291.171875,32.5290179 L285.970982,27.328125 C285.896577,27.2537199 285.859375,27.1681552 285.859375,27.0714286 C285.859375,26.9747019 285.896577,26.8891373 285.970982,26.8147321 L286.529018,26.2566964 C286.603423,26.1822913 286.688988,26.1450893 286.785714,26.1450893 C286.882441,26.1450893 286.968006,26.1822913 287.042411,26.2566964 L291.428571,30.6428571 L295.814732,26.2566964 C295.889137,26.1822913 295.974702,26.1450893 296.071429,26.1450893 C296.168155,26.1450893 296.25372,26.1822913 296.328125,26.2566964 L296.886161,26.8147321 C296.960566,26.8891373 296.997768,26.9747019 296.997768,27.0714286 Z" id="" transform="translate(291.428571, 29.392857) rotate(180.000000) translate(-291.428571, -29.392857) "></path>
            </g>
        </g>
    </g>
</svg>
