<?xml version="1.0" encoding="UTF-8"?>
<svg width="50px" height="41px" viewBox="0 0 50 41" version="1.1" xmlns="http://www.w3.org/2000/svg" xmlns:xlink="http://www.w3.org/1999/xlink">
    <!-- Generator: Sketch 49.2 (51160) - http://www.bohemiancoding.com/sketch -->
    <title>“</title>
    <desc>Created with Sketch.</desc>
    <defs></defs>
    <g id="Home-page-comps" stroke="none" stroke-width="1" fill="none" fill-rule="evenodd">
        <g id="Home" transform="translate(-487.000000, -3377.000000)" fill="#F3F3F3">
            <g id="Quote" transform="translate(49.000000, 3330.000000)">
                <path d="M459.082658,67.0285247 L459.082658,87.8100014 L438,87.8100014 L438,74.106274 C438,68.8857803 438.903533,64.1422298 440.710627,59.8754801 C442.517721,55.6087305 445.579696,51.3169467 449.896642,47 L457.576753,53.0236164 C455.167295,55.6338633 453.310032,58.0432858 452.004908,60.2519562 C450.699785,62.4606266 449.846448,64.7194601 449.444871,67.0285247 L459.082658,67.0285247 Z M487.996016,67.0285247 L487.996016,87.8100014 L466.913359,87.8100014 L466.913359,74.106274 C466.913359,68.8857803 467.816892,64.1422298 469.623986,59.8754801 C471.43108,55.6087305 474.493055,51.3169467 478.810001,47 L486.490112,53.0236164 C484.080654,55.6338633 482.223391,58.0432858 480.918267,60.2519562 C479.613144,62.4606266 478.759807,64.7194601 478.35823,67.0285247 L487.996016,67.0285247 Z" id="“"></path>
            </g>
        </g>
    </g>
</svg>