<svg width="51" height="45" xmlns="http://www.w3.org/2000/svg">
    <defs>
        <linearGradient x1="50%" y1="-27.814%" x2="50%" y2="163.25%" id="a">
            <stop stop-color="#3DFEFD" offset="0%"/>
            <stop stop-color="#B7D43F" offset="100%"/>
        </linearGradient>
    </defs>
    <path d="M47.676 24.355c.058-.658.087-1.315.087-1.983C47.731 10.062 37.766.096 25.476.082A22.123 22.123 0 0 0 9.719 6.63a22.404 22.404 0 0 0-3.89 5.198H4.467a4.38 4.38 0 0 0-4.335 3.781 4.384 4.384 0 0 0 3.144 4.82 22.58 22.58 0 0 0-.093 1.993c.008 12.323 9.985 22.31 22.288 22.31a22.123 22.123 0 0 0 15.756-6.547 22.404 22.404 0 0 0 3.89-5.198h1.42a4.379 4.379 0 0 0 4.396-3.81 4.384 4.384 0 0 0-3.257-4.821zm-.973-.146h-7.766c.034-.638.058-1.286.058-1.949a33.202 33.202 0 0 0-1.483-9.941h6.74a21.245 21.245 0 0 1 2.538 10.088c0 .604-.029 1.212-.082 1.821l-.005-.02zm-34.411-3.614h4.401v.14c0 .205.219 4.979 7.898 10.308v1.461H13.829a32.255 32.255 0 0 1-1.6-10.229c.02-.565.039-1.125.063-1.68zm25.672 3.619h-5.656c.23-.42.438-.85.623-1.291.431-.797.657-1.69.656-2.596a5.363 5.363 0 0 0-1.459-3.727 4.937 4.937 0 0 0-3.593-1.554 4.93 4.93 0 0 0-2.875.945v-3.663h10.845a32.377 32.377 0 0 1 1.517 9.962c0 .643-.02 1.29-.058 1.929v-.005zm-12.396 8.28v-1.412c2.952-1.988 5.077-4.087 6.448-6.376h5.919a31.4 31.4 0 0 1-1.508 7.793l-10.859-.005zm-5.733-11.9a1.84 1.84 0 0 0 1.818 1.627 1.846 1.846 0 1 0 0-3.687 1.84 1.84 0 0 0-1.814 1.573H17.68a4.387 4.387 0 0 1 1.197-2.82 3.975 3.975 0 0 1 2.888-1.257 3.97 3.97 0 0 1 3 1.379l.365.414.365-.414a3.97 3.97 0 0 1 3-1.383 3.975 3.975 0 0 1 2.89 1.251 4.388 4.388 0 0 1 1.21 3.05c0 .75-.189 1.49-.55 2.148v.048a11.951 11.951 0 0 1-.84 1.686h-2.3a1.844 1.844 0 0 0-1.805-1.49 1.846 1.846 0 0 0 0 3.687 1.825 1.825 0 0 0 1.804-1.7h1.97c-.973 1.46-2.67 3.41-5.773 5.514-6.05-4.219-7.178-8.042-7.382-9.172l-.03-.356v-.097h2.146zm.972-.214c0-.48.387-.869.866-.872a.871.871 0 0 1 0 1.74.87.87 0 0 1-.885-.868h.02zm7.125 4.19a.871.871 0 0 1-.866.871.871.871 0 0 1 0-1.739c.477.003.863.39.866.867zm-2.31-12.729V1.125c4.595.278 8.583 4.53 10.727 10.716H25.622zm-.973 0H13.931C16.075 5.655 20.053 1.408 24.63 1.125l.019 10.716zm-17.993.487h6.098a32.508 32.508 0 0 0-1.41 7.794H4.287a21.17 21.17 0 0 1 2.383-7.784l-.014-.01zm7.09 0h10.903v3.683a4.93 4.93 0 0 0-2.884-.95 4.944 4.944 0 0 0-3.594 1.554 5.363 5.363 0 0 0-1.459 3.492h-4.376a31.62 31.62 0 0 1 1.425-7.774l-.015-.005zm10.85 20.644v10.472c-4.509-.302-8.428-4.432-10.587-10.467l10.586-.005zm.972 0h10.679C34.078 39.04 30.12 43.2 25.573 43.435l-.005-10.463zm18.713-.487h-6.847a32.298 32.298 0 0 0 1.459-7.794h7.771a21.17 21.17 0 0 1-2.383 7.784v.01zm-.301-20.658h-6.624c-1.576-4.691-4.172-8.369-7.294-10.278A21.4 21.4 0 0 1 43.98 11.827zm-33.585-4.52a21.18 21.18 0 0 1 9.41-5.485c-2.952 1.948-5.388 5.528-6.89 10.005H6.956a21.429 21.429 0 0 1 3.438-4.52zM.577 16.21a3.894 3.894 0 0 1 3.89-3.897h1.124a22.136 22.136 0 0 0-2.267 7.623A3.896 3.896 0 0 1 .577 16.21zm3.667 4.384h7.075a38.383 38.383 0 0 0-.043 1.685c-.018 3.47.51 6.923 1.565 10.229H6.68a21.27 21.27 0 0 1-2.436-11.924v.01zm2.713 12.401h6.045c1.634 4.71 4.304 8.373 7.518 10.195a21.165 21.165 0 0 1-10.095-5.684 21.428 21.428 0 0 1-3.468-4.52v.009zm33.618 4.51a21.148 21.148 0 0 1-11.233 5.914c3.404-1.73 6.24-5.504 7.941-10.42h6.697a21.453 21.453 0 0 1-3.405 4.507zm5.958-5.007H45.36a22.136 22.136 0 0 0 2.266-7.657 3.897 3.897 0 0 1 2.745 4.29 3.893 3.893 0 0 1-3.84 3.343v.024z" fill="url(#a)"/>
</svg>
