<?xml version="1.0" encoding="UTF-8"?>
<svg width="14px" height="20px" viewBox="0 0 14 20" version="1.1" xmlns="http://www.w3.org/2000/svg" xmlns:xlink="http://www.w3.org/1999/xlink">
    <!-- Generator: Sketch 51.2 (57519) - http://www.bohemiancoding.com/sketch -->
    <title>Page 1</title>
    <desc>Created with Sketch.</desc>
    <defs>
        <polygon id="path-1" points="0 20 13.907 20 13.907 0 0 0"></polygon>
    </defs>
    <g id="UI" stroke="none" stroke-width="1" fill="none" fill-rule="evenodd">
        <g id="Participate-UI" transform="translate(-66.000000, -383.000000)">
            <g id="Banner" transform="translate(0.000000, 76.000000)">
                <g id="Group-5" transform="translate(65.000000, 65.000000)">
                    <g id="time-commitment" transform="translate(1.000000, 242.000000)">
                        <g id="Page-1" transform="translate(7.000000, 10.000000) scale(-1, 1) translate(-7.000000, -10.000000) ">
                            <path d="M3.5988,14.3867 L3.5968,14.3907 C3.6108,14.4107 3.6108,14.4087 3.5988,14.3867" id="Fill-1" fill="#FFFFFF"></path>
                            <path d="M12.2434,3.4629 C11.5994,3.4629 11.0794,3.9579 11.0794,4.5689 L11.0794,2.8929 C11.0794,2.2809 10.5574,1.7849 9.9154,1.7849 C9.2724,1.7849 8.7514,2.2809 8.7514,2.8929 L8.7514,1.6079 C8.7514,0.9959 8.2304,0.4999 7.5884,0.4999 C6.9444,0.4999 6.4244,0.9959 6.4244,1.6079 L6.4244,3.7499 C6.4244,3.1389 5.9024,2.6429 5.2604,2.6429 C4.6174,2.6429 4.0964,3.1389 4.0964,3.7499 L4.0964,5.9009 L4.0644,5.9009 L4.0644,10.3709 L3.3284,9.1129 C2.8314,8.2639 1.7034,7.9589 0.8094,8.4329 C0.5184,8.5869 0.4144,8.9369 0.5764,9.2139 C0.5764,9.2139 2.7394,12.8949 3.4114,14.0579 C3.4464,14.1229 3.4834,14.1879 3.5224,14.2509 C3.5594,14.3169 3.5864,14.3629 3.5984,14.3869 L3.6024,14.3779 C4.0754,15.0939 4.7774,15.6879 5.6254,16.0869 L5.6254,18.6279 C5.6254,19.3859 6.2704,19.9999 7.0674,19.9999 L9.9544,19.9999 C10.7514,19.9999 11.3974,19.3859 11.3974,18.6279 L11.3974,15.7009 C12.6134,14.8909 13.3944,13.6349 13.3944,12.2239 L13.3944,11.3649 L13.4064,11.3839 L13.4064,4.5689 C13.4064,3.9579 12.8864,3.4629 12.2434,3.4629" id="Fill-3" fill="#FFFFFF"></path>
                            <g id="Group-8" transform="translate(5.000000, 16.000000)">
                                <path d="M0.6252,2.6279 L0.6252,0.0869" id="Fill-5" fill="#FFFFFF"></path>
                                <path d="M0.6252,2.6279 L0.6252,0.0869" id="Stroke-7" stroke="#909090" stroke-linecap="round" stroke-linejoin="round"></path>
                            </g>
                            <g id="Group-12" transform="translate(11.000000, 15.000000)">
                                <path d="M0.3977,0.5811 L0.3977,3.6281" id="Fill-9" fill="#FFFFFF"></path>
                                <path d="M0.3977,0.5811 L0.3977,3.6281" id="Stroke-11" stroke="#909090" stroke-linecap="round" stroke-linejoin="round"></path>
                            </g>
                            <g id="Group-16" transform="translate(4.000000, 8.000000)">
                                <path d="M0.0959,4.2236 L0.0959,0.0986" id="Fill-13" fill="#FFFFFF"></path>
                                <path d="M0.0959,4.2236 L0.0959,0.0986" id="Stroke-15" stroke="#909090" stroke-linecap="round" stroke-linejoin="round"></path>
                            </g>
                            <g id="Group-20" transform="translate(2.000000, 12.000000)">
                                <path d="M4.424,4.3936 C2.395,3.7866 0.942,2.1486 0.942,0.2236" id="Fill-17" fill="#FFFFFF"></path>
                                <path d="M4.424,4.3936 C2.395,3.7866 0.942,2.1486 0.942,0.2236" id="Stroke-19" stroke="#909090" stroke-linecap="round" stroke-linejoin="round"></path>
                            </g>
                            <g id="Group-24" transform="translate(10.000000, 8.000000)">
                                <path d="M3.3947,0.0986 L3.3947,4.2236 C3.3947,5.9686 2.2007,7.4776 0.4657,8.1976" id="Fill-21" fill="#FFFFFF"></path>
                                <path d="M3.3947,0.0986 L3.3947,4.2236 C3.3947,5.9686 2.2007,7.4776 0.4657,8.1976" id="Stroke-23" stroke="#909090" stroke-linecap="round" stroke-linejoin="round"></path>
                            </g>
                            <mask id="mask-2" fill="white">
                                <use xlink:href="#path-1"></use>
                            </mask>
                            <g id="Clip-26"></g>
                            <polygon id="Fill-25" fill="#FFFFFF" mask="url(#mask-2)" points="4.064 12.64 11.834 12.64 11.834 5.902 4.064 5.902"></polygon>
                            <g id="Group-29" mask="url(#mask-2)">
                                <g transform="translate(4.000000, 2.000000)">
                                    <path d="M0.0959,9.0977 L0.0959,1.7497 C0.0959,1.1387 0.6169,0.6427 1.2599,0.6427 C1.9029,0.6427 2.4239,1.1387 2.4239,1.7497 L2.4239,4.9997" id="Fill-27" stroke="none" fill="#FFFFFF" fill-rule="evenodd"></path>
                                    <path d="M0.0959,9.0977 L0.0959,1.7497 C0.0959,1.1387 0.6169,0.6427 1.2599,0.6427 C1.9029,0.6427 2.4239,1.1387 2.4239,1.7497 L2.4239,4.9997" id="Stroke-28" stroke="#909090" stroke-width="1" fill="none" stroke-linejoin="round"></path>
                                </g>
                            </g>
                            <g id="Group-32" mask="url(#mask-2)">
                                <g transform="translate(0.000000, 8.000000)">
                                    <path d="M3.5969,6.3906 C3.8159,6.7246 0.5759,1.2136 0.5759,1.2136 C0.4139,0.9366 0.5189,0.5866 0.8099,0.4326 C1.7029,-0.0414 2.8309,0.2636 3.3279,1.1136 L4.7799,3.5906" id="Fill-30" stroke="none" fill="#FFFFFF" fill-rule="evenodd"></path>
                                    <path d="M3.5969,6.3906 C3.8159,6.7246 0.5759,1.2136 0.5759,1.2136 C0.4139,0.9366 0.5189,0.5866 0.8099,0.4326 C1.7029,-0.0414 2.8309,0.2636 3.3279,1.1136 L4.7799,3.5906" id="Stroke-31" stroke="#909090" stroke-width="1" fill="none" stroke-linecap="round" stroke-linejoin="round"></path>
                                </g>
                            </g>
                            <g id="Group-35" mask="url(#mask-2)">
                                <g transform="translate(6.000000, 0.000000)">
                                    <path d="M0.424,7.5635 L0.424,1.6075 C0.424,0.9965 0.945,0.5005 1.588,0.5005 C2.231,0.5005 2.751,0.9965 2.751,1.6075 L2.751,7.2675" id="Fill-33" stroke="none" fill="#FFFFFF" fill-rule="evenodd"></path>
                                    <path d="M0.424,7.5635 L0.424,1.6075 C0.424,0.9965 0.945,0.5005 1.588,0.5005 C2.231,0.5005 2.751,0.9965 2.751,1.6075 L2.751,7.2675" id="Stroke-34" stroke="#909090" stroke-width="1" fill="none" stroke-linecap="round" stroke-linejoin="round"></path>
                                </g>
                            </g>
                            <g id="Group-38" mask="url(#mask-2)">
                                <g transform="translate(8.000000, 1.000000)">
                                    <path d="M0.7512,6.2676 L0.7512,1.8926 C0.7512,1.2816 1.2722,0.7856 1.9152,0.7856 C2.5582,0.7856 3.0792,1.2816 3.0792,1.8926 L3.0792,6.8646" id="Fill-36" stroke="none" fill="#FFFFFF" fill-rule="evenodd"></path>
                                    <path d="M0.7512,6.2676 L0.7512,1.8926 C0.7512,1.2816 1.2722,0.7856 1.9152,0.7856 C2.5582,0.7856 3.0792,1.2816 3.0792,1.8926 L3.0792,6.8646" id="Stroke-37" stroke="#909090" stroke-width="1" fill="none" stroke-linecap="round" stroke-linejoin="round"></path>
                                </g>
                            </g>
                            <g id="Group-41" mask="url(#mask-2)">
                                <g transform="translate(11.000000, 3.000000)">
                                    <path d="M0.0793,4.8643 L0.0793,1.5693 C0.0793,0.9583 0.6003,0.4633 1.2433,0.4633 C1.8863,0.4633 2.4063,0.9583 2.4063,1.5693 L2.4063,8.3843" id="Fill-39" stroke="none" fill="#FFFFFF" fill-rule="evenodd"></path>
                                    <path d="M0.0793,4.8643 L0.0793,1.5693 C0.0793,0.9583 0.6003,0.4633 1.2433,0.4633 C1.8863,0.4633 2.4063,0.9583 2.4063,1.5693 L2.4063,8.3843" id="Stroke-40" stroke="#909090" stroke-width="1" fill="none" stroke-linecap="round" stroke-linejoin="round"></path>
                                </g>
                            </g>
                        </g>
                    </g>
                </g>
            </g>
        </g>
    </g>
</svg>