<?xml version="1.0" encoding="utf-8"?>
<!-- Generator: Adobe Illustrator 22.0.1, SVG Export Plug-In . SVG Version: 6.00 Build 0)  -->
<svg version="1.1" id="Layer_1" xmlns="http://www.w3.org/2000/svg" xmlns:xlink="http://www.w3.org/1999/xlink" x="0px" y="0px"
	 viewBox="0 0 13.9 19.1" style="enable-background:new 0 0 13.9 19.1;" xml:space="preserve">
<style type="text/css">
	.st0{fill:#909090;}
</style>
<title>Page 1</title>
<desc>Created with Sketch.</desc>
<g id="Clip-26">
</g>
<g id="Clip-26_2_">
</g>
<path class="st0" d="M13.9,8.6c-0.1-0.3-0.3-0.5-0.5-0.7c-1-0.6-2.3-0.3-3,0.6V3.7c0-0.9-0.7-1.6-1.7-1.6c-0.2,0-0.5,0-0.7,0.1V1.6
	C8,0.7,7.2,0,6.3,0C5.5,0,4.8,0.6,4.7,1.4C4.5,1.3,4.2,1.3,4,1.3C3.1,1.3,2.3,2,2.3,2.9v0.2C2.1,3,1.9,3,1.7,3C0.7,3,0,3.7,0,4.6
	v7.7C0,13.7,0.7,15,2,16v2.7c0,0.3,0.2,0.5,0.5,0.5S3,18.9,3,18.6v-2c0,0,0,0,0,0c0.1,0,0.2,0.1,0.2,0.1c0.1,0,0.1,0,0.2,0
	c0.2,0,0.4-0.1,0.5-0.3c0.1-0.3,0-0.5-0.3-0.7C2,15.1,1,13.7,1,12.2V4.6C1,4.2,1.3,4,1.7,4C2,4,2.3,4.2,2.3,4.5v3.3
	c0,0.3,0.2,0.5,0.5,0.5c0,0,0,0,0,0s0,0,0,0c0.3,0,0.5-0.2,0.5-0.5V4.6c0,0,0-0.1,0-0.1V2.9c0-0.3,0.3-0.6,0.7-0.6
	c0.4,0,0.7,0.3,0.7,0.6v4.4c0,0.3,0.2,0.5,0.5,0.5c0,0,0,0,0,0s0,0,0,0c0.3,0,0.5-0.2,0.5-0.5V1.6C5.6,1.3,5.9,1,6.3,1
	C6.7,1,7,1.3,7,1.6v6c0,0.3,0.2,0.5,0.5,0.5S8,7.8,8,7.6V3.7c0-0.3,0.3-0.6,0.7-0.6s0.7,0.3,0.7,0.6v6.5l-0.6,1.1
	c-0.1,0.2-0.1,0.5,0.2,0.7c0.2,0.1,0.5,0.1,0.7-0.2L11,9.4c0.4-0.6,1.2-0.8,1.9-0.4l-3.1,5.3c-0.6,0.7-1.4,1.3-2.4,1.6
	C7.1,16,6.9,16.3,7,16.5c0.1,0.2,0.3,0.4,0.5,0.4c0,0,0.1,0,0.1,0c0.1,0,0.1,0,0.2-0.1v1.8c0,0.3,0.2,0.5,0.5,0.5s0.5-0.2,0.5-0.5
	v-2.3c0.8-0.4,1.5-1,1.9-1.8c0,0,0.1-0.2,0.2-0.3c0.5-0.9,1.9-3.3,2.9-4.9C13.9,9.2,13.9,8.9,13.9,8.6z"/>
</svg>
