<svg width="91" height="47" viewBox="81 0 91 47" xmlns="http://www.w3.org/2000/svg">
    <g fill="none" fill-rule="evenodd">
        <path fill="#000" d="M81.013 22.4h76.42V.054h-76.42"/>
        <path d="M101.965 15.685h1.272v2.124H99.23V12.3c0-1.69-.55-2.34-1.632-2.34-1.314 0-1.844.952-1.844 2.318v3.405h1.27v2.124H93.02V12.3c0-1.69-.553-2.34-1.634-2.34-1.314 0-1.844.952-1.844 2.318v3.405h1.823v2.124h-5.83V15.68h1.272v-5.527h-1.272v-2.12h4.007v1.473c.572-1.04 1.57-1.67 2.904-1.67 1.378 0 2.65.673 3.117 2.104.53-1.3 1.61-2.103 3.116-2.103 1.71 0 3.28 1.062 3.28 3.382v4.46zm7.53.195c-1.485 0-2.248-1.3-2.248-2.992 0-1.842.87-2.904 2.268-2.904 1.294 0 2.332.888 2.332 2.86 0 1.865-.932 3.036-2.353 3.036zm.063-8.043c-3.435 0-5.13 2.363-5.13 5.225 0 3.12 2.035 4.964 4.98 4.964 3.054 0 5.26-1.973 5.26-5.095 0-2.73-1.676-5.09-5.11-5.09zm13.702 6.33l2.162.217-.593 3.425h-8.36l-.28-1.48 5.258-6.18h-2.99l-.424 1.515-1.97-.217.34-3.425h8.394l.214 1.473-5.3 6.18h3.095l.443-1.52zm4.165 3.642h2.862v-3.52h-2.862v3.51zm0-6.27h2.862V8.03h-2.862v3.51zm11.478-8.65l-4.133 14.92h-2.693l4.133-14.92h2.7zm5.555 0l-4.134 14.91h-2.693l4.14-14.916h2.698zm3.67 13.132c-.825 0-1.122-.5-1.122-1.127 0-1.06.848-1.344 1.823-1.344.44 0 .93.065 1.37.13-.066 1.626-1.1 2.34-2.08 2.34zm5.874.065c-.148.044-.276.065-.403.065-.45 0-.66-.193-.66-.756v-4.25c0-2.23-1.74-3.316-3.8-3.316-1.57 0-2.42.197-4.09.89l-.37 2.25 2.18.24.31-1.103c.445-.235.89-.28 1.462-.28 1.548 0 1.57 1.195 1.57 2.19v.327c-.488-.065-1.04-.087-1.57-.087-2.184 0-4.452.563-4.452 2.97 0 2.04 1.57 2.796 2.948 2.796 1.55 0 2.523-.954 3.074-1.95.127 1.19.827 1.95 2.1 1.95.592 0 1.207-.174 1.716-.456L154 16.1zM81 46.665h91V24.32H81" fill="#FFF"/>
        <path d="M98.124 41.48v-1.043h-1.86V35.13c0-2.745-1.45-3.924-3.447-3.924-1.633 0-2.903.794-3.583 2.064v-1.86H86.08v1.066h1.906v7.96h-1.882v1.044h4.99v-1.043h-1.86v-5.013c.068-1.564 1.338-3.107 3.288-3.107 1.407 0 2.495.817 2.495 3.107v5.013h-1.86v1.043h4.967zm9.866-2.812c-.295 1.7-1.723 3.04-4.082 3.04-2.813 0-4.65-1.906-4.65-5.127 0-3.13 1.747-5.37 4.514-5.37 2.744 0 4.127 2.11 4.127 4.428 0 .36-.05.748-.12 1.134h-7.21c.07 2.426 1.29 3.83 3.42 3.83 1.587 0 2.585-.77 2.948-2.176l1.043.25zm-1.406-2.95c.16-1.61-.748-3.4-2.88-3.4-2.02 0-2.903 1.587-3.107 3.4h5.987zm10.387 3.154l-.97-.318c-.312 1.68-1.06 2.04-1.95 2.04-1.36 0-1.832-.883-1.832-2.198v-5.92h4.014V31.41h-4.014v-3.266h-1.25v3.266h-1.655v1.066h1.655v6.056c0 1.95 1 3.175 2.95 3.175 1.746 0 2.767-.998 3.06-2.835zm17.36-6.396V31.41h-4.445v1.066h1.974l-2.13 7.03h-.116l-3.243-8.096h-.884l-3.15 8.074h-.09l-2.337-7.008h2.063V31.41h-4.58v1.066h1.155l3.152 9.004h.93l3.195-8.12h.09l3.197 8.12h.977l3.015-9.004h1.224zm10.864 3.97c0 3.015-1.86 5.26-4.92 5.26-3.04 0-4.787-2.222-4.787-5.193 0-2.926 1.7-5.307 4.877-5.307 3.173 0 4.83 2.38 4.83 5.24zm-1.34-.024c0-2.358-1.246-4.105-3.54-4.105-2.29 0-3.513 1.792-3.513 4.128 0 2.313 1.2 4.15 3.515 4.15s3.538-1.814 3.538-4.173zm11-1.383v-3.68h-1v.902c-.41-.658-1.04-1.043-1.77-1.043-1.13 0-1.81.84-2.22 1.972v-1.79h-3.084v1.065h1.904v7.96H146.8v1.044h5.602v-1.04h-2.474v-5.15c.045-1.27.612-2.97 2.018-2.97 1.202 0 1.792 1.113 1.792 2.723h1.11zm12.02 6.44v-1.05h-1.563l-3.47-4.426 2.857-3.538h1.634v-1.06h-4.603v1.066h1.655l-2.52 3.153H159v-9.76h-3.13v1.042h1.882v13.52h-1.86v1.043h4.718v-1.04H159v-3.81h1.882l3.016 3.81h-1.678v1.043h4.65z" fill="#000"/>
    </g>
</svg>
