<svg width="94" height="30" xmlns="http://www.w3.org/2000/svg">
    <path d="M81.63 18.905c0 .793.385 1.422 1.46 1.422 1.264 0 2.61-.903 2.693-2.953a13.176 13.176 0 0 0-1.784-.16c-1.27-.003-2.37.352-2.37 1.69z" fill="#FFF"/>
    <path d="M0 0v29.926h93.798V0H0zm26.553 22.57h-5.188v-6.946c0-2.132-.715-2.953-2.116-2.953-1.71 0-2.4 1.21-2.4 2.93v4.3h1.64v2.68h-5.18v-6.95c0-2.13-.715-2.95-2.117-2.95-1.704 0-2.392 1.205-2.392 2.928V19.9h2.36v2.68H3.61V19.9h1.65v-6.98H3.47v-2.68H8.8v1.86c.74-1.313 2.035-2.106 3.765-2.106 1.788 0 3.44.848 4.04 2.653.69-1.64 2.09-2.653 4.04-2.653 2.23 0 4.26 1.34 4.26 4.266v5.636h1.65l.006 2.675zm7.887.272c-3.82 0-6.46-2.324-6.46-6.26 0-3.61 2.2-6.59 6.648-6.59 4.45 0 6.625 2.98 6.625 6.424.003 3.94-2.855 6.428-6.813 6.428v-.002zm19.734-.273h-10.83l-.356-1.86 6.81-7.8H45.92l-.55 1.912-2.556-.273.44-4.32H54.15l.274 1.86-6.874 7.796h4.006l.577-1.915 2.803.27-.762 4.32zm6.706 0h-3.71v-4.43h3.71v4.43zm0-7.91h-3.71v-4.42h3.71v4.423zm1.945 7.9l5.365-18.8h3.49l-5.36 18.81h-3.495zm7.202 0l5.363-18.8h3.49l-5.356 18.81h-3.496zm18.47.272c-1.65 0-2.556-.96-2.72-2.46-.716 1.256-1.98 2.46-3.986 2.46-1.78 0-3.82-.96-3.82-3.528 0-3.037 2.95-3.747 5.78-3.747.68-.006 1.36.03 2.037.11v-.41c0-1.26-.03-2.76-2.035-2.76-.743 0-1.32.053-1.897.353l-.46 1.75-2.83-.302.55-3.195c2.17-.875 3.27-1.13 5.306-1.13 2.668 0 4.92 1.37 4.92 4.186v5.36c0 .71.275.96.854.96.176-.006.352-.03.52-.086l.028 1.86a4.814 4.814 0 0 1-2.232.58h-.01z" fill="#FFF"/>
    <path d="M34.577 12.698c-1.815 0-2.94 1.34-2.94 3.665 0 2.132.988 3.772 2.917 3.772 1.842 0 3.05-1.475 3.05-3.827-.004-2.49-1.35-3.61-3.027-3.61z" fill="#FFF"/>
</svg>
