<svg version="1.1" id="Layer_1" xmlns="http://www.w3.org/2000/svg" x="0" y="0" viewBox="0 0 103.7 103.7" xml:space="preserve" enable-background="new 0 0 103.7 103.7"><style type="text/css">
	.st0{fill:#FFFFFF;}
</style><rect x="-0.1" y="0" width="103.7" height="103.7"/><path class="st0" d="M88.2 65h5.9v9.8H75.4V49.5c0-7.8-2.6-10.7-7.6-10.7 -6.1 0-8.5 4.4-8.5 10.5v15.6h5.9v9.8H46.4V49.5c0-7.8-2.6-10.7-7.6-10.7 -6.1 0-8.5 4.4-8.5 10.5v15.6h8.5v9.8H11.4v-9.8h5.9V39.7h-5.9v-9.8h18.8v6.7c2.7-4.7 7.3-7.6 13.6-7.6 6.4 0 12.4 3.1 14.5 9.6 2.4-5.9 7.5-9.6 14.5-9.6 8.1 0 15.4 4.9 15.4 15.4V65H88.2z"/></svg>