<svg width="94" height="30" viewBox="0 0 94 30" xmlns="http://www.w3.org/2000/svg"><path d="M81.63 18.905c0 .793.385 1.422 1.46 1.422 1.264 0 2.611-.903 2.693-2.953a13.176 13.176 0 0 0-1.784-.161c-1.27-.002-2.369.353-2.369 1.692z" fill="#FFF"/><path d="M0 0v29.926h93.798V0H0zm26.553 22.57h-5.188v-6.946c0-2.132-.715-2.953-2.116-2.953-1.704 0-2.391 1.203-2.391 2.926v4.297h1.64v2.679h-5.187v-6.949c0-2.132-.714-2.953-2.116-2.953-1.704 0-2.392 1.203-2.392 2.926v4.297h2.358v2.679H3.602v-2.68h1.65v-6.975H3.467v-2.68h5.329v1.859c.742-1.312 2.035-2.105 3.765-2.105 1.783 0 3.435.848 4.04 2.653.687-1.64 2.088-2.653 4.04-2.653 2.226 0 4.26 1.34 4.26 4.266v5.636h1.65l.001 2.675zm7.887.272c-3.82 0-6.459-2.324-6.459-6.261 0-3.61 2.199-6.59 6.647-6.59 4.45 0 6.625 2.98 6.625 6.425.003 3.939-2.855 6.428-6.813 6.428v-.002zm19.734-.273h-10.83l-.356-1.86 6.809-7.793h-3.875l-.55 1.915-2.556-.273.44-4.32H54.15l.274 1.859-6.874 7.797h4.006l.577-1.915 2.803.273-.762 4.317zm6.706 0h-3.711V18.14h3.71v4.43zm0-7.903h-3.711V10.24h3.71v4.427zm1.945 7.903L68.19 3.765h3.49l-5.36 18.804h-3.495zm7.202 0L75.39 3.765h3.49l-5.356 18.804h-3.496zm18.47.273c-1.65 0-2.556-.958-2.721-2.461-.715 1.258-1.98 2.46-3.985 2.46-1.783 0-3.82-.957-3.82-3.526 0-3.036 2.941-3.746 5.772-3.746.68-.005 1.36.031 2.035.11v-.41c0-1.258-.028-2.76-2.035-2.76-.743 0-1.32.054-1.897.354l-.459 1.75-2.83-.302.55-3.198c2.17-.876 3.27-1.13 5.304-1.13 2.667 0 4.92 1.369 4.92 4.185v5.36c0 .71.274.957.853.957.177-.002.353-.03.522-.082l.028 1.86a4.814 4.814 0 0 1-2.233.58l-.005-.001z" fill="#FFF"/><path d="M34.577 12.698c-1.815 0-2.941 1.34-2.941 3.665 0 2.132.989 3.772 2.918 3.772 1.842 0 3.051-1.475 3.051-3.827-.005-2.489-1.35-3.61-3.028-3.61z" fill="#FFF"/></svg>