<svg width="18" height="18" viewBox="0 0 18 18" fill="none" xmlns="http://www.w3.org/2000/svg">
<path d="M4.99023 11H5.78023L6.06023 10.73C5.08023 9.59 4.49023 8.11 4.49023 6.5C4.49023 2.91 7.40023 0 10.9902 0C14.5802 0 17.4902 2.91 17.4902 6.5C17.4902 10.09 14.5802 13 10.9902 13C9.38023 13 7.90024 12.41 6.76023 11.43L6.49023 11.71V12.5L1.49023 17.49L0.000234604 16L4.99023 11ZM10.9902 11C13.4802 11 15.4902 8.99 15.4902 6.5C15.4902 4.01 13.4802 2 10.9902 2C8.50023 2 6.49023 4.01 6.49023 6.5C6.49023 8.99 8.50023 11 10.9902 11Z" fill="#0D10BF"/>
</svg>
