<svg data-name="Layer 1" xmlns="http://www.w3.org/2000/svg" viewBox="0 0 160 160"><title>Artboard 1</title><path d="M11.7 0L0 39v3.5L12.8 0h-1.1zm16.1 0L0 92.3v3.5L28.8 0h-1zm16 0L0 145.6v3.5L44.8 0h-1zm16 0L11.7 160h1.1l48-160h-1zm16 0L27.7 160h1.1l48-160h-1zm16 0L43.7 160h1.1l48-160h-1zm16 0L59.7 160h1.1L108.9 0h-1.1zm16 0l-48 160h1L124.9 0h-1.1zm16 0l-48 160h1L140.9 0h-1.1zm16 0l-48 160h1L156.9 0h-1.1zm4.2 39.4L123.8 160h1L160 42.9v-3.5zm0 53.3L139.8 160h1L160 96.2v-3.5zm0 53.3l-4.2 14h1.1l3.1-10.5V146z"/></svg>