<svg data-name="Layer 1" xmlns="http://www.w3.org/2000/svg" viewBox="0 0 160 160"><title>Artboard 1</title><polygon points="11.7 0 0 39 0 42.5 12.8 0 11.7 0"/><polygon points="27.8 0 0 92.3 0 95.8 28.8 0 27.8 0"/><polygon points="43.8 0 0 145.6 0 149.1 44.8 0 43.8 0"/><polygon points="59.8 0 11.7 160 12.8 160 60.8 0 59.8 0"/><polygon points="75.8 0 27.7 160 28.8 160 76.8 0 75.8 0"/><polygon points="91.8 0 43.7 160 44.8 160 92.8 0 91.8 0"/><polygon points="107.8 0 59.7 160 60.8 160 108.9 0 107.8 0"/><polygon points="123.8 0 75.8 160 76.8 160 124.9 0 123.8 0"/><polygon points="139.8 0 91.8 160 92.8 160 140.9 0 139.8 0"/><polygon points="155.8 0 107.8 160 108.8 160 156.9 0 155.8 0"/><polygon points="160 39.4 123.8 160 124.8 160 160 42.9 160 39.4"/><polygon points="160 92.7 139.8 160 140.8 160 160 96.2 160 92.7"/><polygon points="160 146 155.8 160 156.9 160 160 149.5 160 146"/></svg>