<svg width="16" height="16" xmlns="http://www.w3.org/2000/svg"><path d="M13.605 3.287L9.252 7.86a1.75 1.75 0 0 1-2.54-.004l-4.277-4.53a.59.59 0 0 0-.041-.038c.06-.012.122-.017.185-.017h10.847c.06 0 .12.005.179.016zm.81.84c.007.047.01.095.01.144v7.333c0 .05-.003.098-.01.146l-3.717-3.717 3.717-3.906zm-.812 8.461c-.057.01-.117.016-.177.016H2.579c-.062 0-.123-.006-.182-.017l3.705-3.705a2.917 2.917 0 0 0 3.781-.014l3.72 3.72zM1.59 11.746a1.009 1.009 0 0 1-.01-.142V4.27c0-.048.003-.095.01-.14l3.699 3.916-3.699 3.699z" fill="#ea0b12" fill-rule="evenodd"/></svg>
