<svg width="85" height="70" fill="none" xmlns="http://www.w3.org/2000/svg"><path d="M.053.267h84.412v52.757H35.462L14.619 69.147l2.671-16.123H.053V.267z" fill="#000"/><path d="M50.531 22.6h-5.658v-5.74h5.658v5.74zm-14.39 0h-5.659v-5.74h5.658v5.74zM22.486 34.41c3.39-1.995 6.56-3.403 9.512-4.223 2.952-.82 6.041-1.23 9.266-1.23 3.226 0 6.314.41 9.266 1.23 2.952.82 6.123 2.228 9.512 4.223l-1.394 3.403c-3.307-1.339-6.314-2.282-9.02-2.829a44.285 44.285 0 00-8.364-.779c-2.87 0-5.658.26-8.364.78-2.706.546-5.712 1.49-9.02 2.828l-1.394-3.403z" fill="#fff"/></svg>
