<?xml version="1.0" encoding="UTF-8"?>
<svg width="37px" height="37px" viewBox="0 0 37 37" version="1.1" xmlns="http://www.w3.org/2000/svg" xmlns:xlink="http://www.w3.org/1999/xlink">
    <!-- Generator: Sketch 51.2 (57519) - http://www.bohemiancoding.com/sketch -->
    <title>Group 4</title>
    <desc>Created with Sketch.</desc>
    <defs></defs>
    <g id="UI" stroke="none" stroke-width="1" fill="none" fill-rule="evenodd">
        <g id="Participate-Medium" transform="translate(-201.000000, -3530.000000)">
            <g id="Group-22" transform="translate(87.000000, 3530.000000)">
                <g id="Group-4" transform="translate(114.000000, 0.000000)">
                    <circle id="Oval-Copy-2" fill="#3BB7EF" cx="18.5" cy="18.5" r="18.5"></circle>
                    <path d="M24.625,22.7857143 C24.625,22.5178558 24.5312509,22.2901795 24.34375,22.1026786 L22.2544643,20.0133929 C22.0669633,19.8258919 21.8392871,19.7321429 21.5714286,19.7321429 C21.2901772,19.7321429 21.0491081,19.8392846 20.8482143,20.0535714 C20.8683037,20.0736608 20.9319191,20.1356022 21.0390625,20.2393973 C21.1462059,20.3431925 21.2181918,20.4151784 21.2550223,20.4553571 C21.2918529,20.4955359 21.3420756,20.5591514 21.405692,20.6462054 C21.4693084,20.7332594 21.5128347,20.818638 21.5362723,20.9023438 C21.5597099,20.9860495 21.5714286,21.0781245 21.5714286,21.1785714 C21.5714286,21.4464299 21.4776795,21.6741062 21.2901786,21.8616071 C21.1026776,22.0491081 20.8750013,22.1428571 20.6071429,22.1428571 C20.5066959,22.1428571 20.414621,22.1311385 20.3309152,22.1077009 C20.2472094,22.0842633 20.1618308,22.0407369 20.0747768,21.9771205 C19.9877228,21.9135041 19.9241073,21.8632814 19.8839286,21.8264509 C19.8437498,21.7896204 19.7717639,21.7176345 19.6679688,21.6104911 C19.5641736,21.5033477 19.5022322,21.4397322 19.4821429,21.4196429 C19.2611596,21.6272332 19.1506696,21.8716504 19.1506696,22.1529018 C19.1506696,22.4207603 19.2444187,22.6484366 19.4319196,22.8359375 L21.5011161,24.9151786 C21.6819205,25.095983 21.9095968,25.1863839 22.1841518,25.1863839 C22.4520103,25.1863839 22.6796866,25.0993312 22.8671875,24.9252232 L24.34375,23.4587054 C24.5312509,23.2712044 24.625,23.0468763 24.625,22.7857143 Z M17.5636161,15.7042411 C17.5636161,15.4363826 17.469867,15.2087063 17.2823661,15.0212054 L15.2131696,12.9419643 C15.0256687,12.7544633 14.7979924,12.6607143 14.5301339,12.6607143 C14.2689719,12.6607143 14.0412956,12.7511152 13.8470982,12.9319196 L12.3705357,14.3984375 C12.1830348,14.5859384 12.0892857,14.8102666 12.0892857,15.0714286 C12.0892857,15.3392871 12.1830348,15.5669633 12.3705357,15.7544643 L14.4598214,17.84375 C14.6406259,18.0245545 14.8683022,18.1149554 15.1428571,18.1149554 C15.4241085,18.1149554 15.6651776,18.0111618 15.8660714,17.8035714 C15.845982,17.783482 15.7823666,17.7215407 15.6752232,17.6177455 C15.5680798,17.5139504 15.4960939,17.4419645 15.4592634,17.4017857 C15.4224329,17.3616069 15.3722101,17.2979915 15.3085938,17.2109375 C15.2449774,17.1238835 15.201451,17.0385049 15.1780134,16.9547991 C15.1545758,16.8710933 15.1428571,16.7790184 15.1428571,16.6785714 C15.1428571,16.4107129 15.2366062,16.1830367 15.4241071,15.9955357 C15.6116081,15.8080348 15.8392844,15.7142857 16.1071429,15.7142857 C16.2075898,15.7142857 16.2996648,15.7260043 16.3833705,15.749442 C16.4670763,15.7728796 16.5524549,15.8164059 16.6395089,15.8800223 C16.7265629,15.9436387 16.7901784,15.9938614 16.8303571,16.030692 C16.8705359,16.0675225 16.9425218,16.1395084 17.046317,16.2466518 C17.1501121,16.3537952 17.2120535,16.4174106 17.2321429,16.4375 C17.4531261,16.2299097 17.5636161,15.9854925 17.5636161,15.7042411 Z M25.7098214,20.7366071 C26.2723242,21.29911 26.5535714,21.9821388 26.5535714,22.7857143 C26.5535714,23.5892897 26.2689761,24.2689704 25.6997768,24.8247768 L24.2232143,26.2912946 C23.6674079,26.847101 22.9877272,27.125 22.1841518,27.125 C21.3738799,27.125 20.690851,26.8404046 20.1350446,26.2712054 L18.0658482,24.1919643 C17.5100419,23.6361579 17.2321429,22.9564772 17.2321429,22.1529018 C17.2321429,21.329237 17.5267828,20.6294672 18.1160714,20.0535714 L17.2321429,19.1696429 C16.6562471,19.7589315 15.9598255,20.0535714 15.1428571,20.0535714 C14.3392817,20.0535714 13.6562528,19.7723242 13.09375,19.2098214 L11.0044643,17.1205357 C10.4419615,16.5580329 10.1607143,15.875004 10.1607143,15.0714286 C10.1607143,14.2678531 10.4453097,13.5881724 11.0145089,13.0323661 L12.4910714,11.5658482 C13.0468778,11.0100419 13.7265585,10.7321429 14.5301339,10.7321429 C15.3404058,10.7321429 16.0234347,11.0167382 16.5792411,11.5859375 L18.6484375,13.6651786 C19.2042439,14.2209849 19.4821429,14.9006656 19.4821429,15.7042411 C19.4821429,16.5279059 19.1875029,17.2276757 18.5982143,17.8035714 L19.4821429,18.6875 C20.0580386,18.0982113 20.7544602,17.8035714 21.5714286,17.8035714 C22.375004,17.8035714 23.0580329,18.0848186 23.6205357,18.6473214 L25.7098214,20.7366071 Z" id="ïƒ" fill="#FFFFFF"></path>
                </g>
            </g>
        </g>
    </g>
</svg>