<?xml version="1.0" encoding="UTF-8"?>
<svg width="37px" height="37px" viewBox="0 0 37 37" version="1.1" xmlns="http://www.w3.org/2000/svg" xmlns:xlink="http://www.w3.org/1999/xlink">
    <!-- Generator: Sketch 51.2 (57519) - http://www.bohemiancoding.com/sketch -->
    <title>Group 2</title>
    <desc>Created with Sketch.</desc>
    <defs></defs>
    <g id="UI" stroke="none" stroke-width="1" fill="none" fill-rule="evenodd">
        <g id="Participate-Medium" transform="translate(-87.000000, -3530.000000)">
            <g id="Group-22" transform="translate(87.000000, 3530.000000)">
                <g id="Group-2">
                    <circle id="Oval" fill="#3BB7EF" cx="18.5" cy="18.5" r="18.5"></circle>
                    <path d="M22.6328125,10.6919643 L22.6328125,13.34375 L21.0558036,13.34375 C20.4799078,13.34375 20.0915189,13.4642845 19.890625,13.7053571 C19.6897311,13.9464298 19.5892857,14.3080333 19.5892857,14.7901786 L19.5892857,16.6886161 L22.5323661,16.6886161 L22.140625,19.6618304 L19.5892857,19.6618304 L19.5892857,27.2857143 L16.515625,27.2857143 L16.515625,19.6618304 L13.9542411,19.6618304 L13.9542411,16.6886161 L16.515625,16.6886161 L16.515625,14.4988839 C16.515625,13.253342 16.8638358,12.2873918 17.5602679,11.6010045 C18.2566999,10.9146171 19.184146,10.5714286 20.3426339,10.5714286 C21.3270139,10.5714286 22.0903991,10.6116067 22.6328125,10.6919643 Z" id="" fill="#FFFFFF"></path>
                </g>
            </g>
        </g>
    </g>
</svg>