<?xml version="1.0" encoding="UTF-8"?>
<svg id="Layer_1" data-name="Layer 1" xmlns="http://www.w3.org/2000/svg" viewBox="0 0 1044.97 73.83">
  <defs>
    <style>
      .cls-1 {
        fill: #161616;
        stroke-width: 0px;
      }
    </style>
  </defs>
  <path class="cls-1" d="M0,1.06h17.88l23.7,42.72h1.98c-.21-4.36-.31-8.73-.31-13.1V1.06h14.45v71.72h-13.82L16.01,21.01h-1.98c.21,4.36.31,8.73.31,13.1v38.66H0V1.06Z"/>
  <path class="cls-1" d="M78.37,64.35c-5.75-6.3-8.63-15.45-8.63-27.44s2.87-21.13,8.63-27.44C84.12,3.17,92.29.02,102.9.02s18.78,3.15,24.53,9.46c5.75,6.31,8.63,15.45,8.63,27.44s-2.88,21.14-8.63,27.44c-5.75,6.31-13.93,9.46-24.53,9.46s-18.78-3.15-24.53-9.46ZM116.2,57.39c2.84-3.33,4.26-8.56,4.26-15.69v-9.56c0-7.14-1.42-12.37-4.26-15.69-2.84-3.33-7.28-4.99-13.3-4.99s-10.57,1.66-13.41,4.99c-2.84,3.33-4.26,8.56-4.26,15.69v9.56c0,7.14,1.42,12.37,4.26,15.69,2.84,3.33,7.31,4.99,13.41,4.99s10.46-1.66,13.3-4.99h0Z"/>
  <path class="cls-1" d="M160.17,12.8h-21.31V1.06h57.37v11.74h-21.31v59.97h-14.76V12.8h0Z"/>
  <path class="cls-1" d="M206,1.06h14.76v71.72h-14.76V1.06ZM215.36,30.37h37.94v11.64h-37.94v-11.64ZM248.2,1.06h14.86v71.72h-14.86V1.06Z"/>
  <path class="cls-1" d="M275.33,61.03h7.38V12.8h-7.38V1.05h29.52v11.74h-7.38v48.23h7.38v11.74h-29.52v-11.74Z"/>
  <path class="cls-1" d="M317.21,1.06h17.88l23.7,42.72h1.97c-.21-4.36-.31-8.73-.31-13.1V1.06h14.45v71.72h-13.82l-27.85-51.76h-1.97c.21,4.36.31,8.73.31,13.1v38.66h-14.34V1.06Z"/>
  <path class="cls-1" d="M400.78,69.55c-4.36-2.84-7.76-7.03-10.19-12.58-2.43-5.54-3.64-12.23-3.64-20.06,0-11.99,2.82-21.13,8.47-27.44C401.07,3.17,409.13.02,419.59.02c8.45,0,15.33,2.06,20.63,6.18,5.3,4.12,8.71,10.13,10.24,18.03h-15.07v-1.77c0-1.59-.54-3.24-1.61-4.94-1.08-1.7-2.81-3.13-5.2-4.31-2.39-1.18-5.39-1.77-8.99-1.77-5.89,0-10.2,1.66-12.94,4.99-2.74,3.33-4.11,8.52-4.11,15.59v9.67c0,7.21,1.39,12.49,4.16,15.85,2.77,3.36,7.14,5.04,13.1,5.04s10.15-1.54,12.99-4.62c2.84-3.08,4.26-7.53,4.26-13.36v-5.2l4.16,6.96h-21.1v-11.02h31.28v37.42h-13.2v-12.06h-1.97c-1.32,4.09-3.73,7.29-7.22,9.61-3.5,2.32-7.88,3.48-13.15,3.48-5.68,0-10.71-1.42-15.07-4.26h0Z"/>
  <path class="cls-1" d="M490.89,1.06h31.91c7.55,0,13.3,1.94,17.25,5.82,3.95,3.88,5.92,9.46,5.92,16.73s-1.97,12.44-5.92,16.32c-3.95,3.88-9.63,5.82-17.05,5.82h-17.36v27.02h-14.76V1.06h0ZM528.56,32.39c1.49-1.56,2.23-3.97,2.23-7.22v-3.22c0-3.26-.74-5.66-2.23-7.22-1.49-1.56-3.76-2.34-6.81-2.34h-16.11v22.35h16.11c3.05,0,5.32-.78,6.81-2.34Z"/>
  <path class="cls-1" d="M556.37,1.06h51.55v11.75h-36.69v17.77h28.17v11.22h-28.17v19.23h37.1v11.74h-51.97V1.06h0Z"/>
  <path class="cls-1" d="M619.66,1.06h32.64c7.21,0,12.75,1.8,16.63,5.4,3.88,3.6,5.82,8.9,5.82,15.9,0,6.58-1.92,11.78-5.77,15.59-3.85,3.81-9.34,5.72-16.47,5.72h-18.08v29.1h-14.76V1.06h0ZM657.55,30.52c1.35-1.42,2.03-3.62,2.03-6.6v-2.81c0-2.98-.68-5.18-2.03-6.6-1.35-1.42-3.45-2.13-6.29-2.13h-16.84v20.27h16.84c2.84,0,4.94-.71,6.29-2.13h0ZM639,35.98h16.42l20.89,36.79h-16.73l-20.58-36.79h0Z"/>
  <path class="cls-1" d="M692.57,68.35c-4.75-3.64-7.78-9.41-9.09-17.31h15.07v1.35c0,2.98,1.16,5.39,3.48,7.22,2.32,1.84,5.94,2.75,10.86,2.75,4.57,0,8.11-.76,10.6-2.29,2.49-1.52,3.74-3.67,3.74-6.44v-1.25c0-2.01-.73-3.6-2.18-4.78-1.45-1.18-3.88-2.15-7.28-2.91l-15.07-3.12c-6.65-1.46-11.48-3.74-14.5-6.86s-4.52-7.41-4.52-12.89c0-7,2.49-12.39,7.48-16.16,4.99-3.78,12.12-5.67,21.41-5.67,8.73,0,15.42,1.82,20.06,5.46,4.64,3.64,7.62,9.41,8.94,17.3h-14.86v-1.35c0-2.91-1.16-5.3-3.48-7.17-2.32-1.87-5.87-2.81-10.65-2.81s-8.06.74-10.44,2.23c-2.39,1.49-3.59,3.66-3.59,6.5v1.25c0,2.01.71,3.62,2.13,4.83,1.42,1.21,3.79,2.17,7.12,2.86l15.07,3.12c6.72,1.46,11.6,3.74,14.66,6.86,3.05,3.12,4.57,7.38,4.57,12.78,0,7.07-2.51,12.49-7.54,16.27-5.02,3.78-12.25,5.66-21.67,5.66-8.8,0-15.57-1.82-20.32-5.46h0Z"/>
  <path class="cls-1" d="M759.35,64.35c-5.75-6.3-8.63-15.45-8.63-27.44s2.87-21.13,8.63-27.44C765.1,3.17,773.28.02,783.88.02s18.78,3.15,24.53,9.46c5.75,6.31,8.63,15.45,8.63,27.44s-2.88,21.14-8.63,27.44c-5.75,6.31-13.93,9.46-24.53,9.46s-18.78-3.15-24.53-9.46ZM797.19,57.39c2.84-3.33,4.26-8.56,4.26-15.69v-9.56c0-7.14-1.42-12.37-4.26-15.69-2.84-3.33-7.28-4.99-13.3-4.99s-10.57,1.66-13.41,4.99c-2.84,3.33-4.26,8.56-4.26,15.69v9.56c0,7.14,1.42,12.37,4.26,15.69,2.84,3.33,7.31,4.99,13.41,4.99s10.46-1.66,13.3-4.99h0Z"/>
  <path class="cls-1" d="M829.2,1.06h17.88l23.7,42.72h1.97c-.21-4.36-.31-8.73-.31-13.1V1.06h14.45v71.72h-13.82l-27.85-51.76h-1.97c.21,4.36.31,8.73.31,13.1v38.66h-14.34V1.06Z"/>
  <path class="cls-1" d="M920.04,1.06h18.19l24.32,71.72h-14.97l-17.77-56.65h-1.97l-17.67,56.65h-14.34L920.04,1.06ZM909.23,45.85h38.67l.31,11.22h-39.29l.31-11.22Z"/>
  <path class="cls-1" d="M971.59,1.06h14.76v59.97h35.65v11.74h-50.41V1.06h0Z"/>
  <path class="cls-1" d="M1029.38,57.8h15.59v14.97h-15.59v-14.97Z"/>
</svg>