<?xml version="1.0" encoding="UTF-8"?>
<svg id="Layer_1" data-name="Layer 1" xmlns="http://www.w3.org/2000/svg" viewBox="0 0 1702 1286">
  <defs>
    <style>
      .cls-1 {
        fill: #23a5e9;
      }

      .cls-1, .cls-2, .cls-3 {
        stroke-width: 0px;
      }

      .cls-2 {
        fill: #86ff81;
      }

      .cls-3 {
        fill: #231f20;
      }
    </style>
  </defs>
  <rect class="cls-2" x="0" width="1702" height="1028.76"/>
  <g>
    <path class="cls-1" d="M67.45,514.21c0-147.22,0-294.45.01-441.67,0-7.62-.91-6.74,6.55-6.74,108.95-.02,217.9-.01,326.84-.01.83,0,1.68.09,2.5-.02,2.48-.31,3.88.77,5.07,2.97,6.77,12.42,13.68,24.77,20.55,37.14,9.78,17.61,19.59,35.2,29.29,52.85,1.19,2.17,2.54,3.14,5.04,3.04,4.32-.17,8.66-.01,12.99-.06,3.97-.04,4.02-.08,4.03-4.25.03-10.16.01-20.32.01-30.48,0-18.49,0-36.97,0-55.46,0-6.16-.53-5.72,5.58-5.72,53.81,0,107.62,0,161.42,0,58.97,0,117.94,0,176.92,0,6.7,0,6.2-.7,6.2,6.16,0,294.95,0,589.89,0,884.84,0,6.9.55,6.19-6.15,6.19-96.62.01-193.24-.02-289.86.1-4.04,0-6.19-1.22-8.1-4.79-28.98-54.16-58.13-108.22-87.13-162.36-1.56-2.92-3.28-4.12-6.58-3.88-4.14.3-8.33.02-12.49.09-3.46.06-3.47.12-3.57,3.73-.03,1.16,0,2.33,0,3.5,0,52.46,0,104.92,0,157.38,0,6.97.64,6.24-6.07,6.24-112.28.01-224.56.01-336.84,0-6.82,0-6.18.73-6.19-6.11,0-147.56,0-295.11,0-442.67Z"/>
    <path class="cls-1" d="M897.07,514.49c0-147.38,0-294.76.01-442.13,0-7.49-.8-6.55,6.74-6.55,134.93-.02,269.85-.08,404.78.03,38.59.03,76.71,4.29,113.94,14.93,36.22,10.35,69.7,26.26,99.56,49.4,41.97,32.53,72.18,73.77,90.9,123.44,9.61,25.49,15.75,51.81,19.05,78.83,1.57,12.89,2.38,25.81,3.09,38.78.8,14.5.37,28.97-.52,43.4-3.02,48.89-14.1,95.7-37.93,138.91-25.98,47.08-62.48,83.85-109.45,110.11-31.39,17.56-65.08,28.54-100.42,34.77-20.52,3.61-41.18,5.5-62.01,6.18-22.65.74-45.29.19-67.94.44-1.33.01-2.67.05-4,0-1.91-.07-2.72.84-2.66,2.72.05,1.5,0,3,0,4.5,0,81.43,0,162.87,0,244.3,0,7.28.67,6.45-6.36,6.45-113.44.01-226.88.01-340.31.01-.17,0-.33,0-.5,0-6.47-.06-5.93.68-5.93-5.87,0-147.54,0-295.09,0-442.63ZM1250.19,386.62c0,14.63,0,29.27,0,43.9,0,4.96.03,4.99,4.81,4.99,13.31.02,26.62-.29,39.92.08,14.31.4,29.18-11.8,29.05-29.19-.1-12.97-.15-25.94.01-38.91.2-16.24-13.53-29.81-29.45-29.29-13.13.43-26.28.09-39.42.09-1,0-2,0-2.99.06-1.14.07-1.83.7-1.88,1.87-.05,1.33-.06,2.66-.06,3.99,0,14.13,0,28.27,0,42.4Z"/>
    <path class="cls-1" d="M1420.91,855.1c0-33.13,0-66.25,0-99.38,0-1.17-.03-2.33,0-3.5q.1-3.74,3.99-3.84c.67-.02,1.33,0,2,0,67.43,0,134.87,0,202.3,0,6.38,0,6.36-.74,6.36,6.11-.01,67.58,0,135.16,0,202.75,0,.83-.06,1.67,0,2.5.19,2.26-.61,3.5-3.08,3.27-.99-.09-2-.01-3-.01-67.43,0-134.87,0-202.3,0-7.06,0-6.26.78-6.27-6.52-.02-33.79-.01-67.58-.01-101.37Z"/>
  </g>
  <g>
    <path class="cls-3" d="M13.07,1147.84h48.97c20.51,0,32.75,10.65,32.75,29.26,0,13.67-6.68,21.46-19.24,23.05v2.86c13.36,1.59,20.35,9.86,20.35,24.17,0,19.4-12.4,30.37-33.55,30.37H13.07v-109.71ZM74.44,1180.27v-3.34c0-9.54-4.61-13.83-13.83-13.83h-27.67v31.16h27.67c9.22,0,13.83-4.45,13.83-13.99ZM75.55,1227.65v-3.97c0-10.02-4.77-14.79-14.63-14.79h-27.98v33.39h27.98c9.86,0,14.63-4.61,14.63-14.63Z"/>
    <path class="cls-3" d="M138.36,1254.52l-32.75-81.88h19.72l21.62,57.88h2.86l21.78-57.88h18.92l-44.68,110.98h-19.72l12.24-29.1Z"/>
    <path class="cls-3" d="M240.92,1147.84h34.34l24.64,79.02h2.7l24.49-79.02h34.5v109.71h-19.87v-94.29h-2.7l-29.1,94.29h-17.81l-29.1-95.08h-2.86v95.08h-19.24v-109.71Z"/>
    <path class="cls-3" d="M380.52,1215.09c0-28.14,15.42-44.04,41.5-44.04s41.5,15.9,41.5,44.04-15.42,44.04-41.5,44.04-41.5-15.9-41.5-44.04ZM443.16,1219.22v-8.27c0-17.01-6.68-24.8-21.15-24.8s-21.15,7.79-21.15,24.8v8.27c0,17.01,6.68,24.8,21.15,24.8s21.15-7.79,21.15-24.8Z"/>
    <path class="cls-3" d="M473.85,1243.55l45.47-56.92h-44.84v-13.99h68.53v13.99l-45.31,56.92h45.79v13.99h-69.64v-13.99Z"/>
    <path class="cls-3" d="M565.27,1186.63h-11.45v-13.99h30.69v84.9h-19.24v-70.91ZM563.84,1143.38h21.46v16.69h-21.46v-16.69Z"/>
    <path class="cls-3" d="M607.25,1245.3v-102.55h19.24v100.8h18.13v13.99h-25.12c-7.95,0-12.24-4.29-12.24-12.24Z"/>
    <path class="cls-3" d="M659.24,1245.3v-102.55h19.24v100.8h18.13v13.99h-25.12c-7.95,0-12.24-4.29-12.24-12.24Z"/>
    <path class="cls-3" d="M706.14,1234.97c0-15.26,10.65-24.01,30.69-25.92l23.53-2.38v-2.86c0-12.24-5.09-17.65-16.22-17.65s-15.74,5.88-15.74,9.7v.48h-19.87c3.97-16.85,16.22-25.28,36.09-25.28,22.9,0,34.98,11.13,34.98,32.28v54.22h-17.65v-13.83h-2.7c-4.29,10.02-12.4,15.42-25.76,15.42-17.01,0-27.35-9.06-27.35-24.17ZM741.76,1244.5c12.24,0,18.6-5.25,18.6-15.42v-9.86l-17.81,1.75c-11.61,1.11-16.54,4.45-16.54,11.45v1.27c0,7,5.72,10.81,15.74,10.81Z"/>
    <path class="cls-3" d="M842.25,1147.84h77.27v15.9h-57.4v30.21h44.52v15.26h-44.52v48.33h-19.87v-109.71Z"/>
    <path class="cls-3" d="M923.81,1215.09c0-28.14,15.42-44.04,41.5-44.04s41.5,15.9,41.5,44.04-15.42,44.04-41.5,44.04-41.5-15.9-41.5-44.04ZM986.46,1219.22v-8.27c0-17.01-6.68-24.8-21.15-24.8s-21.15,7.79-21.15,24.8v8.27c0,17.01,6.68,24.8,21.15,24.8s21.15-7.79,21.15-24.8Z"/>
    <path class="cls-3" d="M1024.14,1227.65v-55.01h19.4v51.2c0,13.99,5.25,20.19,17.01,20.19s17.01-6.2,17.01-20.19v-51.2h19.4v84.9h-17.65v-14.47h-2.7c-4.45,10.49-12.56,16.06-24.96,16.06-17.97,0-27.51-10.81-27.51-31.48Z"/>
    <path class="cls-3" d="M1120.17,1172.64h17.65v14.31h2.7c4.45-10.33,12.4-15.9,24.96-15.9,17.97,0,27.35,10.81,27.35,31.48v55.01h-19.24v-51.2c0-13.99-5.41-20.19-17.17-20.19s-17.01,6.2-17.01,20.19v51.2h-19.24v-84.9Z"/>
    <path class="cls-3" d="M1210.48,1215.09c0-27.51,13.04-44.04,33.71-44.04,12.24,0,20.83,5.56,24.96,15.42h2.86c-.48-8.43-.64-13.51-.64-18.44v-25.28h19.4v114.8h-17.65v-15.1h-2.7c-4.77,10.49-13.51,16.69-26.23,16.69-20.51,0-33.71-16.54-33.71-44.04ZM1271.38,1219.38v-8.59c0-16.85-6.36-24.64-20.19-24.64s-20.35,7.79-20.35,24.64v8.59c0,16.85,6.36,24.64,20.35,24.64s20.19-7.79,20.19-24.64Z"/>
    <path class="cls-3" d="M1308.59,1234.97c0-15.26,10.65-24.01,30.69-25.92l23.53-2.38v-2.86c0-12.24-5.09-17.65-16.22-17.65s-15.74,5.88-15.74,9.7v.48h-19.87c3.97-16.85,16.22-25.28,36.09-25.28,22.9,0,34.98,11.13,34.98,32.28v54.22h-17.65v-13.83h-2.7c-4.29,10.02-12.4,15.42-25.76,15.42-17.01,0-27.35-9.06-27.35-24.17ZM1344.2,1244.5c12.24,0,18.6-5.25,18.6-15.42v-9.86l-17.81,1.75c-11.61,1.11-16.54,4.45-16.54,11.45v1.27c0,7,5.72,10.81,15.74,10.81Z"/>
    <path class="cls-3" d="M1411.62,1245.3v-58.67h-17.17v-13.99h17.17v-24.17h19.4v24.17h24.17v13.99h-24.17v56.92h24.17v13.99h-31.16c-8.11,0-12.4-4.29-12.4-12.24Z"/>
    <path class="cls-3" d="M1475.69,1186.63h-11.45v-13.99h30.69v84.9h-19.24v-70.91ZM1474.26,1143.38h21.46v16.69h-21.46v-16.69Z"/>
    <path class="cls-3" d="M1513.06,1215.09c0-28.14,15.42-44.04,41.5-44.04s41.5,15.9,41.5,44.04-15.42,44.04-41.5,44.04-41.5-15.9-41.5-44.04ZM1575.7,1219.22v-8.27c0-17.01-6.68-24.8-21.15-24.8s-21.15,7.79-21.15,24.8v8.27c0,17.01,6.68,24.8,21.15,24.8s21.15-7.79,21.15-24.8Z"/>
    <path class="cls-3" d="M1614.34,1172.64h17.65v14.31h2.7c4.45-10.33,12.4-15.9,24.96-15.9,17.97,0,27.35,10.81,27.35,31.48v55.01h-19.24v-51.2c0-13.99-5.41-20.19-17.17-20.19s-17.01,6.2-17.01,20.19v51.2h-19.24v-84.9Z"/>
  </g>
</svg>