<?xml version="1.0" encoding="UTF-8"?>
<svg width="37px" height="37px" viewBox="0 0 37 37" version="1.1" xmlns="http://www.w3.org/2000/svg" xmlns:xlink="http://www.w3.org/1999/xlink">
    <!-- Generator: Sketch 51.2 (57519) - http://www.bohemiancoding.com/sketch -->
    <title>Group 3</title>
    <desc>Created with Sketch.</desc>
    <defs></defs>
    <g id="UI" stroke="none" stroke-width="1" fill="none" fill-rule="evenodd">
        <g id="Participate-Medium" transform="translate(-144.000000, -3530.000000)">
            <g id="Group-22" transform="translate(87.000000, 3530.000000)">
                <g id="Group-3" transform="translate(57.000000, 0.000000)">
                    <circle id="Oval-Copy" fill="#3BB7EF" cx="18.5" cy="18.5" r="18.5"></circle>
                    <path d="M26.2723214,14.6696429 C25.8236585,15.3258961 25.2812532,15.8850423 24.6450893,16.3470982 C24.6517857,16.4408487 24.6551339,16.5814723 24.6551339,16.7689732 C24.6551339,17.6395133 24.5279031,18.5083662 24.2734375,19.375558 C24.0189719,20.2427499 23.6322571,21.0747728 23.1132812,21.8716518 C22.5943054,22.6685308 21.9765661,23.3733228 21.2600446,23.9860491 C20.5435232,24.5987754 19.6796926,25.0876098 18.6685268,25.452567 C17.657361,25.8175241 16.5758986,26 15.4241071,26 C13.6093659,26 11.9486682,25.5145138 10.4419643,24.5435268 C10.6763405,24.5703126 10.9374986,24.5837054 11.2254464,24.5837054 C12.7321504,24.5837054 14.0747709,24.1216564 15.2533482,23.1975446 C14.5502197,23.1841517 13.9207617,22.9681941 13.3649554,22.5496652 C12.809149,22.1311363 12.4274564,21.5971015 12.2198661,20.9475446 C12.4408493,20.981027 12.6450883,20.9977679 12.8325893,20.9977679 C13.1205372,20.9977679 13.4051325,20.9609379 13.6863839,20.8872768 C12.9363802,20.7332582 12.3152926,20.359936 11.8231027,19.7672991 C11.3309127,19.1746622 11.0848214,18.4866111 11.0848214,17.703125 L11.0848214,17.6629464 C11.5401808,17.917412 12.0290152,18.0546874 12.5513393,18.0747768 C12.1093728,17.7801325 11.7578138,17.3950917 11.4966518,16.9196429 C11.2354898,16.4441941 11.1049107,15.9285742 11.1049107,15.3727679 C11.1049107,14.7834792 11.2522307,14.2377257 11.546875,13.7354911 C12.3571469,14.7332639 13.3431862,15.531805 14.5050223,16.1311384 C15.6668585,16.7304717 16.9107077,17.0636157 18.2366071,17.1305804 C18.1830354,16.8761148 18.15625,16.6283494 18.15625,16.3872768 C18.15625,15.4899509 18.4726531,14.7248916 19.1054688,14.0920759 C19.7382844,13.4592602 20.5033437,13.1428571 21.4006696,13.1428571 C22.3381743,13.1428571 23.128345,13.4843716 23.7712054,14.1674107 C24.5011197,14.026785 25.1874968,13.7656269 25.8303571,13.3839286 C25.582588,14.1540217 25.1071464,14.7499979 24.4040179,15.171875 C25.0267888,15.1049104 25.6495505,14.9375013 26.2723214,14.6696429 Z" id="" fill="#FFFFFF"></path>
                </g>
            </g>
        </g>
    </g>
</svg>