<svg xmlns="http://www.w3.org/2000/svg" width="122" height="143">
    <path fill="#B6D806" d="M75.9 47.8L54 41.9l-5.9 21.9L70 69.7l5.9-21.9zm-15.7 9.3c-1-1.1-1.2-2.5-.8-4.4.3-1.4 1-2.5 1.9-3.1.7-.4 1.4-.5 2.3-.3.8.2 1.4.7 1.8 1.4.5.9.6 2.2.1 3.6-.6 1.9-1.5 3-2.9 3.4-.5.2-.7.8-.8 1.3-.3 1 .3 2.1 1.6 2.8l.6.3c.7.3 1.3.6 1.7 1.5.4.9.6 2.1.5 3.6l-13.7-3.7c.7-1.3 1.4-2.3 2.2-2.9.8-.6 1.5-.5 2.2-.5h.7c1.4 0 2.5-.6 2.8-1.7.1-.3.2-.9-.2-1.3zm7.3 10.5c.1-1.8 0-3.3-.6-4.5-.6-1.3-1.6-1.8-2.3-2.1-.2-.1-.3-.2-.5-.2-.7-.4-1.1-.9-.9-1.4 0-.1.1-.3.1-.4 1.7-.6 2.9-2 3.6-4.2.5-1.8.5-3.4-.2-4.7-.6-1-1.5-1.7-2.5-2 0 0-.1 0-.2-.1-1.2-.3-2.3-.2-3.3.4-1.2.7-2.2 2.1-2.6 3.9-.5 2.2-.2 4.1 1 5.4 0 .1-.1.4-.1.5-.1.4-.7.7-1.5.7H57c-.8-.1-1.9-.1-3.1.7-1 .7-1.9 2-2.7 3.6l-1.5-.4 5.2-19.3 19.3 5.2L69.1 68l-1.6-.4zM45 74.1l-13.3-3.6.7-2.6 13.3 3.6-.7 2.6zm35.7 9.6l-33.2-8.9.7-2.6 33.2 8.9-.7 2.6zm-20.9 2.7l-30.1-8.1.7-2.6 30.1 8.1-.7 2.6zm3.3-1.9l16.3 4.4-.7 2.6-16.3-4.4.7-2.6zm-14.6 7.1L27.6 86l.7-2.6L49.2 89l-.7 2.6zm-23 2.2l.7-2.6 31.9 8.5-.7 2.6-31.9-8.5zm49.6-82.4l-2.6-.7L75.3.4l2.6.7-2.8 10.3zm9.8 6l-1.9-2 7.8-7.3 1.8 1.9-7.7 7.4zM61 11L57.9.8l2.6-.8 3.1 10.2-2.6.8zm46.9 81.1c.3-2.4.5-4.9.5-7.5 0-11-3.3-21.1-8.9-29.7l6.4-24-69.6-18.7-6.4 23.9c-5.1 2.6-9.9 6-14.1 10.2C5.6 56.5 0 70.2 0 84.6c0 29.9 24.3 54.2 54.2 54.2 7.4 0 14.5-1.5 21-4.3 4.9 5.2 11.9 8.4 19.6 8.4 3.7 0 7.2-.7 10.6-2.1 10.1-4.3 16.6-14.1 16.6-25 0-10.2-5.7-19.1-14.1-23.7zm-2.1-7.5c0 2.1-.1 4.2-.4 6.2-3.2-1.4-6.8-2.1-10.5-2.1-1.5 0-3 .2-4.5.4l8.2-30.6c4.5 7.6 7.1 16.5 7.2 26.1zM38.2 15.5l64.5 17.3-15.3 57c-4.3 1.2-8.2 3.5-11.3 6.5l-24.3-6.5-.7 2.6L74 98.5c-1.2 1.4-2.3 3-3.1 4.7l-10.2-2.7-.7 2.5 9.8 2.6c-1.3 3.2-2 6.6-2 10.2v.5L15 102.2l23.2-86.7zm16 120.7c-28.4 0-51.6-23.1-51.6-51.5 0-13.8 5.3-26.7 15.1-36.5 3.4-3.4 7.2-6.2 11.2-8.5l-17.2 64.4 56.2 15.1c.6 5 2.6 9.5 5.5 13.3-6 2.4-12.5 3.6-19.2 3.7zm50.7 3.4c-3.2 1.3-6.6 2-10 2-14.2 0-25.8-11.6-25.8-25.8C69 101.6 80.6 90 94.9 90s25.8 11.6 25.8 25.8c0 10.4-6.2 19.8-15.8 23.8zm3.6-33.3l1.9 1.9L89.6 129l-10.2-10.5 1.9-1.9 8.3 8.6 18.9-18.9z"/>
</svg>
