<svg xmlns="http://www.w3.org/2000/svg" width="208" height="208">
    <path fill="#B6D806" d="M34.7 103h-1.8c.1-4.7.6-9.5 1.6-14.1l1.7.4c-.9 4.5-1.4 9.1-1.5 13.7zm1.5 15.5c-1-4.5-1.5-9.1-1.5-13.7h-1.8c.1 4.7.6 9.5 1.5 14.1l1.8-.4zm-1.3 2.1c1.1 4.6 2.7 9.1 4.7 13.4l1.6-.7c-1.9-4.2-3.5-8.6-4.5-13l-1.8.3zm6.4-46l-1.6-.7c-2 4.3-3.6 8.8-4.7 13.4l1.7.4c1.1-4.6 2.6-8.9 4.6-13.1zM171.4 88l1.7-.4c-1.1-4.6-2.6-9.1-4.6-13.4l-1.6.7c1.9 4.2 3.5 8.6 4.5 13.1zm.4 1.6c.9 4.5 1.4 9.1 1.5 13.7h1.8c0-4.7-.6-9.5-1.5-14.1l-1.8.4zm-.1 29l1.7.4c1-4.6 1.5-9.3 1.6-14.1h-1.8c0 4.6-.5 9.2-1.5 13.7zm-4.9 14.7l1.6.7c2-4.3 3.6-8.8 4.7-13.4l-1.7-.4c-1.1 4.5-2.7 8.9-4.6 13.1zm-.8 1.6l1.6.8c-2.1 4.2-4.6 8.3-7.5 12l-.9-.7v29.9H48.9v-30.1l-1 .8c-2.9-3.7-5.4-7.8-7.5-12l1.6-.8c2 3.9 4.3 7.7 7 11.2V62.1c-2.6 3.4-4.9 7.1-6.9 11l-1.6-.8c2.1-4.2 4.7-8.2 7.6-12l.9.7V31.2h110.3v30.2l1.1-.8c2.9 3.7 5.4 7.8 7.5 12l-1.6.8c-2-4-4.3-7.8-7-11.3V146c2.5-3.5 4.8-7.3 6.7-11.1zM155.6 34.7H52.4v138.6h103.2V34.7zM21 166.6c.7.9 1.4 1.9 2.2 2.8l1.4-1.1-2.1-2.7-1.5 1zm-5-7.2c.6 1 1.3 2 1.9 3l1.4-1c-.6-1-1.3-1.9-1.9-2.9l-1.4.9zm.4-108.1l-1.5-.9c-.6 1-1.2 2-1.8 3.1l1.5.9c.6-1.1 1.2-2.1 1.8-3.1zm22.5-26.2l-1.1-1.3c-.9.7-1.8 1.5-2.7 2.3l1.2 1.3c.9-.8 1.7-1.5 2.6-2.3zM11.6 151.7c.5 1 1.1 2.1 1.7 3.1l1.5-.9c-.6-1-1.1-2-1.6-3l-1.6.8zM21.2 44l-1.4-1c-.7 1-1.4 1.9-2 2.9l1.5 1c.5-1 1.2-1.9 1.9-2.9zM1.9 109.4l-1.7.1c.1 1.2.1 2.4.2 3.5l1.7-.1c-.1-1.2-.1-2.3-.2-3.5zm2.9 26.1c.4 1.1.7 2.2 1.1 3.3l1.6-.6c-.4-1.1-.8-2.2-1.1-3.3l-1.6.6zm-3-31.5c0-1.1 0-2.2.1-3.3l-1.8-.1c0 1.1-.1 2.2-.1 3.3v.2l1.8-.1zm2.4 22.6l-1.7.4c.3 1.2.5 2.3.8 3.4L5 130c-.2-1.2-.5-2.3-.8-3.4zM23 38.8l1.4 1.1c.7-.9 1.5-1.8 2.2-2.7l-1.3-1.1c-.8.9-1.6 1.8-2.3 2.7zm-15.1 105c.5 1.1.9 2.2 1.4 3.2l1.6-.7c-.5-1-.9-2.1-1.4-3.2l-1.6.7zm-.4-73.7l1.2-3.3-1.6-.6-1.2 3.3 1.6.6zm-1.6 5l-1.7-.5c-.3 1.1-.6 2.3-.9 3.4l1.7.4.9-3.3zm-2.1 8.4l-1.7-.4c-.2 1.2-.4 2.3-.6 3.5l1.7.3c.2-1.1.4-2.3.6-3.4zm-1.4 8.6l-1.7-.2c-.1 1.2-.3 2.3-.3 3.5l1.7.1c.1-1.1.2-2.3.3-3.4zm.3 25.9l-1.7.3c.2 1.2.3 2.3.5 3.5l1.7-.3c-.2-1.2-.3-2.3-.5-3.5zm178.6-83.6c-.8-.9-1.6-1.7-2.4-2.6l-1.3 1.2c.8.8 1.6 1.7 2.4 2.5l1.3-1.1zm-12.9-12.1c-.9-.7-1.9-1.4-2.8-2.1l-1 1.4c.9.7 1.9 1.4 2.8 2.1l1-1.4zM145.8 8.7c-1.1-.5-2.2-.9-3.3-1.4l-.6 1.7c1.1.4 2.1.9 3.2 1.3l.7-1.6zm7.9 3.9c-1-.6-2.1-1.1-3.1-1.6l-.8 1.6c1 .5 2.1 1.1 3.1 1.6l.8-1.6zm7.6 4.6c-1-.7-2-1.3-3-1.9l-.9 1.5c1 .6 2 1.2 2.9 1.9l1-1.5zm35 38.9c-.5-1-1.1-2.1-1.7-3.1l-1.5.9c.6 1 1.1 2 1.7 3l1.5-.8zm9 33.7l1.7-.2c-.2-1.2-.3-2.3-.5-3.5l-1.7.3c.1 1.1.3 2.2.5 3.4zm.8 8.6l1.7-.1c-.1-1.2-.1-2.4-.2-3.5l-1.7.2c.1 1.1.1 2.2.2 3.4zm-6-34.3c-.5-1.1-.9-2.2-1.4-3.2l-1.6.7c.5 1 .9 2.1 1.4 3.2l1.6-.7zm3 8.2c-.4-1.1-.7-2.2-1.1-3.3l-1.6.6c.4 1.1.8 2.2 1.1 3.3l1.6-.6zm.6 8.9l1.7-.4c-.3-1.2-.5-2.3-.8-3.4l-1.7.4c.3 1.2.6 2.3.8 3.4zM85.6 3.4l-.3-1.7c-1.2.2-2.3.4-3.5.7l.4 1.7c1.1-.3 2.2-.5 3.4-.7zm-8.5 1.9l-.5-1.7c-1.1.3-2.3.6-3.4 1l.5 1.7c1.2-.4 2.3-.7 3.4-1zm-8.2 2.6l-.6-1.6c-1.1.4-2.2.8-3.3 1.3l.7 1.6c1-.4 2.1-.9 3.2-1.3zm-23.1 12l-1-1.4c-1 .7-1.9 1.4-2.9 2.1l1 1.4c1.1-.8 2-1.5 2.9-2.1zm15.1-8.6l-.7-1.6c-1.1.5-2.1 1-3.2 1.5l.8 1.6c1-.5 2-1 3.1-1.5zm-7.7 4l-.9-1.5-3 1.8.9 1.5c1-.7 2-1.3 3-1.8zm58.4-15c-1.2-.1-2.3-.2-3.5-.2l-.1 1.7c1.2 0 2.3.1 3.5.2l.1-1.7zM94.2 2.2L94 .5c-1.2.1-2.3.2-3.5.4l.2 1.7c1.2-.2 2.3-.3 3.5-.4zm26.2-.9c-1.2-.2-2.3-.3-3.5-.5l-.2 1.7c1.2.1 2.3.3 3.4.5l.3-1.7zM129 3c-1.1-.3-2.3-.5-3.4-.8l-.4 1.8c1.1.2 2.3.5 3.4.8L129 3zm-26.2-1.2V0c-1.2 0-2.4 0-3.5.1l.1 1.7h3.4zm34.7 3.7c-1.1-.4-2.2-.7-3.4-1.1l-.5 1.7c1.1.3 2.2.7 3.3 1.1l.6-1.7zM54.1 195.3c1 .6 2.1 1.1 3.1 1.6l.8-1.6c-1-.5-2.1-1.1-3.1-1.6l-.8 1.6zm127.2-24.4l1.3 1.1c.8-.9 1.5-1.8 2.3-2.7l-1.4-1.1c-.7.9-1.4 1.8-2.2 2.7zm-5.9 6.3l1.2 1.3 2.5-2.5-1.3-1.2-2.4 2.4zm11.3-13.1l1.4 1c.7-1 1.4-1.9 2-2.9l-1.4-1c-.6 1-1.3 2-2 2.9zm-15.4-137c.9.8 1.7 1.5 2.6 2.3l1.2-1.3c-.9-.8-1.7-1.6-2.6-2.4l-1.2 1.4zM168.9 183l1.1 1.4c.9-.7 1.8-1.5 2.7-2.3l-1.2-1.3c-.8.7-1.7 1.5-2.6 2.2zM147 196.8l.7 1.6c1.1-.5 2.1-1 3.2-1.5l-.8-1.6c-1 .5-2.1 1-3.1 1.5zm15-8.6l1 1.4c1-.7 1.9-1.4 2.9-2.1l-1-1.4c-1 .8-2 1.5-2.9 2.1zm28-142.7l-1.4 1c.7 1 1.3 1.9 1.9 2.9l1.5-.9c-.7-1.1-1.3-2-2-3zm-35.3 147.3l.9 1.5 3-1.8-.9-1.5c-1 .7-2 1.3-3 1.8zm50.8-76.7l1.7.2c.1-1.2.3-2.3.4-3.5l-1.7-.1c-.1 1.1-.2 2.3-.4 3.4zM26.6 173.4c.8.9 1.6 1.7 2.4 2.6l1.3-1.2c-.8-.8-1.6-1.7-2.4-2.5l-1.3 1.1zM208 103.6h-1.8v.4c0 1.2 0 2.3-.1 3.5l1.8.1c0-1.2.1-2.3.1-3.5v-.5zm-3.8 21.1l1.7.4c.2-1.1.5-2.3.7-3.5l-1.7-.3c-.3 1.1-.5 2.3-.7 3.4zm-8.5 24.6l1.6.8c.5-1.1 1-2.1 1.5-3.2l-1.6-.7c-.5 1-1 2-1.5 3.1zm3.5-8l1.6.6 1.2-3.3-1.7-.6c-.2 1.1-.6 2.2-1.1 3.3zm2.9-8.2l1.7.5c.3-1.1.6-2.3.9-3.4l-1.7-.4-.9 3.3zm-10.6 23.8l1.5.9c.6-1 1.2-2 1.8-3.1l-1.5-.9c-.6 1.1-1.2 2.1-1.8 3.1zm-95.3 50.8c1.2.1 2.3.2 3.5.2l.1-1.7c-1.2 0-2.3-.1-3.5-.2l-.1 1.7zm-8.8-1c1.2.2 2.3.4 3.5.5l.2-1.7c-1.2-.1-2.3-.3-3.4-.5l-.3 1.7zm17.6-.5v1.8c1.2 0 2.4 0 3.5-.1l-.1-1.7H105zm17.2-1.6l.3 1.7c1.2-.2 2.3-.4 3.5-.7l-.4-1.7c-1.1.3-2.2.5-3.4.7zm-8.6 1.2l.2 1.7c1.2-.1 2.3-.2 3.5-.4l-.2-1.7c-1.2.2-2.3.3-3.5.4zm-34.8-.9c1.1.3 2.3.5 3.4.8l.4-1.7c-1.1-.2-2.3-.5-3.4-.8l-.4 1.7zm-50-172.7l1.3 1.2c.8-.8 1.6-1.7 2.4-2.5l-1.2-1.3c-.9.9-1.7 1.7-2.5 2.6zm3.9 147.6c.9.8 1.7 1.6 2.6 2.4l1.2-1.3c-.9-.8-1.7-1.5-2.6-2.3l-1.2 1.2zm6.7 5.7c.9.7 1.9 1.4 2.8 2.1l1-1.4c-.9-.7-1.8-1.4-2.8-2.1l-1 1.4zm30.9 16.9c1.1.4 2.2.7 3.4 1.1l.5-1.7c-1.1-.3-2.2-.7-3.3-1.1l-.6 1.7zm-23.7-11.7c1 .7 2 1.3 3 1.9l.9-1.5c-1-.6-2-1.2-2.9-1.9l-1 1.5zm92.4 9.4l.6 1.6c1.1-.4 2.2-.8 3.3-1.3l-.7-1.6c-1.1.5-2.2.9-3.2 1.3zm-8.3 2.6l.5 1.7c1.1-.3 2.3-.6 3.4-1l-.5-1.7c-1.2.4-2.3.7-3.4 1zM6.6 64.1C5.5 63 4.9 61.6 4.9 60c0-1.5.6-3 1.7-4.1s2.5-1.7 4.1-1.7c3.2 0 5.7 2.6 5.8 5.7 0 3.2-2.6 5.8-5.7 5.8-1.7.1-3.1-.5-4.2-1.6zm.1-4.1c0 1.1.4 2.1 1.2 2.8.8.8 1.8 1.2 2.8 1.2 2.2 0 4-1.8 4-4 0-1.1-.4-2.1-1.2-2.8-.8-.8-1.8-1.2-2.8-1.2-1.1 0-2.1.4-2.8 1.2-.8.8-1.2 1.8-1.2 2.8zM185 46c-3.2 0-5.8-2.6-5.8-5.7 0-3.2 2.6-5.8 5.7-5.8 3.2 0 5.7 2.6 5.8 5.7.1 3.2-2.5 5.8-5.7 5.8zm4-5.7c0-2.2-1.8-4-4-4s-4 1.8-4 4 1.8 4 4 4c1.1 0 2.1-.4 2.8-1.2.8-.8 1.2-1.8 1.2-2.8zM68.1 194.9c1.1 1.1 1.7 2.5 1.7 4.1 0 3.2-2.6 5.8-5.7 5.8-3.2 0-5.7-2.6-5.8-5.7 0-1.5.6-3 1.7-4.1 1.1-1.1 2.5-1.7 4.1-1.7 1.5-.1 2.9.5 4 1.6zm0 4c0-1.1-.4-2.1-1.2-2.8-.8-.8-1.8-1.2-2.8-1.2-1.1 0-2.1.4-2.8 1.2-.8.8-1.2 1.8-1.2 2.8 0 1.1.4 2.1 1.2 2.8.8.8 1.8 1.2 2.8 1.2 1.1 0 2.1-.4 2.8-1.2s1.2-1.7 1.2-2.8zm25.7-73.6h23.6v-3.5H93.8v3.5zm-23.4 2.3h12.2c2.3 0 4.2-1.9 4.2-4.2v-5.9l-1.8 1.8v4.2c0 1.3-1.1 2.4-2.4 2.4H70.4c-1.3 0-2.4-1.1-2.4-2.4v-12.2c0-1.3 1.1-2.4 2.4-2.4h12.2c.8 0 1.5.4 2 1l1.2-1.2c-.8-.9-1.9-1.5-3.2-1.5H70.4c-2.3 0-4.2 1.9-4.2 4.2v12.2c0 2.1 1.9 4 4.2 4zm7.2-8.4l-5.7-5.8-2.5 2.4 8.2 8.4 16-16-2.5-2.5-13.5 13.5zm45.7-8.1H93.8v3.5h29.5v-3.5zm3.5 3.5h14.8v-3.5h-14.8v3.5zm-33 42h23.6v-3.5H93.8v3.5zm-23.4 2.3h12.2c2.3 0 4.2-1.9 4.2-4.2v-5.9l-1.8 1.8v4.2c0 1.3-1.1 2.4-2.4 2.4H70.4c-1.3 0-2.4-1.1-2.4-2.4v-12.2c0-1.3 1.1-2.4 2.4-2.4h12.2c.8 0 1.5.4 2 1l1.2-1.2c-.8-.9-1.9-1.5-3.2-1.5H70.4c-2.3 0-4.2 1.9-4.2 4.2v12.2c0 2.1 1.9 4 4.2 4zm1.5-14.2l-2.5 2.4 8.2 8.4 16-16-2.5-2.5-13.5 13.5-5.7-5.8zm40.9 1.2h28.8v-3.5h-28.8v3.5zm-19 0h15.5v-3.5H93.8v3.5zm5-59H66.2V54.3h32.5v32.6h.1zM93 85.1c-.4-2.4-1.1-4.3-2.1-5.5-.9-1.1-1.9-1.3-2.9-1.5-.3-.1-.6-.1-.9-.2-2-.6-3.2-1.8-3.2-3.3 0-.8 0-1.7.6-2.1 1.8-1.2 2.7-3 2.8-5.9.1-2.1-.5-4-1.6-5.1-.8-.8-1.9-1.3-3.1-1.2-1.3 0-2.4.4-3.2 1.2-1.1 1.1-1.7 3-1.6 5.1.1 2.8 1 4.7 2.8 5.9.6.4.7 1.3.7 2.1 0 1.5-1.2 2.7-3.2 3.3-.3.1-.6.1-.9.2-1 .2-2 .4-2.9 1.5-1 1.2-1.7 3.1-2.1 5.5H93zm4-29H68v29.1h2.3v-.1c.5-2.8 1.3-5 2.5-6.5 1.3-1.6 2.8-1.9 4-2.1.3-.1.5-.1.8-.2 1.2-.3 1.9-.9 1.9-1.6v-.8c-2.1-1.4-3.2-3.8-3.4-7.1-.1-2.6.6-4.9 2.1-6.4 1.1-1.2 2.6-1.8 4.4-1.8 1.7 0 3.3.6 4.4 1.8 1.4 1.5 2.2 3.8 2.1 6.4-.1 3.3-1.2 5.7-3.4 7.1v.7c0 .7.7 1.3 1.9 1.6.2.1.5.1.8.2 1.1.2 2.7.5 4 2.1 1.2 1.5 2.1 3.7 2.5 6.5v.1H97v-29zm44.3 6.6h-35.1v3.5h35.1v-3.5zm-8.8 10.5h-26.4v3.5h26.4v-3.5z"/>
</svg>
