<svg xmlns="http://www.w3.org/2000/svg" width="118" height="117">
    <path d="M19.4 26.6v-1.3c1.8 0 2.7 1.2 3.5 2.2.8 1 1.3 1.7 2.4 1.7s1.6-.6 2.4-1.7c.8-1 1.7-2.2 3.5-2.2s2.7 1.2 3.5 2.2c.8 1 1.3 1.7 2.4 1.7 1.1 0 1.6-.6 2.4-1.7.8-1 1.7-2.2 3.5-2.2s2.7 1.2 3.5 2.2c.8 1 1.3 1.7 2.4 1.7 1.1 0 1.6-.6 2.4-1.7.8-1 1.7-2.2 3.5-2.2s2.7 1.2 3.5 2.2c.8 1 1.3 1.7 2.4 1.7v1.3c-1.8 0-2.7-1.2-3.5-2.2-.8-1-1.3-1.7-2.4-1.7-1.1 0-1.6.6-2.4 1.7-.8 1-1.7 2.2-3.5 2.2s-2.7-1.2-3.5-2.2c-.8-1-1.3-1.7-2.4-1.7-1.1 0-1.6.6-2.4 1.7-.8 1-1.7 2.2-3.5 2.2s-2.7-1.2-3.5-2.2c-.8-1-1.3-1.7-2.4-1.7-1.1 0-1.6.6-2.4 1.7-.8 1-1.7 2.2-3.5 2.2s-2.7-1.2-3.5-2.2c-.8-1-1.3-1.7-2.4-1.7zm92.9 71l4.8 15.6-15.9-3.6c-6.5 4.7-14.5 7.4-23.2 7.4-21.1 0-38.4-16.3-39.9-37-7.9-.4-15.2-3-21.3-7.4L.9 76.3l4.8-15.6C2.1 54.6 0 47.6 0 40 0 17.9 17.9 0 40 0c21.1 0 38.4 16.3 39.9 37 21.2 1 38.1 18.5 38.1 40 0 7.5-2.1 14.6-5.7 20.6zM83.2 57.2v-4H72.9v4.1h11.3c-.3 0-.7-.1-1-.1zm-19 1.5v36.6H92V58.7H64.2zm11.3-6.9c1.2-3.7 1.9-7.6 1.9-11.8v-.5c-20.4.4-36.8 17-36.8 37.5v.5c8.3-.1 16-3 22.2-7.7V57.3h8.8v-5.5h3.9zM38 77.4V77c0-8.7 2.8-16.8 7.5-23.3l-.1-.1c-.8-1-1.3-1.7-2.4-1.7-1.1 0-1.6.6-2.4 1.7-.8 1-1.7 2.2-3.5 2.2s-2.7-1.2-3.5-2.2c-.8-1-1.3-1.7-2.4-1.7-1.1 0-1.6.6-2.4 1.7-.8 1-1.7 2.2-3.5 2.2s-2.7-1.2-3.5-2.2c-.8-1-1.3-1.7-2.4-1.7v-1.3c1.8 0 2.7 1.2 3.5 2.2.8 1 1.3 1.7 2.4 1.7s1.6-.6 2.4-1.7c.8-1 1.7-2.2 3.5-2.2s2.7 1.2 3.5 2.2c.8 1 1.3 1.7 2.4 1.7 1.1 0 1.6-.6 2.4-1.7.8-1 1.7-2.2 3.5-2.2 1.7 0 2.6 1.1 3.3 2 3.2-4.2 7.3-7.8 12-10.4-.4-.4-.8-.8-1.1-1.2-.8-1-1.3-1.7-2.4-1.7-1.1 0-1.6.6-2.4 1.7-.8 1-1.7 2.2-3.5 2.2S46.2 42 45.4 41c-.8-1-1.3-1.7-2.4-1.7-1.1 0-1.6.6-2.4 1.7-.8 1-1.7 2.2-3.5 2.2S34.4 42 33.6 41c-.8-1-1.3-1.7-2.4-1.7-1.1 0-1.6.6-2.4 1.7-.8 1-1.7 2.2-3.5 2.2S22.6 42 21.8 41c-.8-1-1.3-1.7-2.4-1.7V38c1.8 0 2.7 1.2 3.5 2.2.8 1 1.3 1.7 2.4 1.7s1.6-.6 2.4-1.7c.8-1 1.7-2.2 3.5-2.2s2.7 1.2 3.5 2.2c.8 1 1.3 1.7 2.4 1.7 1.1 0 1.6-.6 2.4-1.7.8-1 1.7-2.2 3.5-2.2s2.7 1.2 3.5 2.2c.8 1 1.3 1.7 2.4 1.7 1.1 0 1.6-.6 2.4-1.7.8-1 1.7-2.2 3.5-2.2s2.7 1.2 3.5 2.2c.5.6.8 1.1 1.3 1.4 5.3-2.8 11.4-4.4 17.8-4.5C75.7 17.8 59.6 2.6 40 2.6 19.4 2.6 2.6 19.4 2.6 40c0 6.8 1.9 13.5 5.4 19.3.4.6.5 1.4.3 2.1L4.7 72.7l11.5-2.6c.2 0 .4-.1.6-.1.5 0 1.1.2 1.5.5 5.8 4.2 12.6 6.5 19.7 6.9zm71.8 21c-.2-.7-.1-1.5.3-2.1 3.5-5.8 5.4-12.5 5.4-19.3 0-20-15.7-36.3-35.4-37.4v.4c0 4.1-.6 8-1.8 11.8h6.4v5.5h8.8v38h3.4v2.8H59.4v-2.8h3.4V72.9c-6.3 4.4-13.9 7-22.1 7.1 1.6 19.2 17.7 34.4 37.3 34.4 7.8 0 15.3-2.4 21.7-6.9.4-.3 1-.5 1.5-.5.2 0 .4 0 .6.1l11.5 2.6-3.5-11.3zM79.8 63h-3.4v6.7h3.4V63zm-7.7 0h-3.4v6.7h3.4V63zm15.3 0H84v6.7h3.4V63zm-7.6 10.7h-3.4v6.7h3.4v-6.7zm-7.7 0h-3.4v6.7h3.4v-6.7zm15.3 0H84v6.7h3.4v-6.7zm-7.6 10.7h-3.4V91h3.4v-6.6zm-7.7 0h-3.4V91h3.4v-6.6zm15.3 0H84V91h3.4v-6.6z" fill="#b6d806"/>
</svg>
