<svg xmlns="http://www.w3.org/2000/svg" width="105" height="72.2">
    <path d="M53.3 20.1h-.2c-18.8 0-36.1 9.2-46.3 24.7-.1.2-.2.4-.2.6v1.7c0 .2.1.4.2.6C17 63 34.3 72.2 53.1 72.2h.2c18.7-.1 35.8-9.3 45.8-24.7.1-.2.2-.4.2-.5v-1.7c0-.2-.1-.4-.2-.5-10-15.4-27.1-24.7-45.8-24.7zm-.4 50c-13.2 0-24-10.8-24-24s10.8-24 24-24 24 10.8 24 24-10.7 24-24 24zM8.6 46.6v-1.1c8.1-12.1 20.7-20.2 35-22.7-9.2 3.7-15.7 12.7-15.7 23.2s6.5 19.5 15.7 23.2c-14.2-2.3-26.9-10.4-35-22.6zm88.6.1c-8 12.2-20.8 20.4-35.2 22.8 9.4-3.7 16-12.8 16-23.4 0-10.6-6.6-19.6-15.9-23.3 14.4 2.4 27.2 10.5 35.2 22.8v1.1zm-37.5-4.9c0-3.7-3.1-6.8-6.8-6.8-3.7 0-6.8 3.1-6.8 6.8 0 2.1 1 4.1 2.6 5.3l-2.5 10.1h13.5l-2.5-10.1c1.6-1.3 2.5-3.2 2.5-5.3zm-1.3 14.5H47.5l2.4-9.5-.3-.2c-1.5-1.1-2.4-2.9-2.4-4.7 0-3.2 2.6-5.8 5.8-5.8 3.2 0 5.8 2.6 5.8 5.8 0 1.9-.9 3.7-2.4 4.7l-.4.1 2.4 9.6zm-4.9-42.1h-1V8.3h1v5.9zm0-6.8h-1V0h1v7.4zm22.6 10.9l-.9-.3 1.9-5.6.9.3-1.9 5.6zm2.3-6.4l-.9-.3 2.4-6.9.9.3-2.4 6.9zm20.7 12.4l.8.6-3.7 4.6-.8-.6 3.7-4.6zm5.9-5.8l-4.6 5.8-.8-.6 4.6-5.8.8.6zm-78.1-5.8l.9-.3 1.9 5.6-.9.3-1.9-5.6zm-.3-.8L24.2 5l.9-.3 2.4 6.9-.9.3zM5.4 23.6l-.8.6L0 18.5l.8-.6 4.6 5.7zm3.4 6L5.1 25l.8-.6L9.6 29l-.8.6z" fill="#b5d334"/>
</svg>
