<svg xmlns="http://www.w3.org/2000/svg" width="22" height="22">
    <path d="M20.5 5.5C21.5 7.2 22 9 22 11s-.5 3.8-1.5 5.5c-1 1.7-2.3 3-4 4-1.7 1-3.5 1.5-5.5 1.5s-3.8-.5-5.5-1.5c-1.7-1-3-2.3-4-4C.5 14.8 0 13 0 11s.5-3.8 1.5-5.5c1-1.7 2.3-3 4-4C7.2.5 9 0 11 0s3.8.5 5.5 1.5c1.7 1 3 2.3 4 4zm-5.8 12.4v-2.3c0-.1 0-.2-.1-.3-.1-.1-.2-.1-.3-.1h-1.4V7.8c0-.1 0-.2-.1-.3-.1-.1-.2-.1-.3-.1H7.8c-.1 0-.2 0-.3.1-.1 0-.2.2-.2.3v2.3c0 .1 0 .2.1.3.1.1.2.1.3.1h1.4v4.6H7.8c-.1 0-.2 0-.3.1-.1.1-.1.2-.1.3v2.3c0 .1 0 .2.1.3.1.1.2.1.3.1h6.4c.1 0 .2 0 .3-.1.1 0 .2-.1.2-.2zM12.8 5V2.7c0-.1 0-.2-.1-.3-.1-.1-.2-.1-.3-.1H9.6c-.1 0-.2 0-.3.1-.1.1-.1.2-.1.3V5c0 .1 0 .2.1.3.1.1.2.1.3.1h2.7c.1 0 .2 0 .3-.1.2 0 .2-.1.2-.3z"/>
</svg>
