<svg xmlns="http://www.w3.org/2000/svg" width="210" height="217">
    <path fill="#B6D806" d="M69 15.5c1.5 0 3-.6 4-1.7s1.7-2.5 1.7-4c0-3.1-2.6-5.7-5.7-5.7-3.2 0-5.7 2.6-5.7 5.7 0 1.5.6 3 1.7 4 1.1 1.1 2.5 1.7 4 1.7zM66.2 7C67 6.3 68 5.8 69 5.8c1.1 0 2.1.4 2.8 1.2.8.8 1.2 1.7 1.2 2.8 0 1.1-.4 2.1-1.2 2.8-.8.8-1.7 1.2-2.8 1.2-1.1 0-2.1-.4-2.8-1.2-.8-.8-1.2-1.7-1.2-2.8 0-1 .5-2 1.2-2.8zm-12 170c0-1.5-.6-3-1.7-4-1.1-1.1-2.5-1.7-4-1.7-3.2 0-5.7 2.6-5.7 5.7 0 1.5.6 3 1.7 4 1.1 1.1 2.5 1.7 4 1.7 3.1.1 5.7-2.5 5.7-5.7zm-1.8 0c0 2.2-1.8 4-4 4-1.1 0-2.1-.4-2.8-1.2-.8-.8-1.2-1.7-1.2-2.8 0-2.2 1.8-4 4-4 1.1 0 2.1.4 2.8 1.2.8.8 1.2 1.8 1.2 2.8zm137.7-24.4c-3.2 0-5.7 2.6-5.7 5.7 0 1.5.6 3 1.7 4 1.1 1.1 2.5 1.7 4 1.7 3.2 0 5.7-2.6 5.7-5.7 0-1.5-.6-3-1.7-4-1.1-1.1-2.5-1.7-4-1.7zm0 9.7c-1.1 0-2.1-.4-2.8-1.2-.8-.8-1.2-1.7-1.2-2.8 0-1.1.4-2.1 1.2-2.8.8-.8 1.7-1.2 2.8-1.2 1.1 0 2.1.4 2.8 1.2.8.8 1.2 1.7 1.2 2.8-.1 2.2-1.8 4-4 4zM61.4 52.2c3.2-3.2 6.7-6.2 10.4-8.7l1 1.4c-3.7 2.5-7.1 5.3-10.1 8.5l-1.3-1.2zm-7.9 13l-1.5-.9c2.4-3.9 5.1-7.5 8.2-10.8l1.3 1.2c-3 3.2-5.7 6.7-8 10.5zm19.7-22.7C77 40 81.1 38 85.3 36.3l.6 1.6c-4.1 1.6-8.1 3.6-11.8 6l-.9-1.4zm14.3-5.1l-.6-1.6c4.3-1.5 8.7-2.7 13.2-3.3l.3 1.7c-4.4.6-8.7 1.7-12.9 3.2zm14.3-5.2c4.5-.6 9.1-.7 13.6-.3l-.1 1.7c-4.4-.3-8.9-.2-13.2.3l-.3-1.7zM117 32l-.2 1.7c1.6.2 3.2.4 4.7.7v52.9h53.8c.2.8.3 1.6.4 2.5l1.7-.3c-.1-.7-.2-1.5-.4-2.2h30.3c.1.5.1 1 .2 1.5l1.7-.2c0-.4-.1-.9-.2-1.3h.3V24.5h-88v8.1c-1.2-.2-2.7-.5-4.3-.6zm8.1-4h81v8.6h-81V28zm0 10.3h81v45.5h-81V38.3zm41.9 96l1.5.9c-2.4 3.9-5.1 7.5-8.2 10.9l-1.3-1.2c3-3.2 5.7-6.8 8-10.6zM46.1 123.2l1.6-.6c-.3-.7-.5-1.4-.7-2.1h.1c18.9-.1 36.1-9.4 46.1-24.9.2-.3.3-.6.3-.9V93c0-.3-.1-.7-.3-.9-9-14.2-24.1-23.1-41-24.7.1-.3.3-.5.4-.8l-1.5-.9c-.3.5-.6 1-.8 1.5-1-.1-2.1-.1-3.1-.1H47c-12.1 0-23.6 3.8-33 10.6l-1-.2-.3 1.2C7.9 82.4 3.7 86.9.3 92c-.2.3-.3.7-.3 1v1.6c0 .3.1.7.3 1 10 15.1 26.6 24.3 44.9 24.8.3 1 .6 1.9.9 2.8zm.9-52.6h.2c1.7 0 3.3.1 4.9.3 10.4 2.4 18.2 11.8 18.2 22.9 0 11.1-7.8 20.5-18.2 22.9-1.6.2-3.3.3-4.9.3H47c-1.9 0-3.8-.1-5.6-.3-10.3-2.5-18.1-11.8-18.1-22.9 0-11.1 7.7-20.4 18.1-22.9 1.8-.2 3.7-.3 5.6-.3zm43.2 22.9v.6c-7.1 10.7-17.9 18.2-30.2 21.3 7.3-4.4 12.2-12.5 12.2-21.6 0-9.1-4.9-17.2-12.2-21.6 12.3 3.1 23.1 10.6 30.2 21.3zm-86.7.6v-.6c7.1-10.6 17.8-18 30-21.2-7.2 4.5-12 12.4-12 21.5s4.8 17 12 21.5c-12.2-3.2-22.9-10.6-30-21.2zm173 10.5c.1-1.6.2-3.1.2-4.7 0-2.8-.2-5.7-.5-8.5l1.7-.2c.4 2.9.6 5.8.6 8.7 0 1.6-.1 3.2-.2 4.8l-1.8-.1zm-3.3 16.2l1.7.6c-1.4 4.3-3.3 8.4-5.6 12.4l-1.5-.9c2.2-3.8 4-7.9 5.4-12.1zm4.9-14.4c-.4 4.5-1.3 9-2.7 13.3l-1.7-.5c1.3-4.2 2.2-8.6 2.6-13l1.8.2zm-29.4 49.7l-1-1.4c3.6-2.5 7-5.4 10.1-8.5l1.3 1.2c-3.1 3.2-6.6 6.1-10.4 8.7zm-74 1.9c-3.9-2.4-7.5-5.1-10.8-8.2l1.2-1.3c3.2 3 6.8 5.7 10.6 8l-1 1.5zm-12.1-9.3c-3.2-3.2-6.2-6.7-8.7-10.4l1.4-1c2.5 3.6 5.4 7.1 8.5 10.1l-1.2 1.3zm-14.2-24.6c1.6 4.1 3.6 8.1 6 11.8l-1.5.9c-2.5-3.8-4.5-7.9-6.2-12.1l1.7-.6zM30.1 43.2l-1.4-1c.7-.9 1.3-1.8 2-2.7l1.4 1c-.7.9-1.4 1.8-2 2.7zm-4.5 7l-1.5-.9c.6-1 1.2-1.9 1.8-2.9l1.5.9c-.7 1-1.2 1.9-1.8 2.9zm27.9-30.4l-1-1.4c.9-.7 1.9-1.3 2.8-1.9l1 1.5c-.9.5-1.8 1.1-2.8 1.8zM21.7 57.6l-1.6-.7 1.5-3 1.5.8c-.4.9-.9 1.9-1.4 2.9zM47 24.8l-1.1-1.3c.9-.7 1.7-1.4 2.6-2.1l1.1 1.4c-.9.6-1.8 1.3-2.6 2zM35.2 36.6l-1.3-1.1c.7-.9 1.5-1.7 2.2-2.6l1.3 1.2c-.8.8-1.5 1.7-2.2 2.5zm5.6-6.1l-1.2-1.2 2.4-2.4 1.2 1.3c-.8.7-1.6 1.5-2.4 2.3zm157.8 111.7l1.6.7-1.5 3-1.5-.8c.5-.9 1-1.9 1.4-2.9zm5.9-15.6l1.7.5c-.3 1.1-.6 2.2-1 3.2l-1.7-.5c.4-1 .7-2.1 1-3.2zm-2.6 7.9l1.6.6c-.4 1.1-.8 2.1-1.3 3.1l-1.6-.7c.5-.9.9-1.9 1.3-3zM119.7 2.2l-3.3-.3.1-1.7c1.1.1 2.3.2 3.4.3l-.2 1.7zm86.8 116.3l1.7.3c-.2 1.1-.5 2.2-.7 3.3l-1.7-.4c.2-1 .5-2.1.7-3.2zm3.5-16.4c0 1.1-.1 2.3-.1 3.4l-1.7-.1c.1-1.1.1-2.2.1-3.3h1.7zm-2.3 8.2l1.7.2c-.1 1.1-.3 2.2-.4 3.4l-1.7-.2c.2-1.2.3-2.3.4-3.4zM108.1 1.8V.1h3.4v1.7h-1.2c-.8-.1-1.5-.1-2.2 0zM83.5 5.5L83 3.8l3.3-.9.4 1.7c-1.1.3-2.2.6-3.2.9zm-7.9 2.6L75 6.5c1.1-.4 2.1-.8 3.2-1.1l.5 1.6c-1.1.3-2.1.7-3.1 1.1zM18.4 65.2l-1.6-.6c.4-1.1.8-2.1 1.2-3.1l1.6.7c-.4.9-.8 2-1.2 3zM99.8 2.3L99.6.6c1.1-.1 2.2-.2 3.4-.3l.1 1.7-3.3.3zm-8.3 1.2l-.3-1.7 3.3-.6.3 1.8c-1.1.1-2.2.3-3.3.5zM60.6 15.2l-.9-1.5c1-.6 2-1.1 3-1.7l.8 1.5c-1 .6-2 1.2-2.9 1.7zm-6.4 165.2c.9.6 1.8 1.2 2.8 1.9l-.9 1.5c-.9-.6-1.9-1.2-2.8-1.9l.9-1.5zm119.1-5.5l1.1 1.3c-.9.7-1.7 1.4-2.6 2.1l-1.1-1.4c.9-.6 1.8-1.3 2.6-2zM15.8 73.1l-1.7-.5c.3-1.1.6-2.2 1-3.2l1.7.5c-.4 1.1-.7 2.1-1 3.2zM144 7.8c-1-.4-2.1-.7-3.1-1.1l.5-1.7c1.1.4 2.1.7 3.2 1.1l-.6 1.7zm-7.9-2.6c-1.1-.3-2.1-.6-3.2-.8l.4-1.7c1.1.3 2.2.5 3.3.8l-.5 1.7zM166.7 180l1 1.4c-.9.7-1.9 1.3-2.8 1.9l-1-1.5c1-.6 1.9-1.2 2.8-1.8zm-98.1 8.6c1 .5 1.9.9 2.9 1.3l-.6 1.6h-.1c-1-.4-2-.9-3-1.3l.8-1.6zm83.8-.3l.7 1.6c-1 .5-2 1-3.1 1.4l-.7-1.6c1.1-.4 2.1-.9 3.1-1.4zm-91.2-3.5c1 .6 1.9 1.1 2.9 1.6l-.8 1.5c-1-.5-2-1.1-3-1.6l.9-1.5zm146.9-91.1l1.7-.1c.1 1.1.1 2.3.2 3.4l-1.7.1c-.1-1.2-.1-2.3-.2-3.4zm-48.4 90.8l.9 1.5c-1 .6-2 1.1-3 1.7l-.8-1.5c1-.6 2-1.2 2.9-1.7zm13.2-160.1c-.9-.7-1.7-1.4-2.6-2.1l1.1-1.4 2.7 2.1-1.2 1.4zm-6.6-5c-.9-.6-1.8-1.2-2.8-1.9l.9-1.5c1 .6 1.9 1.2 2.8 1.9l-.9 1.5zm-7.1-4.5c-1-.6-1.9-1.1-2.9-1.6l.8-1.5c1 .5 2 1.1 3 1.6l-.9 1.5zm-10.4-5.2l-.2-.1.7-1.6.2.1c1.1.5 2.1.9 3.1 1.4l-.7 1.6c-1-.5-2.1-1-3.1-1.4zm-20.9-6.3c-1.1-.2-2.2-.4-3.3-.5l.3-1.7 3.3.6-.3 1.6zM14.8 122.5l-1.7.4c-.3-1.1-.5-2.2-.7-3.3l1.7-.3c.2 1 .4 2.1.7 3.2zm164.7 46.7l1.2 1.2-2.4 2.4-1.2-1.3c.8-.7 1.6-1.5 2.4-2.3zM16.1 127.3c.3 1.1.6 2.1 1 3.2l-1.7.5c-.4-1.1-.7-2.1-1-3.2l1.7-.5zm-2.9-13l-1.7.3c-.2-1.1-.3-2.2-.4-3.4l1.7-.2c.1 1.1.2 2.2.4 3.3zm171.9 48.8l1.3 1.1c-.7.9-1.5 1.7-2.2 2.6l-1.3-1.2c.8-.8 1.5-1.6 2.2-2.5zm9.6-13.6l1.5.9c-.6 1-1.2 1.9-1.8 2.9l-1.5-.9c.7-1 1.3-1.9 1.8-2.9zm-176-14.3c.4 1 .8 2.1 1.3 3.1l-1.6.7c-.4-1-.9-2.1-1.3-3.1l1.6-.7zm11.9 21.9c.6.9 1.3 1.8 2 2.7l-1.4 1.1c-.7-.9-1.4-1.8-2-2.7l1.4-1.1zm5.1 6.5c.7.8 1.5 1.7 2.2 2.5l-1.3 1.2c-.8-.8-1.5-1.7-2.2-2.5l1.3-1.2zM26 150.1c.6 1 1.2 1.9 1.8 2.8l-1.5.9c-.6-1-1.2-1.9-1.8-2.9l1.5-.8zm-4-7.3l1.5 3-1.5.8-1.5-3 1.5-.8zM43.8 172l-1.2 1.3c-.8-.8-1.7-1.5-2.5-2.3l1.2-1.2c.9.7 1.7 1.5 2.5 2.2zM54 105.3L51.4 95c1.6-1.3 2.5-3.3 2.5-5.5 0-3.9-3.2-7.1-7.2-7.1-3.9 0-7.1 3.2-7.1 7.1 0 2.1.9 4.1 2.5 5.5l-2.6 10.3H54zM43.7 93.9c-1.4-1-2.3-2.7-2.3-4.4 0-3 2.4-5.4 5.4-5.4 3 0 5.4 2.4 5.4 5.4 0 1.8-.9 3.4-2.3 4.4l-.5.3 2.3 9.3h-9.9l2.3-9.3-.4-.3zm100.4 65c1.1-.6 2.2-1.2 3.2-1.9l-.9-1.5-3 1.8c-.4-.7-.7-1.5-1.2-2.2l4.1-7.3-10.7-10.7-7.4 4.1c-2.5-1.4-5.1-2.5-7.9-3.2l-2.4-8.3h-15.2l-2.3 8.3c-2.8.8-5.5 1.9-8 3.3l-7.8-4.3-10.7 10.7 4.3 7.8c-1.4 2.4-2.4 5-3.2 7.8l-8.4 2.4v15.2l8.3 2.4c.7 2.7 1.8 5.2 3.1 7.7l-.7 1.3c-.3-.1-.7-.2-1-.3l-.6 1.6c.2.1.5.2.7.3l-2.7 5 10.7 10.7 7.6-4.2c2.6 1.5 5.3 2.6 8.2 3.5l2.4 8.3h15.2l2.3-8.2c2.8-.8 5.5-1.9 8.1-3.3l7.3 4.1 10.7-10.7-2.7-4.9c.6-.2 1.3-.4 1.9-.7l-.6-1.6c-.7.3-1.4.5-2.2.8l-.4-.7c1.5-2.6 2.7-5.4 3.5-8.3l8.2-2.3v-15.2l-8.1-2.3c-.5-1.9-1.1-3.5-1.7-5zm6.2 19.5l-7.5 2.2-.2 1c-.8 3.2-2.1 6.3-3.9 9.2l-.5.9 3.7 6.6-7 7-6.7-3.7-.9.5c-2.8 1.7-5.8 2.9-9 3.7l-1 .2-2.2 7.6h-9.9l-2.2-7.7-1-.2c-3.2-.8-6.2-2.1-9.1-3.8l-.9-.5-7 3.9-7-7 4-7.2-.5-.9c-1.6-2.7-2.8-5.6-3.5-8.6l-.2-1-7.7-2.2v-9.9l7.8-2.2.2-1c.8-3.1 2-6 3.6-8.7l.5-.9-4-7.2 7-7 7.2 4 .9-.5c2.8-1.7 5.8-2.9 8.9-3.7l1-.2 2.2-7.7h9.9l2.2 7.7 1 .2c3.1.8 6.1 2 8.8 3.6l.9.5 6.8-3.8 7 7-3.8 6.8.5.9c1.7 2.9 3 6 3.9 9.3l.2 1 7.5 2.1v9.7zm-54.6-5c0 8 6.5 14.5 14.5 14.5s14.5-6.5 14.5-14.5-6.5-14.5-14.5-14.5c-8-.1-14.5 6.5-14.5 14.5zm14.5-11.1c6.1 0 11 4.9 11 11s-5 11-11 11c-6.1 0-11-4.9-11-11 0-6 4.9-11 11-11zm11.3-6.5c-3.1-2-6.7-3.2-10.4-3.3l.1-1.7c4 .2 7.9 1.4 11.3 3.6l-1 1.4zm-31.9 21.1l-1.7.3c-.2-1.2-.3-2.5-.3-3.8 0-2.7.5-5.4 1.4-8l1.6.6c-.9 2.4-1.3 4.8-1.3 7.4 0 1.1.1 2.3.3 3.5zm9.7-21.4l-.9-1.5c3.4-2.1 7.3-3.2 11.4-3.3v1.7c-3.8.1-7.4 1.2-10.5 3.1zm-4.2 32.3l-1.3 1.2c-2.8-2.9-4.7-6.5-5.7-10.4l1.7-.4c.9 3.6 2.7 6.9 5.3 9.6zm-3.9-23.1l-1.6-.7c1.7-3.6 4.3-6.8 7.5-9.1l1 1.4c-3 2.1-5.4 5-6.9 8.4zm36.3 20.4l1.4 1c-2.3 3.3-5.3 6-9 7.7l-.8-1.6c3.5-1.6 6.3-4.1 8.4-7.1zm-31.4 3.7c2.7 2.5 6.1 4.2 9.7 5l-.4 1.7c-3.9-.8-7.5-2.7-10.5-5.4l1.2-1.3zm21.9 4l.6 1.6c-2.7 1.1-5.5 1.6-8.4 1.6-1.1 0-2.2-.1-3.3-.2l.3-1.7c1 .1 2 .2 3.1.2 2.6 0 5.2-.6 7.7-1.5zm13.6-26.9c.8 2.4 1.3 4.9 1.3 7.5 0 4-1.1 8-3.1 11.4l-1.5-.9c1.9-3.2 2.8-6.8 2.8-10.5 0-2.4-.4-4.7-1.2-6.9l1.7-.6zm-8.9-9.3l1-1.4c3.2 2.4 5.7 5.6 7.3 9.3l-1.6.7c-1.4-3.4-3.8-6.4-6.7-8.6zm64.4-127.2c-1.6 0-2.9 1.3-2.9 2.9 0 1.6 1.3 2.9 2.9 2.9s2.9-1.3 2.9-2.9c0-1.6-1.3-2.9-2.9-2.9zm0 4c-.6 0-1.1-.5-1.1-1.1s.5-1.1 1.1-1.1 1.1.5 1.1 1.1-.5 1.1-1.1 1.1zm7.2-4c-1.6 0-2.9 1.3-2.9 2.9 0 1.6 1.3 2.9 2.9 2.9s2.9-1.3 2.9-2.9c-.1-1.6-1.4-2.9-2.9-2.9zm0 4c-.6 0-1.1-.5-1.1-1.1s.5-1.1 1.1-1.1 1.1.5 1.1 1.1-.5 1.1-1.1 1.1zm7.1-4c-1.6 0-2.9 1.3-2.9 2.9 0 1.6 1.3 2.9 2.9 2.9 1.6 0 2.9-1.3 2.9-2.9 0-1.6-1.3-2.9-2.9-2.9zm0 4c-.6 0-1.1-.5-1.1-1.1s.5-1.1 1.1-1.1c.6 0 1.1.5 1.1 1.1s-.4 1.1-1.1 1.1zm-58.2 15c-.3-.2-.6-.3-.9-.1-.3.1-.5.4-.5.8v21.7c0 .3.2.6.5.8.1.1.2.1.4.1s.4-.1.6-.2l13.2-10.9c.2-.2.3-.4.3-.7s-.1-.5-.3-.7l-13.3-10.8zm.3 20.6V50.9l10.9 9-10.9 9.1zm35.8-18.4h-5.1c-.5 0-.9.4-.9.9v17c0 .5.4.9.9.9h5.1c.5 0 .9-.4.9-.9v-17c0-.5-.4-.9-.9-.9zm-.8 17h-3.3V52.3h3.3v15.3zm10-17h-5.1c-.5 0-.9.4-.9.9v17c0 .5.4.9.9.9h5.1c.5 0 .9-.4.9-.9v-17c0-.5-.4-.9-.9-.9zm-.9 17h-3.3V52.3h3.3v15.3z"/>
</svg>
