<svg xmlns="http://www.w3.org/2000/svg" width="208" height="213">
    <path fill="#B6D806" d="M50.7 59.8l-1.3-1.1c3-3.6 6.4-7 10.1-9.9l1.1 1.4c-3.7 2.8-7 6-9.9 9.6zM61.9 49c3.7-2.8 7.6-5.3 11.7-7.3l-.8-1.6c-4.2 2.1-8.3 4.6-12 7.5l1.1 1.4zm86.2-.7c-3.7-2.9-7.7-5.5-11.9-7.6l-.8 1.6c4.1 2.1 8 4.6 11.6 7.5l1.1-1.5zm9.9 12.3l1.4-1.1c-3-3.7-6.3-7.1-9.9-10.1l-1.1 1.3c3.4 3 6.7 6.3 9.6 9.9zm-37.2-23.8c4.5 1.1 8.8 2.7 13 4.7l.8-1.6c-4.3-2-8.7-3.6-13.3-4.8l-.5 1.7zm-15.4-2c4.6.1 9.2.6 13.7 1.6l.4-1.7c-4.6-1-9.3-1.6-14.1-1.7v1.8zm-17.2 1.7l-.4-1.7c-4.6 1.1-9.1 2.6-13.4 4.6l.7 1.6c4.3-1.9 8.7-3.4 13.1-4.5zm15.5-1.8v-1.8c-4.7 0-9.5.5-14.1 1.5l.4 1.7c4.4-.9 9-1.3 13.7-1.4zm93.8 115l-1.6-.8c-.5 1-1 2.1-1.6 3.1l1.5.8c.6-1 1.1-2.1 1.7-3.1zM48.4 18.2l-1-1.5c-1 .6-2 1.3-2.9 2l1 1.4c.9-.6 1.9-1.3 2.9-1.9zm-7.1 5l-1.1-1.4c-.9.7-1.8 1.5-2.7 2.2l1.1 1.3c.9-.6 1.8-1.4 2.7-2.1zm14.5-9.4l-.8-1.5c-1 .6-2.1 1.1-3.1 1.7l.9 1.5c1-.6 2-1.2 3-1.7zm-21.1 15l-1.2-1.3c-.9.8-1.7 1.6-2.6 2.4l1.2 1.2c.9-.7 1.7-1.5 2.6-2.3zM63.6 10l-.7-1.6c-1.1.5-2.2.9-3.2 1.4l.7 1.6c1.1-.4 2.2-.9 3.2-1.4zm130 41.1l-1.8-3-1.5.9c.6 1 1.2 2 1.8 2.9l1.5-.8zM17.7 158.9l-1.8-3-1.5.9 1.8 3 1.5-.9zM13.6 56.2l-1.5-.8c-.6 1-1.1 2.1-1.6 3.1l1.6.8c.4-1 1-2.1 1.5-3.1zm15-21.2l-1.3-1.2c-.8.9-1.6 1.7-2.3 2.6l1.3 1.1c.7-.8 1.5-1.7 2.3-2.5zM10.2 149c.5 1.1 1 2.1 1.6 3.2l1.6-.8c-.5-1-1.1-2.1-1.6-3.1l-1.6.7zm187.5-90.1c-.5-1.1-1-2.1-1.6-3.2l-1.6.8c.5 1 1.1 2.1 1.6 3.1l1.6-.7zM23 41.6l-1.4-1.1c-.7.9-1.4 1.9-2.1 2.8l1.4 1c.7-.8 1.4-1.8 2.1-2.7zM71.7 7l-.6-1.7-3.3 1.2.6 1.6c1.1-.4 2.2-.8 3.3-1.1zM18 48.7l-1.5-.9c-.6 1-1.3 2-1.9 3l1.5.9c.6-1 1.3-2 1.9-3zM140.5 6.6l-3.3-1.2-.6 1.7 3.3 1.2.6-1.7zM114.7.5c-1.2-.1-2.3-.2-3.5-.3l-.1 1.8c1.2.1 2.3.2 3.5.3l.1-1.8zm8.8 1.3c-1.2-.2-2.3-.4-3.5-.6l-.3 1.8c1.1.2 2.3.4 3.4.6l.4-1.8zm8.6 2.1c-1.1-.3-2.3-.6-3.4-.9l-.4 1.7c1.1.3 2.3.6 3.4.9l.4-1.7zm44 27.6l1.2-1.2c-.8-.8-1.7-1.6-2.5-2.4l-1.2 1.3c.9.7 1.7 1.5 2.5 2.3zM163.8 19c-1-.7-1.9-1.3-2.9-2l-1 1.5c1 .6 1.9 1.3 2.9 2l1-1.5zm-15.2-8.9c-1.1-.5-2.1-1-3.2-1.5l-.7 1.6c1.1.5 2.1.9 3.2 1.4l.7-1.5zm7.8 4.1c-1-.6-2-1.2-3.1-1.7l-.8 1.5c1 .6 2 1.1 3 1.7l.9-1.5zm26.9 22.6c-.8-.9-1.5-1.8-2.3-2.6l-1.3 1.2c.8.9 1.5 1.7 2.3 2.6l1.3-1.2zM80.1 4.6l-.4-1.7c-1.1.3-2.3.6-3.4.9l.5 1.7c1-.3 2.2-.6 3.3-.9zM5.8 75.5c.3-1.1.7-2.2 1-3.3l-1.7-.5c-.4 1.1-.7 2.2-1 3.4l1.7.4zm187.5 81.9l-1.5-.9c-.6 1-1.2 2-1.8 2.9l1.5.9c.5-.8 1.1-1.8 1.8-2.9zM88.6 2.9l-.3-1.7c-1.2.2-2.3.4-3.5.6l.3 1.7c1.2-.2 2.3-.4 3.5-.6zm100.2 40.8c-.7-1-1.4-1.9-2.1-2.8l-1.4 1.1c.7.9 1.4 1.8 2.1 2.8l1.4-1.1zM105.9 1.8V0h-3.5v1.8c1.2-.1 2.3-.1 3.5 0zm-8.7.2L97.1.3c-1.2.1-2.3.2-3.5.3l.2 1.7c1.1-.1 2.3-.2 3.4-.3zM4.4 80.5l-1.7-.4c-.3 1.1-.5 2.3-.8 3.5l1.7.3c.3-1.1.6-2.2.8-3.4zm199.9 3.8l1.7-.3c-.2-1.2-.5-2.3-.7-3.5l-1.7.4c.3 1.1.5 2.2.7 3.4zm-52.3 110l.8 1.5c1-.6 2.1-1.1 3.1-1.7l-.9-1.5c-.9.6-1.9 1.2-3 1.7zm52-119c-.3-1.1-.7-2.3-1-3.4l-1.7.5c.4 1.1.7 2.2 1 3.3l1.7-.4zm-59.8 122.8l.7 1.6c1.1-.5 2.2-.9 3.2-1.4l-.7-1.6c-1.1.5-2.1.9-3.2 1.4zm-8.1 3l.5 1.7 3.3-1.2-.6-1.6c-1 .4-2.1.8-3.2 1.1zm-16.9 4.1l.3 1.7c1.2-.2 2.3-.4 3.5-.6l-.3-1.7c-1.2.2-2.3.4-3.5.6zm8.5-1.7l.4 1.7c1.2-.3 2.3-.6 3.4-.9l-.5-1.7c-1 .4-2.1.6-3.3.9zm70.4-59.3l1.6.7c.5-1.1.9-2.2 1.3-3.3l-1.6-.6c-.4 1-.9 2.1-1.3 3.2zm7.2-54.4c.2 1.2.3 2.3.4 3.4l1.7-.2c-.1-1.2-.3-2.3-.4-3.5l-.1-.3-1.7.2.1.4zm-.1 29.4l1.7.3c.2-1.2.3-2.3.5-3.5l-1.7-.2c-.2 1.1-.4 2.2-.5 3.4zm.9-8.7l1.7.1c.1-1.2.1-2.3.2-3.5l-1.8-.1c0 1.2-.1 2.4-.1 3.5zm-2.6 17.2l1.7.4c.3-1.1.5-2.3.8-3.5l-1.7-.3c-.3 1.1-.5 2.3-.8 3.4zm-2.4 8.4l1.7.5c.4-1.1.7-2.2 1.1-3.4l-1.7-.5c-.4 1.2-.7 2.3-1.1 3.4zm5.1-34.2h1.8c0-1.2-.1-2.3-.1-3.5l-1.7.1v3.4zm-95.6 104.2l.1 1.7c1.2-.1 2.3-.2 3.5-.3l-.2-1.7c-1.1.1-2.3.2-3.4.3zm-51.4-8.2c1.1.5 2.1 1 3.2 1.5l.7-1.6c-1.1-.5-2.1-.9-3.2-1.4l-.7 1.5zM4 132.5c.3 1.1.7 2.3 1 3.4l1.7-.5c-.4-1.1-.7-2.2-1-3.3l-1.7.4zm47.4 61.3c1 .6 2 1.2 3.1 1.7l.8-1.5c-1-.6-2-1.1-3-1.7l-.9 1.5zM2.7 118.3c-.2-1.1-.3-2.2-.4-3.3l-1.7.2c.1 1.1.3 2.2.4 3.3v.2l1.7-.2v-.2zm6.9 25.2c-.4-1.1-.9-2.1-1.3-3.2l-1.6.6c.4 1.1.9 2.2 1.3 3.3l1.6-.7zm-7.8-37.1H0c0 1.2.1 2.4.1 3.5l1.7-.1v-3.4zm1-17.3l-1.7-.3C.9 90 .8 91.1.6 92.3l1.7.2c.2-1.1.3-2.3.5-3.4zm-.9 8.6l-1.7-.1c-.1 1.2-.2 2.3-.2 3.5h1.8c0-1.1 0-2.2.1-3.4zm1.7 25.9l-1.7.4c.2 1.2.5 2.3.7 3.5l1.7-.4c-.2-1.2-.5-2.3-.7-3.5zm80.7 82.6c1.2.2 2.3.4 3.5.6l.3-1.7c-1.1-.2-2.3-.4-3.4-.6l-.4 1.7zm-17-4.8l3.3 1.2.6-1.7-3.3-1.2-.6 1.7zm8.4 2.8c1.1.3 2.3.6 3.4.9l.4-1.7c-1.1-.3-2.2-.6-3.4-.9l-.4 1.7zm17.4 3.3c1.2.1 2.3.2 3.5.3l.1-1.7c-1.2-.1-2.3-.2-3.5-.3l-.1 1.7zM201.2 67c-.4-1.1-.9-2.2-1.3-3.3l-1.6.7c.4 1.1.9 2.1 1.3 3.2l1.6-.6zm-197 2.1C3.1 68 2.6 66.6 2.5 65c0-3.2 2.6-5.8 5.8-5.8 3.2 0 5.8 2.6 5.8 5.7 0 1.5-.6 3-1.7 4.1-1.1 1.1-2.5 1.7-4.1 1.7-1.5.1-3-.5-4.1-1.6zm.1-4.1c0 1.1.4 2.1 1.2 2.8.7.8 1.7 1.2 2.8 1.2 1.1 0 2.1-.4 2.8-1.2.8-.8 1.2-1.8 1.2-2.8s-.4-2.1-1.2-2.8c-.7-.8-1.7-1.2-2.8-1.2-1.1 0-2.1.4-2.8 1.2-.8.7-1.2 1.7-1.2 2.8zm158.9-41.1c0-3.2 2.6-5.8 5.8-5.8 3.2 0 5.8 2.6 5.8 5.7 0 1.5-.6 3-1.7 4.1-1.1 1.1-2.5 1.7-4.1 1.7-1.5 0-3-.6-4.1-1.7-1.1-1.1-1.7-2.5-1.7-4zm1.8 0c0 1.1.4 2.1 1.2 2.8.8.8 1.8 1.2 2.8 1.2 1.1 0 2.1-.4 2.8-1.2.8-.8 1.2-1.8 1.2-2.8s-.4-2.1-1.2-2.8c-.8-.8-1.8-1.2-2.8-1.2-1.1 0-2.1.4-2.8 1.2-.8.7-1.2 1.7-1.2 2.8zm-55.6 183.3c0 3.2-2.6 5.8-5.7 5.8-1.5 0-3-.6-4.1-1.7-1.1-1.1-1.7-2.5-1.7-4.1 0-3.2 2.6-5.8 5.7-5.8 3.2.1 5.8 2.7 5.8 5.8zm-1.8 0c0-2.2-1.8-4-4-4-1.1 0-2.1.4-2.8 1.2-.8.8-1.2 1.8-1.2 2.8 0 1.1.4 2.1 1.2 2.8.8.8 1.8 1.2 2.8 1.2 2.2 0 4-1.7 4-4zM29.4 71.9h148.5v95.9H29.4V71.9zm1.7 94.1h145V73.6h-145V166zm157.2 8.7h11.2v7c0 4.4-3.8 8-8.4 8h-28l-2.7 1.8-1-1.5 2.5-.3H47.8l-.9 1.4c-.7-.4-1.3-.9-2-1.4H16.1c-4.6 0-8.4-3.6-8.4-8v-7h11.2V66.8c0-2.8 2.3-5.1 5.1-5.1h159.1c2.8 0 5.1 2.3 5.1 5.1v97.9l.1.1c0 .1-.1.1-.1.2v9.7zm-165.9 0h162.3V66.8c0-.9-.7-1.6-1.6-1.6H24c-.9 0-1.6.7-1.6 1.6v107.9zm64.3 3.5v1.1c0 1 1.1 1.9 2.4 1.9h29c1.3 0 2.4-.9 2.4-1.9v-1.1H86.7zm35.6 0v1.1c0 2-1.9 3.6-4.2 3.6h-29c-2.3 0-4.2-1.6-4.2-3.6v-1.1H11.2v3.5c0 2.5 2.2 4.5 4.9 4.5h175c2.7 0 4.9-2 4.9-4.5v-3.5h-73.7zm19-65.3V106h-1.8v5.9l-5.1 3 .9 1.5 6-3.5zm-14.5 24.8v-6.9H125v5.9l-5.1 3 .9 1.5 6-3.5zm21.1-23l14.2 8.2v18.6l-16.1 9.3-14.4-8.3-14.4 8.3-16.1-9.3V123l14.5-8.4V98.1l16.1-9.3 16.1 9.3v16.6zm-28.7 0l12.5 7.2 12.7-7.3v-14.5l-12.6-7.3-12.6 7.3v14.6zm10.7 10.3l-12.6-7.3-12.6 7.3v14.6l12.6 7.3 12.6-7.3V125zm28.8 0l-12.5-7.2-12.7 7.3v14.5l12.6 7.3 12.6-7.3V125zm-9.2 16.2l6-3.5v-6.9h-1.8v5.9l-5.1 3 .9 1.5zM59.8 96.7H45.2v3.5h14.6v-3.5zm3.3 3.5h30.6v-3.5H63.1v3.5zm17 7.2H45.2v3.5h34.9v-3.5zm3.3 3.5h10.3v-3.5H83.4v3.5zm-24.2 10.7h34.5v-3.5H59.2v3.5zm-3.3-3.5H45.2v3.5H56v-3.5zm14.2 10.7h-25v3.5h25v-3.5zm3.4 3.5h20.3v-3.5H73.5v3.5zM61.4 143h32.3v-3.5H61.4v3.5zm-16.2 0h13v-3.5h-13v3.5z"/>
</svg>
