<svg xmlns="http://www.w3.org/2000/svg" width="130" height="138.048">
    <path fill="#B6D806" d="M23.564 63.596l1.051.224a42.812 42.812 0 0 0-.94 8.419l-1.075-.013a44.02 44.02 0 0 1 .964-8.63zm.242-1.06l1.044.252a42.352 42.352 0 0 1 2.797-7.995l-.973-.454a43.332 43.332 0 0 0-2.868 8.197zm0 20.468a43.352 43.352 0 0 0 2.87 8.198l.972-.455a42.374 42.374 0 0 1-2.799-7.994l-1.043.251zm-.241-1.061l1.05-.225a42.913 42.913 0 0 1-.941-8.419l-1.075.014c.037 2.911.362 5.814.966 8.63zm84.199-.298l1.051.223c.599-2.821.919-5.725.95-8.632l-1.074-.012a42.913 42.913 0 0 1-.927 8.421zm-3.017 9.034l.975.453a43.57 43.57 0 0 0 2.854-8.204l-1.044-.249a42.433 42.433 0 0 1-2.785 8zM9.472 102.065a70.78 70.78 0 0 0 1.026 1.903l.938-.526a61.1 61.1 0 0 1-1.009-1.871l-.955.494zM9.853 45.1l-.963-.475a62.88 62.88 0 0 0-.926 1.965l.98.441c.291-.65.595-1.293.909-1.931zM3.439 72.768c0-.673.01-1.343.033-2.012l-1.074-.035a63.27 63.27 0 0 0-.033 2.046v.119h1.074v-.118zM5.34 92.079c.219.69.449 1.374.69 2.054l1.011-.36a62.903 62.903 0 0 1-.678-2.019l-1.023.325zm1.854 5.087c.277.666.564 1.327.861 1.981l.978-.445a65.098 65.098 0 0 1-.847-1.949l-.992.413zm-2.223-10.55l-1.047.237c.159.706.329 1.407.512 2.105l1.039-.272a65.028 65.028 0 0 1-.504-2.07zm7.436-46.193l-.919-.555a63.585 63.585 0 0 0-1.089 1.877l.938.524c.346-.623.703-1.238 1.07-1.846zm18.533 85.556c.602.4 1.211.789 1.827 1.169l.564-.915a61.411 61.411 0 0 1-1.797-1.149l-.594.895zm14.557 7.18c.685.234 1.374.457 2.069.668l.313-1.027a63.395 63.395 0 0 1-2.033-.658l-.349 1.017zm-18.941-10.363c.567.449 1.14.888 1.721 1.318l.64-.863a66.494 66.494 0 0 1-1.693-1.297l-.668.842zm-14.398-16.04a61.9 61.9 0 0 0 1.186 1.811l.888-.604a63.97 63.97 0 0 1-1.165-1.779l-.909.572zm28.285 24.426c.662.292 1.329.573 2.002.842l.401-.997a57.929 57.929 0 0 1-1.968-.829l-.435.984zm-25.208-19.976c.435.576.88 1.144 1.333 1.704l.835-.677a62.83 62.83 0 0 1-1.312-1.676l-.856.649zm3.441 4.175c.483.538.974 1.066 1.474 1.587l.774-.745a61.038 61.038 0 0 1-1.449-1.56l-.799.718zm3.782 3.873c.526.495 1.061.98 1.603 1.458l.709-.807a61.14 61.14 0 0 1-1.576-1.434l-.736.783zm13.121 9.529c.635.348 1.275.684 1.922 1.01l.483-.959a66.47 66.47 0 0 1-1.888-.993l-.517.942zm70.135-106.116a62.682 62.682 0 0 0-1.723-1.316l-.638.866c.573.421 1.137.852 1.695 1.293l.666-.843zm17.126 20.698a65.538 65.538 0 0 0-1.03-1.901l-.936.528c.347.616.685 1.24 1.013 1.869l.953-.496zm-4.773-5.889c.4.585.789 1.178 1.168 1.778l.909-.575a66.234 66.234 0 0 0-1.189-1.808l-.888.605zm-4.458-7.41a63.199 63.199 0 0 0-1.477-1.585l-.772.746c.493.511.976 1.03 1.452 1.557l.797-.718zM101.325 19.49a62.917 62.917 0 0 0-1.829-1.166l-.562.916a65.05 65.05 0 0 1 1.799 1.146l.592-.896zm-4.644-2.794a64.96 64.96 0 0 0-1.923-1.006l-.483.96c.637.319 1.267.649 1.892.989l.514-.943zm32.151 52.636l1.072-.058a64.033 64.033 0 0 0-.152-2.161l-1.07.093c.061.706.111 1.414.15 2.126zM91.813 14.305c-.663-.29-1.33-.57-2.003-.839l-.399.998c.662.264 1.319.539 1.969.825l.433-.984zm36.509 49.728l1.064-.148c-.1-.717-.212-1.431-.336-2.141l-1.058.185c.123.697.233 1.399.33 2.104zm-3.197-15.774a66.039 66.039 0 0 0-.863-1.979l-.978.446c.294.643.577 1.293.851 1.948l.99-.415zm2.24 10.538l1.047-.237a59.26 59.26 0 0 0-.516-2.105l-1.039.275c.18.684.35 1.373.508 2.067zm-.377-5.461a62.607 62.607 0 0 0-.695-2.052l-1.011.361c.238.667.466 1.34.682 2.018l1.024-.327zM49.692 12.213l-.283-1.037a63.52 63.52 0 0 0-2.079.604l.317 1.026a69.597 69.597 0 0 1 2.045-.593zM4.376 56.81l1.041.269c.177-.689.366-1.373.567-2.053l-1.03-.304c-.206.69-.396 1.387-.578 2.088zm3.329-6.829l-1.001-.39a64.38 64.38 0 0 0-.754 2.038l1.013.356c.236-.673.484-1.341.742-2.004zm47.179-38.942l-.194-1.057c-.712.13-1.421.271-2.125.423l.229 1.05c.692-.15 1.388-.289 2.09-.416zM2.454 76.135c.037.724.086 1.445.148 2.161l1.07-.091a64.562 64.562 0 0 1-.146-2.125l-1.072.055zm1.408-10.687l-1.068-.125a63.933 63.933 0 0 0-.213 2.156l1.07.088c.059-.71.128-1.416.211-2.119zm-.611-3.341l1.06.177c.118-.702.248-1.4.389-2.093l-1.053-.215a62.5 62.5 0 0 0-.396 2.131zm78.301-51.293a62.72 62.72 0 0 0-2.112-.485l-.222 1.051c.696.147 1.388.306 2.076.476l.258-1.042zm5.203 1.525a61.633 61.633 0 0 0-2.07-.665l-.311 1.028c.683.207 1.361.424 2.034.654l.347-1.017zm-26.601-2.03l-.102-1.069c-.72.069-1.437.15-2.152.242l.138 1.065c.702-.09 1.407-.17 2.116-.238zm16.09-.57a63.167 63.167 0 0 0-2.144-.303l-.132 1.066c.706.088 1.41.187 2.109.297l.167-1.06zm-10.776.289l-.013-1.074c-.724.008-1.445.028-2.163.06l.048 1.073a65.393 65.393 0 0 1 2.128-.059zm5.399-.909a64.478 64.478 0 0 0-2.162-.121l-.042 1.073c.711.028 1.421.067 2.127.119l.077-1.071zM109.819 26.2a63.245 63.245 0 0 0-1.606-1.455l-.707.808c.534.468 1.061.945 1.579 1.431l.734-.784zm7.127 83.451l.869.632c.425-.584.841-1.176 1.246-1.775l-.89-.602c-.398.589-.806 1.17-1.225 1.745zm2.95-4.438l.919.558c.376-.619.74-1.244 1.093-1.876l-.938-.525a59.36 59.36 0 0 1-1.074 1.843zm-9.917 12.482l.751.769a65.03 65.03 0 0 0 1.525-1.538l-.776-.744a61.134 61.134 0 0 1-1.5 1.513zm12.481-17.155l.963.476c.321-.648.631-1.302.93-1.962l-.98-.443a62.961 62.961 0 0 1-.913 1.929zm-8.828 13.281l.812.704a62.41 62.41 0 0 0 1.391-1.662l-.835-.677a62.61 62.61 0 0 1-1.368 1.635zM127.64 85.46l1.053.216a65.46 65.46 0 0 0 .4-2.129l-1.06-.18c-.119.702-.25 1.399-.393 2.093zm-76.943 49.234c.7.174 1.404.337 2.111.488l.225-1.051a61.306 61.306 0 0 1-2.075-.479l-.261 1.042zm79.302-62.17h-1.074l.001.244c0 .712-.012 1.423-.036 2.129l1.074.037a65.03 65.03 0 0 0 .036-2.173l-.001-.237zm-1.509 7.682l1.066.126c.085-.715.158-1.434.218-2.156l-1.07-.089c-.06.709-.131 1.415-.214 2.119zm-2.141 10.417l1.03.304c.205-.691.398-1.386.58-2.086l-1.041-.27a63.32 63.32 0 0 1-.569 2.052zm-20.332 30.624l.682.83a63.191 63.191 0 0 0 1.648-1.404l-.709-.806c-.533.469-1.073.929-1.621 1.38zm18.6-25.584l1.001.392c.264-.674.517-1.352.759-2.036l-1.013-.358c-.238.673-.487 1.34-.747 2.002zm-52.524 39.573l.101 1.07a66.502 66.502 0 0 0 2.153-.238l-.136-1.066c-.703.09-1.408.168-2.118.234zm-5.314.273l.01 1.074a64.626 64.626 0 0 0 2.163-.057l-.046-1.073c-.706.03-1.416.049-2.127.056zm15.781-2.157l.281 1.038a65.339 65.339 0 0 0 2.08-.6l-.315-1.027c-.677.207-1.359.403-2.046.589zm19.21-8.902l.611.883c.594-.41 1.18-.83 1.759-1.258l-.64-.863c-.568.421-1.146.834-1.73 1.238zm-40.392 11.958c.719.053 1.438.095 2.162.124l.044-1.073a65.084 65.084 0 0 1-2.127-.122l-.079 1.071zm-5.375-.63c.709.114 1.425.216 2.143.307l.134-1.066a61.08 61.08 0 0 1-2.108-.302l-.169 1.061zm36.546-6.06l.451.975a61.136 61.136 0 0 0 1.945-.942l-.485-.959c-.631.319-1.269.628-1.911.926zm-4.913 2.03l.367 1.009a65.451 65.451 0 0 0 2.023-.775l-.401-.997c-.658.265-1.321.52-1.989.763zm9.633-4.467l.533.933a66.438 66.438 0 0 0 1.86-1.105l-.564-.914c-.602.371-1.212.733-1.829 1.086zM6.024 79.95a3.512 3.512 0 0 1 1.036 2.495 3.502 3.502 0 0 1-1.032 2.496 3.51 3.51 0 0 1-2.496 1.036H3.53A3.533 3.533 0 0 1 .001 82.45a3.534 3.534 0 0 1 3.528-3.532h.002c.942 0 1.827.366 2.493 1.032zm-.039 2.496c0-.656-.256-1.273-.721-1.736a2.438 2.438 0 0 0-1.734-.718h-.002a2.459 2.459 0 0 0-2.454 2.457c0 .656.256 1.272.721 1.736a2.44 2.44 0 0 0 1.734.718h.002a2.441 2.441 0 0 0 1.736-.72 2.445 2.445 0 0 0 .718-1.737zm107.428-51.285a3.51 3.51 0 0 1 2.496-1.036h.002c.942 0 1.828.367 2.494 1.032a3.512 3.512 0 0 1 1.036 2.495 3.534 3.534 0 0 1-3.528 3.532h-.002a3.508 3.508 0 0 1-2.494-1.032 3.512 3.512 0 0 1-1.036-2.495 3.5 3.5 0 0 1 1.032-2.496zm.042 2.496c0 .656.256 1.273.721 1.736.463.463 1.08.718 1.734.718h.002a2.459 2.459 0 0 0 2.454-2.457c0-.656-.256-1.272-.721-1.736a2.44 2.44 0 0 0-1.734-.718h-.002a2.441 2.441 0 0 0-1.736.72 2.443 2.443 0 0 0-.718 1.737zM82.033 134.515a3.535 3.535 0 0 1-3.527 3.533h-.002a3.533 3.533 0 0 1-3.529-3.527 3.535 3.535 0 0 1 3.527-3.533h.001a3.535 3.535 0 0 1 3.53 3.527zm-1.075.001a2.46 2.46 0 0 0-2.456-2.454h-.001a2.458 2.458 0 0 0-2.453 2.457 2.46 2.46 0 0 0 2.455 2.454h.002a2.457 2.457 0 0 0 2.453-2.457zm41.023-80.908l-12.698 12.697c.294 1.979.46 3.983.481 5.989l-1.074.011a42.292 42.292 0 0 0-.377-5.03l-8.3 8.3V98.5a42.523 42.523 0 0 0 4.274-6.862l.962.477a43.644 43.644 0 0 1-4.618 7.357l-.618-.48v18.446H32.351V99.079l-.574.448a43.748 43.748 0 0 1-4.631-7.348l.962-.48a42.625 42.625 0 0 0 4.243 6.799V47.037a42.644 42.644 0 0 0-4.24 6.797l-.962-.479a43.786 43.786 0 0 1 4.63-7.35l.572.446V43.52a22.202 22.202 0 0 1-6.68 1.029c-12.309 0-22.274-9.975-22.274-22.274C3.397 9.975 13.362 0 25.671 0 37.97 0 47.936 9.975 47.936 22.274c0 2.015-.274 3.966-.776 5.823h38.627l14.227 14.446v4.004l.619-.481a43.704 43.704 0 0 1 4.617 7.357l-.962.478a42.733 42.733 0 0 0-4.274-6.864v14.081l5.19-5.19c-.152-.359-.294-.722-.458-1.075l.974-.453c.108.233.203.471.306.706l8.727-8.727c1.286-1.286 3.809.067 5.61 1.866 1.609 1.611 3 3.982 1.618 5.363zM87.042 41.211l8.649.006-8.643-8.776-.006 8.77zM25.671 42.4c4.209 0 8.242-1.289 11.662-3.727a2.146 2.146 0 0 1 1.727-.345l5.204 1.193-1.578-5.129a2.15 2.15 0 0 1 .217-1.747 19.977 19.977 0 0 0 2.884-10.371c0-11.097-9.024-20.126-20.116-20.126-11.097 0-20.126 9.028-20.126 20.126S14.574 42.4 25.671 42.4zm72.193 35.325l-.84.84-10.651 3.6 1.829-5.796-10.281.017v-2.149l10.96-.018.909-2.88.093-.093 7.981-7.981V43.423l-.088-.089-12.853-.008.008-13.033-.046-.047H46.453a21.922 21.922 0 0 1-1.713 3.514l2.673 8.687-8.832-2.024a22.254 22.254 0 0 1-4.081 2.292v47.157l.472-.001.002 1.074-.474.001v24.342h63.365V90.873l-.579.001-.002-1.074.581-.001V77.725zm-1.499-1.357c-.372-.794-1.362-1.467-2.353-1.601l-.44-.06-.024-.443c-.051-.925-.908-1.808-1.687-2.169-.225-.104-.753-.287-1.154-.091l-1.738 5.505 1.976 1.976 5.406-1.827c.208-.415.221-.847.014-1.29zm23.237-27.364c-1.615-1.615-3.491-2.468-4.091-1.866l-9.147 9.147c-.148.31-.524.705-.679.679L91.73 70.92c.191.048.386.109.583.201.949.439 1.992 1.431 2.251 2.659 1.198.292 2.303 1.127 2.774 2.133.095.203.162.409.204.616l23.68-23.68c.73-.73-.263-2.487-1.62-3.845zM35.939 29.24c-.436-.578-.981-1.297-2.068-1.297-1.086 0-1.629.719-2.066 1.297-.421.557-.684.871-1.211.871s-.791-.315-1.212-.871c-.436-.578-.98-1.297-2.067-1.297-1.088 0-1.632.72-2.069 1.298-.421.556-.685.871-1.212.871s-.791-.315-1.212-.871c-.436-.578-.981-1.298-2.069-1.298s-1.634.719-2.071 1.297c-.422.557-.686.871-1.215.871s-.793-.315-1.215-.871c-.437-.578-.983-1.297-2.071-1.297v1.074c.529 0 .793.315 1.215.871.437.578.983 1.297 2.071 1.297s1.634-.719 2.071-1.297c.422-.557.686-.871 1.215-.871.528 0 .791.315 1.213.871.436.578.981 1.297 2.068 1.297s1.631-.719 2.068-1.297c.422-.557.685-.871 1.213-.871.527 0 .79.315 1.21.871.437.578.982 1.298 2.069 1.298s1.63-.72 2.068-1.298c.42-.556.683-.871 1.209-.871.527 0 .791.315 1.212.871.436.578.981 1.297 2.068 1.297v-1.074c-.527 0-.791-.315-1.212-.871zm0-14.018c-.436-.578-.981-1.297-2.068-1.297-1.086 0-1.629.719-2.066 1.297-.421.557-.684.871-1.211.871s-.791-.315-1.212-.871c-.436-.578-.98-1.297-2.067-1.297-1.088 0-1.632.72-2.069 1.298-.421.556-.685.871-1.212.871s-.791-.315-1.212-.871c-.436-.578-.981-1.298-2.069-1.298s-1.634.719-2.071 1.297c-.422.557-.686.871-1.215.871s-.793-.315-1.215-.871c-.437-.578-.983-1.297-2.071-1.297v1.074c.529 0 .793.315 1.215.871.437.578.983 1.297 2.071 1.297s1.634-.719 2.071-1.297c.422-.557.686-.871 1.215-.871.528 0 .791.315 1.213.871.436.578.981 1.297 2.068 1.297s1.631-.719 2.068-1.297c.422-.557.685-.871 1.213-.871.527 0 .79.315 1.21.871.437.578.982 1.298 2.069 1.298s1.63-.72 2.068-1.298c.42-.556.683-.871 1.209-.871.527 0 .791.315 1.212.871.436.578.981 1.297 2.068 1.297v-1.074c-.527.001-.791-.314-1.212-.871zm0 7.009c-.436-.578-.981-1.297-2.068-1.297-1.086 0-1.629.719-2.066 1.297-.421.557-.684.871-1.211.871s-.791-.315-1.212-.871c-.436-.578-.98-1.297-2.067-1.297-1.088 0-1.632.72-2.069 1.298-.421.556-.685.871-1.212.871s-.791-.315-1.212-.871c-.436-.578-.981-1.298-2.069-1.298s-1.634.719-2.071 1.297c-.422.557-.686.871-1.215.871s-.793-.315-1.215-.871c-.437-.578-.983-1.297-2.071-1.297v1.074c.529 0 .793.315 1.215.871.437.578.983 1.297 2.071 1.297s1.634-.719 2.071-1.297c.422-.557.686-.871 1.215-.871.528 0 .791.315 1.213.871.436.578.981 1.297 2.068 1.297s1.631-.719 2.068-1.297c.422-.557.685-.871 1.213-.871.527 0 .79.315 1.21.871.437.578.982 1.298 2.069 1.298s1.63-.72 2.068-1.298c.42-.556.683-.871 1.209-.871.527 0 .791.315 1.212.871.436.578.981 1.297 2.068 1.297v-1.074c-.527.001-.791-.314-1.212-.871zm22.644 28.404v-2.149l-15.464.026.004 2.149 15.46-.026zm30.444-2.199l-28.295.048v2.149l28.3-.048-.005-2.149zm-13.254 6.468v2.149l13.259-.022-.004-2.149-13.255.022zm-2.149 2.152v-2.149l-30.505.051.004 2.149 30.501-.051zm-7.52 6.459v-2.149l-22.984.039.004 2.149 22.98-.039zm2.148-2.153v2.149l20.779-.035-.004-2.149-20.775.035zm-7.52 6.459v2.149l28.3-.048-.004-2.149-28.296.048zm-2.149 2.152v-2.149l-15.464.026.004 2.149 15.46-.026zm17.19 6.418v-2.149l-32.653.055.004 2.149 32.649-.055zm16.138 13.414l.002 1.074 2.149-.003-.002-1.074-2.149.003zm-3.221 1.078l-.002-1.074-2.149.003.002 1.074 2.149-.003zm-5.371.007l-.002-1.074-2.149.003.002 1.074 2.149-.003zm-7.521.009l2.149-.003-.002-1.074-2.149.003.002 1.074zm-10.743.012l2.149-.003-.002-1.074-2.149.003.002 1.074zm-26.86-1.043l.002 1.074 2.149-.003-.002-1.074-2.149.003zm32.232 1.037l2.149-.003-.002-1.074-2.149.003.002 1.074zm-24.712-1.046l-2.149.003.002 1.074 2.149-.003-.002-1.074zm5.372-.006l-2.149.003.002 1.074 2.149-.003-.002-1.074zm8.596 1.064l2.149-.003-.002-1.074-2.149.003.002 1.074zm-4.323 13.441v2.149l33.671-.057-.004-2.149-33.667.057zm-12.236 2.169l10.088-.017v-2.149l-10.092.017.004 2.149zm11.913-15.069l-3.16 1.279c.638.337 1.112.841 1.357 1.476.336.868.207 1.849-.377 2.757-.537.837-1.407 1.521-2.45 1.923-1.041.404-2.144.483-3.106.226-1.038-.277-1.798-.911-2.133-1.783a2.688 2.688 0 0 1-.183-.981c0-.589.188-1.198.56-1.776.537-.837 1.407-1.521 2.45-1.923.144-.056.291-.091.438-.134l-.01-.009 4.417-2.112-4.324-2.079c-.147-.044-.295-.079-.44-.135-1.822-.709-3.001-2.248-3-3.727 0-.325.058-.646.179-.957.668-1.72 3.021-2.415 5.244-1.55 1.04.404 1.909 1.088 2.447 1.926.579.905.712 1.882.373 2.757-.245.634-.72 1.137-1.358 1.473l3.066 1.245 7.1-3.394c2.364-1.13 4.575.778 4.575.778l-9.075 3.671 9.149 3.715s-2.213 1.906-4.576.773c-1.827-.875-4.591-2.202-7.163-3.439zm-3-5.32c.058-.15.087-.312.088-.477 0-.333-.115-.687-.339-1.039-.38-.595-1.015-1.087-1.786-1.387-1.49-.579-3.076-.227-3.463.767-.378.997.548 2.321 2.038 2.903.771.3 1.571.363 2.255.182.603-.162 1.032-.498 1.207-.949zm-1.292 7.621c-.684-.182-1.482-.12-2.254.179-.771.299-1.407.79-1.788 1.385-.34.529-.426 1.07-.254 1.516.174.452.603.788 1.207.95.684.182 1.482.12 2.253-.179.771-.299 1.407-.79 1.788-1.385.225-.351.34-.706.341-1.036 0-.167-.03-.329-.087-.479-.173-.452-.602-.789-1.206-.951zm4.336-2.76a.57.57 0 1 0 0-1.141.57.57 0 0 0 0 1.141z"/>
</svg>
