<svg xmlns="http://www.w3.org/2000/svg" width="210" height="223">
    <path fill="#B6D806" d="M38.1 102.7l1.7.4c-1 4.4-1.5 9-1.5 13.6h-1.7c0-4.7.5-9.4 1.5-14zm.4-1.7l1.7.4c1.1-4.4 2.6-8.8 4.5-12.9l-1.6-.7c-2 4.2-3.6 8.7-4.6 13.2zm0 33.1c1.1 4.5 2.7 9 4.6 13.2l1.6-.7c-1.9-4.1-3.5-8.5-4.5-12.9l-1.7.4zm-.4-1.7l1.7-.4c-1-4.4-1.5-9-1.5-13.6h-1.7c0 4.7.5 9.4 1.5 14zm136-.5l1.7.4c1-4.6 1.5-9.2 1.5-13.9h-1.7c-.1 4.5-.6 9-1.5 13.5zm-4.9 14.6l1.6.7c2-4.2 3.5-8.7 4.6-13.3l-1.7-.4c-1.1 4.5-2.6 8.8-4.5 13zM15.3 164.9c.5 1 1.1 2.1 1.7 3.1l1.5-.8c-.6-1-1.1-2-1.6-3l-1.6.7zm.6-92l-1.6-.8c-.5 1-1 2.1-1.5 3.2l1.6.7c.5-1.1 1-2.1 1.5-3.1zM5.6 117.5c0-1.1 0-2.2.1-3.2l-1.7-.1c0 1.1-.1 2.2-.1 3.3v.2h1.7v-.2zm3 31.2c.4 1.1.7 2.2 1.1 3.3l1.6-.6c-.4-1.1-.7-2.2-1.1-3.3l-1.6.6zm3 8.3c.4 1.1.9 2.1 1.4 3.2l1.6-.7c-.5-1-.9-2.1-1.4-3.1l-1.6.6zM8 139.9l-1.7.4c.3 1.1.5 2.3.8 3.4l1.7-.4c-.2-1.1-.5-2.3-.8-3.4zm12-74.6l-1.5-.9-1.8 3 1.5.8c.7-.9 1.2-1.9 1.8-2.9zm30 138.2c1 .6 2 1.3 3 1.9l.9-1.5c-1-.6-1.9-1.2-2.9-1.9l-1 1.5zm23.5 11.6c1.1.4 2.2.7 3.3 1.1l.5-1.7c-1.1-.3-2.2-.7-3.3-1.1l-.5 1.7zm-30.6-16.7c.9.7 1.8 1.4 2.8 2.1l1-1.4L44 197l-1.1 1.4zm-23.3-25.9c.6 1 1.3 2 1.9 2.9l1.4-1c-.6-.9-1.3-1.9-1.9-2.9l-1.4 1zm45.7 39.4c1.1.5 2.1.9 3.2 1.4l.6-1.6c-1.1-.4-2.1-.9-3.2-1.3l-.6 1.5zm-40.7-32.3c.7.9 1.4 1.8 2.2 2.8l1.3-1.1-2.1-2.7-1.4 1zm5.6 6.8c.8.9 1.6 1.7 2.4 2.6l1.3-1.2c-.8-.8-1.6-1.7-2.3-2.5l-1.4 1.1zm6.1 6.2c.8.8 1.7 1.6 2.6 2.4l1.1-1.3c-.9-.8-1.7-1.5-2.5-2.3l-1.2 1.2zM57.5 208c1 .6 2.1 1.1 3.1 1.6l.8-1.5c-1-.5-2-1.1-3.1-1.6l-.8 1.5zM170.8 36.6c-.9-.7-1.8-1.4-2.8-2.1l-1 1.4 2.7 2.1 1.1-1.4zm27.6 33.5c-.5-1-1.1-2.1-1.7-3.1l-1.5.9c.6 1 1.1 2 1.6 3l1.6-.8zm-7.7-9.6c.6.9 1.3 1.9 1.9 2.9l1.5-.9c-.6-1-1.3-2-1.9-2.9l-1.5.9zm-7.2-11.9c-.8-.9-1.6-1.7-2.4-2.6l-1.2 1.2c.8.8 1.6 1.7 2.3 2.5l1.3-1.1zm-19.8-17.1c-1-.6-2-1.3-3-1.9l-.9 1.5c1 .6 1.9 1.2 2.9 1.9l1-1.5zm-7.5-4.5c-1-.6-2.1-1.1-3.1-1.6l-.8 1.6c1 .5 2 1 3.1 1.6l.8-1.6zm51.9 85l1.7-.1c-.1-1.2-.1-2.3-.2-3.5l-1.7.2c.1 1.1.2 2.2.2 3.4zm-59.8-88.9c-1.1-.5-2.1-.9-3.2-1.4l-.6 1.6c1.1.4 2.1.9 3.2 1.3l.6-1.5zm59 80.3l1.7-.2c-.2-1.2-.3-2.3-.5-3.5l-1.7.3c.2 1.2.3 2.3.5 3.4zM202.1 78c-.4-1.1-.9-2.1-1.4-3.2l-1.6.7c.5 1 .9 2.1 1.4 3.1l1.6-.6zm3.6 17l1.7-.4c-.3-1.1-.5-2.3-.8-3.4l-1.7.4c.3 1.1.6 2.3.8 3.4zm-.6-8.8c-.4-1.1-.7-2.2-1.1-3.3l-1.6.6c.4 1.1.8 2.2 1.1 3.3l1.6-.6zM80.3 19.7l-.5-1.7c-1.1.3-2.2.6-3.4 1l.5 1.7c1.2-.3 2.3-.7 3.4-1zM7.1 91.8l1.7.4c.2-1.1.5-2.2.9-3.3L8 88.4c-.3 1.1-.6 2.2-.9 3.4zm5.3-11.1l-1.6-.6-1.2 3.3 1.6.6 1.2-3.3zm76.3-62.9l-.3-1.7c-1.2.2-2.3.4-3.4.7l.4 1.7c1-.2 2.1-.5 3.3-.7zM4 123c.1 1.2.1 2.3.2 3.5l1.7-.1c-.1-1.1-.2-2.3-.2-3.4H4zm2.2-17.3l-1.7-.2c-.1 1.2-.2 2.3-.3 3.5l1.7.1c.1-1.1.2-2.2.3-3.4zm-.9-5.4l1.7.3c.2-1.1.4-2.3.6-3.4l-1.7-.3c-.2 1.1-.5 2.3-.6 3.4zm126.4-82.8c-1.1-.3-2.3-.5-3.4-.8l-.4 1.7c1.1.2 2.2.5 3.4.8l.4-1.7zm8.4 2.4c-1.1-.4-2.2-.7-3.3-1.1l-.5 1.7c1.1.3 2.2.7 3.3 1.1l.5-1.7zm-42.9-3.2l-.2-1.8c-1.2.1-2.3.2-3.5.4l.2 1.7c1.2-.1 2.3-.2 3.5-.3zm26-1c-1.1-.2-2.3-.3-3.5-.5l-.2 1.7c1.1.1 2.3.3 3.4.5l.3-1.7zm-17.4.5v-1.7c-1.2 0-2.3 0-3.5.1l.1 1.7c1.1-.1 2.2-.1 3.4-.1zm8.7-1.5c-1.2-.1-2.3-.1-3.5-.2l-.1 1.7c1.1 0 2.3.1 3.4.2l.2-1.7zm62.9 27.6c-.9-.8-1.7-1.6-2.6-2.3l-1.1 1.3c.9.8 1.7 1.5 2.6 2.3l1.1-1.3zm11.5 134.8l1.4 1c.7-.9 1.4-1.9 2-2.9l-1.4-1c-.7 1.1-1.3 2-2 2.9zm4.8-7.1l1.5.9 1.8-3-1.5-.8c-.6.9-1.2 1.9-1.8 2.9zm-16 20.1l1.2 1.2c.8-.8 1.7-1.6 2.5-2.5l-1.3-1.2c-.8.9-1.6 1.7-2.4 2.5zm20.1-27.7l1.6.8c.5-1 1-2.1 1.5-3.2l-1.6-.7c-.5 1-1 2.1-1.5 3.1zm-14.2 21.5l1.3 1.1c.8-.9 1.5-1.8 2.2-2.7l-1.3-1.1c-.8.9-1.5 1.8-2.2 2.7zm22.6-45.8l1.7.3c.2-1.1.4-2.3.6-3.4l-1.7-.3c-.2 1.1-.4 2.2-.6 3.4zM81.9 217.6c1.1.3 2.3.5 3.4.8l.4-1.7c-1.1-.2-2.2-.5-3.4-.8l-.4 1.7zM210 117.2h-1.7v.4c0 1.2 0 2.3-.1 3.4l1.7.1c0-1.2.1-2.3.1-3.5v-.4zm-2.4 12.4l1.7.2c.1-1.2.3-2.3.4-3.5l-1.7-.1c-.2 1.1-.3 2.2-.4 3.4zm-3.5 16.8l1.7.5c.3-1.1.6-2.2.9-3.4l-1.7-.4-.9 3.3zm-32.8 49.5l1.1 1.3c.9-.7 1.8-1.5 2.7-2.3l-1.1-1.3c-1 .8-1.9 1.5-2.7 2.3zm30-41.4l1.6.6 1.2-3.3-1.6-.6c-.4 1.2-.8 2.3-1.2 3.3zm-84.8 64l.2 1.7c1.2-.1 2.3-.2 3.5-.4l-.2-1.7c-1.3.1-2.4.3-3.5.4zm-8.6.4v1.7c1.2 0 2.3 0 3.5-.1l-.1-1.7c-1.1.1-2.3.1-3.4.1zm25.5-3.5l.5 1.7c1.1-.3 2.2-.6 3.4-1l-.5-1.7c-1.2.4-2.3.7-3.4 1zm31-14.4l1 1.4c1-.7 1.9-1.3 2.8-2l-1-1.4c-.9.7-1.9 1.4-2.8 2zm-65.3 19.4c1.2.1 2.3.2 3.5.2l.1-1.7c-1.1 0-2.3-.1-3.4-.2l-.2 1.7zm-8.6-1.1c1.1.2 2.3.3 3.5.5l.2-1.7c-1.1-.1-2.3-.3-3.4-.5l-.3 1.7zm59-9.8l.7 1.6c1.1-.5 2.1-1 3.1-1.5l-.8-1.5c-.9.5-2 1-3 1.4zm-7.9 3.3l.6 1.6c1.1-.4 2.2-.8 3.3-1.3l-.6-1.6c-1.2.5-2.3.9-3.3 1.3zm15.5-7.2l.9 1.5 3-1.8-.9-1.5c-1 .7-2 1.2-3 1.8zM9.7 129.2c1.1 1.1 1.7 2.5 1.7 4s-.6 3-1.7 4c-1.1 1.1-2.5 1.7-4 1.7-3.1 0-5.7-2.6-5.7-5.7s2.6-5.7 5.7-5.7c1.5 0 3 .6 4 1.7zm0 4c0-1.1-.4-2.1-1.2-2.8-.7-.7-1.7-1.2-2.8-1.2-2.2 0-4 1.8-4 4 0 1.1.4 2.1 1.2 2.8.7.7 1.7 1.2 2.8 1.2 1.1 0 2.1-.4 2.8-1.2.8-.8 1.2-1.8 1.2-2.8zm173.5-82.9c1.1-1.1 2.5-1.7 4-1.7s3 .6 4 1.7c1.1 1.1 1.7 2.5 1.7 4 0 3.1-2.6 5.7-5.7 5.7-1.5 0-3-.6-4-1.7-1.1-1.1-1.7-2.5-1.7-4s.6-2.9 1.7-4zm.1 4.1c0 1.1.4 2.1 1.2 2.8.7.7 1.7 1.2 2.8 1.2 2.2 0 4-1.8 4-4 0-1.1-.4-2.1-1.2-2.8-.7-.7-1.7-1.2-2.8-1.2-1.1 0-2.1.4-2.8 1.2-.8.7-1.2 1.7-1.2 2.8zm-50.8 162.9c0 3.1-2.6 5.7-5.7 5.7s-5.7-2.6-5.7-5.7 2.6-5.7 5.7-5.7c3.2 0 5.7 2.6 5.7 5.7zm-1.7 0c0-2.2-1.8-4-4-4s-4 1.8-4 4 1.8 4 4 4 4-1.8 4-4zM197 86.6l-20.5 20.5c.5 3.2.7 6.4.8 9.7h-1.7c0-2.7-.3-5.4-.6-8.1l-13.4 13.4v37c2.6-3.5 5-7.2 6.9-11.1l1.6.8c-2.1 4.2-4.6 8.2-7.5 11.9l-1-.8v29.8H52.3V160l-.9.7c-2.9-3.7-5.4-7.7-7.5-11.9l1.6-.8c1.9 3.9 4.2 7.5 6.9 11V76c-2.6 3.4-4.9 7.1-6.8 11l-1.6-.8c2.1-4.2 4.6-8.2 7.5-11.9l.9.7v-4.7c-3.4 1.1-7 1.7-10.8 1.7-19.9 0-36-16.1-36-36s16.1-36 36-36 36 16.1 36 36c0 3.3-.4 6.4-1.3 9.4h62.4l23 23.3v6.5l1-.8c2.9 3.7 5.4 7.7 7.5 11.9l-1.6.8c-1.9-3.9-4.3-7.6-6.9-11.1v22.7l8.4-8.4c-.2-.6-.5-1.2-.7-1.7l1.6-.7c.2.4.3.8.5 1.1l14.1-14.1c2.1-2.1 6.2.1 9.1 3 2.3 2.6 4.6 6.5 2.3 8.7zm-56.4-20h14l-14-14.2v14.2zm-99.1 1.9c6.8 0 13.3-2.1 18.8-6 .6-.4 1.3-.6 2-.6.3 0 .5 0 .8.1l8.4 1.9-2.5-8.3c-.3-.9-.2-2 .4-2.8 3-5 4.7-10.8 4.7-16.8C74 18.1 59.4 3.5 41.5 3.5 23.5 3.5 9 18.1 9 36s14.5 32.5 32.5 32.5zm116.6 57.1l-1.4 1.4-17.2 5.8 3-9.4h-16.6v-3.5h17.7l1.5-4.7.2-.1 12.9-12.9V70.1l-.1-.1h-20.8V48.9l-.1-.1H75c-.8 2-1.7 3.9-2.8 5.7l4.3 14-14.3-3.3c-2 1.5-4.3 2.7-6.6 3.7v76.2h.8v1.7h-.8v39.3H158v-39.4h-.9V145h.9v-19.4zm-2.4-2.2c-.6-1.3-2.2-2.4-3.8-2.6l-.7-.1v-.7c-.1-1.5-1.5-2.9-2.7-3.5-.4-.2-1.2-.5-1.9-.1l-2.8 8.9 3.2 3.2 8.7-3c.3-.7.3-1.4 0-2.1zm37.5-44.2c-2.6-2.6-5.6-4-6.6-3L171.8 91c-.2.5-.8 1.1-1.1 1.1l-22.5 22.5.9.3c1.5.7 3.2 2.3 3.6 4.3 1.9.5 3.7 1.8 4.5 3.4.2.3.3.7.3 1l38.3-38.3c1.2-1.1-.4-3.9-2.6-6.1zm-135.1-32c-.7-.9-1.6-2.1-3.3-2.1-1.8 0-2.6 1.2-3.3 2.1-.7.9-1.1 1.4-2 1.4-.9 0-1.3-.5-2-1.4-.7-.9-1.6-2.1-3.3-2.1-1.8 0-2.6 1.2-3.3 2.1-.7.9-1.1 1.4-2 1.4-.9 0-1.3-.5-2-1.4-.7-.9-1.6-2.1-3.3-2.1s-2.6 1.2-3.3 2.1c-.7.9-1.1 1.4-2 1.4s-1.3-.5-2-1.4c-.7-.9-1.6-2.1-3.3-2.1v1.7c.9 0 1.3.5 2 1.4.7.9 1.6 2.1 3.3 2.1s2.6-1.2 3.3-2.1c.7-.9 1.1-1.4 2-1.4.9 0 1.3.5 2 1.4.7.9 1.6 2.1 3.3 2.1 1.8 0 2.6-1.2 3.3-2.1.7-.9 1.1-1.4 2-1.4.9 0 1.3.5 2 1.4.7.9 1.6 2.1 3.3 2.1 1.8 0 2.6-1.2 3.3-2.1.7-.9 1.1-1.4 2-1.4.9 0 1.3.5 2 1.4.7.9 1.6 2.1 3.3 2.1v-1.7c-.9 0-1.4-.5-2-1.4zm0-22.6c-.7-.9-1.6-2.1-3.3-2.1-1.8 0-2.6 1.2-3.3 2.1-.7.9-1.1 1.4-2 1.4-.9 0-1.3-.5-2-1.4-.7-.9-1.6-2.1-3.3-2.1-1.8 0-2.6 1.2-3.3 2.1-.7.9-1.1 1.4-2 1.4-.9 0-1.3-.5-2-1.4-.7-.9-1.6-2.1-3.3-2.1s-2.6 1.2-3.3 2.1c-.7.9-1.1 1.4-2 1.4s-1.3-.5-2-1.4c-.7-.9-1.6-2.1-3.3-2.1v1.7c.9 0 1.3.5 2 1.4.7.9 1.6 2.1 3.3 2.1s2.6-1.2 3.3-2.1c.7-.9 1.1-1.4 2-1.4.9 0 1.3.5 2 1.4.7.9 1.6 2.1 3.3 2.1 1.8 0 2.6-1.2 3.3-2.1.7-.9 1.1-1.4 2-1.4.9 0 1.3.5 2 1.4.7.9 1.6 2.1 3.3 2.1 1.8 0 2.6-1.2 3.3-2.1.7-.9 1.1-1.4 2-1.4.9 0 1.3.5 2 1.4.7.9 1.6 2.1 3.3 2.1V26c-.9 0-1.4-.5-2-1.4zm0 11.3c-.7-.9-1.6-2.1-3.3-2.1-1.8 0-2.6 1.2-3.3 2.1-.7.9-1.1 1.4-2 1.4-.9 0-1.3-.5-2-1.4-.7-.9-1.6-2.1-3.3-2.1-1.8 0-2.6 1.2-3.3 2.1-.7.9-1.1 1.4-2 1.4-.9 0-1.3-.5-2-1.4-.7-.9-1.6-2.1-3.3-2.1S31 35 30.3 35.9c-.7.9-1.1 1.4-2 1.4s-1.3-.5-2-1.4c-.7-.9-1.6-2.1-3.3-2.1v1.7c.9 0 1.3.5 2 1.4.7.9 1.6 2.1 3.3 2.1s2.6-1.2 3.3-2.1c.7-.9 1.1-1.4 2-1.4.9 0 1.3.5 2 1.4.7.9 1.6 2.1 3.3 2.1 1.8 0 2.6-1.2 3.3-2.1.7-.9 1.1-1.4 2-1.4.9 0 1.3.5 2 1.4.7.9 1.6 2.1 3.3 2.1 1.8 0 2.6-1.2 3.3-2.1.7-.9 1.1-1.4 2-1.4.9 0 1.3.5 2 1.4.7.9 1.6 2.1 3.3 2.1v-1.7c-.9 0-1.4-.5-2-1.4zm36.5 45.9v-3.5h-25v3.5h25zm49.2-3.6l-45.7.1v3.5l45.7-.1v-3.5zm-21.4 10.5v3.5h21.4v-3.5h-21.4zm-3.5 3.5v-3.5l-49.3.1v3.5l49.3-.1zm-12.1 10.4v-3.5l-37.1.1v3.5l37.1-.1zm3.5-3.5v3.5l33.6-.1V99l-33.6.1zm-12.2 10.5v3.5l45.7-.1v-3.5l-45.7.1zm-3.5 3.4v-3.5h-25v3.5h25zm27.8 10.4v-3.5l-52.7.1v3.5l52.7-.1zm26.1 21.7v1.7h3.5v-1.7h-3.5zm-5.2 1.7v-1.7h-3.5v1.7h3.5zm-8.7 0v-1.7h-3.5v1.7h3.5zm-12.2 0h3.5v-1.7h-3.5v1.7zm-17.3.1h3.5v-1.7h-3.5v1.7zm-43.4-1.7v1.7h3.5v-1.7h-3.5zm52.1 1.6h3.5v-1.7h-3.5v1.7zm-40-1.6h-3.5v1.7h3.5v-1.7zm8.7-.1H79v1.7h3.5v-1.7zm13.9 1.8h3.5v-1.7h-3.5v1.7zm-7 21.7v3.5l54.4-.1v-3.5l-54.4.1zm-19.7 3.5H86v-3.5H69.7v3.5zm19.2-24.4l-5.1 2.1c1 .5 1.8 1.4 2.2 2.4.5 1.4.3 3-.6 4.5-.9 1.4-2.3 2.5-4 3.1-1.7.7-3.5.8-5 .4-1.7-.4-2.9-1.5-3.4-2.9-.2-.5-.3-1-.3-1.6 0-1 .3-1.9.9-2.9.9-1.4 2.3-2.5 4-3.1.2-.1.5-.1.7-.2 0 0 3.1-1.5 7.1-3.4-3.7-1.8-6.6-3.2-7-3.4-.2-.1-.5-.1-.7-.2-2.9-1.1-4.8-3.6-4.8-6 0-.5.1-1 .3-1.5 1.1-2.8 4.9-3.9 8.5-2.5 1.7.7 3.1 1.8 4 3.1.9 1.5 1.2 3 .6 4.5-.4 1-1.2 1.8-2.2 2.4l5 2c4.1-2 8.5-4.1 11.5-5.5 3.8-1.8 7.4 1.3 7.4 1.3L93.1 146l14.8 6s-3.6 3.1-7.4 1.2c-3-1.3-7.4-3.5-11.6-5.5zm-4.8-8.6c.1-.2.1-.5.1-.8 0-.5-.2-1.1-.5-1.7-.6-1-1.6-1.8-2.9-2.2-2.4-.9-5-.4-5.6 1.2-.6 1.6.9 3.7 3.3 4.7 1.2.5 2.5.6 3.6.3 1-.2 1.7-.7 2-1.5zM82 151.5c-1.1-.3-2.4-.2-3.6.3-1.2.5-2.3 1.3-2.9 2.2-.5.9-.7 1.7-.4 2.4.3.7 1 1.3 1.9 1.5 1.1.3 2.4.2 3.6-.3 1.2-.5 2.3-1.3 2.9-2.2.4-.6.5-1.1.6-1.7 0-.3 0-.5-.1-.8-.4-.6-1.1-1.2-2-1.4zm7-4.5c.5 0 .9-.4.9-.9s-.4-.9-.9-.9-.9.4-.9.9.4.9.9.9z"/>
</svg>
