<svg fill="none" height="51" viewBox="0 0 52 51" width="52" xmlns="http://www.w3.org/2000/svg"><path d="m25.94 50.5c-2.7394-.1787-5.7657-.1306-8.712-.6219-8.26156-1.3779-13.45673-6.4082-15.50544-14.7475-1.58825-6.4632-1.6850129-12.9985.04004-19.448 2.24223-8.38389 7.63093-13.34896 15.9893-14.5825 5.4053-.800592 10.8941-.779975 16.2995-.05841 8.8488 1.182 14.4978 6.59032 16.4564 15.60991 1.4815 6.8102 1.3547 13.6548-.724 20.3482-2.3757 7.6589-7.6343 11.8853-15.2652 12.9676-2.7394.3883-5.5389.3539-8.5819.5292z" fill="#fff"/><path d="m35.9599 21.95-9.9599 9.96-9.96-9.96-1.59 1.59 11.55 11.55 11.55-11.55z" fill="#141414"/></svg>