<svg width="16" height="16" viewBox="0 0 16 16" fill="none" xmlns="http://www.w3.org/2000/svg">
<g clip-path="url(#clip0_6920_2066)">
<path d="M8 2.50598C4.236 2.50598 1.053 4.81798 0 7.99998C1.053 11.181 4.236 13.494 8 13.494C11.764 13.494 14.947 11.18 16 7.99998C14.947 4.81798 11.764 2.50598 8 2.50598ZM8 11.994C5.181 11.994 2.625 10.374 1.603 7.99998C2.625 5.62498 5.181 4.00598 8 4.00598C10.819 4.00598 13.375 5.62598 14.397 7.99998C13.375 10.374 10.819 11.994 8 11.994Z" fill="#F06C13"/>
<path fill-rule="evenodd" clip-rule="evenodd" d="M7.99905 6.50002C7.60096 6.50002 7.21917 6.65816 6.93768 6.93966C6.65619 7.22115 6.49805 7.60293 6.49805 8.00102C6.49805 8.39911 6.65619 8.7809 6.93768 9.06239C7.21917 9.34388 7.60096 9.50203 7.99905 9.50203C8.39714 9.50203 8.77892 9.34388 9.06041 9.06239C9.34191 8.7809 9.50005 8.39911 9.50005 8.00102C9.50005 7.60293 9.34191 7.22115 9.06041 6.93966C8.77892 6.65816 8.39714 6.50002 7.99905 6.50002ZM4.99805 8.00002C4.99805 7.20411 5.31422 6.44079 5.87702 5.878C6.43982 5.3152 7.20313 4.99902 7.99905 4.99902C8.79496 4.99902 9.55828 5.3152 10.1211 5.878C10.6839 6.44079 11 7.20411 11 8.00002C11 8.79594 10.6839 9.55926 10.1211 10.1221C9.55828 10.6848 8.79496 11.001 7.99905 11.001C7.20313 11.001 6.43982 10.6848 5.87702 10.1221C5.31422 9.55926 4.99805 8.79594 4.99805 8.00002Z" fill="#F06C13"/>
</g>
<defs>
<clipPath id="clip0_6920_2066">
<rect width="16" height="12" fill="white" transform="translate(0 2)"/>
</clipPath>
</defs>
</svg>
