<svg width="48" height="48" viewBox="0 0 48 48" fill="none" xmlns="http://www.w3.org/2000/svg">
<path d="M24 15.759C18.354 15.759 13.5795 19.227 12 24C13.5795 28.7715 18.354 32.241 24 32.241C29.646 32.241 34.4205 28.77 36 24C34.4205 19.227 29.646 15.759 24 15.759ZM24 29.991C19.7715 29.991 15.9375 27.561 14.4045 24C15.9375 20.4375 19.7715 18.009 24 18.009C28.2285 18.009 32.0625 20.439 33.5955 24C32.0625 27.561 28.2285 29.991 24 29.991Z" fill="#F06C13"/>
<path fill-rule="evenodd" clip-rule="evenodd" d="M23.9976 21.75C23.4005 21.75 22.8278 21.9872 22.4055 22.4094C21.9833 22.8317 21.7461 23.4044 21.7461 24.0015C21.7461 24.5986 21.9833 25.1713 22.4055 25.5935C22.8278 26.0158 23.4005 26.253 23.9976 26.253C24.5947 26.253 25.1674 26.0158 25.5896 25.5935C26.0119 25.1713 26.2491 24.5986 26.2491 24.0015C26.2491 23.4044 26.0119 22.8317 25.5896 22.4094C25.1674 21.9872 24.5947 21.75 23.9976 21.75ZM19.4961 24C19.4961 22.8061 19.9704 21.6612 20.8146 20.817C21.6587 19.9728 22.8037 19.4985 23.9976 19.4985C25.1915 19.4985 26.3364 19.9728 27.1806 20.817C28.0248 21.6612 28.4991 22.8061 28.4991 24C28.4991 25.1939 28.0248 26.3388 27.1806 27.183C26.3364 28.0272 25.1915 28.5015 23.9976 28.5015C22.8037 28.5015 21.6587 28.0272 20.8146 27.183C19.9704 26.3388 19.4961 25.1939 19.4961 24Z" fill="#F06C13"/>
</svg>
