<svg width="48" height="48" viewBox="0 0 48 48" fill="none" xmlns="http://www.w3.org/2000/svg">
<path d="M24 15.759C18.354 15.759 13.5795 19.227 12 24C13.5795 28.7715 18.354 32.241 24 32.241C29.646 32.241 34.4205 28.77 36 24C34.4205 19.227 29.646 15.759 24 15.759ZM24 29.991C19.7715 29.991 15.9375 27.561 14.4045 24C15.9375 20.4375 19.7715 18.009 24 18.009C28.2285 18.009 32.0625 20.439 33.5955 24C32.0625 27.561 28.2285 29.991 24 29.991Z" fill="#141414"/>
<path fill-rule="evenodd" clip-rule="evenodd" d="M23.9985 21.75C23.4014 21.75 22.8287 21.9872 22.4065 22.4094C21.9842 22.8317 21.747 23.4043 21.747 24.0015C21.747 24.5986 21.9842 25.1713 22.4065 25.5935C22.8287 26.0158 23.4014 26.253 23.9985 26.253C24.5956 26.253 25.1683 26.0158 25.5906 25.5935C26.0128 25.1713 26.25 24.5986 26.25 24.0015C26.25 23.4043 26.0128 22.8317 25.5906 22.4094C25.1683 21.9872 24.5956 21.75 23.9985 21.75ZM19.497 24C19.497 22.8061 19.9713 21.6611 20.8155 20.8169C21.6597 19.9727 22.8046 19.4985 23.9985 19.4985C25.1924 19.4985 26.3374 19.9727 27.1816 20.8169C28.0257 21.6611 28.5 22.8061 28.5 24C28.5 25.1938 28.0257 26.3388 27.1816 27.183C26.3374 28.0272 25.1924 28.5015 23.9985 28.5015C22.8046 28.5015 21.6597 28.0272 20.8155 27.183C19.9713 26.3388 19.497 25.1938 19.497 24Z" fill="#141414"/>
</svg>
