<svg fill="none" height="32" viewBox="0 0 32 32" width="32" xmlns="http://www.w3.org/2000/svg" xmlns:xlink="http://www.w3.org/1999/xlink"><mask id="a" height="16" maskUnits="userSpaceOnUse" width="16" x="8" y="8"><path clip-rule="evenodd" d="m8 8h16v15.9027h-16z" fill="#fff" fill-rule="evenodd"/></mask><g mask="url(#a)"><path clip-rule="evenodd" d="m16.0005 7.99951c-4.4186 0-8.0005 3.58179-8.0005 8.00029 0 3.9931 2.9257 7.3029 6.7504 7.903v-5.5905h-2.0314v-2.3125h2.0314v-1.7626c0-2.0051 1.1944-3.1126 3.0219-3.1126.8753 0 1.7909.1563 1.7909.1563v1.9688h-1.0089c-.9938 0-1.3038.6167-1.3038 1.2493v1.5008h2.2189l-.3547 2.3125h-1.8642v5.5905c3.8248-.6001 6.7504-3.9099 6.7504-7.903 0-4.4185-3.5819-8.00029-8.0004-8.00029z" fill="#000" fill-rule="evenodd"/></g></svg>