<svg fill="none" height="16" viewBox="0 0 16 16" width="16" xmlns="http://www.w3.org/2000/svg" xmlns:xlink="http://www.w3.org/1999/xlink"><mask id="a" height="16" maskUnits="userSpaceOnUse" width="16" x="0" y="0"><path clip-rule="evenodd" d="m0 0h16v15.9027h-16z" fill="#fff" fill-rule="evenodd"/></mask><g mask="url(#a)"><path clip-rule="evenodd" d="m8.00047-.00048828c-4.41854 0-8.00047 3.58182828-8.00047 8.00025828 0 3.99313 2.92566 7.30293 6.7504 7.90303v-5.5905h-2.03137v-2.31253h2.03137v-1.76256c0-2.00506 1.19441-3.1126 3.02189-3.1126.87531 0 1.79091.15626 1.79091.15626v1.96881h-1.0089c-.99382 0-1.30376.61669-1.30376 1.24937v1.50072h2.21886l-.3547 2.31253h-1.86416v5.5905c3.82476-.6001 6.75036-3.9099 6.75036-7.90303 0-4.41843-3.5819-8.00025828-8.00043-8.00025828z" fill="#000" fill-rule="evenodd"/></g></svg>