<svg width="16" height="16" viewBox="0 0 16 16" fill="none" xmlns="http://www.w3.org/2000/svg">
<g clip-path="url(#clip0_6920_2059)">
<mask id="mask0_6920_2059" style="mask-type:luminance" maskUnits="userSpaceOnUse" x="0" y="0" width="16" height="16">
<path d="M0 0H16V16H0V0Z" fill="white"/>
</mask>
<g mask="url(#mask0_6920_2059)">
<path d="M1.02003 5.84995H0.400029L0.280029 6.44995C0.0788575 7.46003 0.0788575 8.49987 0.280029 9.50995L0.400029 10.1199H1.02003C1.70003 10.1199 2.32003 10.4799 2.66003 11.0599C3.00003 11.6399 2.99003 12.3699 2.66003 12.9599L2.35003 13.4899L2.81003 13.8999C3.59003 14.5899 4.48003 15.1099 5.45003 15.4399L6.04003 15.6399L6.35003 15.0999C6.69003 14.5099 7.31003 14.1499 7.99003 14.1499C8.67003 14.1499 9.30003 14.5199 9.64003 15.1199L9.94003 15.6599L10.53 15.4599C11.51 15.1299 12.4 14.6199 13.18 13.9399L13.65 13.5299L13.33 12.9899C12.98 12.3999 12.98 11.6699 13.32 11.0799C13.66 10.4899 14.35 10.1299 14.99 10.1399H15.62L15.74 9.53995C15.84 9.02995 15.89 8.50995 15.89 7.98995C15.89 7.46995 15.84 6.97995 15.74 6.47995L15.62 5.85995H14.96C14.29 5.85995 13.66 5.49995 13.32 4.91995C12.98 4.32995 12.98 3.58995 13.34 2.99995L13.66 2.45995L13.19 2.04995C12.41 1.36995 11.52 0.849947 10.54 0.519947L9.95003 0.319946L9.64003 0.859946C9.30003 1.44995 8.67003 1.81995 8.00003 1.81995C7.33003 1.81995 6.69003 1.44995 6.36003 0.859946L6.05003 0.319946L5.46003 0.519947C4.48003 0.849947 3.59003 1.36995 2.81003 2.04995L2.35003 2.45995L2.66003 2.98995C3.00003 3.56995 3.00003 4.29995 2.66003 4.87995C2.32003 5.45995 1.70003 5.80995 1.01003 5.81995L1.02003 5.84995ZM3.96003 5.65995C4.45003 4.79995 4.54003 3.77995 4.23003 2.85995C4.61003 2.57995 5.01003 2.34995 5.43003 2.15995C6.07003 2.89995 7.00003 3.33995 8.00003 3.33995C9.00003 3.33995 9.93003 2.89995 10.57 2.15995C10.99 2.34995 11.39 2.57995 11.77 2.84995C11.44 3.77995 11.52 4.80995 12.03 5.67995C12.53 6.54995 13.38 7.13995 14.35 7.31995C14.37 7.54995 14.39 7.76995 14.39 7.98995C14.39 8.22995 14.38 8.45995 14.35 8.68995C13.38 8.85995 12.52 9.45995 12.02 10.3299C11.52 11.1899 11.44 12.2199 11.76 13.1499C11.39 13.4199 10.98 13.6499 10.56 13.8399C10.2417 13.4667 9.84615 13.1671 9.40071 12.9616C8.95528 12.7562 8.47056 12.6498 7.98003 12.6499C6.98003 12.6499 6.06003 13.0899 5.42003 13.8199C4.99545 13.6316 4.593 13.3968 4.22003 13.1199C4.54003 12.1999 4.45003 11.1699 3.96003 10.3099C3.71767 9.89181 3.38895 9.53016 2.9958 9.24908C2.60264 8.96801 2.15408 8.77399 1.68003 8.67995C1.66003 8.44995 1.64003 8.21995 1.64003 7.98995C1.64003 7.75995 1.65003 7.51995 1.68003 7.27995C2.64003 7.09995 3.48003 6.50995 3.98003 5.64995L3.96003 5.65995Z" fill="#F06C13"/>
<path d="M9.01998 6.97998H6.97998V9.01998H9.01998V6.97998Z" fill="#F06C13"/>
</g>
</g>
<defs>
<clipPath id="clip0_6920_2059">
<rect width="16" height="16" fill="white"/>
</clipPath>
</defs>
</svg>
