<svg width="48" height="48" viewBox="0 0 48 48" fill="none" xmlns="http://www.w3.org/2000/svg">
<mask id="mask0_1658_2255" style="mask-type:luminance" maskUnits="userSpaceOnUse" x="12" y="12" width="24" height="24">
<path d="M12 12H36V36H12V12Z" fill="white"/>
</mask>
<g mask="url(#mask0_1658_2255)">
<path d="M13.53 20.775H12.6L12.42 21.675C12.1182 23.1901 12.1182 24.7499 12.42 26.265L12.6 27.18H13.53C14.55 27.18 15.48 27.72 15.99 28.59C16.5 29.46 16.485 30.555 15.99 31.44L15.525 32.235L16.215 32.85C17.385 33.885 18.72 34.665 20.175 35.16L21.06 35.46L21.525 34.65C22.035 33.765 22.965 33.225 23.985 33.225C25.005 33.225 25.95 33.78 26.46 34.68L26.91 35.49L27.795 35.19C29.265 34.695 30.6 33.93 31.77 32.91L32.475 32.295L31.995 31.485C31.47 30.6 31.47 29.505 31.98 28.62C32.49 27.735 33.525 27.195 34.485 27.21H35.43L35.61 26.31C35.76 25.545 35.835 24.765 35.835 23.985C35.835 23.205 35.76 22.47 35.61 21.72L35.43 20.79H34.44C33.435 20.79 32.49 20.25 31.98 19.38C31.47 18.495 31.47 17.385 32.01 16.5L32.49 15.69L31.785 15.075C30.615 14.055 29.28 13.275 27.81 12.78L26.925 12.48L26.46 13.29C25.95 14.175 25.005 14.73 24 14.73C22.995 14.73 22.035 14.175 21.54 13.29L21.075 12.48L20.19 12.78C18.72 13.275 17.385 14.055 16.215 15.075L15.525 15.69L15.99 16.485C16.5 17.355 16.5 18.45 15.99 19.32C15.48 20.19 14.55 20.715 13.515 20.73L13.53 20.775ZM17.94 20.49C18.675 19.2 18.81 17.67 18.345 16.29C18.915 15.87 19.515 15.525 20.145 15.24C21.105 16.35 22.5 17.01 24 17.01C25.5 17.01 26.895 16.35 27.855 15.24C28.485 15.525 29.085 15.87 29.655 16.275C29.16 17.67 29.28 19.215 30.045 20.52C30.795 21.825 32.07 22.71 33.525 22.98C33.555 23.325 33.585 23.655 33.585 23.985C33.585 24.345 33.57 24.69 33.525 25.035C32.07 25.29 30.78 26.19 30.03 27.495C29.28 28.785 29.16 30.33 29.64 31.725C29.085 32.13 28.47 32.475 27.84 32.76C27.3625 32.2002 26.7692 31.7507 26.101 31.4425C25.4329 31.1343 24.7058 30.9748 23.97 30.975C22.47 30.975 21.09 31.635 20.13 32.73C19.4931 32.4474 18.8894 32.0953 18.33 31.68C18.81 30.3 18.675 28.755 17.94 27.465C17.5764 26.8378 17.0834 26.2953 16.4936 25.8737C15.9039 25.4521 15.2311 25.161 14.52 25.02C14.49 24.675 14.46 24.33 14.46 23.985C14.46 23.64 14.475 23.28 14.52 22.92C15.96 22.65 17.22 21.765 17.97 20.475L17.94 20.49Z" fill="#141414"/>
<path d="M25.53 22.47H22.47V25.53H25.53V22.47Z" fill="#141414"/>
</g>
</svg>
