<svg width="48" height="48" viewBox="0 0 48 48" fill="none" xmlns="http://www.w3.org/2000/svg">
<mask id="mask0_3219_5570" style="mask-type:luminance" maskUnits="userSpaceOnUse" x="12" y="12" width="24" height="24">
<path d="M12 12H36V36H12V12Z" fill="white"/>
</mask>
<g mask="url(#mask0_3219_5570)">
<path d="M13.5297 20.775H12.5997L12.4197 21.675C12.1179 23.1901 12.1179 24.7499 12.4197 26.265L12.5997 27.18H13.5297C14.5497 27.18 15.4797 27.72 15.9897 28.59C16.4997 29.46 16.4847 30.555 15.9897 31.44L15.5247 32.235L16.2147 32.85C17.3847 33.885 18.7197 34.665 20.1747 35.16L21.0597 35.46L21.5247 34.65C22.0347 33.765 22.9647 33.225 23.9847 33.225C25.0047 33.225 25.9497 33.78 26.4597 34.68L26.9097 35.49L27.7947 35.19C29.2647 34.695 30.5997 33.93 31.7697 32.91L32.4747 32.295L31.9947 31.485C31.4697 30.6 31.4697 29.505 31.9797 28.62C32.4897 27.735 33.5247 27.195 34.4847 27.21H35.4297L35.6097 26.31C35.7597 25.545 35.8347 24.765 35.8347 23.985C35.8347 23.205 35.7597 22.47 35.6097 21.72L35.4297 20.79H34.4397C33.4347 20.79 32.4897 20.25 31.9797 19.38C31.4697 18.495 31.4697 17.385 32.0097 16.5L32.4897 15.69L31.7847 15.075C30.6147 14.055 29.2797 13.275 27.8097 12.78L26.9247 12.48L26.4597 13.29C25.9497 14.175 25.0047 14.73 23.9997 14.73C22.9947 14.73 22.0347 14.175 21.5397 13.29L21.0747 12.48L20.1897 12.78C18.7197 13.275 17.3847 14.055 16.2147 15.075L15.5247 15.69L15.9897 16.485C16.4997 17.355 16.4997 18.45 15.9897 19.32C15.4797 20.19 14.5497 20.715 13.5147 20.73L13.5297 20.775ZM17.9397 20.49C18.6747 19.2 18.8097 17.67 18.3447 16.29C18.9147 15.87 19.5147 15.525 20.1447 15.24C21.1047 16.35 22.4997 17.01 23.9997 17.01C25.4997 17.01 26.8947 16.35 27.8547 15.24C28.4847 15.525 29.0847 15.87 29.6547 16.275C29.1597 17.67 29.2797 19.215 30.0447 20.52C30.7947 21.825 32.0697 22.71 33.5247 22.98C33.5547 23.325 33.5847 23.655 33.5847 23.985C33.5847 24.345 33.5697 24.69 33.5247 25.035C32.0697 25.29 30.7797 26.19 30.0297 27.495C29.2797 28.785 29.1597 30.33 29.6397 31.725C29.0847 32.13 28.4697 32.475 27.8397 32.76C27.3622 32.2002 26.7689 31.7507 26.1007 31.4425C25.4326 31.1343 24.7055 30.9748 23.9697 30.975C22.4697 30.975 21.0897 31.635 20.1297 32.73C19.4928 32.4474 18.8891 32.0953 18.3297 31.68C18.8097 30.3 18.6747 28.755 17.9397 27.465C17.5761 26.8378 17.0831 26.2953 16.4933 25.8737C15.9036 25.4521 15.2308 25.1611 14.5197 25.02C14.4897 24.675 14.4597 24.33 14.4597 23.985C14.4597 23.64 14.4747 23.28 14.5197 22.92C15.9597 22.65 17.2197 21.765 17.9697 20.475L17.9397 20.49Z" fill="#F06C13"/>
<path d="M25.5288 22.47H22.4688V25.53H25.5288V22.47Z" fill="#F06C13"/>
</g>
</svg>
