<svg width="48" height="48" viewBox="0 0 48 48" fill="none" xmlns="http://www.w3.org/2000/svg">
<mask id="mask0_1658_2262" style="mask-type:luminance" maskUnits="userSpaceOnUse" x="12" y="12" width="24" height="24">
<path d="M12 12H36V36H12V12Z" fill="white"/>
</mask>
<g mask="url(#mask0_1658_2262)">
<path d="M24 12C17.37 12 12 17.37 12 24C12 30.63 17.37 36 24 36C30.63 36 36 30.63 36 24C36 17.37 30.63 12 24 12ZM33.675 22.875H29.97C29.82 19.815 29.1 17.085 28.035 15.135C31.08 16.53 33.285 19.425 33.675 22.875ZM24 33.75C22.605 33.75 20.55 30.36 20.28 25.125H27.72C27.45 30.36 25.395 33.75 24 33.75ZM20.28 22.875C20.55 17.64 22.605 14.25 24 14.25C25.395 14.25 27.45 17.64 27.72 22.875H20.28ZM19.965 15.135C18.885 17.1 18.165 19.815 18.03 22.875H14.325C14.73 19.425 16.935 16.53 19.965 15.135ZM14.325 25.125H18.03C18.18 28.185 18.9 30.915 19.965 32.865C16.92 31.47 14.715 28.575 14.325 25.125ZM28.035 32.865C29.115 30.9 29.835 28.185 29.97 25.125H33.675C33.476 26.79 32.853 28.3761 31.8654 29.7313C30.8779 31.0865 29.559 32.1655 28.035 32.865Z" fill="#141414"/>
</g>
</svg>
