<svg width="16" height="16" viewBox="0 0 16 16" fill="none" xmlns="http://www.w3.org/2000/svg">
<g clip-path="url(#clip0_6920_2074)">
<mask id="mask0_6920_2074" style="mask-type:luminance" maskUnits="userSpaceOnUse" x="0" y="0" width="16" height="16">
<path d="M0 0H16V16H0V0Z" fill="white"/>
</mask>
<g mask="url(#mask0_6920_2074)">
<path d="M8 0C3.58 0 0 3.58 0 8C0 12.42 3.58 16 8 16C12.42 16 16 12.42 16 8C16 3.58 12.42 0 8 0ZM14.45 7.25H11.98C11.88 5.21 11.4 3.39 10.69 2.09C12.72 3.02 14.19 4.95 14.45 7.25ZM8 14.5C7.07 14.5 5.7 12.24 5.52 8.75H10.48C10.3 12.24 8.93 14.5 8 14.5ZM5.52 7.25C5.7 3.76 7.07 1.5 8 1.5C8.93 1.5 10.3 3.76 10.48 7.25H5.52ZM5.31 2.09C4.59 3.4 4.11 5.21 4.02 7.25H1.55C1.82 4.95 3.29 3.02 5.31 2.09ZM1.55 8.75H4.02C4.12 10.79 4.6 12.61 5.31 13.91C3.28 12.98 1.81 11.05 1.55 8.75ZM10.69 13.91C11.41 12.6 11.89 10.79 11.98 8.75H14.45C14.3174 9.86001 13.902 10.9174 13.2436 11.8209C12.5853 12.7243 11.706 13.4437 10.69 13.91Z" fill="#F06C13"/>
</g>
</g>
<defs>
<clipPath id="clip0_6920_2074">
<rect width="16" height="16" fill="white"/>
</clipPath>
</defs>
</svg>
