<svg width="30" height="21" viewBox="0 0 30 21" fill="none" xmlns="http://www.w3.org/2000/svg" preserveAspectRatio="none">
<path d="M4.67638 5.11472C4.496 5.03048 4.61424 5.31186 4.34486 5.12494C4.32665 5.16382 4.30788 5.20314 4.28968 5.24239C4.38945 5.25235 4.48897 5.26255 4.58874 5.27253C4.61812 5.2197 4.64749 5.16716 4.67687 5.11472C4.67671 5.11472 4.67654 5.11472 4.67638 5.11472ZM5.92583 5.0437C5.64128 5.09109 5.56541 5.24333 5.30282 5.07916C5.40047 5.06612 5.49811 5.05297 5.59577 5.03979C5.52003 4.98139 5.4443 4.92309 5.36897 4.86562C5.40621 4.84495 5.44348 4.82437 5.4803 4.80383C5.31059 4.77766 5.14043 4.75184 4.97031 4.72588C4.99515 4.74893 5.02042 4.77237 5.04526 4.79558C4.90745 4.88686 4.86976 4.9717 4.8441 5.09615C4.80394 5.08525 4.76414 5.07434 4.72399 5.06347C4.79229 5.12629 4.86076 5.1896 4.92905 5.25315C4.9961 5.19794 5.07066 5.13668 5.13315 5.08623C5.39923 5.16678 5.25114 5.31105 5.19564 5.38713C5.11989 5.48894 5.24641 5.46552 5.19345 5.54104C5.18517 5.55309 5.086 5.55445 5.08432 5.57833C5.07646 5.69948 5.12902 5.93345 5.36043 5.79706C5.33062 5.59633 5.51645 5.43077 5.44856 5.2335C5.71614 5.28525 5.80719 5.18169 5.92583 5.0437ZM5.07382 8.69038C5.20378 8.6303 5.15133 8.50711 5.06113 8.4245C5.06113 8.4244 5.06113 8.42431 5.06113 8.42421C5.04126 8.40597 4.86855 8.36465 4.87559 8.42421C4.88765 8.52113 5.15951 8.56851 4.97495 8.61958C5.00931 8.64246 5.03988 8.66646 5.07382 8.69038ZM5.05771 8.90125C5.12436 8.96126 5.3292 8.93351 5.27376 8.85933C5.27393 8.85933 5.27409 8.85933 5.27425 8.85933C5.25107 8.82825 5.08916 8.88931 5.2535 8.77779C5.12564 8.755 5.00932 8.73255 4.8856 8.70999C4.88353 8.73735 4.88018 8.76229 4.87852 8.79094C5.08868 8.77166 4.99159 8.84191 5.05771 8.90125ZM5.24471 5.89722C5.05564 5.90659 5.05684 5.86734 4.92564 5.80103C4.93185 5.8636 4.93847 5.92652 4.94468 5.98945C5.04482 5.95853 5.14458 5.92799 5.24471 5.89722ZM5.21542 4.4144C5.21542 4.41431 5.21542 4.41422 5.21542 4.41412C5.24522 4.39368 5.27514 4.37341 5.30453 4.35323C5.23705 4.3406 5.16986 4.32814 5.10239 4.31557C5.16572 4.24126 5.22906 4.16764 5.29281 4.09559C5.08669 4.10412 5.12023 4.23436 4.97617 4.30815C5.03827 4.41705 5.15791 4.46618 5.3326 4.47368C5.2937 4.45393 5.25431 4.43428 5.21542 4.4144ZM12.4239 19.0808C12.4365 19.1419 12.4492 19.2031 12.4628 19.2642C12.4241 19.2828 12.3866 19.2951 12.3461 19.3172C12.3118 19.0551 12.2555 19.2678 12.1433 19.2247C11.7997 19.0868 12.0126 18.7454 11.5313 19.1884C11.7941 19.2423 11.6172 19.4651 11.7229 19.7086C11.7967 19.5678 11.7386 19.1862 11.8624 19.1457C11.9947 19.3542 12.1337 19.5478 12.3219 19.6968C12.3102 19.7218 12.2984 19.7469 12.2866 19.7719C12.2566 19.7481 12.2271 19.7241 12.1975 19.7C12.2175 19.7784 12.2377 19.856 12.2599 19.9352C12.2472 19.7654 12.3479 19.8801 12.37 19.6927C12.3798 19.6094 12.3525 19.4851 12.3402 19.4006C12.426 19.3748 12.511 19.3515 12.596 19.3246C12.5684 19.2516 12.5424 19.1785 12.5175 19.1054C12.4865 19.097 12.4556 19.089 12.4246 19.0802C12.4244 19.0804 12.4241 19.0806 12.4239 19.0808ZM28.1297 20.1219C28.0387 19.9273 27.8703 19.8951 27.7804 20.1116C27.8984 20.1149 28.0148 20.1186 28.1297 20.1219ZM5.47663 4.48066C5.44356 4.47025 5.41084 4.46018 5.37776 4.44981C5.31651 4.4956 5.25568 4.54206 5.19442 4.5886C5.29001 4.59753 5.38561 4.60668 5.48079 4.61591C5.47954 4.57058 5.47788 4.52529 5.47663 4.48066ZM5.3702 7.43706C5.37598 7.40329 5.37284 7.4003 5.35921 7.35828C5.35929 7.35833 5.35937 7.35837 5.35945 7.35842C5.35436 7.34197 5.29853 7.20187 5.22494 7.21753C5.2237 7.287 5.22494 7.36097 5.22494 7.43177C5.27335 7.43391 5.32137 7.43438 5.3702 7.43706ZM5.32723 6.62116C5.32707 6.62106 5.3269 6.62097 5.32674 6.62087C5.31556 6.59573 5.2928 6.57195 5.28866 6.54606C5.17283 6.63931 5.38063 6.65411 5.32186 6.73921C5.26266 6.82433 5.14801 6.8774 5.43269 6.94964C5.47533 6.92301 5.53633 6.8937 5.586 6.86599C5.47218 6.74477 5.5793 6.71227 5.69147 6.6156C5.56978 6.61747 5.44892 6.61929 5.32723 6.62116ZM10.7002 19.1386C10.731 18.9991 10.652 19.1156 10.6485 19.1159C10.6485 19.1161 10.6485 19.1163 10.6485 19.1165C10.495 18.9087 10.6447 19.2006 10.4413 19.1355C10.456 19.1805 10.4697 19.2271 10.4847 19.2723C10.5566 19.2296 10.6327 19.1783 10.7002 19.1386ZM5.69022 14.0243C5.6503 14.0338 5.61016 14.0429 5.57021 14.0523C5.61822 14.1799 5.47649 14.2648 5.65244 14.3261C5.66294 14.2243 5.67564 14.1237 5.69069 14.0241C5.69054 14.0242 5.69038 14.0242 5.69022 14.0243ZM5.66828 8.02204C5.74652 7.89338 5.78099 7.79824 5.6568 7.67459C5.65664 7.6745 5.65648 7.6744 5.65631 7.6743C5.64867 7.66717 5.56293 7.70167 5.54133 7.69236C5.55415 7.66684 5.57387 7.64049 5.58918 7.61471C5.52052 7.61121 5.45187 7.60788 5.38362 7.60439C5.40308 7.67697 5.42252 7.74959 5.44197 7.82236C5.40182 7.81162 5.36201 7.80061 5.32186 7.78987C5.30116 7.85164 5.28054 7.91319 5.25985 7.97496C5.37241 7.95348 5.48499 7.93205 5.59797 7.91083C5.62155 7.94788 5.64428 7.985 5.66828 8.02204ZM7.02409 15.738C6.97496 15.7459 6.93693 15.8222 6.88575 15.8163C6.83471 15.8098 6.86775 15.7103 6.77192 15.7937C6.78426 15.8419 6.79653 15.8935 6.80983 15.9428C6.53299 15.947 6.61763 15.6991 6.38117 15.851C6.52622 15.9401 6.56905 16.0612 6.59406 16.2274C6.76909 16.0893 6.84398 15.8628 7.06543 15.8121C7.05154 15.7879 7.03809 15.7617 7.02386 15.7386C7.02394 15.7384 7.02401 15.7382 7.02409 15.738ZM8.27435 2.59997C8.25738 2.52094 8.34843 2.33933 8.21844 2.23783C8.18641 2.21112 7.77146 2.13244 7.71676 2.13359C7.53255 2.13529 7.50747 2.23069 7.38743 2.12922C7.38618 2.16241 7.37927 2.1966 7.37596 2.23369C7.25218 2.22704 7.12873 2.22049 7.00537 2.21425C7.024 2.16913 7.04272 2.13229 7.06176 2.08302C7.02078 2.08079 6.9797 2.07858 6.93872 2.07638C6.93789 2.23733 6.77971 2.13984 6.63234 2.22268C6.55784 2.15047 6.4837 2.06684 6.40921 2C6.41831 2.03797 6.42506 2.09063 6.43582 2.13214C6.22595 2.13767 6.27599 2.04087 6.23709 2.02833C6.01729 1.93847 6.12823 2.38806 5.82281 2.42455C5.78887 2.34988 5.75575 2.28161 5.72223 2.20403C5.68456 2.22497 5.64687 2.24692 5.6092 2.26929C5.81985 2.42892 5.89448 2.62647 6.02568 2.81242C6.01699 2.83003 6.00808 2.84788 5.9998 2.86559C5.90504 2.86033 5.81064 2.85536 5.71588 2.85014C5.7047 2.8767 5.69361 2.90634 5.68244 2.93057C5.99454 2.85599 5.99028 2.95696 6.1807 3.08899C6.29038 3.01836 6.22389 2.93575 6.42825 2.94152C6.27102 3.17904 6.49322 3.45419 6.3157 3.68649C6.27183 3.74632 6.0082 3.74235 6.03252 3.87692C6.06149 3.87235 6.11381 3.87157 6.1519 3.86862C6.02563 4.10555 5.95016 4.2436 6.0789 4.48451C5.98415 4.47061 5.889 4.45697 5.79425 4.44314C5.84144 4.39239 5.88938 4.34194 5.93657 4.28956C5.78011 4.25445 5.71105 4.30558 5.71271 4.15258C5.71395 4.02836 5.78304 4.10235 5.8294 4.06868C5.8927 4.02446 5.76818 3.98102 5.83892 3.93129C5.89315 3.8927 6.02225 3.93401 5.98955 3.83412C5.82231 3.87412 5.64961 3.91537 5.4803 3.95649C5.51797 3.98126 5.55622 4.00601 5.59431 4.03108C5.63901 4.00573 5.68313 3.98096 5.72784 3.95591C5.64754 4.04632 5.5718 4.12375 5.4886 4.21478C5.73036 4.18539 5.63971 4.27865 5.61115 4.33029C5.56649 4.40952 5.73287 4.34195 5.70514 4.39295C5.67698 4.44378 5.49109 4.49875 5.53083 4.59264C5.63844 4.54233 5.73495 4.61077 5.83428 4.59755C5.93361 4.58419 5.95561 4.48527 6.06401 4.58038C5.98163 4.76462 5.60335 4.56439 5.54206 4.68926C5.46838 4.83498 6.08501 4.87083 6.21757 4.82676C6.32189 4.79186 6.30091 4.67515 6.40481 4.6385C6.59233 4.85213 6.22214 4.85299 6.1497 4.88984C5.88602 5.02286 6.58979 4.93478 6.33524 5.09133C6.46684 5.08841 6.58521 5.08604 6.71144 5.08312C6.68743 5.10993 6.65553 5.12777 6.63649 5.16036C6.38006 5.06444 6.39105 5.14284 6.39065 5.18331C6.38982 5.2471 6.26475 5.14859 6.23246 5.16549C6.14605 5.2109 6.18529 5.28336 6.07231 5.23895C6.12488 5.25885 6.17761 5.28047 6.22977 5.30102C6.16426 5.37709 5.61496 5.5512 5.72589 5.38495C5.5218 5.40129 5.6199 5.45407 5.65094 5.49615C5.68196 5.53809 5.55199 5.53732 5.576 5.57433C5.67204 5.72199 5.89437 5.62536 6.06865 5.60195C5.9486 5.79689 5.86918 5.60764 5.78888 5.88695C5.64689 5.91394 5.49537 5.78492 5.41341 5.89237C5.66008 5.91225 5.83728 5.99115 5.91924 6.14743C5.86253 6.16259 5.80531 6.17732 5.74859 6.19231C5.97628 6.27654 6.21304 6.23319 5.93071 6.38984C6.45023 6.30577 6.11787 6.36327 6.32938 6.50422C6.37201 6.53286 6.4798 6.46668 6.53444 6.50667C6.55909 6.52495 6.47773 6.56848 6.54055 6.61231C6.57159 6.6337 6.77191 6.73395 6.67677 6.8037C6.42508 6.75257 6.21096 6.88499 6.00273 6.77144C6.05406 6.98192 5.93322 7.12757 6.2764 6.89315C6.35257 6.94678 6.42842 6.99937 6.50417 7.0526C6.44415 7.08962 6.38459 7.127 6.32498 7.16436C6.53184 7.17003 6.58987 7.16423 6.55349 7.31064C6.60231 7.24709 6.65195 7.18388 6.70118 7.12026C6.74296 7.11811 6.78637 7.10926 6.82691 7.11138C6.74746 7.18929 6.71326 7.40911 6.65822 7.46209C6.60316 7.51525 6.58809 7.4126 6.53469 7.42791C6.09433 7.5554 6.41911 7.54532 6.34354 7.63691C6.29883 7.69068 6.25028 7.56231 6.23124 7.59107C6.16144 7.69772 6.39548 7.7472 6.39846 7.84169C6.26562 7.80812 6.13071 7.77482 5.99663 7.74206C6.00367 7.84117 6.00485 7.95169 5.96221 8.0438C5.94556 8.07995 5.84676 8.05263 5.84014 8.05853C5.8062 8.08775 5.75243 8.2072 5.75201 8.21982C5.75122 8.31493 5.88807 8.31765 5.89556 8.40992C5.90715 8.37371 5.91759 8.33963 5.92876 8.30418C6.15062 8.28807 6.37247 8.27162 6.59474 8.2555C6.61089 8.34609 6.6267 8.43644 6.64284 8.52716C6.56875 8.46081 6.49501 8.39445 6.42093 8.32809C6.24168 8.43175 6.06203 8.53519 5.88238 8.63923C5.99249 8.69329 6.10257 8.74706 6.21268 8.80094C6.18364 8.94703 5.73666 8.91791 6.12821 8.98763C6.09511 9.03101 6.06203 9.07431 6.02934 9.11751C6.08521 9.11134 6.14119 9.10523 6.19706 9.09905C6.1627 9.15117 6.12856 9.20313 6.09379 9.25498C5.89594 9.20047 5.68773 9.14688 5.49568 9.09261C5.45268 9.19513 5.62053 9.19695 5.66242 9.21222C5.77336 9.25251 5.62371 9.33301 5.72638 9.36556C5.76163 9.37655 5.87212 9.2754 5.99956 9.31026C6.02426 9.31713 6.49272 9.45246 6.38455 9.53801C6.29968 9.53641 6.19563 9.52979 6.10331 9.5263C6.05177 9.6415 6.49475 9.69971 6.61891 9.68463C6.53199 9.74678 6.52472 9.83694 6.38894 9.84954C6.38563 9.881 6.38249 9.91214 6.37918 9.94343C6.70986 9.91089 6.6494 10.0412 6.36502 10.0496C6.35798 9.99615 6.35057 9.9424 6.34354 9.88847C5.99498 9.92924 5.78459 9.76543 6.10746 10.1062C6.28878 10.1719 6.08276 9.98951 6.21854 10.0429C6.29757 10.1359 6.23145 10.2234 6.35769 10.3107C6.51541 10.42 6.6671 10.2833 6.46633 10.5403C5.96337 9.97805 6.12656 10.6178 5.97051 10.8812C6.46727 10.9538 6.62462 11.1782 6.47683 11.4824C6.33857 11.4493 6.4098 11.3556 6.36429 11.2996C6.31876 11.2439 6.23673 11.3043 6.17216 11.2347C6.1076 11.1635 6.01983 11.0186 5.92217 10.9482C5.84392 11.0072 5.65892 11.3002 5.88116 11.1057C6.01815 11.252 6.15893 11.3196 6.18461 11.4982C5.96894 11.5524 5.83465 11.5501 5.82842 11.7231C6.12811 11.6212 6.3364 11.8167 6.64601 11.7736C6.5739 11.6519 6.27298 11.72 6.12895 11.649C6.11455 11.6419 6.18999 11.5258 6.18461 11.4982C6.45493 11.6166 6.55555 11.6561 6.8772 11.5843C6.84905 11.6672 6.88943 11.7175 6.73585 11.7249C6.80248 11.7418 6.86916 11.7588 6.93579 11.7753C6.93413 11.8024 6.92796 11.8274 6.9292 11.8562C6.69753 11.8164 6.84015 11.8937 6.73512 11.9475C6.62997 12.0009 6.44709 11.9301 6.4446 12.0754C6.39038 12.0273 6.34385 11.9827 6.29251 11.9349C6.23291 12.0297 6.17293 12.1253 6.11332 12.2222C5.97177 12.1544 5.76151 12.0078 5.57526 12.0127C5.64558 12.054 5.522 12.2092 5.51692 12.2249C5.49787 12.2887 5.61533 12.2539 5.61823 12.2587C5.64143 12.2993 5.6486 12.3363 5.66088 12.3684C5.67882 12.4234 5.7085 12.4664 5.81465 12.4889C5.73637 12.5742 5.78484 12.6364 5.78596 12.7241C5.78677 12.7725 5.65584 12.773 5.68279 12.8002C5.86635 12.9796 6.00951 12.7713 5.73854 13.1772C5.64185 13.1459 5.54344 13.1137 5.44646 13.0782C5.41776 13.1261 5.38938 13.1741 5.3619 13.2236C5.38264 13.2509 5.40364 13.2776 5.42474 13.3043C5.61954 13.2721 5.81474 13.2398 6.00957 13.2078C6.02487 13.235 6.0401 13.2622 6.05581 13.2889C6.06618 13.2363 6.0773 13.184 6.08922 13.1321C6.12291 13.1225 6.15668 13.1133 6.19041 13.1039C6.25414 13.1674 6.31945 13.228 6.38572 13.2863C6.31849 13.3005 6.2508 13.3147 6.1836 13.3289C6.30939 13.4712 6.36574 13.4558 6.21939 13.6526C6.25062 13.767 6.00294 13.9417 5.91011 14.0503C5.95482 14.0644 6.00002 14.0778 6.04484 14.0911C5.99574 14.1248 5.94716 14.159 5.8985 14.1936C5.98475 14.2008 6.07102 14.2071 6.15651 14.2116C5.9928 14.2889 5.94275 14.3195 5.83925 14.212C5.64021 14.3277 5.81763 14.5272 5.92461 14.587C6.00521 14.6332 6.14787 14.4875 6.1726 14.4878C6.25501 14.4861 6.23815 14.6178 6.26004 14.6351C6.35007 14.7074 6.37169 14.7759 6.44908 14.8403C6.4644 14.8529 6.59243 14.844 6.59755 14.8458C6.63006 14.8656 6.71742 14.9089 6.72306 14.9158C7.02336 15.277 6.32753 15.0931 6.60026 15.4528C6.53526 15.4765 6.47105 15.5006 6.40587 15.5238C6.42035 15.556 6.43546 15.5883 6.45045 15.6203C6.52214 15.6281 6.58095 15.528 6.55719 15.6462C6.62473 15.5966 6.69237 15.547 6.75961 15.4977C6.74109 15.5528 6.72259 15.6068 6.7057 15.6635C6.98106 15.556 7.15301 15.6885 7.42256 15.4788C7.5135 15.4071 7.53461 15.2283 7.67695 15.2167C7.72946 15.2496 7.59385 15.297 7.60139 15.3206C7.65965 15.4901 7.81099 15.3659 7.81052 15.452C7.75068 15.5108 7.69016 15.5713 7.63038 15.6314C7.66619 15.6382 7.70203 15.6446 7.73794 15.6509C7.69775 15.6903 7.65778 15.73 7.6178 15.7695C7.59886 15.7515 7.578 15.7308 7.56058 15.7142C7.40682 15.8722 7.53082 16.179 7.59795 15.9691C7.62533 15.8845 7.54725 15.8374 7.78074 15.72C7.80142 15.8049 7.8304 15.8989 7.85806 15.9874C7.90152 15.9535 7.9449 15.9194 7.98829 15.8854C8.03491 15.9934 7.80227 16.0614 7.71238 16.1377C7.72756 16.1603 7.74317 16.1826 7.75852 16.205C7.80605 16.1782 7.85493 16.1491 7.9013 16.1235C7.83857 16.1806 7.70143 16.3238 7.81041 16.3346C7.88045 16.3403 7.98371 16.1364 8.02731 16.2273C7.92582 16.3125 7.78194 16.3953 7.82777 16.5062C7.93579 16.4193 8.03787 16.3428 8.14849 16.2483C8.14517 16.4364 8.33829 16.3283 8.34273 16.547C8.34449 16.6844 8.21858 17.0391 8.62235 16.6827C8.68548 16.7198 8.58059 16.8046 8.57711 16.8413C8.5618 17.016 8.78482 16.8719 8.80807 16.8719C8.96062 16.8743 8.94735 16.9759 9.09711 16.9413C9.03213 17.0161 8.97217 17.0881 8.90933 17.1614C8.92952 16.9887 8.89108 16.9672 8.77353 16.9111C8.79326 16.9534 8.81318 16.9961 8.83382 17.0383C8.77792 17.0964 8.72192 17.1543 8.6662 17.212C8.56344 16.7142 8.30277 17.1499 8.50484 17.458C8.62157 17.3612 8.73783 17.2644 8.85248 17.1651C8.86549 17.4615 9.06024 17.3636 9.26245 17.4495C9.28633 17.4599 9.31516 17.5839 9.34676 17.6102C9.34588 17.6103 9.345 17.6104 9.34412 17.6105C9.28662 17.741 9.22187 17.7752 9.14778 17.8765C9.15784 17.9023 9.1681 17.9281 9.17845 17.9539C9.27415 17.9027 9.3021 17.8274 9.37283 17.9007C9.30982 17.9733 9.24661 18.0457 9.18294 18.1179C9.27541 18.1821 9.39212 18.1335 9.45677 18.2256C9.46071 18.1858 9.46508 18.1461 9.4694 18.1064C9.70749 18.1442 9.84534 17.5732 9.84212 17.8958C9.87579 17.859 9.90935 17.8215 9.94276 17.7845C9.89209 17.7409 9.84179 17.6972 9.79252 17.6529C9.82756 17.5933 9.86238 17.5339 9.89769 17.4745C9.9451 17.528 9.99331 17.5817 10.0424 17.6343C10.0223 17.5689 10.0029 17.5034 9.98461 17.4381C10.069 17.4505 10.1532 17.4615 10.2371 17.4713C10.0384 17.6503 10.1174 17.7313 9.9753 17.9399C10.2076 17.8306 10.4293 17.6381 10.5436 17.8938C10.5664 17.9444 10.4684 18.0927 10.6732 17.9542C10.5235 18.1929 10.6117 18.3801 10.4813 18.6126C10.4448 18.5814 10.4053 18.5537 10.372 18.5201C10.4582 18.4592 10.5736 18.233 10.5405 18.1332C10.4989 18.0065 10.2971 18.1005 10.4317 17.8526C10.393 17.8475 10.3592 17.8386 10.3224 17.8316C10.3025 17.9002 10.2824 17.9692 10.2629 18.038C10.2222 17.8925 10.1503 17.8934 10.0201 18.0226C10.1099 18.1192 10.2021 18.2137 10.2975 18.307C10.2754 18.3092 10.253 18.3113 10.231 18.313C10.236 18.5175 10.0674 18.6243 10.2181 18.7419C10.2533 18.6675 10.2888 18.5931 10.3242 18.5183C10.2865 18.7456 10.4582 18.8245 10.2968 19.0287C10.3822 18.9825 10.4126 18.9422 10.386 19.0802C10.6053 18.9681 10.7847 18.7788 10.8524 18.4919C10.882 18.5555 10.9131 18.6193 10.9445 18.6827C10.8858 18.7446 10.8265 18.8056 10.7665 18.8666C10.8563 18.899 10.9471 18.9304 11.0371 18.9602C11.13 18.7445 10.8946 18.8273 11.0233 18.6523C11.0489 18.6171 11.0617 18.7194 11.0827 18.7021C11.3033 18.5122 11.0364 18.6074 11.1464 18.4388C11.3551 18.4544 11.3206 18.0895 11.4791 18.4428C11.5086 18.3813 11.539 18.3186 11.5676 18.2571C11.6555 18.2836 11.5986 18.4261 11.6659 18.4792C11.7092 18.5126 11.8501 18.2751 11.8479 18.4663C11.8483 18.5015 11.6573 18.788 11.8569 18.8329C12.0119 18.8661 12.0124 18.6241 12.1139 18.5667C12.2122 18.5087 12.3211 18.8677 12.458 18.5234C12.4058 18.5612 12.3464 18.5739 12.2908 18.6011C12.2892 18.5273 12.2883 18.4545 12.2878 18.3813C12.3685 18.4969 12.5009 18.4161 12.5353 18.5971C12.7276 18.3735 12.837 18.6367 12.744 18.918C12.7031 18.8676 12.7787 18.7516 12.6972 18.8193C12.6778 18.8851 12.6578 18.9505 12.638 19.0163C12.7564 19.0304 12.836 19.0449 12.8186 18.8309C12.837 18.829 12.8553 18.8271 12.8736 18.825C12.8523 18.9742 12.8308 19.124 12.81 19.2732C12.8295 19.2936 12.8492 19.3138 12.869 19.334C12.8988 19.3051 12.9286 19.2757 12.9585 19.2461C12.9583 19.0049 12.9077 18.9907 13.1065 18.8833C13.0964 18.965 13.0865 19.0465 13.0764 19.1283C13.2462 19.0437 13.269 18.8462 13.4574 18.8699C13.3396 18.5734 13.2097 19.0678 13.2735 18.4978C13.2349 18.5314 13.1954 18.5651 13.1556 18.5979C13.1609 18.5147 13.1664 18.4314 13.1723 18.3482C13.3375 18.4165 13.6217 18.9864 13.7674 18.6265C13.7812 18.6713 13.7954 18.7103 13.8099 18.7582C13.879 18.6439 13.9222 18.7278 13.9705 18.7898C14.012 18.8449 14.0555 18.883 14.118 18.7499C14.1317 18.7201 14.1029 18.2582 14.2785 18.2748C14.2744 18.3348 14.2723 18.4359 14.2689 18.5116C14.3045 18.4748 14.3406 18.4362 14.3773 18.3986C14.3839 18.454 14.3909 18.5094 14.3976 18.5653C14.3326 18.5868 14.278 18.6087 14.2089 18.6302C14.2677 18.6493 14.3124 18.6683 14.3661 18.6874C14.2982 18.778 14.269 18.779 14.3089 18.9242C14.3668 18.9329 14.4267 18.9421 14.4882 18.9508C14.4946 18.988 14.5009 19.0256 14.5073 19.0628C14.4773 19.1738 14.4474 19.2823 14.4183 19.3949C14.5817 19.3042 14.7067 19.2993 14.8311 19.0812C14.8521 19.0443 14.7777 18.8998 14.921 19.0301C14.923 18.9536 14.9266 18.8914 14.929 18.8207C15.0934 19.0351 15.1537 18.9711 15.3321 18.8163C15.2188 18.9607 15.3205 18.8668 15.3485 18.9442C15.368 18.9975 15.2919 18.9896 15.3005 19.0455C15.309 19.101 15.4082 19.3249 15.3234 19.3519C15.1042 18.8928 15.0562 19.4417 14.7754 19.221C14.818 19.2802 14.8616 19.3396 14.9055 19.3988C14.8848 19.4389 14.8664 19.4753 14.8443 19.5179C15.002 19.4281 14.9231 19.4864 14.9857 19.5572C15.0468 19.628 15.161 19.6881 15.24 19.7076C15.2648 19.7137 15.2386 19.6107 15.2947 19.6011C15.3303 19.5945 15.4298 19.7472 15.4532 19.5672C15.4686 19.4501 15.3064 19.1275 15.5308 19.1283C15.5734 19.0134 15.465 19.0491 15.4629 19.0353C15.4432 18.8986 15.5814 18.7959 15.6474 18.9003C15.6527 18.9093 15.601 19.0157 15.6572 19.0575C15.7886 19.1572 15.8598 19.0352 15.9452 18.87C15.9531 19.0637 16.0684 19.2951 16.202 19.2235C16.2088 19.2789 16.2154 19.3349 16.2222 19.3907C16.2014 19.3614 16.1806 19.3324 16.1599 19.3031C16.1378 19.3378 16.1123 19.3631 16.0893 19.4041C16.2276 19.4518 16.2441 19.7188 16.31 19.8165C16.5354 20.1502 16.3987 19.4443 16.358 19.3226C16.3287 19.3719 16.3006 19.4268 16.2718 19.4786C16.275 19.4111 16.2783 19.3431 16.2812 19.2752C16.6184 19.2773 16.3318 18.8372 16.5044 18.7118C16.5509 19.0438 16.6733 19.0758 16.8333 18.8651C16.851 18.8668 16.8689 18.8672 16.8867 18.8692C16.8897 18.9177 16.8896 18.9916 16.8945 19.0235C17.09 19.0798 17.1232 18.5686 17.1412 18.5201C17.2212 18.3053 17.2843 18.6026 17.3082 18.6051C17.409 18.6154 17.4385 18.4835 17.5358 18.5402C17.6398 18.6014 17.5687 18.7027 17.5999 18.7933C17.6247 18.8653 17.7051 18.8781 17.7386 18.9527C17.7253 18.8917 17.7106 18.8319 17.6974 18.7706C17.8034 18.6874 17.8908 18.6063 18.0135 18.5861C18.1528 19.0326 18.2657 18.2794 18.2194 18.8902C18.106 18.9321 18.0409 19.0017 17.9787 19.1573C18.0553 19.1772 18.1307 19.1965 18.2052 19.2164C18.2271 19.1494 18.2426 19.084 18.2685 19.0157C18.3245 19.1581 18.4555 19.097 18.5074 19.1388C18.7506 19.3346 18.6727 19.5774 18.8925 19.1693C18.7342 19.1295 18.7362 18.9313 18.5788 18.9586C18.6136 18.817 18.6921 18.8464 18.6412 18.6766C18.7914 18.7184 18.7429 18.87 18.8016 19.0045C18.8523 19.1205 18.955 19.127 18.9492 19.2777C18.9597 19.1948 18.9678 19.1146 18.9783 19.0318C19.0768 19.0327 19.1771 19.0327 19.2738 19.0335C19.232 18.947 19.1913 18.8604 19.1487 18.7743C19.1811 18.7416 19.2119 18.7091 19.2434 18.6764C19.483 18.9455 19.903 18.4523 19.8353 19.1283C19.9514 19.1498 19.966 19.065 20.0294 18.9371C20.0364 18.9884 20.0432 19.0311 20.0502 19.0882C20.1254 19.0345 20.1834 19.2272 20.2501 19.1771C20.317 19.1274 20.3331 18.9454 20.3427 19.2513C20.3855 19.1636 20.428 19.0907 20.4706 19.0091C20.4963 19.0786 20.522 19.1473 20.5475 19.2164C20.5877 19.18 20.6281 19.1437 20.6685 19.1073C20.6899 19.2533 20.8493 19.1903 20.9189 19.2884C20.985 19.131 20.983 18.6354 21.1388 18.7242C21.1348 18.8471 21.1308 18.9697 21.1268 19.0926C21.1625 19.067 21.1983 19.0414 21.2343 19.0157C21.2365 18.9756 21.2383 18.9355 21.2405 18.8954C21.2222 18.9078 21.2042 18.9201 21.1859 18.933C21.2018 18.8651 21.2173 18.7975 21.2329 18.7296C21.2875 18.8302 21.3422 18.9308 21.3971 19.0313C21.323 19.1075 21.249 19.1837 21.1752 19.2599C21.2679 19.3501 21.3325 19.2601 21.4133 19.3607C21.4837 19.191 21.4577 19.0932 21.4291 18.909C21.4553 18.9248 21.4817 18.9399 21.5076 18.9557C21.4904 18.7715 21.5349 18.6617 21.382 18.6766C21.3925 18.6241 21.4032 18.574 21.4135 18.5194C21.4385 18.5277 21.4549 18.4833 21.4822 18.5035C21.5567 18.559 21.6139 18.8825 21.6088 18.9959C21.606 19.0554 21.5325 18.9417 21.5355 19.0257C21.5427 19.2306 21.7113 19.1386 21.4682 19.3443C21.5489 19.4747 21.5669 19.3764 21.656 19.3387C21.649 19.407 21.6422 19.4748 21.6355 19.543C21.6768 19.5116 21.7182 19.4803 21.7595 19.4488C21.702 19.0982 22.007 18.9665 21.7325 18.6598C21.8136 18.6441 21.8945 18.6282 21.9754 18.6117C21.9588 18.5757 21.9421 18.54 21.9254 18.504C21.8888 18.5231 21.8525 18.5418 21.8159 18.5604C21.8589 18.4946 21.902 18.4292 21.945 18.3634C22.0468 18.445 22.0866 18.5704 22.133 18.7252C22.015 18.8382 22.0534 18.6839 21.9612 18.6532C21.9645 18.7512 21.9602 18.8414 21.9683 18.9444C22.016 18.7413 22.1711 18.8891 22.2071 18.899C22.3166 18.9292 22.2307 18.7297 22.3039 18.7255C22.3773 18.7213 22.4638 18.8401 22.5237 18.6422C22.5226 18.7531 22.5178 18.8679 22.5135 18.9689C22.6277 19.0053 22.605 18.8743 22.6168 18.8573C22.8054 18.5783 22.9078 18.8138 23.1234 18.8424C23.0961 18.8767 23.0684 18.9078 23.0407 18.94C23.2034 19.1755 23.0938 19.1034 22.9526 19.1812C23.085 19.1576 23.1607 19.3582 23.2542 19.4178C23.3479 19.4773 23.5083 19.3743 23.5668 19.294C23.4329 19.1649 23.2876 19.25 23.1392 19.2144C23.1561 19.1015 23.1725 19.0058 23.1899 18.8817C23.2803 19.1188 23.3331 18.9603 23.3629 18.9288C23.4505 18.8365 23.4478 19.0401 23.5007 18.8212C23.4985 18.8965 23.497 18.9598 23.4948 19.0301C23.6757 18.9987 23.87 18.8655 23.9883 19.1436C23.9991 18.9628 24.0072 18.7885 24.0195 18.6039C24.0962 18.74 24.1618 18.6006 24.2261 18.6324C24.2902 18.6643 24.2658 18.8105 24.3411 18.8668C24.355 18.8772 24.384 18.7857 24.4182 18.8531C24.4531 18.921 24.5817 19.4253 24.597 18.9847C24.6619 18.9826 24.7231 18.9665 24.7864 18.9591C24.7248 18.9342 24.6629 18.9102 24.6013 18.8854C24.654 18.7786 24.7064 18.6721 24.759 18.5653C24.7657 18.6605 24.7724 18.7575 24.7789 18.8514C24.9204 18.9673 25.0227 18.8117 25.1668 18.8485C25.1908 18.8547 25.1343 19.0429 25.2406 18.995C25.3469 18.947 25.4248 18.5956 25.6053 18.7313C25.6145 18.7384 25.6685 19.0074 25.7335 18.8212C25.7483 18.7789 25.686 18.7165 25.72 18.661C25.7541 18.6055 25.9052 18.5599 25.9169 18.4279C25.9153 18.4746 25.9059 18.5231 25.9013 18.5707C25.9271 18.593 25.953 18.6154 25.9789 18.6373C25.9814 18.555 25.9839 18.4725 25.9864 18.3905C26.1327 18.5822 26.2119 18.8948 26.4315 18.7914C26.3698 18.911 26.3078 19.0311 26.2458 19.1507C26.2288 19.0667 26.2117 18.9821 26.1949 18.8981C26.0919 18.9316 25.9932 18.9649 25.8916 18.9984C25.875 18.9028 25.8586 18.8074 25.842 18.7118C25.8151 18.7242 25.7885 18.7362 25.7615 18.7486C25.7683 18.8178 25.7751 18.8865 25.7821 18.9557C25.7288 18.9387 25.6752 18.9214 25.6219 18.9044C25.7307 19.3125 25.9236 18.8697 25.9096 19.211C25.9335 19.1581 25.9573 19.1047 25.9811 19.0514C25.9915 19.2169 26.0399 19.1692 26.1247 19.1432C26.1053 19.2247 26.0838 19.3052 26.066 19.3875C26.1476 19.2725 26.2985 19.2836 26.3842 19.2393C26.4221 19.2199 26.3843 19.0999 26.3955 19.0858C26.4534 19.0121 26.5632 19.2215 26.586 19.2049C26.7214 19.1064 26.8156 18.7094 26.9654 18.971C26.8098 19.0356 26.8944 19.0084 26.8389 19.1537C26.8215 19.1992 26.619 19.2942 26.8724 19.252C26.9032 19.2468 27.3559 18.9725 27.2066 18.7623C27.2814 18.8294 27.34 18.9069 27.408 18.9781C27.5737 18.4242 27.5162 18.9446 27.4682 19.231C27.4953 19.2323 27.5211 19.2352 27.5489 19.2352C27.4903 18.9342 27.7892 18.9156 27.8947 19.0675C27.9293 19.118 27.8325 19.2143 27.9125 19.2599C27.9506 19.2387 27.9936 19.2114 28.0334 19.1878C27.9756 19.3782 28.089 19.4516 28.0873 19.6453C28.1595 19.4727 28.2141 19.1069 28.1747 18.9086C28.2327 18.9888 28.2963 19.069 28.3566 19.1497C28.3284 19.1957 28.2997 19.2412 28.2713 19.2872C28.4731 19.1655 28.7171 19.4424 28.7621 19.0355C28.7887 19.0384 28.8154 19.0409 28.8417 19.0438C28.8499 19.1125 28.8577 19.1814 28.8659 19.2501C28.9857 19.1905 29.0977 19.1305 29.218 19.0709C29.1099 19.0283 29.0897 18.9304 28.9794 19.0099C29.0217 18.9308 29.0644 18.8514 29.1052 18.7723C29.2688 18.9851 29.2985 19.1249 29.543 19.0616C29.5512 19.0587 29.7455 18.8803 29.7511 18.8629C29.7809 18.7834 29.7357 18.668 29.749 18.6278C29.787 18.5152 30.005 18.2325 29.9999 18.1898C29.9537 17.6666 29.1975 17.6596 28.9996 17.6327C26.9043 17.3537 24.853 17.727 22.7714 17.6633C22.75 17.6623 22.7594 17.585 22.7503 17.5817C22.6936 17.5623 22.6379 17.6827 22.6169 17.6877C22.5721 17.6979 22.5968 17.5867 22.5641 17.5866C22.2262 17.5878 21.9068 17.6532 21.569 17.6342C21.5471 17.633 21.5695 17.7219 21.5309 17.7062C21.511 17.6976 21.4486 17.5611 21.4033 17.559C21.2454 17.552 21.1131 17.5957 20.9477 17.5937C20.8576 17.5924 20.7199 17.604 20.6186 17.602C20.5738 17.6011 20.5271 17.5386 20.4829 17.5365C20.4202 17.5337 20.433 17.6603 20.4234 17.6681C20.3811 17.7025 20.3753 17.5635 20.3352 17.5668C20.2605 17.5734 20.2559 17.6662 20.1605 17.6584C20.0922 17.6526 19.9366 17.5793 19.8514 17.5578C19.6527 17.6654 19.3965 17.6227 19.2121 17.5871C19.1018 17.566 19.0904 17.6959 19.0452 17.6955C18.8852 17.693 18.7653 17.527 18.6173 17.5217C18.4162 17.5146 18.2424 17.6244 18.0511 17.6322C18.0195 17.6335 18.0268 17.5145 17.9959 17.5114C17.8815 17.5002 17.7371 17.4786 17.6378 17.4955C17.5281 17.5142 17.4826 17.687 17.373 17.6518C17.3407 17.6413 17.3311 17.4898 17.2773 17.4704C17.1909 17.4398 17.0997 17.5734 17.0381 17.5883C16.9543 17.6082 17.0269 17.4538 16.9145 17.4745C16.9099 17.4754 16.8931 17.5858 16.8692 17.5805C16.7995 17.5656 16.8062 17.4787 16.7053 17.487C16.6953 17.4881 16.5635 17.5933 16.5482 17.5937C16.4672 17.5953 16.308 17.6321 16.2621 17.6098C16.0968 17.5303 16.2294 17.3644 16.0856 17.7245C16.0216 17.6364 15.9589 17.547 15.8928 17.4614C15.9366 17.5413 15.7584 17.6565 15.7467 17.6491C15.6449 17.5891 15.7042 17.4489 15.5704 17.4721C15.7479 17.7958 15.3966 17.5138 15.3244 17.5055C14.948 17.4654 14.6143 17.5462 14.2433 17.5441C14.158 17.5436 14.0592 17.515 13.9705 17.4952C13.9309 17.4842 13.892 17.4754 13.8561 17.4751C13.8326 17.4746 13.8484 17.5517 13.8274 17.5528C13.8064 17.5533 13.8322 17.468 13.8083 17.4718C13.662 17.4966 13.5257 17.6488 13.4087 17.4321C13.3988 17.4605 13.3965 17.4836 13.3817 17.5143C13.2915 17.3223 13.0408 17.5305 12.9466 17.5461C12.8039 17.572 12.7958 17.4442 12.6955 17.447C12.5634 17.4515 12.3096 17.6306 12.4972 17.271C12.4155 17.2364 12.3361 17.2099 12.2401 17.2189C12.2293 17.2199 12.2062 17.3182 12.2017 17.3189C12.1729 17.3252 12.192 17.2366 12.177 17.2275C12.136 17.2028 12.1758 17.3288 12.1213 17.2797C12.0926 17.2533 12.0982 17.1729 12.0076 17.1399C11.4594 16.9419 10.8662 16.6836 10.3513 16.3628C10.3161 16.3408 10.3922 16.2743 10.3458 16.2511C10.1856 16.1728 9.8268 16.1126 9.71842 15.9951C9.61095 15.8793 9.7293 15.7915 9.69557 15.6851C9.68925 15.6645 9.6479 15.7359 9.63446 15.726C9.54537 15.6597 9.3607 15.6629 9.28066 15.613C9.22783 15.5803 9.31986 15.4916 9.29664 15.4563C9.2621 15.4041 9.126 15.4499 9.09957 15.4286C8.97692 15.3283 8.98251 15.18 8.84949 15.1064C8.8745 15.0924 8.89665 15.0783 8.92071 15.0639C8.80792 14.9395 8.7016 14.8117 8.60248 14.6808C8.62785 14.6722 8.65321 14.6631 8.67882 14.6541C8.5577 14.5079 8.34124 14.6799 8.83637 14.3644C8.84624 14.3421 8.85857 14.3175 8.86769 14.2968C8.61981 14.4701 8.37059 14.4979 8.22671 14.4066C8.21537 14.3992 8.43492 14.1897 8.13663 14.37C8.20099 14.3108 8.24664 14.2721 8.30429 14.2217C8.19728 14.2467 8.09047 14.2688 7.98248 14.2898C7.98808 14.2669 7.99325 14.2442 7.99919 14.2216C8.05859 14.1878 8.12236 14.1567 8.1794 14.121C8.15289 14.0492 8.00907 13.9431 7.99303 13.8832C7.95119 13.7333 8.07557 13.5366 7.85159 13.492C7.85416 13.4329 7.99805 13.4443 7.95847 13.3731C7.89087 13.384 7.82604 13.3942 7.75614 13.4044C8.02886 13.2553 7.84845 13.2966 7.76435 13.2213C7.70778 13.1707 7.7713 13.1144 7.74573 13.0606C7.73921 13.0468 7.65226 13.0659 7.65313 13.0552C7.65505 13.0185 7.75981 12.9025 7.76009 12.8795C7.76101 12.6942 7.74395 12.5389 7.7204 12.3684C7.71667 12.3311 7.7125 12.2929 7.70797 12.2536C7.70466 12.2231 7.7925 12.2627 7.78878 12.231C7.78293 12.1799 7.64795 12.21 7.64132 12.1803C7.62361 12.0967 7.76595 12.095 7.7734 11.9822C7.7978 11.6033 7.69088 11.168 7.68136 10.7716C7.68136 10.7594 7.76476 10.7601 7.76558 10.7469C7.76966 10.6604 7.65693 10.5718 7.65817 10.4916C7.65982 10.358 7.77698 10.262 7.77657 10.1303C7.77616 9.87592 7.71617 9.64798 7.71285 9.38612C7.70996 9.1716 7.72108 8.98475 7.72066 8.75048C7.71901 7.72342 7.98372 6.67565 7.84297 5.64155C7.83925 5.61516 7.76557 5.62591 7.76876 5.61786C7.80063 5.5415 7.90005 5.53485 7.69186 5.50782C7.73289 5.41164 7.8893 5.38031 7.87813 5.26233C7.87227 5.19972 7.62984 5.24622 7.75484 5.14086C7.86785 5.04555 8.00071 5.15261 7.86494 4.86619C7.86121 4.85868 7.71344 4.82158 7.75191 4.76308C7.79 4.70378 7.89581 4.77431 7.92768 4.62952C8.00219 4.29635 7.87446 3.86849 7.91377 3.47926C7.91625 3.45867 7.99525 3.21561 8.03168 3.17373C8.10247 3.08288 8.21228 3.09976 8.23919 2.98404C8.25989 2.89913 8.1355 2.81557 8.16034 2.71393C8.16336 2.70199 8.29131 2.68263 8.27435 2.59997ZM12.7789 19.4008C12.781 19.5281 12.7522 19.9926 12.924 19.8746C12.9392 19.8633 12.9091 19.5384 12.9951 19.4992C12.9224 19.4556 12.85 19.4337 12.779 19.4003C12.7789 19.4004 12.7789 19.4006 12.7789 19.4008ZM5.32796 2.02322C5.35114 2.12247 5.37411 2.22254 5.39729 2.32264C5.45318 2.25753 5.50896 2.18165 5.56525 2.11758C5.4862 2.08361 5.40701 2.05231 5.32796 2.02322ZM6.02499 14.6627C6.02495 14.6626 6.02491 14.6625 6.02487 14.6624C6.01619 14.7946 6.01172 14.9286 6.01157 15.0637C6.04537 15.033 6.07945 15.0023 6.11353 14.972C6.13489 14.8573 6.1592 14.7443 6.18673 14.6336C6.13291 14.6437 6.079 14.6533 6.02499 14.6627ZM6.17434 13.6577C6.10661 13.6019 6.0254 13.6394 5.93268 13.6201C5.93284 13.62 5.933 13.62 5.93316 13.62C5.90896 13.6148 5.87874 13.5704 5.87136 13.5521C5.92667 13.5472 5.9817 13.5443 6.03666 13.5396C6.13173 13.3592 5.60295 13.0909 5.50175 13.58C5.56833 13.5588 5.6347 13.5382 5.70141 13.5174C5.72845 13.7452 5.93989 13.9345 6.17434 13.6577ZM14.4291 19.7007C14.6048 19.9284 14.6462 19.9764 14.8557 19.8204C14.8261 19.7558 14.7968 19.6913 14.7678 19.6268C14.734 19.6926 14.7008 19.758 14.6679 19.8238C14.6678 19.8238 14.6677 19.8238 14.6676 19.8238C14.661 19.7547 14.6544 19.6854 14.6481 19.6163C14.5798 19.6444 14.502 19.6726 14.4291 19.7007ZM5.84747 7.18628C5.39273 7.13955 5.65705 7.15292 5.55451 7.28667C5.51891 7.33299 5.43935 7.28784 5.4261 7.31667C5.35374 7.47168 5.65841 7.48414 5.81695 7.4495C5.82771 7.36181 5.83753 7.27294 5.84747 7.18657C5.84747 7.18647 5.84747 7.18638 5.84747 7.18628ZM5.94194 3.16002C5.94194 3.15992 5.94194 3.15982 5.94194 3.15972C5.83103 3.15559 5.80119 3.21735 5.69611 3.14724C5.69652 3.20084 5.6974 3.25218 5.69781 3.30664C5.70815 3.29076 5.718 3.27464 5.72833 3.25896C5.76642 3.2728 5.80499 3.28676 5.84307 3.30075C5.71558 3.31993 5.78969 3.33748 5.83233 3.39523C5.69614 3.37925 5.55985 3.36344 5.42366 3.34764C5.46422 3.41535 5.50492 3.47943 5.54548 3.54435C5.5798 3.54515 5.61418 3.54596 5.6485 3.54676C5.60464 3.57132 5.56029 3.59581 5.51643 3.62075C5.5574 3.62753 5.59801 3.63407 5.63898 3.64088C5.60794 3.67092 5.57693 3.70215 5.54548 3.73189C5.64474 3.74084 5.68763 3.67636 5.66242 3.79052C5.76424 3.7552 5.86576 3.72116 5.96758 3.68356C5.9593 3.50725 5.95064 3.33004 5.94194 3.16002ZM5.70758 8.40062C5.72662 8.20812 5.65469 8.26228 5.42952 8.3069C5.52222 8.33806 5.61488 8.3695 5.70758 8.40062ZM8.93885 17.6415C8.89556 17.8 8.85605 17.9586 8.82243 18.1159C8.877 18.2587 9.13562 18.0942 9.12073 17.9522C9.10495 17.7827 8.92708 17.8378 8.93885 17.6415ZM11.299 18.9641C11.1366 18.9813 11.2041 19.1998 11.2022 19.3118C11.2987 19.1645 11.3475 19.1976 11.4419 19.2079C11.362 19.17 11.3254 18.9607 11.2991 18.9636C11.2991 18.9638 11.299 18.9639 11.299 18.9641ZM7.1121 16.1275C7.07851 16.0769 7.07677 16.0037 7.00288 15.9916C6.89455 16.0924 7.0678 16.0999 6.8465 16.1682C6.86744 16.2022 6.88878 16.236 6.90977 16.2698C6.96571 16.1947 7.03957 16.18 7.11163 16.1277C7.11178 16.1276 7.11195 16.1276 7.1121 16.1275ZM5.53449 10.2674C5.70836 10.3769 5.63396 10.3957 5.5135 10.5079C5.65506 10.5236 5.89219 10.3907 5.94439 10.3094C5.80779 10.2955 5.67109 10.2816 5.53449 10.2674ZM26.6664 19.6827C26.6406 19.5022 26.4479 19.4787 26.351 19.5321C26.3625 19.5588 26.374 19.5859 26.3855 19.6131C26.4796 19.6363 26.5735 19.6595 26.6664 19.6827ZM11.4877 19.21C11.4713 19.2103 11.4561 19.2094 11.4419 19.2079C11.456 19.2146 11.4712 19.2163 11.4877 19.21ZM17.4715 18.839C17.4251 18.6689 17.5629 18.6117 17.3957 18.6783C17.3957 18.6782 17.3957 18.678 17.3957 18.6778C17.2856 18.7217 17.2616 18.7334 17.1611 18.7467C17.1972 18.9652 17.4013 19.0434 17.1203 19.0885C17.1167 19.0887 17.1239 18.9586 17.0794 18.9764C17.0658 18.9819 17.0194 19.0887 16.9506 19.1197C16.9284 19.1297 16.7614 19.1626 16.9892 19.1646C16.9824 19.317 16.9947 19.4712 16.9941 19.619C17.0852 19.6619 17.1491 19.3636 17.2422 19.3709C17.3799 19.3825 17.4515 19.6842 17.4783 19.2884C17.3601 19.1912 17.1619 19.1888 17.1365 19.4268C17.0268 19.4297 16.9909 19.2347 17.0833 19.1383C17.4681 19.2608 17.1869 18.8488 17.5298 19.0045C17.5339 19.0595 17.5481 19.1188 17.546 19.1705C17.6509 18.9768 17.4882 18.8998 17.4715 18.839ZM16.659 19.2599C16.7251 19.3762 16.7916 19.4934 16.8587 19.6102C16.8588 19.4206 16.8213 19.2504 16.7165 19.1436C16.6974 19.1825 16.678 19.2214 16.659 19.2599ZM22.3085 19.3097C22.3182 19.4127 22.344 19.5072 22.3628 19.6053C22.3832 19.5184 22.8669 19.435 22.6208 19.3497C22.585 19.3373 22.3671 19.5195 22.3085 19.3097ZM5.68976 9.50614C5.75889 9.56304 5.82814 9.6195 5.89727 9.6757C5.94112 9.5892 5.98613 9.50208 6.03081 9.41457C5.91715 9.44523 5.80342 9.47559 5.68976 9.50614ZM9.83892 18.0125C9.81554 18.0033 9.81566 18.1675 9.74217 18.0987C9.75941 18.2139 9.78167 18.3151 9.80428 18.4253C9.85613 18.3774 9.90767 18.3296 9.95879 18.2811C9.95281 18.3269 9.94747 18.3727 9.94194 18.4187C9.97947 18.3279 10.0171 18.2398 10.0555 18.1476C9.84964 18.2735 9.94041 18.052 9.83892 18.0125ZM7.52396 15.4499C7.33818 15.5554 7.33652 15.7691 7.21004 15.6513C7.115 15.7583 7.08656 15.8449 7.13828 15.9347C7.19086 15.9159 7.24293 15.8969 7.29517 15.8775C7.18295 15.9657 7.15629 16.0186 7.1121 16.1275C7.11226 16.1275 7.11242 16.1274 7.11259 16.1273C7.20265 16.2587 7.23499 16.2211 7.43991 16.1014C7.23456 16.0585 7.3986 15.919 7.43495 15.7568C7.46034 15.6454 7.37221 15.5915 7.52396 15.4499ZM21.7932 19.3072C21.9036 19.4864 21.8044 19.6536 22.0005 19.4632C21.9879 19.4177 21.9752 19.3725 21.9625 19.327C21.906 19.32 21.8496 19.3134 21.7932 19.3072ZM6.60879 15.3794C6.89902 15.2248 7.17008 15.1779 6.72704 15.4775C6.57649 15.4412 6.86355 15.3299 6.60879 15.3794ZM11.427 18.4633C11.2412 18.4113 11.1397 18.7685 11.155 18.9725C11.1908 18.9138 11.2264 18.8549 11.2613 18.7963C11.2839 18.8372 11.3069 18.8781 11.3304 18.9185C11.3615 18.7666 11.3938 18.6146 11.427 18.4633ZM6.10429 11.8141C5.86957 11.9647 5.97375 11.6531 5.8272 11.7571C5.71006 11.8405 5.94657 11.9515 6.09477 11.9096C6.09891 11.8808 6.10181 11.8484 6.10429 11.8144C6.10429 11.8143 6.10429 11.8142 6.10429 11.8141ZM6.04725 12.6902C5.79559 12.6799 5.86977 12.7122 5.909 12.5837C5.91624 12.5593 5.87227 12.4192 5.91055 12.3684C5.92646 12.3494 5.95627 12.3448 6.00952 12.3684C6.01631 12.3717 6.02348 12.3755 6.03106 12.3798C6.03126 12.4808 6.03824 12.5868 6.04725 12.6902ZM13.5819 19.291C13.5878 19.1827 13.3992 18.9288 13.3688 18.9853C13.3688 18.9852 13.3688 18.985 13.3688 18.9849C13.2808 19.1413 13.5019 19.1837 13.386 19.399C13.6178 19.2197 13.659 19.6966 13.6732 19.0679C13.5508 19.0342 13.6022 19.1664 13.5819 19.291ZM29.2164 19.1685C29.2165 19.1685 29.2166 19.1685 29.2167 19.1685C29.2014 19.1737 29.0893 19.334 29.1031 19.3895C29.237 19.3419 29.2169 19.2364 29.3444 19.4097C29.3514 19.3539 29.3574 19.2997 29.3649 19.2435C29.3142 19.2104 29.286 19.1433 29.2164 19.1685ZM22.8314 19.0895C22.7812 19.0609 22.6895 19.1792 22.6322 19.1722C22.8145 19.6267 23.0321 19.2029 22.8314 19.0895ZM5.92632 5.04328C5.92616 5.04342 5.92599 5.04356 5.92583 5.0437C5.92608 5.04366 5.92632 5.0436 5.92656 5.04356C5.92648 5.04347 5.9264 5.04337 5.92632 5.04328ZM18.9377 19.3621C18.9442 19.3326 18.9479 19.307 18.9492 19.2845C18.9492 19.2824 18.9492 19.2803 18.9492 19.2782C18.9457 19.3058 18.942 19.3337 18.9377 19.3621ZM14.023 19.3353C14.0597 19.2679 14.0254 19.1829 13.9705 19.1141C13.8957 19.0276 13.7872 18.9641 13.7346 18.9942C13.7385 19.064 13.7372 19.127 13.75 19.2073C13.8062 19.0866 13.9043 19.2028 13.9705 19.2797C13.998 19.3156 14.0187 19.3435 14.023 19.3353ZM7.995 16.7069C8.16255 16.8652 8.37239 16.2294 8.02579 16.5599C8.01926 16.5666 7.99103 16.7019 7.995 16.7069ZM12.2015 19.0497C12.1883 18.8587 12.3132 18.8408 12.1254 18.8252C12.1029 18.8681 12.0803 18.911 12.0576 18.9537C12.1051 18.9861 12.1531 19.0183 12.2015 19.0497ZM9.6179 17.0301C9.77688 17.2646 9.91493 17.5573 9.48952 17.8839C9.47949 17.8584 9.46905 17.8332 9.4593 17.8077C9.58919 17.5999 9.44977 17.6696 9.34751 17.6101C9.38806 17.5202 9.34764 17.4653 9.38489 17.3905C9.45732 17.2464 9.57929 17.1942 9.6179 17.0301ZM6.40115 6.54848C6.35934 6.55302 6.31731 6.55746 6.27591 6.56201C6.22872 6.60663 6.18176 6.65148 6.13456 6.69629C6.2148 6.68905 6.29503 6.6818 6.37527 6.67456C6.38396 6.63248 6.3927 6.59068 6.40139 6.54877C6.40131 6.54867 6.40123 6.54858 6.40115 6.54848ZM16.3811 18.743C16.4072 19.2032 16.3153 19.1185 16.137 18.8858C16.2171 18.8382 16.2987 18.7906 16.3811 18.743ZM6.85222 13.8369C6.72626 13.8724 6.60059 13.9075 6.4743 13.9419C6.57404 13.8066 6.72398 13.7832 6.90165 13.7715C6.88511 13.7932 6.86848 13.8149 6.85222 13.8369ZM6.67275 12.5531C6.70159 12.5889 6.59534 12.5748 6.59762 12.5786C6.65798 12.6713 6.70658 12.6785 6.63786 12.8017C6.61162 12.8186 6.58401 12.8356 6.55713 12.8531C6.27904 12.8252 6.42293 12.7702 6.25475 12.6597C6.34987 12.6763 6.44518 12.6913 6.54084 12.7054C6.51635 12.6426 6.49342 12.5792 6.47153 12.5143C6.50025 12.5057 6.52873 12.4971 6.5575 12.4888C6.59533 12.5107 6.63795 12.5325 6.67275 12.5531ZM6.28226 6.02905C6.2715 5.96276 6.26031 5.89648 6.24955 5.83086C6.31702 5.82846 6.38494 5.82615 6.45242 5.82375C6.39572 5.89173 6.33896 5.96034 6.28226 6.02905ZM17.7386 18.9527C17.7438 18.9767 17.7489 19.0008 17.7534 19.0252C17.753 18.9954 17.7473 18.9721 17.7386 18.9527ZM29.3925 18.7984C29.4688 18.7513 29.5693 18.7822 29.6561 18.7723C29.6464 18.9416 29.4433 18.8948 29.3689 18.9974C29.3571 18.967 29.3609 18.8183 29.3925 18.7984ZM11.1715 18.3823C11.1852 18.2969 11.1994 18.2121 11.2144 18.1271C11.1703 18.1191 11.1259 18.1111 11.0815 18.1023C11.1071 18.0381 11.1331 17.9733 11.1588 17.9092C11.3007 18.0656 11.3368 17.864 11.4929 17.7144C11.3872 17.9375 11.2803 18.1601 11.1715 18.3823ZM6.72071 3.9258C6.67394 4.07481 6.58657 4.1219 6.37918 4.0423C6.42677 3.99072 6.4744 3.93758 6.52199 3.88637C6.58821 3.89956 6.6545 3.9128 6.72071 3.9258ZM20.3863 18.7965C20.5075 18.874 20.5095 18.5957 20.6283 18.7511C20.5647 18.8024 20.5011 18.8543 20.4379 18.9056C20.4209 18.8693 20.4034 18.8328 20.3863 18.7965ZM14.4191 18.0321C14.4701 17.9353 14.5714 18.3956 14.7108 18.0558C14.745 18.1572 14.7667 18.2541 14.7967 18.3534C14.8141 18.2454 14.8341 18.1359 14.851 18.0287C14.8511 18.0287 14.8512 18.0287 14.8512 18.0287C14.9867 18.0651 14.899 18.2006 14.9019 18.3153C14.9052 18.3629 14.9978 18.2834 14.9687 18.3868C14.9219 18.5644 14.716 18.4623 14.7181 18.6788C14.7858 18.6081 14.9252 18.6672 14.8841 18.8116C14.8385 18.9702 14.71 18.7045 14.6322 18.836C14.7447 18.49 14.5133 18.5969 14.4813 18.8627C14.3385 18.6586 14.472 18.5753 14.6147 18.5848C14.5304 18.3812 14.6544 18.4912 14.6757 18.3219C14.5934 18.2197 14.2721 18.3049 14.4191 18.0321ZM8.80635 16.2761C8.86402 16.3474 9.04483 16.3513 8.98015 16.5217C8.94334 16.6221 8.7823 16.5861 8.75648 16.7712C8.69645 16.6995 8.72194 16.6395 8.82429 16.5461C8.81987 16.5202 8.81501 16.4944 8.81054 16.4688C8.78564 16.4827 8.76073 16.496 8.73571 16.5097C8.76551 16.4603 8.79516 16.4113 8.82553 16.3623C8.80221 16.3563 8.7787 16.35 8.7551 16.344C8.77254 16.3213 8.78619 16.3002 8.80635 16.2761ZM23.8782 18.805C23.8512 18.8034 23.8246 18.8017 23.7978 18.7997C23.8008 18.7661 23.8043 18.7311 23.8077 18.6966C23.8101 18.6694 23.8125 18.6421 23.815 18.6149C23.7995 18.7123 23.6718 18.8741 23.6179 18.7701C23.5908 18.718 23.6525 18.5327 23.5376 18.5004C23.6209 18.5099 23.6979 18.5352 23.7786 18.5509C23.7713 18.4958 23.7644 18.4402 23.7571 18.3851C23.7572 18.3851 23.7572 18.385 23.7573 18.3849C23.7841 18.3725 23.8111 18.3595 23.838 18.3471C23.8515 18.4998 23.8647 18.6523 23.8782 18.805ZM7.12025 13.8229C7.04491 13.9354 7.00339 13.9836 6.82496 14.0044C6.82485 14.0043 6.82474 14.0043 6.82463 14.0042C6.88639 13.9473 6.9489 13.8917 7.01218 13.8373C7.04818 13.8326 7.08425 13.8277 7.12025 13.8229ZM18.5283 18.3761C18.7247 19.0397 18.2829 18.6329 18.3672 18.4069C18.3709 18.3965 18.5098 18.4494 18.5283 18.3761ZM11.5291 18.2831C11.4821 18.2606 11.435 18.2381 11.3881 18.2146C11.4281 18.1426 11.4681 18.0708 11.5075 17.9984C11.5135 18.093 11.5207 18.1882 11.5291 18.2831ZM7.02197 4.55865C7.20412 4.61558 7.27011 4.7603 7.07202 4.83004C7.04883 4.7931 7.02562 4.75634 7.00244 4.71982C6.97968 4.78888 6.95463 4.8579 6.93311 4.92893C6.67934 4.9328 6.82656 4.85043 6.7566 4.72955C6.74532 4.71219 6.43032 4.58794 6.66774 4.54644C6.71654 4.53784 6.74972 4.66787 6.8916 4.5775C6.90277 4.61696 6.90029 4.65123 6.9065 4.68897C6.96694 4.69173 7.02744 4.69438 7.08788 4.69727C7.066 4.65089 7.04385 4.60461 7.02197 4.55865ZM9.19085 16.6328C9.29615 16.6991 9.24624 16.7878 9.15785 16.9461C9.12301 16.8936 9.08874 16.8412 9.05547 16.7883C9.10066 16.7367 9.14551 16.6848 9.19085 16.6328ZM7.08007 5.74731C7.10938 5.82052 6.96352 5.78886 6.93579 5.81807C6.83149 5.92795 6.93573 6.00348 6.87037 6.11352C6.89852 6.10622 6.92483 6.09951 6.95215 6.09248C6.95215 6.09258 6.95215 6.09267 6.95215 6.09277C7.07508 6.60959 6.74429 6.33892 6.7981 6.02848C6.74387 6.0212 6.68957 6.01422 6.63576 6.00695C6.73055 5.86793 6.82177 5.74194 7.08007 5.74731ZM16.7968 18.3534C16.8028 18.3195 16.7525 18.1037 16.8468 18.2047C16.9216 18.5197 16.7988 18.3634 16.7685 18.4845C16.7938 18.5147 16.8199 18.5441 16.8452 18.5743C16.6927 18.6633 16.6716 18.5885 16.7264 18.3583C16.7303 18.3428 16.7909 18.3872 16.7968 18.3534ZM17.7999 18.1981C17.8206 18.6622 17.6293 18.4535 17.6365 18.3095C17.6627 18.3037 17.6832 18.3823 17.7112 18.3475C17.7394 18.3128 17.7466 18.2044 17.7999 18.1981ZM12.4633 18.1247C12.4692 18.1241 12.5637 17.946 12.524 18.0934C12.378 18.4309 12.3036 18.1719 12.3585 18.0559C12.3981 18.0725 12.4126 18.132 12.4635 18.1243C12.4634 18.1244 12.4634 18.1246 12.4633 18.1247ZM7.13134 3.68298C7.14429 3.68751 7.22268 3.82578 7.14989 3.84436C7.06794 3.85932 6.98011 3.86678 6.89527 3.87806C6.97392 3.80054 6.914 3.64392 7.13134 3.68327C7.13134 3.68317 7.13134 3.68308 7.13134 3.68298ZM3.70178 6.89343C3.809 7.04132 3.79326 6.88982 3.93867 7.12538C3.96095 7.12886 3.98368 7.13267 4.00594 7.13614C3.93778 7.06321 3.86985 6.9904 3.80169 6.91747C3.76829 6.90932 3.73489 6.90117 3.70143 6.89309C3.70155 6.8932 3.70166 6.89332 3.70178 6.89343ZM2.80105 6.02717C3.01383 6.21682 3.10423 6.23371 3.25021 6.45909C3.178 6.39319 3.10572 6.32739 3.03351 6.26149C3.07328 6.32883 3.11296 6.39625 3.15244 6.4633C3.12116 6.44193 3.08985 6.42052 3.05886 6.39944C3.17254 6.52576 3.28661 6.65234 3.40059 6.77894C3.38863 6.75577 3.37644 6.73222 3.36448 6.70905C3.48409 6.78434 3.53046 6.79127 3.57869 6.77934C3.60444 6.81037 3.62994 6.84116 3.65569 6.8722C3.62266 6.80864 3.58951 6.74496 3.55641 6.68146C3.4958 6.64726 3.42832 6.6093 3.3719 6.57735C3.20333 6.36962 3.34258 6.4398 3.3998 6.46106C3.47785 6.49015 3.38285 6.40622 3.43847 6.4255C3.44722 6.42846 3.51768 6.49825 3.52459 6.4937C3.55908 6.47034 3.5781 6.37699 3.38161 6.24621C3.35507 6.3149 3.18307 6.2241 3.18436 6.31882C3.00752 6.11726 2.91853 6.07748 2.80105 6.02717ZM4.27816 5.75499C4.17184 5.67752 4.17954 5.74399 4.22342 5.82768C4.22339 5.82771 4.22337 5.82773 4.22334 5.82775C4.23302 5.84618 4.34521 5.97823 4.35454 5.95895C4.36933 5.9271 4.18837 5.72359 4.33111 5.84186C4.31229 5.81209 4.29643 5.78472 4.27816 5.75499ZM4.34023 5.7157C4.3074 5.65428 4.15606 5.51591 4.17736 5.57303C4.17724 5.57291 4.17713 5.5728 4.17701 5.57268C4.18593 5.59655 4.31509 5.69637 4.17208 5.60696C4.25702 5.70284 4.33388 5.79048 4.41596 5.88338C4.42398 5.87828 4.43234 5.87466 4.44039 5.86895C4.28715 5.72498 4.37268 5.77676 4.34023 5.7157ZM3.4876 6.30387C3.62354 6.43531 3.61328 6.44388 3.69002 6.5527C3.70076 6.53317 3.71122 6.51334 3.7219 6.49388C3.64369 6.43048 3.56582 6.36727 3.4876 6.30387ZM3.15267 6.68023C3.15265 6.68025 3.15262 6.68027 3.1526 6.6803C3.12657 6.66418 3.10044 6.64801 3.07476 6.63212C3.11951 6.6828 3.16409 6.73323 3.20884 6.78391C3.14653 6.75665 3.08413 6.72949 3.02152 6.70193C3.1694 6.84555 3.17714 6.79038 3.29633 6.87491C3.27819 6.80523 3.20601 6.70821 3.08416 6.58302C3.1069 6.61529 3.13 6.64789 3.15267 6.68023ZM6.4289 2.47237C6.39438 2.51862 6.35975 2.56482 6.32523 2.61106C6.29901 2.6217 6.27721 2.62804 6.24799 2.64154C6.40305 2.44538 6.24578 2.59879 6.22966 2.56107C6.1805 2.44517 6.47515 2.19431 6.0011 2.51929C6.07995 2.56013 5.86923 2.72485 5.76071 2.90553C5.87825 2.80294 6.09073 2.51896 6.16647 2.49166C6.09173 2.64989 6.02338 2.79852 5.99447 2.92005C5.9741 2.93773 5.95366 2.95547 5.93328 2.97314C5.93794 2.9538 5.94273 2.93444 5.94739 2.91509C5.90438 2.97395 5.86163 3.03219 5.81817 3.09176C5.9236 2.96597 5.88494 3.05651 6.0143 2.92021C6.07189 2.85953 6.14245 2.76603 6.19218 2.70278C6.24037 2.6895 6.28642 2.67926 6.33392 2.66705C6.37189 2.6108 6.40991 2.5545 6.44794 2.49831C6.44193 2.48938 6.43557 2.48092 6.42956 2.47199C6.42934 2.47212 6.42912 2.47225 6.4289 2.47237ZM9.57137 6.84427C9.68678 6.68453 9.66927 6.62149 9.49498 6.75339C9.52054 6.78362 9.54581 6.81403 9.57137 6.84427ZM2.98399 6.47949C3.00487 6.50539 3.02558 6.53095 3.04646 6.55685C3.10085 6.58908 3.15501 6.62096 3.2094 6.65319C3.14394 6.58347 3.07851 6.5137 3.0134 6.44421C3.00352 6.45585 2.99387 6.46785 2.98399 6.47949ZM3.76808 5.84593C3.75589 5.84994 3.75739 5.85288 3.75693 5.87261C3.75689 5.87255 3.75684 5.87248 3.75679 5.87241C3.7564 5.88001 3.76239 5.95297 3.81816 6.00127C3.83566 5.98553 3.85251 5.96692 3.86952 5.94991C3.83581 5.91517 3.80196 5.88109 3.76808 5.84593ZM3.6028 6.07197C3.6029 6.07211 3.60299 6.07225 3.60308 6.07238C3.60494 6.08634 3.6153 6.10816 3.61199 6.11734C3.71636 6.17676 3.57298 6.02627 3.63496 6.04741C3.69724 6.06885 3.79093 6.1373 3.60695 5.91867C3.57036 5.89497 3.52029 5.85877 3.47853 5.83028C3.53003 5.93976 3.44648 5.87182 3.34391 5.81575C3.43041 5.90135 3.51631 5.98637 3.6028 6.07197ZM6.82583 2.6594C6.72078 2.56543 6.81224 2.66925 6.81278 2.67107C6.81291 2.67118 6.81303 2.67128 6.81316 2.67138C6.67192 2.62829 6.87463 2.72008 6.84384 2.78191C6.8756 2.7999 6.90864 2.81938 6.94063 2.83772C6.9032 2.77916 6.85971 2.71389 6.82583 2.6594ZM5.24066 4.26322C5.26919 4.29265 5.29769 4.32223 5.32622 4.35166C5.34732 4.3171 5.4685 4.42408 5.38773 4.29706C5.33842 4.28549 5.28933 4.27414 5.24032 4.26287C5.24043 4.26298 5.24055 4.2631 5.24066 4.26322ZM3.69759 5.49487C3.6114 5.47041 3.5642 5.46886 3.62238 5.58631C3.62247 5.58645 3.62256 5.58659 3.62265 5.58672C3.62635 5.59384 3.69524 5.6462 3.70829 5.6637C3.6931 5.66075 3.67285 5.65312 3.65584 5.64848C3.70356 5.69787 3.7513 5.7472 3.79872 5.7963C3.80236 5.76515 3.80602 5.734 3.80972 5.70279C3.83553 5.73376 3.86104 5.76454 3.88686 5.79551C3.91631 5.79533 3.94565 5.79515 3.97509 5.79497C3.89035 5.72053 3.8056 5.64606 3.72063 5.57126C3.71284 5.5457 3.70567 5.52073 3.69759 5.49487ZM5.3869 3.48276C5.41361 3.51927 5.4757 3.56322 5.49533 3.59805C5.5146 3.63253 5.44159 3.58755 5.53413 3.67352C5.55636 3.67528 5.58086 3.67828 5.60387 3.68043C5.73125 3.87495 5.55213 3.76279 5.75035 3.96205C5.73105 3.87832 5.78147 3.87577 5.86769 3.89962C5.70864 3.74314 5.54104 3.63793 5.41258 3.47019C5.40422 3.47445 5.3946 3.47809 5.38731 3.48303C5.38717 3.48294 5.38704 3.48285 5.3869 3.48276ZM0.554863 4.95206C0.547792 4.98313 0.439714 4.96244 0.507532 5.07845C0.524256 5.10703 0.797922 5.42019 0.8367 5.45877C0.967537 5.58845 1.00939 5.58206 1.06844 5.69277C1.07801 5.68497 1.09133 5.68142 1.1023 5.67514C1.18828 5.76421 1.27403 5.85304 1.35978 5.94175C1.33611 5.93908 1.31235 5.93635 1.28839 5.93339C1.31685 5.96288 1.34538 5.99244 1.37384 6.02194C1.41218 5.98477 1.50175 6.11891 1.62554 6.20353C1.66018 6.27424 1.69444 6.34483 1.72914 6.41548C1.73308 6.39867 1.74055 6.38167 1.74208 6.36491C1.8917 6.51208 1.8345 6.49853 1.85826 6.52977C1.99262 6.70626 2.02143 6.52056 2.24617 6.72775C2.25303 6.76888 2.25847 6.81028 2.26466 6.8515C2.29632 6.87312 2.32806 6.89468 2.35972 6.91629C2.25051 6.72759 2.24232 6.63025 2.19586 6.49116C2.20618 6.49311 2.21668 6.49523 2.22665 6.49696C2.29244 6.56519 2.35803 6.63309 2.42381 6.70132C2.43803 6.70291 2.45226 6.70436 2.46648 6.70595C2.22718 6.50388 2.25596 6.48111 2.15244 6.31535C2.05832 6.25434 2.08492 6.32179 1.94183 6.17587C2.10982 6.23023 2.01924 6.00657 2.20004 6.07682C2.24478 6.09412 2.43115 6.28058 2.44622 6.23113C2.42463 6.21174 2.38745 6.17493 2.35981 6.14871C2.50489 6.18219 2.59211 6.20171 2.55906 6.05269C2.62271 6.12304 2.68669 6.19362 2.75035 6.26397C2.70467 6.2429 2.65845 6.22133 2.61283 6.2002C2.7151 6.31921 2.7763 6.35566 2.73841 6.39121C2.70745 6.42042 2.6765 6.35366 2.63554 6.32906C2.5797 6.29538 2.65803 6.39315 2.59609 6.35504C2.54853 6.32591 2.46721 6.22466 2.4663 6.27181C2.59422 6.38041 2.72619 6.49266 2.85565 6.60266C2.83487 6.57016 2.81364 6.53729 2.79257 6.5045C2.75503 6.47881 2.71801 6.45344 2.68047 6.42775C2.75812 6.46366 2.8314 6.4975 2.91182 6.53475C2.73384 6.37082 2.82024 6.41261 2.85255 6.42069C2.903 6.43341 2.76919 6.33192 2.80117 6.33916C2.83345 6.34671 2.97823 6.46481 2.97248 6.41435C2.88441 6.35024 2.83247 6.2657 2.75908 6.19861C2.68569 6.13153 2.64649 6.13962 2.59255 6.04026C2.69448 6.05483 2.91457 6.36971 2.98741 6.38355C3.07494 6.40021 2.64735 5.95576 2.54306 5.87259C2.46098 5.80714 2.44722 5.85057 2.36537 5.78547C2.28399 5.60166 2.5462 5.86298 2.60619 5.90544C2.82446 6.06006 2.30544 5.5838 2.52313 5.72611C2.42936 5.63376 2.34509 5.55063 2.25512 5.46209C2.2786 5.47256 2.30548 5.4908 2.32679 5.49641C2.48495 5.7009 2.49614 5.67416 2.50616 5.66471C2.52207 5.64996 2.58683 5.76209 2.61372 5.78086C2.68578 5.83101 2.67535 5.78595 2.74461 5.87646C2.7122 5.83452 2.68009 5.79206 2.6481 5.75028C2.71234 5.77869 3.14286 6.12501 3.02435 6.08664C3.17239 6.22721 3.116 6.14489 3.10415 6.11282C3.09233 6.08077 3.18405 6.17287 3.17597 6.147C3.14342 6.04372 2.96307 5.90964 2.83423 5.79202C2.96582 5.83019 2.97626 5.93208 3.10035 5.92156C3.20726 6.01545 3.28329 6.15369 3.36715 6.18575C3.1975 6.00655 3.09126 5.86218 3.07048 5.76706C3.11419 5.80356 3.15825 5.84042 3.20196 5.87691C3.06126 5.69562 2.88347 5.53858 3.12066 5.70065C2.73314 5.35346 2.98202 5.57461 2.86609 5.39143C2.84278 5.35445 2.75078 5.29401 2.72167 5.24584C2.70857 5.22409 2.7766 5.27113 2.74273 5.21615C2.72593 5.18905 2.60838 5.0233 2.69234 5.07389C2.85807 5.26411 3.04118 5.38381 3.16123 5.55823C3.17519 5.47168 3.29581 5.52196 2.99684 5.33561C2.95573 5.26899 2.91487 5.20259 2.87406 5.13627C2.92539 5.16982 2.97647 5.20297 3.02758 5.23616C2.88265 5.08854 2.84026 5.04886 2.90102 5.03957C2.8513 5.02024 2.80107 5.00028 2.75099 4.98072C2.72093 4.9517 2.68811 4.92312 2.65996 4.89395C2.73483 4.93144 2.81164 4.90298 2.86332 4.92915C2.91501 4.95533 2.90103 4.99062 2.94246 5.02471C3.28444 5.30549 3.05236 5.07826 3.12775 5.10975C3.17225 5.12847 3.17582 5.19357 3.19617 5.20014C3.27109 5.22393 3.11745 5.04659 3.13801 5.02181C3.22389 5.1238 3.3113 5.22718 3.39825 5.32985C3.41705 5.3011 3.44272 5.27376 3.49497 5.28181C3.51541 5.28491 3.57872 5.36133 3.58481 5.36459C3.61585 5.38157 3.68247 5.39098 3.68579 5.38825C3.70914 5.36601 3.61303 5.2686 3.62988 5.24115C3.61299 5.24165 3.59743 5.24245 3.58103 5.24305C3.42029 5.09003 3.25948 4.93711 3.09844 4.7838C3.10873 4.75068 3.11927 4.71778 3.12963 4.6846C3.16611 4.7529 3.20228 4.821 3.23875 4.8893C3.39036 4.99118 3.54226 5.09334 3.69417 5.19551C3.62926 5.1047 3.56431 5.01396 3.4994 4.92315C3.55511 4.90852 3.86408 5.23166 3.6039 4.93811C3.63767 4.95115 3.67144 4.96417 3.70492 4.97692C3.66393 4.9389 3.62288 4.90078 3.5819 4.86275C3.61869 4.87455 3.65532 4.88619 3.69241 4.89828C3.81917 5.05133 3.95351 5.21143 4.0763 5.36025C4.1313 5.36606 4.01309 5.2469 3.98713 5.21361C3.91842 5.12543 4.04354 5.21194 3.97868 5.13161C3.95637 5.10408 3.85413 5.05005 3.77233 4.95163C3.75648 4.93254 3.45751 4.56902 3.55458 4.62492C3.6142 4.68531 3.68619 4.76048 3.75063 4.82659C3.81477 4.83535 3.51566 4.508 3.42419 4.42387C3.50041 4.47058 3.52711 4.45415 3.62615 4.54714C3.63603 4.54194 3.64573 4.53668 3.65561 4.53148C3.41393 4.30551 3.48812 4.31683 3.69127 4.51585C3.68329 4.53378 3.67557 4.55198 3.66759 4.56991C3.92385 4.80658 4.03327 4.9947 3.88684 4.68451C3.77429 4.54064 3.87648 4.72981 3.79323 4.62104C3.75951 4.543 3.82707 4.56895 3.75886 4.45861C3.67356 4.32088 3.53404 4.24587 3.73708 4.32676C3.95801 4.81712 3.99581 4.54854 4.16942 4.59562C3.83555 4.22696 3.77772 4.06227 3.9558 4.09319C4.0459 4.19862 3.97238 4.1714 3.99123 4.21692C4.01009 4.26245 4.08252 4.30602 4.11157 4.3683C4.1406 4.43056 4.16737 4.52792 4.2196 4.6138C4.28918 4.65488 4.49032 4.71537 4.28668 4.60472C4.22452 4.47314 4.14128 4.3573 4.16614 4.29612C4.33153 4.43573 4.42553 4.53164 4.47187 4.49411C4.23515 4.307 4.13553 4.11206 3.90611 3.90363C3.92736 3.98436 4.15676 4.18052 4.24141 4.29956C4.24983 4.31151 4.16878 4.28587 4.16614 4.29612C4.00296 4.07701 3.94148 3.99619 3.69683 3.78595C3.73652 3.78608 3.72026 3.74522 3.83067 3.85202C3.78768 3.80078 3.74467 3.74948 3.70161 3.69831C3.70922 3.69305 3.71938 3.69161 3.72533 3.68392C3.87975 3.85713 3.79712 3.73807 3.88433 3.79939C3.97163 3.86079 4.08358 4.00748 4.1209 3.97367C4.14739 4.02387 4.16945 4.06761 4.19428 4.11538C4.25936 4.13459 4.32478 4.154 4.38986 4.17321C4.47384 4.28941 4.58762 4.473 4.72027 4.60373C4.68111 4.54345 4.80468 4.59465 4.81223 4.59428C4.84103 4.59242 4.74962 4.51772 4.74873 4.51451C4.73246 4.45006 4.78058 4.45849 4.66388 4.3235C4.73876 4.36218 4.72004 4.31616 4.74245 4.30017C4.75477 4.29136 4.84515 4.38585 4.83379 4.36213C4.75781 4.20394 4.59921 4.12365 4.90587 4.27175C4.96066 4.34574 5.01706 4.42108 5.07244 4.49565C5.10569 4.51099 5.13902 4.52652 5.17227 4.54186C5.16656 4.52416 5.1607 4.50642 5.15498 4.48872C5.01524 4.34924 4.87518 4.20949 4.73544 4.07C4.7344 4.05582 4.7336 4.04183 4.73256 4.02765C4.70753 4.02516 4.68249 4.02272 4.65745 4.02024C4.63186 3.9967 4.60632 3.97309 4.58072 3.94955C4.55942 3.89475 4.53771 3.83966 4.51612 3.78456C4.56501 3.83281 4.61423 3.8814 4.66312 3.92964C4.63326 3.82427 4.59304 3.78226 4.76269 3.88014C4.78886 3.85103 5.01443 4.03159 5.11589 4.10109C5.0944 4.06814 5.07258 4.03483 5.05116 4.00182C5.09523 4.03854 5.13916 4.07505 5.18322 4.11178C5.13431 4.0483 5.08548 3.98471 5.03685 3.92153C5.16847 4.04503 5.21039 4.08275 5.22676 4.15593C5.39514 4.30485 5.37516 4.18486 5.34225 4.11122C5.31726 4.05535 5.1678 3.94016 5.15364 3.92213C5.1054 3.861 5.17804 3.88273 5.17431 3.86831C5.15917 3.80794 5.18162 3.7987 5.17278 3.74901C5.17089 3.73918 5.09814 3.6442 5.09645 3.64062C5.08945 3.61893 5.06682 3.56005 5.06771 3.55681C5.11145 3.38787 5.36167 3.86534 5.42222 3.72812C5.46724 3.77907 5.51217 3.82945 5.55726 3.88033C5.56765 3.87578 5.57798 3.87102 5.58838 3.86647C5.55775 3.8169 5.47336 3.75543 5.551 3.79545C5.49065 3.73754 5.43026 3.67962 5.37014 3.62207C5.41023 3.6458 5.44976 3.66956 5.49005 3.69309C5.298 3.47476 5.29938 3.38018 5.05509 3.14271C4.97197 3.06191 4.85385 3.01182 4.7843 2.90632C4.78168 2.87449 4.86968 2.98226 4.88077 2.98144C4.95952 2.97411 4.81981 2.83941 4.87399 2.85841C4.93556 2.91444 4.99843 2.97149 5.06065 3.02804C5.05003 3.00415 5.03941 2.98023 5.02885 2.95627C5.06991 2.99425 5.11108 3.03219 5.15215 3.07016C5.14853 3.07905 5.14417 3.08876 5.14107 3.09712C5.30212 3.24219 5.4443 3.23751 5.2858 3.13502C5.22143 3.09345 5.22305 3.13684 5.05542 2.94282C5.10112 2.94922 5.15003 2.95354 5.19676 2.95891C5.15848 2.91934 5.12007 2.87973 5.08178 2.84016C5.13486 2.83749 5.26517 3.01849 5.34865 3.10187C5.35736 3.09784 5.36586 3.09345 5.37457 3.08941C5.33955 3.04899 5.30264 3.00693 5.26892 2.96755C5.3292 3.02732 5.47231 3.16329 5.43951 3.09249C5.41801 3.04655 5.24732 2.91434 5.29162 2.91205C5.38353 3.00744 5.48918 3.12992 5.54529 3.13413C5.45012 3.03381 5.36414 2.9407 5.26342 2.83598C5.38959 2.89761 5.25333 2.73199 5.40038 2.80328C5.4935 2.84834 5.77165 3.06065 5.40933 2.66728C5.41696 2.63976 5.50548 2.73943 5.53184 2.75538C5.65649 2.83095 5.49558 2.63352 5.48962 2.61841C5.45124 2.52169 5.52634 2.57063 5.46553 2.46228C5.5342 2.53353 5.59973 2.60045 5.6669 2.66969C5.54033 2.58667 5.53422 2.60262 5.52622 2.6557C5.55051 2.6595 5.57512 2.66363 5.59941 2.66743C5.65451 2.72588 5.70963 2.78432 5.7645 2.84241C5.44641 2.71322 5.82179 3.04453 5.97824 3.04263C5.88001 2.93073 5.7823 2.81887 5.6837 2.70675C5.88867 2.82024 5.77197 2.66048 5.79061 2.57567C5.79298 2.56573 5.8759 2.60386 5.88852 2.59722C5.88876 2.59778 5.889 2.59834 5.88924 2.59891C5.99445 2.69213 6.032 2.74591 6.11972 2.83556C6.13605 2.84146 6.15235 2.84732 6.16869 2.85322C6.11274 2.77397 6.05312 2.72254 6.09215 2.7157C6.15637 2.78611 6.22066 2.8565 6.28488 2.92691C6.31235 2.90413 6.25565 2.81454 6.31065 2.82277C6.28126 2.80123 6.25184 2.77957 6.22244 2.75804C6.20835 2.64216 5.77206 2.28687 6.00752 2.44541C5.97544 2.40844 5.94296 2.37119 5.91088 2.33421C5.88655 2.34157 5.86247 2.3492 5.8382 2.35649C5.78901 2.30795 5.74001 2.25964 5.69089 2.21103C5.72247 2.20872 5.75458 2.20679 5.78616 2.20448C5.74101 2.18407 5.69574 2.16368 5.65059 2.14327C5.64682 2.10021 5.64304 2.05712 5.63928 2.01406C5.7981 2.21461 5.84712 2.20954 6.01998 2.39256C5.90665 2.20966 5.73873 1.98708 5.91765 2.05815C5.95324 2.07236 6.07178 2.20252 5.9508 2.02085C6.14131 2.22605 6.27217 2.28088 6.45545 2.47393C6.43581 2.47542 6.41915 2.48067 6.3978 2.4798C6.34418 2.40286 6.16656 2.22137 6.09555 2.18579C6.00503 2.1405 6.0965 2.29793 5.89855 2.09728C5.8989 2.11566 5.89603 2.12957 5.89517 2.14622C5.94822 2.19206 6.0015 2.23828 6.05448 2.28418C5.95205 2.23159 5.96159 2.27245 6.07425 2.40907C6.13263 2.40806 6.19064 2.4068 6.24872 2.4055C6.25282 2.41835 6.25693 2.43132 6.26074 2.44388C6.41056 2.54873 6.50797 2.69253 6.57714 2.67781C6.51864 2.61984 6.46016 2.56176 6.40137 2.50349C6.57237 2.64395 6.61333 2.6013 6.77914 2.79378C6.73674 2.72613 6.70451 2.68875 6.80823 2.77817C6.70542 2.60874 6.55469 2.41522 6.33734 2.22159C6.38278 2.24229 6.42827 2.26303 6.47364 2.2838C6.52269 2.34714 6.57146 2.41023 6.6205 2.47357C6.6385 2.44854 6.65672 2.42341 6.67496 2.39874C6.51078 2.23043 6.58311 2.38972 6.44705 2.22857C6.41973 2.19623 6.4952 2.24855 6.48144 2.2287C6.33176 2.01486 6.41272 2.19654 6.28291 2.04781C6.28626 1.98397 6.15308 1.86861 6.16459 1.85093C6.27032 1.79576 6.40756 1.7452 6.46273 1.85093C6.47021 1.8558 6.46022 1.88653 6.42151 1.96437C6.47125 1.91811 6.52208 1.87102 6.57139 1.82493C6.59713 1.8449 6.48686 1.95146 6.48602 1.99159C6.48558 2.01664 6.69139 1.84172 6.57535 1.98494C6.55387 2.01126 6.29834 2.22108 6.35662 2.25888C6.40184 2.28822 6.55075 2.10828 6.62916 2.07017C6.70758 2.03209 6.52571 2.30621 6.79778 2.06133C6.75299 2.085 6.72106 2.09002 6.68126 2.10638C6.72683 2.05127 6.77198 1.99684 6.81733 1.94209C6.77915 2.03387 6.88344 1.98499 6.78146 2.12304C7.00076 1.97526 6.87043 2.18557 6.65236 2.38199C6.67047 2.34034 6.77364 2.26278 6.69971 2.30402C6.64973 2.35064 6.59991 2.39694 6.54993 2.44356C6.58362 2.46554 6.60159 2.48622 6.73614 2.32629C6.74397 2.3271 6.75175 2.32787 6.75958 2.32867C6.6538 2.436 6.54754 2.54363 6.44176 2.65095C6.43491 2.6681 6.42819 2.68519 6.42134 2.70234C6.45047 2.68467 6.47989 2.66674 6.50938 2.64883C6.6702 2.47243 6.66249 2.45358 6.80068 2.40327C6.74256 2.46165 6.68473 2.51986 6.6266 2.57824C6.73744 2.54097 6.87952 2.40083 6.92046 2.45227C7.08727 2.21459 6.70938 2.55371 7.11521 2.14813C7.07968 2.16588 7.04372 2.18391 7.00819 2.20166C7.06568 2.14147 7.12326 2.08121 7.18081 2.02108C7.19751 2.09985 6.88986 2.56609 7.1784 2.34148C7.15095 2.37665 7.12761 2.40775 7.09789 2.44533C7.28405 2.32179 6.94992 2.68296 7.1819 2.5145C7.20619 2.49677 7.52596 2.16329 7.5556 2.21634C7.51212 2.25776 7.44013 2.32867 7.38575 2.38138C7.42074 2.36429 7.4569 2.34595 7.49242 2.3282C7.45482 2.36902 7.41732 2.40991 7.37943 2.45102C7.34894 2.45097 7.31823 2.45122 7.28774 2.45117C7.28697 2.47732 7.28626 2.50356 7.28549 2.52971C7.20486 2.57724 7.19671 2.57045 7.104 2.68311C7.11222 2.70363 7.12009 2.72453 7.12831 2.74505C7.10348 2.77284 7.07833 2.80092 7.0535 2.82871C6.9681 2.9002 6.88436 2.96989 6.79779 3.04254C6.89932 3.01587 6.93535 3.04493 7.11832 2.91942C7.14927 2.89827 7.23414 2.77875 7.17534 2.90429C7.22998 2.85068 7.27483 2.80762 7.32544 2.75817C7.21466 2.95064 7.27334 2.9188 7.4254 2.85191C7.29567 2.92649 7.38671 2.88465 7.339 2.94642C7.3061 2.98894 7.29289 2.96459 7.25551 3.00621C7.21842 3.04756 7.08445 3.23034 7.04453 3.22852C7.31801 2.85274 6.91595 3.22692 7.00625 3.00519C6.97451 3.05716 6.94275 3.1093 6.911 3.16128C6.87787 3.18488 6.84786 3.20636 6.81258 3.23134C6.91274 3.20448 6.85366 3.22791 6.81868 3.29302C6.7837 3.35815 6.76857 3.42807 6.77318 3.46019C6.77464 3.4703 6.84135 3.39139 6.86118 3.39766C6.87475 3.40187 6.79111 3.5341 6.92397 3.41246C7.01047 3.3333 7.19953 3.06618 7.25295 3.12069C7.34432 3.04964 7.29322 3.04899 7.30245 3.03865C7.39435 2.93735 7.50015 2.8979 7.44172 2.98699C7.4366 2.9946 7.34922 3.05776 7.33285 3.10047C7.29355 3.20226 7.39792 3.13398 7.53495 3.03741C7.40015 3.1766 7.26283 3.3665 7.3462 3.34859C7.30867 3.38946 7.27072 3.43061 7.2329 3.47178C7.24857 3.44595 7.26396 3.4204 7.27963 3.39456C7.2495 3.41361 7.22573 3.42564 7.19134 3.44921C7.19056 3.51581 7.00642 3.70926 6.95313 3.79412C6.77117 4.0841 7.23759 3.55222 7.31388 3.45644C7.27203 3.48425 7.22635 3.51634 7.1828 3.54597C7.23129 3.49903 7.28015 3.45174 7.32887 3.40444C7.40826 3.48676 7.6509 3.10703 7.78064 3.05938C7.55646 3.30469 7.56397 3.35746 7.75133 3.24689C7.75441 3.25231 7.75838 3.25688 7.76117 3.26259C7.72765 3.29753 7.67532 3.34984 7.65392 3.37355C7.66037 3.45962 8.03012 3.10634 8.06875 3.07647C8.24011 2.94403 8.04509 3.16935 8.04902 3.17689C8.06586 3.20836 8.1662 3.12206 8.14912 3.18515C8.13054 3.25319 8.04202 3.30789 7.98545 3.3795C7.94059 3.43644 7.95103 3.46502 7.90634 3.52584C7.94629 3.47949 7.98504 3.43361 8.02516 3.38711C8.10962 3.35392 8.18791 3.31753 8.23137 3.3323C7.94849 3.68089 8.50904 3.17624 8.06575 3.59687C8.00861 3.59886 7.94397 3.63266 7.81915 3.72797C7.8232 3.76012 7.82764 3.79191 7.83169 3.82406C7.88438 3.78193 7.93433 3.73948 7.98886 3.69744C7.90171 3.81164 7.97628 3.7998 7.95906 3.84164C7.87827 4.03776 7.6887 4.19164 8.02994 3.95568C8.02012 3.88962 8.16035 3.74951 8.10342 3.7312C8.21164 3.63921 8.21002 3.67907 8.31766 3.54669C8.3245 3.61265 8.20558 3.70803 8.12462 3.81732C8.05484 3.91154 8.07485 3.94074 7.96689 4.04592C8.028 3.98984 8.08666 3.93506 8.14769 3.87905C8.17068 3.90321 8.19422 3.92683 8.21721 3.95099C8.26833 3.87977 8.31956 3.80844 8.37039 3.73751C8.40109 3.72201 8.43171 3.7066 8.46241 3.69109C8.33013 3.93934 8.77882 3.69062 8.28488 4.15262C8.29762 4.19579 8.36106 4.13934 8.4667 4.06411C8.43209 4.10207 8.40354 4.13388 8.36482 4.17594C8.42085 4.15599 8.29846 4.30607 8.34978 4.28657C8.40083 4.26734 8.53346 4.1426 8.31948 4.36122C8.39183 4.30949 8.45362 4.26819 8.52152 4.22078C8.47856 4.27609 8.43616 4.33084 8.39343 4.3858C8.42885 4.36971 8.46419 4.35375 8.49961 4.33765C8.40152 4.44607 8.48402 4.43956 8.43143 4.52565C8.55863 4.43025 8.90862 4.07938 8.88324 4.17958C8.79535 4.26553 8.70774 4.35124 8.61986 4.43719C8.64657 4.42761 8.67324 4.41811 8.70002 4.4086C8.7289 4.38075 8.75772 4.35282 8.7866 4.32497C8.77344 4.32937 8.76039 4.33378 8.74694 4.33847C8.79874 4.29427 8.85025 4.25021 8.90199 4.20594C8.84395 4.29013 8.78592 4.37435 8.72794 4.45861C8.65638 4.49475 8.58478 4.53091 8.51322 4.56704C8.47163 4.65308 8.55075 4.6049 8.49895 4.69536C8.63576 4.59218 8.69869 4.51683 8.82208 4.37978C8.81721 4.39715 8.8128 4.4142 8.80792 4.43157C8.93404 4.29721 9.02221 4.23018 8.97516 4.20418C9.01482 4.16955 9.0528 4.13669 9.09385 4.10053C9.09399 4.11238 9.12927 4.08486 9.12152 4.10576C9.1002 4.16289 8.88518 4.40538 8.80375 4.48436C8.76107 4.52571 8.82376 4.42771 8.76508 4.48781C8.62199 4.63439 8.72753 4.60987 8.52363 4.69691C8.45082 4.80851 8.52468 4.74331 8.57271 4.73806C8.52278 4.78465 8.47319 4.83098 8.42332 4.87763C8.45547 4.86531 8.48756 4.85309 8.51972 4.84077C8.75385 4.57906 8.92009 4.55906 9.07115 4.27635C9.10172 4.28468 9.13229 4.29289 9.16339 4.30057C9.18485 4.27112 9.20606 4.24192 9.22753 4.21246C9.20531 4.21717 9.18336 4.2217 9.16142 4.22611C9.21826 4.18989 9.27483 4.15396 9.33167 4.11774C9.29835 4.19975 9.21921 4.29799 9.12088 4.41861C9.01265 4.47016 9.13103 4.37029 9.13064 4.32652C9.06208 4.39662 8.99729 4.45937 8.92638 4.53414C9.0814 4.40195 9.01415 4.54365 9.01575 4.5593C9.02069 4.6069 9.14119 4.4452 9.16173 4.45981C9.18225 4.47447 9.11901 4.5792 9.2733 4.45364C9.19462 4.53181 9.11233 4.6118 9.03989 4.68218C9.04151 4.73532 9.1287 4.63721 9.14353 4.62804C9.38605 4.47598 9.24403 4.66708 9.27556 4.73901C9.2447 4.75674 9.21614 4.77203 9.18667 4.78822C9.05919 4.99376 9.08388 4.91648 8.99497 4.93762C9.04342 4.9527 8.9198 5.1127 8.90007 5.17727C8.88041 5.24177 8.99168 5.20738 9.0625 5.16466C9.12168 5.04118 9.02678 5.06674 9.01626 5.00587C9.10021 4.93004 9.17177 4.86637 9.26374 4.78277C9.11777 4.97216 9.24246 4.87262 9.27186 4.85753C9.3581 4.81328 9.21352 4.95654 9.38101 4.81443C9.32725 4.86717 9.28209 4.91156 9.23184 4.96079C9.29744 4.9819 9.43835 4.93452 9.26991 5.1594C9.40039 5.03407 9.52557 4.91279 9.65907 4.78521C9.58115 4.89985 9.69547 4.81698 9.68841 4.85495C9.68127 4.89288 9.57204 4.99039 9.55033 5.04831C9.54636 5.05897 9.61804 5.00125 9.57857 5.05721C9.53893 5.11351 9.213 5.50086 9.52824 5.19297C9.54523 5.20703 9.57131 5.21033 9.59178 5.22026C9.59453 5.18788 9.59672 5.15605 9.59953 5.12374C9.68766 5.06085 9.7755 4.99811 9.86364 4.93523C9.79792 5.00416 9.73099 5.07432 9.66609 5.14232C9.61815 5.25829 9.75291 5.1729 9.7612 5.23328C9.76255 5.24341 9.61591 5.36299 9.67528 5.35451C9.73468 5.346 10.002 5.11644 9.9494 5.25576C9.94661 5.26292 9.76917 5.46604 9.91643 5.34984C9.94981 5.32352 9.97912 5.26447 10.0264 5.23337C10.0738 5.20226 10.1423 5.20623 10.2385 5.11568C10.205 5.14837 10.1685 5.18037 10.1337 5.21293C10.1241 5.23491 10.1146 5.25697 10.1053 5.27873C10.1641 5.22107 10.2231 5.16336 10.2816 5.10599C10.1816 5.27708 9.97894 5.51653 10.1048 5.49608C10.0054 5.56585 9.90563 5.63595 9.80629 5.70579C9.86165 5.64231 9.91741 5.57842 9.97284 5.515C9.92485 5.51443 9.87696 5.51361 9.82897 5.51303C9.89259 5.44142 9.95609 5.37007 10.0197 5.29846C10.0045 5.3008 9.98961 5.30292 9.97439 5.30526C9.92712 5.35575 9.88012 5.406 9.83291 5.45656C9.83216 5.43181 9.83164 5.40678 9.83095 5.3821C9.56825 5.69646 9.92764 5.4297 9.68294 5.66771C9.72612 5.636 9.76956 5.60403 9.81303 5.57202C9.69852 5.69156 9.74385 5.66953 9.78284 5.67163C9.72047 5.7246 9.65839 5.77628 9.59583 5.83022C9.69716 5.76882 9.72469 5.81215 9.77669 5.80152C9.79953 5.79684 9.87531 5.70292 9.88798 5.69565C9.95394 5.65739 9.83236 5.83192 9.84961 5.82576C9.9524 5.78919 10.2546 5.53002 10.1058 5.75116C10.0228 5.75952 10.0624 5.76052 9.94635 5.85C9.90999 5.87806 9.79459 5.89707 9.88479 5.92756C9.8956 5.9309 10.199 5.84647 10.3116 5.66186C10.2819 5.72699 10.241 5.7957 10.2069 5.86228C10.6382 5.51031 10.2565 5.86451 10.0425 6.05554C10.0481 6.06293 10.0522 6.07117 10.0589 6.07787C10.2575 5.85083 10.3432 5.91015 10.2604 6.04219C10.233 6.08615 10.1418 6.13121 10.1287 6.18248C10.1527 6.17663 10.1823 6.16761 10.2086 6.16053C10.06 6.28126 10.0354 6.36045 9.89807 6.49704C10.0376 6.39245 10.3096 6.14709 10.4403 5.99728C10.3979 6.06848 10.3557 6.13969 10.3131 6.21119C10.2739 6.23698 10.2349 6.2624 10.1957 6.28819C10.3289 6.24929 10.1937 6.50576 10.4913 6.22787C10.4955 6.23617 10.5001 6.24426 10.5043 6.25256C10.4576 6.30308 10.4108 6.35363 10.3641 6.40416C10.4346 6.39029 10.5052 6.37608 10.5756 6.36222C10.5806 6.30688 10.6438 6.23173 10.5612 6.26149C10.6273 6.21578 10.6938 6.16995 10.7597 6.12404C10.649 6.31425 10.5555 6.41856 10.6601 6.43363C10.6649 6.43428 10.8363 6.35333 10.8501 6.34258C10.9134 6.29347 10.9843 6.20107 11.0159 6.17583C11.1042 6.10497 11.3574 5.95829 11.3865 5.92711C11.7435 5.5441 11.5693 5.36006 11.5398 5.29258C11.2346 4.59278 10.4792 4.36526 10.0249 3.82081C10.0205 3.81498 10.0773 3.7626 10.0775 3.75807C10.0776 3.73077 9.97915 3.80254 9.97061 3.80103C9.95264 3.79753 10.0372 3.7248 10.0294 3.7169C9.94748 3.63673 9.82475 3.60649 9.75711 3.51191C9.7527 3.50575 9.69517 3.57407 9.69702 3.55367C9.69832 3.54279 9.77987 3.43126 9.77052 3.41899C9.73774 3.37626 9.67508 3.3755 9.63673 3.33422C9.61582 3.31157 9.57495 3.28711 9.55206 3.2613C9.54193 3.24992 9.5749 3.19455 9.56575 3.18245C9.55272 3.16533 9.46627 3.25794 9.45839 3.26118C9.42392 3.27529 9.52077 3.17562 9.50877 3.16829C9.48611 3.155 9.41954 3.21964 9.40229 3.19128C9.39009 3.17088 9.40458 3.08177 9.39925 3.046C9.27509 3.07404 9.24474 2.98326 9.22507 2.91325C9.21346 2.87178 9.11913 2.96119 9.1086 2.95007C9.07225 2.91015 9.16063 2.76389 9.12862 2.72427C9.08604 2.67177 8.96634 2.70723 8.91471 2.66675C8.90636 2.66016 8.99224 2.57771 8.98707 2.56822C8.96785 2.53319 8.94849 2.48319 8.91233 2.47103C8.87221 2.4573 8.74011 2.56953 8.73864 2.51831C8.7383 2.50319 8.84316 2.39381 8.84397 2.36711C8.84492 2.32481 8.72778 2.39659 8.70281 2.39271C8.66898 2.38698 8.79531 2.29505 8.754 2.28301C8.75227 2.28255 8.67027 2.35657 8.66827 2.34712C8.66212 2.31989 8.72521 2.26012 8.69493 2.24156C8.69178 2.24002 8.58508 2.28198 8.58156 2.27906C8.56145 2.26129 8.49729 2.24918 8.50188 2.22216C8.51801 2.12589 8.66689 2.0401 8.37814 2.26069C8.42546 2.18335 8.47376 2.10529 8.51843 2.0288C8.47255 2.09591 8.34794 2.13435 8.35018 2.12605C8.36759 2.05855 8.4816 1.97438 8.43345 1.95901C8.24648 2.22986 8.36297 1.94754 8.35034 1.9232C8.28969 1.80578 8.15163 1.78197 8.06361 1.69102C8.03426 1.66047 8.0425 1.57193 8.00964 1.54141C8.00218 1.53409 7.95359 1.59385 7.94591 1.58852C7.93863 1.58283 8.00664 1.52921 7.99601 1.52503C7.92887 1.50005 7.77803 1.57871 7.87926 1.39308C7.85647 1.41176 7.84015 1.42822 7.81397 1.44759C7.90792 1.28457 7.66863 1.39086 7.61992 1.38957C7.54396 1.38734 7.62083 1.2905 7.57488 1.27963C7.51391 1.26549 7.28784 1.37877 7.59312 1.12386C7.57613 1.08932 7.55375 1.06209 7.50168 1.06211C7.49583 1.06217 7.42663 1.13536 7.42401 1.13566C7.40645 1.13854 7.4678 1.0724 7.46576 1.06452C7.46019 1.0432 7.40581 1.14147 7.40796 1.10097C7.40926 1.07944 7.45911 1.0181 7.4322 0.988835C7.4151 0.970444 7.39755 0.952182 7.37963 0.934031C6.98515 0.177979 6.00374 0.539555 5.24769 0.934031C5.09267 1.0871 4.94592 1.26752 4.79894 1.43128C4.7876 1.44379 4.7266 1.36709 4.71605 1.38643C4.67935 1.45359 4.70227 1.66241 4.64171 1.69139C4.58113 1.72036 4.49055 1.60958 4.42037 1.59544C4.40677 1.59266 4.46858 1.6456 4.46457 1.65137C4.43692 1.68957 4.48717 1.81832 4.47396 1.85845C4.46534 1.88511 4.37649 1.79343 4.3578 1.79922C4.3302 1.80809 4.40264 1.91805 4.39584 1.93071C4.36296 1.9893 4.25806 1.94729 4.25282 2.02746C4.23462 2.00593 4.21733 1.98643 4.19917 1.96544C4.15182 2.01923 4.10455 2.07297 4.0572 2.12676C4.04143 2.10622 4.02543 2.08561 4.00937 2.06479C3.96 2.13408 4.16347 2.32401 3.75333 1.90343C3.73438 1.89311 3.71284 1.88073 3.69526 1.87139C3.9109 2.08368 4.03159 2.27615 4.04037 2.37628C4.04112 2.38373 3.81002 2.19759 4.05894 2.44161C3.99278 2.38717 3.94772 2.3491 3.88978 2.30108C3.95474 2.38536 4.01868 2.46889 4.08335 2.55288C4.06701 2.54698 4.05099 2.54154 4.03465 2.53563C3.98558 2.48811 3.93603 2.43737 3.88693 2.39162C3.85539 2.40852 3.86543 2.51791 3.84015 2.53092C3.77709 2.56296 3.5981 2.48078 3.70222 2.65885C3.66982 2.66248 3.59291 2.54979 3.57811 2.58858C3.62308 2.6396 3.66623 2.68845 3.71253 2.74106C3.4762 2.54852 3.60207 2.68354 3.61687 2.75835C3.62702 2.80908 3.56132 2.76996 3.55223 2.79952C3.54996 2.80705 3.6136 2.8693 3.6082 2.8706C3.59049 2.87533 3.47185 2.82071 3.46158 2.82629C3.36699 2.87523 3.31505 2.9466 3.26982 3.03807C3.26482 3.04776 3.21223 2.97612 3.20726 2.98636C3.19917 3.00273 3.30181 3.09098 3.29941 3.10274C3.29217 3.13503 3.19137 3.03454 3.15854 3.05684C3.0505 3.13035 3.02174 3.31032 2.93365 3.41189C2.93068 3.41485 2.87189 3.3557 2.86808 3.35834C2.8442 3.37645 2.90266 3.47742 2.88272 3.49561C2.84991 3.52607 2.7433 3.467 2.71234 3.49854C2.65156 3.55991 2.63941 3.6569 2.57894 3.72206C2.52958 3.77552 2.47706 3.8123 2.42098 3.86897C2.17591 4.11638 1.73746 4.18046 1.58907 4.5279C1.5854 4.53684 1.64007 4.58638 1.63589 4.58605C1.59505 4.5818 1.52312 4.51314 1.66383 4.66686C1.6115 4.66115 1.49355 4.55791 1.4733 4.59396C1.46244 4.6131 1.64507 4.77332 1.5313 4.71031C1.42847 4.65333 1.35982 4.53409 1.38766 4.69824C1.3885 4.70268 1.4841 4.81605 1.44273 4.80302C1.40156 4.79033 1.34322 4.69903 1.28641 4.71077C1.15326 4.73855 1.14173 4.93072 1.02039 4.99646C1.01277 5.00057 0.900444 5.00117 0.863541 4.98656C0.791918 4.95807 0.718775 4.87592 0.67173 4.8849C0.635447 4.89192 0.705544 4.99773 0.662531 5.00562C0.657433 5.00645 0.561993 4.92094 0.554863 4.95206ZM6.34694 2.74118C6.26345 2.83523 5.94624 3.17151 6.07762 3.10401C6.09001 3.09768 6.29836 2.85663 6.35176 2.83853C6.3582 2.79755 6.34907 2.77306 6.34728 2.74083C6.34716 2.74095 6.34705 2.74106 6.34694 2.74118ZM2.49981 7.17393C2.50732 7.13363 2.51506 7.09341 2.52257 7.05311C2.46656 7.03009 2.41061 7.00717 2.35437 6.98379C2.4028 7.04716 2.45138 7.11056 2.49981 7.17393ZM5.32006 4.0433C5.32003 4.04333 5.32001 4.04335 5.31999 4.04337C5.38727 4.0604 5.45464 4.07749 5.52192 4.09451C5.48825 4.06612 5.45444 4.03761 5.42077 4.00923C5.35205 3.98019 5.28339 3.95123 5.21475 3.92213C5.24986 3.96252 5.28495 4.00291 5.32006 4.0433ZM4.79304 3.91331C4.81388 3.96623 4.88001 4.02451 4.93178 4.09393C4.93166 4.09381 4.93155 4.0937 4.93143 4.09358C4.94488 4.11169 4.94783 4.13634 4.946 4.14289C4.90861 4.10241 4.87218 4.06198 4.83521 4.02167C4.70352 3.96484 4.96527 4.37299 5.19498 4.41316C5.1444 4.36541 5.09413 4.31785 5.04354 4.2701C5.10439 4.23676 5.05025 4.07761 4.79304 3.91331ZM6.58407 3.26141C6.46327 3.46261 6.44222 3.50945 6.60134 3.44786C6.64009 3.39534 6.67882 3.34283 6.71757 3.2903C6.66297 3.32879 6.60875 3.36702 6.55416 3.40551C6.55413 3.40549 6.55411 3.40547 6.55409 3.40544C6.60136 3.35495 6.64871 3.30437 6.69605 3.25394C6.65875 3.25645 6.62136 3.2589 6.58407 3.26141ZM3.37049 5.56856C3.68082 5.90131 3.49715 5.71118 3.60167 5.75168C3.63792 5.76577 3.68338 5.83283 3.69964 5.83531C3.78803 5.84924 3.57558 5.63083 3.45517 5.52704C3.42649 5.5405 3.39826 5.55484 3.37055 5.56849C3.37053 5.56852 3.37051 5.56854 3.37049 5.56856ZM2.33781 6.46763C2.33779 6.46765 2.33776 6.46767 2.33774 6.46769C2.41521 6.54709 2.45131 6.55318 2.50869 6.64441C2.52127 6.63124 2.53353 6.61774 2.54618 6.60451C2.53507 6.601 2.52423 6.59791 2.51313 6.5944C2.48955 6.56412 2.46564 6.53349 2.44205 6.50321C2.53678 6.58878 2.48863 6.53213 2.472 6.48845C2.56457 6.58849 2.65722 6.68858 2.74978 6.78862C2.73682 6.74422 2.72381 6.69967 2.71085 6.65527C2.68677 6.63081 2.66266 6.6063 2.63859 6.58184C2.67553 6.60693 2.71275 6.63242 2.74969 6.65751C2.72233 6.62693 2.69517 6.59667 2.66781 6.56608C2.6969 6.58088 2.72599 6.59565 2.75538 6.61074C2.68737 6.53838 2.64128 6.52381 2.68704 6.5137C2.60648 6.45027 2.52614 6.38704 2.44551 6.32367C2.40943 6.37147 2.3736 6.41954 2.33781 6.46763ZM3.76057 5.37631C3.70091 5.40903 3.76479 5.44689 3.9347 5.59541C3.87663 5.52239 3.81865 5.44933 3.76057 5.37631ZM5.99869 2.85474C6.12069 2.94994 6.24166 3.044 6.36018 3.13507C6.44809 3.16834 6.27747 2.94308 6.17935 2.88606C6.06153 2.81772 6.13987 2.94773 5.99869 2.85474ZM6.03275 2.35553C5.94897 2.37247 5.85138 2.53295 5.78369 2.61571C5.91383 2.50406 5.91606 2.52762 5.95083 2.53427C5.93922 2.50699 6.04683 2.35251 6.0331 2.35518C6.03298 2.3553 6.03287 2.35541 6.03275 2.35553ZM5.58288 3.51463C5.56624 3.52478 5.52259 3.50777 5.54747 3.55661C5.65493 3.65684 5.58441 3.5384 5.72121 3.70947C5.73241 3.70354 5.74354 3.69752 5.75497 3.69194C5.68579 3.63356 5.64539 3.57863 5.58319 3.51501C5.58309 3.51489 5.58299 3.51476 5.58288 3.51463ZM4.33052 5.05114C4.23386 4.90191 4.29145 4.94954 4.40311 5.00824C4.30674 4.90441 4.1075 4.76831 4.05081 4.75118C4.14405 4.85112 4.23734 4.95114 4.33052 5.05114ZM9.53125 6.18305C9.65253 6.04915 9.6226 5.98594 9.56175 6.00053C9.54558 6.02221 9.52917 6.04415 9.51271 6.06611C9.51887 6.10505 9.52509 6.14411 9.53125 6.18305ZM5.96931 2.53549C5.96211 2.53576 5.95604 2.53527 5.95083 2.53427C5.95289 2.53911 5.95839 2.54026 5.96931 2.53549ZM7.92262 3.38123C8.03189 3.24992 8.10505 3.24224 8.01818 3.24962C8.01829 3.2495 8.01841 3.24939 8.01852 3.24927C7.96121 3.25402 7.94712 3.2565 7.9134 3.24151C7.76763 3.40481 7.7618 3.50945 7.6618 3.47326C7.66076 3.47251 7.7545 3.38234 7.73105 3.38404C7.72378 3.38459 7.63757 3.44931 7.59926 3.45492C7.58696 3.45666 7.52398 3.44023 7.57663 3.49581C7.4673 3.60192 7.36118 3.71386 7.25655 3.81823C7.2473 3.86973 7.47447 3.67503 7.49164 3.70255C7.51662 3.74393 7.32021 3.97411 7.60642 3.70065C7.64728 3.60399 7.60103 3.55443 7.42649 3.71647C7.39745 3.69153 7.52758 3.5459 7.61756 3.49945C7.62414 3.67932 7.84781 3.32038 7.81938 3.51207C7.78142 3.55196 7.7429 3.5972 7.7058 3.63327C7.86768 3.52122 7.88352 3.42818 7.92262 3.38123ZM7.43007 3.4839C7.36392 3.58226 7.29706 3.68123 7.23056 3.77982C7.36462 3.64575 7.47608 3.5166 7.52621 3.4157C7.49409 3.43856 7.46191 3.46133 7.43007 3.4839ZM8.74974 4.874C8.67918 4.9492 8.61857 5.02218 8.55371 5.09606C8.62007 5.03949 8.79501 5.09649 8.79631 4.97719C8.79652 4.95984 8.61538 5.03645 8.74974 4.874ZM4.03822 5.12386C4.00299 5.06132 3.96763 4.99875 3.93234 4.93628C3.88041 4.92619 3.82764 4.91531 3.77512 4.90464C3.86282 4.97768 3.95052 5.05083 4.03822 5.12386ZM6.09311 2.50449C6.09007 2.51299 6.20947 2.59407 6.17094 2.601C6.25199 2.64817 6.32212 2.68656 6.39898 2.7303C6.35652 2.67792 6.3143 2.62568 6.27184 2.5733C6.30615 2.59987 6.34035 2.62619 6.37466 2.65277C6.30326 2.58601 6.23373 2.5206 6.16103 2.4528C6.28125 2.62881 6.10691 2.46727 6.09311 2.50449ZM4.99345 3.06383C5.13857 3.21899 5.26825 3.26787 5.25251 3.33162C5.35869 3.42272 5.42255 3.46234 5.45459 3.44786C5.4206 3.40641 5.38688 3.36523 5.35288 3.32377C5.45435 3.4242 5.49785 3.45574 5.58288 3.51463C5.58278 3.51451 5.58268 3.51438 5.58257 3.51425C5.62524 3.4862 5.58947 3.45466 5.43202 3.2802C5.48825 3.4113 5.33551 3.2608 5.21984 3.19615C5.14032 3.15168 5.14552 3.20264 4.99345 3.06383ZM8.62791 4.74871C8.52764 4.90192 8.38567 4.99637 8.56728 4.9087C8.59645 4.87347 8.62533 4.8385 8.6545 4.80327C8.64595 4.78477 8.63704 4.76663 8.62791 4.74871ZM5.37741 3.70906C5.14803 3.47363 4.99204 3.2678 5.3744 3.64164C5.42709 3.74291 5.22478 3.51688 5.37741 3.70906ZM6.38525 1.98024C6.37033 1.97094 6.34224 1.98228 6.30687 2.00679H6.32045C6.37745 2.08904 6.50569 2.21069 6.6115 2.29784H6.01582C5.99587 2.32206 5.97773 2.3451 5.96228 2.36585C6.01296 2.3211 6.06372 2.27626 6.11404 2.23174C6.10056 2.26158 6.08704 2.29147 6.07385 2.32102C6.17756 2.20753 6.28155 2.09373 6.38525 1.98024ZM4.29871 4.27714C4.50037 4.40742 4.35248 4.40797 4.48104 4.48666C4.58378 4.54959 4.44278 4.35612 4.32806 4.26125C4.31824 4.26521 4.30852 4.27084 4.29877 4.27707C4.29875 4.27709 4.29873 4.27712 4.29871 4.27714ZM4.55272 4.11807C4.72419 4.30126 4.68095 4.24112 4.62084 4.23741C4.60372 4.23639 4.60632 4.36699 4.48624 4.19318C4.50911 4.17031 4.53071 4.14359 4.55272 4.11807ZM6.66567 2.77957C6.74332 2.70277 6.86361 2.48393 6.81488 2.52001C6.815 2.51989 6.81511 2.51978 6.81523 2.51966C6.68253 2.61821 6.71808 2.68662 6.53689 2.82272C6.72642 2.73305 6.40368 3.08566 6.84513 2.63725C6.83524 2.58833 6.75744 2.69397 6.66567 2.77957ZM10.5062 6.43089C10.5062 6.43091 10.5062 6.43093 10.5063 6.43096C10.4993 6.43128 10.3587 6.51735 10.3228 6.55992C10.3892 6.55905 10.458 6.47861 10.3659 6.63172C10.4071 6.59391 10.4468 6.55705 10.4884 6.51907C10.4997 6.48355 10.5404 6.4294 10.5062 6.43089ZM9.03083 4.84367C9.03898 4.81143 8.9333 4.87314 8.92455 4.85444C8.64683 5.21952 8.99874 4.97201 9.03083 4.84367ZM2.8006 6.02693C2.80075 6.02701 2.8009 6.02709 2.80105 6.02717C2.80087 6.02701 2.80068 6.02685 2.8005 6.02669C2.80053 6.02677 2.80057 6.02685 2.8006 6.02693ZM7.90441 4.1029C7.92683 4.08359 7.94583 4.06634 7.96205 4.05075C7.96355 4.04925 7.96505 4.04776 7.96654 4.04626C7.94617 4.06496 7.92552 4.08382 7.90441 4.1029ZM6.74478 2.90528C6.873 2.81811 6.97584 2.57851 6.91286 2.59727C6.86525 2.64797 6.82092 2.69277 6.76806 2.75284C6.91321 2.64339 6.72321 2.92002 6.74478 2.90528ZM5.62039 3.08838C5.67151 3.0314 5.17593 2.67651 5.51229 3.01867C5.51898 3.02513 5.61841 3.0892 5.62039 3.08838ZM6.36304 2.43448C6.47802 2.29196 6.53988 2.28545 6.47338 2.26344C6.43746 2.29421 6.40146 2.32507 6.36554 2.35584C6.36477 2.38199 6.36382 2.40833 6.36304 2.43448ZM5.41622 2.17601C5.55597 2.17969 5.74755 2.24114 6.05827 2.64049C6.04171 2.63423 6.02547 2.62843 6.00891 2.62217C5.83493 2.44973 5.91048 2.56328 5.88831 2.59673C5.81558 2.53193 5.78425 2.53146 5.72292 2.47591C5.60436 2.36855 5.54267 2.27141 5.41622 2.17601ZM2.82592 5.3301C2.85658 5.35857 2.88737 5.38722 2.91774 5.4154C2.96187 5.43801 3.00586 5.46043 3.04999 5.48304C2.99152 5.42804 2.93304 5.37305 2.87457 5.31805C2.85831 5.32202 2.84207 5.3259 2.82581 5.32986C2.82585 5.32994 2.82588 5.33002 2.82592 5.3301ZM7.72922 3.05215C7.40998 3.38375 7.44832 3.30222 7.56901 3.09392C7.62239 3.07997 7.67585 3.0661 7.72922 3.05215ZM4.4549 3.4011C4.54593 3.49496 4.6367 3.58852 4.72767 3.68245C4.60811 3.60941 4.50656 3.49922 4.39534 3.36571C4.41519 3.37745 4.43505 3.38936 4.4549 3.4011ZM4.08053 3.69675C4.07089 3.66782 4.14061 3.74739 4.14012 3.74488C4.12531 3.68124 4.09451 3.64356 4.18067 3.6698C4.20395 3.68574 4.22818 3.70275 4.25204 3.71927C4.43191 3.92684 4.31627 3.83131 4.4008 3.97445C4.33963 3.90272 4.27836 3.83092 4.2169 3.7589C4.21465 3.78924 4.21228 3.81933 4.21003 3.84967C4.1876 3.83111 4.16537 3.81275 4.14294 3.79419C4.1224 3.76206 4.09879 3.72648 4.08053 3.69675ZM2.78557 5.53859C2.77733 5.56205 2.76932 5.58588 2.76108 5.60934C2.71279 5.56221 2.6642 5.51474 2.61591 5.46761C2.67243 5.49128 2.72905 5.51492 2.78557 5.53859ZM7.90634 3.52584C7.89067 3.54402 7.87487 3.56227 7.85864 3.58068C7.87964 3.55947 7.89474 3.54162 7.90634 3.52584ZM10.8097 6.21101C10.861 6.19561 10.865 6.24342 10.8918 6.25612C10.7705 6.37426 10.7535 6.29107 10.6633 6.34603C10.682 6.32173 10.7881 6.21745 10.8097 6.21101ZM6.23981 2.00355C6.1756 1.94836 6.11167 1.89344 6.04752 1.83817C6.04307 1.8555 6.03896 1.87321 6.03444 1.89061C5.98524 1.84204 5.93561 1.79305 5.88641 1.74449C5.99816 1.75975 5.84608 1.62991 5.73094 1.46701C5.90044 1.64578 6.07002 1.82449 6.23981 2.00355ZM1.97126 5.73283C2.03919 5.73105 2.11333 5.78047 2.24033 5.94676C2.19438 5.92541 2.14832 5.9041 2.10237 5.88275C2.0587 5.83277 2.01499 5.78274 1.97126 5.73283ZM8.65159 4.05013C8.62596 4.13409 8.82325 3.93777 8.74185 4.07618C8.6903 4.0972 8.63834 4.11863 8.58685 4.13972C8.6084 4.10995 8.63003 4.0799 8.65159 4.05013ZM7.76159 2.07915C7.84236 2.02299 7.53991 2.37145 7.81474 2.1658C7.75129 2.24574 7.68797 2.3194 7.62481 2.39672C7.70534 2.32445 7.7874 2.25176 7.86714 2.17987C7.86716 2.17989 7.86719 2.17992 7.86721 2.17994C7.87283 2.23708 7.75666 2.31255 7.67629 2.39434C7.64301 2.42829 7.72248 2.39539 7.64205 2.46126C7.50391 2.57428 7.52918 2.45512 7.37596 2.60809C7.44248 2.57455 7.43288 2.64856 7.32122 2.74117C7.19868 2.84284 7.3562 2.62461 7.24384 2.69832C7.51622 2.48133 7.38344 2.4997 7.18901 2.68112C7.29976 2.50324 7.38947 2.47523 7.41715 2.51636C7.54016 2.35134 7.49327 2.46006 7.61807 2.34545C7.66867 2.25153 7.53411 2.23744 7.76159 2.07915ZM5.07453 2.401C5.10702 2.38709 5.06094 2.26853 5.19836 2.37419C5.27842 2.43575 5.29693 2.52691 5.43318 2.61305C5.39973 2.62482 5.35114 2.58653 5.25755 2.48521C5.24069 2.47866 5.22406 2.47246 5.2075 2.4662C5.22413 2.4876 5.24045 2.50881 5.25709 2.53021C5.21428 2.49282 5.17178 2.45576 5.12904 2.4183C5.13147 2.43167 5.13384 2.44511 5.13656 2.45878C5.11575 2.43926 5.09711 2.42281 5.07453 2.401ZM9.48301 4.89364C9.47774 4.88602 9.47252 4.87848 9.46755 4.87058C9.49199 4.84755 9.51756 4.82368 9.54276 4.8001C9.56262 4.78141 9.58249 4.76271 9.60234 4.74402C9.52974 4.80916 9.38459 4.89294 9.44521 4.80647C9.47561 4.76307 9.62139 4.64687 9.6167 4.59646C9.62993 4.62316 9.63055 4.65953 9.63882 4.69004C9.67601 4.64937 9.71369 4.60835 9.75088 4.56768C9.75095 4.56763 9.75102 4.56758 9.75109 4.56754C9.76631 4.5652 9.78202 4.56252 9.79724 4.56018C9.69245 4.67141 9.5878 4.7824 9.48301 4.89364ZM4.29097 3.19941C4.38934 3.25384 4.43637 3.28616 4.54953 3.42006C4.54956 3.42014 4.5496 3.42022 4.54963 3.4203C4.48672 3.37375 4.42383 3.32723 4.36092 3.28068C4.33761 3.25364 4.31421 3.22651 4.29097 3.19941ZM8.50332 3.30734C8.08081 3.82326 8.26326 3.43044 8.44312 3.29064C8.45133 3.28422 8.44712 3.35477 8.50332 3.30734ZM6.53815 1.84451C6.53008 1.82963 6.52169 1.81502 6.51351 1.80015C6.43955 1.6584 6.25556 1.72619 6.11381 1.80015C6.11206 1.80111 6.11032 1.80207 6.10856 1.80302C6.08378 1.77555 6.05905 1.7481 6.03432 1.72066C6.23245 1.61729 6.48962 1.52254 6.593 1.72066C6.62612 1.69082 6.65924 1.66098 6.6924 1.63107C6.64108 1.7021 6.58947 1.77347 6.53815 1.84451ZM1.90999 5.36806C1.79469 5.22577 1.78266 5.14447 1.93966 5.26761C1.94716 5.2929 1.95468 5.3182 1.96218 5.34349C1.99508 5.34277 2.02942 5.34387 2.06157 5.34215C2.24191 5.52068 2.1183 5.4361 2.13839 5.51495C2.14182 5.52748 2.33547 5.77929 2.15755 5.62146C2.12103 5.58897 2.1285 5.53457 2.00667 5.45574C2.00817 5.43845 2.01804 5.43208 2.02254 5.41881C1.98045 5.37543 1.9383 5.33201 1.89627 5.28856C1.90076 5.31502 1.9055 5.3416 1.90999 5.36806ZM5.22358 2.27992C5.24554 2.23816 5.32117 2.30592 5.45452 2.426C5.42535 2.42647 5.39641 2.42717 5.36724 2.42764C5.31949 2.37847 5.27162 2.32939 5.22358 2.27992ZM2.15372 5.04216C2.15044 5.00399 2.24611 5.1146 2.27274 5.12718C2.37304 5.17439 2.31742 5.08258 2.38987 5.10258C2.36822 5.08442 2.34802 5.06741 2.32702 5.04977C2.32705 5.04974 2.32707 5.04972 2.32709 5.0497C2.36431 4.83863 2.53301 5.13774 2.42067 5.17397C2.45728 5.21406 2.494 5.25412 2.53032 5.29392C2.43005 5.26013 2.33489 5.22629 2.15372 5.04216ZM8.1044 2.87631C8.12982 2.85373 8.27031 2.68914 8.22151 2.78316C8.01671 3.02378 8.09788 2.88387 8.00487 2.96218C7.98962 2.98967 7.97509 3.01672 7.95978 3.04414C7.86025 3.07048 7.90786 3.01219 8.08395 2.86277C8.09584 2.85278 8.07905 2.89882 8.1044 2.87631ZM8.45468 3.00702C8.13157 3.34018 8.23294 3.14645 8.33648 3.04625C8.34692 3.04857 8.29632 3.10908 8.32765 3.09128C8.35906 3.07352 8.43746 2.99862 8.45468 3.00702ZM7.05128 1.76416C7.0541 1.76405 7.20561 1.63973 7.0963 1.74634C6.82394 1.98507 6.95454 1.7867 7.04946 1.70364C7.05626 1.71925 7.02539 1.76507 7.05163 1.76382C7.05152 1.76393 7.0514 1.76405 7.05128 1.76416ZM1.62247 5.50091C1.61396 5.49111 1.59244 5.40176 1.64828 5.44885C1.70984 5.5032 1.77374 5.56351 1.83644 5.6208C1.76213 5.58387 1.76668 5.66405 1.62254 5.50084C1.62252 5.50086 1.6225 5.50088 1.62247 5.50091Z" fill="#161616"/>
</svg>
