<svg fill="none" height="32" viewBox="0 0 32 32" width="32" xmlns="http://www.w3.org/2000/svg" xmlns:xlink="http://www.w3.org/1999/xlink"><mask id="a" height="16" maskUnits="userSpaceOnUse" width="16" x="8" y="8"><path d="m23.5 8.5v15h-15v-15z" fill="#fff" stroke="#fff"/></mask><g fill="#141414" mask="url(#a)"><path d="m21.4435 15.0114c1.1031-1.1032 1.0907-3.0191-.172-4.282-1.2629-1.26294-3.1794-1.2759-4.2827-.1726l-.8617.8618-1.0607-1.0607.8618-.86182c1.7525-1.75247 4.6208-1.61055 6.404.17263 1.7829 1.78319 1.9243 4.65099.1719 6.40339l-.8617.8617-1.0607-1.0606z"/><path d="m20.0294 13.0298-6.9999 7-1.0607-1.0607 7-6.9999z"/><path d="m9.49608 15.9272.86182-.8618 1.0606 1.0607-.8618.8618c-1.1032 1.1032-1.09024 3.0197.1727 4.2827 1.2629 1.2626 3.1788 1.2751 4.282.1719l.8618-.8618 1.0606 1.0607-.8618.8618c-1.7523 1.7523-4.6201 1.6109-6.40328-.172-1.78318-1.7832-1.92511-4.6515-.17264-6.404z"/></g></svg>