<svg fill="none" height="16" viewBox="0 0 16 16" width="16" xmlns="http://www.w3.org/2000/svg" xmlns:xlink="http://www.w3.org/1999/xlink"><mask id="a" height="16" maskUnits="userSpaceOnUse" width="16" x="0" y="0"><path d="m15.5.5v15h-15v-15z" fill="#fff" stroke="#fff"/></mask><g fill="#141414" mask="url(#a)"><path d="m13.4435 7.01161c1.1031-1.1032 1.0907-3.01909-.172-4.282-1.2629-1.26291-3.1794-1.27586-4.28269-.17259l-.8617.8618-1.0607-1.06071.8618-.86178c1.7525-1.752475 4.62079-1.610556 6.40399.17262 1.7829 1.78316 1.9243 4.65096.1719 6.40336l-.8617.86171-1.0607-1.06061z"/><path d="m12.0294 5.03033-6.99995 6.99997-1.0607-1.0607 7.00005-6.99987z"/><path d="m1.49608 7.92772.86182-.8618 1.0606 1.0607-.8618.8618c-1.1032 1.10318-1.09024 3.01968.1727 4.28268 1.2629 1.2626 3.1788 1.2751 4.282.1719l.8618-.8618 1.0606 1.0607-.8618.8618c-1.7523 1.7523-4.6201 1.6109-6.40328-.172-1.783184-1.7832-1.925114-4.65148-.17264-6.40398z"/></g></svg>