<svg fill="none" height="115" viewBox="0 0 231 115" width="231" xmlns="http://www.w3.org/2000/svg"><path d="m164.474 24.2054c.024.0972.151.3526.23.535.97 2.3713.964 2.3834.721 2.9246-.297-.9607-.642-1.8606-.964-2.7847-.188-.45-.381-.8999-.588-1.362-.103-.231-.212-.456-.321-.6931-.121-.225-.248-.45-.376-.681-.188-.3283-.345-.912-.521-1.3924-.321-.2553-.406-.152-.376.1399.018.2918.14.7843.255 1.2768 1.479 2.4503 1.279 3.3563 1.891 5.308.285.0729.54.1459.818.2189.2.4742.413.9667.625 1.4714.218.5107.4 1.0579.618 1.6234.018.2553.079.6019.152.9667.06.3709.121.7539.181 1.1066.109.687.146 1.1856-.091.9485.225 1.1552.364 2.0976.504 2.9975.097.8694.194 1.7024.272 2.578.388.4621.588.8147.667.5411.036-.1338.049-.4256.024-.9303-.048-.5229-.115-1.2342-.206-2.2314.146.1642.261.152.467 1.362.333 1.9578.624 4.0189.412 5.2107-.036.2432.03 1.0457-.006 1.4957-.061.8269-.091 1.5686-.224 2.657.006.1581.042.8451.079 1.5322l-.206-1.0337c-.037 1.4167-.158 2.8273-.261 4.1528.054.3891.115.8451.17 1.2768.097-.2128.2-.5168.303-.6384.26-.3162.454-.9424.539-1.9031.043-.4803.079-1.0458.079-1.6963-.012-.6506-.049-1.3924-.103-2.2193-.061-.7357-.146-1.4653-.243-2.426.2.2007.34.3344.485.4804.4 4.8154-.048 8.4696-.654 12.2454-.146.2432-.297.4925-.406.6688-.061.5897-.116 1.137-.164 1.6416-.067.5047-.139.9607-.218 1.362-.17.912-.406 1.6294-.649 2.4259.54 1.3194-.279 4.0616-1.206 6.8463.164-.1034.261-.1642.37-.2372-.158.5837-.279 1.0519-.328 1.2161-.339.5776-.642 1.0457-.976 1.5747-.084 1.0701-.139 1.6052-.315 2.2193-.17.6141-.448 1.3133-1.054 2.6874-.14.3283-.316.7296-.437 1.0579-.497 1.4714-.982 2.2193-1.479 3.1009-.097.1885-.218.4378-.491.985.237-.304.37-.4986.467-.5959.127-.1277.224-.1945.321-.2797-.539 1.5566-.83 2.3409-1.164 3.0462-.321.7114-.703 1.3558-1.461 2.6023-.818 1.2829-1.63 2.4564-2.527 3.6055-.061.079-.152.2675-.218.383.23-.158.454-.3161.727-.5107-.443.681-.988 1.368-1.055 1.5261-.691 1.6113-2.443 3.5508-3.812 5.1499-.207-.0122-.322-.0486-.473-.0365-.14.0061-.491.2371-.837.5108-.357.2614-.715.5593-.854.76.369-.225.775-.4256 1.194-.7053-.746.9667-1.758 1.6963-2.643 2.1825-1.291.736-2.358 1.265-3.316 1.891-.333-.152-.576-.207-1.788.043-.473.267-.97.474-1.558.675-.624-.037-1.521-.238-1.848-.31-.679-.08-1.267-.329-1.746-.706-.255-.164-.455-.407-.679-.608-.188-.249-.4-.462-.57-.748-.218-.285-.4-.644-.594-.9785-.158-.3648-.333-.7053-.424-1.0641-.218-.6566-.691-1.4166-.631-2.1402-.012-.0547-.382-1.5018-.503-2.3712-.03-.2615-.048-.5594-.066-.8147.127-.4804.26-1.0215.315-1.5383.079-.5229.115-1.0276.079-1.4593-.091 0-.188 0-.285-.006.012-.4196.018-.7053.03-.9911.133-2.6023.818-5.3809.836-7.6792 0-.0973.055-.3831.097-.5715.207-.9668.304-1.9092.74-2.9489.23-.5715.618-2.3713.958-3.5447.321-.4013.454-.0426.957-1.7572-.091-.0608-.181-.1216-.327-.2249.976-2.7361 1.982-5.2229 3.073-7.7522-.139.1277-.272.2432-.436.3891.43-1.2221.873-2.4199 1.315-3.6116.467-1.1613.903-2.3165 1.437-3.4292 1-2.2375 2.206-4.7911 3.473-6.378.133-.1581.449-.7722.74-1.2769-.207.1703-.346.2858-.437.3588 1.073-2.1524 2.225-4.1893 3.425-6.2261.345-.5533.915-1.4471 1.127-1.672.703-.7661 1.376-1.7572 2.067-2.7239 1.473-1.9274 1.873-2.3895 3.655-4.1224.437-.4438.934-.9059 1.692-1.6416-.249.0426-.382.0669-.522.0912 1.807-2.2801 3.643-3.5204 5.716-5.9221-.873.7297-1.473 1.3134-2.097 1.8727l.036-.1216c.649-.6809 1.285-1.3741 1.952-2.0125.661-.6506 1.291-1.3072 1.946-1.8909.497.0912 1.982-1.4775 3.043-2.2071.285-.6506.261-.6992 3.261-2.955v.1825c3.479-2.5233 6.946-4.9189 10.765-6.7429 2.291-1.1309 4.807-2.2801 7.292-3.2286 4.31-1.59297 8.783-2.73603 13.33-3.25893.618-.07904 1.242-.09727 1.86-.14591.619-.0304 1.237-.10337 1.861-.08512 1.255 0 2.449-.01217 3.789.03039-1.643-.31009 2.358-.38913.576-.64449 3.831-.04257 7.352-.08512 10.832-.12161.282.18241 1.846.25739 4.691.22497.17-.0608.618-.14593.509-.20065-.697-.34657 1.085-.71137-.436-1.05794-.188-.04256.054-.15808.351-.20672 2.171-.36481.498-.77218.589-1.15523-1.704-.16416-1.195-.44993-.77-.60801.794-.30401.891-.61409 1.121-.9181.249-.32833 1.303-.62017 1.358-.96674.048-.30401-1.431-.5837-.37-.8877.067-.01824-.073-.0608-.2-.08512-.788-.12769-.661-.26145-.612-.41953.03-.109447-.534-.255372-1.146-.334414-3.103-.401289-7.249-.407367-10.644-.036479-1.867.200644-2.831.182405-4.637-.01824-.521-.060801-1.085-.121602-1.685-.170243-.303-.02432-.594-.048645-.921-.060805-.334-.00608-.667-.012154-1.001-.012154-4.582-.00608-9.213.535053-13.717 1.568675-.479.10944-1 .23712-1.503.3648-.497.13377-.97.30401-1.364.44994-2.752.96674-5.722 1.897-8.377 3.13735-.327.16416-.812.34656-1.164.47425-.485.17632-.97.37088-1.442.56545-.467.2128-.922.44384-1.376.68097-.91.46817-1.795.97282-2.631 1.53219-.582.37697-1.121.71138-1.685 1.03975-.552.3404-1.134.6749-1.813 1.0275-.945.4682-2.321 1.5079-3.424 2.2922-.94.7235-1.752 1.4349-2.801 2.0855-.8.529-1.564 1.1005-2.309 1.7024-.734.6202-1.431 1.2769-2.14 1.9396-.642.608-1.388 1.3923-2.024 1.9152-.691.5655-1.285 1.1553-1.892 1.745-.606.5837-1.194 1.1857-1.794 1.8423-.509.5533-1.103 1.1005-1.685 1.666-.582.5715-1.188 1.1552-1.752 1.7146-.072.0729-.151.1641-.224.2432-1.758 2.1341-3.431 4.2986-5.237 6.4206-.34.377-.855 1.1917-1.225 1.7876-.436.6931-.879 1.368-1.242 2.0246-.612 1.1066-1.261 2.0308-2.025 3.034-1.03 1.289-1.933 2.8881-2.873 4.548-1.74 3.0887-3.382 6.2686-4.837 9.5397-.127.2736-.279.5411-.412.8026-.358.6992-.685 1.4227-1 2.1645-.297.7357-.576 1.4836-.867 2.2557-.449 1.2465-.988 2.6571-1.455 3.7819-.939 2.2192-1.661 4.4081-2.17 6.6456-.315 1.3619-.649 2.5597-1.079 3.9825-.921 3.0887-1.527 6.5908-2.109 9.8498-.109.6141-.176 1.5808-.206 2.3712-.103 2.2983-.152 4.554.018 7.0712.151 2.0916.63 4.4568 1.612 6.7915.091.207.182.42.273.638.109.213.224.432.339.651l.358.651c.139.212.279.425.412.638.261.42.57.821.867 1.204.279.383.594.729.879 1.046 1.333 1.526 3.085 2.675 4.879 3.319 1.801.651 3.577.858 5.353.791.642-.006 1.279-.104 1.927-.183.631-.109 1.273-.218 1.855-.37 1.673-.396 3.195-1.022 4.558-1.77 1.364-.748 2.613-1.605 3.698-2.566.558-.462 1.333-1.161 1.849-1.568 2.303-1.897 4.109-4.074 5.637-6.4513.485-.7661 1.121-1.7328 1.624-2.4807 1.558-2.2618 2.807-4.5966 3.868-7.0529.345-.7722.727-1.6113 1.085-2.4139 1.073-2.4138 2.067-4.858 2.721-7.3326.085-.3405.267-.8877.388-1.2039 1.249-3.1434 1.988-6.2868 2.479-9.5275.2-1.2586.394-2.2862.691-3.3259.219-.7113.37-1.4835.498-2.3043.066-.4135.121-.8391.175-1.2829.043-.4439.073-.906.097-1.3802.152-2.4321.2-4.9432.134-7.734.339-1.7693.309-4.4628-.061-7.3144-.067-.6931-.188-1.3741-.291-2.0672-.103-.6932-.194-1.3863-.321-2.0855-.134-.7661-.285-1.9821-.291-2.3713 0-2.2861-.588-5.1012-1.54-8.1534-.254-.7783-.533-1.6295-.8-2.4503-.291-.8208-.57-1.6295-.776-2.3287-.867-2.657-2.024-5.0161-3.412-7.3934-.479-.754-1.043-1.6538-1.413-2.3227-1.436-2.4867-3.212-4.5905-5.346-6.51178-.388-.33441-.824-.75393-1.279-1.1613-.473-.38913-.933-.78434-1.315-1.12483-2.013-1.7146-4.213-3.13127-6.892-4.09193-.71-.26144-1.552-.48641-2.358-.75394-.812-.2432-1.619-.401284-2.261-.595848-.521-.164164-1.055-.261447-1.582-.352649-.534-.085122-1.061-.170249-1.582-.261451-1.043-.0790414-2.104-.15199706-3.116-.14591693-2 .05472123-3.958.27360593-5.88.69313493-.697.170244-1.764.35265-2.279.45601-3.291.44993-6.316 1.65988-9.262 3.10695-.897.40737-1.806.93026-2.74 1.38627-.915.48033-1.8.9789-2.612 1.37411-2.243 1.20386-4.189 2.45029-6.068 3.95817-.412.3222-.818.6384-1.224.9485-.4.3222-.8.6445-1.206.9667-.819.6324-1.631 1.2951-2.467 1.9761-.982.7722-1.91 1.6355-2.855 2.4807-.922.8694-1.831 1.7511-2.692 2.6388-1.024 1.0761-1.776 1.8179-2.8244 2.8151-1.9337 1.7814-3.8249 3.8183-5.6736 6.3415-1.4366 1.9761-3.0368 4.1771-4.5098 6.2018-.7092.9667-1.3336 1.9091-1.9458 2.8272-.5879.9303-1.1395 1.8484-1.679 2.7969-.4183.7722-.9335 1.6599-1.4305 2.4442-1.4184 2.3469-2.6489 4.6452-3.7521 7.0408-.4667.9607-1.0668 2.1767-1.6002 3.1313-1.1214 2.1341-2.0125 4.3108-2.7944 6.5179-.6365 1.7693-1.2911 3.5994-1.9276 5.3687-.8244 2.2922-1.5457 4.4689-1.9821 6.6335-.2849 1.368-.6365 2.7299-1.1275 4.2074-.8304 2.499-1.3759 5.3141-1.6911 8.2629-.1516 1.4897-.3152 3.2286-.4304 4.6513-.1636 1.7207-.1697 3.4231 0 5.156.1698 1.7267.5031 3.4778 1.1214 5.2714.3758 1.1313.9456 2.3353 1.6124 3.5083.691 1.173 1.5517 2.298 2.4428 3.283 1.2911 1.429 3.1217 2.517 4.9341 3.04 1.8124.535 3.5823.602 5.1523.432 3.0732-.426 4.9764-1.125 7.1586-2.061 1.1941-.511 2.6126-1.374 3.6794-2.219 1.7881-1.411 3.2187-2.968 4.6189-4.591 1.0366-1.1855 2.0426-2.4624 2.9826-3.7331.782-1.1005 1.6-2.2557 2.218-3.3562 1.449-2.5659 2.631-5.1499 3.71-7.8677.357-.6445.818-1.362 1.151-2.1828 1.019-2.4503 1.886-4.931 2.365-7.2353.297-1.3924.691-3.0036.988-4.5662.284-.6445.484-1.0519.678-1.5991.194-.529.455-1.2464.582-1.8119.667-3.1617 1.213-6.5848 1.358-9.4303.03-.5472.061-1.0579.103-1.5443.024-.4925.061-.9607.097-1.4167.085-.912.17-1.7997.261-2.7847.054-.6141.133-1.2221.17-1.8848-.122-.7053-.237-1.3681-.37-2.1099.048-.9606.097-1.7389.109-2.5718 0-1.0154.03-1.9518.042-2.9307-.024-.9789-.054-1.9943-.248-3.1434-.218-1.1674-.328-2.2618-.461-3.2894-.109-1.0336-.176-2.0064-.242-2.9427-.037-.4257-.073-.8756-.091-1.1249-.564-2.2922-1.164-4.3229-1.861-6.3902-.249-.76-.503-1.5808-.794-2.3712-.273-.7965-.528-1.5809-.8-2.274-.219-.5959-.419-1.1309-.655-1.6538-.249-.5168-.515-1.0336-.83-1.6112-1.334-2.3591-2.922-4.5966-4.692-6.8645-2.534-3.17993-5.9101-5.90991-9.8986-7.48466-.4788-.18849-.9819-.38912-1.4911-.58369-.5213-.15808-1.0486-.32225-1.5699-.48033-.2606-.07905-.5213-.15809-.7759-.23713-.2546-.07296-.5152-.1216-.7638-.18241-.5031-.11552-.9819-.23712-1.4305-.35264-.8061-.21281-1.4547-.24929-2.0609-.32833-.3031-.0304-.594-.05472-.8971-.08512-.3031-.01216-.6062-.00608-.9396-.01216-3.3217-.0912-6.8192.41953-9.856 1.16131-3.6006.83905-6.6555 2.11588-9.6318 3.7332-.7637.44385-1.5699.91202-2.3882 1.35587-.7941.48033-1.6002.93634-2.3882 1.31329-1.8246.9181-3.6915 2.1767-5.2311 3.5083-1.273 1.0336-2.4428 2.0733-3.6612 3.0339-1.2002.9789-2.358 1.9578-3.5763 2.9185-.9092 1.0093-1.8427 2.0004-2.8368 3.0158-.9577 1.0457-2.0003 2.0915-3.1217 3.2163-.988 1.0276-2.1457 2.3591-3.0247 3.4961-1.2123 1.593-2.3094 2.882-3.4551 3.9521-.2545.231-.6122.6323-1.0062 1.0397-.7698 1.1917-1.6426 2.4929-2.5882 3.8062-.9517 1.3133-1.9276 2.6509-2.8793 3.9521-2.4428 3.3319-4.5158 6.7246-6.607 10.1477-.782 1.3194-1.4427 2.4746-2.2853 3.6298-.3455.4621-1.0062 1.5748-1.1638 1.9822-.5637 1.3923-1.4729 2.9063-2.3155 4.4749-1.1274 2.1828-2.3336 4.3109-3.4429 6.4754l-1.7094 3.2285c-.5516 1.0823-1.0971 2.1706-1.6487 3.259-1.10318 2.122-2.04879 4.3838-3.07318 6.5787-1.05471 2.2983-2.05485 4.6331-3.09744 6.9313-.53341 1.2525-1.12139 2.4808-1.48508 3.8913.67283-1.3558 1.32141-2.6935 1.96393-4.0433.66677-1.3437 1.32746-2.7056 1.99423-4.1284.67283-1.4774 1.64267-3.4109 2.11547-4.0676.55766-.7661.98807-1.7146 1.49117-2.6752l2.2731-4.5784.0666.0669c-.7819 1.5018-1.5578 3.0097-2.3397 4.5115.2424.158-.1516 1.2707-.91532 2.9367-.44249.9546-.88498 1.9152-1.32748 2.8637-.78799 1.818-1.55175 3.6238-1.66692 4.6513 1.20625-1.9943 2.20639-3.49 3.81872-6.8401-.5031 1.5565-1.14557 2.809-1.68505 3.9764-.83043 1.7571-.93348 2.584-1.37598 3.8426-.49098 1.4228.09699.5108.10911.6324-.41219 1.3498-.99407 2.961-.92133 3.0826.22428.3769-.55159 2.1463-.93953 3.4657-.60009 2.1098-1.41842 4.195-2.26097 6.439-.15154.413-.25459.833-.37582 1.252l.07881-.03c.38187-.991.76376-1.982 1.1517-2.906.88499-.991.83649-.681-.30307 2.103-.92742 2.347-1.81243 4.494-2.41252 6.798-.15154.571-.46671 1.368-.697053 2.055-.27883.845-.551598 1.69-.945597 2.882.83043-1.429 1.53962-2.657 2.38218-4.122.04243-.122.25456-.73.47278-1.259.83043-2.012 1.66086-4.432 2.54585-6.104l-.04244.085c.20003-.59.40009-1.192.63042-1.745.9153-2.1952 1.77602-4.4874 2.75193-6.5242.56978-1.216 1.0729-1.6538 1.75178-3.3623.2364-.0122.1455.4924-.3394 1.6842-.35161.8633-.70925 1.7328-1.07294 2.5779-.80618 1.8666-1.55781 3.7515-2.30944 5.5394-.12729 1.739-1.33353 4.675-2.1882 7.223 1.89119-4.901 3.80664-9.7953 6.06148-14.9269-.103.5533-.1636.8512-.2182 1.1552l.1697-.2432c.3455-1.1187.685-2.2314 1.0729-3.49-.3576.5655-.6.9485-.9031 1.4349.5637-1.6051 1.1395-3.0157 1.776-4.6999-.6122.7357-1.1214 1.3437-1.6366 1.97.8425-2.0004 1.6366-4.0433 2.5883-6.1653.5819-.8087.9153-1.2951 1.285-2.0551.3698-.7539.7698-1.7936 1.5639-3.6663-.2971.304-.594.6141-.9214.9485.6607-1.897 1.9882-4.6513 2.3943-6.1409.0424-.1642.4304-.8817.6668-1.3437.2364-.4621.588-1.0641.7031-1.362.6486-1.7389 1.2002-2.2314 1.7033-2.8577.3758-.8147.7456-1.6112 1.0365-2.2253.3819-.3344.6607-.5837.9456-.833 1.2911-2.5536.0243-1.064.4547-2.1827-.4668.535-.8486.9789-1.279 1.4714.6546-1.3681.9274-1.5809 1.2668-1.9214.3758-.3769.6547-.5472 1.3821-1.7389 1.1759-1.8483 2.3579-3.642 3.6248-5.5025-.1455.5898-.2789 1.137.691-.1581.4788-.8694-.6001.1946.6425-1.5687.1576-.1033.3091-.1945.5637-.3587.2122-.5654.3637-.9302.4486-1.2099.0848-.2858.1576-.529.1697-.7114.0364-.4439-1.0668.2736-1.57 1.1187-1.5275 2.5111-1.3213 1.5991-1.8002 2.0247.5577-1.0214 1.0789-1.9091 1.4426-2.6509.4304-.8634.5698-1.3376.0849-.9242-.3334.2918-.8729.9363-1.1517 1.5687-.6061 1.3376-1.7518 2.9245-2.461 4.3412-.1212.231-.4243.6323-.6425.9546.4425-.8877.9214-1.6842 1.3335-2.4442.4304-.7783.8789-1.5505.7638-1.7086-.2122-.2857.5819-1.6842 1.6305-3.3258.5153-.7539 1.0305-1.5079 1.6488-2.4138.0363-.7418-.6001-.6019.4788-2.6996.1152-.2128-.0909-.1033-.1515-.1459 1.5578-2.0733 1.776-2.2557 1.582-1.4592-.0424.1702.0789.2067.2849-.0183.8547-.9181.4729-.2128.0122.5594-.3637.6323-.885 1.3619-1.4851 2.3408 1.285-1.3254 1.3699-.8998 1.1153 0 .8062-1.1795 1.4609-2.1402 2.1094-3.0826.5395-.2128-.4485 1.1978-.9274 2.0065-.7516 1.2403-1.5942 2.6448-2.3155 3.8791.1576.1094.2849.1885.4607.3101 1.4729-2.1159 3.0429-3.7028 4.7583-6.3173-.1637-.2736-.3031-.5046-.4607-.7661-.2788.1642-1.4669 2.0125-1.3032 1.2039.6183-.7722 1.2668-1.5018 1.9578-2.2983.6971-.7904 1.4184-1.666 2.3095-2.6266-.988.7174-1.673 1.295-2.5458 1.9699.3091-.5229.594-1.1248 1.0244-1.7146 1.091-1.4349 1.3032-1.8909 1.1092-2.0186-.3152.3344-.6364.6628-1.2971 1.3498.8546-1.2768 1.4426-2.1888 2.1275-3.1616.2546-.377.8972-1.1006 1.1214-1.283.6668-.5532 1.3578-1.2707 2.067-2.0794.7213-.8025 1.4911-1.6659 2.2731-2.5415-.5698.8573-1.1275 1.6964-1.6912 2.5415-.5334.8573-1.0729 1.7268-1.6305 2.6267.885-.9181 1.5093-1.5626 2.3761-2.4625-.9759 1.2099-1.7578 2.1828-2.558 3.1677.2364.4013 1.673-.7904 3.1338-2.0429.291-.3891.5941-.76 1.1517-1.4714-.0424.3588-.0727.5959-.097.8026.6304-.4378 1.5518-1.216 1.7397-1.1735.1879.0426.5819-.231 1.0911-.6323.5212-.3891 1.1516-.8998 1.782-1.3498-.1939-.1885-.3151-.3101-.4424-.4377-1.0305.8755-1.8731 1.4774-2.5156 1.9334-.3758.2554.491-.9789.6304-1.0093.491-.1763 1.9397-1.8362 2.3398-1.897.1091-.0182.6607-.5168 1.3699-1.0275-.0364-.4256 1.2305-1.4714 2.3337-2.505-.6789.3709-1.1517.6931-1.8791 1.1309.4304-.4013.7759-.7236 1.0911-1.0154.3273-.2797.6182-.5351.9395-.8147-.1697-.0183-.2849-.0304-.4-.0426l.303-.2919c.8123-.456 1.6124-.9302 2.4004-1.3437.6546-.8877.8789-1.0883 1.9882-1.7146.5152-.304.9516-.4681 1.4002-.6566.0606-.0243-.0364.0912-.0606.1398-.6062.4378-1.1699.9364-1.7821 1.4471.9456-.1702 1.085-.3101 3.1399-1.7207-.1516-.2128-.3092-.4195-.4729-.6445.6486-.5654 1.2488-.9181 1.8852-1.2525.6365-.3465 1.285-.7235 2.0609-1.3498-.4182.1581-.7274.2554-.7455.146-.0122-.1034.2545-.4378 1.0607-1.0276.5819-.0973 1.0729-.1763 1.6669-.2736.3637-.383.6001-.6202.685-.6931.9274-.4804 1.7639-.9485 2.6186-1.3681.8728-.383 1.7336-.8147 2.7155-1.2038-.2424.2918-.4667.608-.7153.9606.5032-.2249.976-.3344 1.4852-.4681.5091-.1338 1.0607-.3101 1.7457-.5837-.7638.0486-1.4426.1155-2.2549.1885.9214-.377 1.5457-.6141 1.9639-.8148.9517-.38303 2.8005-.71136 3.0914-1.07009.388-.05472.7758-.12159 1.1638-.20063.1939-.04256.3819-.09121.5819-.13377.194-.0304.3879-.06688.5819-.10944.0606.06688.3334.12768.1455.20672-.194.08512-.4546.15808-.7638.26752-.3091.12769-.6667.26754-1.0971.44386 1.2972-.35265 2.4488-.42561 3.4308-.52898.982 0 1.8064.04865 2.461.21281.5698-.45601-1.8003-.53505-2.3579-.87554.9031.01216 1.7215-.04256 2.5277.01216.4.03041.8001.06688 1.2062.09728.2.01824.4061.0304.6122.04864.2061.02432.4062.06688.6122.09729.0728 0 .3637-.02432.6062-.04256.3637.06688.7273.10336 1.0728.18848.3455.0912.685.17633 1.0245.26753.2788.07904.6304.13984.9274.2432s.5516.20065.6607.26753c.3758.22496.1576.28579-.5395.152-.2546-.04864-.394-.03648-.6668-.02432.8729.25541 1.5215.51071 2.1337.72351.0303.2797.6849.6688 1.4972 1.1066.394.2554.8183.529 1.2426.8087.4243.2736.788.6262 1.1214.912.0243-.4135.0303-.7296.0363-1.0458-.1091-.1155-.4121-.3587-.5819-.5046-.1757-.1338-.1879-.2372.3092-.073.097.2432.1576.4013.2182.5594.394.231.8122.4438 1.2062.6992.3819.2675.7577.5229 1.1214.7539.5455.3405.9093.7357 1.2366 1.058.1576.1641.291.3222.4122.4803.1091.1642.2061.3283.2909.4864.1334.2432.1273.3648.1758.5168.5272.5533.9702 1.0884 1.4362 1.6356.485.5289.873 1.1734 1.304 1.9091-.461-.4013-.873-.76-1.328-1.1552.249.4439.412.7783.631 1.137.109.1824.23.3709.357.5594.115.2006.23.4013.346.6019l-.043-.0547c.364-.1399 1.249.5411 2.322 2.0247.218.535.394 1.1126.539 1.5626.406.4681.534.3891.467-.0548-.03-.2249-.109-.535-.224-.9181-.115-.383-.303-.8086-.497-1.2829.272.1216.503.2189.8.3588-.291-.529-.54-.985-.77-1.4106-.255-.4074-.491-.7844-.727-1.1613.036-.2919.169-.3831.854.5897 1.122 1.745 1.213 1.3498 1.437 1.1613.127-.1094.018-.5715-.23-1.2464-.279-.6566-.698-1.5139-1.182-2.3895.357.3648.575.6506.86.9728.231.456.473.8877.679 1.3498s.412.9364.643 1.4532c.406.0851.794.1763 1.157.2736 1.298 2.6813 2.219 5.314 2.977 7.9832-.291-.1581-.546-.2979-.837-.456.061.3587.17.9606.273 1.5565l-.176-.2067c-.194-.6324-.388-1.2708-.576-1.8849-.2-.6141-.418-1.1977-.612-1.751-.012-.5351-.018-.8634-.048-1.21-.443-1.0336-.819-1.9396-1.401-3.0765-.024.2128-.2.2371-.048.6627.612 1.8423.558 2.8516 1.582 5.7457-.946-2.3408-.412.073-.673-.0547-.515-1.3315-1.042-2.6449-1.576-3.7393-.018.7296-.018 1.2829-.061 1.9092.194.6445.425 1.4653.558 2.128.115.6688.164 1.1674.061 1.1553-.291-.0365.03 1.0944.036 1.751.037.9911.079 2.0004.03 2.9003-.03.5958-.054 1.0336.237 2.5536.224-.2067.461-.4134.691-.6262.176.9485.345 1.7936.485 2.8151.23.2736.467.5472.654.7661.152.7478.231 1.4531.34 2.1402.115.6931.194 1.3741.273 2.0976-.303.2858-.503.8816-.564 3.2042-.103-.2371-.243-.7478-.267-.5715-.194 1.4592-.563 1.9457-.685 4.8216.194-.4317.382-1.1857.528-1.1613.242.0304.309 1.1309.182 2.809.206 1.7997.672.3952 1.024-.833.097 1.6903-.091 3.1009-.315 3.2529-.346.2189-.782 1.2221-.861-1.362-.079 1.5383-.182 2.505-.279 3.5387.103.2918.212.5593.309.8512-.157.8269-.303 1.5869-.43 2.2679-.061.9728.448.0364-.018 2.2435-.097-.3101-.188-.5958-.309-.991-.134.839-.261 1.599-.413 2.2922-.145.6931-.248 1.3315-.394 1.9335-.345.8451-.654 1.6781-1.157 2.8272.181.2432.297.4013.472.6384-.533 1.362-.963 2.3166-1.466 3.4718.066.3466.121.6323.175.9181-.194 1.5869-1.194 3.3562-1.667 5.0587-.315.2736-.563.4925-.86.7539-.237 1.1795-.534 2.2375-.691 3.0765-.188.833-.388 1.7025-1 3.0827-.898 2.0429-1.086 2.2739-1.431 2.1463-.03-.0122-.042-.0669-.073-.1277-.303.6627-.545 1.1552-.9575 1.9943.0243-.3709.0243-.6202.0303-.8756-.3273.5898-.6546 1.0762-1.0547 1.7389-.0788-.2736.3031-1.2403-.8123.1642-.103.7357-1.388 2.5233-2.2245 3.7332-1.0608 1.5748-2.7459 2.8455-3.8915 4.0921-.3395.176-.7577.432-1.0971.602-.3395.164-.588.267-.5638.2.0364-.121.2425-.34.485-.595.2364-.268.497-.56.7273-.8213-.594.2193-.9153.3833-1.5093.6993-.1515.085-.3092.182-.4971.292-.1879.103-.4061.219-.6485.352-.491.274-1.1214.578-1.9457.906.2606-.036.5273-.073.7879-.103.2667-.049.5213-.109.7274-.128.4122-.042.6304.031.2728.438-.782.359-1.5275.608-2.5337.863.5334.013.9213.049 1.3698.019-1.1274.669-2.2851 1.179-3.6671 1.483-.091-.194-.1698-.383-.2486-.565-.6546.2-.6667.45-1.4002.492-.2061.025-.4486-.012-.7213-.036-.2728-.018-.5638-.091-.8608-.164-.6001-.14-1.1941-.402-1.6972-.657-.2242.037 1.2851.918.0667.432-1.1032-.845-2.0791-1.879-3.1823-3.746.5395.754 1.1335 1.435 1.8367 1.946-.3031-.468-.0183-.268.2484-.073.291.176.582.328.2728-.067.9578.857 1.8185 1.265 2.7944 1.545.0788-.086.1636-.177.2727-.292-.988-.219-1.685-.56-2.2063-.925-.3576-.285-.297-.425-.3334-.541-.0121-.067-.0424-.139-.1334-.255-.0909-.116-.2182-.304-.4728-.553-.2909-.207-.4061-.104-.6486-.207-.1273-.043-.2788-.164-.4909-.42-.2243-.243-.485-.6562-.7941-1.3189.0121-.1034.0303-.304.0546-.5533-.3152-.3709-.5577-.7053-.782-1.0154-.2061-.3223-.394-.6141-.5819-.8999.1334.5412.2485 1.0884.4728 1.7268-.4122-.8816-.3758-.912-.4425-1.666-.0182-.4013-.0364-.8026-.0606-1.2464.0121-.4499 0-.9363.0303-1.514-.2121.0183-.3334.1034-.4728.0244-.1333-.0791-.2789-.3223-.4183-.4864-.1333-1.8849.0122-3.1739.2122-4.2501.194-1.0761.4304-1.9456.6425-3.0461.2304.985.4304 2.28.8487 2.1219-.2061-2.4685-.1698-2.4867.0121-4.1831.0545.1277.103.2554.2.4804.0788-1.3802.5455-2.8881.5152-3.9157 0 0 .0788-.31.1758-.614.0909-.298.188-.5898.194-.5716.1213.45.2061 1.0215.3031 1.4593.8547-1.6538 1.776-4.5905 2.8852-7.6306-.0485-.5168-.0787-1.0215-.1151-1.5261l.0424-.0912c-1.0062 1.9031-1.7275 5.01-2.461 7.8008-.1273-.4074-.2485-.7783-.3636-1.1552.1879-.7905.3515-1.4228.4667-1.9761.6971-3.3319 1.6912-6.676 3.0004-10.0504.1576-.4257.4243-1.1674.4365-1.3073.0666-.912.7273-2.3712 1.2183-3.6541 0-.1642-.006-.3284-.0121-.4135.6243-1.4045 1.2123-2.7178 1.8245-3.946.0061-.3222.0122-.5229.0182-.7235.6668-1.1735 1.2487-2.2375 1.8912-3.2711l.1152-.4135c-.6183.7722-1.2123 1.5626-1.9094 2.5111.1273-.4803.2607-1.0154.4425-1.7024.5334-.6871.885-1.1309 1.3578-1.7389.2606-.8148.5455-1.5505.8426-2.3895.3151-.5229.6728-1.0884.7455-1.1978.7334-.5168 1.3456-.9485 2.1033-1.4775.2728-.8208.4668-1.3984.6668-1.9943.2-.0669.4607-.4742.9092-1.1795.0788-.1216.3758-.298.6062-.4743.4303-.912.7274-1.5626 1.1335-2.2922.1697-.3101.7031-1.1066.7698-1.1613.685-.5594 1.8488-2.5476 2.5701-3.0887.0485-.0365.9153-1.2403 1.0002-1.4532.2727-.6748.7698-1.1795 1.3759-1.8118.3577-.3709.7334-.7844 1.0305-1.0823 1.594-2.5597 3.376-3.9582 5.177-5.5876.169-.4378.309-.7661.406-.9911 2.406-2.6084 4.746-4.9006 7.34-7.1442.146 0 .334.0122.424.0122.801-.6141 1.552-1.1917 2.286-1.7511.757-.535 1.485-1.064 2.236-1.5869.103-.1155.273-.304.443-.4864.558-.2493 1.121-.6688 1.703-1.064.588-.3892 1.176-.7904 1.746-1.058.151.6141.151.608.697.3284.158-.2554.188-.4561.515-.7905.376-.3891 1.558-1.0822 2.225-1.2342.757-.2007 1.6-.5229 2.546-.86341.951-.37696 1.97-.77217 3.097-1.21602-.291.51681 1.158.06687 3.437-.49858-2.685.98498-4.819 2.04291-6.88 3.23461h.164c.6-.2736 1.206-.5411 1.794-.8086.6-.2311 1.182-.456 1.746-.6688.485-.12165.97-.17029 1.442-.24933.473-.06688.94-.15809 1.413-.21281.612-.32224 1.127-.58977 1.642-.86337-.315.04864-.775.11552-1.83.2736.861-.20672 1.551-.39521 2.212-.52897.667-.11552 1.291-.23105 2.019-.35873-.588-.31009-1.164-.59586-1.71-.86338.861-.21281 1.643-.41345 2.455-.52289 1.043-.26145 4.389-.04256 4.14.13376-.303.17024-.072.24321.352.27361.424.04256 1.067 0 1.576.09728h-.085c.085-.13376.17-.2736.242-.40128.479.05472.946.10944 1.413.15808.46.09728.915.19456 1.37.29184.23.04864.46.08512.685.152.224.07297.448.13985.672.21281.449.15201.922.26144 1.37.44993.249.24928.376.43169.685.67489.17.13984.788.46817.94.55937.345.15809.818.31009.77.21889-.322-.49857.812.24321 1.521.7965-.297-.1034-.582-.2067-.873-.2979-.297-.07299-.594-.14595-.885-.21891 1.419 1.34981 3.34 3.01571 5.601 5.40521.473.7296.764 1.3073 1.097 1.9396.485.231.752.0304 1.358.7357.418.4621.806.8998 1.194 1.3255.346.4012.673.7235.97.9424.067.3344.097.4864.133.6384.685.9728 1.443 1.8423 1.849 3.4839zm-51.839 25.1656c.164-1.0093.303-.687.346 1.435-.17.3222-.376-.6932-.497 1.0761l-.158-.6445c-.188-.8633-.303-.6262-.394 1.3377-.2-1.3559-.042-2.4503.097-3.6116-.151-.7722-.285-1.441-.424-2.1828.121-.7357.285-.3283.43.0669.14.3952.273.7722.406-.0426.164 1.3437.146 2.4929-.048 2.961-.218.5351-.006 1.137-.073 1.593.109-.6627.212-1.4105.321-1.9821zm-.806-6.0862c-.067.1885-.139.377-.248.6871-.116-1.441-.194-2.6692-.37-3.8305-.146-1.2221-.424-2.3713-.558-3.1252-.012-1.2647-.036-2.1159-.091-3.2529.097.2736.297.8573.34 1.1796.248 1.7389.424 3.1738.836 4.177 0 .0122.018.5655.031.8573.06.0791.151.2007.26.3527.091.9363.14 1.8179.182 2.7056-.133.1216-.267.2432-.394.3648l.012-.1094zm56.203-10.1416c.382 1.6659.672 3.1677.921 4.8337-.345-.2736-.624-1.0154-1.085-2.5659-.279-1.064-.685-2.2739-.667-3.1434.273.2858.558.5837.825.8756zm-148.1199 35.3377c-.6425 1.1552-1.2971 2.4564-2.3337 4.4081.5638-1.4471 1.1032-2.5658 1.0244-2.9063-.0909-.3527.782-2.0004 1.8367-4.0494-.2061.9972-.3577 1.7329-.5213 2.5476zm14.7174-26.8985c-.8607.8695-1.7033 1.7268-2.5095 2.5476.3819-.8695.8547-1.2951 1.2851-1.8727.4243-.5776.8486-1.2768 1.5396-2.2801.2485.0122.4728.0304.7092.0426-.4182.6384-.7213 1.1005-1.0244 1.5687zm77.6665-1.6842c-.243-3.0401-.273-3.1982.539-2.2557-.054.3405-.084.5229-.109.7053-.03.1641-.054.3283-.097.5776.134.6931.237 1.2464.473 2.4868-.351-.6628-.582-1.0884-.806-1.514zm2.121 17.0122c-.139.1338-.278.2736-.485.4682.328-2.0369.558-3.7819.758-5.7579.255 2.1645-.188 3.6237-.273 5.2897zm-17.378-45.376c-.5092-.4256-.9456-.8817-1.4305-1.21-.4728-.34047-.9274-.68704-1.3942-1.00929.0849 0 .1576.02433.2364.04257 1.3578.76002 2.7217 1.52612 4.2674 2.87592-.2607-.1155-.5153-.2311-.7881-.3527-.1333-.0608-.2727-.1216-.4182-.1824-.1515-.0486-.3091-.1033-.4789-.1641zm4.073 2.3287c.364.3404.704.6688 1.031.9728.164.1581.327.3161.473.4742.139.1703.278.3405.412.5047.267.3344.515.6688.745 1.0093.225.3405.394.7174.564 1.0822-.17-.1884-.382-.4742-.606-.7843-.242-.2979-.503-.608-.74-.8938-.466-.5654-.872-.9545-.909-.687l-.448-.5108c-.176-.3952-.346-.7904-.516-1.1734zm-58.7237 14.5011c.2424-.1885.6546-.4682.6243-.4317-.5213.7235-1.0668 1.4471-1.6851 2.2496-.2121.2797-.8001.8756-1.0244 1.0458-.1273.0973.0485-.2918.2606-.608.3698-.5533.885-1.2099 1.2851-1.7024.2606-.2736.4607-.5047.5334-.5655zm71.1927 17.0122c-.279-1.0884-.497-.6384-.812-2.4807.2-.2128.4-.4195.624-.6506.085 1.1674.152 1.9578.188 3.1313zm-106.22836 55.7546c.72132-2.2738 1.67296-4.4018 2.66706-6.5238-.75164 2.3226-1.75177 4.3716-2.66706 6.5238zm42.75806-76.348c-.291.7357-.3152.7114-1.8246 2.1888.5577-.6931 1.1154-1.3923 1.8246-2.1888zm126.1643-5.8066c.643-.4195 1.176-.7904 1.673-1.1005.503-.304.952-.5776 1.401-.8512l.03.1156c-.485.383-.958.7174-1.467 1.0153-.497.3162-1.024.5898-1.637.833zm-18.948-5.7457c.091.3162.17.5168.273.9668-.425-.5047-.77-.8513-1.073-1.1917-.297-.3466-.588-.6202-.934-.9364.685.3891 1.061.6871 1.734 1.1613zm-110.5684 15.6624c-.0727.1399-.0848.2129-.1576.2919-.8486.9911-1.6426 1.8666-1.5941 1.3011.7819-.7113 1.2668-1.1552 1.7457-1.593zm56.5294-8.4696c-.284-.6931-.654-1.2768-.278-1.0822.303.4742.515.912.588 1.143.072.225 0 .2493-.31-.0608zm10.232 21.5176s.049-.3952.085-.3344c.176.3223.243 1.0884.17 2.3044-.085-.6567-.17-1.3072-.255-1.97zm-104.42164 44.4215.17577-.1277-1.01226 2.5476-.18188.1337zm145.37364-75.8375c.224.1155.4.2067.552.2857.139.0852.254.1642.382.2554.327.2614.697.5411 1.388 1.1491-.431-.2371-.807-.4316-1.158-.7113-.358-.2736-.697-.6141-1.158-.985zm-41.831 44.2694c0-.0365.013-.7418.013-.76.084-.1885.163-.3222.248-.4621v.9364c-.091.1094-.176.2371-.261.2857zm-6.51-36.2193c-.218-.5229-.376-.7601-.321-.7783.036-.0061.273.2128.667.7053-.133.0304-.224.0486-.34.073zm3.492 18.3863c0 .1277.018.3891 0 .3709-.049-.0608-.109-.2189-.164-.3344 0-.1338-.006-.2676-.018-.4621.06.1398.127.2857.176.4317zm-6.468-18.0458.14.2492-.467-.4073-.164-.298.491.4621zm7.735 29.744s-.025.304-.037.4621l-.188-.7844.043-.4377c.06.2492.121.5046.188.76zm-58.676-24.9955c.0364-.006-.3455.4439-.3879.4682-.2364.1763-.4486.3162-.6062.4074-.0303.0182.2122-.2736.4243-.5412.2485-.152.4728-.3161.5638-.3344zm-35.3508 47.7169.0545.0183-1.0608 2.0611-.0424-.0425z" fill="#000"/></svg>