<svg width="18" height="18" viewBox="0 0 18 18" fill="none" xmlns="http://www.w3.org/2000/svg">
<path d="M9 8.10004C8.18475 6.51454 5.9655 3.56029 3.9015 2.10379C1.9245 0.708044 1.17075 0.949544 0.6765 1.17379C0.10425 1.43104 0 2.31004 0 2.82604C0 3.34354 0.2835 7.06354 0.468 7.68529C1.07925 9.73729 3.25275 10.4303 5.25525 10.2083C5.35725 10.1933 5.4615 10.179 5.5665 10.1663C5.463 10.1828 5.3595 10.1963 5.25525 10.2083C2.32125 10.6433 -0.285 11.712 3.13275 15.5168C6.8925 19.4093 8.28525 14.682 9 12.2858C9.71475 14.682 10.5375 19.239 14.7997 15.5168C18 12.2858 15.6788 10.6433 12.7448 10.2083C12.6407 10.1968 12.5369 10.1828 12.4335 10.1663C12.5385 10.179 12.6427 10.1933 12.7448 10.2083C14.7472 10.431 16.9207 9.73729 17.532 7.68529C17.7165 7.06429 18 3.34279 18 2.82679C18 2.30929 17.8958 1.43104 17.3235 1.17229C16.8293 0.948794 16.0755 0.707294 14.0985 2.10229C12.0345 3.56104 9.81525 6.51529 9 8.10004Z" fill="#141414"/>
</svg>
