<svg width="25" height="25" viewBox="0 0 25 25" fill="none" xmlns="http://www.w3.org/2000/svg">
  <g clip-path="url(#clip0_677_6984)">
    <path d="M0.5 2.19239C0.5 1.24289 1.289 0.473389 2.2625 0.473389H22.7375C23.711 0.473389 24.5 1.24289 24.5 2.19239V22.7544C24.5 23.7039 23.711 24.4734 22.7375 24.4734H2.2625C1.289 24.4734 0.5 23.7039 0.5 22.7544V2.19239ZM7.9145 20.5644V9.72689H4.313V20.5644H7.9145ZM6.1145 8.24639C7.37 8.24639 8.1515 7.41539 8.1515 6.37439C8.129 5.31089 7.3715 4.50239 6.1385 4.50239C4.9055 4.50239 4.1 5.31239 4.1 6.37439C4.1 7.41539 4.8815 8.24639 6.0905 8.24639H6.1145ZM13.4765 20.5644V14.5119C13.4765 14.1879 13.5005 13.8639 13.5965 13.6329C13.856 12.9864 14.4485 12.3159 15.4445 12.3159C16.748 12.3159 17.2685 13.3089 17.2685 14.7669V20.5644H20.87V14.3484C20.87 11.0184 19.094 9.47039 16.724 9.47039C14.813 9.47039 13.9565 10.5204 13.4765 11.2599V11.2974H13.4525L13.4765 11.2599V9.72689H9.8765C9.9215 10.7439 9.8765 20.5644 9.8765 20.5644H13.4765Z" fill="white"/>
  </g>
  <defs>
    <clipPath id="clip0_677_6984">
      <rect width="24" height="24" fill="white" transform="translate(0.5 0.473389)"/>
    </clipPath>
  </defs>
</svg>