<svg width="18" height="18" viewBox="0 0 18 18" fill="none" xmlns="http://www.w3.org/2000/svg">
<mask id="mask0_14870_7825" style="mask-type:luminance" maskUnits="userSpaceOnUse" x="0" y="0" width="18" height="18">
<path d="M17.5 0.5H0.5V17.5H17.5V0.5Z" fill="white"/>
</mask>
<g mask="url(#mask0_14870_7825)">
<path d="M14.7835 7.94982C15.9555 6.77767 15.9424 4.74203 14.6007 3.4002C13.2589 2.05836 11.2226 2.04459 10.0504 3.21681L9.13481 4.13248L8.00781 3.00548L8.92348 2.08983C10.7855 0.227831 13.8331 0.37862 15.7277 2.27325C17.6221 4.16786 17.7723 7.21489 15.9104 9.07682L14.9948 9.99238L13.8678 8.86549L14.7835 7.94982Z" fill="#141414"/>
<path d="M13.2822 5.84466L5.84477 13.2822L4.71777 12.1552L12.1553 4.71777L13.2822 5.84466Z" fill="#141414"/>
<path d="M2.09031 8.92299L3.006 8.00732L4.13289 9.13432L3.21722 10.05C2.04507 11.2221 2.05884 13.2584 3.40072 14.6003C4.74255 15.9419 6.77819 15.9551 7.95034 14.783L8.866 13.8673L9.99289 14.9943L9.07723 15.91C7.21541 17.7718 4.16837 17.6216 2.27374 15.7272C0.379114 13.8326 0.228314 10.785 2.09031 8.92299Z" fill="#141414"/>
</g>
</svg>
