<svg id="Layer_1" data-name="Layer 1" xmlns="http://www.w3.org/2000/svg" viewBox="0 0 60 56.48"><defs><style>.cls-2{fill:#010101}</style></defs><path d="M30 2.77a1.94 1.94 0 00-1.73 1L3 50.82a2 2 0 001.73 2.89h50.53A2 2 0 0057 50.82L31.73 3.8A1.92 1.92 0 0030 2.77z" fill="#fbd545"/><path class="cls-2" d="M26.6 43.89a3.75 3.75 0 113.74 3.89 3.75 3.75 0 01-3.74-3.89zm.84-19.6l-.21-5.61h6.22l-.21 5.61-.86 12.9h-4.07z"/><path class="cls-2" d="M55.26 56.48H4.74a4.69 4.69 0 01-4.06-2.3 4.67 4.67 0 01-.11-4.67l25.26-47a4.74 4.74 0 018.34 0l25.26 47a4.73 4.73 0 01-4.17 7zM30 2.77a1.94 1.94 0 00-1.73 1L3 50.82a2 2 0 001.73 2.89h50.53A2 2 0 0057 50.82L31.73 3.8A1.92 1.92 0 0030 2.77z"/></svg>