<svg width="31" height="30" viewBox="0 0 31 30" fill="none" xmlns="http://www.w3.org/2000/svg">
<path d="M26.4 21.8C28.4 18 29.1 13.4 29.1 10.4C29.1 9.9 28.8 9.5 28.3 9.4L27.7 9.3C25.5 8.8 23.4 7.6 21.5 6.4C19.4 5.1 17.5 2.9 15.8 1.3C15.4 0.9 14.8 0.9 14.4 1.3C12.6 2.9 10.7 5.1 8.7 6.4C6.8 7.6 4.8 8.8 2.5 9.3C2.3 9.3 2.1 9.4 2 9.4H1.9C1.4 9.5 1 9.9 1 10.4C1 13.5 1.7 18 3.7 21.8C5.8 25.7 9.3 28.9 15 28.9H15.1C20.8 28.9 24.3 25.7 26.4 21.8Z" fill="#53FFBC" stroke="black" stroke-width="2" stroke-linejoin="round"/>
<path d="M20.6234 14.8207L17.2963 16.4083L20.6234 17.9958L19.1168 20.2424L16.1977 18.3553L16.4174 21.5004H13.6239L13.8436 18.3852L10.9559 20.2424L9.44922 17.9958L12.745 16.4083L9.44922 14.8207L10.9245 12.5742L13.875 14.4912L13.6239 11.2861H16.4174L16.1663 14.5212L19.1482 12.5742L20.6234 14.8207Z" fill="black"/>
</svg>
