<svg width="24" height="24" xmlns="http://www.w3.org/2000/svg"><path d="M21.589 4.088a.997.997 0 0 0-.313.223l-8.54 8.972a1 1 0 0 1-1.45-.003l-8.47-8.967a.996.996 0 0 0-.352-.24C2.634 4.025 2.814 4 3 4h18a2 2 0 0 1 .589.088zm1.323 1.323A2 2 0 0 1 23 6v12a2 2 0 0 1-.088.589.998.998 0 0 0-.205-.296l-6-6a1.005 1.005 0 0 0-.15-.124l6.167-6.48a.998.998 0 0 0 .188-.278zm-1.323 14.5A2 2 0 0 1 21 20H3a2 2 0 0 1-.589-.088.998.998 0 0 0 .296-.205l6-6c.04-.04.077-.084.11-.129l1.014 1.075a3 3 0 0 0 4.354.008l1.013-1.064c.029.039.06.075.095.11l6 6a.998.998 0 0 0 .296.205zm-20.5-1.322A2 2 0 0 1 1 18V6c0-.251.046-.492.131-.714.043.145.12.283.232.4l6.106 6.466c-.062.04-.122.086-.176.14l-6 6a.998.998 0 0 0-.205.297z" fill="#B7B9FA" fill-rule="evenodd"/></svg>