<svg width="136" height="144" viewBox="0 0 136 144" fill="none" xmlns="http://www.w3.org/2000/svg">
<mask id="mask0_3713_1252" style="mask-type:alpha" maskUnits="userSpaceOnUse" x="8" y="-37" width="179" height="171">
<path d="M185.035 39.3358L185.56 39.1818L185.36 38.673L169.934 -0.527702L169.742 -1.01564L169.264 -0.800663L120.404 21.1616L133.155 -27.8188L133.291 -28.3395L132.762 -28.4365L91.3344 -36.032L90.8047 -36.1291L90.7471 -35.5938L85.3778 14.2574L47.8669 -23.0588L47.496 -23.4277L47.1442 -23.0406L18.815 8.13792L18.4487 8.54108L18.8817 8.87161L62.4162 42.1035L9.92388 57.7295L9.3968 57.8864L9.60301 58.3962L25.494 97.6822L25.6874 98.1603L26.1593 97.9522L73.3784 77.1274L61.4253 124.332L61.2941 124.85L61.8198 124.947L103.247 132.542L103.773 132.639L103.834 132.108L109.49 83.266L146.629 120.039L146.997 120.403L147.348 120.023L176.143 88.9304L176.518 88.5253L176.078 88.192L132.087 54.8774L185.035 39.3358Z" stroke="#595CF3"/>
</mask>
<g mask="url(#mask0_3713_1252)">
<rect x="-6" width="142" height="142" rx="16" fill="#595CF3"/>
</g>
</svg>
