<svg width="20" height="20" viewBox="0 0 20 20" fill="none" xmlns="http://www.w3.org/2000/svg">
<path d="M10.0146 1.56856e-05C15.525 0.00806397 19.9744 4.48331 19.9604 10.0077C19.9483 15.5207 15.4873 19.9714 9.98327 19.9638C4.47283 19.9537 0.0250395 15.4785 0.0390957 9.95414C0.0495375 4.44187 4.51058 -0.00964226 10.0146 1.56856e-05Z" fill="#F1B846"/>
<path fill-rule="evenodd" clip-rule="evenodd" d="M7.0629 16.363C8.00627 16.8077 9.0143 16.9534 10.128 16.9441C10.6841 16.9508 11.2392 16.8942 11.7826 16.7755C14.0846 16.2841 15.7826 14.4528 16.1143 12.1107C16.1396 11.9208 16.085 11.8624 15.8986 11.8858C15.849 11.8922 15.7995 11.8989 15.75 11.9057C15.6408 11.9207 15.5317 11.9357 15.4211 11.9465C14.0822 12.0789 12.7388 12.1292 11.3942 12.163C9.75406 12.2057 8.11631 12.163 6.47856 12.0825C5.70346 12.0447 4.92997 11.9884 4.16049 11.8837C4.00667 11.8628 3.92916 11.9264 3.95968 12.0906C3.96492 12.1197 3.96989 12.149 3.97485 12.1783C3.98778 12.2546 4.00073 12.3311 4.01872 12.4061C4.44121 14.1823 5.37615 15.5678 7.0629 16.363ZM11.5218 14.1653C11.0099 14.2265 10.4944 14.2542 9.97886 14.2482V14.2478C8.72866 14.2386 7.49733 14.113 6.31902 13.649C6.05312 13.5409 5.79424 13.4162 5.54392 13.2756C5.24841 13.1133 5.17665 12.8283 5.10544 12.5454C5.09381 12.4992 5.08219 12.4531 5.06962 12.4076C5.04352 12.3134 5.1399 12.3142 5.20858 12.3235C5.87886 12.4144 6.55275 12.4559 7.22785 12.4909C8.72718 12.5697 10.2265 12.584 11.7258 12.5335C12.7491 12.4993 13.7716 12.4583 14.7881 12.3231C14.9001 12.3086 14.9439 12.3339 14.9174 12.4667C14.8295 12.9074 14.6198 13.2245 14.1917 13.4257C13.3407 13.8281 12.4495 14.0575 11.5218 14.1653Z" fill="#020201"/>
<path fill-rule="evenodd" clip-rule="evenodd" d="M7.62636 9.20635C7.62636 9.45584 7.48741 9.60675 7.27455 9.61842C7.04243 9.63089 6.89102 9.49246 6.86853 9.24699C6.82837 8.81963 6.50949 8.50091 6.07255 8.45343C5.62154 8.40474 5.20548 8.66389 5.087 9.07113C5.07151 9.13592 5.0613 9.20187 5.05648 9.26832C5.03118 9.49608 4.87536 9.63049 4.65006 9.61842C4.42475 9.60635 4.29263 9.44779 4.29905 9.216C4.31913 8.50373 4.94724 7.87154 5.73279 7.77295C6.46371 7.6812 7.17375 8.04216 7.47897 8.65826C7.56304 8.82967 7.61309 9.01581 7.62636 9.20635Z" fill="#030201"/>
<path fill-rule="evenodd" clip-rule="evenodd" d="M13.9608 7.76378C14.8403 7.76579 15.5227 8.31509 15.6476 9.09175C15.6626 9.17748 15.6626 9.26518 15.6476 9.35091C15.6134 9.52233 15.442 9.6326 15.2516 9.61851C15.0612 9.60443 14.907 9.47606 14.9058 9.27203C14.903 8.82616 14.4825 8.44426 13.9897 8.4495C13.497 8.45473 13.1391 8.77706 13.0893 9.26398C13.0652 9.5006 12.8998 9.63944 12.6676 9.61811C12.4508 9.59799 12.3215 9.43662 12.3327 9.1996C12.3632 8.5501 12.8917 7.96257 13.5837 7.80684C13.7071 7.77672 13.8338 7.76225 13.9608 7.76378Z" fill="#030201"/>
<path fill-rule="evenodd" clip-rule="evenodd" d="M3.37525 9.69818C3.65183 9.67113 3.92659 9.765 4.12907 9.95572C4.49774 10.2958 4.45557 10.7879 4.02987 11.0555C3.64513 11.297 3.23027 11.3026 2.82264 11.13C2.48409 10.9871 2.30055 10.6873 2.32907 10.3996C2.35678 10.1243 2.63991 9.83057 2.95959 9.74003C3.09475 9.70246 3.23533 9.6883 3.37525 9.69818Z" fill="#E49C9B"/>
<path fill-rule="evenodd" clip-rule="evenodd" d="M16.6193 11.2278C16.349 11.255 16.0799 11.1654 15.8795 10.9816C15.502 10.6439 15.537 10.1655 15.9518 9.87732C16.3534 9.59845 17.0221 9.62058 17.3976 9.93447C17.592 10.0974 17.7165 10.3107 17.6587 10.5699C17.5872 10.8918 17.3526 11.0769 17.0522 11.1816C16.9127 11.227 16.7653 11.2428 16.6193 11.2278Z" fill="#E49C9B"/>
<path fill-rule="evenodd" clip-rule="evenodd" d="M3.26387 6.42959C3.08033 6.40827 2.95503 6.33422 2.91688 6.15756C2.87672 5.97406 2.95182 5.83563 3.11768 5.76601C3.30162 5.68553 3.49358 5.62758 3.68274 5.56078C4.41286 5.30324 5.14325 5.04582 5.8739 4.78855C5.91166 4.77487 5.94901 4.75957 5.98756 4.74831C6.19519 4.69599 6.36547 4.77728 6.42933 4.95676C6.49639 5.1475 6.41286 5.32255 6.20001 5.39941C5.6478 5.60062 5.09278 5.79418 4.53897 5.98976C4.17377 6.11906 3.80831 6.2473 3.44258 6.37446C3.37913 6.39821 3.31447 6.41511 3.26387 6.42959Z" fill="#030201"/>
<path fill-rule="evenodd" clip-rule="evenodd" d="M13.7314 4.73405C13.7688 4.74491 13.8339 4.76061 13.8965 4.78234C14.7913 5.09622 15.6858 5.41077 16.58 5.726C16.8053 5.80648 16.9098 5.93727 16.8925 6.11151C16.868 6.35538 16.6459 6.48093 16.3821 6.38878C15.6885 6.14733 14.9965 5.89984 14.3041 5.65517C14.0588 5.56825 13.8114 5.48616 13.5688 5.39199C13.3977 5.32519 13.3246 5.18837 13.3572 5.00648C13.3881 4.83465 13.5282 4.72922 13.7314 4.73405Z" fill="#030201"/>
<path fill-rule="evenodd" clip-rule="evenodd" d="M9.97801 14.2473C8.72781 14.238 7.49648 14.1125 6.32018 13.6477C6.05428 13.5396 5.7954 13.4148 5.54508 13.2742C5.2013 13.0855 5.16034 12.7306 5.07078 12.4062C5.04468 12.3121 5.14106 12.3129 5.20974 12.3221C5.88002 12.4131 6.55391 12.4545 7.22901 12.4895C8.72834 12.5663 10.2277 12.5805 11.727 12.5322C12.7503 12.498 13.7728 12.4569 14.7893 12.3217C14.9013 12.3072 14.9451 12.3326 14.9186 12.4654C14.8306 12.908 14.621 13.2219 14.1929 13.4243C13.3399 13.8268 12.4483 14.0561 11.521 14.1648C11.009 14.2259 10.4936 14.2534 9.97801 14.2473Z" fill="#FCFCFC"/>
</svg>
