<svg id="Layer_1" data-name="Layer 1" xmlns="http://www.w3.org/2000/svg" viewBox="0 0 24 24"><defs><style>.cls-1{fill:#909090}</style></defs><path class="cls-1" d="M12 0a12 12 0 1 0 12 12A12 12 0 0 0 12 0zm0 22.5A10.5 10.5 0 1 1 22.5 12 10.51 10.51 0 0 1 12 22.5z"/><path class="cls-1" d="M7.89 11.13A1.19 1.19 0 1 0 6.7 10a1.18 1.18 0 0 0 1.19 1.13zm0-1.25V10a.06.06 0 0 1-.06 0zm8.22 1.25A1.19 1.19 0 1 0 14.92 10a1.19 1.19 0 0 0 1.19 1.13zm0-1.25V10a.06.06 0 0 1-.06-.06zm1.05 5.6H6.84a.63.63 0 0 0 0 1.25h10.32a.63.63 0 0 0 0-1.25z"/></svg>