<svg id="Layer_1" data-name="Layer 1" xmlns="http://www.w3.org/2000/svg" viewBox="0 0 30 30"><defs><style>.cls-1{fill:#666766}</style></defs><path class="cls-1" d="M1.34 5.51h3A4 4 0 0 0 5.57 7.3a4.94 4.94 0 0 0 1.37.79 3.74 3.74 0 0 0 1.36.23h.08a4.07 4.07 0 0 0 2.24-.71 4.72 4.72 0 0 0 1.08-1.06 4.08 4.08 0 0 0 .53-1h16.43a1.34 1.34 0 0 0 0-2.68H12.24A4 4 0 0 0 11 1 4.43 4.43 0 0 0 9.74.27a4.11 4.11 0 0 0-3.58.32 4.14 4.14 0 0 0-1.59 1.75 4.25 4.25 0 0 0-.21.49h-3a1.34 1.34 0 0 0 0 2.68zM7.39 3l.35-.2.36-.1h.39a2.85 2.85 0 0 1 .39.11 2.33 2.33 0 0 1 .34.2 2.13 2.13 0 0 1 .26.26 3.79 3.79 0 0 1 .2.34 2.37 2.37 0 0 1 .09.39.17.17 0 0 1 0 .07.33.33 0 0 0 0 .14v.19c0 .13-.07.26-.11.38a2.33 2.33 0 0 1-.2.34l-.26.26a3.79 3.79 0 0 1-.34.2l-.36.1h-.4a2.38 2.38 0 0 1-.38-.11 2.27 2.27 0 0 1-.34-.19l-.26-.26a3.12 3.12 0 0 1-.2-.35c0-.12-.07-.24-.1-.36V4a2.5 2.5 0 0 1 .11-.39 2.27 2.27 0 0 1 .19-.34c.1-.11.18-.2.27-.27zM28.66 13.67H25.3a3.92 3.92 0 0 0-1.21-1.8 4.7 4.7 0 0 0-1.29-.77 4.14 4.14 0 0 0-1.21-.25 4.08 4.08 0 0 0-2.38.58 4.14 4.14 0 0 0-1.59 1.75 4.25 4.25 0 0 0-.21.49H1.34A1.35 1.35 0 0 0 0 15a1.37 1.37 0 0 0 1.34 1.34h16.07a4 4 0 0 0 1.21 1.78 4.73 4.73 0 0 0 1.37.8 4 4 0 0 0 1.36.23h.08a4.11 4.11 0 0 0 2.25-.71 4.49 4.49 0 0 0 1.07-1.06 4.12 4.12 0 0 0 .54-1h3.37a1.34 1.34 0 1 0 0-2.68zm-8.21.16l.35-.2.35-.1h.4a2.85 2.85 0 0 1 .39.11 2.17 2.17 0 0 1 .33.19 3.19 3.19 0 0 1 .26.26 2.08 2.08 0 0 1 .2.35 1.61 1.61 0 0 1 .1.36.2.2 0 0 0 0 .07.61.61 0 0 0 0 .14v.07a.41.41 0 0 1 0 .11 2.48 2.48 0 0 1-.1.39 3.79 3.79 0 0 1-.2.34 3.19 3.19 0 0 1-.26.26l-.35.2-.35.1h-.4a2.85 2.85 0 0 1-.39-.11 2.23 2.23 0 0 1-.33-.2 1.6 1.6 0 0 1-.26-.26 1.68 1.68 0 0 1-.2-.34 2.42 2.42 0 0 1-.1-.36V15v-.07a.62.62 0 0 1 0-.13 2.36 2.36 0 0 1 .1-.38 3.79 3.79 0 0 1 .2-.34 3.19 3.19 0 0 1 .26-.25zM28.66 24.51H17.6a3.92 3.92 0 0 0-1.21-1.8 4.7 4.7 0 0 0-1.29-.77 4.14 4.14 0 0 0-1.21-.25 4 4 0 0 0-2.37.58A4.07 4.07 0 0 0 9.92 24a5.32 5.32 0 0 0-.21.5H1.34a1.34 1.34 0 1 0 0 2.67h8.37A4.05 4.05 0 0 0 10.92 29a4.73 4.73 0 0 0 1.37.8 4 4 0 0 0 1.36.23h.08a4.11 4.11 0 0 0 2.27-.74 4.94 4.94 0 0 0 1.08-1.06 4 4 0 0 0 .53-1.05H28.65A1.35 1.35 0 0 0 30 25.85a1.37 1.37 0 0 0-1.34-1.34zm-15.91.16a2.43 2.43 0 0 1 .35-.2l.35-.1a2.67 2.67 0 0 1 .4 0l.39.1a3.79 3.79 0 0 1 .34.2 3.07 3.07 0 0 1 .25.26 2.5 2.5 0 0 1 .21.35 2.37 2.37 0 0 1 .09.36v.07a.61.61 0 0 0 0 .14v.06a.49.49 0 0 1 0 .12 2.79 2.79 0 0 1-.1.39 3.79 3.79 0 0 1-.2.34c-.08.09-.17.17-.26.26l-.35.2a2 2 0 0 1-.35.09h-.4a2.79 2.79 0 0 1-.39-.1l-.33-.2a2.13 2.13 0 0 1-.26-.26 2.33 2.33 0 0 1-.2-.34 2.42 2.42 0 0 1-.1-.36v-.2a.15.15 0 0 0 0-.07v-.13a2.79 2.79 0 0 1 .1-.39c.06-.11.13-.22.2-.33a3.19 3.19 0 0 1 .26-.26z"/></svg>