<svg data-name="Layer 1" xmlns="http://www.w3.org/2000/svg" viewBox="0 0 155.57 213.46"><path d="M12.91 138.24v3.4L9 141.37l2.19 3.31-2.91 1.7-1.77-3.6-1.8 3.56-2.9-1.66L4 141.37l-4 .23v-3.36l4 .22-2.19-3.3 2.91-1.7L6.47 137l1.77-3.57 2.91 1.74L9 138.46zM15.85 135.22H21c4.5 0 6.05 2.05 6.05 6.57V150c0 3.76-.8 7.05-5.76 7.05h-5.44zm4.2 18.43h.81c1.65 0 1.92-1.07 1.92-2.77v-9.77c0-1.61-.36-2.49-2-2.49H20zM33.64 151.84L33.1 157h-4.28l3.09-21.81h6.25L41.32 157H37l-.61-5.19zm2.36-3.7c-.31-2.79-.75-7-1-9.12h-.17c-.07 1.52-.59 6.43-.88 9.12zM44.34 138.93h-3.18v-3.71h10.56v3.71h-3.19V157h-4.19zM62.54 147.4H58v5.94h5.27l-.5 3.69h-9v-21.81h8.94v3.71H58v4.78h4.5zM65.47 157v-21.78h4.64c.69 2.66 2.88 12.54 3 13.5h.1c-.23-2.9-.38-6.87-.38-9.91v-3.59h3.9V157h-4.64c-.45-2.07-2.84-13.36-3-14.06H69c.16 2.57.29 6.91.29 10.34V157zM83.32 150.31v1.51c0 1.43.36 2.1 1.31 2.1s1.2-1 1.2-2c0-2.05-.39-2.65-2.62-4.51-2.45-2.08-3.72-3.32-3.72-6.53s1-6 5.17-6c4.38 0 5 3 5 5.49v1.26h-4v-1.31c0-1.32-.22-2-1-2s-1 .67-1 1.9.24 2 2 3.37c3.21 2.52 4.36 3.94 4.36 7.53 0 3.42-1.17 6.23-5.5 6.23-4.16 0-5.35-2.51-5.35-5.74v-1.31zM103.26 149.91v1.18c0 2.76-.51 6.27-5.51 6.27-3.69 0-5.3-2-5.3-6v-10.67c0-3.8 1.89-5.79 5.39-5.79 4.6 0 5.35 3 5.35 5.88v1.37H99v-1.86c0-1.2-.26-1.81-1.13-1.81s-1.14.57-1.14 1.81v11.53c0 1.17.19 2 1.14 2s1.17-.67 1.17-2.05v-1.82zM105.74 135.22h4.2v8.4h2.74v-8.4h4.22V157h-4.22v-9.71h-2.74V157h-4.2zM124.27 135.22v16.61c0 1.27.39 1.95 1.34 1.95s1.33-.77 1.33-1.95v-16.61h4.24v16.34c0 3.86-1.77 5.78-5.63 5.78s-5.5-1.85-5.5-5.82v-16.3zM136.45 138.93h-3.17v-3.71h10.56v3.71h-3.2V157h-4.19zM145.17 154.23l5.71-15.23h-5.17v-3.73h9.65v3.19l-5.43 14.91h5.64l-.49 3.71h-9.91zM54.43 185.08l4.63-21.81h4.71c0 6.56-.12 13.77-.16 14.73h.1c.42-3 1.18-8.1 1.81-11.15l.76-3.58h3.88l-4.63 21.81h-4.68c0-5.74.11-14.14.15-14.86h-.11c-.4 2.57-1.14 7.71-1.86 11.14l-.77 3.72zM77.54 163.27l-4.63 21.81h-4.12l4.63-21.81zM88 178.15l-.21 1c-.74 3.11-1.47 6.3-6.24 6.3-3.86 0-5.29-2.13-4.38-6.37l2.1-9.88c.9-4.16 2.31-6.22 6-6.22 5.12 0 5.1 3.61 4.48 6.18l-.18.85h-4.05l.33-1.57c.31-1.4.15-2.08-.75-2.08s-1.1.64-1.47 2.14l-2.38 11.24c-.29 1.43-.3 2.3.67 2.3s1.21-.67 1.58-2.31l.34-1.58zM93.69 163.27h4.13l-1.82 8.5h2.61l1.81-8.5h4.17L100 185.08h-4.2l2-9.71h-2.57l-2 9.71h-4.17zM109.07 166.88H106l.78-3.61h10.35l-.78 3.61h-3.13l-3.86 18.2h-4.11zM24.48 191.32v21.81h-4.19v-21.81zM27.76 213.13v-21.81h4.64c.7 2.66 2.88 12.54 3.06 13.5h.1c-.24-2.91-.39-6.87-.39-9.92v-3.58h3.9v21.81h-4.69c-.45-2.08-2.83-13.36-3-14.06h-.12c.17 2.57.3 6.9.3 10.33v3.73zM42.34 191.32h5.16c3.7 0 5.49 1.6 5.49 5v.87c0 3-1.1 3.88-2.13 4.28 1 .41 2.49 1.22 2.49 4.26v1.74c0 3.81-1.59 5.69-5.57 5.69h-5.44zm4.73 8.58c1.42 0 1.91-.45 1.91-2.12v-1.13c0-1.39-.45-2-1.78-2h-.79v5.28zm-.66 10h.84c1.5 0 1.85-.7 1.85-2.31v-2c0-1.69-.4-2.41-2.12-2.41h-.57zM64.68 203.5h-4.5v5.94h5.28l-.46 3.69h-9v-21.81h8.94V195h-4.76v4.78h4.5zM78.57 213.13h-3.16a12.87 12.87 0 01-.19-1.62 3.45 3.45 0 01-3.44 2c-3.4 0-4.35-2.53-4.35-6.09V197.1c0-3.34 1.38-6.11 5.55-6.11 5 0 5.52 3.66 5.52 5.85v1h-4.22v-1.2c0-1.06-.13-2-1.29-2-1 0-1.32.7-1.32 2.12v11.18c0 1.49.48 2 1.32 2 1 0 1.37-.79 1.37-2.59v-3.12h-1.45v-3.54h5.66zM85.92 203.65v9.48h-4.19v-21.81h5.44c3.66 0 5.46 1.6 5.46 5.42v.78c0 3.11-1.24 4-2.17 4.48 1.35.65 2 1.65 2 4.69 0 2.11 0 5.29.15 6.44h-4.07a41.53 41.53 0 01-.25-6.61c0-2.46-.28-2.87-1.88-2.87zm0-3.31h.52c1.4 0 2-.44 2-2.47v-1.06c0-1.46-.29-2.19-1.83-2.19h-.66zM99.76 191.32v21.81h-4.19v-21.81zM103 191.32h9V195h-4.85v5h4.58v3.71h-4.58v9.42H103zM114.55 191.32h9V195h-4.85v5h4.57v3.71h-4.57v9.42h-4.2zM134.73 203.5h-4.5v5.94h5.27l-.5 3.69h-9v-21.81h9V195h-4.74v4.78h4.5zM137.66 213.13v-21.81h4.64c.69 2.66 2.88 12.54 3 13.5h.1c-.23-2.91-.38-6.87-.38-9.92v-3.58H149v21.81h-4.69c-.45-2.08-2.83-13.36-3-14.06h-.11c.17 2.57.29 6.9.29 10.33v3.73z"/><path d="M78.24 6.63L23.48 108.55a7.25 7.25 0 006.39 10.69h109.52a7.25 7.25 0 006.39-10.69L91 6.63a7.25 7.25 0 00-12.76 0z" fill="#f6d561" stroke="#000" stroke-miterlimit="10" stroke-width="5.61"/><path d="M77.25 94.93a8.13 8.13 0 118.12 8.45 8.13 8.13 0 01-8.12-8.45zm1.83-42.48l-.45-12.15h13.48l-.45 12.15-1.88 28H81z"/></svg>