<svg id="Layer_1" data-name="Layer 1" xmlns="http://www.w3.org/2000/svg" viewBox="0 0 136.31 176.21"><defs><style>.cls-1{fill:#f6d561;}</style></defs><path class="cls-1" d="M70.35,6a4.19,4.19,0,0,0-3.74,2.24L11.87,110.11a4.26,4.26,0,0,0,3.75,6.27H125.09a4.26,4.26,0,0,0,3.75-6.27L74.1,8.24A4.19,4.19,0,0,0,70.35,6Z"/><path d="M63,95.09a8.12,8.12,0,1,1,8.11,8.44A8.13,8.13,0,0,1,63,95.09Zm1.83-42.47-.45-12.15H77.83l-.45,12.15-1.87,28H66.68Z"/><path d="M125.09,122.38H15.62a10.25,10.25,0,0,1-9-15.11L61.33,5.4a10.24,10.24,0,0,1,18,0l54.74,101.87a10.25,10.25,0,0,1-9,15.11ZM70.35,6a4.19,4.19,0,0,0-3.74,2.24L11.87,110.11a4.26,4.26,0,0,0,3.75,6.27H125.09a4.26,4.26,0,0,0,3.75-6.27L74.1,8.24A4.19,4.19,0,0,0,70.35,6Z"/><path d="M15.13,132.89v2l-3-.16,1.66,2.53-1.75,1-1.38-2.71-1.38,2.69-1.72-1,1.65-2.55-3,.16v-2l3,.16-1.65-2.56,1.72-1,1.38,2.71L12,129.48l1.75,1-1.66,2.53Z"/><path d="M26.39,135.23a5,5,0,0,1,1.77,2.08,7.24,7.24,0,0,1,.63,3.1,7,7,0,0,1-.63,3.06,4.9,4.9,0,0,1-1.76,2,4.8,4.8,0,0,1-2.6.71,4.53,4.53,0,0,1-2.14-.5,3.58,3.58,0,0,1-1.45-1.41v5.87H17.33V134.77h2.83v1.7A3.6,3.6,0,0,1,21.62,135a4.59,4.59,0,0,1,2.18-.52A4.69,4.69,0,0,1,26.39,135.23ZM25.16,143a4.1,4.1,0,0,0,.75-2.63,4.36,4.36,0,0,0-.75-2.72,2.56,2.56,0,0,0-2.12-1,2.56,2.56,0,0,0-2.13.94,5.16,5.16,0,0,0,0,5.36A2.56,2.56,0,0,0,23,144,2.6,2.6,0,0,0,25.16,143Z"/><path d="M38.56,136.89l-1.68.16c-1.9.2-2.85,1.16-2.85,2.9V146H31.16V134.77H33.9v2a3.81,3.81,0,0,1,3.61-2.21l.87-.07Z"/><path d="M39.81,129.55H43v2.83H39.81ZM40,146V134.77h2.87V146Z"/><path d="M53.7,134.79h2.83L51.6,146H49.1l-4.88-11.23h3l3.17,7.94Z"/><path d="M66.09,135.64a4.83,4.83,0,0,1,1.15,3.55V146H64.51v-1.73a3,3,0,0,1-1.23,1.41,3.77,3.77,0,0,1-2,.5,4.43,4.43,0,0,1-2-.46,3.57,3.57,0,0,1-1.45-1.26,3.17,3.17,0,0,1-.53-1.8,2.82,2.82,0,0,1,.63-2,3.81,3.81,0,0,1,2.06-1,19.06,19.06,0,0,1,3.93-.32h.58v-.53a2.29,2.29,0,0,0-.5-1.65,2.22,2.22,0,0,0-1.64-.51,6.16,6.16,0,0,0-1.88.31,9.59,9.59,0,0,0-1.92.86l-.8-2a9,9,0,0,1,2.27-1,9.11,9.11,0,0,1,2.54-.4A4.8,4.8,0,0,1,66.09,135.64Zm-2.31,7.72a2.74,2.74,0,0,0,.73-2v-.48h-.42a16.15,16.15,0,0,0-2.39.14,2.32,2.32,0,0,0-1.22.48,1.24,1.24,0,0,0-.37.94,1.57,1.57,0,0,0,.51,1.21,1.8,1.8,0,0,0,1.29.47A2.43,2.43,0,0,0,63.78,143.36Z"/><path d="M72.22,145.49a4.9,4.9,0,0,1-2-2,7,7,0,0,1,0-6.16,5.09,5.09,0,0,1,2.06-2.08,6.27,6.27,0,0,1,3.08-.74,7.39,7.39,0,0,1,2.33.38,5,5,0,0,1,1.83,1l-.83,2a5.43,5.43,0,0,0-1.5-.87,4.46,4.46,0,0,0-1.58-.3,3,3,0,0,0-2.32.93,4.71,4.71,0,0,0,0,5.34,3,3,0,0,0,2.32.93,4.46,4.46,0,0,0,1.58-.3,5.22,5.22,0,0,0,1.5-.88l.83,2a5.22,5.22,0,0,1-1.88,1,7.44,7.44,0,0,1-2.4.38A6.36,6.36,0,0,1,72.22,145.49Z"/><path d="M81.23,129.55H84.4v2.83H81.23ZM81.39,146V134.77h2.87V146Z"/><path d="M98.09,129.8V146H95.23V144.2a3.51,3.51,0,0,1-1.46,1.47,4.31,4.31,0,0,1-2.17.53,4.66,4.66,0,0,1-2.59-.73,4.86,4.86,0,0,1-1.77-2.09,7.16,7.16,0,0,1-.63-3.09,7,7,0,0,1,.63-3.06,4.67,4.67,0,0,1,4.36-2.74,4.48,4.48,0,0,1,2.16.51,3.51,3.51,0,0,1,1.45,1.43V129.8ZM94.49,143a4.24,4.24,0,0,0,.74-2.69,4.17,4.17,0,0,0-.74-2.68,2.55,2.55,0,0,0-2.11-.93,2.61,2.61,0,0,0-2.14.92,4.07,4.07,0,0,0-.76,2.64,4.36,4.36,0,0,0,.76,2.72,2.85,2.85,0,0,0,4.25,0Z"/><path d="M109.4,135.64a4.83,4.83,0,0,1,1.15,3.55V146h-2.73v-1.73a3.09,3.09,0,0,1-1.24,1.41,3.71,3.71,0,0,1-1.94.5,4.51,4.51,0,0,1-2-.46,3.61,3.61,0,0,1-1.44-1.26,3.17,3.17,0,0,1-.53-1.8,2.82,2.82,0,0,1,.63-2,3.81,3.81,0,0,1,2.06-1,19.06,19.06,0,0,1,3.93-.32h.58v-.53a2.29,2.29,0,0,0-.5-1.65,2.22,2.22,0,0,0-1.64-.51,6.11,6.11,0,0,0-1.88.31,9.59,9.59,0,0,0-1.92.86l-.8-2a8.82,8.82,0,0,1,2.27-1,9.1,9.1,0,0,1,2.53-.4A4.81,4.81,0,0,1,109.4,135.64Zm-2.31,7.72a2.79,2.79,0,0,0,.73-2v-.48h-.42A16.06,16.06,0,0,0,105,141a2.32,2.32,0,0,0-1.22.48,1.21,1.21,0,0,0-.37.94,1.57,1.57,0,0,0,.51,1.21,1.8,1.8,0,0,0,1.29.47A2.43,2.43,0,0,0,107.09,143.36Z"/><path d="M124.33,129.8V146h-2.85V144.2a3.63,3.63,0,0,1-1.46,1.47,4.35,4.35,0,0,1-2.18.53,4.63,4.63,0,0,1-2.58-.73,4.86,4.86,0,0,1-1.77-2.09,7,7,0,0,1-.64-3.09,6.89,6.89,0,0,1,.64-3.06,4.64,4.64,0,0,1,4.35-2.74A4.49,4.49,0,0,1,120,135a3.48,3.48,0,0,1,1.44,1.43V129.8ZM120.73,143a4.24,4.24,0,0,0,.75-2.69,4.17,4.17,0,0,0-.75-2.68,2.55,2.55,0,0,0-2.1-.93,2.59,2.59,0,0,0-2.14.92,4,4,0,0,0-.76,2.64,4.29,4.29,0,0,0,.76,2.72,2.53,2.53,0,0,0,2.11,1A2.56,2.56,0,0,0,120.73,143Z"/><path d="M21.86,159.64a5.29,5.29,0,0,1,1,3.48V170H20v-6.74a3,3,0,0,0-.5-1.91,1.87,1.87,0,0,0-1.55-.6,2.63,2.63,0,0,0-2,.78,2.91,2.91,0,0,0-.74,2.1V170H12.31V158.77h2.81v1.68A3.84,3.84,0,0,1,16.66,159a4.58,4.58,0,0,1,2.18-.51A3.8,3.8,0,0,1,21.86,159.64Z"/><path d="M27.87,169.49a4.91,4.91,0,0,1-2-2.05,7,7,0,0,1,0-6.2,4.86,4.86,0,0,1,2-2,6.71,6.71,0,0,1,6.05,0,4.83,4.83,0,0,1,2,2,7.21,7.21,0,0,1,0,6.2,4.88,4.88,0,0,1-2,2.05,6.8,6.8,0,0,1-6.05,0ZM33,167.05a4.27,4.27,0,0,0,.74-2.71,4.33,4.33,0,0,0-.74-2.71,2.88,2.88,0,0,0-4.24,0,4.27,4.27,0,0,0-.75,2.71,4.21,4.21,0,0,0,.74,2.71,2.55,2.55,0,0,0,2.11.92A2.58,2.58,0,0,0,33,167.05Z"/><path d="M45.06,153.55h3.18v2.83H45.06ZM45.22,170V158.77H48.1V170Z"/><path d="M60.61,159.64a5.24,5.24,0,0,1,1,3.48V170H58.72v-6.74a3,3,0,0,0-.49-1.91,1.9,1.9,0,0,0-1.55-.6,2.63,2.63,0,0,0-2,.78,2.92,2.92,0,0,0-.75,2.1V170H51.07V158.77h2.8v1.68A3.9,3.9,0,0,1,55.41,159a4.62,4.62,0,0,1,2.19-.51A3.77,3.77,0,0,1,60.61,159.64Z"/><path d="M66.58,169.49a4.84,4.84,0,0,1-2-2,7.08,7.08,0,0,1,0-6.16,5.16,5.16,0,0,1,2.06-2.08,6.29,6.29,0,0,1,3.08-.74,7.45,7.45,0,0,1,2.34.38,5,5,0,0,1,1.83,1l-.83,2a5.63,5.63,0,0,0-1.51-.87,4.41,4.41,0,0,0-1.57-.3,3,3,0,0,0-2.33.93,4.76,4.76,0,0,0,0,5.34A3,3,0,0,0,70,168a4.41,4.41,0,0,0,1.57-.3,5.41,5.41,0,0,0,1.51-.88l.83,2a5.19,5.19,0,0,1-1.89,1,7.38,7.38,0,0,1-2.39.38A6.36,6.36,0,0,1,66.58,169.49Z"/><path d="M75.74,170V153.8h2.88V170Z"/><path d="M91.91,158.77V170h-2.8v-1.73a3.68,3.68,0,0,1-1.43,1.42,4.11,4.11,0,0,1-2,.49q-4.14,0-4.14-4.64v-6.79h2.87v6.81a2.65,2.65,0,0,0,.49,1.77,1.87,1.87,0,0,0,1.51.58,2.47,2.47,0,0,0,1.92-.8A3,3,0,0,0,89,165v-6.26Z"/><path d="M94.74,153.55h3.18v2.83H94.74ZM94.9,170V158.77h2.88V170Z"/><path d="M111.6,153.8V170h-2.85V168.2a3.63,3.63,0,0,1-1.46,1.47,4.35,4.35,0,0,1-2.18.53,4.65,4.65,0,0,1-2.58-.73,4.86,4.86,0,0,1-1.77-2.09,7,7,0,0,1-.64-3.09,6.89,6.89,0,0,1,.64-3.06,4.64,4.64,0,0,1,4.35-2.74,4.49,4.49,0,0,1,2.17.51,3.48,3.48,0,0,1,1.44,1.43V153.8ZM108,167a4.24,4.24,0,0,0,.75-2.69,4.17,4.17,0,0,0-.75-2.68,2.55,2.55,0,0,0-2.1-.93,2.59,2.59,0,0,0-2.14.92,4,4,0,0,0-.76,2.64,4.29,4.29,0,0,0,.76,2.72,2.53,2.53,0,0,0,2.11,1A2.56,2.56,0,0,0,108,167Z"/><path d="M122.92,159.64a4.87,4.87,0,0,1,1.15,3.55V170h-2.74v-1.73a3,3,0,0,1-1.23,1.41,3.76,3.76,0,0,1-1.94.5,4.45,4.45,0,0,1-2-.46,3.64,3.64,0,0,1-1.45-1.26,3.24,3.24,0,0,1-.53-1.8,2.82,2.82,0,0,1,.63-2,3.81,3.81,0,0,1,2.06-1,19.06,19.06,0,0,1,3.93-.32h.58v-.53a2.29,2.29,0,0,0-.5-1.65,2.21,2.21,0,0,0-1.64-.51,6,6,0,0,0-1.87.31,9.12,9.12,0,0,0-1.92.86l-.81-2a8.9,8.9,0,0,1,2.28-1,9,9,0,0,1,2.53-.4A4.83,4.83,0,0,1,122.92,159.64Zm-2.32,7.72a2.74,2.74,0,0,0,.73-2v-.48h-.41a16.21,16.21,0,0,0-2.4.14,2.35,2.35,0,0,0-1.22.48,1.24,1.24,0,0,0-.36.94,1.56,1.56,0,0,0,.5,1.21,1.8,1.8,0,0,0,1.29.47A2.42,2.42,0,0,0,120.6,167.36Z"/></svg>