<?xml version="1.0" encoding="utf-8"?>
<!-- Generator: Adobe Illustrator 22.0.1, SVG Export Plug-In . SVG Version: 6.00 Build 0)  -->
<svg version="1.1" id="Layer_1" xmlns="http://www.w3.org/2000/svg" xmlns:xlink="http://www.w3.org/1999/xlink" x="0px" y="0px"
	 viewBox="0 0 33 26.3" style="enable-background:new 0 0 33 26.3;" xml:space="preserve">
<style type="text/css">
	.st0{clip-path:url(#SVGID_2_);fill:#4753A4;}
	.st1{fill:none;stroke:#4753A4;stroke-width:0.5;stroke-miterlimit:10;}
	.st2{clip-path:url(#SVGID_4_);fill:#4753A4;}
	.st3{clip-path:url(#SVGID_6_);fill:#4753A4;}
	.st4{clip-path:url(#SVGID_8_);fill:#4753A4;}
	.st5{clip-path:url(#SVGID_10_);fill:#ED3749;}
	.st6{fill:none;stroke:#ED3749;stroke-width:0.5;stroke-miterlimit:10;}
	.st7{clip-path:url(#SVGID_12_);fill:#ED3749;}
	.st8{clip-path:url(#SVGID_14_);fill:#ED3749;}
	.st9{clip-path:url(#SVGID_16_);fill:#ED3749;}
	.st10{clip-path:url(#SVGID_18_);fill:#4CBFAA;}
	.st11{fill:none;stroke:#4CBFAA;stroke-width:0.5;stroke-miterlimit:10;}
	.st12{clip-path:url(#SVGID_20_);fill:#4CBFAA;}
	.st13{clip-path:url(#SVGID_22_);fill:#4CBFAA;}
	.st14{clip-path:url(#SVGID_24_);fill:none;stroke:#4CBFAA;stroke-width:2;stroke-miterlimit:10;}
	.st15{fill:#010101;}
	.st16{fill:none;stroke:#000000;stroke-linecap:round;stroke-linejoin:round;stroke-miterlimit:10;}
	.st17{fill:none;stroke:#ED3648;stroke-width:1.5;stroke-linecap:round;stroke-linejoin:round;stroke-miterlimit:10;}
	.st18{fill:none;stroke:#ED3648;stroke-width:1.25;stroke-linecap:round;stroke-linejoin:round;stroke-miterlimit:10;}
	.st19{fill:none;stroke:#4CBFA9;stroke-width:1.5;stroke-linecap:round;stroke-linejoin:round;stroke-miterlimit:10;}
	.st20{fill:none;stroke:#4CBFA9;stroke-width:1.25;stroke-linecap:round;stroke-linejoin:round;stroke-miterlimit:10;}
	.st21{fill:none;stroke:#4652A4;stroke-width:1.5;stroke-linecap:round;stroke-linejoin:round;stroke-miterlimit:10;}
	.st22{fill:none;stroke:#4652A4;stroke-width:1.25;stroke-linecap:round;stroke-linejoin:round;stroke-miterlimit:10;}
	.st23{fill:#ED3648;}
	.st24{fill:#4652A4;}
	.st25{fill:#4CBFA9;}
</style>
<g>
	<path d="M31.5,8.9H14.9c-0.8,0-1.5,0.7-1.5,1.5v10.3c0,0.8,0.7,1.5,1.5,1.5h11.2l3.9,3.9c0.1,0.1,0.2,0.1,0.4,0.1
		c0.1,0,0.1,0,0.2,0c0.2-0.1,0.3-0.3,0.3-0.5v-3.6h0.5c0.8,0,1.5-0.7,1.5-1.5V10.4C33,9.6,32.3,8.9,31.5,8.9z M32,20.8
		c0,0.3-0.2,0.5-0.5,0.5h-1c-0.3,0-0.5,0.2-0.5,0.5v2.9l-3.2-3.2c-0.1-0.1-0.2-0.1-0.4-0.1H14.9c-0.3,0-0.5-0.2-0.5-0.5V10.4
		c0-0.3,0.2-0.5,0.5-0.5h16.5c0.3,0,0.5,0.2,0.5,0.5V20.8z"/>
	<path d="M10.9,15.7H8.6c-0.1,0-0.3,0.1-0.4,0.2l-4.5,4.7v-4.3c0-0.3-0.2-0.5-0.5-0.5H1.9c-0.5,0-0.9-0.4-0.9-0.9v-13
		C1,1.4,1.4,1,1.9,1h21.8c0.5,0,0.9,0.4,0.9,0.9v4.5c0,0.3,0.2,0.5,0.5,0.5s0.5-0.2,0.5-0.5V1.9c0-1-0.8-1.9-1.9-1.9H1.9
		C0.8,0,0,0.8,0,1.9v13c0,1,0.8,1.9,1.9,1.9h0.8v5.1c0,0.2,0.1,0.4,0.3,0.5c0.1,0,0.1,0,0.2,0c0.1,0,0.3-0.1,0.4-0.2l5.2-5.4h2.1
		c0.3,0,0.5-0.2,0.5-0.5S11.2,15.7,10.9,15.7z"/>
	<circle cx="19.4" cy="15.6" r="1"/>
	<circle cx="23.2" cy="15.6" r="1"/>
	<path d="M27,14.6c-0.6,0-1,0.5-1,1s0.5,1,1,1c0.6,0,1-0.5,1-1S27.6,14.6,27,14.6z"/>
</g>
</svg>
