<svg id="Layer_1" data-name="Layer 1" xmlns="http://www.w3.org/2000/svg" viewBox="0 0 146.33 202.54"><defs><style>.cls-1{fill:#f6d561;}</style></defs><path class="cls-1" d="M76.6,6a4.19,4.19,0,0,0-3.74,2.24L18.12,110.11a4.26,4.26,0,0,0,3.75,6.27H131.34a4.26,4.26,0,0,0,3.75-6.27L80.35,8.24A4.19,4.19,0,0,0,76.6,6Z"/><path d="M69.23,95.09a8.12,8.12,0,1,1,8.11,8.44A8.12,8.12,0,0,1,69.23,95.09Zm1.83-42.47-.45-12.15H84.08l-.45,12.15-1.87,28H72.93Z"/><path d="M131.34,122.38H21.87a10.25,10.25,0,0,1-9-15.11L67.57,5.4a10.25,10.25,0,0,1,18.06,0l54.74,101.87a10.25,10.25,0,0,1-9,15.11ZM76.6,6a4.19,4.19,0,0,0-3.74,2.24L18.12,110.11a4.26,4.26,0,0,0,3.75,6.27H131.34a4.26,4.26,0,0,0,3.75-6.27L80.35,8.24A4.19,4.19,0,0,0,76.6,6Z"/><path d="M9.68,132.89v2l-3-.16,1.66,2.53-1.75,1L5.2,135.58l-1.38,2.69-1.73-1,1.66-2.55-3,.16v-2l3,.16-1.66-2.56,1.73-1,1.38,2.71,1.38-2.71,1.75,1-1.66,2.53Z"/><path d="M12.14,129.8h6a8.51,8.51,0,0,1,6.18,2.13,9.21,9.21,0,0,1,0,11.95A8.47,8.47,0,0,1,18.12,146h-6Zm5.8,13.8q5.6,0,5.59-5.7t-5.59-5.68H15.11V143.6Z"/><path d="M37.58,135.64a4.83,4.83,0,0,1,1.15,3.55V146H36v-1.73a3,3,0,0,1-1.23,1.41,3.73,3.73,0,0,1-1.94.5,4.51,4.51,0,0,1-2.05-.46,3.71,3.71,0,0,1-1.45-1.26,3.24,3.24,0,0,1-.53-1.8,2.83,2.83,0,0,1,.64-2,3.81,3.81,0,0,1,2.06-1,19.06,19.06,0,0,1,3.93-.32H36v-.53a2.29,2.29,0,0,0-.49-1.65,2.22,2.22,0,0,0-1.64-.51A6.11,6.11,0,0,0,32,137a9.59,9.59,0,0,0-1.92.86l-.81-2a8.9,8.9,0,0,1,2.28-1,9,9,0,0,1,2.53-.4A4.83,4.83,0,0,1,37.58,135.64Zm-2.31,7.72a2.78,2.78,0,0,0,.72-2v-.48h-.41a16.06,16.06,0,0,0-2.39.14,2.28,2.28,0,0,0-1.22.48,1.21,1.21,0,0,0-.37.94,1.57,1.57,0,0,0,.51,1.21,1.77,1.77,0,0,0,1.29.47A2.43,2.43,0,0,0,35.27,143.36Z"/><path d="M48.46,144l-.14,2.14a11.65,11.65,0,0,1-1.26.07,4.91,4.91,0,0,1-3.5-1.09,4.36,4.36,0,0,1-1.13-3.26v-4.9H40.27v-2.16h2.16v-3.36h2.88v3.36h3v2.16h-3v4.86c0,1.5.7,2.25,2.09,2.25A7.86,7.86,0,0,0,48.46,144Z"/><path d="M60,140.91H52.35a3.45,3.45,0,0,0,.94,2.32,3.21,3.21,0,0,0,2.3.76A5.38,5.38,0,0,0,59,142.8l.83,2a6.06,6.06,0,0,1-2,1,7.62,7.62,0,0,1-2.39.39,5.94,5.94,0,0,1-4.35-1.56,5.69,5.69,0,0,1-1.6-4.28,6.57,6.57,0,0,1,.69-3.06,5,5,0,0,1,1.94-2.07,5.52,5.52,0,0,1,2.84-.74,4.68,4.68,0,0,1,3.67,1.5A5.93,5.93,0,0,1,60,140.11Zm-6.8-3.65a3.5,3.5,0,0,0-.86,2.11h5.19a3.3,3.3,0,0,0-.69-2.13,2.27,2.27,0,0,0-1.79-.72A2.4,2.4,0,0,0,53.21,137.26Z"/><path d="M71.9,135.64a5.24,5.24,0,0,1,1,3.48V146H70v-6.74a3,3,0,0,0-.49-1.91,1.91,1.91,0,0,0-1.56-.6,2.64,2.64,0,0,0-2,.78,3,3,0,0,0-.74,2.1V146H62.35V134.77h2.81v1.68A3.84,3.84,0,0,1,66.7,135a4.58,4.58,0,0,1,2.18-.51A3.8,3.8,0,0,1,71.9,135.64Z"/><path d="M77.2,145.83a6.07,6.07,0,0,1-2.13-1.05l.81-2A6.73,6.73,0,0,0,80,144.09a2.84,2.84,0,0,0,1.51-.33,1,1,0,0,0,.52-.92.94.94,0,0,0-.36-.78,3.69,3.69,0,0,0-1.28-.5l-1.84-.42A4.55,4.55,0,0,1,76.22,140a2.79,2.79,0,0,1-.76-2,3,3,0,0,1,.59-1.83,3.74,3.74,0,0,1,1.63-1.23,6.31,6.31,0,0,1,2.43-.44,7.54,7.54,0,0,1,2.31.37,6.5,6.5,0,0,1,2,1l-.81,1.95a5.94,5.94,0,0,0-3.5-1.26,2.69,2.69,0,0,0-1.47.34,1.1,1.1,0,0,0-.53,1,1,1,0,0,0,.34.76,2.38,2.38,0,0,0,1.07.46l1.91.44a4.88,4.88,0,0,1,2.46,1.16,2.84,2.84,0,0,1,.78,2.08,2.9,2.9,0,0,1-1.27,2.48,5.64,5.64,0,0,1-3.42.92A9.53,9.53,0,0,1,77.2,145.83Z"/><path d="M89,145.49a4.84,4.84,0,0,1-2-2,7.08,7.08,0,0,1,0-6.16,5.16,5.16,0,0,1,2.06-2.08,6.31,6.31,0,0,1,3.09-.74,7.43,7.43,0,0,1,2.33.38,5,5,0,0,1,1.83,1l-.83,2a5.63,5.63,0,0,0-1.51-.87,4.41,4.41,0,0,0-1.57-.3,3,3,0,0,0-2.33.93,4.76,4.76,0,0,0,0,5.34,3,3,0,0,0,2.33.93,4.41,4.41,0,0,0,1.57-.3,5.41,5.41,0,0,0,1.51-.88l.83,2a5.19,5.19,0,0,1-1.89,1,7.38,7.38,0,0,1-2.39.38A6.36,6.36,0,0,1,89,145.49Z"/><path d="M107.73,135.64a5.24,5.24,0,0,1,1,3.48V146h-2.88v-6.74a3,3,0,0,0-.49-1.91,1.9,1.9,0,0,0-1.55-.6,2.61,2.61,0,0,0-2,.78,2.92,2.92,0,0,0-.75,2.1V146H98.18V129.8h2.88v6.54a3.68,3.68,0,0,1,1.53-1.37,4.64,4.64,0,0,1,2.13-.48A3.77,3.77,0,0,1,107.73,135.64Z"/><path d="M122,134.77V146h-2.81v-1.73a3.62,3.62,0,0,1-1.43,1.42,4.08,4.08,0,0,1-2,.49q-4.14,0-4.14-4.64v-6.79h2.88v6.81a2.71,2.71,0,0,0,.48,1.77,1.89,1.89,0,0,0,1.52.58,2.5,2.5,0,0,0,1.92-.8,3,3,0,0,0,.72-2.1v-6.26Z"/><path d="M131.76,144l-.13,2.14a11.83,11.83,0,0,1-1.27.07,4.88,4.88,0,0,1-3.49-1.09,4.32,4.32,0,0,1-1.13-3.26v-4.9h-2.16v-2.16h2.16v-3.36h2.87v3.36h3v2.16h-3v4.86q0,2.25,2.1,2.25A7.71,7.71,0,0,0,131.76,144Z"/><path d="M136.5,143.86h6.39V146H133.1v-2l6.11-7.09h-6v-2.16h9.46v2Z"/><path d="M59.21,159.64a5.24,5.24,0,0,1,1,3.48V170H57.33v-6.74a3,3,0,0,0-.5-1.91,1.9,1.9,0,0,0-1.55-.6,2.63,2.63,0,0,0-2,.78,2.92,2.92,0,0,0-.75,2.1V170H49.67V158.77h2.8v1.68A4,4,0,0,1,54,159a4.65,4.65,0,0,1,2.19-.51A3.77,3.77,0,0,1,59.21,159.64Z"/><path d="M63,153.55h3.17v2.83H63ZM63.12,170V158.77H66V170Z"/><path d="M71,169.49a4.9,4.9,0,0,1-2-2,6.51,6.51,0,0,1-.69-3.06,6.37,6.37,0,0,1,.73-3.1,5.09,5.09,0,0,1,2.06-2.08,6.24,6.24,0,0,1,3.08-.74,7.43,7.43,0,0,1,2.33.38,5,5,0,0,1,1.83,1l-.83,2a5.43,5.43,0,0,0-1.5-.87,4.46,4.46,0,0,0-1.58-.3,2.93,2.93,0,0,0-2.32.93,4.71,4.71,0,0,0,0,5.34,2.93,2.93,0,0,0,2.32.93,4.46,4.46,0,0,0,1.58-.3,5.22,5.22,0,0,0,1.5-.88l.83,2a5.19,5.19,0,0,1-1.89,1,7.34,7.34,0,0,1-2.39.38A6.36,6.36,0,0,1,71,169.49Z"/><path d="M89.73,159.64a5.24,5.24,0,0,1,1,3.48V170H87.85v-6.74a3,3,0,0,0-.5-1.91,1.9,1.9,0,0,0-1.55-.6,2.63,2.63,0,0,0-2,.78,2.92,2.92,0,0,0-.75,2.1V170H80.19V153.8h2.87v6.54A3.81,3.81,0,0,1,84.59,159a4.7,4.7,0,0,1,2.13-.48A3.77,3.77,0,0,1,89.73,159.64Z"/><path d="M100.45,168l-.14,2.14a11.65,11.65,0,0,1-1.26.07,4.91,4.91,0,0,1-3.5-1.09,4.36,4.36,0,0,1-1.13-3.26v-4.9H92.26v-2.16h2.16v-3.36H97.3v3.36h3v2.16h-3v4.86c0,1.5.7,2.25,2.09,2.25A7.86,7.86,0,0,0,100.45,168Z"/><path d="M17.88,177.55h3.18v2.83H17.88ZM18,194V182.77h2.88V194Z"/><path d="M33.43,183.64a5.24,5.24,0,0,1,1,3.48V194H31.54v-6.74a3,3,0,0,0-.49-1.91,1.9,1.9,0,0,0-1.55-.6,2.61,2.61,0,0,0-2,.78,2.92,2.92,0,0,0-.75,2.1V194H23.88V182.77h2.81v1.68A3.9,3.9,0,0,1,28.23,183a4.62,4.62,0,0,1,2.19-.51A3.77,3.77,0,0,1,33.43,183.64Z"/><path d="M46.4,183.21a4.77,4.77,0,0,1,1.76,2,7,7,0,0,1,.63,3.06,7.16,7.16,0,0,1-.63,3.09,4.86,4.86,0,0,1-1.77,2.09,4.66,4.66,0,0,1-2.59.73,4.33,4.33,0,0,1-2.17-.53,3.57,3.57,0,0,1-1.46-1.47V194H37.34V177.8h2.87v6.6A3.52,3.52,0,0,1,41.66,183a4.53,4.53,0,0,1,2.14-.5A4.73,4.73,0,0,1,46.4,183.21ZM45.16,191a4.29,4.29,0,0,0,.76-2.72,4.07,4.07,0,0,0-.75-2.64,2.57,2.57,0,0,0-2.13-.92,2.55,2.55,0,0,0-2.12.93,4.17,4.17,0,0,0-.75,2.68,4.24,4.24,0,0,0,.75,2.69A2.53,2.53,0,0,0,43,192,2.55,2.55,0,0,0,45.16,191Z"/><path d="M61,188.91H53.37a3.5,3.5,0,0,0,.94,2.32,3.22,3.22,0,0,0,2.3.76A5.41,5.41,0,0,0,60,190.8l.83,2a6.11,6.11,0,0,1-2,1,7.56,7.56,0,0,1-2.38.39,6,6,0,0,1-4.36-1.56,5.69,5.69,0,0,1-1.6-4.28,6.57,6.57,0,0,1,.69-3.06,5,5,0,0,1,2-2.07,5.49,5.49,0,0,1,2.84-.74,4.66,4.66,0,0,1,3.66,1.5A5.93,5.93,0,0,1,61,188.11Zm-6.8-3.65a3.62,3.62,0,0,0-.86,2.11h5.2a3.3,3.3,0,0,0-.69-2.13,2.29,2.29,0,0,0-1.8-.72A2.42,2.42,0,0,0,54.23,185.26Z"/><path d="M74.32,182.77V193a5.15,5.15,0,0,1-1.46,4,6.09,6.09,0,0,1-4.31,1.36,10.23,10.23,0,0,1-2.83-.38,8,8,0,0,1-2.37-1.07l.81-2a8.24,8.24,0,0,0,4.32,1.26c2,0,3-1,3-2.94v-1.47A3.57,3.57,0,0,1,70,193.18a4.65,4.65,0,0,1-2.21.52,4.86,4.86,0,0,1-2.61-.71,4.77,4.77,0,0,1-1.78-2,6.34,6.34,0,0,1-.65-2.92,6.59,6.59,0,0,1,.64-2.94,4.61,4.61,0,0,1,1.78-2,4.92,4.92,0,0,1,2.62-.71A4.65,4.65,0,0,1,70,183a3.57,3.57,0,0,1,1.47,1.46v-1.7Zm-3.62,7.8a3.68,3.68,0,0,0,.77-2.46,3.73,3.73,0,0,0-.77-2.49,3,3,0,0,0-4.29,0,4.3,4.3,0,0,0,0,4.94,2.7,2.7,0,0,0,2.14.91A2.67,2.67,0,0,0,70.7,190.57Z"/><path d="M84.7,184.89l-1.68.16c-1.9.2-2.85,1.16-2.85,2.9V194H77.29V182.77H80v2a3.81,3.81,0,0,1,3.61-2.21l.87-.07Z"/><path d="M85.94,177.55h3.17v2.83H85.94ZM86.1,194V182.77H89V194Z"/><path d="M95.6,182.77h3v2.16h-3V194H92.72v-9.09H90.56v-2.16h2.16A4.82,4.82,0,0,1,94,179.14a5.81,5.81,0,0,1,3.9-1.36l1.12-.07.19,2.14-1.08.05a3,3,0,0,0-1.94.61,2.28,2.28,0,0,0-.57,1.73Z"/><path d="M103.62,182.77h3v2.16h-3V194h-2.87v-9.09H98.59v-2.16h2.16a4.86,4.86,0,0,1,1.25-3.63,5.85,5.85,0,0,1,3.9-1.36l1.13-.07.18,2.14-1.08.05a2.93,2.93,0,0,0-1.93.61,2.28,2.28,0,0,0-.58,1.73Z"/><path d="M118,188.91h-7.66a3.51,3.51,0,0,0,.95,2.32,3.19,3.19,0,0,0,2.3.76,5.4,5.4,0,0,0,3.4-1.19l.83,2a6,6,0,0,1-2,1,7.56,7.56,0,0,1-2.38.39,6,6,0,0,1-4.36-1.56,5.73,5.73,0,0,1-1.59-4.28,6.57,6.57,0,0,1,.69-3.06,5,5,0,0,1,1.94-2.07,5.49,5.49,0,0,1,2.84-.74,4.68,4.68,0,0,1,3.67,1.5,6,6,0,0,1,1.34,4.12Zm-6.79-3.65a3.56,3.56,0,0,0-.87,2.11h5.2a3.3,3.3,0,0,0-.69-2.13,2.27,2.27,0,0,0-1.79-.72A2.39,2.39,0,0,0,111.16,185.26Z"/><path d="M129.84,183.64a5.24,5.24,0,0,1,1,3.48V194H128v-6.74a3,3,0,0,0-.5-1.91,1.89,1.89,0,0,0-1.55-.6,2.63,2.63,0,0,0-2,.78,2.92,2.92,0,0,0-.75,2.1V194H120.3V182.77h2.81v1.68a3.84,3.84,0,0,1,1.54-1.45,4.58,4.58,0,0,1,2.18-.51A3.76,3.76,0,0,1,129.84,183.64Z"/></svg>