<svg version="1.1" id="Layer_1" xmlns="http://www.w3.org/2000/svg" x="0" y="0" viewBox="0 0 24 24" xml:space="preserve"><style>.st24{fill:#4652a4}</style><path class="st24" d="M12 0C5.4 0 0 5.4 0 12s5.4 12 12 12 12-5.4 12-12S18.6 0 12 0zm0 22.5C6.2 22.5 1.5 17.8 1.5 12S6.2 1.5 12 1.5 22.5 6.2 22.5 12 17.8 22.5 12 22.5z"/><path class="st24" d="M16.2 14.7c-1.1 1.1-2.6 1.7-4.2 1.7s-3.1-.6-4.2-1.8c-.3-.3-.8-.3-1.1 0-.3.3-.3.8 0 1.1 1.4 1.4 3.3 2.2 5.3 2.2s3.8-.7 5.2-2.1c.3-.3.3-.8 0-1.1-.2-.3-.7-.3-1 0zM7.9 11.1c.7 0 1.2-.5 1.2-1.2s-.6-1.1-1.2-1.1-1.2.5-1.2 1.1.5 1.2 1.2 1.2zm0-1.2v.1s-.1 0 0-.1zM16.1 11.1c.7 0 1.2-.5 1.2-1.2s-.5-1.2-1.2-1.2-1.2.5-1.2 1.2.6 1.2 1.2 1.2zm0-1.2v.1s-.1 0 0-.1z"/></svg>