<svg width="28" height="24" xmlns="http://www.w3.org/2000/svg"><path d="M24.225 6.465c.018.24.018.479.018.72 0 7.316-5.568 15.743-15.744 15.743-3.136 0-6.049-.905-8.499-2.483.445.051.875.07 1.338.07 2.588 0 4.966-.876 6.867-2.367a5.539 5.539 0 0 1-5.172-3.836c.343.051.683.087 1.044.087.496 0 .995-.07 1.455-.19a5.534 5.534 0 0 1-4.435-5.432v-.069c.737.415 1.594.67 2.501.704a5.528 5.528 0 0 1-2.465-4.606c0-1.031.271-1.972.752-2.796A15.72 15.72 0 0 0 13.297 7.8a5.962 5.962 0 0 1-.138-1.265A5.531 5.531 0 0 1 18.69 1a5.53 5.53 0 0 1 4.043 1.747c1.25-.238 2.45-.701 3.512-1.335a5.51 5.51 0 0 1-2.433 3.048A11.08 11.08 0 0 0 27 3.604a11.891 11.891 0 0 1-2.775 2.861" fill-rule="nonzero" stroke="#000" fill="none"/></svg>