<?xml version="1.0" encoding="utf-8"?>
<!-- Generator: Adobe Illustrator 22.0.1, SVG Export Plug-In . SVG Version: 6.00 Build 0)  -->
<svg version="1.1" id="Layer_1" xmlns="http://www.w3.org/2000/svg" xmlns:xlink="http://www.w3.org/1999/xlink" x="0px" y="0px"
	 viewBox="0 0 31 24" style="enable-background:new 0 0 31 24;" xml:space="preserve">
<style type="text/css">
	.st0{clip-path:url(#SVGID_2_);fill:#4753A4;}
	.st1{fill:none;stroke:#4753A4;stroke-width:0.5;stroke-miterlimit:10;}
	.st2{clip-path:url(#SVGID_4_);fill:#4753A4;}
	.st3{clip-path:url(#SVGID_6_);fill:#4753A4;}
	.st4{clip-path:url(#SVGID_8_);fill:#4753A4;}
	.st5{clip-path:url(#SVGID_10_);fill:#ED3749;}
	.st6{fill:none;stroke:#ED3749;stroke-width:0.5;stroke-miterlimit:10;}
	.st7{clip-path:url(#SVGID_12_);fill:#ED3749;}
	.st8{clip-path:url(#SVGID_14_);fill:#ED3749;}
	.st9{clip-path:url(#SVGID_16_);fill:#ED3749;}
	.st10{clip-path:url(#SVGID_18_);fill:#4CBFAA;}
	.st11{fill:none;stroke:#4CBFAA;stroke-width:0.5;stroke-miterlimit:10;}
	.st12{clip-path:url(#SVGID_20_);fill:#4CBFAA;}
	.st13{clip-path:url(#SVGID_22_);fill:#4CBFAA;}
	.st14{clip-path:url(#SVGID_24_);fill:none;stroke:#4CBFAA;stroke-width:2;stroke-miterlimit:10;}
	.st15{fill:#010101;}
	.st16{fill:none;stroke:#000000;stroke-linecap:round;stroke-linejoin:round;stroke-miterlimit:10;}
	.st17{fill:none;stroke:#ED3648;stroke-width:1.5;stroke-linecap:round;stroke-linejoin:round;stroke-miterlimit:10;}
	.st18{fill:none;stroke:#ED3648;stroke-width:1.25;stroke-linecap:round;stroke-linejoin:round;stroke-miterlimit:10;}
	.st19{fill:none;stroke:#4CBFA9;stroke-width:1.5;stroke-linecap:round;stroke-linejoin:round;stroke-miterlimit:10;}
	.st20{fill:none;stroke:#4CBFA9;stroke-width:1.25;stroke-linecap:round;stroke-linejoin:round;stroke-miterlimit:10;}
	.st21{fill:none;stroke:#4652A4;stroke-width:1.5;stroke-linecap:round;stroke-linejoin:round;stroke-miterlimit:10;}
	.st22{fill:none;stroke:#4652A4;stroke-width:1.25;stroke-linecap:round;stroke-linejoin:round;stroke-miterlimit:10;}
	.st23{fill:#ED3648;}
	.st24{fill:#4652A4;}
	.st25{fill:#4CBFA9;}
</style>
<g>
	<path d="M28.5,3h-6c-0.1-1.7-1.5-3-3.2-3h-7.6C10,0,8.6,1.3,8.5,3h-6C1.1,3,0,4.1,0,5.5v16C0,22.9,1.1,24,2.5,24h26
		c1.4,0,2.5-1.1,2.5-2.5v-16C31,4.1,29.9,3,28.5,3z M30,21.5c0,0.8-0.7,1.5-1.5,1.5h-26C1.7,23,1,22.3,1,21.5v-16C1,4.7,1.7,4,2.5,4
		H9c0.3,0,0.5-0.2,0.5-0.5V3.2c0-1.2,1-2.2,2.2-2.2h7.6c1.2,0,2.2,1,2.2,2.2v0.3C21.5,3.8,21.7,4,22,4h6.5C29.3,4,30,4.7,30,5.5
		V21.5z"/>
	<path d="M15.5,6.7c-3.9,0-7,3.1-7,7c0,3.9,3.1,7,7,7s7-3.1,7-7C22.5,9.8,19.4,6.7,15.5,6.7z M15.5,19.7c-3.3,0-6-2.7-6-6s2.7-6,6-6
		s6,2.7,6,6S18.8,19.7,15.5,19.7z"/>
	<path d="M26.3,6.9c-0.6,0-1,0.4-1,1s0.4,1,1,1s1-0.4,1-1S26.8,6.9,26.3,6.9z M26.3,7.9C26.3,7.9,26.3,7.9,26.3,7.9l0.5,0L26.3,7.9z
		"/>
</g>
</svg>
