<svg version="1.1" id="Layer_1" xmlns="http://www.w3.org/2000/svg" x="0" y="0" viewBox="0 0 31 22.6" xml:space="preserve"><style></style><path d="M29.5 0h-28C.7 0 0 .7 0 1.5v19.6c0 .8.7 1.5 1.5 1.5h28c.8 0 1.5-.7 1.5-1.5V1.5c0-.8-.7-1.5-1.5-1.5zm.5 21.1c0 .3-.2.5-.5.5h-28c-.3 0-.5-.2-.5-.5V1.5c0-.3.2-.5.5-.5h28c.3 0 .5.2.5.5v19.6z"/><path d="M27.7 2L15.8 12.2c-.2.2-.4.2-.6 0L3.3 2c-.2-.2-.5-.2-.7 0-.1.3-.1.6.1.8l11.8 10.1c.3.3.7.4 1 .4.4 0 .7-.1 1-.4L28.3 2.8c.2-.2.2-.5.1-.7-.2-.3-.5-.3-.7-.1zM20.1 12.8c-.2-.2-.5-.2-.7.1-.2.2-.2.5.1.7l8.2 7c.1.1.2.1.3.1.1 0 .3-.1.4-.2.2-.2.2-.5-.1-.7l-8.2-7zM10.9 12.8l-8.2 7c-.2.2-.2.5-.1.7.1.1.2.2.4.2.1 0 .2 0 .3-.1l8.2-7c.2-.2.2-.5.1-.7-.2-.3-.5-.3-.7-.1z"/></svg>