<svg version="1.1" id="Layer_1" xmlns="http://www.w3.org/2000/svg" x="0" y="0" viewBox="0 0 15 15" xml:space="preserve"><style>.st0{fill:#979797}</style><path class="st0" d="M13.6 1.2c-1.5-1.4-3.8-1.4-5.3 0l-3 3c-1.5 1.6-1.5 4 0 5.6.2.2.4.4.7.5l1.6-1.6c-.3 0-.6-.2-.9-.4-.7-.7-.7-1.9 0-2.6l3-3c.7-.7 1.8-.8 2.5-.2.7.7.8 1.8.2 2.5l-.2.2-.9.9c.4.9.5 1.8.4 2.7l2.1-2.1c1.5-1.6 1.4-4.1-.2-5.5z"/><path class="st0" d="M9 4.7L7.4 6.3c.3 0 .6.2.9.4.7.7.7 1.9 0 2.6l-3 3.1c-.7.7-1.8.7-2.6 0s-.7-1.8 0-2.6l.9-.9c-.4-.9-.5-1.8-.3-2.8L1.2 8.3c-1.5 1.6-1.4 4.1.3 5.6 1.5 1.4 3.8 1.4 5.3 0l3-3c1.5-1.6 1.5-4 0-5.6-.3-.3-.5-.5-.8-.6z"/></svg>