<?xml version="1.0" encoding="utf-8"?>
<!-- Generator: Adobe Illustrator 22.0.1, SVG Export Plug-In . SVG Version: 6.00 Build 0)  -->
<svg version="1.1" id="Layer_1" xmlns="http://www.w3.org/2000/svg" xmlns:xlink="http://www.w3.org/1999/xlink" x="0px" y="0px"
	 viewBox="0 0 17 28.5" style="enable-background:new 0 0 17 28.5;" xml:space="preserve">
<style type="text/css">
	.st0{clip-path:url(#SVGID_2_);fill:#4753A4;}
	.st1{fill:none;stroke:#4753A4;stroke-width:0.5;stroke-miterlimit:10;}
	.st2{clip-path:url(#SVGID_4_);fill:#4753A4;}
	.st3{clip-path:url(#SVGID_6_);fill:#4753A4;}
	.st4{clip-path:url(#SVGID_8_);fill:#4753A4;}
	.st5{clip-path:url(#SVGID_10_);fill:#ED3749;}
	.st6{fill:none;stroke:#ED3749;stroke-width:0.5;stroke-miterlimit:10;}
	.st7{clip-path:url(#SVGID_12_);fill:#ED3749;}
	.st8{clip-path:url(#SVGID_14_);fill:#ED3749;}
	.st9{clip-path:url(#SVGID_16_);fill:#ED3749;}
	.st10{clip-path:url(#SVGID_18_);fill:#4CBFAA;}
	.st11{fill:none;stroke:#4CBFAA;stroke-width:0.5;stroke-miterlimit:10;}
	.st12{clip-path:url(#SVGID_20_);fill:#4CBFAA;}
	.st13{clip-path:url(#SVGID_22_);fill:#4CBFAA;}
	.st14{clip-path:url(#SVGID_24_);fill:none;stroke:#4CBFAA;stroke-width:2;stroke-miterlimit:10;}
	.st15{fill:#010101;}
	.st16{fill:none;stroke:#000000;stroke-linecap:round;stroke-linejoin:round;stroke-miterlimit:10;}
	.st17{fill:none;stroke:#ED3648;stroke-width:1.5;stroke-linecap:round;stroke-linejoin:round;stroke-miterlimit:10;}
	.st18{fill:none;stroke:#ED3648;stroke-width:1.25;stroke-linecap:round;stroke-linejoin:round;stroke-miterlimit:10;}
	.st19{fill:none;stroke:#4CBFA9;stroke-width:1.5;stroke-linecap:round;stroke-linejoin:round;stroke-miterlimit:10;}
	.st20{fill:none;stroke:#4CBFA9;stroke-width:1.25;stroke-linecap:round;stroke-linejoin:round;stroke-miterlimit:10;}
	.st21{fill:none;stroke:#4652A4;stroke-width:1.5;stroke-linecap:round;stroke-linejoin:round;stroke-miterlimit:10;}
	.st22{fill:none;stroke:#4652A4;stroke-width:1.25;stroke-linecap:round;stroke-linejoin:round;stroke-miterlimit:10;}
	.st23{fill:#ED3648;}
	.st24{fill:#4652A4;}
	.st25{fill:#4CBFA9;}
</style>
<g>
	<path d="M16.5,11c-0.3,0-0.5,0.2-0.5,0.5v5c0,4.4-3.4,8-7.5,8S1,20.9,1,16.5v-5C1,11.2,0.8,11,0.5,11S0,11.2,0,11.5v5
		c0,4.8,3.5,8.7,8,9v2H4.5C4.2,27.5,4,27.7,4,28s0.2,0.5,0.5,0.5h8c0.3,0,0.5-0.2,0.5-0.5s-0.2-0.5-0.5-0.5H9v-2c4.5-0.3,8-4.2,8-9
		v-5C17,11.2,16.8,11,16.5,11z"/>
	<path d="M8.5,23c3.3,0,6-2.7,6-6V6c0-3.3-2.7-6-6-6s-6,2.7-6,6v11C2.5,20.3,5.2,23,8.5,23z M3.5,6c0-2.8,2.2-5,5-5s5,2.2,5,5v11
		c0,2.8-2.2,5-5,5s-5-2.2-5-5V6z"/>
</g>
</svg>
