<svg data-name="Layer 1" xmlns="http://www.w3.org/2000/svg" viewBox="0 0 190.35 185.41"><path d="M12.91 138.24v3.4L9 141.37l2.19 3.31-2.91 1.7-1.77-3.6-1.8 3.56-2.9-1.66L4 141.37l-4 .23v-3.36l4 .23-2.2-3.31 2.91-1.7L6.47 137l1.77-3.57 2.91 1.74-2.15 3.3zM26.31 149.91v1.19c0 2.75-.51 6.26-5.51 6.26-3.69 0-5.3-2-5.3-6v-10.67c0-3.79 1.9-5.79 5.39-5.79 4.61 0 5.36 3 5.36 5.88v1.37H22v-1.86c0-1.2-.25-1.81-1.13-1.81s-1.14.58-1.14 1.81v11.54c0 1.16.19 1.95 1.14 1.95s1.17-.66 1.17-2.05v-1.82zM40.07 141.06v10.12c0 4.32-2 6.18-5.85 6.18-3.62 0-5.48-1.9-5.48-6.14V141c0-4.22 2.32-6 5.68-6s5.65 1.7 5.65 6.06zm-7.07-.47v11.14c0 1.35.46 2.05 1.39 2.05s1.43-.63 1.43-2.07v-11.16c0-1.36-.38-2.06-1.44-2.06-.9 0-1.38.65-1.38 2.1zM43 157v-21.78h4.64c.69 2.66 2.88 12.54 3.05 13.5h.1c-.23-2.9-.38-6.87-.38-9.91v-3.59h3.9V157H49.6c-.45-2.07-2.84-13.36-3-14.05h-.11c.16 2.56.29 6.9.29 10.33V157zM57.56 135.22h9v3.71h-4.8v5h4.57v3.71h-4.57V157h-4.2zM73.26 135.22V157h-4.18v-21.78zM76.55 135.22h5.16c4.49 0 6 2.05 6 6.57V150c0 3.75-.79 7-5.76 7h-5.4zm4.2 18.43h.82c1.64 0 1.92-1.07 1.92-2.77v-9.77c0-1.61-.37-2.49-1.95-2.49h-.79zM99.35 147.4h-4.5v5.95h5.27l-.5 3.68h-9v-21.81h8.93v3.71h-4.7v4.78h4.5zM102.27 157v-21.78h4.65c.69 2.66 2.87 12.54 3 13.5h.1c-.23-2.9-.38-6.87-.38-9.91v-3.59h3.89V157h-4.63c-.45-2.07-2.84-13.36-3-14.05h-.11c.16 2.56.29 6.9.29 10.33V157zM118.87 138.93h-3.18v-3.71h10.56v3.71h-3.19V157h-4.19zM132.59 135.22V157h-4.18v-21.78zM139.65 151.84l-.54 5.19h-4.28l3.09-21.81h6.25l3.16 21.78H143l-.6-5.19zm2.36-3.7c-.31-2.79-.75-7-.95-9.12h-.17c-.07 1.52-.59 6.43-.88 9.12zM149.48 135.22h4.2v18.14H159l-.37 3.67h-9.1zM165.12 135.22V157h-4.19v-21.78zM170.42 138.93h-3.18v-3.71h10.56v3.71h-3.19V157h-4.19zM188.62 147.4h-4.5v5.95h5.27l-.5 3.68h-9v-21.81h8.94v3.71h-4.74v4.78h4.5zm1.73-16.74l-4.29 3.28h-3.7l3.07-3.28zM37.78 185.08l4.63-21.81h4.71C47.11 169.84 47 177 47 178h.1c.42-3 1.17-8.1 1.81-11.15l.76-3.58h3.88l-4.63 21.81H44.2c0-5.74.11-14.14.15-14.86h-.11c-.41 2.57-1.15 7.71-1.86 11.14l-.78 3.72zM66.26 169.44l-2.14 10.07c-.84 4-2.31 5.9-6.35 5.9s-5.4-2.34-4.56-6.39l2.22-10.63c.83-4 2.94-5.45 6.08-5.45 3.86 0 5.66 2.27 4.75 6.5zm-6.64-1.1l-2.41 11.49C57 181 57 182 58.2 182c1 0 1.39-.84 1.67-2.13l2.41-11.49c.26-1.26.06-2.08-1.06-2.08-.81.04-1.32.64-1.6 2.04zM66 185.08l4.63-21.81h4.71c0 6.57-.12 13.77-.16 14.73h.1c.42-3 1.17-8.1 1.81-11.15l.76-3.58h3.88l-4.63 21.81h-4.69c0-5.74.11-14.14.15-14.86h-.11c-.41 2.57-1.15 7.71-1.86 11.14l-.78 3.72zM91 163.27v21.81h-4.17v-21.81zM94.3 185.08v-21.81h4.64c.69 2.66 2.88 12.54 3 13.5h.1c-.23-2.9-.38-6.87-.38-9.92v-3.58h3.9v21.81h-4.69c-.45-2.07-2.83-13.36-3-14.06h-.12c.17 2.57.29 6.91.29 10.34v3.72zM119.34 178v1.18c0 2.75-.51 6.27-5.51 6.27-3.69 0-5.29-2-5.29-6v-10.71c0-3.8 1.89-5.8 5.38-5.8 4.61 0 5.36 3 5.36 5.89v1.37h-4.23v-1.86c0-1.2-.25-1.81-1.13-1.81s-1.14.57-1.14 1.81v11.53c0 1.17.19 2 1.14 2s1.18-.67 1.18-2.06V178zM121.82 163.27H126v18.14h5.28l-.38 3.67h-9.1zM137.28 163.27v16.61c0 1.27.39 2 1.34 2s1.33-.77 1.33-2v-16.61h4.25v16.34c0 3.86-1.78 5.77-5.64 5.77s-5.5-1.84-5.5-5.81v-16.3zM150.76 178.36v1.51c0 1.43.35 2.1 1.31 2.1s1.19-1 1.19-2c0-2.06-.38-2.65-2.61-4.51-2.46-2.09-3.72-3.32-3.72-6.53s1-6 5.16-6c4.39 0 5 3 5 5.49v1.26h-4v-1.31c0-1.32-.22-2-1-2s-1 .67-1 1.9.24 2 2 3.37c3.2 2.52 4.36 3.94 4.36 7.53 0 3.41-1.17 6.23-5.5 6.23-4.17 0-5.35-2.51-5.35-5.74v-1.31zM168.68 175.45h-4.5v5.94h5.27l-.5 3.69h-9v-21.81h8.94V167h-4.74v4.78h4.5z"/><path d="M97.57 6.63L42.81 108.55a7.26 7.26 0 006.39 10.69h109.53a7.25 7.25 0 006.39-10.69L110.36 6.63a7.26 7.26 0 00-12.79 0z" fill="#f6d561" stroke="#000" stroke-miterlimit="10" stroke-width="5.61"/><path d="M96.59 94.93a8.12 8.12 0 118.12 8.45 8.13 8.13 0 01-8.12-8.45zm1.83-42.48L98 40.3h13.48L111 52.45l-1.87 28h-8.83z"/></svg>