<svg viewBox="0 0 146.33 202.54" xmlns="http://www.w3.org/2000/svg"><path d="m73.16 7c-1.59 0-2.99.84-3.75 2.24l-54.73 101.87c-.73 1.35-.69 2.88.1 4.2s2.12 2.07 3.65 2.07h109.47c1.53 0 2.86-.75 3.65-2.07s.82-2.85.1-4.2l-54.74-101.87c-.75-1.4-2.15-2.24-3.75-2.24z" fill="#f6d561"/><path d="m65.79 96.09c0-4.79 3.45-8.48 8.11-8.48s8.11 3.69 8.11 8.48-3.45 8.45-8.11 8.45-8.11-3.69-8.11-8.45zm1.83-42.46-.45-12.15h13.47l-.45 12.15-1.87 27.96h-8.82l-1.87-27.96z"/><path d="m127.9 123.38h-109.47c-3.64 0-6.93-1.87-8.8-4.99s-1.96-6.9-.23-10.11l54.73-101.88c1.79-3.33 5.25-5.4 9.03-5.4s7.24 2.07 9.03 5.4l54.74 101.87c1.72 3.21 1.64 6.99-.23 10.11s-5.16 4.99-8.8 4.99zm-54.74-116.38c-1.59 0-2.99.84-3.75 2.24l-54.73 101.87c-.73 1.35-.69 2.88.1 4.2s2.12 2.07 3.65 2.07h109.47c1.53 0 2.86-.75 3.65-2.07s.82-2.85.1-4.2l-54.74-101.87c-.75-1.4-2.15-2.24-3.75-2.24z"/><path d="m5.02 139.24-1.75-1.01 1.66-2.53-2.99.16v-2l3.01.18-1.66-2.55 1.75-1.01 1.4 2.9 1.38-2.9 1.75 1.04-1.66 2.53 3.01-.18v2l-3.01-.16 1.66 2.53-1.75 1.01-1.4-2.92-1.4 2.92z"/><path d="m13.39 147.02v-16.21h6.03c2.71 0 4.81.7 6.29 2.09 1.48 1.4 2.22 3.4 2.22 6s-.74 4.59-2.22 6-3.58 2.12-6.29 2.12zm2.94-2.44h2.9c3.74 0 5.61-1.89 5.61-5.68s-1.87-5.66-5.61-5.66h-2.9z"/><path d="m34.34 147.25c-.81 0-1.54-.16-2.17-.47-.64-.31-1.13-.74-1.5-1.28-.36-.54-.54-1.14-.54-1.82 0-.83.21-1.48.64-1.97.43-.48 1.13-.83 2.09-1.05.97-.21 2.26-.32 3.89-.32h.8v-.48c0-.77-.17-1.32-.51-1.66s-.91-.51-1.7-.51c-.63 0-1.27.1-1.93.29s-1.33.49-2 .89l-.83-1.96c.4-.28.87-.52 1.41-.72s1.12-.37 1.73-.48c.61-.12 1.18-.17 1.71-.17 1.64 0 2.86.38 3.66 1.14s1.2 1.94 1.2 3.53v6.81h-2.69v-1.79c-.26.63-.67 1.12-1.24 1.48s-1.24.54-2.02.54zm.6-1.98c.75 0 1.38-.26 1.88-.78s.75-1.18.75-1.98v-.51h-.78c-1.44 0-2.44.11-3 .33s-.84.62-.84 1.21c0 .51.18.92.53 1.24s.84.48 1.47.48z"/><path d="m48.37 147.25c-2.98 0-4.46-1.47-4.46-4.42v-4.9h-2.16v-2.16h2.16v-3.36h2.88v3.36h3.4v2.16h-3.4v4.74c0 .74.16 1.29.48 1.66s.84.55 1.56.55c.21 0 .44-.03.67-.08s.47-.11.71-.17l.44 2.12c-.28.15-.62.28-1.05.37-.42.09-.83.14-1.23.14z"/><path d="m57.48 147.25c-1.27 0-2.37-.24-3.29-.71s-1.63-1.15-2.13-2.02-.75-1.91-.75-3.11.24-2.18.72-3.06c.48-.87 1.15-1.56 2-2.06s1.82-.75 2.91-.75c1.59 0 2.86.51 3.78 1.52.93 1.01 1.39 2.39 1.39 4.14v.85h-8.05c.21 2.01 1.37 3.01 3.45 3.01.63 0 1.26-.1 1.89-.29s1.2-.5 1.73-.91l.8 1.93c-.54.44-1.21.8-2.02 1.06s-1.62.39-2.44.39zm-.41-9.75c-.84 0-1.53.26-2.05.78s-.84 1.23-.94 2.12h5.66c-.06-.94-.32-1.65-.77-2.15s-1.08-.75-1.9-.75z"/><path d="m64.4 147.02v-11.25h2.81v1.75c.38-.64.9-1.13 1.55-1.47s1.38-.51 2.2-.51c2.65 0 3.98 1.54 3.98 4.62v6.85h-2.88v-6.72c0-.87-.17-1.51-.5-1.91s-.84-.6-1.53-.6c-.84 0-1.51.26-2.01.79s-.75 1.23-.75 2.1v6.33h-2.88z"/><path d="m81.97 147.25c-.95 0-1.84-.12-2.67-.35s-1.52-.56-2.07-.99l.74-1.89c.57.38 1.2.68 1.91.89s1.41.31 2.12.31 1.28-.13 1.64-.38.54-.59.54-1c0-.64-.48-1.06-1.43-1.24l-2.3-.44c-1.95-.37-2.92-1.38-2.92-3.04 0-.74.2-1.37.61-1.91s.97-.95 1.69-1.24 1.55-.44 2.48-.44c.8 0 1.56.11 2.3.33s1.36.56 1.89 1l-.78 1.89c-.45-.37-.98-.66-1.6-.87s-1.22-.32-1.78-.32c-.75 0-1.31.13-1.67.39s-.54.61-.54 1.03c0 .67.44 1.09 1.31 1.24l2.3.44c1 .18 1.75.52 2.27 1.01.51.49.77 1.15.77 1.98 0 1.12-.44 2-1.31 2.63-.87.64-2.04.96-3.5.96z"/><path d="m94.28 147.25c-1.18 0-2.21-.24-3.08-.72s-1.55-1.17-2.02-2.06-.71-1.93-.71-3.13.24-2.23.71-3.09 1.15-1.53 2.02-2 1.9-.7 3.08-.7c.72 0 1.43.11 2.14.34s1.29.55 1.75.97l-.85 2c-.4-.35-.85-.62-1.34-.8-.5-.18-.98-.28-1.44-.28-1 0-1.77.31-2.31.93s-.82 1.51-.82 2.66.27 2.03.82 2.68c.54.65 1.31.98 2.31.98.44 0 .92-.09 1.43-.28.51-.18.96-.46 1.36-.83l.85 2.02c-.46.4-1.05.72-1.76.95-.71.24-1.42.36-2.13.36z"/><path d="m99.93 147.02v-16.21h2.88v6.6c.38-.61.9-1.08 1.54-1.39s1.36-.47 2.14-.47c2.65 0 3.98 1.54 3.98 4.62v6.85h-2.88v-6.72c0-.87-.17-1.51-.5-1.91s-.84-.6-1.53-.6c-.84 0-1.51.26-2.01.79s-.75 1.23-.75 2.1v6.33h-2.88z"/><path d="m117.46 147.25c-2.76 0-4.14-1.55-4.14-4.65v-6.83h2.88v6.88c0 .8.16 1.39.48 1.77s.83.57 1.54.57c.77 0 1.39-.26 1.89-.79.49-.53.74-1.23.74-2.1v-6.33h2.88v11.25h-2.81v-1.68c-.75 1.27-1.9 1.91-3.45 1.91z"/><path d="m131.86 147.25c-2.98 0-4.46-1.47-4.46-4.42v-4.9h-2.16v-2.16h2.16v-3.36h2.88v3.36h3.4v2.16h-3.4v4.74c0 .74.16 1.29.48 1.66s.84.55 1.56.55c.21 0 .44-.03.67-.08s.47-.11.71-.17l.44 2.12c-.28.15-.62.28-1.05.37-.42.09-.83.14-1.23.14z"/><path d="m135.22 147.02v-1.86l5.8-7.22h-5.8v-2.16h8.92v1.86l-5.8 7.22h6.05v2.16h-9.18z"/><path d="m50.9 171.02v-11.25h2.81v1.75c.38-.64.9-1.13 1.55-1.47s1.38-.51 2.2-.51c2.65 0 3.98 1.54 3.98 4.62v6.85h-2.88v-6.72c0-.87-.17-1.51-.5-1.91s-.84-.6-1.53-.6c-.84 0-1.51.26-2.01.79s-.75 1.23-.75 2.1v6.33h-2.88z"/><path d="m64.17 157.36v-2.81h3.22v2.81zm.18 13.66v-11.25h2.88v11.25z"/><path d="m75.42 171.25c-1.18 0-2.21-.24-3.08-.72s-1.55-1.17-2.02-2.06-.71-1.93-.71-3.13.24-2.23.71-3.09 1.15-1.53 2.02-2 1.9-.7 3.08-.7c.72 0 1.43.11 2.14.34s1.29.55 1.75.97l-.85 2c-.4-.35-.85-.62-1.34-.8-.5-.18-.98-.28-1.44-.28-1 0-1.77.31-2.31.93s-.82 1.51-.82 2.66.27 2.03.82 2.68c.54.65 1.31.98 2.31.98.44 0 .92-.09 1.43-.28.51-.18.96-.46 1.36-.83l.85 2.02c-.46.4-1.05.72-1.76.95-.71.24-1.42.36-2.13.36z"/><path d="m81.08 171.02v-16.21h2.88v6.6c.38-.61.9-1.08 1.54-1.39s1.36-.47 2.14-.47c2.65 0 3.98 1.54 3.98 4.62v6.85h-2.88v-6.72c0-.87-.17-1.51-.5-1.91s-.84-.6-1.53-.6c-.84 0-1.51.26-2.01.79s-.75 1.23-.75 2.1v6.33h-2.88z"/><path d="m99.68 171.25c-2.98 0-4.46-1.47-4.46-4.42v-4.9h-2.16v-2.16h2.16v-3.36h2.88v3.36h3.4v2.16h-3.4v4.74c0 .74.16 1.29.48 1.66s.84.55 1.56.55c.21 0 .44-.03.67-.08s.47-.11.71-.17l.44 2.12c-.28.15-.62.28-1.05.37-.42.09-.83.14-1.23.14z"/><path d="m18.85 181.36v-2.81h3.22v2.81zm.18 13.66v-11.25h2.88v11.25z"/><path d="m24.9 195.02v-11.25h2.81v1.75c.38-.64.9-1.13 1.55-1.47s1.38-.51 2.2-.51c2.65 0 3.98 1.54 3.98 4.62v6.85h-2.88v-6.72c0-.87-.17-1.51-.5-1.91s-.84-.6-1.53-.6c-.84 0-1.51.26-2.01.79s-.75 1.23-.75 2.1v6.33h-2.88z"/><path d="m44.84 195.25c-.83 0-1.57-.18-2.22-.55s-1.14-.87-1.46-1.5v1.82h-2.81v-16.21h2.88v6.62c.34-.57.82-1.02 1.46-1.37.64-.34 1.35-.52 2.15-.52 1 0 1.86.24 2.6.71s1.31 1.15 1.72 2.01c.41.87.62 1.91.62 3.12s-.21 2.23-.62 3.12-.99 1.56-1.74 2.04c-.74.48-1.61.71-2.59.71zm-.81-2.19c.86 0 1.55-.31 2.07-.93s.78-1.54.78-2.75-.26-2.14-.78-2.75-1.21-.91-2.07-.91-1.55.3-2.07.91-.78 1.52-.78 2.75.26 2.13.78 2.75 1.21.93 2.07.93z"/><path d="m57.7 195.25c-1.27 0-2.37-.24-3.29-.71s-1.63-1.15-2.13-2.02-.75-1.91-.75-3.11.24-2.18.72-3.06c.48-.87 1.15-1.56 2-2.06s1.82-.75 2.91-.75c1.59 0 2.86.51 3.78 1.52.93 1.01 1.39 2.39 1.39 4.14v.85h-8.05c.21 2.01 1.37 3.01 3.45 3.01.63 0 1.26-.1 1.89-.29s1.2-.5 1.73-.91l.8 1.93c-.54.44-1.21.8-2.02 1.06s-1.62.39-2.44.39zm-.41-9.75c-.84 0-1.53.26-2.05.78s-.84 1.23-.94 2.12h5.66c-.06-.94-.32-1.65-.77-2.15s-1.08-.75-1.9-.75z"/><path d="m69.86 199.39c-1.04 0-2.02-.12-2.93-.36s-1.71-.6-2.4-1.09l.83-2c.64.43 1.33.75 2.07.95.74.21 1.47.31 2.21.31 2.05 0 3.08-.99 3.08-2.97v-1.54c-.32.63-.82 1.13-1.48 1.5s-1.41.55-2.22.55c-1.01 0-1.89-.23-2.64-.7s-1.33-1.12-1.75-1.97c-.41-.84-.62-1.82-.62-2.94s.21-2.1.62-2.93 1-1.49 1.75-1.96 1.63-.7 2.64-.7c.84 0 1.59.19 2.25.56s1.14.88 1.45 1.51v-1.84h2.81v10.12c0 1.82-.48 3.2-1.45 4.12s-2.37 1.38-4.21 1.38zm-.07-6.83c.89 0 1.59-.31 2.12-.92.52-.61.78-1.45.78-2.51s-.26-1.89-.78-2.5-1.23-.91-2.12-.91-1.59.3-2.12.91c-.52.61-.78 1.44-.78 2.5s.26 1.89.78 2.51 1.23.92 2.12.92z"/><path d="m78.51 195.02v-11.25h2.81v1.98c.55-1.33 1.73-2.07 3.54-2.21l.87-.07.18 2.44-1.66.16c-1.89.18-2.83 1.15-2.83 2.9v6.05h-2.92z"/><path d="m87.34 181.36v-2.81h3.22v2.81zm.18 13.66v-11.25h2.88v11.25z"/><path d="m94.15 195.02v-9.08h-2.16v-2.16h2.16v-.02c0-1.59.42-2.8 1.25-3.61s2.13-1.27 3.9-1.38l1.13-.07.18 2.12-1.06.07c-.92.06-1.57.29-1.96.68-.38.39-.58.97-.58 1.74v.48h3.06v2.16h-3.06v9.08h-2.88z"/><path d="m101.99 195.02v-9.08h-2.16v-2.16h2.16v-.02c0-1.59.42-2.8 1.25-3.61s2.13-1.27 3.9-1.38l1.13-.07.18 2.12-1.06.07c-.92.06-1.57.29-1.96.68-.38.39-.58.97-.58 1.74v.48h3.06v2.16h-3.06v9.08h-2.88z"/><path d="m114.85 195.25c-1.27 0-2.37-.24-3.29-.71s-1.63-1.15-2.13-2.02-.75-1.91-.75-3.11.24-2.18.72-3.06c.48-.87 1.15-1.56 2-2.06s1.82-.75 2.91-.75c1.59 0 2.86.51 3.78 1.52.93 1.01 1.39 2.39 1.39 4.14v.85h-8.05c.21 2.01 1.37 3.01 3.45 3.01.63 0 1.26-.1 1.89-.29s1.2-.5 1.73-.91l.8 1.93c-.54.44-1.21.8-2.02 1.06s-1.62.39-2.44.39zm-.41-9.75c-.84 0-1.53.26-2.05.78s-.84 1.23-.94 2.12h5.66c-.06-.94-.32-1.65-.77-2.15s-1.08-.75-1.9-.75z"/><path d="m121.78 195.02v-11.25h2.81v1.75c.38-.64.9-1.13 1.55-1.47s1.38-.51 2.2-.51c2.65 0 3.98 1.54 3.98 4.62v6.85h-2.88v-6.72c0-.87-.17-1.51-.5-1.91s-.84-.6-1.53-.6c-.84 0-1.51.26-2.01.79s-.75 1.23-.75 2.1v6.33h-2.88z"/></svg>