<svg id="Layer_1" data-name="Layer 1" xmlns="http://www.w3.org/2000/svg" viewBox="0 0 145.58 185.41"><defs><style>.cls-1{fill:#f6d561;stroke:#000;stroke-miterlimit:10;stroke-width:5.61px;}</style></defs><path d="M12.91,138.24v3.4L9,141.37l2.19,3.31-2.91,1.7-1.77-3.6-1.8,3.56-2.9-1.66L4,141.37l-4,.23v-3.36l4,.23L1.8,135.16l2.91-1.7L6.47,137l1.77-3.57,2.91,1.74L9,138.47Z"/><path d="M15.85,135.22h5.59c3.62,0,5.42,1.92,5.42,5.78v1.33c0,3.82-1.44,6.13-5.58,6.13H20.05V157h-4.2Zm4.2,9.84h.68c1.59,0,1.92-.89,1.92-2.71v-1.5c0-1.41-.33-2.32-1.72-2.32h-.88Z"/><path d="M33.54,147.55V157H29.35V135.22h5.44c3.65,0,5.46,1.61,5.46,5.42v.79c0,3.1-1.24,4-2.18,4.47,1.36.66,2,1.65,2,4.7,0,2.1,0,5.29.15,6.43H36.16a41.4,41.4,0,0,1-.25-6.61c0-2.45-.28-2.87-1.88-2.87Zm0-3.3h.52c1.4,0,2-.45,2-2.48v-1.05c0-1.46-.29-2.19-1.84-2.19h-.65Z"/><path d="M47.37,135.22V157H43.19V135.22Z"/><path d="M52.81,157l-3.27-21.81H54l.78,8.08c.27,2.81.61,6,.76,8.74h.17c.14-2.77.49-5.76.73-8.71l.68-8.11H61.5L58.28,157Z"/><path d="M66.62,151.84,66.08,157H61.81l3.08-21.81h6.26L74.3,157H69.94l-.6-5.19Zm2.36-3.7c-.31-2.79-.74-7-1-9.12h-.16c-.08,1.52-.6,6.43-.88,9.12Z"/><path d="M87.08,149.91v1.18c0,2.76-.51,6.27-5.51,6.27-3.69,0-5.3-2-5.3-6V140.69c0-3.79,1.89-5.79,5.39-5.79,4.6,0,5.35,3,5.35,5.88v1.37H82.79v-1.86c0-1.2-.26-1.81-1.13-1.81s-1.15.58-1.15,1.81v11.54c0,1.16.2,1.95,1.15,1.95s1.17-.67,1.17-2.05v-1.82Z"/><path d="M92.37,157v-7a4.56,4.56,0,0,0-.15-1.13l-3.84-13.7H93c.59,3.15,1.28,6.76,1.55,9.51h.13c.36-2.61,1.06-6.3,1.62-9.51h4.33l-3.92,14.05a3.67,3.67,0,0,0-.1.94V157Z"/><path d="M105.48,157l4.63-21.81h4.71c0,6.57-.12,13.77-.17,14.73h.1c.43-3,1.18-8.1,1.82-11.14l.75-3.59h3.89L116.58,157h-4.69c0-5.74.11-14.14.16-14.86h-.12c-.4,2.57-1.14,7.71-1.85,11.14L109.3,157Z"/><path d="M130.49,147.33H126l-1.25,6.11h5.43L128.94,157h-9.1l4.63-21.81h8.86l-.77,3.59h-4.75l-1,4.92h4.5Z"/><path d="M137.55,138.83h-3.1l.77-3.61h10.36l-.78,3.61h-3.14L137.81,157H133.7Z"/><path d="M16.54,185.08v-7a4.59,4.59,0,0,0-.16-1.13l-3.83-13.7h4.57c.59,3.15,1.27,6.76,1.54,9.51h.14c.35-2.61,1.05-6.31,1.62-9.51h4.32l-3.92,14a4.12,4.12,0,0,0-.1.94v6.82Z"/><path d="M26.47,185.08V163.27h4.64c.69,2.66,2.88,12.54,3,13.5h.1c-.23-2.9-.38-6.87-.38-9.92v-3.58h3.9v21.81H33.09c-.45-2.08-2.83-13.36-3-14.06H30c.17,2.57.29,6.91.29,10.34v3.72Z"/><path d="M41.05,163.27h5.16c3.7,0,5.49,1.6,5.49,5v.86c0,3-1.1,3.89-2.13,4.28,1,.41,2.49,1.22,2.49,4.26v1.74c0,3.81-1.59,5.69-5.58,5.69H41.05Zm4.73,8.59c1.42,0,1.9-.46,1.9-2.13v-1.12c0-1.4-.44-2-1.77-2h-.79v5.28Zm-.66,9.95H46c1.5,0,1.85-.69,1.85-2.31v-2c0-1.69-.4-2.42-2.12-2.42h-.57Z"/><path d="M63.39,175.45h-4.5v5.94h5.27l-.5,3.69h-9V163.27h8.94V167H58.89v4.78h4.5Z"/><path d="M77.28,185.08H74.12a11.28,11.28,0,0,1-.19-1.61,3.45,3.45,0,0,1-3.44,1.94c-3.4,0-4.35-2.53-4.35-6.09V169.06c0-3.35,1.38-6.12,5.54-6.12,5,0,5.53,3.66,5.53,5.86v1H73v-1.2c0-1.06-.13-2-1.29-2-1,0-1.32.7-1.32,2.13v11.17c0,1.49.48,2,1.32,2,1,0,1.36-.79,1.36-2.58v-3.13H71.62v-3.54h5.66Z"/><path d="M84.63,175.6v9.48H80.44V163.27h5.44c3.66,0,5.46,1.61,5.46,5.42v.78c0,3.11-1.24,4-2.17,4.48,1.35.65,2,1.65,2,4.69,0,2.11,0,5.29.15,6.44H87.25a41.53,41.53,0,0,1-.25-6.61c0-2.45-.28-2.87-1.88-2.87Zm0-3.31h.52c1.4,0,2-.44,2-2.47v-1c0-1.47-.29-2.19-1.84-2.19h-.65Z"/><path d="M102.94,175.45h-4.5v5.94h5.28l-.51,3.69h-9V163.27h8.94V167H98.44v4.78h4.5Z"/><path d="M105.87,163.27h5.59c3.62,0,5.42,1.92,5.42,5.78v1.33c0,3.82-1.44,6.13-5.58,6.13h-1.23v8.57h-4.2Zm4.2,9.84h.68c1.59,0,1.93-.89,1.93-2.71v-1.5c0-1.41-.33-2.32-1.73-2.32h-.88Z"/><path d="M128.05,175.45h-4.5v5.94h5.27l-.5,3.69h-9V163.27h8.93V167h-4.73v4.78h4.5Z"/><path d="M131,185.08V163.27h4.65c.69,2.66,2.87,12.54,3,13.5h.1c-.23-2.9-.38-6.87-.38-9.92v-3.58h3.89v21.81H137.6c-.45-2.08-2.84-13.36-3-14.06h-.11c.16,2.57.29,6.91.29,10.34v3.72Z"/><path class="cls-1" d="M71.77,6.63,17,108.55a7.26,7.26,0,0,0,6.39,10.69H132.92a7.25,7.25,0,0,0,6.39-10.69L84.55,6.63A7.25,7.25,0,0,0,71.77,6.63Z"/><path d="M70.78,94.93a8.12,8.12,0,1,1,8.12,8.45A8.13,8.13,0,0,1,70.78,94.93Zm1.83-42.48L72.16,40.3H85.64l-.46,12.15-1.87,28H74.48Z"/></svg>