<svg version="1.1" id="Layer_1" xmlns="http://www.w3.org/2000/svg" x="0" y="0" viewBox="0 0 24 24" xml:space="preserve"><style>.st23{fill:#ed3648}</style><path class="st23" d="M12 0C5.4 0 0 5.4 0 12s5.4 12 12 12 12-5.4 12-12S18.6 0 12 0zm0 22.5C6.2 22.5 1.5 17.8 1.5 12S6.2 1.5 12 1.5 22.5 6.2 22.5 12 17.8 22.5 12 22.5z"/><path class="st23" d="M12 14.4c-2 0-3.9.8-5.3 2.2-.3.3-.3.8 0 1.1.1.1.3.2.5.2s.4-.1.5-.2c1.1-1.1 2.6-1.8 4.2-1.8s3 .6 4.2 1.7c.3.3.8.3 1.1 0 .3-.3.3-.8 0-1.1-1.4-1.4-3.2-2.1-5.2-2.1zM7.9 11.1c.7 0 1.2-.5 1.2-1.2s-.6-1.1-1.2-1.1-1.2.5-1.2 1.1.5 1.2 1.2 1.2zm0-1.2v.1s-.1 0 0-.1zM16.1 11.1c.7 0 1.2-.5 1.2-1.2s-.5-1.2-1.2-1.2-1.2.5-1.2 1.2.6 1.2 1.2 1.2zm0-1.2v.1s-.1 0 0-.1z"/></svg>