<?xml version="1.0" encoding="UTF-8"?>
<svg width="28px" height="24px" viewBox="0 0 28 24" version="1.1" xmlns="http://www.w3.org/2000/svg" xmlns:xlink="http://www.w3.org/1999/xlink">
    <!-- Generator: Sketch 51.3 (57544) - http://www.bohemiancoding.com/sketch -->
    <title>Fill-1</title>
    <desc>Created with Sketch.</desc>
    <defs></defs>
    <g id="Buyers-Guide" stroke="none" stroke-width="1" fill="none" fill-rule="evenodd">
        <g id="Product-Wide-Copy" transform="translate(-861.000000, -2413.000000)" fill-rule="nonzero" stroke="#000000">
            <g id="Criteria" transform="translate(255.000000, 1499.000000)">
                <path d="M630.225064,920.465473 C630.242967,920.705882 630.242967,920.943734 630.242967,921.184143 C630.242967,928.501279 624.675192,936.928389 614.498721,936.928389 C611.363171,936.928389 608.450128,936.023018 606,934.445013 C606.445013,934.496164 606.87468,934.514067 607.337596,934.514067 C609.925831,934.514067 612.304348,933.639386 614.204604,932.148338 C611.772379,932.097187 609.734015,930.503836 609.033248,928.312021 C609.375959,928.363171 609.716113,928.398977 610.076726,928.398977 C610.57289,928.398977 611.071611,928.329923 611.531969,928.209719 C608.997442,927.695652 607.097187,925.468031 607.097187,922.777494 L607.097187,922.70844 C607.83376,923.122762 608.690537,923.378517 609.598465,923.411765 C608.109974,922.419437 607.132992,920.723785 607.132992,918.805627 C607.132992,917.774936 607.404092,916.83376 607.88491,916.01023 C610.608696,919.368286 614.703325,921.56266 619.296675,921.800512 C619.207161,921.391304 619.158568,920.961637 619.158568,920.534527 C619.158568,917.483376 621.626598,915 624.690537,915 C626.283887,915 627.723785,915.670077 628.734015,916.746803 C629.984655,916.508951 631.184143,916.046036 632.245524,915.411765 C631.836317,916.695652 630.961637,917.774936 629.813299,918.460358 C630.925831,918.340153 632.005115,918.033248 633,917.603581 C632.245524,918.700767 631.304348,919.677749 630.225064,920.465473" id="Fill-1"></path>
            </g>
        </g>
    </g>
</svg>