<svg data-name="Layer 1" xmlns="http://www.w3.org/2000/svg" viewBox="0 0 151.38 189.41"><path d="M12.91 138.24v3.4L9 141.37l2.19 3.31-2.91 1.7-1.77-3.6-1.8 3.56-2.9-1.66L4 141.37l-4 .23v-3.36l4 .23-2.2-3.31 2.91-1.7L6.47 137l1.77-3.57 2.91 1.74-2.15 3.3zM15.85 135.22h5.59c3.62 0 5.42 1.92 5.42 5.78v1.33c0 3.82-1.44 6.13-5.58 6.13h-1.23V157h-4.2zm4.2 9.84h.68c1.59 0 1.92-.89 1.92-2.71v-1.5c0-1.41-.33-2.32-1.72-2.32h-.88zM33.54 147.55V157h-4.19v-21.78h5.44c3.65 0 5.46 1.61 5.46 5.42v.79c0 3.1-1.24 4-2.18 4.47 1.36.66 2 1.65 2 4.7 0 2.1 0 5.29.15 6.43h-4.06a41.4 41.4 0 01-.25-6.61c0-2.45-.28-2.87-1.88-2.87zm0-3.3h.52c1.4 0 2-.45 2-2.48v-1.05c0-1.46-.29-2.19-1.84-2.19h-.65zM47.37 135.22V157h-4.18v-21.78zM52.81 157l-3.27-21.81H54l.78 8.08c.26 2.81.61 6 .76 8.74h.17c.14-2.77.49-5.76.73-8.71l.68-8.11h4.38L58.28 157zM66.62 151.84l-.54 5.16h-4.27l3.08-21.81h6.25L74.3 157h-4.36l-.6-5.19zm2.36-3.7c-.31-2.79-.74-7-1-9.12h-.16c-.08 1.52-.6 6.43-.88 9.12zM87.08 149.91v1.18c0 2.76-.51 6.27-5.51 6.27-3.69 0-5.3-2-5.3-6v-10.67c0-3.79 1.89-5.79 5.39-5.79 4.6 0 5.35 3 5.35 5.88v1.37h-4.22v-1.86c0-1.2-.26-1.81-1.13-1.81s-1.15.58-1.15 1.81v11.54c0 1.16.2 1.95 1.15 1.95s1.17-.67 1.17-2.05v-1.82zM93.76 135.22V157h-4.19v-21.78zM97 135.22h5.16c4.5 0 6 2.05 6 6.57V150c0 3.75-.8 7-5.76 7H97zm4.2 18.43h.82c1.65 0 1.92-1.07 1.92-2.77v-9.77c0-1.61-.36-2.49-2-2.49h-.79zM114.83 151.84l-.53 5.16H110l3.08-21.81h6.26l3.18 21.81h-4.37l-.6-5.19zm2.37-3.7c-.31-2.79-.75-7-1-9.12h-.17c-.07 1.52-.59 6.43-.88 9.12zM124.67 135.22h5.15c4.5 0 6.05 2.05 6.05 6.57V150c0 3.75-.8 7-5.76 7h-5.44zm4.2 18.43h.81c1.65 0 1.92-1.07 1.92-2.77v-9.77c0-1.61-.36-2.49-1.95-2.49h-.78zM147.46 147.4H143v5.94h5.27l-.51 3.69h-9v-21.81h8.93v3.71H143v4.78h4.49zM9.86 189.08l4.63-21.81h4.71c0 6.56-.12 13.77-.16 14.73h.1c.42-3 1.18-8.1 1.81-11.15l.76-3.58h3.88L21 189.08h-4.72c0-5.74.11-14.14.15-14.86h-.11c-.4 2.57-1.14 7.71-1.86 11.14l-.77 3.72zM29.24 183.75l-1.64 5.33h-4.34l7.54-21.81h6.35l-1.63 21.81h-4.15l.49-5.33zm.6-17.93L30 165c.35-2.37 1.24-2.77 2.68-2.77s2.95.89 3.68.89c.23 0 .53 0 .59-.58l.05-.29h2.42l-.07.63c-.23 2.31-1.25 3-2.76 3S33.78 165 33 165c-.31 0-.45.15-.54.52l-.06.32zm2.42 14.32c.26-2.57.69-7.15.88-9.2H33c-.42 1.65-1.76 6.38-2.61 9.2zM51.68 173.44l-2.14 10.07c-.84 4-2.31 5.9-6.35 5.9s-5.4-2.34-4.56-6.39l2.22-10.63c.83-4 2.94-5.45 6.08-5.45 3.86 0 5.66 2.27 4.75 6.5zm-6.68-1.1l-2.41 11.49c-.25 1.15-.18 2.21 1 2.21 1 0 1.39-.84 1.67-2.13l2.41-11.49c.26-1.26.06-2.09-1.06-2.09-.78 0-1.29.61-1.61 2.01zM62.08 167.27v21.81H57.9v-21.81zM65.37 189.08v-21.81H70c.69 2.66 2.88 12.54 3 13.5h.1c-.23-2.9-.38-6.87-.38-9.92v-3.58h3.9v21.81H72c-.45-2.08-2.83-13.36-3-14.06h-.1c.17 2.57.29 6.91.29 10.34v3.72zM90.41 182v1.18c0 2.75-.51 6.27-5.51 6.27-3.69 0-5.29-2-5.29-6v-10.71c0-3.8 1.89-5.8 5.38-5.8 4.61 0 5.36 3 5.36 5.89v1.37h-4.23v-1.86c0-1.2-.25-1.81-1.13-1.81s-1.14.57-1.14 1.81v11.53c0 1.17.19 2 1.14 2s1.18-.67 1.18-2.06V182zM92.89 167.27h4.2v18.14h5.28l-.38 3.67h-9.1zM108.35 167.27v16.61c0 1.27.39 2 1.35 2s1.32-.77 1.32-2v-16.61h4.25v16.34c0 3.86-1.78 5.77-5.64 5.77s-5.5-1.84-5.5-5.81v-16.3zM122.62 167.27v21.81h-4.19v-21.81zm3.92-4.77l-4.29 3.27h-3.7l3.06-3.27zM125.91 167.27h5.16c4.49 0 6 2 6 6.56V182c0 3.76-.8 7.05-5.76 7.05h-5.44zm4.2 18.43h.82c1.64 0 1.91-1.07 1.91-2.77v-9.77c0-1.61-.36-2.49-2-2.49h-.78zM143.7 183.89l-.54 5.19h-4.28l3.12-21.81h6.25l3.16 21.81H147l-.6-5.19zm2.36-3.7c-.31-2.79-.74-7-.95-9.12H145c-.08 1.52-.6 6.42-.88 9.12z"/><path d="M74.58 6.63L19.81 108.55a7.26 7.26 0 006.39 10.69h109.53a7.25 7.25 0 006.39-10.69L87.36 6.63a7.25 7.25 0 00-12.78 0z" fill="#f6d561" stroke="#000" stroke-miterlimit="10" stroke-width="5.61"/><path d="M73.59 94.93a8.12 8.12 0 118.12 8.45 8.13 8.13 0 01-8.12-8.45zm1.83-42.48L75 40.3h13.45L88 52.45l-1.87 28h-8.84z"/></svg>