<svg version="1.1" id="Layer_1" xmlns="http://www.w3.org/2000/svg" x="0" y="0" viewBox="0 0 31 24" xml:space="preserve"><style></style><path d="M28.5 3h-6c-.1-1.7-1.5-3-3.2-3h-7.6C10 0 8.6 1.3 8.5 3h-6C1.1 3 0 4.1 0 5.5v16C0 22.9 1.1 24 2.5 24h26c1.4 0 2.5-1.1 2.5-2.5v-16C31 4.1 29.9 3 28.5 3zM30 21.5c0 .8-.7 1.5-1.5 1.5h-26c-.8 0-1.5-.7-1.5-1.5v-16C1 4.7 1.7 4 2.5 4H9c.3 0 .5-.2.5-.5v-.3c0-1.2 1-2.2 2.2-2.2h7.6c1.2 0 2.2 1 2.2 2.2v.3c0 .3.2.5.5.5h6.5c.8 0 1.5.7 1.5 1.5v16z"/><path d="M15.5 6.7c-3.9 0-7 3.1-7 7s3.1 7 7 7 7-3.1 7-7-3.1-7-7-7zm0 13c-3.3 0-6-2.7-6-6s2.7-6 6-6 6 2.7 6 6-2.7 6-6 6zM26.3 6.9c-.6 0-1 .4-1 1s.4 1 1 1 1-.4 1-1-.5-1-1-1zm0 1h.5-.5z"/></svg>