<svg version="1.1" id="Layer_1" xmlns="http://www.w3.org/2000/svg" x="0" y="0" viewBox="0 0 33 26.3" xml:space="preserve"><style></style><path d="M31.5 8.9H14.9c-.8 0-1.5.7-1.5 1.5v10.3c0 .8.7 1.5 1.5 1.5h11.2l3.9 3.9c.1.1.2.1.4.1h.2c.2-.1.3-.3.3-.5v-3.6h.5c.8 0 1.5-.7 1.5-1.5V10.4c.1-.8-.6-1.5-1.4-1.5zm.5 11.9c0 .3-.2.5-.5.5h-1c-.3 0-.5.2-.5.5v2.9l-3.2-3.2c-.1-.1-.2-.1-.4-.1H14.9c-.3 0-.5-.2-.5-.5V10.4c0-.3.2-.5.5-.5h16.5c.3 0 .5.2.5.5v10.4z"/><path d="M10.9 15.7H8.6c-.1 0-.3.1-.4.2l-4.5 4.7v-4.3c0-.3-.2-.5-.5-.5H1.9c-.5 0-.9-.4-.9-.9v-13c0-.5.4-.9.9-.9h21.8c.5 0 .9.4.9.9v4.5c0 .3.2.5.5.5s.5-.2.5-.5V1.9c0-1-.8-1.9-1.9-1.9H1.9C.8 0 0 .8 0 1.9v13c0 1 .8 1.9 1.9 1.9h.8v5.1c0 .2.1.4.3.5h.2c.1 0 .3-.1.4-.2l5.2-5.4h2.1c.3 0 .5-.2.5-.5s-.2-.6-.5-.6z"/><circle cx="19.4" cy="15.6" r="1"/><circle cx="23.2" cy="15.6" r="1"/><path d="M27 14.6c-.6 0-1 .5-1 1s.5 1 1 1c.6 0 1-.5 1-1s-.4-1-1-1z"/></svg>