<svg id="Layer_1" data-name="Layer 1" xmlns="http://www.w3.org/2000/svg" viewBox="0 0 137.87 176.21"><defs><style>.cls-1{fill:#f6d561;}</style></defs><path class="cls-1" d="M70.35,6a4.19,4.19,0,0,0-3.74,2.24L11.87,110.11a4.26,4.26,0,0,0,3.75,6.27H125.09a4.26,4.26,0,0,0,3.75-6.27L74.1,8.24A4.19,4.19,0,0,0,70.35,6Z"/><path d="M63,95.09a8.12,8.12,0,1,1,8.11,8.44A8.13,8.13,0,0,1,63,95.09Zm1.83-42.47-.45-12.15H77.83l-.45,12.15-1.87,28H66.68Z"/><path d="M125.09,122.38H15.62a10.25,10.25,0,0,1-9-15.11L61.33,5.4a10.24,10.24,0,0,1,18,0l54.74,101.87a10.25,10.25,0,0,1-9,15.11ZM70.35,6a4.19,4.19,0,0,0-3.74,2.24L11.87,110.11a4.26,4.26,0,0,0,3.75,6.27H125.09a4.26,4.26,0,0,0,3.75-6.27L74.1,8.24A4.19,4.19,0,0,0,70.35,6Z"/><path d="M13.44,132.89v2l-3-.16,1.65,2.53-1.75,1L9,135.58l-1.38,2.69-1.72-1,1.65-2.55-3,.16v-2l3,.16-1.65-2.56,1.72-1L9,132.19l1.38-2.71,1.75,1-1.65,2.53Z"/><path d="M24.7,135.23a4.89,4.89,0,0,1,1.77,2.08,7.24,7.24,0,0,1,.63,3.1,7,7,0,0,1-.63,3.06,4.64,4.64,0,0,1-4.36,2.73,4.53,4.53,0,0,1-2.14-.5,3.58,3.58,0,0,1-1.45-1.41v5.87H15.65V134.77h2.83v1.7A3.48,3.48,0,0,1,19.94,135a4.52,4.52,0,0,1,2.17-.52A4.69,4.69,0,0,1,24.7,135.23ZM23.47,143a4.1,4.1,0,0,0,.76-2.63,4.36,4.36,0,0,0-.76-2.72,2.56,2.56,0,0,0-2.12-1,2.56,2.56,0,0,0-2.13.94,5.22,5.22,0,0,0,0,5.36,2.56,2.56,0,0,0,2.13.94A2.6,2.6,0,0,0,23.47,143Z"/><path d="M36.88,136.89l-1.68.16c-1.91.2-2.86,1.16-2.86,2.9V146H29.47V134.77h2.74v2a3.81,3.81,0,0,1,3.61-2.21l.87-.07Z"/><path d="M38.12,129.55h3.17v2.83H38.12ZM38.28,146V134.77h2.87V146Z"/><path d="M52,134.79h2.83L49.92,146H47.41l-4.88-11.23h3l3.17,7.94Z"/><path d="M64.41,135.64a4.87,4.87,0,0,1,1.15,3.55V146H62.82v-1.73a3,3,0,0,1-1.23,1.41,3.77,3.77,0,0,1-2,.5,4.43,4.43,0,0,1-2-.46,3.57,3.57,0,0,1-1.45-1.26,3.24,3.24,0,0,1-.53-1.8,2.82,2.82,0,0,1,.63-2,3.81,3.81,0,0,1,2.06-1,19.06,19.06,0,0,1,3.93-.32h.58v-.53a2.29,2.29,0,0,0-.5-1.65,2.21,2.21,0,0,0-1.64-.51,6.16,6.16,0,0,0-1.88.31,9.59,9.59,0,0,0-1.92.86l-.8-2a8.9,8.9,0,0,1,2.28-1,9,9,0,0,1,2.53-.4A4.83,4.83,0,0,1,64.41,135.64Zm-2.32,7.72a2.74,2.74,0,0,0,.73-2v-.48H62.4A16.15,16.15,0,0,0,60,141a2.35,2.35,0,0,0-1.22.48,1.24,1.24,0,0,0-.36.94,1.56,1.56,0,0,0,.5,1.21,1.8,1.8,0,0,0,1.29.47A2.42,2.42,0,0,0,62.09,143.36Z"/><path d="M70.53,145.49a4.88,4.88,0,0,1-2-2,6.39,6.39,0,0,1-.69-3.06,6.48,6.48,0,0,1,.72-3.1,5.09,5.09,0,0,1,2.06-2.08,6.27,6.27,0,0,1,3.08-.74,7.34,7.34,0,0,1,2.33.38,5,5,0,0,1,1.83,1l-.82,2a5.63,5.63,0,0,0-1.51-.87,4.46,4.46,0,0,0-1.58-.3,3,3,0,0,0-2.32.93,4.71,4.71,0,0,0,0,5.34A3,3,0,0,0,74,144a4.46,4.46,0,0,0,1.58-.3,5.41,5.41,0,0,0,1.51-.88l.82,2a5.22,5.22,0,0,1-1.88,1,7.43,7.43,0,0,1-2.39.38A6.37,6.37,0,0,1,70.53,145.49Z"/><path d="M87.59,134.79h2.83l-6.76,15.37h-2.9l2-4.58-4.69-10.79h3l3.17,7.94Z"/><path d="M107.57,135.64a5.24,5.24,0,0,1,1,3.48V146h-2.87v-6.74a3,3,0,0,0-.5-1.91,1.87,1.87,0,0,0-1.55-.6,2.63,2.63,0,0,0-2,.78,2.91,2.91,0,0,0-.74,2.1V146H98V134.77h2.81v1.68a3.84,3.84,0,0,1,1.54-1.45,4.58,4.58,0,0,1,2.18-.51A3.76,3.76,0,0,1,107.57,135.64Z"/><path d="M113.59,145.49a4.91,4.91,0,0,1-2-2.05,7,7,0,0,1,0-6.2,4.86,4.86,0,0,1,2-2,6.71,6.71,0,0,1,6,0,4.89,4.89,0,0,1,2,2,7.21,7.21,0,0,1,0,6.2,4.94,4.94,0,0,1-2,2.05,6.8,6.8,0,0,1-6,0Zm5.14-2.44a4.27,4.27,0,0,0,.74-2.71,4.33,4.33,0,0,0-.74-2.71,2.88,2.88,0,0,0-4.24,0,4.27,4.27,0,0,0-.75,2.71,4.21,4.21,0,0,0,.74,2.71,2.55,2.55,0,0,0,2.11.92A2.58,2.58,0,0,0,118.73,143.05Z"/><path d="M131.45,144l-.14,2.14a11.65,11.65,0,0,1-1.26.07,4.91,4.91,0,0,1-3.5-1.09,4.36,4.36,0,0,1-1.13-3.26v-4.9h-2.16v-2.16h2.16v-3.36h2.88v3.36h3v2.16h-3v4.86c0,1.5.7,2.25,2.09,2.25A7.86,7.86,0,0,0,131.45,144Z"/><path d="M24.72,153.55h3.17v2.83H24.72ZM24.88,170V158.77h2.88V170Z"/><path d="M40.27,159.64a5.24,5.24,0,0,1,1,3.48V170H38.38v-6.74a3,3,0,0,0-.49-1.91,1.91,1.91,0,0,0-1.56-.6,2.64,2.64,0,0,0-2,.78,3,3,0,0,0-.74,2.1V170H30.72V158.77h2.81v1.68A3.9,3.9,0,0,1,35.07,159a4.58,4.58,0,0,1,2.18-.51A3.8,3.8,0,0,1,40.27,159.64Z"/><path d="M46.24,169.49a4.84,4.84,0,0,1-2-2,7.08,7.08,0,0,1,0-6.16,5.09,5.09,0,0,1,2.06-2.08,6.29,6.29,0,0,1,3.08-.74,7.45,7.45,0,0,1,2.34.38,5,5,0,0,1,1.82,1l-.82,2a5.63,5.63,0,0,0-1.51-.87,4.42,4.42,0,0,0-1.58-.3,3,3,0,0,0-2.32.93,4.71,4.71,0,0,0,0,5.34,3,3,0,0,0,2.32.93,4.42,4.42,0,0,0,1.58-.3,5.41,5.41,0,0,0,1.51-.88l.82,2a5.22,5.22,0,0,1-1.88,1,7.43,7.43,0,0,1-2.39.38A6.33,6.33,0,0,1,46.24,169.49Z"/><path d="M55.4,170V153.8h2.88V170Z"/><path d="M71.57,158.77V170H68.76v-1.73a3.59,3.59,0,0,1-1.42,1.42,4.12,4.12,0,0,1-2,.49q-4.14,0-4.14-4.64v-6.79h2.88v6.81a2.71,2.71,0,0,0,.48,1.77,1.89,1.89,0,0,0,1.52.58,2.47,2.47,0,0,0,1.92-.8,3,3,0,0,0,.73-2.1v-6.26Z"/><path d="M85.41,153.8V170H82.56V168.2a3.51,3.51,0,0,1-1.46,1.47,4.31,4.31,0,0,1-2.17.53,4.66,4.66,0,0,1-2.59-.73,4.86,4.86,0,0,1-1.77-2.09,7.16,7.16,0,0,1-.63-3.09,7,7,0,0,1,.63-3.06,4.67,4.67,0,0,1,4.36-2.74,4.48,4.48,0,0,1,2.16.51,3.51,3.51,0,0,1,1.45,1.43V153.8ZM81.82,167a4.31,4.31,0,0,0,.74-2.69,4.23,4.23,0,0,0-.74-2.68,2.55,2.55,0,0,0-2.11-.93,2.61,2.61,0,0,0-2.14.92,4.07,4.07,0,0,0-.76,2.64,4.36,4.36,0,0,0,.76,2.72,2.85,2.85,0,0,0,4.25,0Z"/><path d="M98.25,164.91H90.59a3.5,3.5,0,0,0,.94,2.32,3.22,3.22,0,0,0,2.3.76,5.41,5.41,0,0,0,3.41-1.19l.83,2a6.11,6.11,0,0,1-2,1,7.56,7.56,0,0,1-2.38.39,6,6,0,0,1-4.36-1.56,5.69,5.69,0,0,1-1.6-4.28,6.57,6.57,0,0,1,.69-3.06,5,5,0,0,1,2-2.07,5.49,5.49,0,0,1,2.84-.74A4.66,4.66,0,0,1,96.9,160a5.93,5.93,0,0,1,1.35,4.12Zm-6.8-3.65a3.62,3.62,0,0,0-.86,2.11h5.2a3.3,3.3,0,0,0-.69-2.13,2.29,2.29,0,0,0-1.8-.72A2.42,2.42,0,0,0,91.45,161.26Z"/><path d="M111.45,153.8V170H108.6V168.2a3.57,3.57,0,0,1-1.46,1.47,4.33,4.33,0,0,1-2.17.53,4.66,4.66,0,0,1-2.59-.73,4.86,4.86,0,0,1-1.77-2.09,7.17,7.17,0,0,1-.64-3.09,7,7,0,0,1,.64-3.06,4.77,4.77,0,0,1,1.76-2,4.7,4.7,0,0,1,2.6-.72,4.48,4.48,0,0,1,2.16.51,3.51,3.51,0,0,1,1.45,1.43V153.8ZM107.85,167a4.24,4.24,0,0,0,.75-2.69,4.17,4.17,0,0,0-.75-2.68,2.55,2.55,0,0,0-2.1-.93,2.59,2.59,0,0,0-2.14.92,4,4,0,0,0-.76,2.64,4.29,4.29,0,0,0,.76,2.72,2.53,2.53,0,0,0,2.11,1A2.56,2.56,0,0,0,107.85,167Z"/></svg>