<svg version="1.1" id="Layer_1" xmlns="http://www.w3.org/2000/svg" x="0" y="0" viewBox="0 0 28 28" xml:space="preserve"><style></style><path d="M28 23c-.1-.7-.5-1.3-1.1-1.6l-6.9-4c-.8-.5-1.9-.3-2.6.3L16 19.2c-.4.4-.9.4-1.3.1-1.1-.9-2.1-1.8-3.1-2.8-1-1-2-2.1-2.8-3.1-.3-.4-.3-1 .1-1.3l1.4-1.4c.6-.8.7-1.9.2-2.7l-4-6.9C6.2.5 5.6.1 5 0c-.7-.1-1.4.2-1.9.6l-2 2.1c-1.4 1.4-1.5 4-.1 7.4 1.3 3.2 3.8 6.7 7 9.9s6.7 5.7 9.9 7c1.6.7 3.1 1 4.3 1 1.3 0 2.3-.4 3-1.1l2.1-2.1c.5-.4.8-1.1.7-1.8zM4.7.9h.2c.3.1.7.3.9.6l4 6.9c.2.5.1 1.2-.3 1.6l-.3.3-5.3-9.1c.2-.2.5-.3.8-.3zm20 25.4c-1.1 1.1-3.5 1.1-6.4-.1-3.1-1.3-6.5-3.7-9.6-6.8-3.1-3.1-5.5-6.5-6.8-9.6-1.3-3-1.3-5.3-.2-6.5l1.5-1.5L8.5 11l-.4.4c-.6.6-.7 1.7-.1 2.5a44.038 44.038 0 0 0 6.1 6.1c.8.6 1.9.6 2.5-.1l.3-.3 9.2 5.2-1.4 1.5zm2.1-2.2l-9.2-5.2.4-.4c.4-.4 1-.5 1.5-.2l6.9 4c.3.2.6.5.6.9.1.3 0 .6-.2.9z" fill="#010101"/></svg>