<svg version="1.1" id="Layer_1" xmlns="http://www.w3.org/2000/svg" x="0" y="0" viewBox="0 0 17 28.5" xml:space="preserve"><style></style><path d="M16.5 11c-.3 0-.5.2-.5.5v5c0 4.4-3.4 8-7.5 8S1 20.9 1 16.5v-5c0-.3-.2-.5-.5-.5s-.5.2-.5.5v5c0 4.8 3.5 8.7 8 9v2H4.5c-.3 0-.5.2-.5.5s.2.5.5.5h8c.3 0 .5-.2.5-.5s-.2-.5-.5-.5H9v-2c4.5-.3 8-4.2 8-9v-5c0-.3-.2-.5-.5-.5z"/><path d="M8.5 23c3.3 0 6-2.7 6-6V6c0-3.3-2.7-6-6-6s-6 2.7-6 6v11c0 3.3 2.7 6 6 6zm-5-17c0-2.8 2.2-5 5-5s5 2.2 5 5v11c0 2.8-2.2 5-5 5s-5-2.2-5-5V6z"/></svg>