<?xml version="1.0" encoding="utf-8"?>
<!-- Generator: Adobe Illustrator 22.0.1, SVG Export Plug-In . SVG Version: 6.00 Build 0)  -->
<svg version="1.1" id="Layer_1" xmlns="http://www.w3.org/2000/svg" xmlns:xlink="http://www.w3.org/1999/xlink" x="0px" y="0px"
	 viewBox="0 0 31 22.6" style="enable-background:new 0 0 31 22.6;" xml:space="preserve">
<style type="text/css">
	.st0{clip-path:url(#SVGID_2_);fill:#4753A4;}
	.st1{fill:none;stroke:#4753A4;stroke-width:0.5;stroke-miterlimit:10;}
	.st2{clip-path:url(#SVGID_4_);fill:#4753A4;}
	.st3{clip-path:url(#SVGID_6_);fill:#4753A4;}
	.st4{clip-path:url(#SVGID_8_);fill:#4753A4;}
	.st5{clip-path:url(#SVGID_10_);fill:#ED3749;}
	.st6{fill:none;stroke:#ED3749;stroke-width:0.5;stroke-miterlimit:10;}
	.st7{clip-path:url(#SVGID_12_);fill:#ED3749;}
	.st8{clip-path:url(#SVGID_14_);fill:#ED3749;}
	.st9{clip-path:url(#SVGID_16_);fill:#ED3749;}
	.st10{clip-path:url(#SVGID_18_);fill:#4CBFAA;}
	.st11{fill:none;stroke:#4CBFAA;stroke-width:0.5;stroke-miterlimit:10;}
	.st12{clip-path:url(#SVGID_20_);fill:#4CBFAA;}
	.st13{clip-path:url(#SVGID_22_);fill:#4CBFAA;}
	.st14{clip-path:url(#SVGID_24_);fill:none;stroke:#4CBFAA;stroke-width:2;stroke-miterlimit:10;}
	.st15{fill:#010101;}
	.st16{fill:none;stroke:#000000;stroke-linecap:round;stroke-linejoin:round;stroke-miterlimit:10;}
	.st17{fill:none;stroke:#ED3648;stroke-width:1.5;stroke-linecap:round;stroke-linejoin:round;stroke-miterlimit:10;}
	.st18{fill:none;stroke:#ED3648;stroke-width:1.25;stroke-linecap:round;stroke-linejoin:round;stroke-miterlimit:10;}
	.st19{fill:none;stroke:#4CBFA9;stroke-width:1.5;stroke-linecap:round;stroke-linejoin:round;stroke-miterlimit:10;}
	.st20{fill:none;stroke:#4CBFA9;stroke-width:1.25;stroke-linecap:round;stroke-linejoin:round;stroke-miterlimit:10;}
	.st21{fill:none;stroke:#4652A4;stroke-width:1.5;stroke-linecap:round;stroke-linejoin:round;stroke-miterlimit:10;}
	.st22{fill:none;stroke:#4652A4;stroke-width:1.25;stroke-linecap:round;stroke-linejoin:round;stroke-miterlimit:10;}
	.st23{fill:#ED3648;}
	.st24{fill:#4652A4;}
	.st25{fill:#4CBFA9;}
</style>
<g>
	<path d="M29.5,0h-28C0.7,0,0,0.7,0,1.5v19.6c0,0.8,0.7,1.5,1.5,1.5h28c0.8,0,1.5-0.7,1.5-1.5V1.5C31,0.7,30.3,0,29.5,0z M30,21.1
		c0,0.3-0.2,0.5-0.5,0.5h-28c-0.3,0-0.5-0.2-0.5-0.5V1.5C1,1.2,1.2,1,1.5,1h28C29.8,1,30,1.2,30,1.5V21.1z"/>
	<path d="M27.7,2L15.8,12.2c-0.2,0.2-0.4,0.2-0.6,0L3.3,2C3.1,1.8,2.8,1.8,2.6,2C2.5,2.3,2.5,2.6,2.7,2.8l11.8,10.1
		c0.3,0.3,0.7,0.4,1,0.4c0.4,0,0.7-0.1,1-0.4L28.3,2.8c0.2-0.2,0.2-0.5,0.1-0.7C28.2,1.8,27.9,1.8,27.7,2z"/>
	<path d="M20.1,12.8c-0.2-0.2-0.5-0.2-0.7,0.1c-0.2,0.2-0.2,0.5,0.1,0.7l8.2,7c0.1,0.1,0.2,0.1,0.3,0.1c0.1,0,0.3-0.1,0.4-0.2
		c0.2-0.2,0.2-0.5-0.1-0.7L20.1,12.8z"/>
	<path d="M10.9,12.8l-8.2,7c-0.2,0.2-0.2,0.5-0.1,0.7c0.1,0.1,0.2,0.2,0.4,0.2c0.1,0,0.2,0,0.3-0.1l8.2-7c0.2-0.2,0.2-0.5,0.1-0.7
		C11.4,12.6,11.1,12.6,10.9,12.8z"/>
</g>
</svg>
