<?xml version="1.0" encoding="UTF-8"?><svg id="Layer_1" xmlns="http://www.w3.org/2000/svg" viewBox="0 0 137.87 176.21"><defs><style>.cls-1{fill:#f6d561;}</style></defs><g><path class="cls-1" d="m68.93,6.35c-1.59,0-2.99.84-3.75,2.24L10.45,110.47c-.73,1.35-.69,2.88.1,4.2s2.12,2.07,3.65,2.07h109.47c1.53,0,2.86-.75,3.65-2.07s.82-2.85.1-4.2L72.68,8.6c-.75-1.4-2.15-2.24-3.75-2.24Z"/><path d="m61.56,95.44c0-4.79,3.45-8.48,8.11-8.48s8.11,3.69,8.11,8.48-3.45,8.45-8.11,8.45-8.11-3.69-8.11-8.45Zm1.83-42.46l-.45-12.15h13.47l-.45,12.15-1.87,27.96h-8.82l-1.87-27.96Z"/><path d="m123.67,122.73H14.2c-3.64,0-6.93-1.87-8.8-4.99-1.87-3.12-1.96-6.9-.23-10.11L59.9,5.76c1.79-3.33,5.25-5.4,9.03-5.4s7.24,2.07,9.03,5.4l54.74,101.87c1.72,3.21,1.64,6.99-.23,10.11-1.87,3.12-5.16,4.99-8.8,4.99ZM68.93,6.35c-1.59,0-2.99.84-3.75,2.24L10.45,110.47c-.73,1.35-.69,2.88.1,4.2s2.12,2.07,3.65,2.07h109.47c1.53,0,2.86-.75,3.65-2.07s.82-2.85.1-4.2L72.68,8.6c-.75-1.4-2.15-2.24-3.75-2.24Z"/></g><g><path d="m4.75,138.6l-1.75-1.01,1.66-2.53-2.99.16v-2l3.01.18-1.66-2.55,1.75-1.01,1.4,2.9,1.38-2.9,1.75,1.04-1.66,2.53,3.01-.18v2l-3.01-.16,1.66,2.53-1.75,1.01-1.4-2.92-1.4,2.92Z"/><path d="m13.12,146.38v-16.21h7.04c1.78,0,3.15.44,4.12,1.33s1.45,2.13,1.45,3.73-.48,2.84-1.45,3.74c-.97.9-2.34,1.35-4.12,1.35h-4.09v6.07h-2.94Zm2.94-8.39h3.63c2.12,0,3.17-.92,3.17-2.76s-1.06-2.74-3.17-2.74h-3.63v5.5Z"/><path d="m27.61,146.38v-11.25h2.81v1.98c.55-1.33,1.73-2.07,3.54-2.21l.87-.07.18,2.44-1.66.16c-1.89.18-2.83,1.15-2.83,2.9v6.05h-2.92Z"/><path d="m36.45,132.71v-2.81h3.22v2.81h-3.22Zm.18,13.66v-11.25h2.88v11.25h-2.88Z"/><path d="m45.81,146.38l-4.88-11.25h3.06l3.13,7.87,3.24-7.87h2.88l-4.95,11.25h-2.48Z"/><path d="m58.09,146.61c-.81,0-1.54-.16-2.17-.47-.64-.31-1.13-.74-1.5-1.28-.36-.54-.54-1.14-.54-1.82,0-.83.21-1.48.64-1.97.43-.48,1.13-.83,2.09-1.05.97-.21,2.26-.32,3.89-.32h.8v-.48c0-.77-.17-1.32-.51-1.66s-.91-.51-1.7-.51c-.63,0-1.27.1-1.93.29-.66.19-1.33.49-2,.89l-.83-1.96c.4-.28.87-.52,1.41-.72s1.12-.37,1.73-.48c.61-.12,1.18-.17,1.71-.17,1.64,0,2.86.38,3.66,1.14.8.76,1.2,1.94,1.2,3.53v6.81h-2.69v-1.79c-.26.63-.67,1.12-1.24,1.48s-1.24.54-2.02.54Zm.6-1.98c.75,0,1.38-.26,1.88-.78.5-.52.75-1.18.75-1.98v-.51h-.78c-1.44,0-2.44.11-3,.33-.56.22-.84.62-.84,1.21,0,.51.18.92.53,1.24.35.32.84.48,1.47.48Z"/><path d="m72.16,146.61c-1.18,0-2.21-.24-3.08-.72-.87-.48-1.55-1.17-2.02-2.06s-.71-1.93-.71-3.13.24-2.23.71-3.09,1.15-1.53,2.02-2,1.9-.7,3.08-.7c.72,0,1.43.11,2.14.34.71.23,1.29.55,1.75.97l-.85,2c-.4-.35-.85-.62-1.34-.8-.5-.18-.98-.28-1.44-.28-1,0-1.77.31-2.31.93-.54.62-.82,1.51-.82,2.66s.27,2.03.82,2.68c.54.65,1.31.98,2.31.98.44,0,.92-.09,1.43-.28.51-.18.96-.46,1.36-.83l.85,2.02c-.46.4-1.05.72-1.76.95-.71.24-1.42.36-2.13.36Z"/><path d="m79.02,150.52l2.07-4.6-4.67-10.79h3.06l3.15,7.87,3.22-7.87h2.9l-6.76,15.39h-2.97Z"/><path d="m96.59,146.38v-16.21h2.21l8.72,11.32v-11.32h2.74v16.21h-2.18l-8.74-11.36v11.36h-2.74Z"/><path d="m118.65,146.61c-1.17,0-2.18-.24-3.04-.71-.86-.47-1.53-1.15-2-2.04s-.71-1.92-.71-3.12.24-2.23.71-3.11,1.14-1.55,2-2.02,1.87-.71,3.04-.71,2.18.24,3.04.71c.86.48,1.53,1.15,2,2.02.47.87.71,1.91.71,3.11s-.24,2.23-.71,3.12c-.48.88-1.14,1.56-2,2.04-.86.48-1.87.71-3.04.71Zm0-2.19c.86,0,1.55-.31,2.07-.93.52-.62.78-1.54.78-2.75s-.26-2.14-.78-2.75c-.52-.61-1.21-.91-2.07-.91s-1.55.3-2.07.91c-.52.61-.78,1.52-.78,2.75s.26,2.13.78,2.75,1.21.93,2.07.93Z"/><path d="m131.8,146.61c-2.98,0-4.46-1.47-4.46-4.42v-4.9h-2.16v-2.16h2.16v-3.36h2.88v3.36h3.4v2.16h-3.4v4.74c0,.74.16,1.29.48,1.66.32.37.84.55,1.56.55.21,0,.44-.03.67-.08.23-.05.47-.11.71-.17l.44,2.12c-.28.15-.62.28-1.05.37-.42.09-.83.14-1.23.14Z"/><path d="m23.96,170.38v-16.21h2.94v16.21h-2.94Z"/><path d="m30.14,170.38v-11.25h2.81v1.75c.38-.64.9-1.13,1.55-1.47.65-.34,1.38-.51,2.2-.51,2.65,0,3.98,1.54,3.98,4.62v6.85h-2.88v-6.72c0-.87-.17-1.51-.5-1.91-.33-.4-.84-.6-1.53-.6-.84,0-1.51.26-2.01.79s-.75,1.23-.75,2.1v6.33h-2.88Z"/><path d="m48.8,170.61c-1.18,0-2.21-.24-3.08-.72-.87-.48-1.55-1.17-2.02-2.06s-.71-1.93-.71-3.13.24-2.23.71-3.09,1.15-1.53,2.02-2,1.9-.7,3.08-.7c.72,0,1.43.11,2.14.34.71.23,1.29.55,1.75.97l-.85,2c-.4-.35-.85-.62-1.34-.8-.5-.18-.98-.28-1.44-.28-1,0-1.77.31-2.31.93-.54.62-.82,1.51-.82,2.66s.27,2.03.82,2.68c.54.65,1.31.98,2.31.98.44,0,.92-.09,1.43-.28.51-.18.96-.46,1.36-.83l.85,2.02c-.46.4-1.05.72-1.76.95-.71.24-1.42.36-2.13.36Z"/><path d="m58.37,170.61c-1.33,0-2.32-.36-2.96-1.09-.64-.73-.95-1.8-.95-3.21v-12.14h2.88v12.01c0,1.38.58,2.07,1.75,2.07.17,0,.34,0,.51-.02.17-.01.33-.05.48-.09l-.05,2.28c-.55.14-1.1.21-1.66.21Z"/><path d="m65.86,170.61c-2.76,0-4.14-1.55-4.14-4.65v-6.83h2.88v6.88c0,.8.16,1.39.48,1.77.32.38.83.57,1.54.57.77,0,1.39-.26,1.89-.79.49-.53.74-1.23.74-2.1v-6.33h2.88v11.25h-2.81v-1.68c-.75,1.27-1.9,1.91-3.45,1.91Z"/><path d="m79.43,170.61c-.98,0-1.84-.24-2.59-.71-.74-.47-1.32-1.15-1.74-2.04s-.62-1.92-.62-3.12.21-2.25.62-3.12c.41-.87.99-1.54,1.74-2.01.74-.48,1.61-.71,2.59-.71.8,0,1.52.18,2.16.53.64.35,1.13.82,1.45,1.4v-6.67h2.88v16.21h-2.81v-1.86c-.31.64-.79,1.15-1.45,1.53-.66.38-1.4.56-2.23.56Zm.8-2.19c.86,0,1.55-.31,2.07-.93.52-.62.78-1.54.78-2.75s-.26-2.14-.78-2.75c-.52-.61-1.21-.91-2.07-.91s-1.55.3-2.07.91c-.52.61-.78,1.52-.78,2.75s.26,2.13.78,2.75,1.21.93,2.07.93Z"/><path d="m94.45,170.61c-1.27,0-2.37-.24-3.29-.71-.92-.47-1.63-1.15-2.13-2.02s-.75-1.91-.75-3.11.24-2.18.72-3.06c.48-.87,1.15-1.56,2-2.06.85-.5,1.82-.75,2.91-.75,1.59,0,2.86.51,3.78,1.52.93,1.01,1.39,2.39,1.39,4.14v.85h-8.05c.21,2.01,1.37,3.01,3.45,3.01.63,0,1.26-.1,1.89-.29s1.2-.5,1.73-.91l.8,1.93c-.54.44-1.21.8-2.02,1.06s-1.62.39-2.44.39Zm-.41-9.75c-.84,0-1.53.26-2.05.78s-.84,1.23-.94,2.12h5.66c-.06-.94-.32-1.65-.77-2.15s-1.08-.75-1.9-.75Z"/><path d="m105.7,170.61c-.98,0-1.84-.24-2.59-.71-.74-.47-1.32-1.15-1.74-2.04s-.62-1.92-.62-3.12.21-2.25.62-3.12c.41-.87.99-1.54,1.74-2.01.74-.48,1.61-.71,2.59-.71.8,0,1.52.18,2.16.53.64.35,1.13.82,1.45,1.4v-6.67h2.88v16.21h-2.81v-1.86c-.31.64-.79,1.15-1.45,1.53-.66.38-1.4.56-2.23.56Zm.8-2.19c.86,0,1.55-.31,2.07-.93.52-.62.78-1.54.78-2.75s-.26-2.14-.78-2.75c-.52-.61-1.21-.91-2.07-.91s-1.55.3-2.07.91c-.52.61-.78,1.52-.78,2.75s.26,2.13.78,2.75,1.21.93,2.07.93Z"/></g></svg>