<svg id="Layer_1" data-name="Layer 1" xmlns="http://www.w3.org/2000/svg" viewBox="0 0 136.99 176.21"><defs><style>.cls-1{fill:#f6d561;}</style></defs><path class="cls-1" d="M69,6a4.21,4.21,0,0,0-3.75,2.24L10.56,110.11a4.25,4.25,0,0,0,3.74,6.27H123.78a4.25,4.25,0,0,0,3.74-6.27L72.79,8.24A4.21,4.21,0,0,0,69,6Z"/><path d="M61.67,95.09a8.12,8.12,0,1,1,8.11,8.44A8.12,8.12,0,0,1,61.67,95.09Zm1.82-42.47L63,40.47H76.52l-.46,12.15-1.87,28H65.37Z"/><path d="M123.78,122.38H14.3a10.25,10.25,0,0,1-9-15.11L60,5.4a10.25,10.25,0,0,1,18.06,0l54.74,101.87a10.26,10.26,0,0,1-9,15.11ZM69,6a4.21,4.21,0,0,0-3.75,2.24L10.56,110.11a4.25,4.25,0,0,0,3.74,6.27H123.78a4.25,4.25,0,0,0,3.74-6.27L72.79,8.24A4.21,4.21,0,0,0,69,6Z"/><path d="M9.68,132.89v2l-3-.16,1.66,2.53-1.75,1L5.2,135.58l-1.38,2.69-1.73-1,1.66-2.55-3,.16v-2l3,.16-1.66-2.56,1.73-1,1.38,2.71,1.38-2.71,1.75,1-1.66,2.53Z"/><path d="M20.94,135.23a4.89,4.89,0,0,1,1.77,2.08,7.24,7.24,0,0,1,.63,3.1,7,7,0,0,1-.63,3.06,4.64,4.64,0,0,1-4.36,2.73,4.56,4.56,0,0,1-2.14-.5,3.56,3.56,0,0,1-1.44-1.41v5.87H11.89V134.77h2.83v1.7A3.54,3.54,0,0,1,16.18,135a4.55,4.55,0,0,1,2.17-.52A4.67,4.67,0,0,1,20.94,135.23ZM19.71,143a4,4,0,0,0,.76-2.63,4.29,4.29,0,0,0-.76-2.72,2.55,2.55,0,0,0-2.12-1,2.53,2.53,0,0,0-2.12.94,5.16,5.16,0,0,0,0,5.36,2.53,2.53,0,0,0,2.12.94A2.59,2.59,0,0,0,19.71,143Z"/><path d="M33.12,136.89l-1.68.16c-1.9.2-2.85,1.16-2.85,2.9V146H25.71V134.77h2.74v2a3.82,3.82,0,0,1,3.61-2.21l.88-.07Z"/><path d="M34.36,129.55h3.18v2.83H34.36ZM34.52,146V134.77H37.4V146Z"/><path d="M48.25,134.79h2.83L46.16,146H43.65l-4.87-11.23h3L45,142.73Z"/><path d="M60.65,135.64a4.83,4.83,0,0,1,1.15,3.55V146H59.06v-1.73a3,3,0,0,1-1.23,1.41,3.76,3.76,0,0,1-1.94.5,4.51,4.51,0,0,1-2-.46,3.71,3.71,0,0,1-1.45-1.26,3.24,3.24,0,0,1-.53-1.8,2.78,2.78,0,0,1,.64-2,3.78,3.78,0,0,1,2-1,19.17,19.17,0,0,1,3.94-.32h.57v-.53a2.29,2.29,0,0,0-.49-1.65,2.23,2.23,0,0,0-1.65-.51,6.1,6.1,0,0,0-1.87.31,9.59,9.59,0,0,0-1.92.86l-.81-2a8.9,8.9,0,0,1,2.28-1,9,9,0,0,1,2.53-.4A4.83,4.83,0,0,1,60.65,135.64Zm-2.31,7.72a2.78,2.78,0,0,0,.72-2v-.48h-.41a16,16,0,0,0-2.39.14,2.28,2.28,0,0,0-1.22.48,1.21,1.21,0,0,0-.37.94,1.57,1.57,0,0,0,.51,1.21,1.76,1.76,0,0,0,1.28.47A2.44,2.44,0,0,0,58.34,143.36Z"/><path d="M66.78,145.49a4.84,4.84,0,0,1-2-2,7.08,7.08,0,0,1,0-6.16,5.16,5.16,0,0,1,2.06-2.08,6.29,6.29,0,0,1,3.08-.74,7.45,7.45,0,0,1,2.34.38,5,5,0,0,1,1.83,1l-.83,2a5.63,5.63,0,0,0-1.51-.87,4.41,4.41,0,0,0-1.57-.3,3,3,0,0,0-2.33.93,4.76,4.76,0,0,0,0,5.34,3,3,0,0,0,2.33.93,4.41,4.41,0,0,0,1.57-.3,5.41,5.41,0,0,0,1.51-.88l.83,2a5.19,5.19,0,0,1-1.89,1,7.38,7.38,0,0,1-2.39.38A6.36,6.36,0,0,1,66.78,145.49Z"/><path d="M83.83,134.79h2.83L79.9,150.16H77l2-4.58-4.69-10.79h3l3.18,7.94Z"/><path d="M103.82,135.64a5.24,5.24,0,0,1,1,3.48V146h-2.88v-6.74a3,3,0,0,0-.49-1.91,1.9,1.9,0,0,0-1.55-.6,2.61,2.61,0,0,0-2,.78,2.92,2.92,0,0,0-.75,2.1V146H94.27V134.77h2.81v1.68A3.9,3.9,0,0,1,98.62,135a4.62,4.62,0,0,1,2.19-.51A3.77,3.77,0,0,1,103.82,135.64Z"/><path d="M107.57,129.55h3.17v2.83h-3.17Zm.16,16.47V134.77h2.87V146Z"/><path d="M123.44,140.91h-7.66a3.5,3.5,0,0,0,.94,2.32,3.22,3.22,0,0,0,2.3.76,5.43,5.43,0,0,0,3.41-1.19l.82,2a6,6,0,0,1-2,1,7.6,7.6,0,0,1-2.38.39,6,6,0,0,1-4.36-1.56,5.69,5.69,0,0,1-1.6-4.28,6.57,6.57,0,0,1,.69-3.06,5,5,0,0,1,1.94-2.07,5.54,5.54,0,0,1,2.84-.74,4.67,4.67,0,0,1,3.67,1.5,5.93,5.93,0,0,1,1.35,4.12Zm-6.8-3.65a3.56,3.56,0,0,0-.86,2.11H121a3.3,3.3,0,0,0-.69-2.13,2.29,2.29,0,0,0-1.8-.72A2.42,2.42,0,0,0,116.64,137.26Z"/><path d="M132.43,144l-.14,2.14a11.65,11.65,0,0,1-1.26.07,4.91,4.91,0,0,1-3.5-1.09,4.36,4.36,0,0,1-1.12-3.26v-4.9h-2.17v-2.16h2.17v-3.36h2.87v3.36h3v2.16h-3v4.86c0,1.5.7,2.25,2.09,2.25A7.86,7.86,0,0,0,132.43,144Z"/><path d="M10.41,153.55h3.17v2.83H10.41ZM10.57,170V158.77h2.87V170Z"/><path d="M26,159.64a5.29,5.29,0,0,1,1,3.48V170H24.07v-6.74a3,3,0,0,0-.5-1.91,1.87,1.87,0,0,0-1.55-.6,2.63,2.63,0,0,0-2,.78,2.91,2.91,0,0,0-.74,2.1V170H16.41V158.77h2.81v1.68A3.84,3.84,0,0,1,20.76,159a4.58,4.58,0,0,1,2.18-.51A3.8,3.8,0,0,1,26,159.64Z"/><path d="M38.93,159.21a4.84,4.84,0,0,1,1.76,2,7,7,0,0,1,.63,3.06,7.16,7.16,0,0,1-.63,3.09,5,5,0,0,1-1.77,2.09,4.69,4.69,0,0,1-2.59.73,4.37,4.37,0,0,1-2.18-.53,3.63,3.63,0,0,1-1.46-1.47V170H29.87V153.8h2.87v6.6A3.46,3.46,0,0,1,34.19,159a4.53,4.53,0,0,1,2.14-.5A4.73,4.73,0,0,1,38.93,159.21ZM37.69,167a4.36,4.36,0,0,0,.75-2.72,4.13,4.13,0,0,0-.74-2.64,2.91,2.91,0,0,0-4.26,0,4.17,4.17,0,0,0-.75,2.68,4.24,4.24,0,0,0,.75,2.69,2.85,2.85,0,0,0,4.25,0Z"/><path d="M53.56,164.91H45.9a3.45,3.45,0,0,0,.94,2.32,3.21,3.21,0,0,0,2.3.76,5.38,5.38,0,0,0,3.4-1.19l.83,2a6.06,6.06,0,0,1-2,1,7.62,7.62,0,0,1-2.39.39,5.94,5.94,0,0,1-4.35-1.56,5.69,5.69,0,0,1-1.6-4.28,6.57,6.57,0,0,1,.69-3.06,5,5,0,0,1,1.94-2.07,5.52,5.52,0,0,1,2.84-.74,4.68,4.68,0,0,1,3.67,1.5,5.93,5.93,0,0,1,1.35,4.12Zm-6.8-3.65a3.5,3.5,0,0,0-.86,2.11h5.19a3.3,3.3,0,0,0-.69-2.13,2.27,2.27,0,0,0-1.79-.72A2.4,2.4,0,0,0,46.76,161.26Z"/><path d="M66.85,158.77V169a5.19,5.19,0,0,1-1.46,4,6.09,6.09,0,0,1-4.31,1.36,10.13,10.13,0,0,1-2.83-.38,7.81,7.81,0,0,1-2.37-1.07l.8-2A8.3,8.3,0,0,0,61,172.13c2,0,3-1,3-2.94v-1.47a3.57,3.57,0,0,1-1.47,1.46,4.68,4.68,0,0,1-2.21.52,4.86,4.86,0,0,1-2.61-.71,4.79,4.79,0,0,1-1.79-2,6.47,6.47,0,0,1-.64-2.92,6.58,6.58,0,0,1,.63-2.94,4.63,4.63,0,0,1,1.79-2,4.9,4.9,0,0,1,2.62-.71,4.68,4.68,0,0,1,2.21.52A3.57,3.57,0,0,1,64,160.47v-1.7Zm-3.62,7.8a3.68,3.68,0,0,0,.77-2.46,3.73,3.73,0,0,0-.77-2.49,3,3,0,0,0-4.29,0,4.3,4.3,0,0,0,0,4.94,3,3,0,0,0,4.29,0Z"/><path d="M77.22,160.89l-1.68.16c-1.9.2-2.85,1.16-2.85,2.9V170H69.82V158.77h2.73v2a3.83,3.83,0,0,1,3.61-2.21l.88-.07Z"/><path d="M88.26,164.91H80.6a3.51,3.51,0,0,0,1,2.32,3.19,3.19,0,0,0,2.3.76,5.4,5.4,0,0,0,3.4-1.19l.83,2a6,6,0,0,1-2,1,7.56,7.56,0,0,1-2.38.39,6,6,0,0,1-4.36-1.56,5.73,5.73,0,0,1-1.6-4.28,6.57,6.57,0,0,1,.69-3.06,5,5,0,0,1,2-2.07,5.49,5.49,0,0,1,2.84-.74,4.68,4.68,0,0,1,3.67,1.5,6,6,0,0,1,1.34,4.12Zm-6.79-3.65a3.56,3.56,0,0,0-.87,2.11h5.2a3.3,3.3,0,0,0-.69-2.13,2.28,2.28,0,0,0-1.79-.72A2.39,2.39,0,0,0,81.47,161.26Z"/><path d="M99.66,159.23a4.89,4.89,0,0,1,1.77,2.08,7.24,7.24,0,0,1,.63,3.1,7,7,0,0,1-.63,3.06,4.64,4.64,0,0,1-4.36,2.73,4.53,4.53,0,0,1-2.14-.5,3.58,3.58,0,0,1-1.45-1.41v5.87H90.61V158.77h2.83v1.7A3.48,3.48,0,0,1,94.9,159a4.52,4.52,0,0,1,2.17-.52A4.67,4.67,0,0,1,99.66,159.23ZM98.43,167a4.1,4.1,0,0,0,.76-2.63,4.36,4.36,0,0,0-.76-2.72,2.85,2.85,0,0,0-4.25,0,5.22,5.22,0,0,0,0,5.36,2.56,2.56,0,0,0,2.13.94A2.59,2.59,0,0,0,98.43,167Z"/><path d="M114.3,164.91h-7.66a3.5,3.5,0,0,0,.94,2.32,3.22,3.22,0,0,0,2.3.76,5.43,5.43,0,0,0,3.41-1.19l.82,2a6,6,0,0,1-2,1,7.6,7.6,0,0,1-2.38.39,6,6,0,0,1-4.36-1.56,5.69,5.69,0,0,1-1.6-4.28,6.57,6.57,0,0,1,.69-3.06,5,5,0,0,1,1.94-2.07,5.54,5.54,0,0,1,2.84-.74A4.67,4.67,0,0,1,113,160a5.93,5.93,0,0,1,1.35,4.12Zm-6.8-3.65a3.56,3.56,0,0,0-.86,2.11h5.2a3.3,3.3,0,0,0-.69-2.13,2.29,2.29,0,0,0-1.8-.72A2.42,2.42,0,0,0,107.5,161.26Z"/><path d="M126.19,159.64a5.24,5.24,0,0,1,1,3.48V170H124.3v-6.74a3,3,0,0,0-.49-1.91,1.9,1.9,0,0,0-1.55-.6,2.61,2.61,0,0,0-2,.78,2.92,2.92,0,0,0-.75,2.1V170h-2.88V158.77h2.81v1.68A3.9,3.9,0,0,1,121,159a4.62,4.62,0,0,1,2.19-.51A3.77,3.77,0,0,1,126.19,159.64Z"/></svg>