<svg id="Layer_1" data-name="Layer 1" xmlns="http://www.w3.org/2000/svg" viewBox="0 0 136.31 176.21"><defs><style>.cls-1{fill:#f6d561;}</style></defs><path class="cls-1" d="M67.35,6a4.19,4.19,0,0,0-3.74,2.24L8.87,110.11a4.26,4.26,0,0,0,3.75,6.27H122.09a4.26,4.26,0,0,0,3.75-6.27L71.1,8.24A4.19,4.19,0,0,0,67.35,6Z"/><path d="M60,95.09a8.12,8.12,0,1,1,8.11,8.44A8.13,8.13,0,0,1,60,95.09Zm1.83-42.47-.45-12.15H74.83l-.45,12.15-1.87,28H63.68Z"/><path d="M122.09,122.38H12.62a10.25,10.25,0,0,1-9-15.11L58.33,5.4a10.24,10.24,0,0,1,18,0l54.74,101.87a10.25,10.25,0,0,1-9,15.11ZM67.35,6a4.19,4.19,0,0,0-3.74,2.24L8.87,110.11a4.26,4.26,0,0,0,3.75,6.27H122.09a4.26,4.26,0,0,0,3.75-6.27L71.1,8.24A4.19,4.19,0,0,0,67.35,6Z"/><path d="M11.92,132.89v2l-3-.16,1.65,2.53-1.74,1-1.38-2.71-1.38,2.69-1.73-1L6,134.73l-3,.16v-2l3,.16-1.66-2.56,1.73-1,1.38,2.71,1.38-2.71,1.74,1-1.65,2.53Z"/><path d="M23.18,135.23A4.89,4.89,0,0,1,25,137.31a7.24,7.24,0,0,1,.63,3.1,7,7,0,0,1-.63,3.06,4.64,4.64,0,0,1-4.36,2.73,4.53,4.53,0,0,1-2.14-.5A3.58,3.58,0,0,1,17,144.29v5.87H14.13V134.77H17v1.7A3.48,3.48,0,0,1,18.42,135a4.52,4.52,0,0,1,2.17-.52A4.67,4.67,0,0,1,23.18,135.23ZM22,143a4.1,4.1,0,0,0,.76-2.63,4.36,4.36,0,0,0-.76-2.72,2.55,2.55,0,0,0-2.12-1,2.56,2.56,0,0,0-2.13.94,5.22,5.22,0,0,0,0,5.36,2.56,2.56,0,0,0,2.13.94A2.59,2.59,0,0,0,22,143Z"/><path d="M35.36,136.89l-1.68.16c-1.9.2-2.85,1.16-2.85,2.9V146H28V134.77h2.74v2a3.81,3.81,0,0,1,3.61-2.21l.87-.07Z"/><path d="M36.6,129.55h3.17v2.83H36.6ZM36.76,146V134.77h2.87V146Z"/><path d="M50.49,134.79h2.83L48.4,146H45.89L41,134.79h3l3.17,7.94Z"/><path d="M62.89,135.64A4.87,4.87,0,0,1,64,139.19V146H61.3v-1.73a3,3,0,0,1-1.23,1.41,3.76,3.76,0,0,1-1.94.5,4.45,4.45,0,0,1-2.05-.46,3.64,3.64,0,0,1-1.45-1.26,3.24,3.24,0,0,1-.53-1.8,2.82,2.82,0,0,1,.63-2,3.81,3.81,0,0,1,2.06-1,19.06,19.06,0,0,1,3.93-.32h.58v-.53a2.34,2.34,0,0,0-.49-1.65,2.23,2.23,0,0,0-1.65-.51,6,6,0,0,0-1.87.31,9.12,9.12,0,0,0-1.92.86l-.81-2a8.9,8.9,0,0,1,2.28-1,9,9,0,0,1,2.53-.4A4.83,4.83,0,0,1,62.89,135.64Zm-2.32,7.72a2.74,2.74,0,0,0,.73-2v-.48h-.41a16.21,16.21,0,0,0-2.4.14,2.28,2.28,0,0,0-1.21.48,1.21,1.21,0,0,0-.37.94,1.56,1.56,0,0,0,.5,1.21,1.8,1.8,0,0,0,1.29.47A2.42,2.42,0,0,0,60.57,143.36Z"/><path d="M69,145.49a4.84,4.84,0,0,1-2-2,7.08,7.08,0,0,1,0-6.16,5.09,5.09,0,0,1,2.06-2.08,6.29,6.29,0,0,1,3.08-.74,7.45,7.45,0,0,1,2.34.38,5,5,0,0,1,1.82,1l-.82,2a5.63,5.63,0,0,0-1.51-.87,4.42,4.42,0,0,0-1.58-.3,3,3,0,0,0-2.32.93,4.71,4.71,0,0,0,0,5.34,3,3,0,0,0,2.32.93,4.42,4.42,0,0,0,1.58-.3,5.41,5.41,0,0,0,1.51-.88l.82,2a5.22,5.22,0,0,1-1.88,1,7.43,7.43,0,0,1-2.39.38A6.33,6.33,0,0,1,69,145.49Z"/><path d="M86.07,134.79H88.9l-6.76,15.37h-2.9l2.05-4.58-4.7-10.79h3l3.17,7.94Z"/><path d="M106.06,135.64a5.24,5.24,0,0,1,1,3.48V146h-2.88v-6.74a3,3,0,0,0-.49-1.91,1.91,1.91,0,0,0-1.56-.6,2.64,2.64,0,0,0-2,.78,3,3,0,0,0-.74,2.1V146H96.51V134.77h2.81v1.68a3.9,3.9,0,0,1,1.54-1.45,4.58,4.58,0,0,1,2.18-.51A3.8,3.8,0,0,1,106.06,135.64Z"/><path d="M119.83,140.91h-7.65a3.45,3.45,0,0,0,.94,2.32,3.19,3.19,0,0,0,2.3.76,5.4,5.4,0,0,0,3.4-1.19l.83,2a6,6,0,0,1-2,1,7.56,7.56,0,0,1-2.38.39,6,6,0,0,1-4.36-1.56,5.73,5.73,0,0,1-1.59-4.28,6.57,6.57,0,0,1,.69-3.06,5,5,0,0,1,1.94-2.07,5.52,5.52,0,0,1,2.84-.74,4.68,4.68,0,0,1,3.67,1.5,5.93,5.93,0,0,1,1.34,4.12ZM113,137.26a3.5,3.5,0,0,0-.86,2.11h5.19a3.3,3.3,0,0,0-.69-2.13,2.27,2.27,0,0,0-1.79-.72A2.4,2.4,0,0,0,113,137.26Z"/><path d="M128.83,144l-.14,2.14a11.65,11.65,0,0,1-1.26.07,4.91,4.91,0,0,1-3.5-1.09,4.36,4.36,0,0,1-1.13-3.26v-4.9h-2.16v-2.16h2.16v-3.36h2.88v3.36h3v2.16h-3v4.86c0,1.5.69,2.25,2.09,2.25A7.86,7.86,0,0,0,128.83,144Z"/><path d="M14.65,158.79h2.82l-6.76,15.37H7.81l2.05-4.58L5.17,158.79h3l3.17,7.94Z"/><path d="M28.4,159.64a5.24,5.24,0,0,1,1,3.48V170H26.51v-6.74a3,3,0,0,0-.49-1.91,1.9,1.9,0,0,0-1.55-.6,2.61,2.61,0,0,0-2,.78,2.92,2.92,0,0,0-.75,2.1V170H18.85V158.77h2.81v1.68A3.9,3.9,0,0,1,23.2,159a4.62,4.62,0,0,1,2.19-.51A3.79,3.79,0,0,1,28.4,159.64Z"/><path d="M41.37,159.21a4.77,4.77,0,0,1,1.76,2,7,7,0,0,1,.63,3.06,7.16,7.16,0,0,1-.63,3.09,4.86,4.86,0,0,1-1.77,2.09,4.66,4.66,0,0,1-2.59.73,4.31,4.31,0,0,1-2.17-.53,3.57,3.57,0,0,1-1.46-1.47V170H32.31V153.8h2.87v6.6A3.46,3.46,0,0,1,36.63,159a4.53,4.53,0,0,1,2.14-.5A4.73,4.73,0,0,1,41.37,159.21ZM40.13,167a4.29,4.29,0,0,0,.76-2.72,4.07,4.07,0,0,0-.75-2.64,2.57,2.57,0,0,0-2.13-.92,2.55,2.55,0,0,0-2.12.93,4.17,4.17,0,0,0-.75,2.68,4.24,4.24,0,0,0,.75,2.69A2.53,2.53,0,0,0,38,168,2.55,2.55,0,0,0,40.13,167Z"/><path d="M56,164.91H48.34a3.5,3.5,0,0,0,.94,2.32,3.22,3.22,0,0,0,2.3.76A5.41,5.41,0,0,0,55,166.8l.83,2a6.11,6.11,0,0,1-2,1,7.56,7.56,0,0,1-2.38.39,6,6,0,0,1-4.36-1.56,5.69,5.69,0,0,1-1.6-4.28,6.57,6.57,0,0,1,.69-3.06,5,5,0,0,1,1.95-2.07,5.48,5.48,0,0,1,2.83-.74,4.67,4.67,0,0,1,3.67,1.5A5.93,5.93,0,0,1,56,164.11Zm-6.8-3.65a3.56,3.56,0,0,0-.86,2.11h5.2a3.3,3.3,0,0,0-.69-2.13,2.29,2.29,0,0,0-1.8-.72A2.42,2.42,0,0,0,49.2,161.26Z"/><path d="M69.29,158.77V169a5.15,5.15,0,0,1-1.46,4,6.09,6.09,0,0,1-4.31,1.36,10.23,10.23,0,0,1-2.83-.38,8,8,0,0,1-2.37-1.07l.81-2a8.24,8.24,0,0,0,4.32,1.26c2,0,3-1,3-2.94v-1.47A3.57,3.57,0,0,1,65,169.18a4.68,4.68,0,0,1-2.21.52,4.86,4.86,0,0,1-2.61-.71,4.77,4.77,0,0,1-1.78-2,6.34,6.34,0,0,1-.65-2.92,6.59,6.59,0,0,1,.64-2.94,4.61,4.61,0,0,1,1.78-2,4.92,4.92,0,0,1,2.62-.71A4.68,4.68,0,0,1,65,159a3.57,3.57,0,0,1,1.47,1.46v-1.7Zm-3.62,7.8a3.68,3.68,0,0,0,.77-2.46,3.73,3.73,0,0,0-.77-2.49,3,3,0,0,0-4.29,0,4.3,4.3,0,0,0,0,4.94,3,3,0,0,0,4.29,0Z"/><path d="M79.67,160.89l-1.68.16c-1.9.2-2.85,1.16-2.85,2.9V170H72.26V158.77H75v2a3.81,3.81,0,0,1,3.61-2.21l.87-.07Z"/><path d="M90.71,164.91H83.05a3.45,3.45,0,0,0,.94,2.32,3.21,3.21,0,0,0,2.3.76,5.38,5.38,0,0,0,3.4-1.19l.83,2a6,6,0,0,1-2,1,7.6,7.6,0,0,1-2.38.39,6,6,0,0,1-4.36-1.56,5.69,5.69,0,0,1-1.6-4.28,6.57,6.57,0,0,1,.69-3.06,5,5,0,0,1,1.94-2.07,5.52,5.52,0,0,1,2.84-.74,4.68,4.68,0,0,1,3.67,1.5,5.93,5.93,0,0,1,1.35,4.12Zm-6.8-3.65a3.5,3.5,0,0,0-.86,2.11h5.2a3.42,3.42,0,0,0-.69-2.13,2.29,2.29,0,0,0-1.8-.72A2.4,2.4,0,0,0,83.91,161.26Z"/><path d="M102.1,159.23a4.89,4.89,0,0,1,1.77,2.08,7.1,7.1,0,0,1,.64,3.1,6.89,6.89,0,0,1-.64,3.06,4.83,4.83,0,0,1-1.76,2,4.77,4.77,0,0,1-2.59.71,4.51,4.51,0,0,1-2.14-.5,3.52,3.52,0,0,1-1.45-1.41v5.87H93.05V158.77h2.83v1.7A3.6,3.6,0,0,1,97.34,159a4.56,4.56,0,0,1,2.18-.52A4.66,4.66,0,0,1,102.1,159.23ZM100.87,167a4,4,0,0,0,.76-2.63,4.29,4.29,0,0,0-.76-2.72,2.53,2.53,0,0,0-2.11-1,2.56,2.56,0,0,0-2.13.94,5.16,5.16,0,0,0,0,5.36,2.87,2.87,0,0,0,4.24,0Z"/><path d="M116.74,164.91h-7.66a3.51,3.51,0,0,0,1,2.32,3.19,3.19,0,0,0,2.3.76,5.4,5.4,0,0,0,3.4-1.19l.83,2a6,6,0,0,1-2,1,7.56,7.56,0,0,1-2.38.39,6,6,0,0,1-4.36-1.56,5.73,5.73,0,0,1-1.6-4.28,6.57,6.57,0,0,1,.69-3.06,5,5,0,0,1,2-2.07,5.49,5.49,0,0,1,2.84-.74,4.68,4.68,0,0,1,3.67,1.5,6,6,0,0,1,1.34,4.12ZM110,161.26a3.56,3.56,0,0,0-.87,2.11h5.2a3.3,3.3,0,0,0-.69-2.13,2.28,2.28,0,0,0-1.79-.72A2.39,2.39,0,0,0,110,161.26Z"/><path d="M128.63,159.64a5.24,5.24,0,0,1,1,3.48V170h-2.87v-6.74a3,3,0,0,0-.5-1.91,1.89,1.89,0,0,0-1.55-.6,2.63,2.63,0,0,0-2,.78,2.92,2.92,0,0,0-.75,2.1V170h-2.87V158.77h2.8v1.68a3.93,3.93,0,0,1,1.55-1.45,4.58,4.58,0,0,1,2.18-.51A3.77,3.77,0,0,1,128.63,159.64Z"/></svg>