<svg id="Layer_1" data-name="Layer 1" xmlns="http://www.w3.org/2000/svg" viewBox="0 0 161.67 176.21"><defs><style>.cls-1{fill:#f6d561;}</style></defs><path class="cls-1" d="M84.76,6A4.21,4.21,0,0,0,81,8.24L26.28,110.11A4.25,4.25,0,0,0,30,116.38H139.5a4.25,4.25,0,0,0,3.74-6.27L88.51,8.24A4.21,4.21,0,0,0,84.76,6Z"/><path d="M77.39,95.09a8.12,8.12,0,1,1,8.11,8.44A8.12,8.12,0,0,1,77.39,95.09Zm1.82-42.47-.45-12.15H92.24l-.46,12.15-1.87,28H81.09Z"/><path d="M139.5,122.38H30a10.25,10.25,0,0,1-9-15.11L75.73,5.4a10.25,10.25,0,0,1,18.06,0l54.74,101.87a10.26,10.26,0,0,1-9,15.11ZM84.76,6A4.21,4.21,0,0,0,81,8.24L26.28,110.11A4.25,4.25,0,0,0,30,116.38H139.5a4.25,4.25,0,0,0,3.74-6.27L88.51,8.24A4.21,4.21,0,0,0,84.76,6Z"/><path d="M9.68,132.89v2l-3-.16,1.66,2.53-1.75,1L5.2,135.58l-1.38,2.69-1.73-1,1.66-2.55-3,.16v-2l3,.16-1.66-2.56,1.73-1,1.38,2.71,1.38-2.71,1.75,1-1.66,2.53Z"/><path d="M13.49,145.49a4.84,4.84,0,0,1-2-2,7.08,7.08,0,0,1,0-6.16,5.16,5.16,0,0,1,2.06-2.08,6.29,6.29,0,0,1,3.08-.74,7.45,7.45,0,0,1,2.34.38,5,5,0,0,1,1.83,1l-.83,2a5.63,5.63,0,0,0-1.51-.87,4.41,4.41,0,0,0-1.57-.3,3,3,0,0,0-2.33.93,4.76,4.76,0,0,0,0,5.34,3,3,0,0,0,2.33.93,4.41,4.41,0,0,0,1.57-.3,5.41,5.41,0,0,0,1.51-.88l.83,2a5.19,5.19,0,0,1-1.89,1,7.38,7.38,0,0,1-2.39.38A6.36,6.36,0,0,1,13.49,145.49Z"/><path d="M24.76,145.49a4.91,4.91,0,0,1-2-2.05,7,7,0,0,1,0-6.2,4.86,4.86,0,0,1,2-2,6.11,6.11,0,0,1,3-.72,6.17,6.17,0,0,1,3,.72,4.89,4.89,0,0,1,2,2,7.21,7.21,0,0,1,0,6.2,4.94,4.94,0,0,1-2,2.05,6.28,6.28,0,0,1-3,.71A6.21,6.21,0,0,1,24.76,145.49Zm5.14-2.44a4.27,4.27,0,0,0,.73-2.71,4.33,4.33,0,0,0-.73-2.71,2.55,2.55,0,0,0-2.12-.93,2.55,2.55,0,0,0-2.12.93,5.33,5.33,0,0,0,0,5.42,2.57,2.57,0,0,0,2.12.92A2.58,2.58,0,0,0,29.9,143.05Z"/><path d="M45.42,135.64a5.24,5.24,0,0,1,1,3.48V146H43.54v-6.74a3,3,0,0,0-.5-1.91,1.89,1.89,0,0,0-1.55-.6,2.63,2.63,0,0,0-2,.78,2.92,2.92,0,0,0-.75,2.1V146H35.88V134.77h2.8v1.68A3.93,3.93,0,0,1,40.23,135a4.58,4.58,0,0,1,2.18-.51A3.77,3.77,0,0,1,45.42,135.64Z"/><path d="M53,134.77h7.43V146H57.54v-9.09H53V146H50.12v-9.09H48v-2.16h2.17a4.85,4.85,0,0,1,1.28-3.67,5.81,5.81,0,0,1,3.89-1.34l1,0,.14,2.14-1.08.05a2.58,2.58,0,0,0-1.82.63,2.39,2.39,0,0,0-.53,1.69Zm4.39-5.24H60.6v2.87H57.38Z"/><path d="M74.27,129.8V146H71.41V144.2A3.51,3.51,0,0,1,70,145.67a4.31,4.31,0,0,1-2.17.53,4.66,4.66,0,0,1-2.59-.73,4.86,4.86,0,0,1-1.77-2.09,7.16,7.16,0,0,1-.63-3.09,7,7,0,0,1,.63-3.06,4.67,4.67,0,0,1,4.36-2.74,4.48,4.48,0,0,1,2.16.51,3.51,3.51,0,0,1,1.45,1.43V129.8ZM70.67,143a4.24,4.24,0,0,0,.74-2.69,4.17,4.17,0,0,0-.74-2.68,2.55,2.55,0,0,0-2.11-.93,2.61,2.61,0,0,0-2.14.92,4.07,4.07,0,0,0-.76,2.64,4.36,4.36,0,0,0,.76,2.72,2.85,2.85,0,0,0,4.25,0Z"/><path d="M87.1,140.91H79.44a3.5,3.5,0,0,0,.94,2.32,3.22,3.22,0,0,0,2.3.76,5.41,5.41,0,0,0,3.41-1.19l.83,2a6.11,6.11,0,0,1-2,1,7.56,7.56,0,0,1-2.38.39,6,6,0,0,1-4.36-1.56,5.69,5.69,0,0,1-1.6-4.28,6.57,6.57,0,0,1,.69-3.06,5,5,0,0,1,2-2.07,5.49,5.49,0,0,1,2.84-.74,4.66,4.66,0,0,1,3.66,1.5,5.93,5.93,0,0,1,1.35,4.12Zm-6.8-3.65a3.62,3.62,0,0,0-.86,2.11h5.2a3.3,3.3,0,0,0-.69-2.13,2.28,2.28,0,0,0-1.79-.72A2.43,2.43,0,0,0,80.3,137.26Z"/><path d="M99,135.64a5.24,5.24,0,0,1,1,3.48V146H97.11v-6.74a3,3,0,0,0-.5-1.91,1.9,1.9,0,0,0-1.55-.6,2.63,2.63,0,0,0-2,.78,2.92,2.92,0,0,0-.75,2.1V146H89.45V134.77h2.8v1.68A4,4,0,0,1,93.79,135a4.65,4.65,0,0,1,2.19-.51A3.77,3.77,0,0,1,99,135.64Z"/><path d="M109.71,144l-.14,2.14a11.65,11.65,0,0,1-1.26.07,4.91,4.91,0,0,1-3.5-1.09,4.36,4.36,0,0,1-1.13-3.26v-4.9h-2.16v-2.16h2.16v-3.36h2.88v3.36h3v2.16h-3v4.86c0,1.5.7,2.25,2.09,2.25A7.86,7.86,0,0,0,109.71,144Z"/><path d="M111.23,129.55h3.17v2.83h-3.17Zm.16,16.47V134.77h2.87V146Z"/><path d="M125.58,135.64a4.87,4.87,0,0,1,1.15,3.55V146H124v-1.73a3,3,0,0,1-1.23,1.41,3.76,3.76,0,0,1-1.94.5,4.48,4.48,0,0,1-2-.46,3.64,3.64,0,0,1-1.45-1.26,3.24,3.24,0,0,1-.53-1.8,2.82,2.82,0,0,1,.63-2,3.85,3.85,0,0,1,2.06-1,19.17,19.17,0,0,1,3.94-.32H124v-.53a2.29,2.29,0,0,0-.49-1.65,2.23,2.23,0,0,0-1.65-.51A6,6,0,0,0,120,137a9.59,9.59,0,0,0-1.92.86l-.81-2a8.9,8.9,0,0,1,2.28-1,9,9,0,0,1,2.53-.4A4.83,4.83,0,0,1,125.58,135.64Zm-2.31,7.72a2.78,2.78,0,0,0,.72-2v-.48h-.41a16,16,0,0,0-2.39.14,2.28,2.28,0,0,0-1.22.48,1.21,1.21,0,0,0-.37.94,1.6,1.6,0,0,0,.5,1.21,1.8,1.8,0,0,0,1.29.47A2.45,2.45,0,0,0,123.27,143.36Z"/><path d="M129.65,146V129.8h2.87V146Z"/><path d="M135.33,129.55h3.17v2.83h-3.17Zm.16,16.47V134.77h2.88V146Z"/><path d="M148.14,144l-.14,2.14a11.65,11.65,0,0,1-1.26.07,4.91,4.91,0,0,1-3.5-1.09,4.36,4.36,0,0,1-1.12-3.26v-4.9H140v-2.16h2.17v-3.36H145v3.36h3v2.16h-3v4.86c0,1.5.7,2.25,2.09,2.25A7.86,7.86,0,0,0,148.14,144Z"/><path d="M159.69,140.91H152a3.45,3.45,0,0,0,.94,2.32,3.21,3.21,0,0,0,2.3.76,5.38,5.38,0,0,0,3.4-1.19l.83,2a6,6,0,0,1-2,1,7.6,7.6,0,0,1-2.38.39,6,6,0,0,1-4.36-1.56,5.69,5.69,0,0,1-1.6-4.28,6.57,6.57,0,0,1,.69-3.06,5,5,0,0,1,1.94-2.07,5.52,5.52,0,0,1,2.84-.74,4.68,4.68,0,0,1,3.67,1.5,5.93,5.93,0,0,1,1.35,4.12Zm-6.8-3.65a3.5,3.5,0,0,0-.86,2.11h5.2a3.42,3.42,0,0,0-.69-2.13,2.29,2.29,0,0,0-1.8-.72A2.4,2.4,0,0,0,152.89,137.26Zm2.7-4h-1.84l2.28-4.69H159Z"/><path d="M36.89,159.64a5.24,5.24,0,0,1,1,3.48V170H35v-6.74a3,3,0,0,0-.5-1.91,1.9,1.9,0,0,0-1.55-.6,2.63,2.63,0,0,0-2,.78,2.92,2.92,0,0,0-.75,2.1V170H27.35V158.77h2.8v1.68A4,4,0,0,1,31.69,159a4.65,4.65,0,0,1,2.19-.51A3.77,3.77,0,0,1,36.89,159.64Z"/><path d="M42.91,169.49a5,5,0,0,1-2-2.05,7.12,7.12,0,0,1,0-6.2,4.94,4.94,0,0,1,2-2,6.11,6.11,0,0,1,3-.72,6.17,6.17,0,0,1,3,.72,4.89,4.89,0,0,1,2,2,7.21,7.21,0,0,1,0,6.2,4.94,4.94,0,0,1-2,2.05,6.28,6.28,0,0,1-3,.71A6.21,6.21,0,0,1,42.91,169.49Zm5.14-2.44a4.27,4.27,0,0,0,.73-2.71,4.33,4.33,0,0,0-.73-2.71,2.55,2.55,0,0,0-2.12-.93,2.58,2.58,0,0,0-2.13.93,5.36,5.36,0,0,0,0,5.42,2.57,2.57,0,0,0,2.12.92A2.6,2.6,0,0,0,48.05,167.05Z"/><path d="M63.57,159.64a5.24,5.24,0,0,1,1,3.48V170H61.69v-6.74a3,3,0,0,0-.5-1.91,1.9,1.9,0,0,0-1.55-.6,2.63,2.63,0,0,0-2,.78,2.92,2.92,0,0,0-.75,2.1V170H54V158.77h2.8v1.68A4,4,0,0,1,58.37,159a4.65,4.65,0,0,1,2.19-.51A3.77,3.77,0,0,1,63.57,159.64Z"/><path d="M73.55,153.55h3.18v2.83H73.55ZM73.71,170V158.77h2.88V170Z"/><path d="M89.1,159.64a5.24,5.24,0,0,1,1,3.48V170H87.21v-6.74a3,3,0,0,0-.49-1.91,1.9,1.9,0,0,0-1.55-.6,2.63,2.63,0,0,0-2,.78,2.92,2.92,0,0,0-.75,2.1V170H79.56V158.77h2.8v1.68A4,4,0,0,1,83.9,159a4.62,4.62,0,0,1,2.19-.51A3.77,3.77,0,0,1,89.1,159.64Z"/><path d="M95.07,169.49a4.84,4.84,0,0,1-2-2,7.08,7.08,0,0,1,0-6.16,5.16,5.16,0,0,1,2.06-2.08,6.29,6.29,0,0,1,3.08-.74,7.45,7.45,0,0,1,2.34.38,5,5,0,0,1,1.83,1l-.83,2a5.63,5.63,0,0,0-1.51-.87,4.41,4.41,0,0,0-1.57-.3,3,3,0,0,0-2.33.93,4.76,4.76,0,0,0,0,5.34,3,3,0,0,0,2.33.93,4.41,4.41,0,0,0,1.57-.3,5.41,5.41,0,0,0,1.51-.88l.83,2a5.19,5.19,0,0,1-1.89,1,7.38,7.38,0,0,1-2.39.38A6.36,6.36,0,0,1,95.07,169.49Z"/><path d="M104.23,170V153.8h2.88V170Z"/><path d="M120.4,158.77V170h-2.8v-1.73a3.68,3.68,0,0,1-1.43,1.42,4.11,4.11,0,0,1-2,.49q-4.14,0-4.14-4.64v-6.79h2.87v6.81a2.65,2.65,0,0,0,.49,1.77,1.87,1.87,0,0,0,1.51.58,2.47,2.47,0,0,0,1.92-.8,3,3,0,0,0,.73-2.1v-6.26Z"/><path d="M124.78,169.83a6.1,6.1,0,0,1-2.12-1.05l.8-2a6.78,6.78,0,0,0,4.12,1.32,2.78,2.78,0,0,0,1.5-.33,1,1,0,0,0,.52-.92,1,1,0,0,0-.35-.78,3.78,3.78,0,0,0-1.28-.5l-1.84-.42a4.51,4.51,0,0,1-2.32-1.12,2.79,2.79,0,0,1-.76-2,3,3,0,0,1,.58-1.83,3.83,3.83,0,0,1,1.64-1.23,6.22,6.22,0,0,1,2.42-.44,7.45,7.45,0,0,1,2.31.37,6.39,6.39,0,0,1,2,1l-.8,1.95a6,6,0,0,0-3.5-1.26,2.67,2.67,0,0,0-1.47.34,1.1,1.1,0,0,0-.53,1,1,1,0,0,0,.33.76,2.38,2.38,0,0,0,1.07.46l1.91.44a4.79,4.79,0,0,1,2.46,1.16,2.84,2.84,0,0,1,.78,2.08,2.91,2.91,0,0,1-1.26,2.48,5.67,5.67,0,0,1-3.43.92A9.63,9.63,0,0,1,124.78,169.83Z"/><path d="M144.41,164.91h-7.66a3.51,3.51,0,0,0,.95,2.32,3.19,3.19,0,0,0,2.3.76,5.4,5.4,0,0,0,3.4-1.19l.83,2a6,6,0,0,1-2,1,7.56,7.56,0,0,1-2.38.39,6,6,0,0,1-4.36-1.56,5.73,5.73,0,0,1-1.59-4.28,6.57,6.57,0,0,1,.69-3.06,5,5,0,0,1,1.94-2.07,5.49,5.49,0,0,1,2.84-.74,4.68,4.68,0,0,1,3.67,1.5,6,6,0,0,1,1.34,4.12Zm-6.79-3.65a3.56,3.56,0,0,0-.87,2.11H142a3.3,3.3,0,0,0-.69-2.13,2.27,2.27,0,0,0-1.79-.72A2.39,2.39,0,0,0,137.62,161.26Z"/></svg>