<svg id="Layer_1" data-name="Layer 1" xmlns="http://www.w3.org/2000/svg" viewBox="0 0 147.05 185.57"><defs><style>.cls-1{fill:#010101}</style></defs><path class="cls-1" d="M12.91 138.4v3.4L9 141.54l2.19 3.3-2.91 1.7-1.77-3.6-1.8 3.57-2.9-1.67 2.19-3.3-4 .23v-3.37l4 .23-2.19-3.3 2.91-1.7 1.76 3.56 1.77-3.56 2.91 1.73L9 138.63zM15.85 135.39h5.59c3.62 0 5.42 1.91 5.42 5.78v1.33c0 3.82-1.44 6.12-5.58 6.12h-1.23v8.58h-4.2zm4.2 9.83h.68c1.59 0 1.92-.89 1.92-2.7V141c0-1.41-.33-2.32-1.72-2.32h-.88zM33.54 147.71v9.49h-4.19v-21.81h5.44c3.65 0 5.46 1.6 5.46 5.42v.78c0 3.11-1.24 4-2.18 4.47 1.36.66 2 1.66 2 4.7 0 2.11 0 5.29.15 6.44h-4.06a41.53 41.53 0 01-.25-6.61c0-2.46-.28-2.88-1.88-2.88zm0-3.3h.52c1.4 0 2-.44 2-2.47v-1.06c0-1.46-.29-2.19-1.84-2.19h-.65zM47.37 135.39v21.81h-4.18v-21.81zM52.81 157.2l-3.27-21.81H54l.78 8.07c.27 2.81.61 6 .76 8.75h.17c.14-2.78.49-5.76.73-8.71l.68-8.11h4.38l-3.22 21.81zM66.62 152l-.54 5.19h-4.27l3.08-21.81h6.26l3.15 21.82h-4.36l-.6-5.19zm2.36-3.7c-.31-2.79-.74-7-1-9.13h-.16c-.08 1.52-.6 6.43-.88 9.13zM87.08 150.08v1.18c0 2.75-.51 6.26-5.51 6.26-3.69 0-5.3-2-5.3-6v-10.7c0-3.79 1.89-5.79 5.39-5.79 4.6 0 5.35 3 5.35 5.89v1.37h-4.22v-1.87c0-1.2-.26-1.8-1.13-1.8s-1.15.57-1.15 1.8V152c0 1.16.2 2 1.15 2s1.17-.67 1.17-2.06v-1.81zM92.37 157.2v-7a4.63 4.63 0 00-.15-1.13l-3.84-13.69H93c.59 3.14 1.28 6.75 1.55 9.5h.13c.36-2.61 1.06-6.3 1.62-9.5h4.33l-3.92 14a3.73 3.73 0 00-.1.94v6.83zM105.48 157.2l4.63-21.81h4.71c0 6.56-.12 13.77-.17 14.72h.1c.43-3 1.18-8.1 1.82-11.14l.75-3.58h3.89l-4.63 21.81h-4.69c0-5.74.11-14.15.16-14.87h-.12c-.4 2.57-1.14 7.71-1.85 11.14l-.78 3.73zM134 141.56l-2.14 10.06c-.84 4-2.32 5.9-6.35 5.9s-5.41-2.34-4.56-6.38l2.22-10.63c.83-4 2.94-5.45 6.08-5.45 3.82 0 5.61 2.26 4.75 6.5zm-6.64-1.1l-2.41 11.48c-.25 1.16-.18 2.21 1 2.21 1 0 1.39-.84 1.67-2.12l2.41-11.5c.26-1.25.05-2.08-1.07-2.08-.85 0-1.36.6-1.64 2.01zM139 139h-3.1l.78-3.61h10.35l-.78 3.61h-3.13l-3.86 18.2h-4.11zM34.53 163.43v21.81h-4.19v-21.81zM37.81 185.24v-21.81h4.65c.69 2.67 2.87 12.54 3 13.5h.1c-.23-2.9-.38-6.87-.38-9.91v-3.59h3.89v21.81h-4.63c-.46-2.07-2.84-13.36-3-14.05h-.11c.16 2.56.29 6.9.29 10.33v3.72zM62.85 178.13v1.18c0 2.75-.5 6.26-5.5 6.26-3.7 0-5.3-2-5.3-6V168.9c0-3.79 1.89-5.79 5.39-5.79 4.6 0 5.35 3 5.35 5.88v1.37h-4.22v-1.86c0-1.2-.26-1.81-1.13-1.81s-1.15.58-1.15 1.81V180c0 1.16.2 2 1.14 2s1.18-.66 1.18-2.05v-1.81zM65.34 163.43h4.2v18.14h5.27l-.37 3.67h-9.1zM80.8 163.43V180c0 1.28.38 2 1.34 2s1.32-.77 1.32-2v-16.57h4.25v16.34c0 3.87-1.78 5.78-5.64 5.78s-5.5-1.85-5.5-5.81v-16.31zM90.87 163.43H96c4.5 0 6 2 6 6.57v8.2c0 3.75-.8 7-5.76 7h-5.37zm4.2 18.43h.82c1.64 0 1.91-1.07 1.91-2.77v-9.77c0-1.61-.36-2.48-2-2.48h-.78zM113.66 175.61h-4.49v5.95h5.27l-.5 3.68h-9v-21.81h8.93v3.71h-4.73v4.78h4.49zM116.59 163.43h5.16c4.49 0 6 2 6 6.57v8.2c0 3.75-.79 7-5.75 7h-5.45zm4.2 18.43h.82c1.65 0 1.92-1.07 1.92-2.77v-9.77c0-1.61-.36-2.48-2-2.48h-.79z"/><path d="M78.89 6a4.19 4.19 0 00-3.74 2.24L20.41 110.11a4.26 4.26 0 003.75 6.27h109.47a4.26 4.26 0 003.75-6.27L82.64 8.24A4.19 4.19 0 0078.89 6z" fill="#fbd545"/><path class="cls-1" d="M71.52 95.09a8.12 8.12 0 118.11 8.44 8.12 8.12 0 01-8.11-8.44zm1.83-42.47l-.45-12.15h13.47l-.45 12.15-1.87 28h-8.83z"/><path class="cls-1" d="M133.63 122.38H24.16a10.25 10.25 0 01-9-15.11L69.87 5.4a10.24 10.24 0 0118 0l54.74 101.87a10.25 10.25 0 01-9 15.11zM78.89 6a4.19 4.19 0 00-3.74 2.24L20.41 110.11a4.26 4.26 0 003.75 6.27h109.47a4.26 4.26 0 003.75-6.27L82.64 8.24A4.19 4.19 0 0078.89 6z"/></svg>