<svg id="Layer_1" data-name="Layer 1" xmlns="http://www.w3.org/2000/svg" viewBox="0 0 136.97 176.21"><defs><style>.cls-1{fill:#f6d561;}</style></defs><path class="cls-1" d="M69,6a4.19,4.19,0,0,0-3.74,2.24L10.53,110.11a4.26,4.26,0,0,0,3.75,6.27H123.75a4.26,4.26,0,0,0,3.75-6.27L72.76,8.24A4.19,4.19,0,0,0,69,6Z"/><path d="M61.64,95.09a8.12,8.12,0,1,1,8.11,8.44A8.13,8.13,0,0,1,61.64,95.09Zm1.83-42.47L63,40.47H76.49L76,52.62l-1.87,28H65.34Z"/><path d="M123.75,122.38H14.28a10.25,10.25,0,0,1-9-15.11L60,5.4A10.24,10.24,0,0,1,78,5.4l54.74,101.87a10.25,10.25,0,0,1-9,15.11ZM69,6a4.19,4.19,0,0,0-3.74,2.24L10.53,110.11a4.26,4.26,0,0,0,3.75,6.27H123.75a4.26,4.26,0,0,0,3.75-6.27L72.76,8.24A4.19,4.19,0,0,0,69,6Z"/><path d="M9.68,132.89v2l-3-.16,1.66,2.53-1.75,1L5.2,135.58l-1.38,2.69-1.73-1,1.66-2.55-3,.16v-2l3,.16-1.66-2.56,1.73-1,1.38,2.71,1.38-2.71,1.75,1-1.66,2.53Z"/><path d="M20.94,135.23a4.89,4.89,0,0,1,1.77,2.08,7.24,7.24,0,0,1,.63,3.1,7,7,0,0,1-.63,3.06,4.64,4.64,0,0,1-4.36,2.73,4.53,4.53,0,0,1-2.14-.5,3.56,3.56,0,0,1-1.44-1.41v5.87H11.89V134.77h2.83v1.7A3.54,3.54,0,0,1,16.18,135a4.55,4.55,0,0,1,2.17-.52A4.67,4.67,0,0,1,20.94,135.23ZM19.71,143a4,4,0,0,0,.76-2.63,4.29,4.29,0,0,0-.76-2.72,2.55,2.55,0,0,0-2.12-1,2.53,2.53,0,0,0-2.12.94,5.16,5.16,0,0,0,0,5.36,2.53,2.53,0,0,0,2.12.94A2.59,2.59,0,0,0,19.71,143Z"/><path d="M33.12,136.89l-1.68.16c-1.9.2-2.85,1.16-2.85,2.9V146H25.71V134.77h2.74v2a3.82,3.82,0,0,1,3.61-2.21l.88-.07Z"/><path d="M34.36,129.55h3.18v2.83H34.36ZM34.52,146V134.77H37.4V146Z"/><path d="M48.25,134.79h2.83L46.16,146H43.65l-4.87-11.23h3L45,142.73Z"/><path d="M60.65,135.64a4.83,4.83,0,0,1,1.15,3.55V146H59.06v-1.73a3,3,0,0,1-1.23,1.41,3.76,3.76,0,0,1-1.94.5,4.51,4.51,0,0,1-2-.46,3.64,3.64,0,0,1-1.45-1.26,3.24,3.24,0,0,1-.53-1.8,2.78,2.78,0,0,1,.64-2,3.78,3.78,0,0,1,2-1,19.17,19.17,0,0,1,3.94-.32h.57v-.53a2.29,2.29,0,0,0-.49-1.65,2.23,2.23,0,0,0-1.65-.51,6,6,0,0,0-1.87.31,9.59,9.59,0,0,0-1.92.86l-.81-2a8.9,8.9,0,0,1,2.28-1,9,9,0,0,1,2.53-.4A4.83,4.83,0,0,1,60.65,135.64Zm-2.31,7.72a2.78,2.78,0,0,0,.72-2v-.48h-.41a16,16,0,0,0-2.39.14,2.28,2.28,0,0,0-1.22.48,1.21,1.21,0,0,0-.37.94,1.57,1.57,0,0,0,.51,1.21,1.76,1.76,0,0,0,1.28.47A2.44,2.44,0,0,0,58.34,143.36Z"/><path d="M66.78,145.49a4.84,4.84,0,0,1-2-2,7.08,7.08,0,0,1,0-6.16,5.16,5.16,0,0,1,2.06-2.08,6.29,6.29,0,0,1,3.08-.74,7.45,7.45,0,0,1,2.34.38,5,5,0,0,1,1.83,1l-.83,2a5.63,5.63,0,0,0-1.51-.87,4.41,4.41,0,0,0-1.57-.3,3,3,0,0,0-2.33.93,4.76,4.76,0,0,0,0,5.34,3,3,0,0,0,2.33.93,4.41,4.41,0,0,0,1.57-.3,5.41,5.41,0,0,0,1.51-.88l.83,2a5.19,5.19,0,0,1-1.89,1,7.38,7.38,0,0,1-2.39.38A6.33,6.33,0,0,1,66.78,145.49Z"/><path d="M75.78,129.55H79v2.83H75.78ZM75.94,146V134.77h2.88V146Z"/><path d="M92.64,129.8V146H89.79V144.2a3.63,3.63,0,0,1-1.46,1.47,4.33,4.33,0,0,1-2.17.53,4.66,4.66,0,0,1-2.59-.73,4.86,4.86,0,0,1-1.77-2.09,7.17,7.17,0,0,1-.64-3.09,7,7,0,0,1,.64-3.06,4.67,4.67,0,0,1,4.36-2.74,4.48,4.48,0,0,1,2.16.51,3.51,3.51,0,0,1,1.45,1.43V129.8ZM89,143a4.24,4.24,0,0,0,.75-2.69,4.17,4.17,0,0,0-.75-2.68,2.55,2.55,0,0,0-2.1-.93,2.59,2.59,0,0,0-2.14.92,4,4,0,0,0-.76,2.64A4.29,4.29,0,0,0,84.8,143a2.53,2.53,0,0,0,2.11,1A2.56,2.56,0,0,0,89,143Z"/><path d="M104,135.64a4.87,4.87,0,0,1,1.15,3.55V146h-2.74v-1.73a3,3,0,0,1-1.23,1.41,3.76,3.76,0,0,1-1.94.5,4.48,4.48,0,0,1-2-.46,3.64,3.64,0,0,1-1.45-1.26,3.24,3.24,0,0,1-.53-1.8,2.82,2.82,0,0,1,.63-2,3.85,3.85,0,0,1,2.06-1,19.06,19.06,0,0,1,3.93-.32h.58v-.53a2.29,2.29,0,0,0-.49-1.65,2.23,2.23,0,0,0-1.65-.51,6,6,0,0,0-1.87.31,9.35,9.35,0,0,0-1.92.86l-.81-2a8.9,8.9,0,0,1,2.28-1,9,9,0,0,1,2.53-.4A4.83,4.83,0,0,1,104,135.64Zm-2.31,7.72a2.78,2.78,0,0,0,.72-2v-.48H102a16.21,16.21,0,0,0-2.4.14,2.28,2.28,0,0,0-1.21.48,1.21,1.21,0,0,0-.37.94,1.6,1.6,0,0,0,.5,1.21,1.8,1.8,0,0,0,1.29.47A2.45,2.45,0,0,0,101.65,143.36Z"/><path d="M118.88,129.8V146H116V144.2a3.51,3.51,0,0,1-1.46,1.47,4.31,4.31,0,0,1-2.17.53,4.66,4.66,0,0,1-2.59-.73,4.86,4.86,0,0,1-1.77-2.09,7.16,7.16,0,0,1-.63-3.09,7,7,0,0,1,.63-3.06,4.67,4.67,0,0,1,4.36-2.74,4.48,4.48,0,0,1,2.16.51,3.51,3.51,0,0,1,1.45,1.43V129.8ZM115.29,143a4.31,4.31,0,0,0,.74-2.69,4.23,4.23,0,0,0-.74-2.68,2.55,2.55,0,0,0-2.11-.93,2.61,2.61,0,0,0-2.14.92,4.07,4.07,0,0,0-.76,2.64A4.36,4.36,0,0,0,111,143a2.85,2.85,0,0,0,4.25,0Z"/><path d="M131.72,140.91h-7.66a3.5,3.5,0,0,0,.94,2.32,3.22,3.22,0,0,0,2.3.76,5.43,5.43,0,0,0,3.41-1.19l.83,2a6.11,6.11,0,0,1-2,1,7.6,7.6,0,0,1-2.38.39,6,6,0,0,1-4.36-1.56,5.69,5.69,0,0,1-1.6-4.28,6.57,6.57,0,0,1,.69-3.06,5,5,0,0,1,2-2.07,5.49,5.49,0,0,1,2.84-.74,4.66,4.66,0,0,1,3.66,1.5,5.93,5.93,0,0,1,1.35,4.12Zm-6.8-3.65a3.62,3.62,0,0,0-.86,2.11h5.2a3.3,3.3,0,0,0-.69-2.13,2.29,2.29,0,0,0-1.8-.72A2.42,2.42,0,0,0,124.92,137.26Z"/><path d="M16.31,159.64a5.29,5.29,0,0,1,1,3.48V170H14.42v-6.74a3,3,0,0,0-.49-1.91,1.91,1.91,0,0,0-1.56-.6,2.63,2.63,0,0,0-2,.78,2.91,2.91,0,0,0-.74,2.1V170H6.76V158.77H9.57v1.68A3.84,3.84,0,0,1,11.11,159a4.58,4.58,0,0,1,2.18-.51A3.8,3.8,0,0,1,16.31,159.64Z"/><path d="M28.56,159.64a4.83,4.83,0,0,1,1.15,3.55V170H27v-1.73a3,3,0,0,1-1.23,1.41,3.77,3.77,0,0,1-1.95.5,4.43,4.43,0,0,1-2-.46,3.57,3.57,0,0,1-1.45-1.26,3.24,3.24,0,0,1-.53-1.8,2.82,2.82,0,0,1,.63-2,3.81,3.81,0,0,1,2.06-1,19.06,19.06,0,0,1,3.93-.32H27v-.53a2.29,2.29,0,0,0-.5-1.65,2.21,2.21,0,0,0-1.64-.51A6.16,6.16,0,0,0,23,161a9.59,9.59,0,0,0-1.92.86l-.8-2a8.9,8.9,0,0,1,2.28-1,9,9,0,0,1,2.53-.4A4.8,4.8,0,0,1,28.56,159.64Zm-6.71-5.5a2.07,2.07,0,0,1,1.68-.8,2,2,0,0,1,.83.18,9.58,9.58,0,0,1,1,.51,7.06,7.06,0,0,0,.73.42,1.41,1.41,0,0,0,.58.14.85.85,0,0,0,.71-.33,1.51,1.51,0,0,0,.3-.85H29a3.6,3.6,0,0,1-.64,2.3,2.08,2.08,0,0,1-1.68.78,2,2,0,0,1-.83-.17,10,10,0,0,1-1-.52,6.72,6.72,0,0,0-.74-.41,1.4,1.4,0,0,0-.57-.14.88.88,0,0,0-.72.32,1.66,1.66,0,0,0-.29.86H21.21A3.55,3.55,0,0,1,21.85,154.14Zm4.4,13.22a2.74,2.74,0,0,0,.73-2v-.48h-.42a16.15,16.15,0,0,0-2.39.14,2.35,2.35,0,0,0-1.22.48,1.24,1.24,0,0,0-.36.94,1.56,1.56,0,0,0,.5,1.21,1.8,1.8,0,0,0,1.29.47A2.42,2.42,0,0,0,26.25,167.36Z"/><path d="M34.74,169.49a5,5,0,0,1-2-2.05,7.12,7.12,0,0,1,0-6.2,4.92,4.92,0,0,1,2-2,6.71,6.71,0,0,1,6,0,4.83,4.83,0,0,1,2,2,7.21,7.21,0,0,1,0,6.2,4.88,4.88,0,0,1-2,2.05,6.8,6.8,0,0,1-6,0Zm5.14-2.44a4.27,4.27,0,0,0,.74-2.71,4.33,4.33,0,0,0-.74-2.71,2.53,2.53,0,0,0-2.11-.93,2.57,2.57,0,0,0-2.13.93,4.27,4.27,0,0,0-.75,2.71,4.21,4.21,0,0,0,.74,2.71,2.55,2.55,0,0,0,2.11.92A2.58,2.58,0,0,0,39.88,167.05Z"/><path d="M51.93,153.55h3.18v2.83H51.93ZM52.09,170V158.77H55V170Z"/><path d="M67.48,159.64a5.24,5.24,0,0,1,1,3.48V170H65.59v-6.74a3,3,0,0,0-.49-1.91,1.9,1.9,0,0,0-1.55-.6,2.61,2.61,0,0,0-2,.78,2.92,2.92,0,0,0-.75,2.1V170H57.94V158.77h2.8v1.68A3.9,3.9,0,0,1,62.28,159a4.62,4.62,0,0,1,2.19-.51A3.77,3.77,0,0,1,67.48,159.64Z"/><path d="M73.45,169.49a4.84,4.84,0,0,1-2-2,7.08,7.08,0,0,1,0-6.16,5.16,5.16,0,0,1,2.06-2.08,6.29,6.29,0,0,1,3.08-.74,7.45,7.45,0,0,1,2.34.38,5,5,0,0,1,1.83,1l-.83,2a5.63,5.63,0,0,0-1.51-.87,4.41,4.41,0,0,0-1.57-.3,3,3,0,0,0-2.33.93,4.76,4.76,0,0,0,0,5.34,3,3,0,0,0,2.33.93,4.41,4.41,0,0,0,1.57-.3,5.41,5.41,0,0,0,1.51-.88l.83,2a5.19,5.19,0,0,1-1.89,1,7.38,7.38,0,0,1-2.39.38A6.33,6.33,0,0,1,73.45,169.49Z"/><path d="M82.61,170V153.8h2.88V170Z"/><path d="M98.78,158.77V170H96v-1.73a3.68,3.68,0,0,1-1.43,1.42,4.11,4.11,0,0,1-2,.49q-4.14,0-4.14-4.64v-6.79h2.87v6.81a2.71,2.71,0,0,0,.48,1.77,1.9,1.9,0,0,0,1.52.58,2.47,2.47,0,0,0,1.92-.8,3,3,0,0,0,.73-2.1v-6.26Z"/><path d="M101.77,170V158.77h2.88V170Zm2.35-12.72h-1.84l2.27-4.69h2.93Z"/><path d="M118.47,153.8V170h-2.85V168.2a3.63,3.63,0,0,1-1.46,1.47,4.35,4.35,0,0,1-2.18.53,4.63,4.63,0,0,1-2.58-.73,5,5,0,0,1-1.78-2.09,7.16,7.16,0,0,1-.63-3.09,7,7,0,0,1,.63-3.06,4.84,4.84,0,0,1,1.76-2,4.75,4.75,0,0,1,2.6-.72,4.49,4.49,0,0,1,2.17.51,3.48,3.48,0,0,1,1.44,1.43V153.8ZM114.87,167a4.24,4.24,0,0,0,.75-2.69,4.17,4.17,0,0,0-.75-2.68,2.55,2.55,0,0,0-2.1-.93,2.59,2.59,0,0,0-2.14.92,4,4,0,0,0-.76,2.64,4.29,4.29,0,0,0,.76,2.72,2.53,2.53,0,0,0,2.11,1A2.56,2.56,0,0,0,114.87,167Z"/><path d="M129.79,159.64a4.87,4.87,0,0,1,1.15,3.55V170H128.2v-1.73A3,3,0,0,1,127,169.7a3.76,3.76,0,0,1-1.94.5,4.45,4.45,0,0,1-2-.46,3.64,3.64,0,0,1-1.45-1.26,3.24,3.24,0,0,1-.53-1.8,2.82,2.82,0,0,1,.63-2,3.81,3.81,0,0,1,2.06-1,19.06,19.06,0,0,1,3.93-.32h.58v-.53a2.34,2.34,0,0,0-.49-1.65,2.23,2.23,0,0,0-1.65-.51,6,6,0,0,0-1.87.31,9.12,9.12,0,0,0-1.92.86l-.81-2a8.9,8.9,0,0,1,2.28-1,9,9,0,0,1,2.53-.4A4.83,4.83,0,0,1,129.79,159.64Zm-2.32,7.72a2.74,2.74,0,0,0,.73-2v-.48h-.41a16.21,16.21,0,0,0-2.4.14,2.35,2.35,0,0,0-1.22.48,1.24,1.24,0,0,0-.36.94,1.56,1.56,0,0,0,.5,1.21,1.8,1.8,0,0,0,1.29.47A2.42,2.42,0,0,0,127.47,167.36Z"/></svg>