<svg width="336" height="12" viewBox="0 0 336 12" fill="none" xmlns="http://www.w3.org/2000/svg">
<path d="M1 2.09204L4.84137 5.93341C10.401 11.493 19.4149 11.493 24.9745 5.93342V5.93342C30.4819 0.426072 39.3926 0.366744 44.9728 5.80026L45.2463 6.0666C50.9239 11.5949 60.0059 11.5618 65.6835 6.03341V6.03341C71.3991 0.467999 80.542 0.434592 86.2577 6V6C91.9733 11.5654 101.082 11.5654 106.798 6V6C112.513 0.434593 121.622 0.434591 127.337 6V6C133.053 11.5654 142.162 11.5654 147.877 6V6C153.593 0.434593 162.702 0.43459 168.417 6V6C174.133 11.5654 183.276 11.532 188.991 5.96659V5.96659C194.669 0.438244 203.751 0.40506 209.429 5.93341L209.702 6.19974C215.282 11.6333 224.226 11.5407 229.733 6.0334V6.0334C235.256 0.510555 244.244 0.477156 249.767 6V6C255.29 11.5228 264.244 11.5228 269.767 6.00001V6.00001C275.29 0.477161 284.244 0.477149 289.767 6V6C295.29 11.5228 304.244 11.5228 309.767 6V6C315.29 0.47715 324.244 0.477155 329.767 6L334.767 11" stroke="#595CF3" stroke-width="2"/>
</svg>
