<svg width="20" height="20" viewBox="0 0 20 20" fill="none" xmlns="http://www.w3.org/2000/svg">
<path d="M10.0146 1.56856e-05C15.525 0.00806397 19.9744 4.48331 19.9604 10.0077C19.9483 15.5207 15.4873 19.9714 9.98327 19.9638C4.47283 19.9537 0.0250395 15.4785 0.0390957 9.95414C0.0495375 4.44187 4.51058 -0.00964226 10.0146 1.56856e-05Z" fill="#F1B846"/>
<path fill-rule="evenodd" clip-rule="evenodd" d="M11.8304 12.1643C12.2067 12.7844 12.4131 13.4663 12.5375 14.1723C12.6662 14.9065 12.7097 15.645 12.5608 16.384C12.4876 16.7901 12.2525 17.1492 11.9093 17.3792C10.8075 18.1386 9.6755 18.2502 8.4747 17.6017C7.81997 17.2482 7.46343 16.729 7.41393 15.9952C7.32661 14.7101 7.52943 13.4796 8.11655 12.3229C8.14351 12.2695 8.17812 12.2201 8.2091 12.1691C8.26826 12.1804 8.32701 12.1968 8.38657 12.2033C9.53425 12.3278 10.6827 12.3326 11.8304 12.1643Z" fill="#010100"/>
<path fill-rule="evenodd" clip-rule="evenodd" d="M5.959 9.64284C5.31204 9.64417 4.78649 9.12183 4.78516 8.47617C4.78383 7.83051 5.30721 7.30602 5.95417 7.30469C6.60113 7.30336 7.12668 7.82569 7.12801 8.47135C7.13147 8.78226 7.00958 9.08151 6.78973 9.30182C6.56989 9.52213 6.27054 9.64501 5.959 9.64284Z" fill="#020100"/>
<path fill-rule="evenodd" clip-rule="evenodd" d="M14.0136 7.30488C14.6605 7.31044 15.1804 7.83833 15.1748 8.48396C15.1693 9.12959 14.6403 9.64848 13.9934 9.64294C13.3465 9.6374 12.8265 9.10954 12.8321 8.46391C12.8318 8.15294 12.9569 7.85492 13.1791 7.63692C13.4013 7.41893 13.702 7.29927 14.0136 7.30488Z" fill="#020100"/>
<path fill-rule="evenodd" clip-rule="evenodd" d="M11.8284 12.1633C10.6823 12.3316 9.5346 12.3268 8.3845 12.2035C8.32494 12.1971 8.26619 12.1806 8.20703 12.1694C8.49717 11.6533 8.86377 11.2131 9.40945 10.9469C9.81508 10.7493 10.2175 10.7461 10.6235 10.9441C11.1684 11.2083 11.5358 11.6465 11.8284 12.1633Z" fill="#FEFEFD"/>
<path fill-rule="evenodd" clip-rule="evenodd" d="M3.37196 11.249C2.94138 11.2586 2.60215 11.1482 2.39048 10.7972C2.22468 10.5229 2.26613 10.2626 2.48585 10.0281C2.86653 9.62128 3.69309 9.59277 4.09832 9.97309C4.47579 10.3273 4.41542 10.8305 3.96432 11.0928C3.76875 11.2048 3.56231 11.2735 3.37196 11.249Z" fill="#E49C9B"/>
<path fill-rule="evenodd" clip-rule="evenodd" d="M16.6396 9.71832C16.8993 9.69751 17.1574 9.7738 17.3639 9.93238C17.7337 10.2051 17.7607 10.6794 17.4231 10.9842C16.9885 11.3765 16.2009 11.3504 15.7961 10.9304C15.5438 10.6685 15.5446 10.2954 15.7981 10.0332C16.014 9.80289 16.3252 9.68643 16.6396 9.71832Z" fill="#E49C9B"/>
<path fill-rule="evenodd" clip-rule="evenodd" d="M3.1151 5.10648C2.93724 5.10367 2.83341 5.03419 2.77265 4.89805C2.71189 4.7619 2.74529 4.6358 2.84388 4.52857C2.88224 4.49141 2.92509 4.45917 2.97144 4.43259C3.7803 3.92067 4.58821 3.40902 5.39518 2.89765C5.41209 2.8868 5.42859 2.87556 5.44629 2.86552C5.63543 2.75869 5.84026 2.79644 5.94287 2.95708C6.04911 3.12415 6.00444 3.32134 5.81933 3.44303C5.55696 3.61612 5.28854 3.77998 5.02295 3.94825L3.36219 5.00046C3.27768 5.05387 3.19639 5.11692 3.1151 5.10648Z" fill="#040301"/>
<path fill-rule="evenodd" clip-rule="evenodd" d="M16.6354 5.10826C16.5815 5.11348 16.5066 5.07131 16.4318 5.02393C15.613 4.50478 14.7939 3.98577 13.9746 3.4669C13.7593 3.32995 13.7018 3.13878 13.8136 2.96007C13.9255 2.78135 14.1307 2.75445 14.3424 2.88778C15.1682 3.40853 15.9933 3.93062 16.8177 4.45405C16.9678 4.54923 17.0507 4.67654 16.9988 4.85806C16.9529 5.0171 16.8414 5.10103 16.6354 5.10826Z" fill="#040301"/>
</svg>
