<svg width="177" height="12" viewBox="0 0 177 12" fill="none" xmlns="http://www.w3.org/2000/svg">
<path d="M1 1.32258L6.79732 6.56431C12.6651 11.8698 21.7394 11.6121 27.4072 6.09338V6.09338C33.1228 0.52797 42.3273 0.434592 48.0429 6V6C53.7586 11.5654 62.8672 11.5654 68.5828 6V6C74.2985 0.434592 83.4071 0.434592 89.1227 6V6C94.8383 11.5654 103.947 11.5654 109.663 6V6C115.378 0.43459 124.521 0.468002 130.237 6.03341V6.03341C135.914 11.5618 144.996 11.5949 150.674 6.0666V6.0666C156.406 0.485415 165.559 0.546359 171.216 6.20337L176 10.9877" stroke="#595CF3" stroke-width="2"/>
</svg>
