<svg width="16" height="16" viewBox="0 0 16 16" fill="none" xmlns="http://www.w3.org/2000/svg">
<path d="M8.01168 1.25485e-05C12.42 0.00645118 15.9796 3.58665 15.9683 8.00613C15.9587 12.4166 12.3898 15.9772 7.98662 15.971C3.57826 15.963 0.0200316 12.3828 0.0312766 7.96331C0.03963 3.55349 3.60847 -0.00771381 8.01168 1.25485e-05Z" fill="#F1B846"/>
<path fill-rule="evenodd" clip-rule="evenodd" d="M8.03371 12.4343C7.29778 12.4369 6.66132 12.2215 6.21609 11.5957C6.03999 11.3481 5.93504 11.07 5.86583 10.7745C5.8317 10.629 5.88257 10.6096 6.00844 10.6241C6.80329 10.7156 7.602 10.7297 8.40104 10.7207C8.94263 10.7175 9.48372 10.6872 10.0223 10.6299C10.2187 10.6077 10.2245 10.6158 10.1832 10.8128C9.97528 11.8008 9.2107 12.4057 8.13029 12.436C8.0981 12.435 8.06591 12.4343 8.03371 12.4343Z" fill="#010100"/>
<path fill-rule="evenodd" clip-rule="evenodd" d="M4.76745 5.82327C5.28499 5.81903 5.70799 6.23513 5.71225 6.75267C5.71651 7.27021 5.30042 7.69323 4.78288 7.6975C4.26533 7.70177 3.84231 7.28569 3.83803 6.76814C3.83371 6.51893 3.92974 6.27844 4.10453 6.10074C4.27932 5.92305 4.51819 5.82306 4.76745 5.82327Z" fill="#020100"/>
<path fill-rule="evenodd" clip-rule="evenodd" d="M11.2209 5.82336C11.7385 5.82692 12.1552 6.24937 12.1516 6.76692C12.148 7.28447 11.7256 7.70115 11.2081 7.6976C10.6905 7.69405 10.2738 7.27161 10.2774 6.75406C10.2769 6.50484 10.3766 6.26588 10.554 6.09087C10.7315 5.91586 10.9718 5.81947 11.2209 5.82336Z" fill="#020100"/>
<path fill-rule="evenodd" clip-rule="evenodd" d="M2.717 8.98479C2.3677 8.99413 2.09116 8.90689 1.92054 8.61586C1.79434 8.40049 1.82653 8.19735 1.99619 8.01192C2.29623 7.6829 2.96199 7.65522 3.28682 7.95815C3.5978 8.24789 3.54855 8.6532 3.17704 8.86375C3.00319 8.96226 2.91434 8.98447 2.717 8.98479Z" fill="#E49C9B"/>
<path fill-rule="evenodd" clip-rule="evenodd" d="M13.2815 7.75494C13.6253 7.7469 13.8967 7.83575 14.0664 8.11712C14.199 8.33732 14.1656 8.54625 13.9898 8.73394C13.6839 9.06037 13.024 9.08227 12.6988 8.77675C12.3962 8.4912 12.4445 8.09168 12.8064 7.8805C12.9628 7.79036 13.1283 7.73531 13.2815 7.75494Z" fill="#E49C9B"/>
<path fill-rule="evenodd" clip-rule="evenodd" d="M2.60611 4.82931C2.47155 4.81611 2.37754 4.75913 2.33988 4.64002C2.29545 4.52517 2.33731 4.3949 2.44032 4.32742C2.47632 4.30455 2.51503 4.28628 2.55557 4.27302C3.27133 3.99165 3.98709 3.71082 4.70285 3.43052C4.94591 3.33394 5.14261 3.45112 5.13295 3.67809C5.13237 3.78913 5.06119 3.88749 4.95589 3.92275C4.20472 4.21764 3.45354 4.51114 2.70237 4.80324C2.67082 4.81381 2.63868 4.82252 2.60611 4.82931Z" fill="#040301"/>
<path fill-rule="evenodd" clip-rule="evenodd" d="M13.2149 4.82899C13.1768 4.82017 13.1392 4.80942 13.1022 4.79679C12.3663 4.50856 11.6304 4.22032 10.8947 3.93209C10.7592 3.87897 10.6861 3.78593 10.6987 3.6372C10.7099 3.50166 10.7952 3.42955 10.9192 3.3951C10.9775 3.38315 11.0381 3.39097 11.0914 3.41732C11.8329 3.70598 12.5734 3.99572 13.3127 4.28653C13.4644 4.34641 13.5342 4.47744 13.4959 4.61844C13.4592 4.75398 13.3626 4.8174 13.2149 4.82899Z" fill="#040301"/>
</svg>
