<svg width="16" height="16" viewBox="0 0 16 16" fill="none" xmlns="http://www.w3.org/2000/svg">
<path d="M8.01168 1.25485e-05C12.42 0.00645118 15.9796 3.58665 15.9683 8.00613C15.9587 12.4166 12.3898 15.9772 7.98662 15.971C3.57826 15.963 0.0200316 12.3828 0.0312766 7.96331C0.03963 3.55349 3.60847 -0.00771381 8.01168 1.25485e-05Z" fill="#F1B846"/>
<path fill-rule="evenodd" clip-rule="evenodd" d="M5.64993 13.0904C6.40463 13.4461 7.21105 13.5627 8.10198 13.5553C8.54688 13.5606 8.99095 13.5154 9.42567 13.4204C11.2673 13.0273 12.6257 11.5622 12.8911 9.68856C12.9113 9.53661 12.8676 9.48993 12.7185 9.5086C12.6788 9.51372 12.6392 9.51916 12.5996 9.5246C12.5123 9.53658 12.4249 9.54857 12.3365 9.55721C11.2653 9.66313 10.1907 9.70337 9.11499 9.73041C7.80286 9.76454 6.49266 9.73041 5.18246 9.66603C4.56238 9.63576 3.94358 9.59069 3.328 9.50699C3.20495 9.49025 3.14294 9.54112 3.16736 9.67246C3.17155 9.69579 3.17552 9.71921 3.17949 9.74266C3.18983 9.80368 3.2002 9.86486 3.21459 9.92486C3.55258 11.3459 4.30053 12.4543 5.64993 13.0904ZM9.21707 11.3323C8.80749 11.3812 8.39516 11.4034 7.9827 11.3986V11.3982C6.98253 11.3908 5.99747 11.2904 5.05482 10.9192C4.8421 10.8327 4.635 10.7329 4.43474 10.6205C4.19834 10.4907 4.14093 10.2626 4.08396 10.0364C4.07466 9.9994 4.06536 9.96249 4.05531 9.92605C4.03442 9.85072 4.11153 9.85137 4.16647 9.85877C4.7027 9.93153 5.24181 9.96469 5.78189 9.99269C6.98136 10.0558 8.18082 10.0672 9.38029 10.0268C10.1989 9.99946 11.0169 9.96662 11.8301 9.85845C11.9197 9.84686 11.9547 9.86714 11.9335 9.97338C11.8632 10.3259 11.6955 10.5796 11.353 10.7405C10.6722 11.0625 9.95924 11.246 9.21707 11.3323Z" fill="#020201"/>
<path fill-rule="evenodd" clip-rule="evenodd" d="M6.10148 7.36508C6.10148 7.56467 5.99032 7.6854 5.82003 7.69473C5.63433 7.70471 5.51321 7.59397 5.49521 7.39759C5.46309 7.0557 5.20799 6.80073 4.85843 6.76274C4.49762 6.72379 4.16477 6.93111 4.06999 7.25691C4.0576 7.30874 4.04943 7.3615 4.04558 7.41465C4.02534 7.59687 3.90068 7.70439 3.72044 7.69473C3.54019 7.68508 3.43449 7.55824 3.43963 7.3728C3.4557 6.80299 3.95819 6.29723 4.58662 6.21836C5.17136 6.14496 5.73939 6.43373 5.98357 6.92661C6.05082 7.06374 6.09087 7.21265 6.10148 7.36508Z" fill="#030201"/>
<path fill-rule="evenodd" clip-rule="evenodd" d="M11.1683 6.21103C11.8719 6.21263 12.4177 6.65207 12.5177 7.2734C12.5297 7.34198 12.5297 7.41214 12.5177 7.48072C12.4904 7.61787 12.3532 7.70608 12.2009 7.69481C12.0486 7.68354 11.9252 7.58084 11.9243 7.41763C11.922 7.06093 11.5856 6.75541 11.1914 6.7596C10.7972 6.76378 10.5109 7.02165 10.4711 7.41119C10.4518 7.60048 10.3194 7.71155 10.1337 7.69449C9.96023 7.67839 9.85678 7.5493 9.86578 7.35968C9.89019 6.84008 10.313 6.37006 10.8666 6.24547C10.9653 6.22138 11.0667 6.2098 11.1683 6.21103Z" fill="#030201"/>
<path fill-rule="evenodd" clip-rule="evenodd" d="M2.70059 7.75854C2.92185 7.7369 3.14167 7.812 3.30364 7.96458C3.59858 8.23661 3.56485 8.63033 3.22429 8.84441C2.91649 9.03757 2.58461 9.04208 2.2585 8.90397C1.98766 8.78969 1.84083 8.54985 1.86364 8.31967C1.88581 8.09947 2.11232 7.86446 2.36806 7.79202C2.47619 7.76196 2.58865 7.75064 2.70059 7.75854Z" fill="#E49C9B"/>
<path fill-rule="evenodd" clip-rule="evenodd" d="M13.2958 8.98226C13.0796 9.00396 12.8643 8.9323 12.704 8.78524C12.402 8.51514 12.43 8.13236 12.7619 7.90186C13.0831 7.67876 13.6181 7.69647 13.9185 7.94757C14.074 8.07796 14.1736 8.24858 14.1273 8.4559C14.0701 8.71345 13.8825 8.86154 13.6422 8.94524C13.5306 8.9816 13.4126 8.9942 13.2958 8.98226Z" fill="#E49C9B"/>
<path fill-rule="evenodd" clip-rule="evenodd" d="M2.61031 5.14368C2.46348 5.12661 2.36324 5.06738 2.33272 4.92605C2.30059 4.77925 2.36067 4.6685 2.49336 4.61281C2.64051 4.54842 2.79409 4.50207 2.94541 4.44863C3.52951 4.24259 4.11382 4.03666 4.69834 3.83084C4.72854 3.81989 4.75842 3.80766 4.78927 3.79864C4.95537 3.75679 5.0916 3.82182 5.14268 3.96541C5.19633 4.118 5.12951 4.25804 4.95923 4.31953C4.51746 4.4805 4.07344 4.63535 3.63039 4.7918C3.33824 4.89525 3.04587 4.99784 2.75328 5.09957C2.70252 5.11857 2.65079 5.13209 2.61031 5.14368Z" fill="#030201"/>
<path fill-rule="evenodd" clip-rule="evenodd" d="M10.9852 3.78724C11.015 3.79593 11.0671 3.80848 11.1172 3.82587C11.833 4.07698 12.5486 4.32862 13.264 4.5808C13.4443 4.64519 13.5278 4.74981 13.514 4.88921C13.4944 5.0843 13.3167 5.18474 13.1056 5.11102C12.5508 4.91786 11.9972 4.71987 11.4433 4.52414C11.247 4.4546 11.0491 4.38893 10.855 4.3136C10.7182 4.26015 10.6597 4.1507 10.6857 4.00518C10.7105 3.86772 10.8226 3.78337 10.9852 3.78724Z" fill="#030201"/>
<path fill-rule="evenodd" clip-rule="evenodd" d="M7.98202 11.3978C6.98186 11.3904 5.9968 11.29 5.05575 10.9181C4.84303 10.8316 4.63593 10.7319 4.43567 10.6194C4.16065 10.4684 4.12788 10.1845 4.05623 9.92499C4.03535 9.84966 4.11246 9.8503 4.1674 9.85771C4.70362 9.93046 5.24274 9.96362 5.78282 9.99163C6.98228 10.053 8.18175 10.0644 9.38121 10.0258C10.1998 9.99839 11.0178 9.96555 11.831 9.85739C11.9207 9.8458 11.9557 9.86608 11.9345 9.97232C11.8641 10.3264 11.6964 10.5775 11.3539 10.7395C10.6715 11.0614 9.95824 11.2449 9.21639 11.3318C8.8068 11.3807 8.39447 11.4027 7.98202 11.3978Z" fill="#FCFCFC"/>
</svg>
